<?xml version="1.0" encoding="UTF-8" standalone="no"?>
<!-- Created with Inkscape (http://www.inkscape.org/) -->

<svg
   xmlns:dc="http://purl.org/dc/elements/1.1/"
   xmlns:cc="http://creativecommons.org/ns#"
   xmlns:rdf="http://www.w3.org/1999/02/22-rdf-syntax-ns#"
   xmlns:svg="http://www.w3.org/2000/svg"
   xmlns="http://www.w3.org/2000/svg"
   xmlns:sodipodi="http://sodipodi.sourceforge.net/DTD/sodipodi-0.dtd"
   xmlns:inkscape="http://www.inkscape.org/namespaces/inkscape"
   width="107.63837mm"
   height="79.412117mm"
   viewBox="0 0 107.63837 79.412114"
   version="1.1"
   id="svg2283"
   inkscape:version="0.92.3 (2405546, 2018-03-11)"
   sodipodi:docname="math_min.svg">
  <defs
     id="defs2277" />
  <sodipodi:namedview
     id="base"
     pagecolor="#ffffff"
     bordercolor="#666666"
     borderopacity="1.0"
     inkscape:pageopacity="0.0"
     inkscape:pageshadow="2"
     inkscape:zoom="0.35"
     inkscape:cx="95.393599"
     inkscape:cy="768.71178"
     inkscape:document-units="mm"
     inkscape:current-layer="layer1"
     showgrid="false"
     fit-margin-top="0"
     fit-margin-left="0"
     fit-margin-right="0"
     fit-margin-bottom="0"
     inkscape:window-width="1920"
     inkscape:window-height="1001"
     inkscape:window-x="0"
     inkscape:window-y="0"
     inkscape:window-maximized="1" />
  <metadata
     id="metadata2280">
    <rdf:RDF>
      <cc:Work
         rdf:about="">
        <dc:format>image/svg+xml</dc:format>
        <dc:type
           rdf:resource="http://purl.org/dc/dcmitype/StillImage" />
        <dc:title></dc:title>
      </cc:Work>
    </rdf:RDF>
  </metadata>
  <g
     inkscape:label="Layer 1"
     inkscape:groupmode="layer"
     id="layer1"
     transform="translate(109.90623,-847.33342)">
    <g
       id="g1569"
       transform="matrix(0.62226092,0,0,-0.62226092,1069.635,1044.339)"
       inkscape:export-filename="/home/peter/allblocks.png"
       inkscape:export-xdpi="42.094723"
       inkscape:export-ydpi="42.094723">
      <path
         id="path1519"
         d="m -1749.5528,313.88303 -123.7676,-0.3018 -0.081,-8.5253 c -0.073,-7.7564 -0.1385,-8.64143 -0.7266,-9.82475 -0.5744,-1.15587 -0.791,-1.31174 -1.9453,-1.39746 -1.3644,-0.10137 -1.3594,-0.10412 -7.1543,3.6079 -1.6571,1.06145 -2.9235,1.62855 -3.8701,1.73291 -1.2662,0.13957 -1.5374,0.0365 -2.707,-1.02539 -1.0443,-0.94801 -1.3978,-1.57853 -1.7988,-3.208 -0.7955,-3.23199 -1.2038,-7.24196 -1.2364,-11.28516 h -0.01 c 4e-4,-0.10501 0.01,-0.20995 0.01,-0.31494 -5e-4,-0.10503 -0.01,-0.20849 0,-0.31348 h 0.01 c 0.053,-4.04299 0.4808,-8.05124 1.2919,-11.2793 0.4091,-1.62748 0.7662,-2.2563 1.815,-3.19921 1.1748,-1.05611 1.4454,-1.15857 2.7114,-1.01221 0.9461,0.10896 2.2095,0.68243 3.8613,1.75195 5.7768,3.74026 5.772,3.73775 7.1368,3.64307 1.1546,-0.0801 1.3725,-0.23416 1.9526,-1.38721 0.5938,-1.18043 0.6627,-2.06586 0.7734,-9.82178 l 0.1216,-70.02539 123.7706,0.30176 23.9092,0.0586 0.026,17.97363 c -0.044,0.12077 -0.071,0.26214 -0.126,0.37354 -0.2889,0.57709 -0.4881,0.90537 -0.7588,1.09863 -0.2708,0.19327 -0.6136,0.25181 -1.1909,0.29297 -0.3411,0.0243 -0.5956,0.0424 -0.8775,-0.002 -0.2818,-0.0443 -0.5909,-0.15127 -1.0371,-0.37792 -0.8924,-0.4533 -2.3374,-1.3846 -5.2294,-3.24903 -0.827,-0.53315 -1.556,-0.94255 -2.1973,-1.23193 -0.6413,-0.28938 -1.1939,-0.45915 -1.667,-0.5127 -0.6329,-0.0717 -1.0176,-0.0814 -1.3901,0.0586 -0.3726,0.13995 -0.7335,0.43025 -1.3199,0.95946 -0.5235,0.47247 -0.8734,0.86566 -1.144,1.34473 -0.2705,0.47907 -0.4606,1.04329 -0.6636,1.85743 -0.4024,1.61484 -0.7087,3.42519 -0.9199,5.33642 -0.2113,1.91123 -0.3279,3.92279 -0.3501,5.94434 h -0.01 c -3e-4,0.10493 0,0.20998 0,0.31494 0,0.10491 -0.01,0.20997 -0.01,0.31494 h 0.01 c 0.02,2.02158 0.1348,4.03421 0.3442,5.9458 0.2094,1.9116 0.5132,3.72267 0.9141,5.3379 0.2021,0.81432 0.3921,1.3781 0.6621,1.85742 0.2701,0.47933 0.621,0.87321 1.1441,1.34619 0.5857,0.52979 0.9459,0.8208 1.3183,0.96093 0.3724,0.14014 0.7572,0.12964 1.3902,0.0586 0.4731,-0.0531 1.0269,-0.22247 1.6684,-0.51123 0.6416,-0.28877 1.3712,-0.69666 2.1987,-1.22901 2.8938,-1.86169 4.3396,-2.79221 5.2325,-3.24463 0.4464,-0.22621 0.7536,-0.3324 1.0356,-0.37646 0.2819,-0.0441 0.5378,-0.0251 0.8789,0 0.5773,0.0418 0.9204,0.10239 1.1909,0.2959 0.2706,0.19352 0.469,0.51979 0.7574,1.09716 0.078,0.15547 0.117,0.35438 0.1758,0.52149 l 0.025,17.50635 0.02,13.63916 0.01,5.16211 c -0.091,0.36717 -0.1856,0.69077 -0.3326,0.98437 -0.2889,0.57709 -0.488,0.90536 -0.7588,1.09863 -0.2707,0.19327 -0.6136,0.25183 -1.1909,0.29297 -0.3412,0.0243 -0.5956,0.0429 -0.8774,-0.002 -0.2819,-0.0443 -0.591,-0.15128 -1.0371,-0.37793 -0.8925,-0.4533 -2.3375,-1.38459 -5.2295,-3.24902 -0.827,-0.53315 -1.5561,-0.94256 -2.1973,-1.23194 -0.6413,-0.28938 -1.1939,-0.45914 -1.667,-0.51269 -0.6329,-0.0717 -1.0176,-0.0813 -1.3901,0.0586 -0.3726,0.13995 -0.7335,0.43026 -1.3198,0.95947 -0.5236,0.47247 -0.8736,0.86566 -1.1441,1.34473 -0.2705,0.47906 -0.4606,1.04327 -0.6636,1.85742 -0.4025,1.61483 -0.7087,3.4252 -0.9199,5.33642 -0.2113,1.91123 -0.3279,3.92279 -0.3501,5.94434 h -0.01 c -2e-4,0.10492 0,0.20999 0.01,0.31494 0,0.10491 -0.01,0.20997 -0.01,0.31494 h 0.01 c 0.02,2.02157 0.1349,4.03422 0.3443,5.9458 0.2094,1.91159 0.5131,3.72267 0.9141,5.33789 0.2021,0.81433 0.392,1.37811 0.6621,1.85742 0.2701,0.47933 0.621,0.87321 1.144,1.34619 0.5858,0.5298 0.9459,0.8208 1.3184,0.96094 0.3724,0.14015 0.7571,0.12965 1.3901,0.0586 0.4732,-0.0531 1.0269,-0.22247 1.6685,-0.51123 0.6415,-0.28877 1.3712,-0.69666 2.1987,-1.22901 2.8938,-1.86169 4.3395,-2.7922 5.2324,-3.24462 0.4464,-0.22623 0.7538,-0.33241 1.0357,-0.37647 0.2818,-0.044 0.5377,-0.0261 0.8788,-0.001 0.5773,0.0418 0.9204,0.10238 1.191,0.29589 0.2706,0.19352 0.4689,0.5198 0.7573,1.09717 0.1692,0.33881 0.2863,0.67778 0.3823,1.13672 l 0.025,16.88822 -24.2344,0.2651 z"
         style="fill:#2974af;fill-opacity:1;stroke:#225d8c;stroke-width:5.42624998;stroke-miterlimit:4;stroke-dasharray:none;stroke-opacity:1"
         inkscape:connector-curvature="0" />
      <path
         sodipodi:nodetypes="ccccccccccscccccccccccscccccccccccccccccsccccscccccccccccscccccsccccccccc"
         inkscape:connector-curvature="0"
         style="fill:#37abc8;fill-opacity:1;stroke:none;stroke-width:5.42624998;stroke-miterlimit:4;stroke-dasharray:none;stroke-opacity:1"
         d="m -1870.9992,310.64103 c 53.4824,-61.6466 75.8365,-87.46808 119.7388,-115.70154 l 23.9092,-0.0962 0.3833,12.18813 c -0.044,0.12077 -0.071,0.26214 -0.126,0.37354 -0.2889,0.57709 -0.4881,0.90537 -0.7588,1.09863 -0.2708,0.19327 -0.6136,0.25181 -1.1909,0.29297 -0.3412,0.0243 -0.5956,0.0424 -0.8775,-0.002 -0.2818,-0.0443 -0.5909,-0.15127 -1.0371,-0.37792 -0.8924,-0.4533 -2.3374,-1.3846 -5.2294,-3.24903 -0.827,-0.53315 -1.556,-0.94255 -2.1973,-1.23193 -0.6413,-0.28938 -1.1939,-0.45915 -1.667,-0.5127 -0.633,-0.0717 -1.0176,-0.0814 -1.3902,0.0586 -0.3726,0.13995 -0.7335,0.43025 -1.3198,0.95946 -0.5235,0.47247 -0.8734,0.86566 -1.144,1.34473 -0.2705,0.47907 -0.4606,1.04329 -0.6636,1.85743 -0.4024,1.61484 -0.7087,3.42519 -0.9199,5.33642 -0.2113,1.91123 -0.3279,3.92279 -0.3501,5.94434 h -0.01 c -3e-4,0.10493 0,0.20998 0,0.31494 0,0.10491 -0.01,0.20997 -0.01,0.31494 h 0.01 c 0.02,2.02158 0.1348,10.03421 0.3442,11.9458 0.2094,1.9116 0.5132,3.72267 0.9141,5.3379 0.2021,0.81432 0.392,1.3781 0.6621,1.85742 0.2701,0.47933 0.621,0.87321 1.1441,1.34619 0.5857,0.52979 0.9459,0.8208 1.3183,0.96093 0.3724,0.14014 0.7571,0.12964 1.3901,0.0586 0.4732,-0.0531 1.0269,-0.22247 1.6685,-0.51123 0.6416,-0.28877 1.3712,-0.69666 2.1987,-1.22901 2.8938,-1.86169 4.3396,-2.79221 5.2324,-3.24463 0.4464,-0.22621 0.7537,-0.3324 1.0357,-0.37646 0.2819,-0.0441 0.5378,-0.0251 0.8789,0 0.5772,0.0418 0.9204,0.10239 1.1909,0.2959 0.2706,0.19352 0.469,0.51979 0.7573,1.09716 0.078,0.15547 0.1171,0.35438 0.1758,0.52149 l 0.025,16.00635 0.02,9.13916 0.01,5.16211 c -0.091,0.36717 -0.1855,0.69077 -0.3325,0.98437 -0.2889,0.57709 -0.488,0.90536 -0.7588,1.09863 -0.2707,0.19327 -0.6136,0.25183 -1.1909,0.29297 -0.3412,0.0243 -0.5956,0.0429 -0.8774,-0.002 -0.2819,-0.0443 -0.591,-0.15128 -1.0371,-0.37793 -0.8925,-0.4533 -2.3375,-1.38459 -5.2296,-3.24902 -0.8269,-0.53315 -1.556,-0.94256 -2.1972,-1.23194 -0.6413,-0.28938 -1.1939,-0.45914 -1.667,-0.51269 -0.6329,-0.0717 -1.0176,-0.0813 -1.3901,0.0586 -0.3726,0.13995 -0.7335,0.43026 -1.3199,0.95947 -0.5235,0.47247 -0.8735,0.86566 -1.144,1.34473 -0.2705,0.47906 -0.4607,1.04327 -0.6636,1.85742 -0.4025,1.61483 -0.7087,3.4252 -0.9199,5.33642 -0.2113,1.91123 -0.3279,5.42279 -0.3501,7.44434 h -0.01 c -2e-4,0.10492 0,0.20999 0.01,0.31494 0,0.10491 -0.01,0.20997 -0.01,0.31494 h 0.01 c 0.02,2.02157 0.1349,8.53422 0.3443,10.4458 0.2094,1.91159 0.5131,3.72267 0.9141,5.33789 0.2021,0.81433 0.392,1.37811 0.6621,1.85742 0.2701,0.47933 0.621,0.87321 1.144,1.34619 0.5858,0.5298 0.9459,0.8208 1.3184,0.96094 0.3724,0.14015 0.7571,0.12965 1.3901,0.0586 0.4732,-0.0531 1.0269,-0.22247 1.6685,-0.51123 0.6415,-0.28877 1.3712,-0.69666 2.1987,-1.22901 2.8938,-1.86169 4.3395,-2.7922 5.2324,-3.24462 0.4464,-0.22623 0.7538,-0.33241 1.0357,-0.37647 0.2818,-0.044 0.5377,-0.0261 0.8788,-0.001 0.5773,0.0418 0.9204,0.10238 1.191,0.29589 0.2706,0.19352 0.4689,0.5198 0.7573,1.09717 0.1692,0.33881 0.2863,0.67778 0.3823,1.13672 l -0.3322,11.25747 c -47.5809,0.568 -94.9217,0.9595 -143.8232,-0.3459 z"
         id="path1521" />
      <g
         id="g1531"
         transform="translate(-344.92042,177.4215)">
        <rect
           ry="11.329442"
           rx="11.68515"
           transform="scale(1,-1)"
           y="-125.71913"
           x="-1518.5787"
           height="37.757042"
           width="37.757042"
           id="rect1523"
           style="opacity:1;fill:#0032f5;fill-opacity:1;stroke:#ffffff;stroke-width:2;stroke-miterlimit:4;stroke-dasharray:none;stroke-opacity:1" />
        <g
           style="fill:#ffffff"
           transform="matrix(0.11942495,0.11749836,0.11749836,-0.11942495,-1518.7832,107.0828)"
           id="g1529">
          <title
             id="title1525">Layer 1</title>
          <path
             style="fill:#ffffff;fill-rule:evenodd;stroke-width:1.25;stroke-linejoin:round;stroke-miterlimit:4"
             inkscape:connector-curvature="0"
             stroke-miterlimit="4"
             id="path1527"
             d="M 80.476791,3.84649 C 66.996879,3.25614 49.271,8.71378 40.968238,14.63436 38.03176,18.11943 47.28662,32.97744 45.413699,34.58947 42.462371,35.942322 33.382819,45.597939 32.590228,47.735661 31.797599,49.873391 16.935759,40.913792 13.049699,42.36591 5.939909,53.431649 1.089979,71.845597 1.997059,81.937539 c 1.52907,4.278915 19.15685,3.980179 19.60162,6.397743 -0.330481,3.203857 3.432669,15.867478 4.885139,17.633048 1.45245,1.76557 -13.55446,9.76252 -13.92264,13.33971 6.340731,11.76687 19.97086,24.24561 29.298611,28.40882 4.515789,0.77728 12.895691,-14.58812 15.2416,-13.78716 2.65818,1.8555 15.638058,4.81479 17.904041,4.42639 2.26593,-0.38838 1.521027,16.4871 5.532372,19.1811 14.034286,0.58659 30.358768,-4.4645 38.702528,-10.32827 2.96069,-3.46496 -6.19522,-18.39219 -4.31113,-19.9914 2.96069,-1.33269 12.11372,-10.92926 12.92121,-13.06155 0.80746,-2.13227 15.34598,6.66174 19.6871,5.07951 7.51844,-11.24549 11.77134,-29.131788 10.83276,-39.220892 -1.54244,-4.2742 -19.17371,-3.921089 -19.62605,-6.337265 0.32046,-3.20488 -3.47602,-15.859871 -4.93398,-17.620972 -1.45795,-1.76112 12.93781,-9.36475 13.65398,-13.36388 C 141.27357,31.155051 128.28973,18.168011 118.98387,13.95708 114.47215,13.15669 106.02295,28.484659 103.68115,27.6717 101.03273,25.80259 88.057341,22.77175 85.789359,23.14853 83.521377,23.525321 83.91651,6.653721 80.47679,3.846491 Z m 1.355637,57.894042 c 10.671585,0 19.332872,8.589401 19.332872,19.169006 0,10.579605 -8.661287,19.169022 -19.332872,19.169022 -10.671646,0 -19.332939,-8.589417 -19.332939,-19.169022 0,-10.579605 8.661293,-19.169006 19.332939,-19.169006 z" />
        </g>
      </g>
      <rect
         rx="4.0446839"
         ry="2.0164082"
         transform="matrix(0.9999721,0.00747001,0.02696542,-0.99963637,0,0)"
         y="-322.45233"
         x="-1766.3542"
         height="4.0328164"
         width="46.330078"
         id="rect1533"
         style="opacity:1;fill:#ffffff;fill-opacity:1;stroke:none;stroke-width:2.33531046;stroke-miterlimit:4;stroke-dasharray:none;stroke-opacity:1" />
      <rect
         style="opacity:1;fill:#ffffff;fill-opacity:1;stroke:none;stroke-width:2.71123862;stroke-miterlimit:4;stroke-dasharray:none;stroke-opacity:1"
         id="rect1535"
         width="26.248585"
         height="3.9411135"
         x="-1811.4319"
         y="-304.6004"
         transform="matrix(0.9999967,-0.00256827,-0.0230192,-0.99973502,0,0)"
         ry="1.9705567"
         rx="2.2686081" />
      <rect
         ry="5.6740026"
         rx="5.183898"
         transform="scale(1,-1)"
         y="-303.91864"
         x="-1819.0638"
         height="39.805294"
         width="68.361259"
         id="rect1537"
         style="opacity:0.5;fill:#e6e6e6;fill-opacity:1;stroke:none;stroke-width:13.13321495;stroke-miterlimit:4;stroke-dasharray:none;stroke-opacity:1" />
      <text
         xml:space="preserve"
         style="font-style:normal;font-variant:normal;font-weight:normal;font-stretch:normal;font-size:37.55853653px;line-height:1.25;font-family:'Bebas Neue';-inkscape-font-specification:'Bebas Neue';text-align:center;letter-spacing:0px;word-spacing:0px;text-anchor:middle;fill:#000000;fill-opacity:1;stroke:none;stroke-width:2.01206446"
         x="-1784.8959"
         y="-270.87054"
         id="text1541"
         transform="scale(1,-1)"><tspan
           sodipodi:role="line"
           id="tspan1539"
           x="-1784.8959"
           y="-270.87054"
           style="font-style:normal;font-variant:normal;font-weight:normal;font-stretch:normal;font-family:PAGRevolucionW00-Regular;-inkscape-font-specification:PAGRevolucionW00-Regular;fill:#000000;stroke-width:2.01206446">min</tspan></text>
    </g>
  </g>
</svg>
