<?xml version="1.0" encoding="UTF-8" standalone="no"?>
<!-- Created with Inkscape (http://www.inkscape.org/) -->

<svg
   xmlns:dc="http://purl.org/dc/elements/1.1/"
   xmlns:cc="http://creativecommons.org/ns#"
   xmlns:rdf="http://www.w3.org/1999/02/22-rdf-syntax-ns#"
   xmlns:svg="http://www.w3.org/2000/svg"
   xmlns="http://www.w3.org/2000/svg"
   xmlns:sodipodi="http://sodipodi.sourceforge.net/DTD/sodipodi-0.dtd"
   xmlns:inkscape="http://www.inkscape.org/namespaces/inkscape"
   width="248.38951mm"
   height="47.512096mm"
   viewBox="0 0 248.38951 47.512095"
   version="1.1"
   id="svg2283"
   inkscape:version="0.92.3 (2405546, 2018-03-11)"
   sodipodi:docname="math_random_set_seed_to.svg">
  <defs
     id="defs2277" />
  <sodipodi:namedview
     id="base"
     pagecolor="#ffffff"
     bordercolor="#666666"
     borderopacity="1.0"
     inkscape:pageopacity="0.0"
     inkscape:pageshadow="2"
     inkscape:zoom="0.35"
     inkscape:cx="-108.15057"
     inkscape:cy="840.18935"
     inkscape:document-units="mm"
     inkscape:current-layer="layer1"
     showgrid="false"
     fit-margin-top="0"
     fit-margin-left="0"
     fit-margin-right="0"
     fit-margin-bottom="0"
     inkscape:window-width="1920"
     inkscape:window-height="1001"
     inkscape:window-x="0"
     inkscape:window-y="0"
     inkscape:window-maximized="1" />
  <metadata
     id="metadata2280">
    <rdf:RDF>
      <cc:Work
         rdf:about="">
        <dc:format>image/svg+xml</dc:format>
        <dc:type
           rdf:resource="http://purl.org/dc/dcmitype/StillImage" />
        <dc:title></dc:title>
      </cc:Work>
    </rdf:RDF>
  </metadata>
  <g
     inkscape:label="Layer 1"
     inkscape:groupmode="layer"
     id="layer1"
     transform="translate(104.0548,-898.14524)">
    <g
       id="g26">
      <path
         style="fill:#2974af;fill-opacity:1;stroke:#225d8c;stroke-width:3.37654328;stroke-miterlimit:4;stroke-dasharray:none;stroke-opacity:1"
         d="m 142.4465,937.40049 0.19701,-10.65149 c -0.0616,-0.32651 -0.14455,-0.53756 -0.25892,-0.76596 -0.35948,-0.7182 -0.49445,-0.81454 -1.21285,-0.86576 -0.8492,-0.0605 -0.84634,-0.0622 -4.4455,2.25816 -1.02915,0.66351 -1.81625,1.01871 -2.4051,1.08536 -0.78765,0.0892 -0.95623,0.0256 -1.68601,-0.63304 -0.65151,-0.588 -0.87285,-0.97981 -1.12542,-1.99303 -0.5008,-2.00969 -0.76234,-4.50404 -0.78996,-7.0199 l -0.006,1.9e-4 c -1.2e-4,-0.0653 0,-0.13046 0,-0.19576 -6.2e-4,-0.0653 -0.006,-0.13045 -0.006,-0.19577 l 0.006,-1.9e-4 c 0.0255,-2.51588 0.28431,-5.01089 0.78324,-7.02106 0.25152,-1.01345 0.47255,-1.40545 1.1235,-1.99409 0.7291,-0.65934 0.89767,-0.7227 1.68539,-0.63429 0.58891,0.0661 1.37632,0.42053 2.40616,1.08305 3.60133,2.31692 3.59853,2.31524 4.44761,2.2539 0.71834,-0.052 0.85324,-0.14838 1.21204,-0.86693 0.11418,-0.22849 0.19676,-0.43964 0.25817,-0.76621 l -0.006,-10.44931 -15.07981,-0.19484 c -1.40394,6.2e-4 -3.24179,10e-4 -5.45928,0.002 -2.21755,6.2e-4 -4.81468,10e-4 -7.73719,0.002 -2.92258,6.2e-4 -6.17053,10e-4 -9.68966,0.002 -3.51914,6.3e-4 -7.309453,10e-4 -11.316751,0.002 -4.007236,6.2e-4 -8.231392,0.001 -12.618331,0.002 -4.386877,6.2e-4 -8.936476,10e-4 -13.594597,0.002 -4.658058,6.3e-4 -9.424577,0.001 -14.245357,0.002 -4.820779,6.2e-4 -9.69582,10e-4 -14.570861,0.002 -4.874979,6.2e-4 -9.75002,10e-4 -14.5708,0.002 -4.82078,6.3e-4 -9.587298,10e-4 -14.2454191,0.002 -4.6580586,6.2e-4 -9.20765708,10e-4 -13.5945966,0.002 -4.3868772,6.2e-4 -8.6110953,0.001 -12.6183313,0.002 -4.007236,6.3e-4 -49.601725,10e-4 -53.120859,0.002 -3.519135,6.2e-4 -6.767088,6.53498 -9.689661,6.53561 -2.922572,6.2e-4 -5.519703,-6.5325 -7.737192,-6.53188 -2.217489,6.3e-4 -4.055336,10e-4 -5.459344,0.002 0,0 -10.17963,-0.40472 -9.6227,9.39816 l 0.006,9.39352 0.006,9.39354 c -0.54778,8.98417 9.631666,9.38889 9.631666,9.38889 1.404007,-6.2e-4 3.241855,-10e-4 5.459344,-0.002 2.217489,-6.3e-4 4.814619,6.53239 7.737192,6.53171 2.922511,-6.2e-4 6.170526,-6.53509 9.689661,-6.53576 3.519134,-6.2e-4 49.113623,-10e-4 53.120859,-0.002 4.007236,-6.2e-4 8.2314539,-0.001 12.6183311,-0.002 4.3869395,-6.2e-4 8.936538,-10e-4 13.5945966,-0.002 4.6580583,-6.2e-4 9.4246393,-0.001 14.2454193,-0.002 4.82078,-6.2e-4 9.695821,-10e-4 14.570799,-0.002 4.875041,-6.2e-4 9.75002,-10e-4 14.5708,-0.002 4.820842,-6.2e-4 9.587361,-10e-4 14.245419,-0.002 4.658121,-6.2e-4 9.207719,-10e-4 13.594597,-0.002 4.386877,-6.3e-4 8.611095,-0.001 12.618331,-0.002 4.007298,-6.2e-4 7.797615,-10e-4 11.316745,-0.002 3.51914,-6.2e-4 6.76709,-10e-4 9.68966,-0.002 2.92251,-6.3e-4 5.51964,-10e-4 7.7372,-0.002 2.21748,-6.2e-4 4.05533,-10e-4 5.45928,-0.002 z"
         id="path1656"
         inkscape:connector-curvature="0"
         sodipodi:nodetypes="cccccccccccccccsccccccssssssssssssssscccccssssssssssssssscc" />
      <path
         sodipodi:nodetypes="ccccccccccccccccscccccccc"
         inkscape:connector-curvature="0"
         id="path1658"
         d="m 141.46837,935.78872 0.20199,-0.20218 0.19464,-7.55964 c -0.0616,-0.3265 -0.14455,-0.53755 -0.25892,-0.76595 -0.35948,-0.7182 -0.49445,-0.81455 -1.21285,-0.86575 -0.8492,-0.0606 -1.23494,0.11683 -4.8341,2.4372 -1.02916,0.66351 -1.81625,1.01871 -2.4051,1.08536 -0.937,-0.15115 -0.9095,-0.20846 -1.63928,-0.86711 -0.65151,-0.588 -0.91958,-0.74577 -1.17209,-1.75896 -0.50086,-2.00969 -1.07471,-6.71562 -1.10234,-9.23148 l -0.006,1.9e-4 c -1.3e-4,-0.0653 0,-0.13045 0.006,-0.19577 0,-0.0653 -0.006,-0.13044 -0.006,-0.19576 l 0.006,-1.9e-4 c 0.0255,-2.51588 0.57578,-5.45309 1.07471,-7.46326 0.25152,-1.01345 0.47254,-1.40547 1.12349,-1.9941 0.7291,-0.65934 0.89761,-0.7227 1.68539,-0.63428 0.58891,0.0661 1.37632,0.42052 2.40616,1.08304 3.60134,2.31693 3.61335,2.44974 4.46242,2.38838 0.7184,-0.052 0.85325,-0.14836 1.2121,-0.86693 0.11413,-0.22848 0.1967,-0.43962 0.25812,-0.7662 l -0.23733,-7.93853 -209.59646,0.29256 c 36.024987,24.01676 127.31334,28.32861 192.14608,33.9474 z"
         style="fill:#37abc8;fill-opacity:1;stroke:none;stroke-width:3.37654328;stroke-miterlimit:4;stroke-dasharray:none;stroke-opacity:1" />
      <rect
         style="opacity:1;fill:#ffffff;fill-opacity:1;stroke:none;stroke-width:1.45317245;stroke-miterlimit:4;stroke-dasharray:none;stroke-opacity:1"
         id="rect1670"
         width="28.829397"
         height="2.509464"
         x="86.401649"
         y="903.76355"
         transform="matrix(0.9999721,-0.00747002,0.02696542,0.99963637,0,0)"
         ry="1.254732"
         rx="2.5168488" />
      <rect
         rx="1.4116662"
         ry="1.2262005"
         transform="matrix(0.9999967,0.00256826,-0.0230192,0.99973502,0,0)"
         y="902.72467"
         x="113.24124"
         height="2.4524009"
         width="16.333469"
         id="rect1672"
         style="opacity:1;fill:#ffffff;fill-opacity:1;stroke:none;stroke-width:1.68709779;stroke-miterlimit:4;stroke-dasharray:none;stroke-opacity:1" />
      <text
         id="text1692"
         y="928.21356"
         x="19.889492"
         style="font-style:normal;font-variant:normal;font-weight:normal;font-stretch:normal;font-size:23.3712101px;line-height:1.25;font-family:'Bebas Neue';-inkscape-font-specification:'Bebas Neue';text-align:center;letter-spacing:0px;word-spacing:0px;text-anchor:middle;fill:#ffffff;fill-opacity:1;stroke:none;stroke-width:1.25202906"
         xml:space="preserve"><tspan
           style="font-style:normal;font-variant:normal;font-weight:normal;font-stretch:normal;font-family:Digitalt;-inkscape-font-specification:Digitalt;fill:#ffffff;stroke-width:1.25202906"
           y="928.21356"
           x="19.88949"
           id="tspan1690"
           sodipodi:role="line">random set seed to</tspan></text>
    </g>
  </g>
</svg>
