<?xml version="1.0" encoding="UTF-8" standalone="no"?>
<!-- Created with Inkscape (http://www.inkscape.org/) -->

<svg
   xmlns:dc="http://purl.org/dc/elements/1.1/"
   xmlns:cc="http://creativecommons.org/ns#"
   xmlns:rdf="http://www.w3.org/1999/02/22-rdf-syntax-ns#"
   xmlns:svg="http://www.w3.org/2000/svg"
   xmlns="http://www.w3.org/2000/svg"
   xmlns:sodipodi="http://sodipodi.sourceforge.net/DTD/sodipodi-0.dtd"
   xmlns:inkscape="http://www.inkscape.org/namespaces/inkscape"
   width="205.28313mm"
   height="41.140285mm"
   viewBox="0 0 205.28312 41.140284"
   version="1.1"
   id="svg2283"
   inkscape:version="0.92.3 (2405546, 2018-03-11)"
   sodipodi:docname="math_random_fraction.svg">
  <defs
     id="defs2277" />
  <sodipodi:namedview
     id="base"
     pagecolor="#ffffff"
     bordercolor="#666666"
     borderopacity="1.0"
     inkscape:pageopacity="0.0"
     inkscape:pageshadow="2"
     inkscape:zoom="0.35"
     inkscape:cx="-82.349587"
     inkscape:cy="77.744763"
     inkscape:document-units="mm"
     inkscape:current-layer="layer1"
     showgrid="false"
     fit-margin-top="0"
     fit-margin-left="0"
     fit-margin-right="0"
     fit-margin-bottom="0"
     inkscape:window-width="1920"
     inkscape:window-height="1001"
     inkscape:window-x="0"
     inkscape:window-y="0"
     inkscape:window-maximized="1" />
  <metadata
     id="metadata2280">
    <rdf:RDF>
      <cc:Work
         rdf:about="">
        <dc:format>image/svg+xml</dc:format>
        <dc:type
           rdf:resource="http://purl.org/dc/dcmitype/StillImage" />
        <dc:title></dc:title>
      </cc:Work>
    </rdf:RDF>
  </metadata>
  <g
     inkscape:label="Layer 1"
     inkscape:groupmode="layer"
     id="layer1"
     transform="translate(110.88132,-672.54883)">
    <g
       id="g26">
      <path
         style="fill:#2974af;fill-opacity:1;stroke:#225d8c;stroke-width:3.37654328;stroke-miterlimit:4;stroke-dasharray:none;stroke-opacity:1"
         d="m 92.598016,711.77482 0.110576,-37.37243 -15.08012,-0.16528 -174.663476,0.18794 -0.04978,5.30472 c -0.04543,4.82648 -0.08606,5.37768 -0.45201,6.11402 -0.357427,0.71925 -0.492084,0.81595 -1.21036,0.86929 -0.84895,0.0631 -0.846088,0.0647 -4.452026,-2.24516 -1.03109,-0.6605 -1.81918,-1.01341 -2.40821,-1.07834 -0.78791,-0.0869 -0.95636,-0.0232 -1.68415,0.63759 -0.64977,0.58991 -0.87011,0.98234 -1.11964,1.99629 -0.49494,2.01114 -0.7492,4.50665 -0.76942,7.02257 l -0.006,3e-5 c 2.5e-4,0.0653 0.006,0.13043 0.006,0.19576 -3.8e-4,0.0654 0,0.13045 0,0.19578 l 0.006,-3e-5 c 0.0324,2.5158 0.29893,5.00963 0.80371,7.01833 0.25451,1.01272 0.47665,1.40407 1.12928,1.99081 0.73109,0.65717 0.89948,0.72083 1.68726,0.62976 0.58872,-0.0678 1.37507,-0.42455 2.40299,-1.09008 3.594549,-2.3274 3.591687,-2.32578 4.441011,-2.26686 0.718462,0.0498 0.853617,0.14588 1.214591,0.86338 0.369498,0.73453 0.412932,1.28553 0.481817,6.11174 l 0.07567,5.3044 174.663475,-0.18794 z"
         id="path1711"
         inkscape:connector-curvature="0"
         sodipodi:nodetypes="cccccccccccccccccccscccccc" />
      <path
         sodipodi:nodetypes="ccccc"
         inkscape:connector-curvature="0"
         id="path1713"
         d="m 91.616711,710.16496 -0.310695,-34.31138 -186.636896,0.26406 c 40.744338,20.89107 134.312468,30.05151 169.253601,34.01004 z"
         style="fill:#37abc8;fill-opacity:1;stroke:none;stroke-width:3.37654328;stroke-miterlimit:4;stroke-dasharray:none;stroke-opacity:1" />
      <rect
         rx="2.5168488"
         ry="1.254732"
         transform="matrix(0.9999721,-0.00747002,0.02696542,0.99963637,0,0)"
         y="677.565"
         x="42.341015"
         height="2.509464"
         width="28.829397"
         id="rect1731"
         style="opacity:1;fill:#ffffff;fill-opacity:1;stroke:none;stroke-width:1.45317245;stroke-miterlimit:4;stroke-dasharray:none;stroke-opacity:1" />
      <rect
         style="opacity:1;fill:#ffffff;fill-opacity:1;stroke:none;stroke-width:1.68709779;stroke-miterlimit:4;stroke-dasharray:none;stroke-opacity:1"
         id="rect1733"
         width="16.333469"
         height="2.4524009"
         x="57.886589"
         y="677.0199"
         transform="matrix(0.9999967,0.00256826,-0.0230192,0.99973502,0,0)"
         ry="1.2262005"
         rx="1.4116662" />
      <text
         xml:space="preserve"
         style="font-style:normal;font-variant:normal;font-weight:normal;font-stretch:normal;font-size:23.3712101px;line-height:1.25;font-family:'Bebas Neue';-inkscape-font-specification:'Bebas Neue';text-align:center;letter-spacing:0px;word-spacing:0px;text-anchor:middle;fill:#ffffff;fill-opacity:1;stroke:none;stroke-width:1.25202906"
         x="-2.2960765"
         y="701.29907"
         id="text1751"><tspan
           sodipodi:role="line"
           id="tspan1749"
           x="-2.2960753"
           y="701.29907"
           style="font-style:normal;font-variant:normal;font-weight:normal;font-stretch:normal;font-family:Digitalt;-inkscape-font-specification:Digitalt;fill:#ffffff;stroke-width:1.25202906">random fraction</tspan></text>
    </g>
  </g>
</svg>
