<?xml version="1.0" encoding="UTF-8" standalone="no"?>
<!-- Created with Inkscape (http://www.inkscape.org/) -->

<svg
   xmlns:dc="http://purl.org/dc/elements/1.1/"
   xmlns:cc="http://creativecommons.org/ns#"
   xmlns:rdf="http://www.w3.org/1999/02/22-rdf-syntax-ns#"
   xmlns:svg="http://www.w3.org/2000/svg"
   xmlns="http://www.w3.org/2000/svg"
   xmlns:sodipodi="http://sodipodi.sourceforge.net/DTD/sodipodi-0.dtd"
   xmlns:inkscape="http://www.inkscape.org/namespaces/inkscape"
   width="218.7092mm"
   height="61.677502mm"
   viewBox="0 0 218.70919 61.6775"
   version="1.1"
   id="svg2283"
   inkscape:version="0.92.3 (2405546, 2018-03-11)"
   sodipodi:docname="math_not_equal.svg">
  <defs
     id="defs2277" />
  <sodipodi:namedview
     id="base"
     pagecolor="#ffffff"
     bordercolor="#666666"
     borderopacity="1.0"
     inkscape:pageopacity="0.0"
     inkscape:pageshadow="2"
     inkscape:zoom="3.470122"
     inkscape:cx="437.14286"
     inkscape:cy="105.71429"
     inkscape:document-units="mm"
     inkscape:current-layer="layer1"
     showgrid="false"
     fit-margin-top="0"
     fit-margin-left="0"
     fit-margin-right="0"
     fit-margin-bottom="0"
     inkscape:window-width="1920"
     inkscape:window-height="1001"
     inkscape:window-x="0"
     inkscape:window-y="0"
     inkscape:window-maximized="1" />
  <metadata
     id="metadata2280">
    <rdf:RDF>
      <cc:Work
         rdf:about="">
        <dc:format>image/svg+xml</dc:format>
        <dc:type
           rdf:resource="http://purl.org/dc/dcmitype/StillImage" />
        <dc:title />
      </cc:Work>
    </rdf:RDF>
  </metadata>
  <g
     inkscape:label="Layer 1"
     inkscape:groupmode="layer"
     id="layer1"
     transform="translate(143.76091,-569.59266)">
    <g
       id="g35">
      <path
         id="path1495"
         d="m -52.897514,571.28094 -77.016636,0.18773 -0.0502,5.30503 c -0.0453,4.8265 -0.0862,5.3772 -0.45211,6.11352 -0.35745,0.71927 -0.49227,0.81628 -1.2105,0.86961 -0.849,0.0631 -0.84593,0.0648 -4.45184,-2.24505 -1.03111,-0.66053 -1.8192,-1.01342 -2.40822,-1.07832 -0.78792,-0.0869 -0.95666,-0.0236 -1.68448,0.63713 -0.64976,0.58991 -0.8698,0.98224 -1.11934,1.99622 -0.49496,2.01114 -0.74905,4.50728 -0.76932,7.02321 h -0.006 c 2.7e-4,0.0653 0.004,0.12974 0.004,0.19508 -3.5e-4,0.0653 -0.002,0.13061 -0.002,0.19595 h 0.004 c 0.0326,2.5158 0.2992,5.01 0.80396,7.01866 0.25451,1.01273 0.47673,1.40401 1.12937,1.9908 0.73107,0.65717 0.89943,0.72089 1.68721,0.62985 0.5887,-0.0678 1.37488,-0.42469 2.40275,-1.0902 3.5946,-2.32738 3.59163,-2.32582 4.44091,-2.26696 0.7185,0.0498 0.85409,0.14574 1.21505,0.86321 0.36951,0.73457 0.4124,1.28552 0.48127,6.11172 l 0.0757,25.83963 77.017555,-0.18867 125.951322,-0.0355 0.111204,-57.90766 z m -36.115134,10.71483 15.080108,0.1659 -0.110296,37.37212 -14.877748,0.0367 -12.613546,0.1878 -0.0757,-5.30415 c -0.0689,-4.8262 -0.11177,-5.37715 -0.48128,-6.11166 -0.36095,-0.71753 -0.49654,-0.81336 -1.21505,-0.86321 -0.84928,-0.0591 -0.8463,-0.0603 -4.44089,2.2669 -1.02788,0.66557 -1.81406,1.0215 -2.40276,1.08927 -0.78778,0.0911 -0.95614,0.028 -1.68722,-0.62892 -0.65263,-0.58673 -0.87485,-0.97894 -1.12936,-1.99167 -0.50476,-2.00872 -0.77141,-4.502 -0.80396,-7.01773 h -0.004 c -6.1e-4,-0.0653 0.001,-0.13068 0.002,-0.19602 0,-0.0653 -0.003,-0.13061 -0.004,-0.19595 h 0.006 c 0.0203,-2.51592 0.27436,-5.01119 0.76932,-7.02234 0.24955,-1.01397 0.46957,-1.40631 1.11934,-1.99621 0.72781,-0.66078 0.89656,-0.72487 1.68448,-0.63807 0.58902,0.065 1.37711,0.41785 2.40822,1.07832 3.6059,2.30983 3.60285,2.30909 4.45184,2.24599 0.71823,-0.0535 0.85305,-0.15034 1.21049,-0.86961 0.36592,-0.73632 0.40682,-1.28796 0.45211,-6.1144 l 0.0492,-5.30415 z m 131.253608,0 15.080101,0.1659 -0.110289,37.37212 -14.877749,0.0367 -12.613546,0.1878 -0.07565,-5.30415 c -0.06887,-4.8262 -0.112679,-5.37715 -0.482197,-6.11166 -0.360954,-0.71753 -0.49563,-0.81336 -1.214136,-0.86321 -0.849281,-0.0591 -0.846306,-0.0603 -4.440902,2.2669 -1.027876,0.66557 -1.814053,1.0215 -2.402749,1.08927 -0.787782,0.0911 -0.956141,0.028 -1.687217,-0.62892 -0.652633,-0.58673 -0.874855,-0.97894 -1.129366,-1.99167 -0.504753,-2.00872 -0.771411,-4.502 -0.803961,-7.01773 h -0.0056 c -4.67e-4,-0.0653 0.0012,-0.13068 0.0019,-0.19602 0,-0.0653 -0.0025,-0.13061 -0.0031,-0.19595 h 0.0056 c 0.02022,-2.51592 0.274361,-5.01119 0.76932,-7.02234 0.249545,-1.01397 0.469577,-1.40631 1.119342,-1.99621 0.727815,-0.66078 0.89656,-0.72487 1.684479,-0.63807 0.58902,0.065 1.377113,0.41785 2.408224,1.07832 3.605903,2.30983 3.602847,2.30909 4.451842,2.24599 0.718226,-0.0535 0.853045,-0.15034 1.21049,-0.86961 0.36592,-0.73632 0.406809,-1.28796 0.45211,-6.1144 l 0.04922,-5.30415 z"
         style="fill:#2974af;fill-opacity:1;stroke:#225d8c;stroke-width:3.37654328;stroke-miterlimit:4;stroke-dasharray:none;stroke-opacity:1"
         inkscape:connector-curvature="0"
         sodipodi:nodetypes="ccccccccccccccccccscccccccccccccccscccccccccccccccccccccccccsccccccccccccccccc" />
      <path
         sodipodi:nodetypes="cccccccccccccccccccccccccccccccccccc"
         inkscape:connector-curvature="0"
         id="path1497"
         d="m 70.920872,572.89701 -198.919932,0.4667 c 2.2545,1.49666 4.38018,2.94273 6.39337,4.34064 2.01319,1.39791 3.91323,2.74797 5.7152,4.0526 1.80197,1.30463 3.50643,2.56415 5.12727,3.78098 1.62084,1.21683 3.15797,2.39029 4.62776,3.5248 1.46979,1.13456 2.01554,1.4465 2.77465,2.20317 l 0.22697,-10.79417 30.608673,0.0875 0.216031,31.39897 c 1.464341,0.63963 3.297062,1.32405 4.911244,1.93604 18.493283,8.68471 104.203085,13.30177 111.536629,13.67363 h 27.170439 z m -11.818863,7.4891 -0.09711,40.92323 -30.898359,0.1649 0.02508,-7.02034 c -0.06887,-4.8262 -0.112679,-4.44376 -0.48219,-5.17827 -2.380086,-0.092 -3.268258,1.38727 -4.721648,2.33709 -1.027869,0.6655 -1.814058,1.02144 -2.402755,1.08926 -0.787782,0.091 -0.956141,0.028 -1.68721,-0.62892 -0.65264,-0.58673 -1.808253,-1.91233 -2.062764,-2.92506 -0.504753,-2.00872 -0.771411,-5.43539 -0.803955,-7.95119 h -0.0056 c -4.67e-4,-0.0653 0.0012,-0.13061 0.0019,-0.19595 0,-0.0653 -0.0031,-0.13061 -0.0031,-0.19595 h 0.0056 c 0.02028,-2.51592 0.274354,-5.94458 0.769313,-7.95573 0.249552,-1.01397 1.402968,-2.3397 2.052733,-2.9296 0.727821,-0.66078 0.89656,-0.72493 1.684485,-0.63807 0.589014,0.065 1.377114,0.41785 2.408219,1.07832 1.416657,0.94328 4.254677,3.20825 4.72894,2.30977 0.36592,-0.73632 0.406815,-0.35456 0.45211,-5.18101 l -0.01101,-7.13335 z"
         style="fill:#37abc8;fill-opacity:1;stroke:none;stroke-width:3.37654328;stroke-miterlimit:4;stroke-dasharray:none;stroke-opacity:1" />
      <rect
         rx="2.5168488"
         ry="1.254732"
         transform="matrix(0.9999721,-0.00747002,0.02696542,0.99963637,0,0)"
         y="575.57275"
         x="24.153299"
         height="2.509464"
         width="28.829397"
         id="rect1499"
         style="opacity:1;fill:#ffffff;fill-opacity:1;stroke:none;stroke-width:1.45317245;stroke-miterlimit:4;stroke-dasharray:none;stroke-opacity:1" />
      <rect
         style="opacity:1;fill:#ffffff;fill-opacity:1;stroke:none;stroke-width:1.68709779;stroke-miterlimit:4;stroke-dasharray:none;stroke-opacity:1"
         id="rect1501"
         width="16.333469"
         height="2.4524009"
         x="34.611755"
         y="575.22693"
         transform="matrix(0.9999967,0.00256826,-0.0230192,0.99973502,0,0)"
         ry="1.2262005"
         rx="1.4116662" />
      <rect
         style="opacity:0.5;fill:#e6e6e6;fill-opacity:1;stroke:none;stroke-width:11.09699249;stroke-miterlimit:4;stroke-dasharray:none;stroke-opacity:1"
         id="rect1503"
         width="78.434319"
         height="24.769279"
         x="-67.397911"
         y="587.84943"
         rx="7.9268942"
         ry="7.5868263" />
      <text
         xml:space="preserve"
         style="font-style:normal;font-variant:normal;font-weight:normal;font-stretch:normal;font-size:23.3712101px;line-height:1.25;font-family:'Bebas Neue';-inkscape-font-specification:'Bebas Neue';text-align:center;letter-spacing:0px;word-spacing:0px;text-anchor:middle;fill:#333333;fill-opacity:1;stroke:none;stroke-width:1.25202906"
         x="-28.18985"
         y="608.41394"
         id="text1507"><tspan
           dx="0 -4.4906569"
           sodipodi:role="line"
           id="tspan1505"
           x="-28.18985"
           y="608.41394"
           style="font-style:normal;font-variant:normal;font-weight:normal;font-stretch:normal;font-family:Digitalt;-inkscape-font-specification:Digitalt;fill:#333333;stroke-width:1.25202906">==</tspan></text>
      <text
         xml:space="preserve"
         style="font-style:normal;font-variant:normal;font-weight:normal;font-stretch:normal;font-size:8.71165276px;line-height:1.25;font-family:'Bebas Neue';-inkscape-font-specification:'Bebas Neue';text-align:center;letter-spacing:0px;word-spacing:0px;text-anchor:middle;fill:#333333;fill-opacity:1;stroke:none;stroke-width:0.4666957"
         x="-28.179632"
         y="608.40118"
         id="text1511"><tspan
           sodipodi:role="line"
           id="tspan1509"
           x="-28.179632"
           y="608.40118"
           style="font-style:normal;font-variant:normal;font-weight:normal;font-stretch:normal;font-size:23.33478355px;font-family:Digitalt;-inkscape-font-specification:Digitalt;fill:#333333;fill-opacity:1;stroke-width:0.4666957">/</tspan></text>
    </g>
  </g>
</svg>
