<?xml version="1.0" encoding="UTF-8" standalone="no"?>
<!-- Created with Inkscape (http://www.inkscape.org/) -->

<svg
   xmlns:dc="http://purl.org/dc/elements/1.1/"
   xmlns:cc="http://creativecommons.org/ns#"
   xmlns:rdf="http://www.w3.org/1999/02/22-rdf-syntax-ns#"
   xmlns:svg="http://www.w3.org/2000/svg"
   xmlns="http://www.w3.org/2000/svg"
   xmlns:sodipodi="http://sodipodi.sourceforge.net/DTD/sodipodi-0.dtd"
   xmlns:inkscape="http://www.inkscape.org/namespaces/inkscape"
   width="214.8821mm"
   height="41.243317mm"
   viewBox="0 0 214.88211 41.243315"
   version="1.1"
   id="svg2283"
   inkscape:version="0.92.3 (2405546, 2018-03-11)"
   sodipodi:docname="math_is_hexadecimal.svg">
  <defs
     id="defs2277" />
  <sodipodi:namedview
     id="base"
     pagecolor="#ffffff"
     bordercolor="#666666"
     borderopacity="1.0"
     inkscape:pageopacity="0.0"
     inkscape:pageshadow="2"
     inkscape:zoom="0.35"
     inkscape:cx="-234.67652"
     inkscape:cy="577.49788"
     inkscape:document-units="mm"
     inkscape:current-layer="layer1"
     showgrid="false"
     fit-margin-top="0"
     fit-margin-left="0"
     fit-margin-right="0"
     fit-margin-bottom="0"
     inkscape:window-width="1920"
     inkscape:window-height="1001"
     inkscape:window-x="0"
     inkscape:window-y="0"
     inkscape:window-maximized="1" />
  <metadata
     id="metadata2280">
    <rdf:RDF>
      <cc:Work
         rdf:about="">
        <dc:format>image/svg+xml</dc:format>
        <dc:type
           rdf:resource="http://purl.org/dc/dcmitype/StillImage" />
        <dc:title></dc:title>
      </cc:Work>
    </rdf:RDF>
  </metadata>
  <g
     inkscape:label="Layer 1"
     inkscape:groupmode="layer"
     id="layer1"
     transform="translate(161.29243,-834.91021)">
    <g
       id="g35">
      <path
         sodipodi:nodetypes="cccccccccccccccsccccccccccccccccccccccscccccc"
         inkscape:connector-curvature="0"
         id="path1785"
         d="m 51.73704,874.11622 0.161912,-10.65205 c -0.06279,-0.32631 -0.146293,-0.53714 -0.261412,-0.76513 -0.361844,-0.71703 -0.497124,-0.81292 -1.215711,-0.86177 -0.849324,-0.0579 -0.846524,-0.0591 -4.437965,2.27281 -1.027041,0.66687 -1.812957,1.02467 -2.401554,1.09325 -0.787346,0.0918 -0.956166,0.0286 -1.688069,-0.62749 -0.653436,-0.58586 -0.876143,-0.97695 -1.131955,-1.98931 -0.507454,-2.00803 -0.777142,-4.50156 -0.813046,-7.0173 l -0.0062,1.9e-4 c -3.73e-4,-0.0653 0,-0.13042 0,-0.19576 0,-0.0653 -0.0062,-0.13043 -0.0062,-0.19577 l 0.0062,-1.8e-4 c 0.0168,-2.51593 0.267822,-5.01182 0.760092,-7.02359 0.24822,-1.01428 0.46794,-1.40699 1.116958,-1.99776 0.726926,-0.66178 0.895247,-0.72568 1.683279,-0.63987 0.589156,0.0642 1.377685,0.41604 2.409705,1.07514 3.608989,2.3051 3.606126,2.30342 4.455015,2.23927 0.718151,-0.0541 0.852746,-0.15121 1.209177,-0.87092 0.113438,-0.22887 0.195266,-0.44025 0.255625,-0.76706 l -0.0392,-10.44919 -15.080369,-0.14524 -184.180702,0.29029 -0.0429,5.30477 c -0.0386,4.82657 -0.079,5.37777 -0.44386,6.11465 -0.3565,0.7197 -0.49102,0.81659 -1.20924,0.87085 -0.84889,0.0642 -0.84603,0.0658 -4.45501,-2.23921 -1.03196,-0.65916 -1.82055,-1.01098 -2.40964,-1.07514 -0.78803,-0.0858 -0.95636,-0.0218 -1.68334,0.63981 -0.64896,0.59078 -0.86874,0.98348 -1.11696,1.99777 -0.49227,2.01183 -0.74317,4.50766 -0.76009,7.02358 l -0.006,7e-5 c 3.8e-4,0.0653 0.006,0.13042 0.006,0.19576 -2.5e-4,0.0653 0,0.13042 0,0.19576 h 0.006 c 0.0361,2.51574 0.30559,5.0092 0.81305,7.01724 0.25587,1.01235 0.47858,1.40345 1.13195,1.9893 0.73197,0.65618 0.90047,0.71965 1.68813,0.62749 0.5886,-0.0686 1.37451,-0.42637 2.40149,-1.09325 3.59151,-2.33217 3.58864,-2.33055 4.43797,-2.27274 0.71859,0.0492 0.85386,0.14473 1.21577,0.86177 0.3705,0.73401 0.41461,1.28496 0.48991,6.11103 l 0.0828,5.30434 184.180763,-0.29034 z"
         style="fill:#2974af;fill-opacity:1;stroke:#225d8c;stroke-width:3.37654328;stroke-miterlimit:4;stroke-dasharray:none;stroke-opacity:1" />
      <path
         style="fill:#37abc8;fill-opacity:1;stroke:none;stroke-width:3.37654328;stroke-miterlimit:4;stroke-dasharray:none;stroke-opacity:1"
         d="m 50.753556,872.50767 0.201302,-0.20285 0.169815,-7.56022 c -0.06291,-0.32632 -0.146356,-0.53708 -0.261412,-0.76507 -0.361907,-0.71703 -0.497186,-0.81292 -1.215711,-0.86177 -0.849386,-0.0579 -1.234566,0.1209 -4.826007,2.45307 -1.027042,0.66688 -1.812957,1.02468 -2.401554,1.09325 -0.937498,-0.14803 -0.910181,-0.20547 -1.642146,-0.8617 -0.653374,-0.58586 -0.922004,-0.74273 -1.177878,-1.75509 -0.507454,-2.00804 -1.096797,-6.71202 -1.132702,-9.22782 l -0.0062,2.5e-4 c -3.11e-4,-0.0653 0,-0.13049 0,-0.19582 0,-0.0653 -0.0062,-0.13043 -0.0062,-0.19571 l 0.0062,-2.4e-4 c 0.0168,-2.51593 0.557857,-5.45493 1.05019,-7.46676 0.248157,-1.01422 0.46794,-1.407 1.116896,-1.99777 0.726925,-0.66171 0.895246,-0.72562 1.68334,-0.63981 0.589094,0.0642 1.377686,0.41598 2.409643,1.07514 3.608989,2.30504 3.621434,2.43784 4.470323,2.37368 0.718151,-0.0541 0.852746,-0.15121 1.209177,-0.87092 0.113438,-0.22886 0.195265,-0.44031 0.255625,-0.76706 l -0.263403,-7.93768 -194.873454,0.36912 c 36.10376,23.89812 145.45778506,24.80059 177.535771,33.92803 z"
         id="path1787"
         inkscape:connector-curvature="0"
         sodipodi:nodetypes="ccccccccccccccccscccccccc" />
      <rect
         style="opacity:0.5;fill:#e6e6e6;fill-opacity:1;stroke:none;stroke-width:14.66077042;stroke-miterlimit:4;stroke-dasharray:none;stroke-opacity:1"
         id="rect1789"
         width="136.90178"
         height="24.769279"
         x="-106.21558"
         y="843.14709"
         rx="5.7404337"
         ry="7.5868263" />
      <text
         id="text1793"
         y="863.71167"
         x="-38.312458"
         style="font-style:normal;font-variant:normal;font-weight:normal;font-stretch:normal;font-size:23.3712101px;line-height:1.25;font-family:'Bebas Neue';-inkscape-font-specification:'Bebas Neue';text-align:center;letter-spacing:0px;word-spacing:0px;text-anchor:middle;fill:#000000;fill-opacity:1;stroke:none;stroke-width:1.25202906"
         xml:space="preserve"><tspan
           style="font-style:normal;font-variant:normal;font-weight:normal;font-stretch:normal;font-family:Digitalt;-inkscape-font-specification:Digitalt;fill:#000000;stroke-width:1.25202906"
           y="863.71167"
           x="-38.312458"
           id="tspan1791"
           sodipodi:role="line">hexidecimal?</tspan></text>
      <rect
         style="opacity:1;fill:#ffffff;fill-opacity:1;stroke:none;stroke-width:1.45317245;stroke-miterlimit:4;stroke-dasharray:none;stroke-opacity:1"
         id="rect1795"
         width="28.829397"
         height="2.509464"
         x="-2.00735"
         y="839.63593"
         transform="matrix(0.9999721,-0.00747002,0.02696542,0.99963637,0,0)"
         ry="1.254732"
         rx="2.5168488" />
      <rect
         rx="1.4116662"
         ry="1.2262005"
         transform="matrix(0.9999967,0.00256826,-0.0230192,0.99973502,0,0)"
         y="839.49988"
         x="21.658125"
         height="2.4524009"
         width="16.333469"
         id="rect1797"
         style="opacity:1;fill:#ffffff;fill-opacity:1;stroke:none;stroke-width:1.68709779;stroke-miterlimit:4;stroke-dasharray:none;stroke-opacity:1" />
      <text
         xml:space="preserve"
         style="font-style:normal;font-variant:normal;font-weight:normal;font-stretch:normal;font-size:23.3712101px;line-height:1.25;font-family:'Bebas Neue';-inkscape-font-specification:'Bebas Neue';text-align:center;letter-spacing:0px;word-spacing:0px;text-anchor:middle;fill:#ffffff;fill-opacity:1;stroke:none;stroke-width:1.25202906"
         x="-125.49009"
         y="863.71167"
         id="text1810"><tspan
           sodipodi:role="line"
           id="tspan1808"
           x="-125.49009"
           y="863.71167"
           style="font-style:normal;font-variant:normal;font-weight:normal;font-stretch:normal;font-family:Digitalt;-inkscape-font-specification:Digitalt;fill:#ffffff;stroke-width:1.25202906">is</tspan></text>
    </g>
  </g>
</svg>
