<?xml version="1.0" encoding="UTF-8" standalone="no"?>
<!-- Created with Inkscape (http://www.inkscape.org/) -->

<svg
   xmlns:dc="http://purl.org/dc/elements/1.1/"
   xmlns:cc="http://creativecommons.org/ns#"
   xmlns:rdf="http://www.w3.org/1999/02/22-rdf-syntax-ns#"
   xmlns:svg="http://www.w3.org/2000/svg"
   xmlns="http://www.w3.org/2000/svg"
   xmlns:sodipodi="http://sodipodi.sourceforge.net/DTD/sodipodi-0.dtd"
   xmlns:inkscape="http://www.inkscape.org/namespaces/inkscape"
   width="218.71497mm"
   height="61.677502mm"
   viewBox="0 0 218.71496 61.6775"
   version="1.1"
   id="svg2283"
   inkscape:version="0.92.3 (2405546, 2018-03-11)"
   sodipodi:docname="math_power.svg">
  <defs
     id="defs2277" />
  <sodipodi:namedview
     id="base"
     pagecolor="#ffffff"
     bordercolor="#666666"
     borderopacity="1.0"
     inkscape:pageopacity="0.0"
     inkscape:pageshadow="2"
     inkscape:zoom="0.35"
     inkscape:cx="-933.37324"
     inkscape:cy="221.03499"
     inkscape:document-units="mm"
     inkscape:current-layer="layer1"
     showgrid="false"
     fit-margin-top="0"
     fit-margin-left="0"
     fit-margin-right="0"
     fit-margin-bottom="0"
     inkscape:window-width="1920"
     inkscape:window-height="1001"
     inkscape:window-x="0"
     inkscape:window-y="0"
     inkscape:window-maximized="1" />
  <metadata
     id="metadata2280">
    <rdf:RDF>
      <cc:Work
         rdf:about="">
        <dc:format>image/svg+xml</dc:format>
        <dc:type
           rdf:resource="http://purl.org/dc/dcmitype/StillImage" />
        <dc:title />
      </cc:Work>
    </rdf:RDF>
  </metadata>
  <g
     inkscape:label="Layer 1"
     inkscape:groupmode="layer"
     id="layer1"
     transform="translate(-144.52345,-689.92385)">
    <g
       id="g26">
      <path
         id="path12638"
         d="m 235.38723,691.61212 -77.01661,0.18774 -0.0504,5.30502 c -0.0454,4.8265 -0.0862,5.3772 -0.45214,6.11353 -0.35743,0.71927 -0.49227,0.81628 -1.21048,0.86961 -0.84902,0.0631 -0.8459,0.0648 -4.45184,-2.24506 -1.03109,-0.66047 -1.81918,-1.01341 -2.40822,-1.07832 -0.7879,-0.0869 -0.95666,-0.0236 -1.68446,0.63714 -0.64976,0.5899 -0.86979,0.98224 -1.11938,1.99621 -0.49495,2.01115 -0.74902,4.50728 -0.7693,7.02327 h -0.006 c 2.5e-4,0.0653 0.006,0.12968 0.006,0.19502 -3.8e-4,0.0653 0,0.13067 0,0.19601 h 0.006 c 0.0324,2.51574 0.29918,5.00995 0.80396,7.01867 0.25451,1.01267 0.47672,1.40401 1.12934,1.99074 0.7311,0.65717 0.89948,0.72089 1.68726,0.62985 0.58866,-0.0678 1.37489,-0.42463 2.40274,-1.0902 3.59461,-2.32738 3.59163,-2.32583 4.44089,-2.2669 0.71852,0.0498 0.85411,0.14567 1.21509,0.8632 0.3695,0.73452 0.41237,1.28547 0.48125,6.11166 l 0.0757,25.83963 77.01755,-0.18866 125.95133,-0.0355 0.1112,-57.9076 z m -36.11509,10.71483 15.08006,0.1659 -0.11027,37.37212 -14.87776,0.0367 -12.61354,0.1878 -0.0757,-5.30409 c -0.0689,-4.82625 -0.11176,-5.3772 -0.48126,-6.11172 -0.36097,-0.71753 -0.49656,-0.81336 -1.21509,-0.8632 -0.84926,-0.0591 -0.84627,-0.0604 -4.44089,2.26689 -1.02785,0.66558 -1.81401,1.02151 -2.40273,1.08927 -0.78779,0.0911 -0.95617,0.028 -1.6872,-0.62892 -0.65263,-0.58673 -0.8749,-0.97894 -1.12941,-1.99167 -0.50471,-2.00872 -0.77141,-4.50193 -0.80396,-7.01773 h -0.006 c -5.6e-4,-0.0653 0,-0.13061 0,-0.19601 0,-0.0653 0,-0.13062 -0.006,-0.19595 h 0.006 c 0.0205,-2.51593 0.27442,-5.01119 0.76936,-7.02234 0.24953,-1.01391 0.46956,-1.40631 1.11933,-1.99622 0.72779,-0.66077 0.89655,-0.72487 1.68446,-0.63806 0.58903,0.065 1.37712,0.41785 2.40821,1.07831 3.60594,2.3099 3.60289,2.30909 4.45184,2.24599 0.71828,-0.0535 0.85306,-0.15034 1.21048,-0.86954 0.36596,-0.73639 0.40684,-1.28802 0.45214,-6.11446 l 0.0492,-5.30409 z m 131.25356,0 15.08012,0.1659 -0.11027,37.37212 -14.87776,0.0367 -12.61354,0.1878 -0.0757,-5.30409 c -0.0689,-4.82625 -0.11269,-5.3772 -0.48219,-6.11172 -0.36098,-0.71753 -0.49563,-0.81336 -1.21416,-0.8632 -0.84926,-0.0591 -0.84627,-0.0604 -4.44089,2.26689 -1.02785,0.66558 -1.81408,1.02151 -2.40273,1.08927 -0.78779,0.0911 -0.95617,0.028 -1.68727,-0.62892 -0.65262,-0.58673 -0.87483,-0.97894 -1.12934,-1.99167 -0.50477,-2.00872 -0.77141,-4.50193 -0.80396,-7.01773 h -0.006 c -4.4e-4,-0.0653 0,-0.13061 0,-0.19601 0,-0.0653 0,-0.13062 -0.006,-0.19595 h 0.006 c 0.0205,-2.51593 0.27435,-5.01119 0.7693,-7.02234 0.24959,-1.01391 0.46962,-1.40631 1.11939,-1.99622 0.72779,-0.66077 0.89655,-0.72487 1.68446,-0.63806 0.58903,0.065 1.37712,0.41785 2.40821,1.07831 3.60594,2.3099 3.60289,2.30909 4.45184,2.24599 0.71821,-0.0535 0.85306,-0.15034 1.21048,-0.86954 0.36596,-0.73639 0.40684,-1.28802 0.45214,-6.11446 l 0.0492,-5.30409 z"
         style="fill:#2974af;fill-opacity:1;stroke:#225d8c;stroke-width:3.37654328;stroke-miterlimit:4;stroke-dasharray:none;stroke-opacity:1"
         inkscape:connector-curvature="0"
         sodipodi:nodetypes="ccccccccccccccccccscccccccccccccccscccccccccccccccccccccccccsccccccccccccccccc" />
      <path
         sodipodi:nodetypes="cccccccccccccccccccccccccccccccccccc"
         inkscape:connector-curvature="0"
         id="path12640"
         d="m 359.20564,693.22826 -198.91995,0.46669 c 2.25451,1.49666 4.38022,2.94267 6.39336,4.34058 2.0132,1.39791 3.91327,2.74797 5.71521,4.0526 1.80201,1.30463 3.50645,2.56415 5.12731,3.78098 1.6208,1.21683 3.15791,2.39029 4.62775,3.52486 1.46979,1.13451 2.01551,1.44645 2.77467,2.20312 l 0.22693,-10.79418 30.60865,0.0875 0.21605,31.39898 c 1.46436,0.63968 3.29704,1.32404 4.91125,1.93604 18.49329,8.68471 104.20307,13.30176 111.5366,13.67368 l 27.17046,0.006 z m -11.81885,7.48903 -0.0971,40.92324 -30.89837,0.1649 0.0249,-7.02035 c -0.0689,-4.82619 -0.11269,-4.44375 -0.48219,-5.17827 -2.38008,-0.092 -3.26824,1.38727 -4.72165,2.33709 -1.02785,0.66557 -1.81402,1.0215 -2.40274,1.08927 -0.78778,0.0911 -0.95616,0.028 -1.6872,-0.62892 -0.65262,-0.58673 -1.80829,-1.91233 -2.06279,-2.92506 -0.50472,-2.00872 -0.77142,-5.43533 -0.80396,-7.95113 h -0.006 c -4.3e-4,-0.0653 0,-0.13067 0,-0.19601 0,-0.0653 -0.006,-0.13061 -0.006,-0.19595 h 0.006 c 0.0205,-2.51593 0.27436,-5.94459 0.76937,-7.95573 0.24952,-1.01391 1.40295,-2.3397 2.05271,-2.92961 0.7278,-0.66078 0.89656,-0.72487 1.68446,-0.63806 0.58903,0.065 1.37713,0.41784 2.40821,1.07831 1.41671,0.94329 4.25471,3.20826 4.72894,2.30977 0.36595,-0.73632 0.40683,-0.35456 0.45213,-5.181 l -0.0112,-7.13335 z"
         style="fill:#37abc8;fill-opacity:1;stroke:none;stroke-width:3.37654328;stroke-miterlimit:4;stroke-dasharray:none;stroke-opacity:1" />
      <rect
         rx="2.5168488"
         ry="1.254732"
         transform="matrix(0.9999721,-0.00747002,0.02696542,0.99963637,0,0)"
         y="698.07739"
         x="309.14688"
         height="2.509464"
         width="28.829397"
         id="rect12642"
         style="opacity:1;fill:#ffffff;fill-opacity:1;stroke:none;stroke-width:1.45317245;stroke-miterlimit:4;stroke-dasharray:none;stroke-opacity:1" />
      <rect
         style="opacity:1;fill:#ffffff;fill-opacity:1;stroke:none;stroke-width:1.68709779;stroke-miterlimit:4;stroke-dasharray:none;stroke-opacity:1"
         id="rect12644"
         width="16.333469"
         height="2.4524009"
         x="325.65179"
         y="694.8421"
         transform="matrix(0.9999967,0.00256826,-0.0230192,0.99973502,0,0)"
         ry="1.2262005"
         rx="1.4116662" />
      <text
         id="text12648"
         y="740.74176"
         x="259.93283"
         style="font-style:normal;font-variant:normal;font-weight:normal;font-stretch:normal;font-size:8.71165276px;line-height:1.25;font-family:'Bebas Neue';-inkscape-font-specification:'Bebas Neue';text-align:center;letter-spacing:0px;word-spacing:0px;text-anchor:middle;fill:#000000;fill-opacity:1;stroke:none;stroke-width:0.4666957"
         xml:space="preserve"><tspan
           style="font-style:normal;font-variant:normal;font-weight:normal;font-stretch:normal;font-size:50.79999924px;font-family:Digitalt;-inkscape-font-specification:Digitalt;fill:#ffffff;stroke-width:0.4666957"
           y="740.74176"
           x="259.93283"
           id="tspan12646"
           sodipodi:role="line">^</tspan></text>
    </g>
  </g>
</svg>
