<?xml version="1.0" encoding="UTF-8" standalone="no"?>
<!-- Created with Inkscape (http://www.inkscape.org/) -->

<svg
   xmlns:dc="http://purl.org/dc/elements/1.1/"
   xmlns:cc="http://creativecommons.org/ns#"
   xmlns:rdf="http://www.w3.org/1999/02/22-rdf-syntax-ns#"
   xmlns:svg="http://www.w3.org/2000/svg"
   xmlns="http://www.w3.org/2000/svg"
   xmlns:sodipodi="http://sodipodi.sourceforge.net/DTD/sodipodi-0.dtd"
   xmlns:inkscape="http://www.inkscape.org/namespaces/inkscape"
   width="218.7092mm"
   height="61.677502mm"
   viewBox="0 0 218.70919 61.6775"
   version="1.1"
   id="svg2283"
   inkscape:version="0.92.3 (2405546, 2018-03-11)"
   sodipodi:docname="math_greater_or_equal.svg">
  <defs
     id="defs2277" />
  <sodipodi:namedview
     id="base"
     pagecolor="#ffffff"
     bordercolor="#666666"
     borderopacity="1.0"
     inkscape:pageopacity="0.0"
     inkscape:pageshadow="2"
     inkscape:zoom="1.3989766"
     inkscape:cx="391.42857"
     inkscape:cy="114.28571"
     inkscape:document-units="mm"
     inkscape:current-layer="layer1"
     showgrid="false"
     fit-margin-top="0"
     fit-margin-left="0"
     fit-margin-right="0"
     fit-margin-bottom="0"
     inkscape:window-width="1920"
     inkscape:window-height="1001"
     inkscape:window-x="0"
     inkscape:window-y="0"
     inkscape:window-maximized="1" />
  <metadata
     id="metadata2280">
    <rdf:RDF>
      <cc:Work
         rdf:about="">
        <dc:format>image/svg+xml</dc:format>
        <dc:type
           rdf:resource="http://purl.org/dc/dcmitype/StillImage" />
        <dc:title />
      </cc:Work>
    </rdf:RDF>
  </metadata>
  <g
     inkscape:label="Layer 1"
     inkscape:groupmode="layer"
     id="layer1"
     transform="translate(-2.8743219,-732.58829)">
    <g
       id="g44">
      <path
         sodipodi:nodetypes="ccccccccccccccccccscccccccccccccccscccccccccccccccccccccccccsccccccccccccccccc"
         inkscape:connector-curvature="0"
         style="fill:#2974af;fill-opacity:1;stroke:#225d8c;stroke-width:3.37654328;stroke-miterlimit:4;stroke-dasharray:none;stroke-opacity:1"
         d="m 93.737726,734.27656 -77.016637,0.1878 -0.05015,5.30496 c -0.0453,4.8265 -0.08619,5.3772 -0.45211,6.11359 -0.357445,0.71921 -0.492264,0.81622 -1.210496,0.86955 -0.848995,0.0631 -0.845933,0.0648 -4.451836,-2.24506 -1.0311108,-0.66047 -1.8192042,-1.01335 -2.408224,-1.07832 -0.7879192,-0.0869 -0.9566639,-0.0236 -1.684479,0.63714 -0.6497648,0.5899 -0.8697963,0.9823 -1.1193416,1.99621 -0.4949587,2.01115 -0.7490528,4.50729 -0.7693198,7.02327 h -0.0056 c 2.676e-4,0.0653 0.00373,0.12968 0.00373,0.19502 -3.547e-4,0.0654 -0.00249,0.13067 -0.00187,0.19601 h 0.00436 c 0.032544,2.5158 0.2992018,5.00995 0.8039549,7.01867 0.254511,1.01273 0.476739,1.40401 1.1293725,1.99074 0.7310757,0.65717 0.8994284,0.72095 1.6872107,0.62985 0.5886962,-0.0678 1.3748793,-0.42463 2.4027553,-1.0902 3.594596,-2.32738 3.591621,-2.32583 4.440902,-2.2669 0.718506,0.0498 0.854096,0.14567 1.215051,0.8632 0.369511,0.73452 0.412404,1.28547 0.481275,6.11172 l 0.07566,25.83958 77.017558,-0.18867 125.951328,-0.0355 0.1112,-57.9076 z m -36.115134,10.71483 15.080108,0.1659 -0.110296,37.37212 -14.877748,0.0367 -12.613547,0.1878 -0.07565,-5.30409 c -0.06887,-4.82619 -0.111771,-5.3772 -0.481282,-6.11172 -0.360955,-0.71753 -0.496545,-0.81336 -1.215051,-0.8632 -0.849281,-0.0591 -0.8463,-0.0604 -4.440896,2.26696 -1.027875,0.66551 -1.814059,1.02144 -2.402755,1.0892 -0.787782,0.0911 -0.956141,0.028 -1.687217,-0.62892 -0.652633,-0.58673 -0.874855,-0.97894 -1.129366,-1.99167 -0.504753,-2.00865 -0.771411,-4.50193 -0.803955,-7.01773 h -0.0044 c -6.09e-4,-0.0653 0.0012,-0.13061 0.0019,-0.19601 0,-0.0653 -0.0031,-0.13062 -0.0037,-0.19595 h 0.0056 c 0.02029,-2.51593 0.274361,-5.01119 0.76932,-7.02234 0.249545,-1.01391 0.46957,-1.40625 1.119335,-1.99622 0.727815,-0.66077 0.896566,-0.72487 1.684485,-0.63806 0.58902,0.065 1.377107,0.41785 2.408219,1.07838 3.605902,2.30983 3.602847,2.30902 4.451841,2.24592 0.718232,-0.0535 0.853045,-0.15027 1.21049,-0.86954 0.365921,-0.73639 0.406816,-1.28796 0.45211,-6.11446 l 0.04922,-5.30409 z m 131.253608,0 15.0801,0.1659 -0.11029,37.37212 -14.87775,0.0367 -12.61354,0.1878 -0.0757,-5.30409 c -0.0689,-4.82619 -0.11268,-5.3772 -0.48219,-6.11172 -0.36096,-0.71753 -0.49563,-0.81336 -1.21414,-0.8632 -0.84928,-0.0591 -0.84631,-0.0604 -4.4409,2.26696 -1.02788,0.66551 -1.81405,1.02144 -2.40275,1.0892 -0.78778,0.0911 -0.95614,0.028 -1.68722,-0.62892 -0.65263,-0.58673 -0.87485,-0.97894 -1.12936,-1.99167 -0.50476,-2.00865 -0.77141,-4.50193 -0.80397,-7.01773 h -0.006 c -4.6e-4,-0.0653 0.001,-0.13061 0.002,-0.19601 0,-0.0653 -0.002,-0.13062 -0.003,-0.19595 h 0.006 c 0.0202,-2.51593 0.27436,-5.01119 0.76932,-7.02234 0.24955,-1.01391 0.46958,-1.40625 1.11934,-1.99622 0.72782,-0.66077 0.89656,-0.72487 1.68448,-0.63806 0.58902,0.065 1.37711,0.41785 2.40823,1.07838 3.6059,2.30983 3.60284,2.30902 4.45184,2.24592 0.71822,-0.0535 0.85304,-0.15027 1.21049,-0.86954 0.36592,-0.73639 0.40681,-1.28796 0.45211,-6.11446 l 0.0492,-5.30409 z"
         id="path1571" />
      <path
         style="fill:#37abc8;fill-opacity:1;stroke:none;stroke-width:3.37654328;stroke-miterlimit:4;stroke-dasharray:none;stroke-opacity:1"
         d="m 217.55611,735.8927 -198.919926,0.46669 c 2.254495,1.49666 4.380176,2.94274 6.393364,4.34058 2.013188,1.39791 3.913231,2.74797 5.715199,4.0526 1.801968,1.3047 3.506434,2.56415 5.127275,3.78098 1.620834,1.21683 3.157968,2.39029 4.62776,3.52486 1.469793,1.13451 2.015534,1.44645 2.774649,2.20312 l 0.22697,-10.79418 30.608672,0.0875 0.216031,31.39898 c 1.464341,0.63968 3.297062,1.32405 4.911244,1.93604 18.493283,8.68471 104.203082,13.30176 111.536632,13.67368 h 27.17044 z m -11.81886,7.48903 -0.0971,40.92324 -30.89836,0.16496 0.0251,-7.02035 c -0.0689,-4.82625 -0.11268,-4.44381 -0.48219,-5.17833 -2.38009,-0.092 -3.26826,1.38727 -4.72165,2.33709 -1.02787,0.66557 -1.81406,1.0215 -2.40276,1.08927 -0.78778,0.0911 -0.95614,0.028 -1.68721,-0.62892 -0.65264,-0.58673 -1.80825,-1.91233 -2.06276,-2.92506 -0.50475,-2.00872 -0.77141,-5.43533 -0.80395,-7.95113 h -0.006 c -4.6e-4,-0.0653 0.001,-0.13061 0.002,-0.19601 0,-0.0653 -0.003,-0.13061 -0.003,-0.19595 h 0.006 c 0.0203,-2.51593 0.27436,-5.94458 0.76931,-7.95573 0.24956,-1.01391 1.40297,-2.3397 2.05274,-2.92961 0.72782,-0.66078 0.89656,-0.72487 1.68448,-0.63806 0.58902,0.065 1.37712,0.41785 2.40822,1.07831 1.41666,0.94329 4.25468,3.20826 4.72894,2.30984 0.36592,-0.73639 0.40682,-0.35463 0.45211,-5.18107 l -0.011,-7.13335 z"
         id="path1573"
         inkscape:connector-curvature="0"
         sodipodi:nodetypes="cccccccccccccccccccccccccccccccccccc" />
      <rect
         style="opacity:1;fill:#ffffff;fill-opacity:1;stroke:none;stroke-width:1.45317245;stroke-miterlimit:4;stroke-dasharray:none;stroke-opacity:1"
         id="rect1575"
         width="28.829397"
         height="2.509464"
         x="166.36703"
         y="739.69043"
         transform="matrix(0.9999721,-0.00747002,0.02696542,0.99963637,0,0)"
         ry="1.254732"
         rx="2.5168488" />
      <rect
         rx="1.4116662"
         ry="1.2262005"
         transform="matrix(0.9999967,0.00256826,-0.0230192,0.99973502,0,0)"
         y="737.87952"
         x="184.99161"
         height="2.4524009"
         width="16.333469"
         id="rect1577"
         style="opacity:1;fill:#ffffff;fill-opacity:1;stroke:none;stroke-width:1.68709779;stroke-miterlimit:4;stroke-dasharray:none;stroke-opacity:1" />
      <rect
         ry="7.5868263"
         rx="7.9268942"
         y="750.84497"
         x="79.237335"
         height="24.769279"
         width="78.434319"
         id="rect1579"
         style="opacity:0.5;fill:#e6e6e6;fill-opacity:1;stroke:none;stroke-width:11.09699249;stroke-miterlimit:4;stroke-dasharray:none;stroke-opacity:1" />
      <g
         transform="matrix(0.62226092,0,0,-0.62226092,576.60909,1841.0086)"
         id="g11925">
        <text
           xml:space="preserve"
           style="font-style:normal;font-variant:normal;font-weight:normal;font-stretch:normal;font-size:37.55853653px;line-height:1.25;font-family:'Bebas Neue';-inkscape-font-specification:'Bebas Neue';text-align:center;letter-spacing:0px;word-spacing:0px;text-anchor:middle;fill:#333333;fill-opacity:1;stroke:none;stroke-width:2.01206446"
           x="-744.05255"
           y="-1723.7245"
           id="text1583"
           transform="scale(1,-1)"><tspan
             sodipodi:role="line"
             id="tspan1581"
             x="-744.05255"
             y="-1723.7245"
             style="font-style:normal;font-variant:normal;font-weight:normal;font-stretch:normal;font-family:PAGRevolucionW00-Regular;-inkscape-font-specification:PAGRevolucionW00-Regular;fill:#333333;stroke-width:2.01206446">	<tspan
   style="font-style:normal;font-variant:normal;font-weight:normal;font-stretch:normal;font-size:48px;font-family:Digitalt;-inkscape-font-specification:Digitalt"
   id="tspan11902">&gt;</tspan></tspan><tspan
             sodipodi:role="line"
             x="-744.05255"
             y="-1675.2045"
             style="font-style:normal;font-variant:normal;font-weight:normal;font-stretch:normal;font-family:PAGRevolucionW00-Regular;-inkscape-font-specification:PAGRevolucionW00-Regular;fill:#333333;stroke-width:2.01206446"
             id="tspan11878" /></text>
        <text
           xml:space="preserve"
           style="font-style:normal;font-variant:normal;font-weight:normal;font-stretch:normal;font-size:123.69757843px;line-height:1.25;font-family:'Bebas Neue';-inkscape-font-specification:'Bebas Neue';text-align:center;letter-spacing:0px;word-spacing:0px;text-anchor:middle;fill:#333333;fill-opacity:1;stroke:none;stroke-width:6.62665558"
           x="-736.29285"
           y="-1722.238"
           id="text11900"
           transform="scale(1,-1)"><tspan
             sodipodi:role="line"
             id="tspan11898"
             x="-736.29285"
             y="-1722.238"
             style="font-style:normal;font-variant:normal;font-weight:normal;font-stretch:normal;font-size:48px;font-family:Digitalt;-inkscape-font-specification:Digitalt;fill:#333333;fill-opacity:1;stroke-width:6.62665558">_</tspan></text>
      </g>
    </g>
  </g>
</svg>
