<?xml version="1.0" encoding="UTF-8" standalone="no"?>
<!-- Created with Inkscape (http://www.inkscape.org/) -->

<svg
   xmlns:dc="http://purl.org/dc/elements/1.1/"
   xmlns:cc="http://creativecommons.org/ns#"
   xmlns:rdf="http://www.w3.org/1999/02/22-rdf-syntax-ns#"
   xmlns:svg="http://www.w3.org/2000/svg"
   xmlns="http://www.w3.org/2000/svg"
   xmlns:sodipodi="http://sodipodi.sourceforge.net/DTD/sodipodi-0.dtd"
   xmlns:inkscape="http://www.inkscape.org/namespaces/inkscape"
   width="316.29877mm"
   height="79.418274mm"
   viewBox="0 0 316.29879 79.418272"
   version="1.1"
   id="svg2283"
   inkscape:version="0.92.3 (2405546, 2018-03-11)"
   sodipodi:docname="math_format_as_decimal.svg">
  <defs
     id="defs2277" />
  <sodipodi:namedview
     id="base"
     pagecolor="#ffffff"
     bordercolor="#666666"
     borderopacity="1.0"
     inkscape:pageopacity="0.0"
     inkscape:pageshadow="2"
     inkscape:zoom="0.35"
     inkscape:cx="382.42054"
     inkscape:cy="603.56886"
     inkscape:document-units="mm"
     inkscape:current-layer="layer1"
     showgrid="false"
     fit-margin-top="0"
     fit-margin-left="0"
     fit-margin-right="0"
     fit-margin-bottom="0"
     inkscape:window-width="1920"
     inkscape:window-height="1001"
     inkscape:window-x="0"
     inkscape:window-y="0"
     inkscape:window-maximized="1" />
  <metadata
     id="metadata2280">
    <rdf:RDF>
      <cc:Work
         rdf:about="">
        <dc:format>image/svg+xml</dc:format>
        <dc:type
           rdf:resource="http://purl.org/dc/dcmitype/StillImage" />
        <dc:title></dc:title>
      </cc:Work>
    </rdf:RDF>
  </metadata>
  <g
     inkscape:label="Layer 1"
     inkscape:groupmode="layer"
     id="layer1"
     transform="translate(324.56604,-773.3951)">
    <g
       id="g32">
      <path
         sodipodi:nodetypes="ccccscccccccccccccccccccccccccccccccccccsccsccccccccccccccccccccccccccccccccccsccccccccccsccccc"
         inkscape:connector-curvature="0"
         style="fill:#2974af;fill-opacity:1;stroke:#225d8c;stroke-width:3.37654328;stroke-miterlimit:4;stroke-dasharray:none;stroke-opacity:1"
         d="m -25.04257,775.09273 -285.6765,0.1878 -0.0504,5.30496 c -0.0454,4.8265 -0.0862,5.37721 -0.45213,6.11353 -0.35743,0.71927 -0.49221,0.81628 -1.21049,0.86961 -0.84901,0.063 -0.8459,0.0648 -4.45184,-2.24506 -1.03115,-0.66053 -1.81918,-1.01341 -2.40821,-1.07831 -0.78791,-0.0869 -0.95666,-0.0224 -1.68446,0.63806 -0.64983,0.58991 -0.8698,0.98224 -1.11932,1.99621 -0.49501,2.01115 -0.74908,4.50636 -0.76937,7.02228 h -0.006 c 2.5e-4,0.0653 0.006,0.13068 0.006,0.19601 -3.1e-4,0.0653 -0.006,0.12968 0,0.19502 h 0.006 c 0.033,2.5158 0.29918,5.01001 0.8039,7.01867 0.25456,1.01273 0.47677,1.40401 1.1294,1.9908 0.73103,0.65717 0.89942,0.72089 1.6872,0.62985 0.58872,-0.0678 1.37488,-0.42469 2.40273,-1.0902 3.59468,-2.32738 3.59169,-2.32583 4.44096,-2.26696 0.71846,0.0498 0.85405,0.14573 1.21502,0.8632 0.3695,0.73458 0.41237,1.28553 0.48126,6.11172 l 0.0757,43.57407 285.678366,-0.18773 14.877761,-0.0367 0.01618,-11.18433 c -0.02738,-0.0751 -0.04418,-0.16309 -0.07841,-0.23241 -0.179772,-0.35911 -0.303726,-0.5634 -0.472172,-0.68362 -0.168508,-0.12028 -0.381819,-0.15675 -0.74105,-0.18232 -0.212254,-0.0149 -0.370619,-0.0261 -0.546034,0 -0.175354,0.0274 -0.367694,0.0942 -0.645347,0.23515 -0.555306,0.28207 -1.454473,0.86158 -3.254051,2.02173 -0.51461,0.33179 -0.968238,0.58654 -1.367294,0.76662 -0.399056,0.18002 -0.742918,0.28568 -1.037309,0.31904 -0.393829,0.0448 -0.633213,0.0504 -0.865005,-0.0367 -0.231855,-0.0871 -0.456429,-0.26776 -0.821322,-0.59706 -0.325754,-0.29402 -0.543483,-0.53869 -0.711867,-0.83675 -0.168321,-0.29813 -0.286613,-0.64921 -0.412932,-1.15585 -0.250398,-1.00483 -0.440997,-2.13131 -0.572418,-3.32063 -0.131484,-1.18927 -0.204039,-2.44101 -0.217854,-3.69891 h -0.0062 c -1.87e-4,-0.0653 0,-0.13067 0,-0.19601 0,-0.0653 -0.0062,-0.13061 -0.0062,-0.19595 h 0.0062 c 0.01244,-1.25796 0.08388,-2.51033 0.214182,-3.69984 0.130301,-1.18951 0.319344,-2.31649 0.568809,-3.32157 0.125759,-0.5067 0.243988,-0.85754 0.411999,-1.15578 0.168072,-0.29825 0.386424,-0.54336 0.711928,-0.83769 0.364459,-0.32968 0.588597,-0.51075 0.820327,-0.59793 0.23173,-0.0872 0.471176,-0.0807 0.865067,-0.0367 0.294392,0.033 0.639,0.13839 1.03818,0.3181 0.399243,0.17971 0.853244,0.43353 1.368165,0.76476 1.800699,1.15847 2.700364,1.73748 3.255981,2.01899 0.277777,0.14076 0.468935,0.20684 0.644413,0.23428 0.175415,0.0274 0.334652,0.0156 0.546905,0 0.359231,-0.0261 0.572729,-0.0637 0.741051,-0.18413 0.168383,-0.1204 0.29184,-0.32345 0.4713,-0.68274 0.04854,-0.0967 0.0728,-0.22047 0.109393,-0.32451 l 0.01556,-10.89349 0.01244,-8.48714 0.00622,-3.21217 c -0.056626,-0.22843 -0.115492,-0.4298 -0.206964,-0.61249 -0.179771,-0.35911 -0.303663,-0.5634 -0.472172,-0.68368 -0.168446,-0.12022 -0.381819,-0.15668 -0.74105,-0.18226 -0.212316,-0.0149 -0.370619,-0.0268 -0.545972,0 -0.175415,0.0274 -0.367756,0.0941 -0.645347,0.23515 -0.555368,0.28207 -1.454535,0.86159 -3.254113,2.02173 -0.51461,0.33179 -0.968301,0.58654 -1.367294,0.76656 -0.399056,0.18008 -0.742918,0.28574 -1.037309,0.31903 -0.393829,0.0448 -0.633213,0.0504 -0.865005,-0.0367 -0.231854,-0.087 -0.456428,-0.2677 -0.82126,-0.597 -0.325816,-0.29401 -0.543607,-0.53869 -0.711929,-0.83681 -0.168321,-0.29807 -0.286613,-0.64914 -0.412932,-1.15579 -0.25046,-1.00483 -0.440996,-2.13137 -0.572418,-3.32063 -0.131484,-1.18927 -0.204039,-2.44101 -0.217853,-3.69891 h -0.0062 c -1.25e-4,-0.0653 0,-0.13067 0.0062,-0.19601 0,-0.0653 -0.0062,-0.13068 -0.0062,-0.19595 h 0.0062 c 0.01244,-1.25796 0.08394,-2.51033 0.214244,-3.69984 0.130301,-1.18951 0.319282,-2.31649 0.568809,-3.32157 0.125759,-0.5067 0.243926,-0.85753 0.411999,-1.15578 0.168072,-0.29832 0.386424,-0.54336 0.711866,-0.83769 0.364521,-0.32968 0.588597,-0.51075 0.820389,-0.59799 0.23173,-0.0872 0.471114,-0.0806 0.865005,-0.0367 0.294454,0.033 0.639,0.13846 1.038242,0.31816 0.399181,0.17965 0.853244,0.43347 1.368165,0.76476 1.800699,1.15847 2.700302,1.73748 3.255918,2.01899 0.277778,0.14076 0.469061,0.20684 0.644476,0.23428 0.175353,0.0274 0.33459,0.0162 0.546843,6.2e-4 0.359231,-0.0261 0.572729,-0.0637 0.741113,-0.18412 0.168383,-0.12041 0.291778,-0.32345 0.471238,-0.68275 0.105286,-0.21082 0.178153,-0.42177 0.2378903,-0.70732 l 0.015557,-10.50887 -15.0801193,-0.16496 z"
         id="path2106" />
      <path
         id="path2108"
         d="m -308.63917,776.77184 c 45.87918,34.16051 258.309907,68.69169 282.534027,72.33478 l 14.877761,0.0597 0.238513,-7.58418 c -0.02738,-0.0752 -0.04418,-0.16316 -0.07841,-0.23248 -0.179772,-0.3591 -0.303726,-0.56333 -0.472172,-0.68361 -0.168508,-0.12028 -0.381819,-0.15669 -0.74105,-0.18232 -0.212316,-0.0149 -0.370619,-0.0261 -0.546034,0 -0.175354,0.0274 -0.367694,0.0941 -0.645347,0.23521 -0.555306,0.28207 -1.454473,0.86158 -3.254051,2.02173 -0.51461,0.33172 -0.968238,0.58648 -1.367294,0.76656 -0.399056,0.18008 -0.742918,0.28574 -1.037309,0.31903 -0.393892,0.0448 -0.633213,0.0504 -0.865067,-0.0367 -0.231855,-0.087 -0.456429,-0.2677 -0.82126,-0.597 -0.325754,-0.29402 -0.543483,-0.53869 -0.711867,-0.83681 -0.168322,-0.29807 -0.286613,-0.64921 -0.412932,-1.15579 -0.250398,-1.00483 -0.440997,-2.13137 -0.572418,-3.32063 -0.131484,-1.18933 -0.204039,-2.44101 -0.217854,-3.69897 h -0.0062 c -1.87e-4,-0.0653 0,-0.13061 0,-0.19595 0,-0.0653 -0.0062,-0.13068 -0.0062,-0.19595 h 0.0062 c 0.01244,-1.25796 0.08388,-6.24396 0.214182,-7.43341 0.130301,-1.18951 0.319344,-2.31649 0.568809,-3.32156 0.125759,-0.50677 0.243926,-0.85754 0.411999,-1.15585 0.168072,-0.29825 0.386424,-0.54336 0.711928,-0.83769 0.364459,-0.32961 0.588597,-0.51075 0.820327,-0.59793 0.23173,-0.0872 0.471114,-0.0806 0.865005,-0.0367 0.294454,0.033 0.639,0.13845 1.038242,0.3181 0.399243,0.1797 0.853244,0.43352 1.368165,0.76482 1.800699,1.1584 2.700364,1.73747 3.255918,2.01898 0.277778,0.14076 0.468998,0.20684 0.644476,0.23422 0.175415,0.0274 0.334652,0.0156 0.546905,0 0.359169,-0.0261 0.572729,-0.0636 0.741051,-0.18412 0.168383,-0.12041 0.29184,-0.32339 0.471238,-0.68269 0.04854,-0.0968 0.07287,-0.22053 0.109393,-0.32451 l 0.01556,-9.96015 0.01244,-5.68691 0.0062,-3.21217 c -0.05663,-0.22849 -0.11543,-0.42986 -0.206902,-0.61255 -0.179771,-0.35911 -0.303664,-0.5634 -0.472172,-0.68362 -0.168446,-0.12028 -0.381819,-0.15669 -0.74105,-0.18232 -0.212316,-0.0149 -0.370619,-0.0268 -0.545972,0 -0.175415,0.0274 -0.367756,0.0942 -0.645347,0.23515 -0.555368,0.28207 -1.454535,0.86158 -3.254176,2.02179 -0.514547,0.33173 -0.968238,0.58648 -1.367231,0.76656 -0.399056,0.18008 -0.742918,0.28568 -1.037309,0.31903 -0.393829,0.0448 -0.633213,0.0504 -0.865005,-0.0367 -0.231854,-0.0871 -0.456428,-0.26776 -0.821322,-0.59706 -0.325754,-0.29402 -0.543545,-0.53863 -0.711867,-0.83675 -0.168321,-0.29813 -0.286675,-0.64921 -0.412932,-1.15579 -0.25046,-1.00489 -0.440996,-2.13137 -0.572418,-3.3207 -0.131484,-1.18926 -0.204039,-3.37433 -0.217853,-4.63229 h -0.0062 c -1.25e-4,-0.0653 0,-0.13068 0.0062,-0.19595 0,-0.0653 -0.0062,-0.13068 -0.0062,-0.19601 h 0.0062 c 0.01244,-1.25791 0.08394,-5.3105 0.214244,-6.50002 0.130301,-1.18951 0.319282,-2.31643 0.568809,-3.32156 0.125759,-0.50671 0.243926,-0.85754 0.411999,-1.15579 0.168072,-0.29825 0.386424,-0.54336 0.711866,-0.83769 0.364521,-0.32967 0.588597,-0.51075 0.820389,-0.59793 0.23173,-0.0872 0.471114,-0.0807 0.865005,-0.0367 0.294454,0.033 0.639,0.13845 1.038242,0.3181 0.399181,0.17971 0.853244,0.43353 1.368165,0.76475 1.800699,1.15847 2.700302,1.73748 3.255918,2.01899 0.277778,0.14082 0.469061,0.2069 0.644476,0.23428 0.175353,0.0274 0.33459,0.0162 0.546843,6.3e-4 0.359231,-0.0261 0.572729,-0.0637 0.741113,-0.18413 0.168383,-0.12041 0.291778,-0.32345 0.471238,-0.68268 0.105286,-0.21089 0.178153,-0.42177 0.23789,-0.70739 l -0.206715,-7.00504 c -31.70799,0.23092 -270.77759,-1.33238 -297.52081,-0.11966 z"
         style="fill:#37abc8;fill-opacity:1;stroke:none;stroke-width:3.37654328;stroke-miterlimit:4;stroke-dasharray:none;stroke-opacity:1"
         inkscape:connector-curvature="0"
         sodipodi:nodetypes="ccccccccccscccccccccccscccccccccccccccccsccccscccccccccccscccccsccccccccc" />
      <rect
         style="opacity:1;fill:#ffffff;fill-opacity:1;stroke:none;stroke-width:1.45317245;stroke-miterlimit:4;stroke-dasharray:none;stroke-opacity:1"
         id="rect2120"
         width="28.829397"
         height="2.509464"
         x="-61.854557"
         y="777.86469"
         transform="matrix(0.9999721,-0.00747002,0.02696542,0.99963637,0,0)"
         ry="1.254732"
         rx="2.5168488" />
      <rect
         rx="1.4116662"
         ry="1.2262005"
         transform="matrix(0.9999967,0.00256826,-0.0230192,0.99973502,0,0)"
         y="778.33649"
         x="-41.264153"
         height="2.4524009"
         width="16.333469"
         id="rect2122"
         style="opacity:1;fill:#ffffff;fill-opacity:1;stroke:none;stroke-width:1.68709779;stroke-miterlimit:4;stroke-dasharray:none;stroke-opacity:1" />
      <text
         id="text2128"
         y="801.85767"
         x="-165.96683"
         style="font-style:normal;font-variant:normal;font-weight:normal;font-stretch:normal;font-size:23.3712101px;line-height:1.25;font-family:'Bebas Neue';-inkscape-font-specification:'Bebas Neue';text-align:center;letter-spacing:0px;word-spacing:0px;text-anchor:middle;fill:#ffffff;fill-opacity:1;stroke:none;stroke-width:1.25202906"
         xml:space="preserve"><tspan
           style="font-style:normal;font-variant:normal;font-weight:normal;font-stretch:normal;font-family:Digitalt;-inkscape-font-specification:Digitalt;fill:#ffffff;stroke-width:1.25202906"
           y="801.85767"
           x="-165.96683"
           id="tspan2126"
           sodipodi:role="line">format as decimal number</tspan></text>
      <text
         xml:space="preserve"
         style="font-style:normal;font-variant:normal;font-weight:normal;font-stretch:normal;font-size:23.3712101px;line-height:1.25;font-family:'Bebas Neue';-inkscape-font-specification:'Bebas Neue';text-align:center;letter-spacing:0px;word-spacing:0px;text-anchor:middle;fill:#ffffff;fill-opacity:1;stroke:none;stroke-width:1.25202906"
         x="-65.047249"
         y="841.06012"
         id="text2146"><tspan
           sodipodi:role="line"
           id="tspan2144"
           x="-65.047249"
           y="841.06012"
           style="font-style:normal;font-variant:normal;font-weight:normal;font-stretch:normal;font-family:Digitalt;-inkscape-font-specification:Digitalt;fill:#ffffff;stroke-width:1.25202906">places</tspan></text>
    </g>
  </g>
</svg>
