<?xml version="1.0" encoding="UTF-8" standalone="no"?>
<!-- Created with Inkscape (http://www.inkscape.org/) -->

<svg
   xmlns:dc="http://purl.org/dc/elements/1.1/"
   xmlns:cc="http://creativecommons.org/ns#"
   xmlns:rdf="http://www.w3.org/1999/02/22-rdf-syntax-ns#"
   xmlns:svg="http://www.w3.org/2000/svg"
   xmlns="http://www.w3.org/2000/svg"
   xmlns:sodipodi="http://sodipodi.sourceforge.net/DTD/sodipodi-0.dtd"
   xmlns:inkscape="http://www.inkscape.org/namespaces/inkscape"
   width="218.71497mm"
   height="61.677502mm"
   viewBox="0 0 218.71496 61.6775"
   version="1.1"
   id="svg2283"
   inkscape:version="0.92.3 (2405546, 2018-03-11)"
   sodipodi:docname="math_multiply.svg">
  <defs
     id="defs2277" />
  <sodipodi:namedview
     id="base"
     pagecolor="#ffffff"
     bordercolor="#666666"
     borderopacity="1.0"
     inkscape:pageopacity="0.0"
     inkscape:pageshadow="2"
     inkscape:zoom="0.35"
     inkscape:cx="-407.19665"
     inkscape:cy="509.0195"
     inkscape:document-units="mm"
     inkscape:current-layer="layer1"
     showgrid="false"
     fit-margin-top="0"
     fit-margin-left="0"
     fit-margin-right="0"
     fit-margin-bottom="0"
     inkscape:window-width="1920"
     inkscape:window-height="1001"
     inkscape:window-x="0"
     inkscape:window-y="0"
     inkscape:window-maximized="1" />
  <metadata
     id="metadata2280">
    <rdf:RDF>
      <cc:Work
         rdf:about="">
        <dc:format>image/svg+xml</dc:format>
        <dc:type
           rdf:resource="http://purl.org/dc/dcmitype/StillImage" />
        <dc:title></dc:title>
      </cc:Work>
    </rdf:RDF>
  </metadata>
  <g
     inkscape:label="Layer 1"
     inkscape:groupmode="layer"
     id="layer1"
     transform="translate(-144.02315,-766.11975)">
    <g
       id="g3650"
       transform="matrix(0.62226092,0,0,-0.62226092,1587.7411,1034.9849)"
       inkscape:export-filename="/home/peter/allblocks.png"
       inkscape:export-xdpi="42.094723"
       inkscape:export-ydpi="42.094723">
      <path
         id="path12718"
         d="m -2174.0947,429.3647 -123.769,-0.3017 -0.081,-8.5254 c -0.073,-7.7564 -0.1385,-8.6414 -0.7266,-9.8247 -0.5744,-1.1559 -0.7911,-1.3118 -1.9453,-1.3975 -1.3644,-0.1014 -1.3594,-0.1041 -7.1543,3.6079 -1.657,1.0614 -2.9235,1.6286 -3.8701,1.7329 -1.2662,0.1396 -1.5374,0.038 -2.707,-1.0239 -1.0442,-0.948 -1.3978,-1.5785 -1.7989,-3.208 -0.7954,-3.232 -1.2037,-7.2434 -1.2363,-11.2867 h -0.01 c 4e-4,-0.1049 0.01,-0.2084 0.01,-0.3134 -6e-4,-0.105 0,-0.21 0,-0.315 h 0.01 c 0.052,-4.0429 0.4808,-8.0512 1.292,-11.2793 0.409,-1.6274 0.7661,-2.2563 1.8149,-3.1992 1.1749,-1.0561 1.4455,-1.1585 2.7115,-1.0122 0.946,0.109 2.2095,0.6824 3.8613,1.752 5.7767,3.7402 5.7719,3.7377 7.1367,3.643 1.1547,-0.08 1.3726,-0.2341 1.9527,-1.3872 0.5938,-1.1804 0.6627,-2.0658 0.7734,-9.8217 l 0.1216,-41.5254 123.7705,0.3032 202.4092,0.057 0.1787,93.06 z m -25.0385,-17.2192 24.2343,-0.2666 -0.1772,-60.0586 -23.9092,-0.059 -20.2705,-0.3018 -0.1216,8.5239 c -0.1107,7.756 -0.1796,8.6414 -0.7734,9.8218 -0.5801,1.1531 -0.798,1.3071 -1.9527,1.3872 -1.3648,0.095 -1.36,0.097 -7.1367,-3.643 -1.6518,-1.0696 -2.9152,-1.6416 -3.8613,-1.7505 -1.266,-0.1464 -1.5366,-0.045 -2.7114,1.0107 -1.0488,0.9429 -1.406,1.5732 -1.815,3.2007 -0.8111,3.2281 -1.2397,7.2348 -1.292,11.2778 h -0.01 c -9e-4,0.105 0,0.2099 0,0.315 0,0.1049 0,0.2099 -0.01,0.3149 h 0.01 c 0.033,4.0432 0.441,8.0532 1.2364,11.2852 0.401,1.6294 0.7546,2.26 1.7988,3.208 1.1696,1.0619 1.4408,1.1649 2.707,1.0254 0.9466,-0.1044 2.2131,-0.6715 3.8701,-1.7329 5.7949,-3.7121 5.79,-3.7108 7.1543,-3.6094 1.1543,0.086 1.3709,0.2416 1.9453,1.3974 0.5881,1.1834 0.6538,2.0699 0.7266,9.8262 l 0.079,8.5239 z m 177.9301,0 24.2344,-0.2666 -0.1772,-60.0586 -23.9092,-0.059 -20.2705,-0.3018 -0.1216,8.5239 c -0.1107,7.756 -0.1811,8.6414 -0.7749,9.8218 -0.5801,1.1531 -0.7965,1.3071 -1.9512,1.3872 -1.3648,0.095 -1.36,0.097 -7.1367,-3.643 -1.6518,-1.0696 -2.9153,-1.6416 -3.8613,-1.7505 -1.266,-0.1464 -1.5366,-0.045 -2.7115,1.0107 -1.0488,0.9429 -1.4059,1.5732 -1.8149,3.2007 -0.8112,3.2281 -1.2397,7.2348 -1.292,11.2778 h -0.01 c -7e-4,0.105 0,0.2099 0,0.315 0,0.1049 0,0.2099 -0.01,0.3149 h 0.01 c 0.033,4.0432 0.4409,8.0532 1.2363,11.2852 0.4011,1.6294 0.7547,2.26 1.7989,3.208 1.1696,1.0619 1.4408,1.1649 2.707,1.0254 0.9466,-0.1044 2.2131,-0.6715 3.8701,-1.7329 5.7949,-3.7121 5.79,-3.7108 7.1543,-3.6094 1.1542,0.086 1.3709,0.2416 1.9453,1.3974 0.5881,1.1834 0.6538,2.0699 0.7266,9.8262 l 0.079,8.5239 z"
         style="fill:#2974af;fill-opacity:1;stroke:#225d8c;stroke-width:5.42624998;stroke-miterlimit:4;stroke-dasharray:none;stroke-opacity:1"
         inkscape:connector-curvature="0"
         sodipodi:nodetypes="ccccccccccccccccccscccccccccccccccscccccccccccccccccccccccccsccccccccccccccccc" />
      <path
         sodipodi:nodetypes="ccccccccccccccccccccccccccccccccc"
         inkscape:connector-curvature="0"
         id="path12720"
         d="m -1975.1132,426.7675 -319.8344,-0.37321 c 43.0652,-19.4942 45.97,-18.43128 65.1714,-27.16678 2.362,-1.8232 6.0419,-3.40104 7.2619,-4.61704 l 0.6877,19.98423 49.1894,-0.1406 0.3472,-50.4595 c 2.3533,-1.028 5.2985,-2.1278 7.8926,-3.1113 29.7195,-13.9567 134.4588,-21.3765 146.2441,-21.9742 l 43.6641,-0.01 z m -18.9934,-12.0352 -0.1561,-65.7654 -49.655,-0.265 0.04,11.282 c -0.1107,7.7559 -0.1811,7.1413 -0.7749,8.3217 -3.8249,0.1479 -5.2522,-2.2294 -7.5879,-3.7558 -1.6518,-1.0696 -2.9152,-1.6416 -3.8613,-1.7505 -1.266,-0.1464 -1.5366,-0.045 -2.7114,1.0107 -1.0488,0.9429 -2.906,3.0732 -3.315,4.7007 -0.8111,3.2281 -1.2397,8.7348 -1.292,12.7778 h -0.01 c -7e-4,0.105 0,0.21 0,0.315 0,0.105 -0.01,0.2099 -0.01,0.3149 h 0.01 c 0.033,4.0432 0.4409,9.5532 1.2364,12.7852 0.401,1.6294 2.2546,3.76 3.2988,4.708 1.1696,1.0619 1.4408,1.1649 2.707,1.0254 0.9466,-0.1044 2.2131,-0.6715 3.8701,-1.7329 2.2767,-1.5159 6.8375,-5.1558 7.5996,-3.7119 0.5881,1.1833 0.6538,0.5698 0.7266,8.3261 l -0.018,11.4636 z"
         style="fill:#37abc8;fill-opacity:1;stroke:none;stroke-width:5.42624998;stroke-miterlimit:4;stroke-dasharray:none;stroke-opacity:1" />
      <rect
         rx="4.0446839"
         ry="2.0164082"
         transform="matrix(0.9999721,0.00747001,0.02696542,-0.99963637,0,0)"
         y="-438.29471"
         x="-2013.5704"
         height="4.0328164"
         width="46.330078"
         id="rect12722"
         style="opacity:1;fill:#ffffff;fill-opacity:1;stroke:none;stroke-width:2.33531046;stroke-miterlimit:4;stroke-dasharray:none;stroke-opacity:1" />
      <rect
         style="opacity:1;fill:#ffffff;fill-opacity:1;stroke:none;stroke-width:2.71123862;stroke-miterlimit:4;stroke-dasharray:none;stroke-opacity:1"
         id="rect12724"
         width="26.248585"
         height="3.9411135"
         x="-2064.3708"
         y="-417.93393"
         transform="matrix(0.9999967,-0.00256827,-0.0230192,-0.99973502,0,0)"
         ry="1.9705567"
         rx="2.2686081" />
      <g
         id="g12920"
         transform="translate(-770.16629,292.46483)">
        <rect
           ry="11.329442"
           rx="11.68515"
           transform="scale(1,-1)"
           y="-125.71913"
           x="-1518.5787"
           height="37.757042"
           width="37.757042"
           id="rect12912"
           style="opacity:1;fill:#0032f5;fill-opacity:1;stroke:#ffffff;stroke-width:2;stroke-miterlimit:4;stroke-dasharray:none;stroke-opacity:1" />
        <g
           style="fill:#ffffff"
           transform="matrix(0.11942495,0.11749836,0.11749836,-0.11942495,-1518.7832,107.0828)"
           id="g12918">
          <title
             id="title12914">Layer 1</title>
          <path
             style="fill:#ffffff;fill-rule:evenodd;stroke-width:1.25;stroke-linejoin:round;stroke-miterlimit:4"
             inkscape:connector-curvature="0"
             stroke-miterlimit="4"
             id="path12916"
             d="M 80.476791,3.84649 C 66.996879,3.25614 49.271,8.71378 40.968238,14.63436 38.03176,18.11943 47.28662,32.97744 45.413699,34.58947 42.462371,35.942322 33.382819,45.597939 32.590228,47.735661 31.797599,49.873391 16.935759,40.913792 13.049699,42.36591 5.939909,53.431649 1.089979,71.845597 1.997059,81.937539 c 1.52907,4.278915 19.15685,3.980179 19.60162,6.397743 -0.330481,3.203857 3.432669,15.867478 4.885139,17.633048 1.45245,1.76557 -13.55446,9.76252 -13.92264,13.33971 6.340731,11.76687 19.97086,24.24561 29.298611,28.40882 4.515789,0.77728 12.895691,-14.58812 15.2416,-13.78716 2.65818,1.8555 15.638058,4.81479 17.904041,4.42639 2.26593,-0.38838 1.521027,16.4871 5.532372,19.1811 14.034286,0.58659 30.358768,-4.4645 38.702528,-10.32827 2.96069,-3.46496 -6.19522,-18.39219 -4.31113,-19.9914 2.96069,-1.33269 12.11372,-10.92926 12.92121,-13.06155 0.80746,-2.13227 15.34598,6.66174 19.6871,5.07951 7.51844,-11.24549 11.77134,-29.131788 10.83276,-39.220892 -1.54244,-4.2742 -19.17371,-3.921089 -19.62605,-6.337265 0.32046,-3.20488 -3.47602,-15.859871 -4.93398,-17.620972 -1.45795,-1.76112 12.93781,-9.36475 13.65398,-13.36388 C 141.27357,31.155051 128.28973,18.168011 118.98387,13.95708 114.47215,13.15669 106.02295,28.484659 103.68115,27.6717 101.03273,25.80259 88.057341,22.77175 85.789359,23.14853 83.521377,23.525321 83.91651,6.653721 80.47679,3.846491 Z m 1.355637,57.894042 c 10.671585,0 19.332872,8.589401 19.332872,19.169006 0,10.579605 -8.661287,19.169022 -19.332872,19.169022 -10.671646,0 -19.332939,-8.589417 -19.332939,-19.169022 0,-10.579605 8.661293,-19.169006 19.332939,-19.169006 z" />
        </g>
      </g>
      <g
         id="g12984"
         transform="rotate(45.38921,-1780.9552,-534.16526)">
        <text
           xml:space="preserve"
           style="font-style:normal;font-variant:normal;font-weight:normal;font-stretch:normal;font-size:14px;line-height:1.25;font-family:'Bebas Neue';-inkscape-font-specification:'Bebas Neue';text-align:center;letter-spacing:0px;word-spacing:0px;text-anchor:middle;fill:#000000;fill-opacity:1;stroke:none;stroke-width:0.75"
           x="-1363.9062"
           y="-332.00116"
           id="text12978"
           transform="scale(1,-1)"><tspan
             sodipodi:role="line"
             id="tspan12976"
             x="-1363.9062"
             y="-332.00116"
             style="font-size:48px;fill:#ffffff;stroke-width:0.75"
             dx="0 -3.4657276 -3.4657276">---</tspan></text>
        <text
           transform="matrix(0,1,1,0,0,0)"
           id="text12982"
           y="-1347.095"
           x="348.78992"
           style="font-style:normal;font-variant:normal;font-weight:normal;font-stretch:normal;font-size:14px;line-height:1.25;font-family:'Bebas Neue';-inkscape-font-specification:'Bebas Neue';text-align:center;letter-spacing:0px;word-spacing:0px;text-anchor:middle;fill:#000000;fill-opacity:1;stroke:none;stroke-width:0.75"
           xml:space="preserve"><tspan
             dx="0 -3.4657276 -3.4657276"
             style="font-size:48px;fill:#ffffff;stroke-width:0.75"
             y="-1347.095"
             x="348.78992"
             id="tspan12980"
             sodipodi:role="line">---</tspan></text>
      </g>
    </g>
  </g>
</svg>
