<?xml version="1.0" encoding="UTF-8" standalone="no"?>
<!-- Created with Inkscape (http://www.inkscape.org/) -->

<svg
   xmlns:dc="http://purl.org/dc/elements/1.1/"
   xmlns:cc="http://creativecommons.org/ns#"
   xmlns:rdf="http://www.w3.org/1999/02/22-rdf-syntax-ns#"
   xmlns:svg="http://www.w3.org/2000/svg"
   xmlns="http://www.w3.org/2000/svg"
   xmlns:sodipodi="http://sodipodi.sourceforge.net/DTD/sodipodi-0.dtd"
   xmlns:inkscape="http://www.inkscape.org/namespaces/inkscape"
   width="218.7092mm"
   height="61.677502mm"
   viewBox="0 0 218.70919 61.6775"
   version="1.1"
   id="svg2283"
   inkscape:version="0.92.3 (2405546, 2018-03-11)"
   sodipodi:docname="math_not_equal.svg">
  <defs
     id="defs2277" />
  <sodipodi:namedview
     id="base"
     pagecolor="#ffffff"
     bordercolor="#666666"
     borderopacity="1.0"
     inkscape:pageopacity="0.0"
     inkscape:pageshadow="2"
     inkscape:zoom="0.35"
     inkscape:cx="566.20546"
     inkscape:cy="-233.75999"
     inkscape:document-units="mm"
     inkscape:current-layer="layer1"
     showgrid="false"
     fit-margin-top="0"
     fit-margin-left="0"
     fit-margin-right="0"
     fit-margin-bottom="0"
     inkscape:window-width="1920"
     inkscape:window-height="1001"
     inkscape:window-x="0"
     inkscape:window-y="0"
     inkscape:window-maximized="1" />
  <metadata
     id="metadata2280">
    <rdf:RDF>
      <cc:Work
         rdf:about="">
        <dc:format>image/svg+xml</dc:format>
        <dc:type
           rdf:resource="http://purl.org/dc/dcmitype/StillImage" />
        <dc:title></dc:title>
      </cc:Work>
    </rdf:RDF>
  </metadata>
  <g
     inkscape:label="Layer 1"
     inkscape:groupmode="layer"
     id="layer1"
     transform="translate(143.76091,-569.59266)">
    <g
       id="g11986"
       transform="matrix(0.62226092,0,0,-0.62226092,434.324,1473.6518)"
       inkscape:export-filename="/home/peter/allblocks.png"
       inkscape:export-xdpi="42.094723"
       inkscape:export-ydpi="42.094723">
      <path
         id="path1495"
         d="m -782.98588,1450.1487 -123.76904,-0.3017 -0.0806,-8.5254 c -0.0728,-7.7564 -0.13851,-8.6414 -0.72656,-9.8247 -0.57443,-1.1559 -0.79109,-1.3118 -1.94532,-1.3975 -1.36437,-0.1014 -1.35945,-0.1041 -7.15429,3.6079 -1.65704,1.0615 -2.92354,1.6286 -3.87012,1.7329 -1.26622,0.1396 -1.5374,0.038 -2.70703,-1.0239 -1.0442,-0.948 -1.3978,-1.5785 -1.79883,-3.208 -0.79542,-3.232 -1.20376,-7.2434 -1.23633,-11.2866 h -0.009 c 4.3e-4,-0.105 0.006,-0.2085 0.006,-0.3135 -5.7e-4,-0.105 -0.004,-0.2099 -0.003,-0.3149 h 0.007 c 0.0523,-4.043 0.48083,-8.0513 1.29199,-11.2793 0.40901,-1.6275 0.76614,-2.2563 1.81495,-3.1993 1.17487,-1.0561 1.44542,-1.1585 2.71142,-1.0122 0.94606,0.109 2.20949,0.6825 3.86133,1.752 5.77667,3.7402 5.77189,3.7377 7.13672,3.6431 1.15467,-0.08 1.37257,-0.2342 1.95264,-1.3872 0.59382,-1.1805 0.66275,-2.0659 0.77343,-9.8218 l 0.12158,-41.5254 123.77052,0.3032 202.40918,0.057 0.17871,93.0601 z m -58.03857,-17.2192 24.23438,-0.2666 -0.17725,-60.0586 -23.90918,-0.059 -20.27051,-0.3018 -0.12158,8.524 c -0.11068,7.7559 -0.17962,8.6413 -0.77344,9.8217 -0.58007,1.1531 -0.79797,1.3071 -1.95264,1.3872 -1.36483,0.095 -1.36004,0.097 -7.13671,-3.643 -1.65184,-1.0696 -2.91527,-1.6416 -3.86133,-1.7505 -1.266,-0.1464 -1.53656,-0.045 -2.71143,1.0107 -1.04881,0.9429 -1.40593,1.5732 -1.81494,3.2007 -0.81116,3.2281 -1.23969,7.2349 -1.29199,11.2778 h -0.007 c -9.8e-4,0.105 0.002,0.21 0.003,0.315 0,0.105 -0.005,0.2099 -0.006,0.3149 h 0.009 c 0.0326,4.0432 0.44091,8.0532 1.23633,11.2852 0.40103,1.6295 0.75462,2.26 1.79882,3.208 1.16963,1.0619 1.44082,1.1649 2.70704,1.0254 0.94658,-0.1044 2.21307,-0.6715 3.87011,-1.7329 5.79484,-3.712 5.78993,-3.7108 7.1543,-3.6094 1.15423,0.086 1.37088,0.2416 1.94531,1.3975 0.58805,1.1833 0.65377,2.0698 0.72656,9.8261 l 0.0791,8.524 z m 210.93018,0 24.23437,-0.2666 -0.17724,-60.0586 -23.90918,-0.059 -20.27051,-0.3018 -0.12158,8.524 c -0.11068,7.7559 -0.18108,8.6413 -0.77491,9.8217 -0.58007,1.1531 -0.7965,1.3071 -1.95117,1.3872 -1.36483,0.095 -1.36005,0.097 -7.13672,-3.643 -1.65184,-1.0696 -2.91526,-1.6416 -3.86132,-1.7505 -1.266,-0.1464 -1.53656,-0.045 -2.71143,1.0107 -1.04881,0.9429 -1.40593,1.5732 -1.81494,3.2007 -0.81116,3.2281 -1.23969,7.2349 -1.292,11.2778 h -0.009 c -7.5e-4,0.105 0.002,0.21 0.003,0.315 0,0.105 -0.004,0.2099 -0.005,0.3149 h 0.009 c 0.0325,4.0432 0.44091,8.0532 1.23633,11.2852 0.40103,1.6295 0.75463,2.26 1.79883,3.208 1.16963,1.0619 1.44081,1.1649 2.70703,1.0254 0.94658,-0.1044 2.21308,-0.6715 3.87012,-1.7329 5.79484,-3.712 5.78993,-3.7108 7.1543,-3.6094 1.15422,0.086 1.37088,0.2416 1.94531,1.3975 0.58805,1.1833 0.65376,2.0698 0.72656,9.8261 l 0.0791,8.524 z"
         style="fill:#2974af;fill-opacity:1;stroke:#225d8c;stroke-width:5.42624998;stroke-miterlimit:4;stroke-dasharray:none;stroke-opacity:1"
         inkscape:connector-curvature="0"
         sodipodi:nodetypes="ccccccccccccccccccscccccccccccccccscccccccccccccccccccccccccsccccccccccccccccc" />
      <path
         sodipodi:nodetypes="cccccccccccccccccccccccccccccccccccc"
         inkscape:connector-curvature="0"
         id="path1497"
         d="m -584.00442,1447.5516 -319.67286,-0.75 c 3.62307,-2.4052 7.03913,-4.7291 10.27441,-6.9756 3.23528,-2.2465 6.28873,-4.4161 9.18457,-6.5127 2.89584,-2.0966 5.63499,-4.1207 8.23975,-6.0762 2.60475,-1.9555 5.07499,-3.8413 7.43701,-5.6645 2.36202,-1.8233 3.23905,-2.3246 4.45898,-3.5406 l 0.36475,17.3467 49.18945,-0.1406 0.34717,-50.4595 c 2.35326,-1.0279 5.29852,-2.1278 7.89258,-3.1113 29.7195,-13.9567 167.45883,-21.3765 179.24415,-21.9741 h 43.66406 z m -18.99342,-12.0353 -0.15606,-65.7654 -49.65499,-0.265 0.0403,11.282 c -0.11068,7.7559 -0.18108,7.1413 -0.7749,8.3217 -3.8249,0.1479 -5.25223,-2.2294 -7.58789,-3.7558 -1.65183,-1.0695 -2.91527,-1.6415 -3.86133,-1.7505 -1.266,-0.1463 -1.53656,-0.045 -2.71142,1.0107 -1.04882,0.9429 -2.90594,3.0732 -3.31495,4.7007 -0.81116,3.2281 -1.23969,8.7349 -1.29199,12.7779 h -0.009 c -7.5e-4,0.1049 0.002,0.2099 0.003,0.3149 0,0.105 -0.005,0.2099 -0.005,0.3149 h 0.009 c 0.0326,4.0432 0.4409,9.5532 1.23632,12.7852 0.40104,1.6295 2.25463,3.76 3.29883,4.708 1.16964,1.0619 1.44081,1.165 2.70704,1.0254 0.94657,-0.1044 2.21308,-0.6715 3.87011,-1.7329 2.27663,-1.5159 6.83745,-5.1558 7.59961,-3.7119 0.58805,1.1833 0.65377,0.5698 0.72656,8.3261 l -0.0177,11.4636 z"
         style="fill:#37abc8;fill-opacity:1;stroke:none;stroke-width:5.42624998;stroke-miterlimit:4;stroke-dasharray:none;stroke-opacity:1" />
      <rect
         rx="4.0446839"
         ry="2.0164082"
         transform="matrix(0.9999721,0.00747001,0.02696542,-0.99963637,0,0)"
         y="-1448.8506"
         x="-595.16852"
         height="4.0328164"
         width="46.330078"
         id="rect1499"
         style="opacity:1;fill:#ffffff;fill-opacity:1;stroke:none;stroke-width:2.33531046;stroke-miterlimit:4;stroke-dasharray:none;stroke-opacity:1" />
      <rect
         style="opacity:1;fill:#ffffff;fill-opacity:1;stroke:none;stroke-width:2.71123862;stroke-miterlimit:4;stroke-dasharray:none;stroke-opacity:1"
         id="rect1501"
         width="26.248585"
         height="3.9411135"
         x="-696.84174"
         y="-1442.502"
         transform="matrix(0.9999967,-0.00256827,-0.0230192,-0.99973502,0,0)"
         ry="1.9705567"
         rx="2.2686081" />
      <rect
         style="opacity:0.5;fill:#e6e6e6;fill-opacity:1;stroke:none;stroke-width:17.83334351;stroke-miterlimit:4;stroke-dasharray:none;stroke-opacity:1"
         id="rect1503"
         width="126.04732"
         height="39.805294"
         x="-806.28864"
         y="-1423.5225"
         transform="scale(1,-1)"
         rx="12.738859"
         ry="12.192355" />
      <text
         xml:space="preserve"
         style="font-style:normal;font-variant:normal;font-weight:normal;font-stretch:normal;font-size:37.55853653px;line-height:1.25;font-family:'Bebas Neue';-inkscape-font-specification:'Bebas Neue';text-align:center;letter-spacing:0px;word-spacing:0px;text-anchor:middle;fill:#333333;fill-opacity:1;stroke:none;stroke-width:2.01206446"
         x="-743.2796"
         y="-1390.4744"
         id="text1507"
         transform="scale(1,-1)"><tspan
           dx="0 -7.2166786"
           sodipodi:role="line"
           id="tspan1505"
           x="-743.2796"
           y="-1390.4744"
           style="font-style:normal;font-variant:normal;font-weight:normal;font-stretch:normal;font-family:PAGRevolucionW00-Regular;-inkscape-font-specification:PAGRevolucionW00-Regular;fill:#333333;stroke-width:2.01206446">==</tspan></text>
      <text
         xml:space="preserve"
         style="font-style:normal;font-variant:normal;font-weight:normal;font-stretch:normal;font-size:14px;line-height:1.25;font-family:'Bebas Neue';-inkscape-font-specification:'Bebas Neue';text-align:center;letter-spacing:0px;word-spacing:0px;text-anchor:middle;fill:#333333;fill-opacity:1;stroke:none;stroke-width:0.75"
         x="-743.26318"
         y="-1390.4949"
         id="text1511"
         transform="scale(1,-1)"><tspan
           sodipodi:role="line"
           id="tspan1509"
           x="-743.26318"
           y="-1390.4949"
           style="font-style:normal;font-variant:normal;font-weight:normal;font-stretch:normal;font-size:37.5px;font-family:PAGRevolucionW00-Regular;-inkscape-font-specification:PAGRevolucionW00-Regular;fill:#333333;fill-opacity:1;stroke-width:0.75">/</tspan></text>
    </g>
  </g>
</svg>
