<?xml version="1.0" encoding="UTF-8" standalone="no"?>
<!-- Created with Inkscape (http://www.inkscape.org/) -->

<svg
   xmlns:dc="http://purl.org/dc/elements/1.1/"
   xmlns:cc="http://creativecommons.org/ns#"
   xmlns:rdf="http://www.w3.org/1999/02/22-rdf-syntax-ns#"
   xmlns:svg="http://www.w3.org/2000/svg"
   xmlns="http://www.w3.org/2000/svg"
   xmlns:sodipodi="http://sodipodi.sourceforge.net/DTD/sodipodi-0.dtd"
   xmlns:inkscape="http://www.inkscape.org/namespaces/inkscape"
   width="392.68906mm"
   height="41.242023mm"
   viewBox="0 0 392.68909 41.242022"
   version="1.1"
   id="svg2283"
   inkscape:version="0.92.3 (2405546, 2018-03-11)"
   sodipodi:docname="math_convert_number_hex_to_base10.svg">
  <defs
     id="defs2277" />
  <sodipodi:namedview
     id="base"
     pagecolor="#ffffff"
     bordercolor="#666666"
     borderopacity="1.0"
     inkscape:pageopacity="0.0"
     inkscape:pageshadow="2"
     inkscape:zoom="0.35"
     inkscape:cx="-52.890184"
     inkscape:cy="599.42085"
     inkscape:document-units="mm"
     inkscape:current-layer="layer1"
     showgrid="false"
     fit-margin-top="0"
     fit-margin-left="0"
     fit-margin-right="0"
     fit-margin-bottom="0"
     inkscape:window-width="1920"
     inkscape:window-height="1001"
     inkscape:window-x="0"
     inkscape:window-y="0"
     inkscape:window-maximized="1" />
  <metadata
     id="metadata2280">
    <rdf:RDF>
      <cc:Work
         rdf:about="">
        <dc:format>image/svg+xml</dc:format>
        <dc:type
           rdf:resource="http://purl.org/dc/dcmitype/StillImage" />
        <dc:title></dc:title>
      </cc:Work>
    </rdf:RDF>
  </metadata>
  <g
     inkscape:label="Layer 1"
     inkscape:groupmode="layer"
     id="layer1"
     transform="translate(209.39008,-840.71195)">
    <g
       id="g35">
      <path
         sodipodi:nodetypes="cccccccccccccccsccccccccccccccccccccccscccccc"
         inkscape:connector-curvature="0"
         id="path1957"
         d="m 181.44635,879.91795 0.16191,-10.65204 c -0.0628,-0.32632 -0.14629,-0.53714 -0.26141,-0.76514 -0.36184,-0.71703 -0.49712,-0.81292 -1.21571,-0.86177 -0.84932,-0.0579 -0.84652,-0.0591 -4.43796,2.27281 -1.02705,0.66688 -1.81296,1.02468 -2.40156,1.09325 -0.78734,0.0918 -0.95616,0.0286 -1.68807,-0.62749 -0.65343,-0.58585 -0.87614,-0.97695 -1.13195,-1.9893 -0.50746,-2.00804 -0.77714,-4.50156 -0.81305,-7.0173 l -0.006,1.9e-4 c -3.7e-4,-0.0653 0,-0.13043 0,-0.19577 0,-0.0653 -0.006,-0.13042 -0.006,-0.19576 l 0.006,-1.9e-4 c 0.0168,-2.51592 0.26782,-5.01181 0.76009,-7.02358 0.24822,-1.01429 0.46794,-1.40699 1.11696,-1.99777 0.72693,-0.66177 0.89525,-0.72568 1.68328,-0.63987 0.58915,0.0642 1.37768,0.41604 2.4097,1.07514 3.60899,2.30511 3.60613,2.30343 4.45502,2.23927 0.71815,-0.0541 0.85274,-0.15121 1.20918,-0.87092 0.11343,-0.22886 0.19526,-0.44024 0.25562,-0.76706 l -0.0392,-10.44919 -15.08037,-0.14523 -361.98809,0.29028 -0.0429,5.30477 c -0.0386,4.82657 -0.079,5.37777 -0.44386,6.11465 -0.35649,0.71971 -0.49103,0.81659 -1.20924,0.87086 -0.84889,0.0642 -0.84603,0.0658 -4.45501,-2.23921 -1.03196,-0.65916 -1.82055,-1.01099 -2.40965,-1.07514 -0.78803,-0.0858 -0.95635,-0.0218 -1.68334,0.63981 -0.64895,0.59077 -0.86874,0.98348 -1.11696,1.99776 -0.49227,2.01184 -0.74316,4.50766 -0.76009,7.02359 l -0.006,6e-5 c 3.7e-4,0.0653 0.006,0.13043 0.006,0.19576 -2.5e-4,0.0653 0,0.13043 0,0.19577 h 0.006 c 0.0361,2.51574 0.3056,5.0092 0.81305,7.01723 0.25587,1.01236 0.47858,1.40345 1.13196,1.98931 0.73196,0.65617 0.90047,0.71964 1.68813,0.62749 0.58859,-0.0686 1.37451,-0.42638 2.40149,-1.09325 3.5915,-2.33217 3.58864,-2.33056 4.43796,-2.27275 0.71859,0.0492 0.85387,0.14474 1.21578,0.86177 0.37049,0.73402 0.41461,1.28497 0.4899,6.11104 l 0.0828,5.30434 361.98816,-0.29035 z"
         style="fill:#2974af;fill-opacity:1;stroke:#225d8c;stroke-width:3.37654328;stroke-miterlimit:4;stroke-dasharray:none;stroke-opacity:1" />
      <path
         style="fill:#37abc8;fill-opacity:1;stroke:none;stroke-width:3.37654328;stroke-miterlimit:4;stroke-dasharray:none;stroke-opacity:1"
         d="m 180.46287,878.30941 0.2013,-0.20286 0.16982,-7.56022 c -0.0629,-0.32631 -0.14636,-0.53707 -0.26142,-0.76507 -0.3619,-0.71703 -0.49718,-0.81292 -1.21571,-0.86177 -0.84938,-0.0579 -1.23456,0.12091 -4.826,2.45308 -1.02705,0.66688 -1.81296,1.02468 -2.40156,1.09325 -0.9375,-0.14804 -0.91018,-0.20547 -1.64214,-0.86171 -0.65338,-0.58586 -0.92201,-0.74273 -1.17788,-1.75508 -0.50746,-2.00804 -1.0968,-6.71202 -1.1327,-9.22782 l -0.006,2.5e-4 c -3.1e-4,-0.0653 0,-0.13049 0,-0.19583 0,-0.0653 -0.006,-0.13042 -0.006,-0.1957 l 0.006,-2.5e-4 c 0.0168,-2.51592 0.55786,-5.45492 1.05019,-7.46676 0.24816,-1.01422 0.46794,-1.40699 1.1169,-1.99777 0.72692,-0.66171 0.89525,-0.72561 1.68334,-0.6398 0.58909,0.0641 1.37768,0.41598 2.40964,1.07514 3.60899,2.30504 3.62144,2.43783 4.47032,2.37368 0.71816,-0.0541 0.85275,-0.15121 1.20918,-0.87092 0.11344,-0.22887 0.19527,-0.44031 0.25563,-0.76706 l -0.26341,-7.93769 -372.92675,0.36139 c 36.10376,23.89811 323.51109,24.80832 355.58907,33.93577 z"
         id="path1959"
         inkscape:connector-curvature="0"
         sodipodi:nodetypes="ccccccccccccccccscccccccc" />
      <rect
         style="opacity:0.5;fill:#e6e6e6;fill-opacity:1;stroke:none;stroke-width:16.557621;stroke-miterlimit:4;stroke-dasharray:none;stroke-opacity:1"
         id="rect1961"
         width="174.61899"
         height="24.769279"
         x="-14.223558"
         y="848.94885"
         rx="7.3219557"
         ry="7.5868263" />
      <text
         id="text1965"
         y="869.51337"
         x="72.684082"
         style="font-style:normal;font-variant:normal;font-weight:normal;font-stretch:normal;font-size:23.3712101px;line-height:1.25;font-family:'Bebas Neue';-inkscape-font-specification:'Bebas Neue';text-align:center;letter-spacing:0px;word-spacing:0px;text-anchor:middle;fill:#000000;fill-opacity:1;stroke:none;stroke-width:1.25202906"
         xml:space="preserve"><tspan
           style="font-style:normal;font-variant:normal;font-weight:normal;font-stretch:normal;font-family:Digitalt;-inkscape-font-specification:Digitalt;fill:#000000;stroke-width:1.25202906"
           y="869.51337"
           x="72.684082"
           id="tspan1963"
           sodipodi:role="line">hex to base 10</tspan></text>
      <rect
         style="opacity:1;fill:#ffffff;fill-opacity:1;stroke:none;stroke-width:1.45317245;stroke-miterlimit:4;stroke-dasharray:none;stroke-opacity:1"
         id="rect1967"
         width="28.829397"
         height="2.509464"
         x="127.53072"
         y="846.40784"
         transform="matrix(0.9999721,-0.00747002,0.02696542,0.99963637,0,0)"
         ry="1.254732"
         rx="2.5168488" />
      <rect
         rx="1.4116662"
         ry="1.2262005"
         transform="matrix(0.9999967,0.00256826,-0.0230192,0.99973502,0,0)"
         y="844.96906"
         x="151.49527"
         height="2.4524009"
         width="16.333469"
         id="rect1969"
         style="opacity:1;fill:#ffffff;fill-opacity:1;stroke:none;stroke-width:1.68709779;stroke-miterlimit:4;stroke-dasharray:none;stroke-opacity:1" />
      <text
         xml:space="preserve"
         style="font-style:normal;font-variant:normal;font-weight:normal;font-stretch:normal;font-size:23.3712101px;line-height:1.25;font-family:'Bebas Neue';-inkscape-font-specification:'Bebas Neue';text-align:center;letter-spacing:0px;word-spacing:0px;text-anchor:middle;fill:#ffffff;fill-opacity:1;stroke:none;stroke-width:1.25202906"
         x="-105.17144"
         y="869.51337"
         id="text1973"><tspan
           sodipodi:role="line"
           id="tspan1971"
           x="-105.17144"
           y="869.51337"
           style="font-style:normal;font-variant:normal;font-weight:normal;font-stretch:normal;font-family:Digitalt;-inkscape-font-specification:Digitalt;fill:#ffffff;stroke-width:1.25202906">convert number</tspan></text>
    </g>
  </g>
</svg>
