<?xml version="1.0" encoding="UTF-8" standalone="no"?>
<!-- Created with Inkscape (http://www.inkscape.org/) -->

<svg
   xmlns:dc="http://purl.org/dc/elements/1.1/"
   xmlns:cc="http://creativecommons.org/ns#"
   xmlns:rdf="http://www.w3.org/1999/02/22-rdf-syntax-ns#"
   xmlns:svg="http://www.w3.org/2000/svg"
   xmlns="http://www.w3.org/2000/svg"
   xmlns:sodipodi="http://sodipodi.sourceforge.net/DTD/sodipodi-0.dtd"
   xmlns:inkscape="http://www.inkscape.org/namespaces/inkscape"
   width="126.15731mm"
   height="97.154877mm"
   viewBox="0 0 126.15731 97.154873"
   version="1.1"
   id="svg2283"
   inkscape:version="0.92.3 (2405546, 2018-03-11)"
   sodipodi:docname="math_atan2.svg">
  <defs
     id="defs2277" />
  <sodipodi:namedview
     id="base"
     pagecolor="#ffffff"
     bordercolor="#666666"
     borderopacity="1.0"
     inkscape:pageopacity="0.0"
     inkscape:pageshadow="2"
     inkscape:zoom="0.35"
     inkscape:cx="-352.62759"
     inkscape:cy="718.02454"
     inkscape:document-units="mm"
     inkscape:current-layer="layer1"
     showgrid="false"
     fit-margin-top="0"
     fit-margin-left="0"
     fit-margin-right="0"
     fit-margin-bottom="0"
     inkscape:window-width="1920"
     inkscape:window-height="1001"
     inkscape:window-x="0"
     inkscape:window-y="0"
     inkscape:window-maximized="1" />
  <metadata
     id="metadata2280">
    <rdf:RDF>
      <cc:Work
         rdf:about="">
        <dc:format>image/svg+xml</dc:format>
        <dc:type
           rdf:resource="http://purl.org/dc/dcmitype/StillImage" />
        <dc:title></dc:title>
      </cc:Work>
    </rdf:RDF>
  </metadata>
  <g
     inkscape:label="Layer 1"
     inkscape:groupmode="layer"
     id="layer1"
     transform="translate(130.08456,-846.41775)">
    <g
       id="g38">
      <path
         sodipodi:nodetypes="ccccscccccccccccccccccccccccccccccccccccsccsccccccccccccccccccccccccccccccccccsccccccccccsccccc"
         inkscape:connector-curvature="0"
         style="fill:#2974af;fill-opacity:1;stroke:#225d8c;stroke-width:3.37654328;stroke-miterlimit:4;stroke-dasharray:none;stroke-opacity:1"
         d="m -20.700995,848.11535 -95.536595,0.18779 -0.0504,5.30497 c -0.0454,4.8265 -0.0862,5.3772 -0.45213,6.11352 -0.35743,0.71927 -0.49221,0.81628 -1.21049,0.86961 -0.84901,0.063 -0.8459,0.0648 -4.45184,-2.24505 -1.03115,-0.66053 -1.81918,-1.01342 -2.40821,-1.07832 -0.78791,-0.0869 -0.95666,-0.0224 -1.68446,0.63807 -0.64983,0.5899 -0.8698,0.98224 -1.11932,1.99621 -0.49501,2.01115 -0.74908,4.50635 -0.76937,7.02228 h -0.006 c 2.5e-4,0.0653 0.006,0.13067 0.006,0.19601 -3.1e-4,0.0653 -0.006,0.12968 0,0.19502 h 0.006 c 0.033,2.5158 0.29918,5.01 0.80389,7.01866 0.25457,1.01273 0.47678,1.40401 1.12941,1.99074 0.73103,0.65723 0.89941,0.72095 1.6872,0.62991 0.58872,-0.0678 1.37488,-0.42469 2.40273,-1.0902 3.59468,-2.32744 3.59169,-2.32582 4.44095,-2.26696 0.71847,0.0498 0.85406,0.14574 1.21503,0.86321 0.3695,0.73457 0.41237,1.28552 0.48126,6.11172 l 0.0757,61.3085 95.538461,-0.18773 14.8777605,-0.0367 0.016179,-11.18433 c -0.02738,-0.0751 -0.044181,-0.16309 -0.078405,-0.23241 -0.1797711,-0.35911 -0.3037255,-0.5634 -0.4721715,-0.68362 -0.1685083,-0.12028 -0.3818193,-0.15674 -0.7410506,-0.18232 -0.2122532,-0.0149 -0.3706186,-0.0261 -0.5460339,0 -0.1753532,0.0274 -0.367694,0.0942 -0.6453468,0.23515 -0.5553057,0.28207 -1.4544727,0.86159 -3.2540517,2.02173 -0.514609,0.33179 -0.968238,0.58654 -1.367294,0.76662 -0.399056,0.18002 -0.742917,0.28568 -1.037309,0.31904 -0.393828,0.0448 -0.633212,0.0504 -0.865004,-0.0367 -0.231855,-0.0871 -0.456429,-0.26776 -0.821323,-0.59706 -0.325753,-0.29401 -0.543482,-0.53869 -0.711866,-0.83675 -0.168322,-0.29813 -0.286614,-0.6492 -0.412932,-1.15585 -0.250398,-1.00483 -0.440997,-2.13131 -0.572418,-3.32063 -0.131484,-1.18927 -0.20404,-2.44101 -0.217854,-3.69891 h -0.0062 c -1.87e-4,-0.0653 0,-0.13067 0,-0.19601 0,-0.0653 -0.0062,-0.13061 -0.0062,-0.19595 h 0.0062 c 0.01244,-1.25796 0.08388,-2.51033 0.214182,-3.69984 0.130301,-1.18951 0.319344,-2.31649 0.568808,-3.32157 0.125759,-0.5067 0.243989,-0.85753 0.411999,-1.15578 0.168073,-0.29825 0.386424,-0.54336 0.711929,-0.83769 0.364458,-0.32968 0.588597,-0.51075 0.820327,-0.59793 0.23173,-0.0872 0.471176,-0.0807 0.865067,-0.0367 0.294391,0.033 0.639,0.1384 1.03818,0.3181 0.399243,0.17971 0.853244,0.43353 1.368165,0.76476 1.8006988,1.15847 2.7003636,1.73748 3.2559804,2.01899 0.2777773,0.14076 0.4689358,0.20684 0.6444134,0.23428 0.1754154,0.0274 0.3346519,0.0156 0.5469051,0 0.3592313,-0.0261 0.572729,-0.0637 0.7410506,-0.18412 0.1683838,-0.12041 0.2918403,-0.32346 0.4713004,-0.68275 0.048536,-0.0967 0.072805,-0.22047 0.1093934,-0.32451 l 0.015557,-10.89348 0.012445,-8.48715 0.00622,-3.21217 c -0.056626,-0.22843 -0.1154916,-0.42979 -0.206964,-0.61249 -0.1797712,-0.35911 -0.3036633,-0.5634 -0.4721716,-0.68368 -0.168446,-0.12022 -0.3818193,-0.15668 -0.7410505,-0.18226 -0.2123154,-0.0149 -0.3706186,-0.0268 -0.5459717,0 -0.1754154,0.0274 -0.3677562,0.0941 -0.6453468,0.23515 -0.5553679,0.28207 -1.4545349,0.86159 -3.2541137,2.02173 -0.514609,0.33179 -0.9683,0.58654 -1.367293,0.76656 -0.399056,0.18008 -0.742918,0.28574 -1.037309,0.31904 -0.393829,0.0448 -0.633213,0.0504 -0.865005,-0.0367 -0.231855,-0.087 -0.456429,-0.26769 -0.82126,-0.59699 -0.325816,-0.29402 -0.543607,-0.5387 -0.711929,-0.83682 -0.168322,-0.29806 -0.286613,-0.64914 -0.412932,-1.15579 -0.25046,-1.00483 -0.440997,-2.13137 -0.572418,-3.32063 -0.131484,-1.18927 -0.204039,-2.44101 -0.217854,-3.69891 h -0.0062 c -1.25e-4,-0.0653 0,-0.13067 0.0062,-0.19601 0,-0.0653 -0.0062,-0.13067 -0.0062,-0.19595 h 0.0062 c 0.01245,-1.25796 0.08394,-2.51032 0.214245,-3.69984 0.130301,-1.18951 0.319282,-2.31649 0.568808,-3.32157 0.125759,-0.5067 0.243927,-0.85753 0.411999,-1.15578 0.168073,-0.29831 0.386424,-0.54336 0.711867,-0.83769 0.36452,-0.32967 0.588597,-0.51075 0.820389,-0.59799 0.23173,-0.0872 0.471113,-0.0806 0.865005,-0.0367 0.294453,0.033 0.638999,0.13846 1.038242,0.31817 0.39918,0.17964 0.853244,0.43346 1.368165,0.76475 1.8006984,1.15847 2.700301,1.73748 3.2559178,2.01899 0.2777772,0.14076 0.4690602,0.20684 0.6444756,0.23428 0.1753531,0.0274 0.3345897,0.0162 0.5468429,6.3e-4 0.3592312,-0.0261 0.5727289,-0.0637 0.7411128,-0.18413 0.1683838,-0.12041 0.2917781,-0.32345 0.4712381,-0.68275 0.1052866,-0.21082 0.1781534,-0.42176 0.2378904,-0.70732 l 0.015556,-28.2433 -15.0801206,-0.16496 z"
         id="path1572" />
      <path
         id="path1574"
         d="m -112.14734,850.13272 c 25.810512,47.84078 57.606614,73.31148 90.383772,89.73095 l 14.8777607,0.0597 0.2385126,-7.58418 c -0.02738,-0.0752 -0.044181,-0.16315 -0.078405,-0.23247 -0.1797712,-0.35911 -0.3037255,-0.56334 -0.4721716,-0.68362 -0.1685082,-0.12028 -0.3818193,-0.15669 -0.7410505,-0.18232 -0.2123154,-0.0149 -0.3706186,-0.0261 -0.5460339,0 -0.1753532,0.0274 -0.367694,0.0942 -0.6453468,0.23521 -0.5553057,0.28207 -1.4544725,0.86158 -3.2540515,2.02173 -0.514609,0.33173 -0.968238,0.58648 -1.367294,0.76656 -0.399056,0.18008 -0.742917,0.28574 -1.037309,0.31903 -0.393891,0.0448 -0.633212,0.0504 -0.865067,-0.0367 -0.231854,-0.087 -0.456428,-0.2677 -0.82126,-0.597 -0.325753,-0.29401 -0.543482,-0.53869 -0.711866,-0.83681 -0.168322,-0.29807 -0.286614,-0.64921 -0.412933,-1.15579 -0.250397,-1.00483 -0.440996,-2.13137 -0.572417,-3.32063 -0.131484,-1.18933 -0.20404,-2.44101 -0.217854,-3.69897 h -0.0062 c -1.87e-4,-0.0653 0,-0.13061 0,-0.19595 0,-0.0653 -0.0062,-0.13068 -0.0062,-0.19595 h 0.0062 c 0.01244,-1.25796 0.08388,-6.24395 0.214182,-7.43341 0.130301,-1.18951 0.319344,-2.31649 0.568808,-3.32156 0.125759,-0.50677 0.243927,-0.85754 0.411999,-1.15585 0.168073,-0.29825 0.386424,-0.54336 0.711929,-0.83769 0.364458,-0.32961 0.588597,-0.51075 0.820327,-0.59793 0.23173,-0.0872 0.471113,-0.0806 0.865005,-0.0367 0.294453,0.033 0.638999,0.13845 1.038242,0.3181 0.399243,0.17971 0.853244,0.43353 1.368165,0.76482 1.800699,1.1584 2.7003634,1.73747 3.2559179,2.01899 0.2777773,0.14075 0.4689981,0.20683 0.6444757,0.23421 0.1754153,0.0274 0.3346519,0.0156 0.5469051,0 0.359169,-0.0261 0.572729,-0.0637 0.7410505,-0.18412 0.1683838,-0.12041 0.2918404,-0.32339 0.4712382,-0.68269 0.048536,-0.0968 0.072867,-0.22052 0.1093935,-0.3245 l 0.015556,-9.96016 0.012445,-5.68691 0.00622,-3.21217 c -0.056626,-0.22849 -0.1154294,-0.42986 -0.2069018,-0.61255 -0.1797712,-0.35911 -0.3036633,-0.5634 -0.4721716,-0.68362 -0.168446,-0.12028 -0.3818193,-0.15675 -0.7410505,-0.18232 -0.2123154,-0.0149 -0.3706186,-0.0268 -0.5459718,0 -0.1754153,0.0274 -0.3677562,0.0942 -0.6453468,0.23515 -0.5553678,0.28207 -1.4545354,0.86158 -3.2541764,2.02179 -0.514547,0.33173 -0.968238,0.58648 -1.367231,0.76656 -0.399056,0.18008 -0.742918,0.28568 -1.037309,0.31904 -0.393829,0.0448 -0.633213,0.0504 -0.865005,-0.0367 -0.231855,-0.0871 -0.456429,-0.26776 -0.821322,-0.59706 -0.325754,-0.29402 -0.543545,-0.53863 -0.711867,-0.83675 -0.168322,-0.29813 -0.286676,-0.64921 -0.412932,-1.15579 -0.25046,-1.00489 -0.440997,-2.13137 -0.572418,-3.32069 -0.131484,-1.18927 -0.20404,-3.37434 -0.217854,-4.6323 h -0.0062 c -1.25e-4,-0.0653 0,-0.13068 0.0062,-0.19595 0,-0.0653 -0.0062,-0.13068 -0.0062,-0.19601 h 0.0062 c 0.01245,-1.2579 0.08394,-5.3105 0.214245,-6.50002 0.130301,-1.18951 0.319282,-2.31643 0.568808,-3.32156 0.125759,-0.50671 0.243927,-0.85754 0.411999,-1.15579 0.168073,-0.29825 0.386424,-0.54336 0.711867,-0.83769 0.36452,-0.32967 0.588596,-0.51075 0.820389,-0.59793 0.23173,-0.0872 0.471113,-0.0807 0.865005,-0.0367 0.294453,0.033 0.638999,0.13845 1.038242,0.3181 0.39918,0.17971 0.853244,0.43353 1.368165,0.76476 1.800699,1.15846 2.7003018,1.73747 3.2559186,2.01905 0.2777772,0.14075 0.4690602,0.20684 0.6444756,0.23422 0.1753531,0.0274 0.3345897,0.0162 0.5468429,6.2e-4 0.3592312,-0.0261 0.5727289,-0.0637 0.7411127,-0.18413 0.1683838,-0.12041 0.2917782,-0.32345 0.4712382,-0.68268 0.1052866,-0.21089 0.1781533,-0.42177 0.2378904,-0.70739 l -0.2067151,-24.73947 c -14.2140573,-0.71741 -145.5890213,0.21038 -105.3705513,0.2186 z"
         style="fill:#37abc8;fill-opacity:1;stroke:none;stroke-width:3.37654328;stroke-miterlimit:4;stroke-dasharray:none;stroke-opacity:1"
         inkscape:connector-curvature="0"
         sodipodi:nodetypes="ccccccccccscccccccccccscccccccccccccccccsccccscccccccccccscccccsccccccccc" />
      <rect
         style="opacity:1;fill:#ffffff;fill-opacity:1;stroke:none;stroke-width:1.45317245;stroke-miterlimit:4;stroke-dasharray:none;stroke-opacity:1"
         id="rect1586"
         width="28.829397"
         height="2.509464"
         x="-59.483173"
         y="850.93158"
         transform="matrix(0.9999721,-0.00747002,0.02696542,0.99963637,0,0)"
         ry="1.254732"
         rx="2.5168488" />
      <rect
         rx="1.4116662"
         ry="1.2262005"
         transform="matrix(0.9999967,0.00256826,-0.0230192,0.99973502,0,0)"
         y="851.36298"
         x="-35.2416"
         height="2.4524009"
         width="16.333469"
         id="rect1588"
         style="opacity:1;fill:#ffffff;fill-opacity:1;stroke:none;stroke-width:1.68709779;stroke-miterlimit:4;stroke-dasharray:none;stroke-opacity:1" />
      <text
         id="text1594"
         y="874.38745"
         x="-78.145088"
         style="font-style:normal;font-variant:normal;font-weight:normal;font-stretch:normal;font-size:23.3712101px;line-height:1.25;font-family:'Bebas Neue';-inkscape-font-specification:'Bebas Neue';text-align:center;letter-spacing:0px;word-spacing:0px;text-anchor:middle;fill:#ffffff;fill-opacity:1;stroke:none;stroke-width:1.25202906"
         xml:space="preserve"><tspan
           style="font-style:normal;font-variant:normal;font-weight:normal;font-stretch:normal;font-family:Digitalt;-inkscape-font-specification:Digitalt;fill:#ffffff;stroke-width:1.25202906"
           y="874.38745"
           x="-78.145088"
           id="tspan1592"
           sodipodi:role="line">atan2</tspan></text>
      <text
         id="text1616"
         y="892.63086"
         x="-27.386913"
         style="font-style:normal;font-variant:normal;font-weight:normal;font-stretch:normal;font-size:23.3712101px;line-height:1.25;font-family:'Bebas Neue';-inkscape-font-specification:'Bebas Neue';text-align:center;letter-spacing:0px;word-spacing:0px;text-anchor:middle;fill:#ffffff;fill-opacity:1;stroke:none;stroke-width:1.25202906"
         xml:space="preserve"><tspan
           style="font-style:normal;font-variant:normal;font-weight:normal;font-stretch:normal;font-family:Digitalt;-inkscape-font-specification:Digitalt;fill:#ffffff;stroke-width:1.25202906"
           y="892.63086"
           x="-27.386913"
           id="tspan1614"
           sodipodi:role="line">y</tspan></text>
      <text
         xml:space="preserve"
         style="font-style:normal;font-variant:normal;font-weight:normal;font-stretch:normal;font-size:23.3712101px;line-height:1.25;font-family:'Bebas Neue';-inkscape-font-specification:'Bebas Neue';text-align:center;letter-spacing:0px;word-spacing:0px;text-anchor:middle;fill:#ffffff;fill-opacity:1;stroke:none;stroke-width:1.25202906"
         x="-27.386913"
         y="930.8999"
         id="text1620"><tspan
           sodipodi:role="line"
           id="tspan1618"
           x="-27.386913"
           y="930.8999"
           style="font-style:normal;font-variant:normal;font-weight:normal;font-stretch:normal;font-family:Digitalt;-inkscape-font-specification:Digitalt;fill:#ffffff;stroke-width:1.25202906">x</tspan></text>
    </g>
  </g>
</svg>
