<?xml version="1.0" encoding="UTF-8" standalone="no"?>
<!-- Created with Inkscape (http://www.inkscape.org/) -->

<svg
   xmlns:dc="http://purl.org/dc/elements/1.1/"
   xmlns:cc="http://creativecommons.org/ns#"
   xmlns:rdf="http://www.w3.org/1999/02/22-rdf-syntax-ns#"
   xmlns:svg="http://www.w3.org/2000/svg"
   xmlns="http://www.w3.org/2000/svg"
   xmlns:sodipodi="http://sodipodi.sourceforge.net/DTD/sodipodi-0.dtd"
   xmlns:inkscape="http://www.inkscape.org/namespaces/inkscape"
   width="192.65121mm"
   height="41.243683mm"
   viewBox="0 0 192.65122 41.243681"
   version="1.1"
   id="svg2283"
   inkscape:version="0.92.3 (2405546, 2018-03-11)"
   sodipodi:docname="math_floor.svg">
  <defs
     id="defs2277" />
  <sodipodi:namedview
     id="base"
     pagecolor="#ffffff"
     bordercolor="#666666"
     borderopacity="1.0"
     inkscape:pageopacity="0.0"
     inkscape:pageshadow="2"
     inkscape:zoom="0.35"
     inkscape:cx="-1190.1144"
     inkscape:cy="982.72874"
     inkscape:document-units="mm"
     inkscape:current-layer="layer1"
     showgrid="false"
     fit-margin-top="0"
     fit-margin-left="0"
     fit-margin-right="0"
     fit-margin-bottom="0"
     inkscape:window-width="1920"
     inkscape:window-height="1001"
     inkscape:window-x="0"
     inkscape:window-y="0"
     inkscape:window-maximized="1" />
  <metadata
     id="metadata2280">
    <rdf:RDF>
      <cc:Work
         rdf:about="">
        <dc:format>image/svg+xml</dc:format>
        <dc:type
           rdf:resource="http://purl.org/dc/dcmitype/StillImage" />
        <dc:title />
      </cc:Work>
    </rdf:RDF>
  </metadata>
  <g
     inkscape:label="Layer 1"
     inkscape:groupmode="layer"
     id="layer1"
     transform="translate(-91.500497,-911.88909)">
    <g
       id="g12545"
       transform="matrix(0.62226092,0,0,-0.62226092,656.69449,1646.5995)"
       inkscape:export-filename="/home/peter/allblocks.png"
       inkscape:export-xdpi="42.094723"
       inkscape:export-ydpi="42.094723">
      <path
         style="fill:#2974af;fill-opacity:1;stroke:#225d8c;stroke-width:5.42624998;stroke-miterlimit:4;stroke-dasharray:none;stroke-opacity:1"
         d="m -601.6695,1117.7054 0.26022,17.1183 c -0.10095,0.5244 -0.23513,0.8632 -0.42008,1.2296 -0.58156,1.1523 -0.79897,1.3064 -1.95373,1.3849 -1.36495,0.093 -1.36036,0.095 -7.13204,-3.6525 -1.65043,-1.0717 -2.91343,-1.6467 -3.85936,-1.7569 -1.26534,-0.1475 -1.5366,-0.046 -2.71281,1.0084 -1.0501,0.9415 -1.40797,1.57 -1.81911,3.1969 -0.81553,3.227 -1.24892,7.2342 -1.30663,11.2771 l -0.009,-3e-4 c -5.6e-4,0.1049 0.003,0.2096 0.004,0.3146 -0.002,0.1049 -0.007,0.2096 -0.007,0.3146 l 0.009,3e-4 c 0.0273,4.0432 0.4304,8.0542 1.22157,11.2872 0.39889,1.63 0.75201,2.2611 1.79496,3.2105 1.16823,1.0635 1.43872,1.1662 2.70515,1.0283 0.94673,-0.1031 2.21401,-0.6686 3.87247,-1.7278 5.79976,-3.7044 5.79517,-3.7017 7.15937,-3.5986 1.15416,0.087 1.37038,0.243 1.94326,1.3996 0.18222,0.3678 0.3138,0.7075 0.41079,1.2327 l -0.0633,16.7923 -24.23479,0.2334 -260.26985,-0.4665 -0.0688,-8.525 c -0.0625,-7.7565 -0.12684,-8.6423 -0.71331,-9.8265 -0.5729,-1.1566 -0.78912,-1.3123 -1.94324,-1.3995 -1.36423,-0.1032 -1.35961,-0.1058 -7.15939,3.5985 -1.65845,1.0593 -2.92574,1.6247 -3.87246,1.7278 -1.2664,0.1379 -1.53693,0.035 -2.70516,-1.0282 -1.04293,-0.9494 -1.39612,-1.5805 -1.79499,-3.2105 -0.79112,-3.2331 -1.19434,-7.244 -1.22153,-11.2872 l -0.008,-10e-5 c 5.7e-4,-0.105 0.005,-0.2096 0.005,-0.3146 -4.3e-4,-0.105 -0.003,-0.2096 -0.003,-0.3146 h 0.008 c 0.0577,-4.0429 0.49113,-8.05 1.30659,-11.277 0.41117,-1.6269 0.76907,-2.2554 1.81913,-3.1969 1.17627,-1.0545 1.44703,-1.1565 2.71283,-1.0084 0.94591,0.1102 2.2089,0.6852 3.85932,1.7569 5.77169,3.7479 5.7671,3.7453 7.13205,3.6524 1.15477,-0.079 1.37214,-0.2326 1.95374,-1.3849 0.59539,-1.1796 0.66637,-2.065 0.78736,-9.8207 l 0.133,-8.5243 260.26985,0.4666 z"
         id="path12461"
         inkscape:connector-curvature="0"
         sodipodi:nodetypes="cccccccccccccccsccccccccccccccccccccccscccccc" />
      <path
         sodipodi:nodetypes="ccccccccccccccccscccccccc"
         inkscape:connector-curvature="0"
         id="path12463"
         d="m -603.24998,1120.2904 0.32352,0.326 0.27285,12.1496 c -0.10105,0.5244 -0.23514,0.8631 -0.42008,1.2295 -0.58157,1.1523 -0.79897,1.3064 -1.95375,1.3849 -1.36493,0.093 -1.98392,-0.1943 -7.75558,-3.9422 -1.65043,-1.0717 -2.91343,-1.6467 -3.85936,-1.7569 -1.50666,0.2379 -1.46275,0.3302 -2.63897,1.3848 -1.05009,0.9415 -1.48178,1.1936 -1.89296,2.8205 -0.81552,3.227 -1.76255,10.7865 -1.82027,14.8295 l -0.009,-4e-4 c -5.6e-4,0.105 0.003,0.2097 0.004,0.3147 -0.002,0.1049 -0.006,0.2096 -0.007,0.3145 l 0.009,4e-4 c 0.0272,4.0432 0.89647,8.7663 1.68764,11.9994 0.39888,1.6299 0.752,2.2611 1.79496,3.2105 1.16823,1.0634 1.43872,1.1661 2.70514,1.0282 0.94673,-0.1031 2.21402,-0.6685 3.87248,-1.7278 5.79975,-3.7043 5.81975,-3.9177 7.18396,-3.8146 1.15415,0.087 1.37037,0.243 1.94325,1.3996 0.18222,0.3678 0.3138,0.7076 0.4108,1.2327 l -0.42339,12.7562 -279.15424,-0.5932 c 58.02027,-38.4053 199.74122,-39.8556 251.29184,-54.5238 z"
         style="fill:#37abc8;fill-opacity:1;stroke:none;stroke-width:5.42624998;stroke-miterlimit:4;stroke-dasharray:none;stroke-opacity:1" />
      <rect
         ry="12.192355"
         rx="9.882885"
         transform="scale(1,-1)"
         y="-1167.4741"
         x="-871.19299"
         height="39.805294"
         width="235.69376"
         id="rect12465"
         style="opacity:0.5;fill:#e6e6e6;fill-opacity:1;stroke:none;stroke-width:24.38596916;stroke-miterlimit:4;stroke-dasharray:none;stroke-opacity:1" />
      <text
         xml:space="preserve"
         style="font-style:normal;font-variant:normal;font-weight:normal;font-stretch:normal;font-size:37.55853653px;line-height:1.25;font-family:'Bebas Neue';-inkscape-font-specification:'Bebas Neue';text-align:center;letter-spacing:0px;word-spacing:0px;text-anchor:middle;fill:#000000;fill-opacity:1;stroke:none;stroke-width:2.01206446"
         x="-753.8197"
         y="-1134.426"
         id="text12469"
         transform="scale(1,-1)"><tspan
           sodipodi:role="line"
           id="tspan12467"
           x="-753.8197"
           y="-1134.426"
           style="font-style:normal;font-variant:normal;font-weight:normal;font-stretch:normal;font-family:Digitalt;-inkscape-font-specification:Digitalt;fill:#000000;stroke-width:2.01206446">floor</tspan></text>
      <rect
         rx="4.0446839"
         ry="2.0164082"
         transform="matrix(0.9999721,0.00747001,0.02696542,-0.99963637,0,0)"
         y="-1178.6425"
         x="-619.88831"
         height="4.0328164"
         width="46.330078"
         id="rect12471"
         style="opacity:1;fill:#ffffff;fill-opacity:1;stroke:none;stroke-width:2.33531046;stroke-miterlimit:4;stroke-dasharray:none;stroke-opacity:1" />
      <rect
         style="opacity:1;fill:#ffffff;fill-opacity:1;stroke:none;stroke-width:2.71123862;stroke-miterlimit:4;stroke-dasharray:none;stroke-opacity:1"
         id="rect12473"
         width="26.248585"
         height="3.9411135"
         x="-708.04626"
         y="-1172.0956"
         transform="matrix(0.9999967,-0.00256827,-0.0230192,-0.99973502,0,0)"
         ry="1.9705567"
         rx="2.2686081" />
    </g>
  </g>
</svg>
