<?xml version="1.0" encoding="UTF-8" standalone="no"?>
<!-- Created with Inkscape (http://www.inkscape.org/) -->

<svg
   xmlns:dc="http://purl.org/dc/elements/1.1/"
   xmlns:cc="http://creativecommons.org/ns#"
   xmlns:rdf="http://www.w3.org/1999/02/22-rdf-syntax-ns#"
   xmlns:svg="http://www.w3.org/2000/svg"
   xmlns="http://www.w3.org/2000/svg"
   xmlns:sodipodi="http://sodipodi.sourceforge.net/DTD/sodipodi-0.dtd"
   xmlns:inkscape="http://www.inkscape.org/namespaces/inkscape"
   width="218.71489mm"
   height="61.677502mm"
   viewBox="0 0 218.71488 61.6775"
   version="1.1"
   id="svg2283"
   inkscape:version="0.92.3 (2405546, 2018-03-11)"
   sodipodi:docname="math_less_or_equal.svg">
  <defs
     id="defs2277" />
  <sodipodi:namedview
     id="base"
     pagecolor="#ffffff"
     bordercolor="#666666"
     borderopacity="1.0"
     inkscape:pageopacity="0.0"
     inkscape:pageshadow="2"
     inkscape:zoom="0.35"
     inkscape:cx="-594.17232"
     inkscape:cy="420.01634"
     inkscape:document-units="mm"
     inkscape:current-layer="layer1"
     showgrid="false"
     fit-margin-top="0"
     fit-margin-left="0"
     fit-margin-right="0"
     fit-margin-bottom="0"
     inkscape:window-width="1920"
     inkscape:window-height="1001"
     inkscape:window-x="0"
     inkscape:window-y="0"
     inkscape:window-maximized="1" />
  <metadata
     id="metadata2280">
    <rdf:RDF>
      <cc:Work
         rdf:about="">
        <dc:format>image/svg+xml</dc:format>
        <dc:type
           rdf:resource="http://purl.org/dc/dcmitype/StillImage" />
        <dc:title />
      </cc:Work>
    </rdf:RDF>
  </metadata>
  <g
     inkscape:label="Layer 1"
     inkscape:groupmode="layer"
     id="layer1"
     transform="translate(-24.53845,-742.57097)">
    <g
       id="g38">
      <path
         id="path1587"
         d="m 115.40223,744.25924 -77.016676,0.1878 -0.0504,5.30496 c -0.04543,4.82651 -0.08618,5.37721 -0.452072,6.11359 -0.357427,0.71921 -0.492271,0.81622 -1.210485,0.86955 -0.849012,0.0631 -0.845963,0.0648 -4.451841,-2.24506 -1.031149,-0.66047 -1.819242,-1.01335 -2.408212,-1.07831 -0.787969,-0.0869 -0.956664,-0.0237 -1.684522,0.63713 -0.649765,0.5899 -0.869797,0.9823 -1.119323,1.99621 -0.494947,2.01115 -0.749078,4.50729 -0.769302,7.02327 h -0.0062 c 2.49e-4,0.0653 0.0062,0.12968 0.0062,0.19502 -3.73e-4,0.0654 0,0.13068 0,0.19601 h 0.0062 c 0.03236,2.5158 0.299183,5.00995 0.803961,7.01867 0.254505,1.01273 0.476714,1.40401 1.129341,1.99074 0.731095,0.65717 0.899416,0.72095 1.687199,0.62985 0.588721,-0.0678 1.374885,-0.42463 2.402798,-1.0902 3.594552,-2.32738 3.591566,-2.32583 4.44089,-2.2669 0.718462,0.0498 0.854053,0.14567 1.215026,0.8632 0.369499,0.73452 0.412435,1.28547 0.481257,6.11173 l 0.07567,25.83957 77.017541,-0.18867 125.95134,-0.0355 0.11119,-57.9076 z m -36.115154,10.71484 15.08012,0.16589 -0.110265,37.37212 -14.877761,0.0367 -12.61354,0.1878 -0.07567,-5.30409 c -0.06888,-4.82619 -0.111758,-5.3772 -0.481318,-6.11172 -0.360912,-0.71753 -0.496502,-0.81336 -1.215027,-0.8632 -0.849262,-0.0591 -0.846275,-0.0604 -4.44089,2.26696 -1.02785,0.66551 -1.814077,1.02144 -2.402736,1.0892 -0.787782,0.0911 -0.956166,0.028 -1.68726,-0.62891 -0.652627,-0.58673 -0.874837,-0.97895 -1.129342,-1.99167 -0.504778,-2.00866 -0.771416,-4.50194 -0.803961,-7.01774 h -0.0062 c -6.23e-4,-0.0653 0,-0.13061 0,-0.19601 0,-0.0653 -0.0062,-0.13061 -0.0062,-0.19595 h 0.0062 c 0.02053,-2.51593 0.274355,-5.01119 0.769301,-7.02234 0.249589,-1.01391 0.46962,-1.40625 1.119385,-1.99621 0.727796,-0.66078 0.896554,-0.72487 1.68446,-0.63807 0.589033,0.065 1.377126,0.41785 2.408212,1.07838 3.605878,2.30983 3.602829,2.30902 4.451842,2.24593 0.718213,-0.0535 0.853057,-0.15028 1.210484,-0.86955 0.365951,-0.73639 0.406834,-1.28796 0.452135,-6.11446 l 0.04916,-5.30409 z m 131.253624,0 15.08012,0.16589 -0.11033,37.37212 -14.87776,0.0367 -12.61354,0.1878 -0.0756,-5.30409 c -0.0689,-4.82619 -0.11269,-5.3772 -0.48225,-6.11172 -0.36091,-0.71753 -0.49563,-0.81336 -1.21409,-0.8632 -0.84933,-0.0591 -0.84634,-0.0604 -4.44089,2.26696 -1.02791,0.66551 -1.81408,1.02144 -2.4028,1.0892 -0.78778,0.0911 -0.9561,0.028 -1.6872,-0.62891 -0.65263,-0.58673 -0.87483,-0.97895 -1.12934,-1.99167 -0.50478,-2.00866 -0.77142,-4.50194 -0.80396,-7.01774 h -0.006 c -5e-4,-0.0653 0,-0.13061 0,-0.19601 0,-0.0653 0,-0.13061 0,-0.19595 h 0.006 c 0.0205,-2.51593 0.27435,-5.01119 0.7693,-7.02234 0.24953,-1.01391 0.46956,-1.40625 1.11932,-1.99621 0.72786,-0.66078 0.89656,-0.72487 1.68453,-0.63807 0.58897,0.065 1.37706,0.41785 2.40821,1.07838 3.60588,2.30983 3.60283,2.30902 4.45184,2.24593 0.71821,-0.0535 0.85306,-0.15028 1.21048,-0.86955 0.36589,-0.73639 0.40684,-1.28796 0.45214,-6.11446 l 0.0492,-5.30409 z"
         style="fill:#2974af;fill-opacity:1;stroke:#225d8c;stroke-width:3.37654328;stroke-miterlimit:4;stroke-dasharray:none;stroke-opacity:1"
         inkscape:connector-curvature="0"
         sodipodi:nodetypes="ccccccccccccccccccscccccccccccccccscccccccccccccccccccccccccsccccccccccccccccc" />
      <path
         sodipodi:nodetypes="cccccccccccccccccccccccccccccccccccc"
         inkscape:connector-curvature="0"
         id="path1589"
         d="m 239.22064,745.87538 -198.919953,0.46669 c 2.254513,1.49667 4.380157,2.94274 6.393357,4.34058 2.013201,1.39791 3.913213,2.74797 5.715218,4.0526 1.801943,1.3047 3.50644,2.56415 5.127243,3.78098 1.620865,1.21684 3.157974,2.3903 4.627755,3.52486 1.46978,1.13451 2.015565,1.44645 2.774661,2.20312 l 0.227001,-10.79417 30.608641,0.0875 0.216049,31.39897 c 1.464305,0.63968 3.29705,1.32405 4.911258,1.93604 18.49328,8.68471 104.20307,13.30176 111.5366,13.67369 h 27.17046 z m -11.81891,7.48903 -0.0971,40.92324 -30.89836,0.16496 0.0249,-7.02035 c -0.0689,-4.82625 -0.11269,-4.44381 -0.48219,-5.17833 -2.38009,-0.092 -3.2683,1.38727 -4.72166,2.33709 -1.02785,0.66557 -1.81407,1.0215 -2.40273,1.08927 -0.78778,0.0911 -0.95617,0.028 -1.68726,-0.62892 -0.65263,-0.58673 -1.80823,-1.91233 -2.06273,-2.92506 -0.50478,-2.00872 -0.77142,-5.43533 -0.80397,-7.95113 h -0.006 c -5e-4,-0.0653 0,-0.13061 0,-0.19601 0,-0.0653 -0.006,-0.13061 -0.006,-0.19595 h 0.006 c 0.0205,-2.51593 0.27436,-5.94458 0.7693,-7.95573 0.24959,-1.01391 1.40301,-2.3397 2.05272,-2.9296 0.72786,-0.66078 0.89661,-0.72488 1.68452,-0.63807 0.58903,0.065 1.37713,0.41785 2.40821,1.07831 1.41664,0.94329 4.25465,3.20826 4.72894,2.30984 0.36595,-0.73639 0.40683,-0.35463 0.45213,-5.18107 l -0.0112,-7.13335 z"
         style="fill:#37abc8;fill-opacity:1;stroke:none;stroke-width:3.37654328;stroke-miterlimit:4;stroke-dasharray:none;stroke-opacity:1" />
      <rect
         rx="2.5168488"
         ry="1.254732"
         transform="matrix(0.9999721,-0.00747002,0.02696542,0.99963637,0,0)"
         y="749.83655"
         x="187.75856"
         height="2.509464"
         width="28.829397"
         id="rect1591"
         style="opacity:1;fill:#ffffff;fill-opacity:1;stroke:none;stroke-width:1.45317245;stroke-miterlimit:4;stroke-dasharray:none;stroke-opacity:1" />
      <rect
         style="opacity:1;fill:#ffffff;fill-opacity:1;stroke:none;stroke-width:1.68709779;stroke-miterlimit:4;stroke-dasharray:none;stroke-opacity:1"
         id="rect1593"
         width="16.333469"
         height="2.4524009"
         x="206.88475"
         y="747.80859"
         transform="matrix(0.9999967,0.00256826,-0.0230192,0.99973502,0,0)"
         ry="1.2262005"
         rx="1.4116662" />
      <rect
         style="opacity:0.5;fill:#e6e6e6;fill-opacity:1;stroke:none;stroke-width:11.09699249;stroke-miterlimit:4;stroke-dasharray:none;stroke-opacity:1"
         id="rect1595"
         width="78.434319"
         height="24.769279"
         x="100.90182"
         y="760.82764"
         rx="7.9268942"
         ry="7.5868263" />
      <g
         transform="matrix(0.62226092,0,0,-0.62226092,599.96775,1918.5996)"
         id="g11931">
        <text
           transform="scale(1,-1)"
           id="text1599"
           y="-1833.2245"
           x="-738.79346"
           style="font-style:normal;font-variant:normal;font-weight:normal;font-stretch:normal;font-size:37.55853653px;line-height:1.25;font-family:'Bebas Neue';-inkscape-font-specification:'Bebas Neue';text-align:center;letter-spacing:0px;word-spacing:0px;text-anchor:middle;fill:#333333;fill-opacity:1;stroke:none;stroke-width:2.01206446"
           xml:space="preserve"><tspan
             style="font-style:normal;font-variant:normal;font-weight:normal;font-stretch:normal;font-size:48px;font-family:Digitalt;-inkscape-font-specification:Digitalt;fill:#333333;stroke-width:2.01206446"
             y="-1833.2245"
             x="-738.79346"
             id="tspan1597"
             sodipodi:role="line">&lt;</tspan></text>
        <text
           xml:space="preserve"
           style="font-style:normal;font-variant:normal;font-weight:normal;font-stretch:normal;font-size:123.69757843px;line-height:1.25;font-family:'Bebas Neue';-inkscape-font-specification:'Bebas Neue';text-align:center;letter-spacing:0px;word-spacing:0px;text-anchor:middle;fill:#333333;fill-opacity:1;stroke:none;stroke-width:6.62665558"
           x="-739.01544"
           y="-1831.738"
           id="text11917"
           transform="scale(1,-1)"><tspan
             sodipodi:role="line"
             id="tspan11915"
             x="-739.01544"
             y="-1831.738"
             style="font-style:normal;font-variant:normal;font-weight:normal;font-stretch:normal;font-size:48px;font-family:Digitalt;-inkscape-font-specification:Digitalt;fill:#333333;fill-opacity:1;stroke-width:6.62665558">_</tspan></text>
      </g>
    </g>
  </g>
</svg>
