<?xml version="1.0" encoding="UTF-8" standalone="no"?>
<!-- Created with Inkscape (http://www.inkscape.org/) -->

<svg
   xmlns:dc="http://purl.org/dc/elements/1.1/"
   xmlns:cc="http://creativecommons.org/ns#"
   xmlns:rdf="http://www.w3.org/1999/02/22-rdf-syntax-ns#"
   xmlns:svg="http://www.w3.org/2000/svg"
   xmlns="http://www.w3.org/2000/svg"
   xmlns:sodipodi="http://sodipodi.sourceforge.net/DTD/sodipodi-0.dtd"
   xmlns:inkscape="http://www.inkscape.org/namespaces/inkscape"
   width="218.71497mm"
   height="61.677502mm"
   viewBox="0 0 218.71496 61.6775"
   version="1.1"
   id="svg2283"
   inkscape:version="0.92.3 (2405546, 2018-03-11)"
   sodipodi:docname="math_add.svg">
  <defs
     id="defs2277" />
  <sodipodi:namedview
     id="base"
     pagecolor="#ffffff"
     bordercolor="#666666"
     borderopacity="1.0"
     inkscape:pageopacity="0.0"
     inkscape:pageshadow="2"
     inkscape:zoom="1.3788184"
     inkscape:cx="412.85714"
     inkscape:cy="14.397534"
     inkscape:document-units="mm"
     inkscape:current-layer="layer1"
     showgrid="false"
     fit-margin-top="0"
     fit-margin-left="0"
     fit-margin-right="0"
     fit-margin-bottom="0"
     inkscape:window-width="1920"
     inkscape:window-height="1001"
     inkscape:window-x="0"
     inkscape:window-y="0"
     inkscape:window-maximized="1" />
  <metadata
     id="metadata2280">
    <rdf:RDF>
      <cc:Work
         rdf:about="">
        <dc:format>image/svg+xml</dc:format>
        <dc:type
           rdf:resource="http://purl.org/dc/dcmitype/StillImage" />
        <dc:title />
      </cc:Work>
    </rdf:RDF>
  </metadata>
  <g
     inkscape:label="Layer 1"
     inkscape:groupmode="layer"
     id="layer1"
     transform="translate(-142.76685,-792.42279)">
    <g
       id="g57">
      <path
         sodipodi:nodetypes="ccccccccccccccccccscccccccccccccccscccccccccccccccccccccccccsccccccccccccccccc"
         inkscape:connector-curvature="0"
         style="fill:#2974af;fill-opacity:1;stroke:#225d8c;stroke-width:3.37654328;stroke-miterlimit:4;stroke-dasharray:none;stroke-opacity:1"
         d="m 233.63063,794.11106 -77.01661,0.18774 -0.0504,5.30502 c -0.0454,4.82651 -0.0862,5.37721 -0.45214,6.11353 -0.35742,0.71927 -0.49227,0.81628 -1.21048,0.86961 -0.84901,0.0631 -0.8459,0.0648 -4.45184,-2.24506 -1.03109,-0.66046 -1.81918,-1.01341 -2.40822,-1.07831 -0.7879,-0.0869 -0.95666,-0.0236 -1.68446,0.63713 -0.64976,0.5899 -0.86979,0.98224 -1.11938,1.99621 -0.49495,2.01115 -0.74902,4.50729 -0.7693,7.02328 h -0.006 c 2.4e-4,0.0653 0.006,0.12968 0.006,0.19501 -3.8e-4,0.0653 0,0.13068 0,0.19602 h 0.006 c 0.0324,2.51573 0.29918,5.00994 0.80396,7.01866 0.25451,1.01267 0.47672,1.40401 1.12934,1.99074 0.7311,0.65717 0.89948,0.72089 1.68726,0.62985 0.58866,-0.0678 1.37489,-0.42463 2.40274,-1.0902 3.59461,-2.32738 3.59163,-2.32582 4.44089,-2.2669 0.71852,0.0498 0.85411,0.14568 1.21509,0.86321 0.3695,0.73451 0.41237,1.28546 0.48125,6.11166 l 0.0757,25.83963 77.01755,-0.18867 125.95133,-0.0355 0.1112,-57.9076 z m -15.58048,10.71484 15.08006,0.16589 -0.11027,37.37212 -14.87776,0.0367 -12.61354,0.18779 -0.0757,-5.30409 c -0.0689,-4.82625 -0.11176,-5.3772 -0.48126,-6.11172 -0.36097,-0.71753 -0.49656,-0.81335 -1.21509,-0.8632 -0.84926,-0.0591 -0.84627,-0.0604 -4.44089,2.2669 -1.02785,0.66557 -1.81401,1.0215 -2.40273,1.08927 -0.78779,0.0911 -0.95617,0.028 -1.6872,-0.62892 -0.65263,-0.58673 -0.8749,-0.97894 -1.12941,-1.99167 -0.50471,-2.00872 -0.77141,-4.50194 -0.80396,-7.01774 h -0.006 c -5.6e-4,-0.0653 0,-0.13061 0,-0.19601 0,-0.0653 0,-0.13061 -0.006,-0.19595 h 0.006 c 0.0205,-2.51592 0.27442,-5.01119 0.76936,-7.02234 0.24953,-1.01391 0.46956,-1.40631 1.11933,-1.99621 0.72779,-0.66078 0.89655,-0.72487 1.68446,-0.63807 0.58903,0.065 1.37712,0.41785 2.40821,1.07832 3.60594,2.30989 3.60289,2.30908 4.45184,2.24599 0.71828,-0.0535 0.85306,-0.15034 1.21048,-0.86955 0.36596,-0.73638 0.40684,-1.28802 0.45214,-6.11446 l 0.0492,-5.30409 z m 110.71895,0 15.08012,0.16589 -0.11027,37.37212 -14.87776,0.0367 -12.61354,0.18779 -0.0757,-5.30409 c -0.0689,-4.82625 -0.11269,-5.3772 -0.48219,-6.11172 -0.36098,-0.71753 -0.49563,-0.81335 -1.21416,-0.8632 -0.84926,-0.0591 -0.84627,-0.0604 -4.44089,2.2669 -1.02785,0.66557 -1.81408,1.0215 -2.40273,1.08927 -0.78779,0.0911 -0.95617,0.028 -1.68726,-0.62892 -0.65263,-0.58673 -0.87484,-0.97894 -1.12935,-1.99167 -0.50477,-2.00872 -0.77141,-4.50194 -0.80396,-7.01774 h -0.006 c -4.4e-4,-0.0653 0,-0.13061 0,-0.19601 0,-0.0653 0,-0.13061 -0.006,-0.19595 h 0.006 c 0.0205,-2.51592 0.27436,-5.01119 0.7693,-7.02234 0.24959,-1.01391 0.46962,-1.40631 1.11939,-1.99621 0.72779,-0.66078 0.89655,-0.72487 1.68446,-0.63807 0.58903,0.065 1.37712,0.41785 2.40821,1.07832 3.60594,2.30989 3.60289,2.30908 4.45184,2.24599 0.71821,-0.0535 0.85306,-0.15034 1.21048,-0.86955 0.36596,-0.73638 0.40684,-1.28802 0.45214,-6.11446 l 0.0492,-5.30409 z"
         id="path12688" />
      <path
         style="fill:#37abc8;fill-opacity:1;stroke:none;stroke-width:3.37654328;stroke-miterlimit:4;stroke-dasharray:none;stroke-opacity:1"
         d="m 357.44904,795.7272 -199.02044,0.23223 c 26.79779,12.13048 28.60533,11.46907 40.55361,16.90483 1.46978,1.13451 3.75964,2.11633 4.5188,2.873 l 0.42793,-12.4354 30.60864,0.0875 0.21605,31.39897 c 1.46436,0.63969 3.29705,1.32405 4.91125,1.93604 18.49329,8.68471 83.66846,13.30176 91.00199,13.67369 l 27.17046,0.006 z m -11.81885,7.48903 -0.0971,40.92324 -30.89837,0.1649 0.0249,-7.02035 c -0.0689,-4.82619 -0.11269,-4.44375 -0.48219,-5.17826 -2.38008,-0.092 -3.26824,1.38726 -4.72165,2.33708 -1.02785,0.66557 -1.81402,1.02151 -2.40274,1.08927 -0.78778,0.0911 -0.95616,0.028 -1.6872,-0.62892 -0.65262,-0.58673 -1.80829,-1.91233 -2.06279,-2.92506 -0.50472,-2.00872 -0.77142,-5.43533 -0.80396,-7.95113 h -0.006 c -4.4e-4,-0.0653 0,-0.13067 0,-0.19601 0,-0.0653 -0.006,-0.13061 -0.006,-0.19595 h 0.006 c 0.0205,-2.51592 0.27435,-5.94458 0.76936,-7.95573 0.24953,-1.01391 1.40295,-2.3397 2.05271,-2.9296 0.7278,-0.66078 0.89656,-0.72487 1.68446,-0.63807 0.58904,0.065 1.37713,0.41785 2.40822,1.07832 1.4167,0.94328 4.2547,3.20825 4.72893,2.30977 0.36595,-0.73632 0.40683,-0.35457 0.45213,-5.18101 l -0.0112,-7.13335 z"
         id="path12690"
         inkscape:connector-curvature="0"
         sodipodi:nodetypes="ccccccccccccccccccccccccccccccccc" />
      <rect
         style="opacity:1;fill:#ffffff;fill-opacity:1;stroke:none;stroke-width:1.45317245;stroke-miterlimit:4;stroke-dasharray:none;stroke-opacity:1"
         id="rect12692"
         width="28.829397"
         height="2.509464"
         x="304.62192"
         y="800.57977"
         transform="matrix(0.9999721,-0.00747002,0.02696542,0.99963637,0,0)"
         ry="1.254732"
         rx="2.5168488" />
      <rect
         rx="1.4116662"
         ry="1.2262005"
         transform="matrix(0.9999967,0.00256826,-0.0230192,0.99973502,0,0)"
         y="797.367"
         x="326.25446"
         height="2.4524009"
         width="16.333469"
         id="rect12694"
         style="opacity:1;fill:#ffffff;fill-opacity:1;stroke:none;stroke-width:1.68709779;stroke-miterlimit:4;stroke-dasharray:none;stroke-opacity:1" />
      <text
         xml:space="preserve"
         style="font-style:normal;font-variant:normal;font-weight:normal;font-stretch:normal;font-size:8.71165276px;line-height:1.25;font-family:'Bebas Neue';-inkscape-font-specification:'Bebas Neue';text-align:center;letter-spacing:0px;word-spacing:0px;text-anchor:middle;fill:#000000;fill-opacity:1;stroke:none;stroke-width:0.4666957"
         x="269.37695"
         y="833.71558"
         id="text12698"><tspan
           sodipodi:role="line"
           id="tspan12696"
           x="269.37695"
           y="833.71558"
           style="font-style:normal;font-variant:normal;font-weight:normal;font-stretch:normal;font-size:29.86852455px;font-family:Digitalt;-inkscape-font-specification:Digitalt;fill:#ffffff;stroke-width:0.4666957"
           dx="0 -2.1565869 -2.1565869">---</tspan></text>
      <g
         transform="matrix(0.62226092,0,0,-0.62226092,1107.2404,879.2985)"
         id="g12910">
        <rect
           style="opacity:1;fill:#0032f5;fill-opacity:1;stroke:#ffffff;stroke-width:2;stroke-miterlimit:4;stroke-dasharray:none;stroke-opacity:1"
           id="rect12805"
           width="37.757042"
           height="37.757042"
           x="-1518.5787"
           y="-125.71913"
           transform="scale(1,-1)"
           rx="11.68515"
           ry="11.329442" />
        <g
           id="g12873"
           transform="matrix(0.11942495,0.11749836,0.11749836,-0.11942495,-1518.7832,107.0828)"
           style="fill:#ffffff">
          <title
             id="title12870">Layer 1</title>
          <path
             d="M 80.476791,3.84649 C 66.996879,3.25614 49.271,8.71378 40.968238,14.63436 38.03176,18.11943 47.28662,32.97744 45.413699,34.58947 42.462371,35.942322 33.382819,45.597939 32.590228,47.735661 31.797599,49.873391 16.935759,40.913792 13.049699,42.36591 5.939909,53.431649 1.089979,71.845597 1.997059,81.937539 c 1.52907,4.278915 19.15685,3.980179 19.60162,6.397743 -0.330481,3.203857 3.432669,15.867478 4.885139,17.633048 1.45245,1.76557 -13.55446,9.76252 -13.92264,13.33971 6.340731,11.76687 19.97086,24.24561 29.298611,28.40882 4.515789,0.77728 12.895691,-14.58812 15.2416,-13.78716 2.65818,1.8555 15.638058,4.81479 17.904041,4.42639 2.26593,-0.38838 1.521027,16.4871 5.532372,19.1811 14.034286,0.58659 30.358768,-4.4645 38.702528,-10.32827 2.96069,-3.46496 -6.19522,-18.39219 -4.31113,-19.9914 2.96069,-1.33269 12.11372,-10.92926 12.92121,-13.06155 0.80746,-2.13227 15.34598,6.66174 19.6871,5.07951 7.51844,-11.24549 11.77134,-29.131788 10.83276,-39.220892 -1.54244,-4.2742 -19.17371,-3.921089 -19.62605,-6.337265 0.32046,-3.20488 -3.47602,-15.859871 -4.93398,-17.620972 -1.45795,-1.76112 12.93781,-9.36475 13.65398,-13.36388 C 141.27357,31.155051 128.28973,18.168011 118.98387,13.95708 114.47215,13.15669 106.02295,28.484659 103.68115,27.6717 101.03273,25.80259 88.057341,22.77175 85.789359,23.14853 83.521377,23.525321 83.91651,6.653721 80.47679,3.846491 Z m 1.355637,57.894042 c 10.671585,0 19.332872,8.589401 19.332872,19.169006 0,10.579605 -8.661287,19.169022 -19.332872,19.169022 -10.671646,0 -19.332939,-8.589417 -19.332939,-19.169022 0,-10.579605 8.661293,-19.169006 19.332939,-19.169006 z"
             id="path2813"
             stroke-miterlimit="4"
             inkscape:connector-curvature="0"
             style="fill:#ffffff;fill-rule:evenodd;stroke-width:1.25;stroke-linejoin:round;stroke-miterlimit:4" />
        </g>
      </g>
      <text
         transform="rotate(-90)"
         id="text42"
         y="278.27335"
         x="-825.40259"
         style="font-style:normal;font-variant:normal;font-weight:normal;font-stretch:normal;font-size:8.71165276px;line-height:1.25;font-family:'Bebas Neue';-inkscape-font-specification:'Bebas Neue';text-align:center;letter-spacing:0px;word-spacing:0px;text-anchor:middle;fill:#000000;fill-opacity:1;stroke:none;stroke-width:0.4666957"
         xml:space="preserve"><tspan
           dx="0 -2.1565869 -2.1565869"
           style="font-style:normal;font-variant:normal;font-weight:normal;font-stretch:normal;font-size:29.86852455px;font-family:Digitalt;-inkscape-font-specification:Digitalt;fill:#ffffff;stroke-width:0.4666957"
           y="278.27335"
           x="-825.40259"
           id="tspan40"
           sodipodi:role="line">---</tspan></text>
    </g>
  </g>
</svg>
