<?xml version="1.0" encoding="UTF-8" standalone="no"?>
<!-- Created with Inkscape (http://www.inkscape.org/) -->

<svg
   xmlns:dc="http://purl.org/dc/elements/1.1/"
   xmlns:cc="http://creativecommons.org/ns#"
   xmlns:rdf="http://www.w3.org/1999/02/22-rdf-syntax-ns#"
   xmlns:svg="http://www.w3.org/2000/svg"
   xmlns="http://www.w3.org/2000/svg"
   xmlns:sodipodi="http://sodipodi.sourceforge.net/DTD/sodipodi-0.dtd"
   xmlns:inkscape="http://www.inkscape.org/namespaces/inkscape"
   width="206.58578mm"
   height="47.51038mm"
   viewBox="0 0 206.58578 47.510378"
   version="1.1"
   id="svg2283"
   inkscape:version="0.92.3 (2405546, 2018-03-11)"
   sodipodi:docname="math_random_set_seed_to.svg">
  <defs
     id="defs2277" />
  <sodipodi:namedview
     id="base"
     pagecolor="#ffffff"
     bordercolor="#666666"
     borderopacity="1.0"
     inkscape:pageopacity="0.0"
     inkscape:pageshadow="2"
     inkscape:zoom="0.35"
     inkscape:cx="258.13684"
     inkscape:cy="954.46859"
     inkscape:document-units="mm"
     inkscape:current-layer="layer1"
     showgrid="false"
     fit-margin-top="0"
     fit-margin-left="0"
     fit-margin-right="0"
     fit-margin-bottom="0"
     inkscape:window-width="1920"
     inkscape:window-height="1001"
     inkscape:window-x="0"
     inkscape:window-y="0"
     inkscape:window-maximized="1" />
  <metadata
     id="metadata2280">
    <rdf:RDF>
      <cc:Work
         rdf:about="">
        <dc:format>image/svg+xml</dc:format>
        <dc:type
           rdf:resource="http://purl.org/dc/dcmitype/StillImage" />
        <dc:title></dc:title>
      </cc:Work>
    </rdf:RDF>
  </metadata>
  <g
     inkscape:label="Layer 1"
     inkscape:groupmode="layer"
     id="layer1"
     transform="translate(62.251085,-898.14525)">
    <g
       id="g1759"
       transform="matrix(0.62226092,0,0,-0.62226092,1150.5245,1191.15)"
       inkscape:export-filename="/home/peter/allblocks.png"
       inkscape:export-xdpi="42.094723"
       inkscape:export-ydpi="42.094723">
      <path
         style="fill:#2974af;fill-opacity:1;stroke:#225d8c;stroke-width:5.42624998;stroke-miterlimit:4;stroke-dasharray:none;stroke-opacity:1"
         d="m -1620.0246,407.78635 0.3166,17.11741 c -0.099,0.52471 -0.2323,0.86387 -0.4161,1.23092 -0.5777,1.15418 -0.7946,1.30901 -1.9491,1.39131 -1.3647,0.0973 -1.3601,0.0999 -7.1441,-3.62896 -1.6539,-1.06629 -2.9188,-1.63711 -3.8651,-1.74422 -1.2658,-0.14334 -1.5367,-0.0411 -2.7095,1.01733 -1.047,0.94494 -1.4027,1.5746 -1.8086,3.20288 -0.8048,3.22966 -1.2251,7.23819 -1.2695,11.28128 l -0.01,-3e-4 c -2e-4,0.10492 0,0.20965 0,0.3146 -10e-4,0.10491 -0.01,0.20964 -0.01,0.31461 l 0.01,3e-4 c 0.041,4.04313 0.4569,8.05271 1.2587,11.28315 0.4042,1.62865 0.7594,2.25862 1.8055,3.20459 1.1717,1.05958 1.4426,1.16141 2.7085,1.01932 0.9464,-0.10619 2.2118,-0.6758 3.8668,-1.7405 5.7875,-3.72339 5.783,-3.7207 7.1475,-3.62211 1.1544,0.0835 1.3712,0.23844 1.9478,1.39319 0.1835,0.36719 0.3162,0.70651 0.4149,1.23133 l -0.01,16.79249 -24.2339,0.31311 c -2.2562,-10e-4 -5.2097,-0.002 -8.7733,-0.003 -3.5637,-10e-4 -7.7374,-0.002 -12.434,-0.003 -4.6967,-0.001 -9.9163,-0.002 -15.5717,-0.003 -5.6554,-0.001 -11.7466,-0.002 -18.1865,-0.003 -6.4398,-10e-4 -13.2282,-0.002 -20.2782,-0.003 -7.0499,-10e-4 -14.3613,-0.002 -21.8471,-0.003 -7.4857,-0.001 -15.1457,-0.002 -22.8929,-0.003 -7.7472,-0.001 -15.5816,-0.002 -23.416,-0.003 -7.8343,-10e-4 -15.6687,-0.002 -23.4159,-0.003 -7.7472,-10e-4 -15.4072,-0.002 -22.893,-0.003 -7.4857,-0.001 -14.7971,-0.002 -21.8471,-0.003 -7.0499,-0.001 -13.8384,-0.002 -20.2782,-0.003 -6.4398,-10e-4 -12.531,-0.002 -18.1864,-0.003 -5.6554,-10e-4 -10.875,-10.502 -15.5717,-10.503 -4.6967,-0.001 -8.8704,10.498 -12.434,10.497 -3.5636,-0.001 -6.5171,-0.002 -8.7734,-0.003 0,0 -16.3591,0.6504 -15.4641,-15.10324 l 0.01,-15.0958 0.01,-15.09581 c -0.8803,-14.43796 15.4785,-15.08836 15.4785,-15.08836 2.2563,10e-4 5.2098,0.002 8.7734,0.003 3.5636,10e-4 7.7373,-10.49783 12.434,-10.49675 4.6966,0.001 9.9163,10.50217 15.5717,10.50325 5.6554,10e-4 11.7466,0.002 18.1864,0.003 6.4398,10e-4 13.2283,0.002 20.2782,0.003 7.05,0.001 14.3614,0.002 21.8471,0.003 7.4857,0.001 15.1458,0.002 22.893,0.003 7.7472,10e-4 15.5816,0.002 23.4159,0.003 7.8344,10e-4 15.6687,0.002 23.4159,0.003 7.7473,0.001 15.4073,0.002 22.893,0.003 7.4858,0.001 14.7972,0.002 21.8471,0.003 7.0499,10e-4 13.8384,0.002 20.2782,0.003 6.4399,10e-4 12.5311,0.002 18.1865,0.003 5.6554,0.001 10.875,0.002 15.5717,0.003 4.6966,0.001 8.8703,0.002 12.434,0.003 3.5636,10e-4 6.5171,0.002 8.7733,0.003 z"
         id="path1656"
         inkscape:connector-curvature="0"
         sodipodi:nodetypes="cccccccccccccccsccccccssssssssssssssscccccssssssssssssssscc" />
      <path
         sodipodi:nodetypes="ccccccccccccccccscccccccc"
         inkscape:connector-curvature="0"
         id="path1658"
         d="m -1621.5965,410.37653 0.3246,0.32492 0.3128,12.14866 c -0.099,0.52471 -0.2323,0.86387 -0.4161,1.23092 -0.5777,1.15418 -0.7946,1.30901 -1.9491,1.3913 -1.3647,0.0973 -1.9846,-0.18775 -7.7686,-3.91669 -1.6539,-1.06629 -2.9188,-1.63711 -3.8651,-1.74422 -1.5058,0.24291 -1.4616,0.335 -2.6344,1.39349 -1.047,0.94493 -1.4778,1.19847 -1.8836,2.82672 -0.8049,3.22965 -1.7271,10.79228 -1.7715,14.83538 l -0.01,-3.1e-4 c -2e-4,0.10492 0,0.20965 0.01,0.31461 0,0.1049 -0.01,0.20963 -0.01,0.3146 l 0.01,3.1e-4 c 0.041,4.04313 0.9253,8.76335 1.7271,11.99378 0.4042,1.62865 0.7594,2.25864 1.8055,3.2046 1.1717,1.05958 1.4425,1.16141 2.7085,1.01932 0.9464,-0.10621 2.2118,-0.6758 3.8668,-1.7405 5.7875,-3.7234 5.8068,-3.93683 7.1713,-3.83822 1.1545,0.0835 1.3712,0.23842 1.9479,1.39318 0.1834,0.36718 0.3161,0.7065 0.4148,1.23132 l -0.3814,12.75757 -273.051,-0.47017 c 57.8937,-38.59595 140.8185,-45.52529 245.0075,-54.55493 z"
         style="fill:#37abc8;fill-opacity:1;stroke:none;stroke-width:5.42624998;stroke-miterlimit:4;stroke-dasharray:none;stroke-opacity:1" />
      <rect
         style="opacity:1;fill:#ffffff;fill-opacity:1;stroke:none;stroke-width:2.33531046;stroke-miterlimit:4;stroke-dasharray:none;stroke-opacity:1"
         id="rect1670"
         width="46.330078"
         height="4.0328164"
         x="-1658.1423"
         y="-475.96713"
         transform="matrix(0.9999721,0.00747001,0.02696542,-0.99963637,0,0)"
         ry="2.0164082"
         rx="4.0446839" />
      <rect
         rx="2.2686081"
         ry="1.9705567"
         transform="matrix(0.9999967,-0.00256827,-0.0230192,-0.99973502,0,0)"
         y="-459.15643"
         x="-1710.9287"
         height="3.9411135"
         width="26.248585"
         id="rect1672"
         style="opacity:1;fill:#ffffff;fill-opacity:1;stroke:none;stroke-width:2.71123862;stroke-miterlimit:4;stroke-dasharray:none;stroke-opacity:1" />
      <text
         transform="scale(1,-1)"
         id="text1692"
         y="-422.55014"
         x="-1789.7664"
         style="font-style:normal;font-variant:normal;font-weight:normal;font-stretch:normal;font-size:37.55853653px;line-height:1.25;font-family:'Bebas Neue';-inkscape-font-specification:'Bebas Neue';text-align:center;letter-spacing:0px;word-spacing:0px;text-anchor:middle;fill:#ffffff;fill-opacity:1;stroke:none;stroke-width:2.01206446"
         xml:space="preserve"><tspan
           style="font-style:normal;font-variant:normal;font-weight:normal;font-stretch:normal;font-family:PAGRevolucionW00-Regular;-inkscape-font-specification:PAGRevolucionW00-Regular;fill:#ffffff;stroke-width:2.01206446"
           y="-422.55014"
           x="-1789.7664"
           id="tspan1690"
           sodipodi:role="line">random set seed to</tspan></text>
    </g>
  </g>
</svg>
