<?xml version="1.0" encoding="UTF-8" standalone="no"?>
<!-- Created with Inkscape (http://www.inkscape.org/) -->

<svg
   xmlns:dc="http://purl.org/dc/elements/1.1/"
   xmlns:cc="http://creativecommons.org/ns#"
   xmlns:rdf="http://www.w3.org/1999/02/22-rdf-syntax-ns#"
   xmlns:svg="http://www.w3.org/2000/svg"
   xmlns="http://www.w3.org/2000/svg"
   xmlns:sodipodi="http://sodipodi.sourceforge.net/DTD/sodipodi-0.dtd"
   xmlns:inkscape="http://www.inkscape.org/namespaces/inkscape"
   width="176.7083mm"
   height="41.140644mm"
   viewBox="0 0 176.70829 41.140643"
   version="1.1"
   id="svg2283"
   inkscape:version="0.92.3 (2405546, 2018-03-11)"
   sodipodi:docname="math_random_fraction.svg">
  <defs
     id="defs2277" />
  <sodipodi:namedview
     id="base"
     pagecolor="#ffffff"
     bordercolor="#666666"
     borderopacity="1.0"
     inkscape:pageopacity="0.0"
     inkscape:pageshadow="2"
     inkscape:zoom="0.35"
     inkscape:cx="333.93675"
     inkscape:cy="77.746088"
     inkscape:document-units="mm"
     inkscape:current-layer="layer1"
     showgrid="false"
     fit-margin-top="0"
     fit-margin-left="0"
     fit-margin-right="0"
     fit-margin-bottom="0"
     inkscape:window-width="1920"
     inkscape:window-height="1001"
     inkscape:window-x="0"
     inkscape:window-y="0"
     inkscape:window-maximized="1" />
  <metadata
     id="metadata2280">
    <rdf:RDF>
      <cc:Work
         rdf:about="">
        <dc:format>image/svg+xml</dc:format>
        <dc:type
           rdf:resource="http://purl.org/dc/dcmitype/StillImage" />
        <dc:title></dc:title>
      </cc:Work>
    </rdf:RDF>
  </metadata>
  <g
     inkscape:label="Layer 1"
     inkscape:groupmode="layer"
     id="layer1"
     transform="translate(82.30648,-672.54882)">
    <g
       id="g1767"
       transform="matrix(0.62226092,0,0,-0.62226092,1205.5421,908.92206)"
       inkscape:export-filename="/home/peter/allblocks.png"
       inkscape:export-xdpi="42.094723"
       inkscape:export-ydpi="42.094723">
      <path
         style="fill:#2974af;fill-opacity:1;stroke:#225d8c;stroke-width:5.42624998;stroke-miterlimit:4;stroke-dasharray:none;stroke-opacity:1"
         d="m -1788.5489,316.82408 0.1777,60.05909 -24.2344,0.26562 -234.7704,-0.30203 -0.08,-8.52492 c -0.073,-7.75636 -0.1383,-8.64216 -0.7264,-9.82549 -0.5744,-1.15587 -0.7908,-1.31126 -1.9451,-1.39699 -1.3643,-0.10137 -1.3597,-0.10394 -7.1546,3.60808 -1.657,1.06145 -2.9235,1.62858 -3.8701,1.73294 -1.2662,0.13957 -1.5369,0.0373 -2.7065,-1.02464 -1.0442,-0.94802 -1.3983,-1.57866 -1.7993,-3.20813 -0.7954,-3.23198 -1.204,-7.24237 -1.2365,-11.28557 l -0.01,-5e-5 c 4e-4,-0.10499 0.01,-0.2096 0.01,-0.31459 -6e-4,-0.10503 0,-0.20964 0,-0.31463 l 0.01,5e-5 c 0.052,-4.04299 0.4804,-8.05069 1.2916,-11.27875 0.409,-1.62749 0.766,-2.25641 1.8148,-3.19932 1.1749,-1.0561 1.4455,-1.15841 2.7115,-1.01205 0.9461,0.10896 2.2098,0.68227 3.8617,1.7518 5.7766,3.74024 5.772,3.73763 7.1369,3.64295 1.1546,-0.0801 1.3718,-0.23444 1.9519,-1.38749 0.5938,-1.18043 0.6636,-2.06591 0.7743,-9.82183 l 0.1216,-8.52441 234.7704,0.30204 z"
         id="path1711"
         inkscape:connector-curvature="0"
         sodipodi:nodetypes="cccccccccccccccccccscccccc" />
      <path
         sodipodi:nodetypes="ccccc"
         inkscape:connector-curvature="0"
         id="path1713"
         d="m -1790.1259,319.41119 -0.4993,55.13986 -254.0122,-0.42436 c 65.4779,-33.57285 169.9246,-48.29406 226.0765,-54.65559 z"
         style="fill:#37abc8;fill-opacity:1;stroke:none;stroke-width:5.42624998;stroke-miterlimit:4;stroke-dasharray:none;stroke-opacity:1" />
      <rect
         rx="4.0446839"
         ry="2.0164082"
         transform="matrix(0.9999721,0.00747001,0.02696542,-0.99963637,0,0)"
         y="-386.51251"
         x="-1829.5825"
         height="4.0328164"
         width="46.330078"
         id="rect1731"
         style="opacity:1;fill:#ffffff;fill-opacity:1;stroke:none;stroke-width:2.33531046;stroke-miterlimit:4;stroke-dasharray:none;stroke-opacity:1" />
      <rect
         style="opacity:1;fill:#ffffff;fill-opacity:1;stroke:none;stroke-width:2.71123862;stroke-miterlimit:4;stroke-dasharray:none;stroke-opacity:1"
         id="rect1733"
         width="26.248585"
         height="3.9411135"
         x="-1877.8541"
         y="-368.00082"
         transform="matrix(0.9999967,-0.00256827,-0.0230192,-0.99973502,0,0)"
         ry="1.9705567"
         rx="2.2686081" />
      <text
         xml:space="preserve"
         style="font-style:normal;font-variant:normal;font-weight:normal;font-stretch:normal;font-size:37.55853653px;line-height:1.25;font-family:'Bebas Neue';-inkscape-font-specification:'Bebas Neue';text-align:center;letter-spacing:0px;word-spacing:0px;text-anchor:middle;fill:#ffffff;fill-opacity:1;stroke:none;stroke-width:2.01206446"
         x="-1918.0872"
         y="-333.65906"
         id="text1751"
         transform="scale(1,-1)"><tspan
           sodipodi:role="line"
           id="tspan1749"
           x="-1918.0872"
           y="-333.65906"
           style="font-style:normal;font-variant:normal;font-weight:normal;font-stretch:normal;font-family:PAGRevolucionW00-Regular;-inkscape-font-specification:PAGRevolucionW00-Regular;fill:#ffffff;stroke-width:2.01206446">random fraction</tspan></text>
    </g>
  </g>
</svg>
