<?xml version="1.0" encoding="UTF-8" standalone="no"?>
<!-- Created with Inkscape (http://www.inkscape.org/) -->

<svg
   xmlns:dc="http://purl.org/dc/elements/1.1/"
   xmlns:cc="http://creativecommons.org/ns#"
   xmlns:rdf="http://www.w3.org/1999/02/22-rdf-syntax-ns#"
   xmlns:svg="http://www.w3.org/2000/svg"
   xmlns="http://www.w3.org/2000/svg"
   xmlns:sodipodi="http://sodipodi.sourceforge.net/DTD/sodipodi-0.dtd"
   xmlns:inkscape="http://www.inkscape.org/namespaces/inkscape"
   width="102.05092mm"
   height="95.294319mm"
   viewBox="0 0 102.05093 95.294322"
   version="1.1"
   id="svg2283"
   inkscape:version="0.92.3 (2405546, 2018-03-11)"
   sodipodi:docname="control_do_result.svg">
  <defs
     id="defs2277" />
  <sodipodi:namedview
     id="base"
     pagecolor="#ffffff"
     bordercolor="#666666"
     borderopacity="1.0"
     inkscape:pageopacity="0.0"
     inkscape:pageshadow="2"
     inkscape:zoom="2.257283"
     inkscape:cx="192.85213"
     inkscape:cy="180.08375"
     inkscape:document-units="mm"
     inkscape:current-layer="layer1"
     showgrid="false"
     fit-margin-top="0"
     fit-margin-left="0"
     fit-margin-right="0"
     fit-margin-bottom="0"
     inkscape:window-width="1920"
     inkscape:window-height="1001"
     inkscape:window-x="0"
     inkscape:window-y="0"
     inkscape:window-maximized="1" />
  <metadata
     id="metadata2280">
    <rdf:RDF>
      <cc:Work
         rdf:about="">
        <dc:format>image/svg+xml</dc:format>
        <dc:type
           rdf:resource="http://purl.org/dc/dcmitype/StillImage" />
        <dc:title />
      </cc:Work>
    </rdf:RDF>
  </metadata>
  <g
     inkscape:label="Layer 1"
     inkscape:groupmode="layer"
     id="layer1"
     transform="translate(50.773698,-678.05901)">
    <g
       id="g32">
      <path
         sodipodi:nodetypes="ccccccccccccccccccccccccccccccccccccccccccscccccccccccccscccccscccsccsccccccccscscccccccsscscscssccc"
         inkscape:connector-curvature="0"
         id="path2640"
         d="m 34.495773,679.75515 -0.0064,0.007 -71.415354,0.18775 -0.05017,5.30503 c -0.04527,4.82642 -0.08704,5.37712 -0.453021,6.11352 -0.357349,0.71927 -0.491431,0.81621 -1.209582,0.8696 -0.849059,0.063 -0.845933,0.0648 -4.45181,-2.24509 -1.031211,-0.66051 -1.819273,-1.01343 -2.408243,-1.0783 -0.787969,-0.0869 -0.95668,-0.0224 -1.684492,0.63807 -0.649687,0.5899 -0.869874,0.9822 -1.119323,1.99619 -0.495071,2.01114 -0.749046,4.50632 -0.769301,7.02233 h -0.0075 c 2.33e-4,0.0653 0.0075,0.13063 0.0075,0.19596 -2.8e-4,0.0653 -0.0061,0.12974 0,0.19508 h 0.0065 c 0.03314,2.51577 0.299198,5.00998 0.803976,7.01864 0.254583,1.01273 0.47673,1.40396 1.129357,1.99078 0.731032,0.65716 0.899463,0.72086 1.687245,0.62986 0.588644,-0.0679 1.374886,-0.4247 2.402736,-1.09021 3.594677,-2.32731 3.591644,-2.32577 4.44089,-2.26692 0.718478,0.0498 0.8541,0.14575 1.215042,0.8632 0.36953,0.73458 0.412419,1.28551 0.481304,6.1117 l 0.07565,59.44173 71.417192,-0.18775 14.87775,-0.0364 0.0055,-2.99884 0.0064,-8.60746 c -0.02179,-0.0679 -0.03864,-0.14201 -0.06837,-0.20236 -0.179771,-0.35912 -0.303595,-0.56335 -0.472165,-0.68361 -0.168384,-0.12036 -0.381767,-0.15667 -0.741062,-0.18234 -0.212313,-0.0149 -0.37064,-0.0261 -0.545996,0 -0.175412,0.0275 -0.3677,0.0942 -0.645352,0.23517 -0.555307,0.28207 -1.454532,0.86156 -3.25411,2.02177 -0.514546,0.33173 -0.968338,0.5865 -1.367269,0.76659 -0.399118,0.18006 -0.742914,0.28567 -1.037306,0.31904 -0.393831,0.0448 -0.633236,0.05 -0.86503,-0.0364 -0.231854,-0.0872 -0.456442,-0.26774 -0.821272,-0.59704 -0.325754,-0.29402 -0.543509,-0.53861 -0.711893,-0.83674 -0.168263,-0.29812 -0.286659,-0.64931 -0.412919,-1.15582 -0.250457,-1.00489 -0.441008,-2.1313 -0.57243,-3.32063 -0.131421,-1.18928 -0.204039,-2.44105 -0.217853,-3.69894 h -0.0064 c -6.1e-5,-0.0653 0,-0.13072 0,-0.19596 0,-0.0652 -0.0064,-0.13068 -0.0064,-0.19601 h 0.0064 c 0.01246,-1.25789 0.08391,-2.51031 0.214204,-3.69983 0.130301,-1.18951 0.319262,-2.31649 0.56879,-3.32156 0.125695,-0.5067 0.243928,-0.85756 0.412003,-1.15578 0.168072,-0.29826 0.386448,-0.54337 0.711893,-0.83771 0.364518,-0.32968 0.588569,-0.51076 0.820363,-0.59794 0.231728,-0.0873 0.471138,-0.0802 0.86503,-0.0364 0.294452,0.0331 0.638911,0.13838 1.038216,0.3181 0.399118,0.17963 0.853259,0.43347 1.368183,0.76478 1.800699,1.15838 2.700316,1.73746 3.255931,2.01897 0.277777,0.14085 0.468964,0.20684 0.644441,0.23428 0.175352,0.0275 0.334654,0.0154 0.546907,0 0.359234,-0.0261 0.572678,-0.0637 0.741061,-0.18411 0.168384,-0.12041 0.291797,-0.32347 0.471256,-0.68273 0.03794,-0.0756 0.05973,-0.16717 0.08568,-0.25342 l 0.0064,-2.88698 0.02917,-9.86692 H 48.932524 39.243119 31.505267 26.04621 c 0,0 -0.635686,-0.0247 -1.581491,-0.2033 -0.472856,-0.0891 -1.023791,-0.21668 -1.610614,-0.39832 -0.586823,-0.18164 -1.210328,-0.41769 -1.829447,-0.72375 -0.619072,-0.30601 -1.233243,-0.68245 -1.802939,-1.14485 -0.569742,-0.46241 -1.094541,-1.01101 -1.533188,-1.66167 -0.438648,-0.65067 -0.79133,-1.40336 -1.017257,-2.27426 -0.11294,-0.43543 -0.194332,-0.89993 -0.238808,-1.39645 -0.04434,-0.49647 -0.05246,-1.02449 -0.0182,-1.58601 l -0.0047,-9.39407 -0.0047,-9.39319 c -0.035,-0.61268 -0.02754,-1.18541 0.01633,-1.72094 0.04387,-0.53549 0.124468,-1.03406 0.236988,-1.49763 0.11252,-0.46352 0.256636,-0.89209 0.427493,-1.28887 0.170904,-0.39674 0.368923,-0.76141 0.587944,-1.09655 0.43804,-0.67027 0.962093,-1.22316 1.531368,-1.6781 0.569229,-0.45493 1.183214,-0.81186 1.802052,-1.0929 0.618839,-0.28105 1.241831,-0.48579 1.828514,-0.63443 0.586637,-0.1486 1.136871,-0.24133 1.609727,-0.29897 0.945619,-0.11522 1.582378,-0.0902 1.582378,-0.0902 h 5.459052 c 0.277189,-9e-5 0.56059,0.10216 0.849535,0.28072 0.288941,0.17856 0.583678,0.43398 0.884169,0.74018 0.600983,0.6123 1.224531,1.42851 1.870428,2.24504 0.645893,0.81653 1.314397,1.63357 2.003511,2.24597 0.344557,0.3062 0.694107,0.56064 1.04915,0.73925 0.355044,0.1786 0.714829,0.28076 1.080149,0.28076 0.36532,-9e-5 0.735755,-0.10202 1.111137,-0.28076 0.375382,-0.17875 0.755982,-0.4338 1.141216,-0.74013 0.770468,-0.61278 1.560425,-1.43001 2.369026,-2.24691 0.808602,-0.81691 1.636105,-1.63423 2.481146,-2.24686 0.422518,-0.30634 0.849368,-0.56148 1.280678,-0.74018 0.431311,-0.1787 0.867219,-0.28076 1.307112,-0.28076 h 0.653556 l 0.01913,-14.37913 z"
         style="fill:#b68a45;fill-opacity:1;stroke:#927038;stroke-width:3.37654328;stroke-miterlimit:4;stroke-dasharray:none;stroke-opacity:1" />
      <path
         sodipodi:nodetypes="ccccccccccccccccccccsccscscccsccscscccccccsccscscccc"
         inkscape:connector-curvature="0"
         id="path2642"
         d="m 48.557978,681.4941 -83.667032,0.15489 c 42.2457109,38.91184 54.373377,76.80722 68.535619,87.99671 l 15.146646,0.13852 c -0.397196,-6.48502 -0.04337,-3.22823 -0.09024,-9.78786 l -4.258598,2.76191 c -1.180497,0.384 -2.155107,1.17806 -3.509334,1.08833 -1.322428,-0.0723 -1.887199,-0.99698 -2.862163,-1.74824 -0.86979,-1.36829 -0.99703,-2.56309 -1.377294,-3.88403 l -0.369162,-6.04968 0.529587,-6.57294 c 0.420026,-1.28609 0.760913,-2.28774 1.591507,-3.68435 0.999227,-0.50253 0.940877,-1.17818 3.234967,-1.20681 1.826398,0.35923 3.463112,1.57059 5.147323,2.59321 0.648645,0.50447 1.265785,0.78834 1.898686,1.18223 L 48.467482,732.5452 H 39.24295 31.505098 25.112636 c 0,0 -0.635683,-0.0249 -1.581488,-0.20329 -0.472856,-0.0891 -1.023794,-0.21667 -1.610617,-0.39831 -0.586823,-0.18164 -1.210329,-0.41773 -1.829447,-0.72375 -0.619069,-0.30609 -1.23324,-0.68157 -1.802939,-1.14397 -0.569742,-0.46234 -1.094538,-1.01099 -1.533189,-1.66168 -0.438644,-0.65064 -0.791329,-1.40426 -1.017253,-2.27511 -0.11294,-0.43546 -0.194332,-0.89998 -0.238811,-1.39648 -0.0443,-0.49644 -0.05246,-1.02455 -0.01817,-1.58602 l -0.005,-12.19333 -0.0044,-8.46069 c -0.03503,-0.61268 -0.02757,-1.18541 0.01637,-1.72093 0.04387,-0.53558 0.124471,-1.0332 0.236988,-1.49672 0.112524,-0.46359 0.256639,-0.89301 0.427494,-1.28982 0.170903,-0.3967 0.368926,-0.7614 0.587943,-1.09655 0.43804,-0.67024 0.962096,-1.22219 1.531371,-1.67712 0.569226,-0.455 1.183211,-0.8128 1.802049,-1.09387 0.618839,-0.28102 1.241834,-0.4858 1.828514,-0.6344 0.586637,-0.14859 1.136871,-0.24137 1.609727,-0.29899 0.945619,-0.11525 1.582378,-0.0893 1.582378,-0.0893 h 6.392456 c 0.277186,-1.2e-4 0.560588,0.10211 0.849535,0.28077 0.288941,0.17852 0.583675,0.43303 0.884171,0.73918 0.600979,0.61237 1.224528,1.42946 1.870423,2.24599 0.645894,0.81653 1.314401,1.63269 2.003512,2.24505 0.344558,0.30622 0.694107,0.56153 1.04915,0.74012 0.355044,0.17865 0.714829,0.28076 1.080152,0.28076 0.365317,-6e-5 0.735755,-0.10286 1.111134,-0.28163 0.375385,-0.17871 0.755985,-0.43378 1.141214,-0.74018 0.770471,-0.61274 1.560425,-1.42996 2.369028,-2.24686 0.808603,-0.8169 1.636105,-1.63331 2.481147,-2.24599 0.422516,-0.30634 0.849368,-0.56146 1.280676,-0.74018 0.270104,-0.11182 0.545057,-0.1303 0.81854,-0.17585 z"
         style="fill:#ccac78;fill-opacity:1;stroke:none;stroke-width:3.37654328;stroke-miterlimit:4;stroke-dasharray:none;stroke-opacity:1" />
      <rect
         style="opacity:1;fill:#ffffff;fill-opacity:1;stroke:none;stroke-width:1.45317245;stroke-miterlimit:4;stroke-dasharray:none;stroke-opacity:1"
         id="rect2644"
         width="28.829397"
         height="2.509464"
         x="0.23550315"
         y="682.96057"
         transform="matrix(0.9999721,-0.00747002,0.02696542,0.99963637,0,0)"
         ry="1.254732"
         rx="2.5168488" />
      <rect
         rx="1.4116662"
         ry="1.2262005"
         transform="matrix(0.9999967,0.00256826,-0.0230192,0.99973502,0,0)"
         y="682.82654"
         x="16.064306"
         height="2.4524009"
         width="16.333469"
         id="rect2646"
         style="opacity:1;fill:#ffffff;fill-opacity:1;stroke:none;stroke-width:1.68709779;stroke-miterlimit:4;stroke-dasharray:none;stroke-opacity:1" />
      <text
         id="text2650"
         y="720.13989"
         x="-8.8482771"
         style="font-style:normal;font-variant:normal;font-weight:normal;font-stretch:normal;font-size:23.3712101px;line-height:1.25;font-family:'Bebas Neue';-inkscape-font-specification:'Bebas Neue';text-align:center;letter-spacing:0px;word-spacing:0px;text-anchor:middle;fill:#ffffff;fill-opacity:1;stroke:none;stroke-width:1.25202906"
         xml:space="preserve"><tspan
           style="font-style:normal;font-variant:normal;font-weight:normal;font-stretch:normal;font-family:Digitalt;-inkscape-font-specification:Digitalt;fill:#ffffff;stroke-width:1.25202906"
           y="720.13989"
           x="-8.8482771"
           id="tspan2648"
           sodipodi:role="line">do</tspan></text>
      <text
         xml:space="preserve"
         style="font-style:normal;font-variant:normal;font-weight:normal;font-stretch:normal;font-size:23.3712101px;line-height:1.25;font-family:'Bebas Neue';-inkscape-font-specification:'Bebas Neue';text-align:center;letter-spacing:0px;word-spacing:0px;text-anchor:middle;fill:#ffffff;fill-opacity:1;stroke:none;stroke-width:1.25202906"
         x="-0.075112224"
         y="759.86597"
         id="text2654"><tspan
           sodipodi:role="line"
           id="tspan2652"
           x="-0.075112224"
           y="759.86597"
           style="font-style:normal;font-variant:normal;font-weight:normal;font-stretch:normal;font-family:Digitalt;-inkscape-font-specification:Digitalt;fill:#ffffff;stroke-width:1.25202906">result</tspan></text>
    </g>
  </g>
</svg>
