<?xml version="1.0" encoding="UTF-8" standalone="no"?>
<!-- Created with Inkscape (http://www.inkscape.org/) -->

<svg
   xmlns:dc="http://purl.org/dc/elements/1.1/"
   xmlns:cc="http://creativecommons.org/ns#"
   xmlns:rdf="http://www.w3.org/1999/02/22-rdf-syntax-ns#"
   xmlns:svg="http://www.w3.org/2000/svg"
   xmlns="http://www.w3.org/2000/svg"
   xmlns:sodipodi="http://sodipodi.sourceforge.net/DTD/sodipodi-0.dtd"
   xmlns:inkscape="http://www.inkscape.org/namespaces/inkscape"
   width="176.70833mm"
   height="41.140663mm"
   viewBox="0 0 176.70834 41.140665"
   version="1.1"
   id="svg2283"
   inkscape:version="0.92.3 (2405546, 2018-03-11)"
   sodipodi:docname="control_get_start_value.svg">
  <defs
     id="defs2277" />
  <sodipodi:namedview
     id="base"
     pagecolor="#ffffff"
     bordercolor="#666666"
     borderopacity="1.0"
     inkscape:pageopacity="0.0"
     inkscape:pageshadow="2"
     inkscape:zoom="0.35"
     inkscape:cx="986.40706"
     inkscape:cy="51.132728"
     inkscape:document-units="mm"
     inkscape:current-layer="layer1"
     showgrid="false"
     fit-margin-top="0"
     fit-margin-left="0"
     fit-margin-right="0"
     fit-margin-bottom="0"
     inkscape:window-width="1920"
     inkscape:window-height="1001"
     inkscape:window-x="0"
     inkscape:window-y="0"
     inkscape:window-maximized="1" />
  <metadata
     id="metadata2280">
    <rdf:RDF>
      <cc:Work
         rdf:about="">
        <dc:format>image/svg+xml</dc:format>
        <dc:type
           rdf:resource="http://purl.org/dc/dcmitype/StillImage" />
        <dc:title></dc:title>
      </cc:Work>
    </rdf:RDF>
  </metadata>
  <g
     inkscape:label="Layer 1"
     inkscape:groupmode="layer"
     id="layer1"
     transform="translate(345.65354,-665.5073)">
    <g
       id="g2348"
       transform="matrix(0.62226092,0,0,-0.62226092,510.22658,2132.943)"
       inkscape:export-filename="/home/peter/allblocks.png"
       inkscape:export-xdpi="42.094723"
       inkscape:export-ydpi="42.094723">
      <path
         sodipodi:nodetypes="cccccccccccccccccccscccccc"
         inkscape:connector-curvature="0"
         id="path2310"
         d="m -1094.3571,2295.1943 0.1778,60.0591 -24.2345,0.2656 -234.7704,-0.302 -0.08,-8.525 c -0.073,-7.7563 -0.1383,-8.6421 -0.7264,-9.8254 -0.5744,-1.1559 -0.7908,-1.3113 -1.945,-1.397 -1.3644,-0.1014 -1.3597,-0.104 -7.1546,3.608 -1.657,1.0615 -2.9235,1.6286 -3.8701,1.733 -1.2662,0.1396 -1.5369,0.037 -2.7065,-1.0247 -1.0442,-0.948 -1.3983,-1.5786 -1.7993,-3.2081 -0.7954,-3.232 -1.2041,-7.2424 -1.2365,-11.2856 h -0.01 c 4e-4,-0.105 0.01,-0.2096 0.01,-0.3146 -6e-4,-0.105 0,-0.2096 0,-0.3146 h 0.01 c 0.052,-4.043 0.4804,-8.0507 1.2916,-11.2787 0.409,-1.6275 0.766,-2.2564 1.8148,-3.1994 1.1749,-1.056 1.4455,-1.1584 2.7115,-1.012 0.9461,0.109 2.2098,0.6823 3.8617,1.7518 5.7766,3.7402 5.772,3.7376 7.1369,3.643 1.1546,-0.08 1.3718,-0.2345 1.9519,-1.3875 0.5938,-1.1805 0.6636,-2.0659 0.7743,-9.8219 l 0.1216,-8.5244 234.7704,0.3021 z"
         style="fill:#b68a45;fill-opacity:1;stroke:#927038;stroke-width:5.42624998;stroke-miterlimit:4;stroke-dasharray:none;stroke-opacity:1" />
      <path
         style="fill:#ccac78;fill-opacity:1;stroke:none;stroke-width:5.42624998;stroke-miterlimit:4;stroke-dasharray:none;stroke-opacity:1"
         d="m -1095.934,2297.7814 -0.4993,55.1398 -254.0123,-0.4243 c 65.4779,-33.5729 169.9246,-48.2941 226.0766,-54.6556 z"
         id="path2312"
         inkscape:connector-curvature="0"
         sodipodi:nodetypes="ccccc" />
      <rect
         style="opacity:1;fill:#ffffff;fill-opacity:1;stroke:none;stroke-width:2.33531046;stroke-miterlimit:4;stroke-dasharray:none;stroke-opacity:1"
         id="rect2314"
         width="46.330078"
         height="4.0328164"
         x="-1082.1534"
         y="-2360.0171"
         transform="matrix(0.9999721,0.00747001,0.02696542,-0.99963637,0,0)"
         ry="2.0164082"
         rx="4.0446839" />
      <rect
         rx="2.2686081"
         ry="1.9705567"
         transform="matrix(0.9999967,-0.00256827,-0.0230192,-0.99973502,0,0)"
         y="-2348.5615"
         x="-1229.2511"
         height="3.9411135"
         width="26.248585"
         id="rect2316"
         style="opacity:1;fill:#ffffff;fill-opacity:1;stroke:none;stroke-width:2.71123862;stroke-miterlimit:4;stroke-dasharray:none;stroke-opacity:1" />
      <text
         transform="scale(1,-1)"
         id="text2320"
         y="-2312.0293"
         x="-1223.8953"
         style="font-style:normal;font-variant:normal;font-weight:normal;font-stretch:normal;font-size:37.55853653px;line-height:1.25;font-family:'Bebas Neue';-inkscape-font-specification:'Bebas Neue';text-align:center;letter-spacing:0px;word-spacing:0px;text-anchor:middle;fill:#ffffff;fill-opacity:1;stroke:none;stroke-width:2.01206446"
         xml:space="preserve"><tspan
           style="font-style:normal;font-variant:normal;font-weight:normal;font-stretch:normal;font-family:PAGRevolucionW00-Regular;-inkscape-font-specification:PAGRevolucionW00-Regular;fill:#ffffff;stroke-width:2.01206446"
           y="-2312.0293"
           x="-1223.8953"
           id="tspan2318"
           sodipodi:role="line">get start value</tspan></text>
    </g>
  </g>
</svg>
