<?xml version="1.0" encoding="UTF-8" standalone="no"?>
<!-- Created with Inkscape (http://www.inkscape.org/) -->

<svg
   xmlns:dc="http://purl.org/dc/elements/1.1/"
   xmlns:cc="http://creativecommons.org/ns#"
   xmlns:rdf="http://www.w3.org/1999/02/22-rdf-syntax-ns#"
   xmlns:svg="http://www.w3.org/2000/svg"
   xmlns="http://www.w3.org/2000/svg"
   xmlns:sodipodi="http://sodipodi.sourceforge.net/DTD/sodipodi-0.dtd"
   xmlns:inkscape="http://www.inkscape.org/namespaces/inkscape"
   width="240.12732mm"
   height="41.140015mm"
   viewBox="0 0 240.12734 41.140016"
   version="1.1"
   id="svg2283"
   inkscape:version="0.92.3 (2405546, 2018-03-11)"
   sodipodi:docname="control_get_plain_start_text.svg">
  <defs
     id="defs2277" />
  <sodipodi:namedview
     id="base"
     pagecolor="#ffffff"
     bordercolor="#666666"
     borderopacity="1.0"
     inkscape:pageopacity="0.0"
     inkscape:pageshadow="2"
     inkscape:zoom="0.35"
     inkscape:cx="82.762071"
     inkscape:cy="177.44879"
     inkscape:document-units="mm"
     inkscape:current-layer="layer1"
     showgrid="false"
     fit-margin-top="0"
     fit-margin-left="0"
     fit-margin-right="0"
     fit-margin-bottom="0"
     inkscape:window-width="1920"
     inkscape:window-height="1001"
     inkscape:window-x="0"
     inkscape:window-y="0"
     inkscape:window-maximized="1" />
  <metadata
     id="metadata2280">
    <rdf:RDF>
      <cc:Work
         rdf:about="">
        <dc:format>image/svg+xml</dc:format>
        <dc:type
           rdf:resource="http://purl.org/dc/dcmitype/StillImage" />
        <dc:title></dc:title>
      </cc:Work>
    </rdf:RDF>
  </metadata>
  <g
     inkscape:label="Layer 1"
     inkscape:groupmode="layer"
     id="layer1"
     transform="translate(245.2814,-698.92907)">
    <g
       id="g26">
      <path
         style="fill:#b68a45;fill-opacity:1;stroke:#927038;stroke-width:3.37654328;stroke-miterlimit:4;stroke-dasharray:none;stroke-opacity:1"
         d="m -6.9579459,738.15506 0.110638,-37.37243 -15.0801821,-0.16528 -209.5076,0.18793 -0.0498,5.30477 c -0.0454,4.82644 -0.0861,5.37764 -0.45201,6.11396 -0.35743,0.71928 -0.49208,0.81597 -1.2103,0.8693 -0.84901,0.0631 -0.84608,0.0647 -4.45202,-2.24512 -1.03109,-0.66053 -1.81918,-1.01341 -2.40822,-1.07837 -0.7879,-0.0869 -0.95635,-0.023 -1.68415,0.63763 -0.64976,0.5899 -0.8701,0.9823 -1.11963,1.99627 -0.49495,2.01115 -0.74926,4.50667 -0.76943,7.02259 h -0.006 c 2.5e-4,0.0653 0.006,0.13043 0.006,0.19576 -3.7e-4,0.0653 0,0.13043 0,0.19577 h 0.006 c 0.0324,2.5158 0.29893,5.00963 0.80371,7.01829 0.2545,1.01273 0.47665,1.40407 1.12928,1.99086 0.73109,0.65711 0.89948,0.72083 1.68726,0.62973 0.58872,-0.0678 1.37507,-0.42457 2.40298,-1.09008 3.59456,-2.32738 3.59169,-2.32576 4.44102,-2.26689 0.71846,0.0498 0.85362,0.14592 1.21459,0.86338 0.3695,0.73458 0.41293,1.28553 0.48182,6.11179 l 0.0757,5.3044 209.5076,-0.18798 z"
         id="path2330"
         inkscape:connector-curvature="0"
         sodipodi:nodetypes="cccccccccccccccccccscccccc" />
      <path
         sodipodi:nodetypes="ccccc"
         inkscape:connector-curvature="0"
         id="path2332"
         d="m -7.9391891,736.54521 -0.3106949,-34.31135 -223.068596,0.26403 c 40.74434,20.8911 170.744106,30.05153 205.685302,34.01004 z"
         style="fill:#ccac78;fill-opacity:1;stroke:none;stroke-width:3.37654328;stroke-miterlimit:4;stroke-dasharray:none;stroke-opacity:1" />
      <rect
         rx="2.5168488"
         ry="1.254732"
         transform="matrix(0.9999721,-0.00747002,0.02696542,0.99963637,0,0)"
         y="703.20569"
         x="-57.907215"
         height="2.509464"
         width="28.829397"
         id="rect2334"
         style="opacity:1;fill:#ffffff;fill-opacity:1;stroke:none;stroke-width:1.45317245;stroke-miterlimit:4;stroke-dasharray:none;stroke-opacity:1" />
      <rect
         style="opacity:1;fill:#ffffff;fill-opacity:1;stroke:none;stroke-width:1.68709779;stroke-miterlimit:4;stroke-dasharray:none;stroke-opacity:1"
         id="rect2336"
         width="16.333469"
         height="2.4524009"
         x="-41.056049"
         y="703.65894"
         transform="matrix(0.9999967,0.00256826,-0.0230192,0.99973502,0,0)"
         ry="1.2262005"
         rx="1.4116662" />
      <text
         xml:space="preserve"
         style="font-style:normal;font-variant:normal;font-weight:normal;font-stretch:normal;font-size:23.3712101px;line-height:1.25;font-family:'Bebas Neue';-inkscape-font-specification:'Bebas Neue';text-align:center;letter-spacing:0px;word-spacing:0px;text-anchor:middle;fill:#ffffff;fill-opacity:1;stroke:none;stroke-width:1.25202906"
         x="-119.00645"
         y="727.67932"
         id="text2340"><tspan
           sodipodi:role="line"
           id="tspan2338"
           x="-119.00645"
           y="727.67932"
           style="font-style:normal;font-variant:normal;font-weight:normal;font-stretch:normal;font-family:Digitalt;-inkscape-font-specification:Digitalt;fill:#ffffff;stroke-width:1.25202906">get plain start text</tspan></text>
    </g>
  </g>
</svg>
