<?xml version="1.0" encoding="UTF-8" standalone="no"?>
<!-- Created with Inkscape (http://www.inkscape.org/) -->

<svg
   xmlns:dc="http://purl.org/dc/elements/1.1/"
   xmlns:cc="http://creativecommons.org/ns#"
   xmlns:rdf="http://www.w3.org/1999/02/22-rdf-syntax-ns#"
   xmlns:svg="http://www.w3.org/2000/svg"
   xmlns="http://www.w3.org/2000/svg"
   xmlns:sodipodi="http://sodipodi.sourceforge.net/DTD/sodipodi-0.dtd"
   xmlns:inkscape="http://www.inkscape.org/namespaces/inkscape"
   width="377.35242mm"
   height="40.954384mm"
   viewBox="0 0 377.35243 40.954387"
   version="1.1"
   id="svg2283"
   inkscape:version="0.92.3 (2405546, 2018-03-11)"
   sodipodi:docname="control_open_another_screen.svg">
  <defs
     id="defs2277" />
  <sodipodi:namedview
     id="base"
     pagecolor="#ffffff"
     bordercolor="#666666"
     borderopacity="1.0"
     inkscape:pageopacity="0.0"
     inkscape:pageshadow="2"
     inkscape:zoom="0.35"
     inkscape:cx="213.86872"
     inkscape:cy="639.59943"
     inkscape:document-units="mm"
     inkscape:current-layer="layer1"
     showgrid="false"
     fit-margin-top="0"
     fit-margin-left="0"
     fit-margin-right="0"
     fit-margin-bottom="0"
     inkscape:window-width="1920"
     inkscape:window-height="1001"
     inkscape:window-x="0"
     inkscape:window-y="0"
     inkscape:window-maximized="1" />
  <metadata
     id="metadata2280">
    <rdf:RDF>
      <cc:Work
         rdf:about="">
        <dc:format>image/svg+xml</dc:format>
        <dc:type
           rdf:resource="http://purl.org/dc/dcmitype/StillImage" />
        <dc:title></dc:title>
      </cc:Work>
    </rdf:RDF>
  </metadata>
  <g
     inkscape:label="Layer 1"
     inkscape:groupmode="layer"
     id="layer1"
     transform="translate(279.97003,-821.39205)">
    <g
       id="g26">
      <path
         sodipodi:nodetypes="cccccccccccccccsccccccssssssssssssssscccccssssssssssssssscc"
         inkscape:connector-curvature="0"
         id="path2168"
         d="m 95.494245,860.64727 0.196945,-10.65149 c -0.0616,-0.3265 -0.144551,-0.53757 -0.25886,-0.76594 -0.359543,-0.71822 -0.494511,-0.8146 -1.212911,-0.86582 -0.8492,-0.0603 -0.846337,-0.0622 -4.445432,2.25819 -1.02922,0.66352 -1.816255,1.0187 -2.405101,1.08535 -0.78772,0.0892 -0.956291,0.0255 -1.686016,-0.63303 -0.651507,-0.58797 -0.872908,-0.97981 -1.125421,-1.99304 -0.500858,-2.00965 -0.762332,-4.50405 -0.790022,-7.01991 l -0.0062,1.9e-4 c -1.25e-4,-0.0653 0,-0.13043 0,-0.19577 0,-0.0653 -0.0062,-0.13042 -0.0062,-0.19576 l 0.0062,-1.9e-4 c 0.02489,-2.51586 0.284249,-5.01088 0.783177,-7.02103 0.251581,-1.01348 0.472608,-1.40544 1.123493,-1.9941 0.729165,-0.65934 0.897673,-0.72269 1.685456,-0.63427 0.588845,0.0661 1.376316,0.42053 2.406096,1.08305 3.601397,2.31692 3.598535,2.31524 4.44761,2.25389 0.7184,-0.0523 0.853244,-0.14841 1.212102,-0.86694 0.114122,-0.22849 0.196696,-0.43962 0.258114,-0.76618 l -0.0062,-10.44932 -15.079809,-0.19483 H 75.131938 67.394746 57.705086 46.3884 33.770006 20.17541 5.9299903 -8.6408092 -23.211609 -37.457028 -51.051624 -63.669956 -245.75315 c -3.51913,0 -6.76715,6.53498 -9.68966,6.53561 -2.92257,0 -5.5197,-6.53188 -7.73719,-6.53188 h -5.45934 c 0,0 -10.17963,-0.40472 -9.62277,9.39813 l 0.006,9.39353 0.006,9.39353 c -0.54778,8.9842 9.63166,9.38892 9.63166,9.38892 h 5.45934 7.7372 9.68966 182.083188 12.618331 13.594597 14.245419 14.5707994 14.5707995 14.2454191 13.594597 12.618393 11.316686 9.689661 7.737192 5.459282 z"
         style="fill:#b68a45;fill-opacity:1;stroke:#927038;stroke-width:3.37654328;stroke-miterlimit:4;stroke-dasharray:none;stroke-opacity:1" />
      <path
         style="fill:#ccac78;fill-opacity:1;stroke:none;stroke-width:3.37654328;stroke-miterlimit:4;stroke-dasharray:none;stroke-opacity:1"
         d="m 94.516051,859.03549 0.201985,-0.20217 0.194644,-7.55967 c -0.0616,-0.3265 -0.144552,-0.5375 -0.258861,-0.76594 -0.359542,-0.71821 -0.494511,-0.81454 -1.212911,-0.86575 -0.849137,-0.0604 -1.234939,0.11686 -4.834034,2.43721 -1.029219,0.66352 -1.816255,1.0187 -2.405101,1.08535 -0.937062,-0.15115 -0.909558,-0.20846 -1.639284,-0.86712 -0.651507,-0.58798 -0.919639,-0.74572 -1.172153,-1.75895 -0.500857,-2.00965 -1.074706,-6.71562 -1.102335,-9.23149 l -0.0062,1.9e-4 c -1.25e-4,-0.0653 0,-0.13043 0,-0.19576 -6.23e-4,-0.0653 0,-0.13043 -0.0062,-0.19577 l 0.0062,-1.8e-4 c 0.02489,-2.51587 0.575778,-5.45306 1.074706,-7.46328 0.25158,-1.01341 0.472545,-1.40543 1.123492,-1.99409 0.729104,-0.65929 0.897674,-0.7227 1.685394,-0.63427 0.588908,0.0661 1.376317,0.42052 2.406159,1.08304 3.601397,2.31693 3.613344,2.44972 4.462482,2.38836 0.718338,-0.0523 0.853182,-0.14834 1.212039,-0.86687 0.114123,-0.22849 0.196697,-0.43963 0.258177,-0.76625 l -0.237393,-7.93849 -339.693667,-0.19819 c 36.02498,24.01678 257.41055,28.81933 322.243293,34.43815 z"
         id="path2170"
         inkscape:connector-curvature="0"
         sodipodi:nodetypes="ccccccccccccccccscccccccc" />
      <rect
         rx="2.5168488"
         ry="1.254732"
         transform="matrix(0.9999721,-0.00747002,0.02696542,0.99963637,0,0)"
         y="826.4884"
         x="42.225021"
         height="2.509464"
         width="28.829397"
         id="rect2172"
         style="opacity:1;fill:#ffffff;fill-opacity:1;stroke:none;stroke-width:1.45317245;stroke-miterlimit:4;stroke-dasharray:none;stroke-opacity:1" />
      <rect
         style="opacity:1;fill:#ffffff;fill-opacity:1;stroke:none;stroke-width:1.68709779;stroke-miterlimit:4;stroke-dasharray:none;stroke-opacity:1"
         id="rect2174"
         width="16.333469"
         height="2.4524009"
         x="65.218277"
         y="825.91089"
         transform="matrix(0.9999967,0.00256826,-0.0230192,0.99973502,0,0)"
         ry="1.2262005"
         rx="1.4116662" />
      <text
         id="text2178"
         y="850.9422"
         x="-96.110748"
         style="font-style:normal;font-variant:normal;font-weight:normal;font-stretch:normal;font-size:23.3712101px;line-height:1.25;font-family:'Bebas Neue';-inkscape-font-specification:'Bebas Neue';text-align:center;letter-spacing:0px;word-spacing:0px;text-anchor:middle;fill:#ffffff;fill-opacity:1;stroke:none;stroke-width:1.25202906"
         xml:space="preserve"><tspan
           style="font-style:normal;font-variant:normal;font-weight:normal;font-stretch:normal;font-family:Digitalt;-inkscape-font-specification:Digitalt;fill:#ffffff;stroke-width:1.25202906"
           y="850.9422"
           x="-96.110748"
           id="tspan2176"
           sodipodi:role="line">open another screen  screenname</tspan></text>
    </g>
  </g>
</svg>
