<?xml version="1.0" encoding="UTF-8" standalone="no"?>
<!-- Created with Inkscape (http://www.inkscape.org/) -->

<svg
   xmlns:dc="http://purl.org/dc/elements/1.1/"
   xmlns:cc="http://creativecommons.org/ns#"
   xmlns:rdf="http://www.w3.org/1999/02/22-rdf-syntax-ns#"
   xmlns:svg="http://www.w3.org/2000/svg"
   xmlns="http://www.w3.org/2000/svg"
   xmlns:sodipodi="http://sodipodi.sourceforge.net/DTD/sodipodi-0.dtd"
   xmlns:inkscape="http://www.inkscape.org/namespaces/inkscape"
   width="102.05092mm"
   height="95.294319mm"
   viewBox="0 0 102.05093 95.294322"
   version="1.1"
   id="svg2283"
   inkscape:version="0.92.3 (2405546, 2018-03-11)"
   sodipodi:docname="control_do_result.svg">
  <defs
     id="defs2277" />
  <sodipodi:namedview
     id="base"
     pagecolor="#ffffff"
     bordercolor="#666666"
     borderopacity="1.0"
     inkscape:pageopacity="0.0"
     inkscape:pageshadow="2"
     inkscape:zoom="0.35"
     inkscape:cx="-128.09943"
     inkscape:cy="303.24751"
     inkscape:document-units="mm"
     inkscape:current-layer="layer1"
     showgrid="false"
     fit-margin-top="0"
     fit-margin-left="0"
     fit-margin-right="0"
     fit-margin-bottom="0"
     inkscape:window-width="1920"
     inkscape:window-height="1001"
     inkscape:window-x="0"
     inkscape:window-y="0"
     inkscape:window-maximized="1" />
  <metadata
     id="metadata2280">
    <rdf:RDF>
      <cc:Work
         rdf:about="">
        <dc:format>image/svg+xml</dc:format>
        <dc:type
           rdf:resource="http://purl.org/dc/dcmitype/StillImage" />
        <dc:title></dc:title>
      </cc:Work>
    </rdf:RDF>
  </metadata>
  <g
     inkscape:label="Layer 1"
     inkscape:groupmode="layer"
     id="layer1"
     transform="translate(50.773698,-678.05901)">
    <g
       id="g2708"
       transform="matrix(0.62226092,0,0,-0.62226092,493.00242,2144.9129)"
       inkscape:export-filename="/home/peter/allblocks.png"
       inkscape:export-xdpi="42.094723"
       inkscape:export-ydpi="42.094723">
      <path
         sodipodi:nodetypes="ccccccccccccccccccccccccccccccccccccccccccscccccccccccccscccccscccsccsccccccccscscccccccsscscscssccc"
         inkscape:connector-curvature="0"
         transform="matrix(0.75000002,0,0,-0.75000002,0,500.00002)"
         id="path2640"
         d="m -982.45312,-2472.7617 -0.0137,0.014 -153.02338,0.4023 -0.1075,11.3672 c -0.097,10.3417 -0.1865,11.5217 -0.9707,13.0996 -0.7657,1.5412 -1.053,1.7489 -2.5918,1.8633 -1.8193,0.1349 -1.8126,0.1388 -9.539,-4.8106 -2.2096,-1.4153 -3.8982,-2.1715 -5.1602,-2.3105 -1.6884,-0.1862 -2.0499,-0.048 -3.6094,1.3672 -1.3921,1.264 -1.8639,2.1046 -2.3984,4.2773 -1.0608,4.3093 -1.605,9.6558 -1.6484,15.0469 h -0.016 c 5e-4,0.14 0.016,0.2799 0.016,0.4199 -6e-4,0.14 -0.013,0.278 0,0.418 h 0.014 c 0.071,5.3906 0.6411,10.735 1.7227,15.039 0.5455,2.17 1.0215,3.0083 2.4199,4.2657 1.5664,1.4081 1.9273,1.5446 3.6153,1.3496 1.2613,-0.1454 2.946,-0.91 5.1484,-2.336 7.7024,-4.9868 7.6959,-4.9835 9.5156,-4.8574 1.5395,0.1067 1.8301,0.3123 2.6035,1.8496 0.7918,1.574 0.8837,2.7545 1.0313,13.0957 l 0.1621,127.3672 153.02732,-0.4023 31.87891,-0.078 0.0117,-6.4257 0.0137,-18.4434 c -0.0467,-0.1455 -0.0828,-0.3043 -0.14649,-0.4336 -0.3852,-0.7695 -0.65052,-1.2071 -1.01172,-1.4648 -0.3608,-0.2579 -0.81802,-0.3357 -1.58789,-0.3907 -0.45493,-0.032 -0.79418,-0.056 -1.16992,0 -0.37586,0.059 -0.78788,0.2018 -1.38281,0.5039 -1.18987,0.6044 -3.11666,1.8461 -6.97266,4.3321 -1.10253,0.7108 -2.07488,1.2567 -2.92968,1.6426 -0.8552,0.3858 -1.59186,0.6121 -2.22266,0.6836 -0.84387,0.096 -1.35685,0.1072 -1.85352,-0.078 -0.4968,-0.1868 -0.97803,-0.5737 -1.75976,-1.2793 -0.698,-0.63 -1.16459,-1.1541 -1.52539,-1.7929 -0.36054,-0.6388 -0.61423,-1.3913 -0.88477,-2.4766 -0.53666,-2.1532 -0.94496,-4.5668 -1.22656,-7.1152 -0.2816,-2.5483 -0.4372,-5.2305 -0.4668,-7.9258 h -0.0137 c -1.3e-4,-0.1399 0,-0.2801 0,-0.4199 0,-0.1398 -0.0137,-0.28 -0.0137,-0.42 h 0.0137 c 0.0267,-2.6953 0.17979,-5.3789 0.45898,-7.9277 0.2792,-2.5488 0.68409,-4.9636 1.21876,-7.1172 0.26933,-1.0857 0.52267,-1.8375 0.88281,-2.4765 0.36013,-0.6391 0.82805,-1.1643 1.52539,-1.795 0.78106,-0.7064 1.26114,-1.0944 1.75781,-1.2812 0.49653,-0.1871 1.00952,-0.1719 1.85352,-0.078 0.63093,0.071 1.36901,0.2965 2.22461,0.6816 0.8552,0.3849 1.8283,0.9288 2.93164,1.6387 3.8584,2.4821 5.78603,3.7229 6.97656,4.3261 0.5952,0.3018 1.00486,0.4432 1.38086,0.502 0.37573,0.059 0.71707,0.033 1.17187,0 0.76974,-0.056 1.22709,-0.1365 1.58789,-0.3945 0.3608,-0.258 0.62524,-0.6931 1.00977,-1.4629 0.0813,-0.1619 0.12799,-0.3582 0.18359,-0.543 l 0.0137,-6.186 0.0625,-21.1421 h -1.25391 -20.76172 -16.58008 -11.69725 c 0,0 -1.3621,-0.053 -3.3887,-0.4356 -1.0132,-0.191 -2.1937,-0.4643 -3.4511,-0.8535 -1.2574,-0.3892 -2.5934,-0.895 -3.92,-1.5508 -1.3265,-0.6557 -2.6425,-1.4623 -3.8632,-2.4531 -1.2208,-0.9908 -2.3453,-2.1663 -3.2852,-3.5605 -0.9399,-1.3942 -1.6956,-3.007 -2.1797,-4.8731 -0.242,-0.933 -0.4164,-1.9283 -0.5117,-2.9922 -0.095,-1.0638 -0.1124,-2.1952 -0.039,-3.3984 l -0.01,-20.1289 -0.01,-20.127 c -0.075,-1.3128 -0.059,-2.54 0.035,-3.6875 0.094,-1.1474 0.2667,-2.2157 0.5078,-3.209 0.2411,-0.9932 0.5499,-1.9115 0.916,-2.7617 0.3662,-0.8501 0.7905,-1.6315 1.2598,-2.3496 0.9386,-1.4362 2.0615,-2.6209 3.2813,-3.5957 1.2197,-0.9748 2.5353,-1.7396 3.8613,-2.3418 1.326,-0.6022 2.6609,-1.0409 3.918,-1.3594 1.257,-0.3184 2.436,-0.5171 3.4492,-0.6406 2.0262,-0.2469 3.3906,-0.1933 3.3906,-0.1933 h 11.69724 c 0.59394,-2e-4 1.20119,0.2189 1.82032,0.6015 0.61912,0.3826 1.25066,0.9299 1.89453,1.586 1.28774,1.312 2.62383,3.0609 4.00781,4.8105 1.38397,1.7496 2.81639,3.5003 4.29297,4.8125 0.73829,0.6561 1.48728,1.2013 2.24804,1.584 0.76076,0.3827 1.53168,0.6016 2.31446,0.6016 0.78278,-2e-4 1.57652,-0.2186 2.38086,-0.6016 0.80434,-0.383 1.61986,-0.9295 2.44531,-1.5859 1.6509,-1.313 3.34356,-3.0641 5.07617,-4.8145 1.73261,-1.7504 3.50572,-3.5017 5.31641,-4.8144 0.90534,-0.6564 1.81996,-1.2031 2.74414,-1.586 0.92418,-0.3829 1.85821,-0.6016 2.80078,-0.6016 h 1.40039 l 0.041,-30.8105 z"
         style="fill:#b68a45;fill-opacity:1;stroke:#927038;stroke-width:7.23499966;stroke-miterlimit:4;stroke-dasharray:none;stroke-opacity:1" />
      <path
         sodipodi:nodetypes="ccccccccccccccccccccsccscscccsccscscccccccsccscscccc"
         inkscape:connector-curvature="0"
         id="path2642"
         d="m -714.24129,2351.7768 -134.45651,-0.2489 c 67.89067,-62.533 87.38035,-123.4325 110.13968,-141.4145 l 24.34131,-0.2226 c -0.63831,10.4217 -0.0697,5.1879 -0.14502,15.7295 l -6.84375,-4.4385 c -1.89711,-0.6171 -3.46335,-1.8932 -5.63965,-1.749 -2.1252,0.1162 -3.03281,1.6022 -4.59962,2.8095 -1.39779,2.1989 -1.60227,4.119 -2.21337,6.2418 l -0.59326,9.7221 0.85107,10.563 c 0.675,2.0668 1.22282,3.6765 2.55762,5.9209 1.6058,0.8076 1.51203,1.8934 5.19873,1.9394 2.9351,-0.5773 5.56537,-2.524 8.27197,-4.1674 1.0424,-0.8107 2.03417,-1.2669 3.05127,-1.8999 l -0.0659,19.1733 h -14.82422 -12.43506 -10.27296 c 0,0 -1.02157,0.04 -2.54152,0.3267 -0.7599,0.1432 -1.64528,0.3482 -2.58833,0.6401 -0.94305,0.2919 -1.94505,0.6713 -2.94,1.1631 -0.99487,0.4919 -1.98187,1.0953 -2.8974,1.8384 -0.9156,0.743 -1.75897,1.6247 -2.4639,2.6704 -0.70492,1.0456 -1.2717,2.2567 -1.63477,3.6562 -0.1815,0.6998 -0.3123,1.4463 -0.38378,2.2442 -0.0712,0.7978 -0.0843,1.6465 -0.0292,2.5488 l -0.008,19.5952 -0.007,13.5967 c -0.0563,0.9846 -0.0443,1.905 0.0263,2.7656 0.0705,0.8607 0.20003,1.6604 0.38085,2.4053 0.18083,0.745 0.41243,1.4351 0.687,2.0728 0.27465,0.6375 0.59288,1.2236 0.94485,1.7622 0.70395,1.0771 1.54613,1.9641 2.46098,2.6952 0.91477,0.7312 1.90147,1.3062 2.89597,1.7579 0.9945,0.4516 1.99568,0.7807 2.9385,1.0195 0.94275,0.2388 1.827,0.3879 2.5869,0.4805 1.51965,0.1852 2.54295,0.1435 2.54295,0.1435 h 10.27295 c 0.44545,2e-4 0.90089,-0.1641 1.36524,-0.4512 0.46434,-0.2869 0.93799,-0.6959 1.4209,-1.1879 0.9658,-0.9841 1.96787,-2.2972 3.00585,-3.6094 1.03798,-1.3122 2.1123,-2.6238 3.21973,-3.6079 0.55372,-0.4921 1.11546,-0.9024 1.68603,-1.1894 0.57057,-0.2871 1.14876,-0.4512 1.73585,-0.4512 0.58708,10e-5 1.18239,0.1653 1.78564,0.4526 0.60326,0.2872 1.2149,0.6971 1.83398,1.1895 1.23818,0.9847 2.50767,2.298 3.80713,3.6108 1.29946,1.3128 2.62929,2.6248 3.98731,3.6094 0.679,0.4923 1.36497,0.9023 2.0581,1.1895 0.43407,0.1797 0.87593,0.2094 1.31543,0.2826 z"
         style="fill:#ccac78;fill-opacity:1;stroke:none;stroke-width:5.42624998;stroke-miterlimit:4;stroke-dasharray:none;stroke-opacity:1" />
      <rect
         style="opacity:1;fill:#ffffff;fill-opacity:1;stroke:none;stroke-width:2.33531046;stroke-miterlimit:4;stroke-dasharray:none;stroke-opacity:1"
         id="rect2644"
         width="46.330078"
         height="4.0328164"
         x="-698.79346"
         y="-2355.8987"
         transform="matrix(0.9999721,0.00747001,0.02696542,-0.99963637,0,0)"
         ry="2.0164082"
         rx="4.0446839" />
      <rect
         rx="2.2686081"
         ry="1.9705567"
         transform="matrix(0.9999967,-0.00256827,-0.0230192,-0.99973502,0,0)"
         y="-2348.3101"
         x="-845.77881"
         height="3.9411135"
         width="26.248585"
         id="rect2646"
         style="opacity:1;fill:#ffffff;fill-opacity:1;stroke:none;stroke-width:2.71123862;stroke-miterlimit:4;stroke-dasharray:none;stroke-opacity:1" />
      <text
         transform="scale(1,-1)"
         id="text2650"
         y="-2289.6714"
         x="-806.49561"
         style="font-style:normal;font-variant:normal;font-weight:normal;font-stretch:normal;font-size:37.55853653px;line-height:1.25;font-family:'Bebas Neue';-inkscape-font-specification:'Bebas Neue';text-align:center;letter-spacing:0px;word-spacing:0px;text-anchor:middle;fill:#ffffff;fill-opacity:1;stroke:none;stroke-width:2.01206446"
         xml:space="preserve"><tspan
           style="font-style:normal;font-variant:normal;font-weight:normal;font-stretch:normal;font-family:PAGRevolucionW00-Regular;-inkscape-font-specification:PAGRevolucionW00-Regular;fill:#ffffff;stroke-width:2.01206446"
           y="-2289.6714"
           x="-806.49561"
           id="tspan2648"
           sodipodi:role="line">do</tspan></text>
      <text
         xml:space="preserve"
         style="font-style:normal;font-variant:normal;font-weight:normal;font-stretch:normal;font-size:37.55853653px;line-height:1.25;font-family:'Bebas Neue';-inkscape-font-specification:'Bebas Neue';text-align:center;letter-spacing:0px;word-spacing:0px;text-anchor:middle;fill:#ffffff;fill-opacity:1;stroke:none;stroke-width:2.01206446"
         x="-788.99518"
         y="-2225.8298"
         id="text2654"
         transform="scale(1,-1)"><tspan
           sodipodi:role="line"
           id="tspan2652"
           x="-788.99518"
           y="-2225.8298"
           style="font-style:normal;font-variant:normal;font-weight:normal;font-stretch:normal;font-family:PAGRevolucionW00-Regular;-inkscape-font-specification:PAGRevolucionW00-Regular;fill:#ffffff;stroke-width:2.01206446">result</tspan></text>
    </g>
  </g>
</svg>
