<?xml version="1.0" encoding="UTF-8" standalone="no"?>
<!-- Created with Inkscape (http://www.inkscape.org/) -->

<svg
   xmlns:dc="http://purl.org/dc/elements/1.1/"
   xmlns:cc="http://creativecommons.org/ns#"
   xmlns:rdf="http://www.w3.org/1999/02/22-rdf-syntax-ns#"
   xmlns:svg="http://www.w3.org/2000/svg"
   xmlns="http://www.w3.org/2000/svg"
   xmlns:sodipodi="http://sodipodi.sourceforge.net/DTD/sodipodi-0.dtd"
   xmlns:inkscape="http://www.inkscape.org/namespaces/inkscape"
   width="397.98984mm"
   height="40.954384mm"
   viewBox="0 0 397.98985 40.954387"
   version="1.1"
   id="svg2283"
   inkscape:version="0.92.3 (2405546, 2018-03-11)"
   sodipodi:docname="control_close_screen_with_plain_text.svg">
  <defs
     id="defs2277" />
  <sodipodi:namedview
     id="base"
     pagecolor="#ffffff"
     bordercolor="#666666"
     borderopacity="1.0"
     inkscape:pageopacity="0.0"
     inkscape:pageshadow="2"
     inkscape:zoom="0.35"
     inkscape:cx="956.68971"
     inkscape:cy="-25.863394"
     inkscape:document-units="mm"
     inkscape:current-layer="layer1"
     showgrid="false"
     fit-margin-top="0"
     fit-margin-left="0"
     fit-margin-right="0"
     fit-margin-bottom="0"
     inkscape:window-width="1920"
     inkscape:window-height="1001"
     inkscape:window-x="0"
     inkscape:window-y="0"
     inkscape:window-maximized="1" />
  <metadata
     id="metadata2280">
    <rdf:RDF>
      <cc:Work
         rdf:about="">
        <dc:format>image/svg+xml</dc:format>
        <dc:type
           rdf:resource="http://purl.org/dc/dcmitype/StillImage" />
        <dc:title></dc:title>
      </cc:Work>
    </rdf:RDF>
  </metadata>
  <g
     inkscape:label="Layer 1"
     inkscape:groupmode="layer"
     id="layer1"
     transform="translate(476.50809,-675.55977)">
    <g
       id="g834">
      <path
         style="fill:#b68a45;fill-opacity:1;stroke:#927038;stroke-width:3.37654328;stroke-miterlimit:4;stroke-dasharray:none;stroke-opacity:1"
         d="m -80.406375,714.81499 0.196945,-10.65149 c -0.0616,-0.3265 -0.144551,-0.53757 -0.25886,-0.76594 -0.359543,-0.71822 -0.494511,-0.81461 -1.212911,-0.86582 -0.8492,-0.0604 -0.846337,-0.0622 -4.445432,2.25819 -1.02922,0.66351 -1.816255,1.0187 -2.405101,1.08534 -0.78772,0.0892 -0.956291,0.0255 -1.686016,-0.63302 -0.651507,-0.58798 -0.872908,-0.97981 -1.125421,-1.99304 -0.500858,-2.00966 -0.762332,-4.50405 -0.790022,-7.01991 l -0.0062,1.8e-4 c -1.25e-4,-0.0653 0,-0.13042 0,-0.19576 0,-0.0653 -0.0062,-0.13043 -0.0062,-0.19576 l 0.0062,-1.9e-4 c 0.02489,-2.51586 0.284249,-5.01088 0.783177,-7.02103 0.251581,-1.01348 0.472608,-1.40544 1.123493,-1.9941 0.729165,-0.65935 0.897673,-0.72269 1.685456,-0.63427 0.588845,0.0661 1.376316,0.42052 2.406096,1.08304 3.601397,2.31693 3.598535,2.31525 4.44761,2.2539 0.7184,-0.0523 0.853244,-0.14841 1.212102,-0.86694 0.114122,-0.22849 0.196696,-0.43963 0.258114,-0.76619 l -0.0062,-10.44931 -15.079809,-0.19483 h -5.459276 -7.73719 -9.68966 -11.31669 -12.61839 -13.5946 -14.24542 -14.5708 -14.5708 -14.24542 -13.59459 -12.61834 -202.72067 c -3.51914,0 -6.76715,6.53498 -9.68967,6.5356 -2.92257,0 -5.5197,-6.53187 -7.73719,-6.53187 h -5.45934 c 0,0 -10.17963,-0.40472 -9.62277,9.39813 l 0.006,9.39353 0.006,9.39352 c -0.54778,8.98421 9.63166,9.38893 9.63166,9.38893 h 5.45935 7.73719 9.68966 202.72068 12.61833 13.5946 14.24541 14.5708 14.5708 14.24542 13.5946 12.61839 11.31669 9.68966 7.73719 5.45928 z"
         id="path2195"
         inkscape:connector-curvature="0"
         sodipodi:nodetypes="cccccccccccccccsccccccssssssssssssssscccccssssssssssssssscc" />
      <path
         sodipodi:nodetypes="ccccccccccccccccscccccccc"
         inkscape:connector-curvature="0"
         id="path2197"
         d="m -81.384569,713.20321 0.201985,-0.20218 0.194644,-7.55966 c -0.0616,-0.3265 -0.144552,-0.53751 -0.258861,-0.76594 -0.359542,-0.71821 -0.494511,-0.81454 -1.212911,-0.86575 -0.849137,-0.0604 -1.234939,0.11686 -4.834034,2.43721 -1.029219,0.66352 -1.816255,1.0187 -2.405101,1.08535 -0.937062,-0.15115 -0.909558,-0.20846 -1.639284,-0.86712 -0.651507,-0.58798 -0.919639,-0.74572 -1.172153,-1.75895 -0.500857,-2.00965 -1.074706,-6.71563 -1.102335,-9.23149 l -0.0062,1.9e-4 c -1.25e-4,-0.0653 0,-0.13043 0,-0.19577 -6.23e-4,-0.0653 0,-0.13042 -0.0062,-0.19576 l 0.0062,-1.9e-4 c 0.02489,-2.51586 0.575778,-5.45306 1.074706,-7.46327 0.25158,-1.01341 0.472545,-1.40544 1.123492,-1.9941 0.729104,-0.65928 0.897674,-0.72269 1.685394,-0.63427 0.588908,0.0661 1.376317,0.42053 2.406159,1.08305 3.601397,2.31692 3.613344,2.44972 4.462482,2.38836 0.718338,-0.0523 0.853182,-0.14835 1.212039,-0.86687 0.114123,-0.2285 0.196697,-0.43963 0.258177,-0.76625 l -0.237393,-7.9385 -359.802017,-0.19819 c 36.02498,24.01679 277.5189,28.81933 342.351643,34.43816 z"
         style="fill:#ccac78;fill-opacity:1;stroke:none;stroke-width:3.37654328;stroke-miterlimit:4;stroke-dasharray:none;stroke-opacity:1" />
      <rect
         style="opacity:1;fill:#ffffff;fill-opacity:1;stroke:none;stroke-width:1.45317245;stroke-miterlimit:4;stroke-dasharray:none;stroke-opacity:1"
         id="rect2199"
         width="28.829397"
         height="2.509464"
         x="-129.71013"
         y="679.31824"
         transform="matrix(0.9999721,-0.00747002,0.02696542,0.99963637,0,0)"
         ry="1.254732"
         rx="2.5168488" />
      <rect
         rx="1.4116662"
         ry="1.2262005"
         transform="matrix(0.9999967,0.00256826,-0.0230192,0.99973502,0,0)"
         y="680.49817"
         x="-114.02982"
         height="2.4524009"
         width="16.333469"
         id="rect2201"
         style="opacity:1;fill:#ffffff;fill-opacity:1;stroke:none;stroke-width:1.68709779;stroke-miterlimit:4;stroke-dasharray:none;stroke-opacity:1" />
      <text
         xml:space="preserve"
         style="font-style:normal;font-variant:normal;font-weight:normal;font-stretch:normal;font-size:23.3712101px;line-height:1.25;font-family:'Bebas Neue';-inkscape-font-specification:'Bebas Neue';text-align:center;letter-spacing:0px;word-spacing:0px;text-anchor:middle;fill:#ffffff;fill-opacity:1;stroke:none;stroke-width:1.25202906"
         x="-277.86691"
         y="705.10992"
         id="text2205"><tspan
           sodipodi:role="line"
           id="tspan2203"
           x="-277.86691"
           y="705.10992"
           style="font-style:normal;font-variant:normal;font-weight:normal;font-stretch:normal;font-family:Digitalt;-inkscape-font-specification:Digitalt;fill:#ffffff;stroke-width:1.25202906">close screen with plain text  text</tspan></text>
    </g>
  </g>
</svg>
