<?xml version="1.0" encoding="UTF-8" standalone="no"?>
<!-- Created with Inkscape (http://www.inkscape.org/) -->

<svg
   xmlns:dc="http://purl.org/dc/elements/1.1/"
   xmlns:cc="http://creativecommons.org/ns#"
   xmlns:rdf="http://www.w3.org/1999/02/22-rdf-syntax-ns#"
   xmlns:svg="http://www.w3.org/2000/svg"
   xmlns="http://www.w3.org/2000/svg"
   xmlns:sodipodi="http://sodipodi.sourceforge.net/DTD/sodipodi-0.dtd"
   xmlns:inkscape="http://www.inkscape.org/namespaces/inkscape"
   width="99.236084mm"
   height="105.42687mm"
   viewBox="0 0 99.236091 105.42687"
   version="1.1"
   id="svg2283"
   inkscape:version="0.92.3 (2405546, 2018-03-11)"
   sodipodi:docname="control_if_then.svg">
  <defs
     id="defs2277" />
  <sodipodi:namedview
     id="base"
     pagecolor="#ffffff"
     bordercolor="#666666"
     borderopacity="1.0"
     inkscape:pageopacity="0.0"
     inkscape:pageshadow="2"
     inkscape:zoom="0.35"
     inkscape:cx="-160.45217"
     inkscape:cy="636.34429"
     inkscape:document-units="mm"
     inkscape:current-layer="layer1"
     showgrid="false"
     fit-margin-top="0"
     fit-margin-left="0"
     fit-margin-right="0"
     fit-margin-bottom="0"
     inkscape:window-width="1920"
     inkscape:window-height="1001"
     inkscape:window-x="0"
     inkscape:window-y="0"
     inkscape:window-maximized="1" />
  <metadata
     id="metadata2280">
    <rdf:RDF>
      <cc:Work
         rdf:about="">
        <dc:format>image/svg+xml</dc:format>
        <dc:type
           rdf:resource="http://purl.org/dc/dcmitype/StillImage" />
        <dc:title />
      </cc:Work>
    </rdf:RDF>
  </metadata>
  <g
     inkscape:label="Layer 1"
     inkscape:groupmode="layer"
     id="layer1"
     transform="translate(180.93096,-756.05833)">
    <g
       id="g2638"
       transform="matrix(0.62226092,0,0,-0.62226092,509.43069,1827.902)"
       inkscape:export-filename="/home/peter/allblocks.png"
       inkscape:export-xdpi="42.094723"
       inkscape:export-ydpi="42.094723">
      <g
         id="g2588">
        <rect
           rx="4.0446839"
           ry="2.0164082"
           transform="matrix(0.9999721,0.00747001,0.02696542,-0.99963637,0,0)"
           y="-1723.0365"
           x="-966.85413"
           height="4.0328164"
           width="46.330078"
           id="rect2510"
           style="opacity:1;fill:#ffffff;fill-opacity:1;stroke:none;stroke-width:2.33531046;stroke-miterlimit:4;stroke-dasharray:none;stroke-opacity:1" />
        <rect
           style="opacity:1;fill:#ffffff;fill-opacity:1;stroke:none;stroke-width:2.71123862;stroke-miterlimit:4;stroke-dasharray:none;stroke-opacity:1"
           id="rect2512"
           width="26.248585"
           height="3.9411135"
           x="-1082.1344"
           y="-1712.8741"
           transform="matrix(0.9999967,-0.00256827,-0.0230192,-0.99973502,0,0)"
           ry="1.9705567"
           rx="2.2686081" />
        <path
           id="path2555"
           d="m -1054.4539,1719.6717 c -5.6554,0 -10.8747,-10.502 -15.5713,-10.5029 -4.6967,0 -8.87,10.497 -12.4336,10.497 h -8.7729 c 0,0 -16.3593,0.6511 -15.4644,-15.1025 l 0.01,-15.0967 0.01,-108.0952 c -0.8803,-14.438 15.479,-15.0879 15.479,-15.0879 h 8.7729 c 3.5637,0 7.7385,-10.4981 12.4351,-10.4971 4.6967,0 9.9159,10.5029 15.5713,10.5029 118.0764,0.103 -37.4268,-0.058 101.4244,0.012 l 0.066,23.1753 h -3.564 -40.7988 c 0,0 -16.3593,0.6499 -15.479,15.0879 l -0.01,15.0967 -0.01,15.0952 c -0.8949,15.7536 15.4643,15.1025 15.4643,15.1025 h 8.773 c 3.5636,0 7.7369,-10.4971 12.4336,-10.4971 4.6966,0 9.9159,10.503 15.5713,10.503 2.95341,-0.1675 -1.64064,0.03 7.793,-0.048 l 0.076,26.6044 c -0.099,0.5247 -0.2323,0.8635 -0.416,1.2305 -0.5778,1.1542 -0.7952,1.3093 -1.9497,1.3916 -1.3647,0.097 -1.3587,0.1006 -7.1426,-3.6284 -1.654,-1.0663 -2.9194,-1.6375 -3.8657,-1.7446 -1.2659,-0.1434 -1.5372,-0.041 -2.71,1.018 -1.047,0.945 -1.4018,1.5739 -1.8076,3.2022 -0.8049,3.2296 -1.2256,7.2391 -1.27,11.2822 h -0.01 c -2e-4,0.1049 0,0.21 0.01,0.315 0,0.1049 -0.01,0.2099 -0.01,0.3149 h 0.01 c 0.041,4.0431 0.4564,8.0533 1.2583,11.2837 0.4042,1.6287 0.76,2.2577 1.8061,3.2036 1.1717,1.0596 1.4426,1.1616 2.7085,1.0196 0.9464,-0.1062 2.2123,-0.6755 3.8672,-1.7402 5.7875,-3.7235 5.7824,-3.7212 7.147,-3.6226 1.1544,0.084 1.3715,0.2383 1.9482,1.393 0.1834,0.3672 0.3158,0.7071 0.4146,1.232 l -0.01,16.7929 c -52.4143,0.7048 -43.36553,0.312 -95.7833,0.312 z"
           style="fill:#b68a45;fill-opacity:1;stroke:#927038;stroke-width:5.42624998;stroke-miterlimit:4;stroke-dasharray:none;stroke-opacity:1"
           inkscape:connector-curvature="0"
           sodipodi:nodetypes="ccscccccsccccccccccsscccccccccccccccccccccccc" />
        <path
           sodipodi:nodetypes="ccccccccccccccccsccccccczccc"
           inkscape:connector-curvature="0"
           id="path2557"
           d="m -955.84559,1651.0069 1.60389,0.7087 0.3128,22.6487 c -0.099,0.5247 -0.2323,0.8638 -0.416,1.2309 -0.5778,1.1542 -0.7947,1.309 -1.9492,1.3913 -1.3646,0.097 -1.9845,-0.1878 -7.7685,-3.9167 -1.654,-1.0663 -2.9188,-1.6371 -3.8651,-1.7442 -1.5059,0.2429 -1.4617,0.335 -2.6344,1.3935 -1.047,0.9449 -1.4779,1.1984 -1.8837,2.8267 -0.8049,3.2296 -1.7271,10.7923 -1.7715,14.8354 l -0.01,-3e-4 c -2e-4,0.1049 0,0.2096 0.01,0.3146 -10e-4,0.1049 -0.01,0.2096 -0.01,0.3146 l 0.01,3e-4 c 0.041,4.0431 0.9253,8.7633 1.7271,11.9938 0.4043,1.6286 0.7595,2.2586 1.8055,3.2046 1.1717,1.0595 1.4426,1.1614 2.7085,1.0193 0.9464,-0.1062 2.2118,-0.6758 3.8668,-1.7405 5.7876,-3.7234 5.8068,-3.9368 7.1714,-3.8382 1.1544,0.084 1.3712,0.2384 1.9478,1.3931 0.1835,0.3672 0.3162,0.7065 0.4149,1.2314 l -0.3814,12.7575 -100.0591,-0.1467 c 26.7891,-20.2992 52.108,-51.7491 67.90326,-64.4281 0,0 6.50809,-10.0596 11.07893,-10.2769 4.57084,-0.2173 8.7762,7.3133 8.7762,7.3133 l 3.59508,1.8763 z"
           style="fill:#ccac78;fill-opacity:1;stroke:none;stroke-width:5.42624998;stroke-miterlimit:4;stroke-dasharray:none;stroke-opacity:1" />
        <text
           xml:space="preserve"
           style="font-style:normal;font-variant:normal;font-weight:normal;font-stretch:normal;font-size:37.55853653px;line-height:1.25;font-family:'Bebas Neue';-inkscape-font-specification:'Bebas Neue';text-align:center;letter-spacing:0px;word-spacing:0px;text-anchor:middle;fill:#ffffff;fill-opacity:1;stroke:none;stroke-width:2.01206446"
           x="-1059.353"
           y="-1611.0767"
           id="text2561"
           transform="scale(1,-1)"><tspan
             sodipodi:role="line"
             id="tspan2559"
             x="-1059.353"
             y="-1611.0767"
             style="font-style:normal;font-variant:normal;font-weight:normal;font-stretch:normal;font-family:Digitalt;-inkscape-font-specification:Digitalt;fill:#ffffff;stroke-width:2.01206446">then</tspan></text>
        <text
           xml:space="preserve"
           style="font-style:normal;font-variant:normal;font-weight:normal;font-stretch:normal;font-size:37.55853653px;line-height:1.25;font-family:'Bebas Neue';-inkscape-font-specification:'Bebas Neue';text-align:center;letter-spacing:0px;word-spacing:0px;text-anchor:middle;fill:#ffffff;fill-opacity:1;stroke:none;stroke-width:2.01206446"
           x="-1008.3993"
           y="-1674.8088"
           id="text2565"
           transform="scale(1,-1)"><tspan
             sodipodi:role="line"
             id="tspan2563"
             x="-1008.3993"
             y="-1674.8088"
             style="font-style:normal;font-variant:normal;font-weight:normal;font-stretch:normal;font-family:Digitalt;-inkscape-font-specification:Digitalt;fill:#ffffff;stroke-width:2.01206446">if</tspan></text>
        <g
           id="g2469"
           transform="translate(428.05796,1577.4326)">
          <rect
             ry="11.329442"
             rx="11.68515"
             transform="scale(1,-1)"
             y="-125.71913"
             x="-1518.5787"
             height="37.757042"
             width="37.757042"
             id="rect2461"
             style="opacity:1;fill:#0032f5;fill-opacity:1;stroke:#ffffff;stroke-width:2;stroke-miterlimit:4;stroke-dasharray:none;stroke-opacity:1" />
          <g
             style="fill:#ffffff"
             transform="matrix(0.11942495,0.11749836,0.11749836,-0.11942495,-1518.7832,107.0828)"
             id="g2467">
            <title
               id="title2463">Layer 1</title>
            <path
               style="fill:#ffffff;fill-rule:evenodd;stroke-width:1.25;stroke-linejoin:round;stroke-miterlimit:4"
               inkscape:connector-curvature="0"
               stroke-miterlimit="4"
               id="path2465"
               d="M 80.476791,3.84649 C 66.996879,3.25614 49.271,8.71378 40.968238,14.63436 38.03176,18.11943 47.28662,32.97744 45.413699,34.58947 42.462371,35.942322 33.382819,45.597939 32.590228,47.735661 31.797599,49.873391 16.935759,40.913792 13.049699,42.36591 5.939909,53.431649 1.089979,71.845597 1.997059,81.937539 c 1.52907,4.278915 19.15685,3.980179 19.60162,6.397743 -0.330481,3.203857 3.432669,15.867478 4.885139,17.633048 1.45245,1.76557 -13.55446,9.76252 -13.92264,13.33971 6.340731,11.76687 19.97086,24.24561 29.298611,28.40882 4.515789,0.77728 12.895691,-14.58812 15.2416,-13.78716 2.65818,1.8555 15.638058,4.81479 17.904041,4.42639 2.26593,-0.38838 1.521027,16.4871 5.532372,19.1811 14.034286,0.58659 30.358768,-4.4645 38.702528,-10.32827 2.96069,-3.46496 -6.19522,-18.39219 -4.31113,-19.9914 2.96069,-1.33269 12.11372,-10.92926 12.92121,-13.06155 0.80746,-2.13227 15.34598,6.66174 19.6871,5.07951 7.51844,-11.24549 11.77134,-29.131788 10.83276,-39.220892 -1.54244,-4.2742 -19.17371,-3.921089 -19.62605,-6.337265 0.32046,-3.20488 -3.47602,-15.859871 -4.93398,-17.620972 -1.45795,-1.76112 12.93781,-9.36475 13.65398,-13.36388 C 141.27357,31.155051 128.28973,18.168011 118.98387,13.95708 114.47215,13.15669 106.02295,28.484659 103.68115,27.6717 101.03273,25.80259 88.057341,22.77175 85.789359,23.14853 83.521377,23.525321 83.91651,6.653721 80.47679,3.846491 Z m 1.355637,57.894042 c 10.671585,0 19.332872,8.589401 19.332872,19.169006 0,10.579605 -8.661287,19.169022 -19.332872,19.169022 -10.671646,0 -19.332939,-8.589417 -19.332939,-19.169022 0,-10.579605 8.661293,-19.169006 19.332939,-19.169006 z" />
          </g>
        </g>
      </g>
      <rect
         style="opacity:1;fill:#ffffff;fill-opacity:1;stroke:none;stroke-width:2.33531046;stroke-miterlimit:4;stroke-dasharray:none;stroke-opacity:1"
         id="rect2603"
         width="46.330078"
         height="4.0328164"
         x="-959.35657"
         y="-1722.9802"
         transform="matrix(0.9999721,0.00747001,0.02696542,-0.99963637,0,0)"
         ry="2.0164082"
         rx="4.0446839" />
      <rect
         rx="2.2686081"
         ry="1.9705567"
         transform="matrix(0.9999967,-0.00256827,-0.0230192,-0.99973502,0,0)"
         y="-1712.887"
         x="-1074.6338"
         height="3.9411135"
         width="26.248585"
         id="rect2605"
         style="opacity:1;fill:#ffffff;fill-opacity:1;stroke:none;stroke-width:2.71123862;stroke-miterlimit:4;stroke-dasharray:none;stroke-opacity:1" />
    </g>
  </g>
</svg>
