<?xml version="1.0" encoding="UTF-8" standalone="no"?>
<!-- Created with Inkscape (http://www.inkscape.org/) -->

<svg
   xmlns:dc="http://purl.org/dc/elements/1.1/"
   xmlns:cc="http://creativecommons.org/ns#"
   xmlns:rdf="http://www.w3.org/1999/02/22-rdf-syntax-ns#"
   xmlns:svg="http://www.w3.org/2000/svg"
   xmlns="http://www.w3.org/2000/svg"
   xmlns:sodipodi="http://sodipodi.sourceforge.net/DTD/sodipodi-0.dtd"
   xmlns:inkscape="http://www.inkscape.org/namespaces/inkscape"
   width="290.24689mm"
   height="177.47612mm"
   viewBox="0 0 290.2469 177.47613"
   version="1.1"
   id="svg2283"
   inkscape:version="0.92.3 (2405546, 2018-03-11)"
   sodipodi:docname="control_for_each.svg">
  <defs
     id="defs2277" />
  <sodipodi:namedview
     id="base"
     pagecolor="#ffffff"
     bordercolor="#666666"
     borderopacity="1.0"
     inkscape:pageopacity="0.0"
     inkscape:pageshadow="2"
     inkscape:zoom="0.35"
     inkscape:cx="1266.7558"
     inkscape:cy="219.10071"
     inkscape:document-units="mm"
     inkscape:current-layer="layer1"
     showgrid="false"
     fit-margin-top="0"
     fit-margin-left="0"
     fit-margin-right="0"
     fit-margin-bottom="0"
     inkscape:window-width="1920"
     inkscape:window-height="1001"
     inkscape:window-x="0"
     inkscape:window-y="0"
     inkscape:window-maximized="1" />
  <metadata
     id="metadata2280">
    <rdf:RDF>
      <cc:Work
         rdf:about="">
        <dc:format>image/svg+xml</dc:format>
        <dc:type
           rdf:resource="http://purl.org/dc/dcmitype/StillImage" />
        <dc:title></dc:title>
      </cc:Work>
    </rdf:RDF>
  </metadata>
  <g
     inkscape:label="Layer 1"
     inkscape:groupmode="layer"
     id="layer1"
     transform="translate(419.82914,-573.61337)">
    <g
       id="g2995"
       transform="matrix(0.62226092,0,0,-0.62226092,822.55405,1683.3354)"
       inkscape:export-filename="/home/peter/allblocks.png"
       inkscape:export-xdpi="42.094723"
       inkscape:export-ydpi="42.094723">
      <g
         transform="translate(-186.67873,68.234294)"
         id="g2886">
        <path
           style="fill:#b68a45;fill-opacity:1;stroke:#927038;stroke-width:7.23499966;stroke-miterlimit:4;stroke-dasharray:none;stroke-opacity:1"
           d="m -1934.6797,-1616.041 h -398.5176 l -6.666,0.01 c -7.5405,0 -14.4996,14.0027 -20.7617,14.0039 -6.2623,0 -11.8267,-13.9961 -16.5781,-13.9961 h -11.6973 c 0,0 -21.8123,-0.8681 -20.6191,20.1367 l 0.014,20.1289 0.014,298.127 c -1.1737,19.2507 20.6387,20.1172 20.6387,20.1172 h 11.6973 c 4.7515,0 10.3179,13.9974 16.58,13.9961 6.2623,0 13.2212,-14.0039 20.7617,-14.0039 168.282,-0.081 200.8919,0 368.3223,0 h 20.7617 c 6.2622,0 11.8947,-0.8008 16.5782,0 h 11.6972 l 31.8731,-0.016 0.088,-30.9003 h -4.752 -11.6973 -16.5781 -20.7617 -24.25 -282.0723 -20.7617 -16.5801 -11.6972 c 0,0 -21.8124,-0.8666 -20.6387,-20.1172 l -0.014,-20.1289 -0.014,-20.127 c -1.1932,-21.0048 20.6191,-20.1367 20.6191,-20.1367 h 11.6973 c 4.7514,0 10.3158,13.9961 16.5781,13.9961 6.2621,0 13.2212,-14.0039 20.7617,-14.0039 h 306.3223 l 54.3116,-0.6959 -0.4597,-7.2123 0.014,-18.4434 c -0.047,-0.1455 -0.083,-0.3042 -0.1465,-0.4336 -0.3852,-0.7694 -0.6505,-1.2071 -1.0117,-1.4648 -0.3608,-0.2579 -0.8179,-0.3357 -1.5879,-0.3907 -0.4548,-0.032 -0.7942,-0.056 -1.1699,0 -0.3759,0.059 -0.7879,0.2017 -1.3828,0.504 -1.1899,0.6044 -3.1167,1.846 -6.9727,4.332 -1.1025,0.7108 -2.0749,1.2567 -2.9297,1.6426 -0.8552,0.3858 -1.5918,0.6121 -2.2226,0.6836 -0.844,0.096 -1.3567,0.1091 -1.8535,-0.076 -0.4968,-0.1868 -0.9781,-0.5737 -1.7598,-1.2793 -0.698,-0.63 -1.1646,-1.1542 -1.5254,-1.793 -0.3604,-0.6388 -0.6142,-1.3913 -0.8848,-2.4765 -0.5366,-2.1532 -0.9449,-4.5669 -1.2265,-7.1153 -0.2816,-2.5482 -0.4372,-5.2303 -0.4668,-7.9258 h -0.014 c -10e-5,-0.1397 0,-0.28 0,-0.4199 0,-0.1397 -0.014,-0.2799 -0.014,-0.4199 h 0.014 c 0.027,-2.6953 0.1798,-5.3789 0.459,-7.9277 0.2792,-2.5488 0.6841,-4.9636 1.2187,-7.1172 0.2694,-1.0858 0.5227,-1.8375 0.8829,-2.4766 0.3601,-0.6392 0.8279,-1.1642 1.5253,-1.7949 0.781,-0.7064 1.2612,-1.0945 1.7579,-1.2813 0.4965,-0.1869 1.0095,-0.1711 1.8535,-0.078 0.6308,0.071 1.369,0.2966 2.2246,0.6817 0.8552,0.3849 1.8283,0.9288 2.9316,1.6386 3.8584,2.4822 5.7861,3.723 6.9766,4.3262 0.5952,0.3017 1.0048,0.4432 1.3808,0.502 0.3758,0.059 0.7171,0.033 1.1719,0 0.7698,-0.056 1.2271,-0.1366 1.5879,-0.3946 0.3608,-0.258 0.6252,-0.693 1.0098,-1.4629 0.081,-0.1618 0.128,-0.3581 0.1836,-0.5429 l 0.014,-31.4903 0.014,-19.0429 c -0.059,-0.161 -0.095,-0.3496 -0.168,-0.4981 -0.3852,-0.7695 -0.6506,-1.2072 -1.0117,-1.4648 -0.3609,-0.2578 -0.818,-0.3359 -1.5879,-0.3907 -0.4548,-0.032 -0.794,-0.056 -1.1699,0 -0.3757,0.059 -0.788,0.2018 -1.3828,0.504 -1.19,0.6044 -3.1167,1.846 -6.9727,4.332 -1.1028,0.7108 -2.0748,1.2566 -2.9296,1.6426 -0.8552,0.3856 -1.5919,0.612 -2.2227,0.6836 -0.8439,0.096 -1.3567,0.1065 -1.8535,-0.08 -0.4968,-0.1867 -0.9779,-0.5737 -1.7598,-1.2793 -0.698,-0.63 -1.1646,-1.1543 -1.5254,-1.793 -0.3605,-0.6388 -0.6142,-1.391 -0.8847,-2.4766 -0.5367,-2.1529 -0.945,-4.5668 -1.2266,-7.1152 -0.2816,-2.5483 -0.4372,-5.2304 -0.4668,-7.9258 h -0.014 c -4e-4,-0.1398 0,-0.2799 0,-0.4199 0,-0.14 -0.014,-0.2799 -0.014,-0.4199 h 0.014 c 0.027,-2.6955 0.1798,-5.3789 0.459,-7.9277 0.2792,-2.5488 0.6841,-4.9636 1.2188,-7.1172 0.2693,-1.0858 0.5228,-1.8375 0.8828,-2.4766 0.3601,-0.6391 0.8279,-1.1642 1.5254,-1.7949 0.7809,-0.7064 1.2614,-1.0945 1.7578,-1.2813 0.4965,-0.1868 1.0095,-0.1731 1.8535,-0.08 0.6308,0.071 1.3693,0.2965 2.2246,0.6816 0.8552,0.3851 1.8284,0.9289 2.9316,1.6387 3.8584,2.4822 5.7861,3.7229 6.9766,4.3261 0.5951,0.3016 1.0049,0.4432 1.3809,0.502 0.3757,0.059 0.717,0.033 1.1718,0 0.7696,-0.056 1.2273,-0.1365 1.5879,-0.3945 0.3608,-0.258 0.6253,-0.6931 1.0098,-1.4629 0.104,-0.2074 0.156,-0.4724 0.2344,-0.6953 l 0.033,-23.3418 0.029,-18.1856 0.012,-6.8828 c -0.1213,-0.4896 -0.2474,-0.9212 -0.4434,-1.3125 -0.3852,-0.7695 -0.6506,-1.2072 -1.0117,-1.4648 -0.3609,-0.2578 -0.8181,-0.3359 -1.5879,-0.3907 -0.4549,-0.032 -0.794,-0.057 -1.1699,0 -0.3757,0.059 -0.788,0.2015 -1.3828,0.5039 -1.19,0.6044 -3.1167,1.8462 -6.9727,4.3321 -1.1026,0.7109 -2.0747,1.2567 -2.9297,1.6426 -0.855,0.3859 -1.5918,0.6121 -2.2226,0.6835 -0.8439,0.096 -1.3569,0.1066 -1.8535,-0.08 -0.4968,-0.1868 -0.9779,-0.5737 -1.7598,-1.2793 -0.6981,-0.63 -1.1647,-1.1542 -1.5254,-1.793 -0.3606,-0.6384 -0.6141,-1.3911 -0.8847,-2.4766 -0.5367,-2.1532 -0.945,-4.5671 -1.2266,-7.1152 -0.2817,-2.5484 -0.4372,-5.2302 -0.4668,-7.9258 h -0.016 c -3e-4,-0.1398 9e-4,-0.28 0.016,-0.4199 0,-0.1399 -0.016,-0.2803 -0.016,-0.4199 h 0.016 c 0.027,-2.6956 0.1798,-5.3792 0.459,-7.9278 0.2792,-2.5488 0.6841,-4.9635 1.2187,-7.1171 0.2695,-1.0858 0.5227,-1.8374 0.8828,-2.4766 0.3603,-0.6392 0.828,-1.1643 1.5254,-1.7949 0.781,-0.7064 1.2612,-1.0945 1.7578,-1.2813 0.4966,-0.187 1.0096,-0.1713 1.8536,-0.078 0.6308,0.071 1.3691,0.2966 2.2246,0.6816 0.8553,0.385 1.8283,0.9288 2.9316,1.6387 3.8584,2.4823 5.7858,3.723 6.9766,4.3262 0.5952,0.3016 1.005,0.443 1.3808,0.5019 0.3758,0.059 0.7171,0.035 1.1719,0 0.7697,-0.056 1.2271,-0.1365 1.5879,-0.3945 0.3608,-0.2579 0.625,-0.6932 1.0098,-1.4629 0.2256,-0.4519 0.3817,-0.9037 0.5097,-1.5156 l 0.035,-22.1524 c -16.1002,-0.3206 -29.9341,0.2879 -44.4517,0.1207 z"
           transform="matrix(0.75000002,0,0,-0.75000002,0,500.00002)"
           id="path2860"
           inkscape:connector-curvature="0"
           sodipodi:nodetypes="ccccscccccsccsscccccccccccccccccssscccccccccccccccccccsccsccccccccccscccccccccccccccccccsccsccccccccccccccccccccccsccccccccccccccccccccccccccc" />
        <path
           sodipodi:nodetypes="cccccccccccccccccccccscccccccccccscccccccccccccccccsccccscccccccccccscccccsccccccccc"
           inkscape:connector-curvature="0"
           style="fill:#ccac78;fill-opacity:1;stroke:none;stroke-width:5.42624998;stroke-miterlimit:4;stroke-dasharray:none;stroke-opacity:1"
           d="m -1756.4987,1709.119 c 67.8907,-62.5331 290.1132,-161.0556 312.8725,-179.0376 l 24.3406,-0.2229 c -0.6383,10.4217 -0.069,5.188 -0.1443,15.7296 l -6.8434,-4.4382 c -1.8971,-0.6171 -3.4642,-1.8941 -5.6405,-1.7499 -2.1252,0.1162 -3.0321,1.6029 -4.5989,2.8103 -1.3978,2.1988 -1.6028,4.1185 -2.2139,6.2412 l -0.5928,9.7231 0.8507,10.5618 c 0.675,2.0668 1.223,3.6768 2.5578,5.9212 1.6058,0.8076 1.5112,1.8944 5.1979,1.9405 2.9351,-0.5774 5.5658,-2.5254 8.2724,-4.1688 1.0424,-0.8107 2.0341,-1.2661 3.0512,-1.8991 0.044,9.8185 0.012,24.8248 0.056,34.6432 -0.044,0.1209 -0.071,0.2623 -0.126,0.3736 -0.2889,0.5771 -0.4881,0.9053 -0.7588,1.0986 -0.2708,0.1933 -0.6136,0.2518 -1.1909,0.293 -0.3412,0.024 -0.5956,0.042 -0.8775,0 -0.2818,-0.044 -0.5909,-0.1513 -1.0371,-0.378 -0.8924,-0.4533 -2.3374,-1.3846 -5.2294,-3.249 -0.827,-0.5331 -1.556,-0.9425 -2.1973,-1.2319 -0.6412,-0.2894 -1.1939,-0.4592 -1.667,-0.5127 -0.6329,-0.072 -1.0176,-0.081 -1.3901,0.059 -0.3727,0.1399 -0.7336,0.4302 -1.3199,0.9594 -0.5235,0.4725 -0.8734,0.8657 -1.144,1.3448 -0.2704,0.479 -0.4605,1.0433 -0.6636,1.8574 -0.4024,1.6148 -0.7087,3.4252 -0.9199,5.3364 -0.2113,1.9113 -0.3279,3.9228 -0.35,5.9444 h -0.01 c -4e-4,0.1049 0,0.2099 0,0.3149 0,0.1049 -0.01,0.21 -0.01,0.3149 h 0.01 c 0.02,2.0216 0.1347,10.0343 0.3441,11.9458 0.2095,1.9116 0.5132,3.7227 0.9141,5.3379 0.2021,0.8144 0.392,1.3781 0.6622,1.8575 0.27,0.4793 0.621,0.8732 1.144,1.3462 0.5858,0.5297 0.946,0.8208 1.3183,0.9609 0.3724,0.1401 0.7571,0.1296 1.3901,0.059 0.4732,-0.053 1.0269,-0.2225 1.6685,-0.5112 0.6416,-0.2888 1.3713,-0.6967 2.1987,-1.2291 2.8938,-1.8616 4.3396,-2.7922 5.2324,-3.2446 0.4464,-0.2262 0.7537,-0.3324 1.0357,-0.3764 0.2819,-0.044 0.5378,-0.025 0.8789,0 0.5773,0.042 0.9204,0.1023 1.191,0.2959 0.2705,0.1935 0.469,0.5197 0.7573,1.0971 0.078,0.1555 0.117,0.3544 0.1758,0.5215 l 0.025,16.0064 0.02,9.1391 0.01,5.1621 c -0.091,0.3672 -0.1855,0.6908 -0.3325,0.9844 -0.2889,0.5771 -0.488,0.9054 -0.7588,1.0986 -0.2707,0.1933 -0.6137,0.2518 -1.1909,0.293 -0.3412,0.024 -0.5956,0.043 -0.8774,0 -0.2819,-0.044 -0.591,-0.1513 -1.0371,-0.3779 -0.8925,-0.4533 -2.3375,-1.3846 -5.2296,-3.2491 -0.8269,-0.5331 -1.556,-0.9425 -2.1973,-1.2319 -0.6412,-0.2894 -1.1939,-0.4591 -1.6669,-0.5127 -0.633,-0.072 -1.0176,-0.081 -1.3902,0.059 -0.3725,0.14 -0.7334,0.4303 -1.3198,0.9595 -0.5235,0.4725 -0.8736,0.8656 -1.144,1.3447 -0.2705,0.4791 -0.4607,1.0433 -0.6636,1.8574 -0.4025,1.6149 -0.7087,3.4252 -0.9199,5.3365 -0.2113,1.9112 -0.3279,5.4227 -0.3501,7.4443 h -0.01 c -2e-4,0.1049 0,0.21 0.01,0.3149 0,0.1049 -0.01,0.21 -0.01,0.315 h 0.01 c 0.02,2.0215 0.1349,8.5342 0.3443,10.4458 0.2094,1.9116 0.5131,3.7226 0.9141,5.3379 0.2021,0.8143 0.392,1.3781 0.6621,1.8574 0.2701,0.4793 0.621,0.8732 1.144,1.3462 0.5858,0.5298 0.9459,0.8208 1.3184,0.9609 0.3724,0.1402 0.7571,0.1297 1.3901,0.059 0.4732,-0.053 1.0269,-0.2225 1.6685,-0.5112 0.6415,-0.2888 1.3712,-0.6967 2.1987,-1.229 2.8938,-1.8617 4.3395,-2.7922 5.2324,-3.2446 0.4464,-0.2263 0.7538,-0.3325 1.0357,-0.3765 0.2818,-0.044 0.5377,-0.026 0.8788,0 0.5773,0.042 0.9204,0.1024 1.191,0.2959 0.2706,0.1935 0.4689,0.5198 0.7573,1.0971 0.1692,0.3389 0.2863,0.6778 0.3823,1.1368 l -0.3322,11.2574 z"
           id="path2804" />
        <rect
           ry="4.5825672"
           rx="4.8838048"
           transform="scale(1,-1)"
           y="-1700.2102"
           x="-1652.7393"
           height="39.805294"
           width="116.47231"
           id="rect2773"
           style="opacity:0.5;fill:#e6e6e6;fill-opacity:1;stroke:none;stroke-width:17.1426239;stroke-miterlimit:4;stroke-dasharray:none;stroke-opacity:1" />
        <text
           xml:space="preserve"
           style="font-style:normal;font-variant:normal;font-weight:normal;font-stretch:normal;font-size:37.55853653px;line-height:1.25;font-family:'Bebas Neue';-inkscape-font-specification:'Bebas Neue';text-align:center;letter-spacing:0px;word-spacing:0px;text-anchor:middle;fill:#000000;fill-opacity:1;stroke:none;stroke-width:2.01206446"
           x="-1594.757"
           y="-1667.1621"
           id="text2777"
           transform="scale(1,-1)"><tspan
             sodipodi:role="line"
             id="tspan2775"
             x="-1594.757"
             y="-1667.1621"
             style="font-style:normal;font-variant:normal;font-weight:normal;font-stretch:normal;font-family:PAGRevolucionW00-Regular;-inkscape-font-specification:PAGRevolucionW00-Regular;fill:#000000;stroke-width:2.01206446">number</tspan></text>
        <text
           transform="scale(1,-1)"
           id="text2781"
           y="-1667.1621"
           x="-1723.8427"
           style="font-style:normal;font-variant:normal;font-weight:normal;font-stretch:normal;font-size:37.55853653px;line-height:1.25;font-family:'Bebas Neue';-inkscape-font-specification:'Bebas Neue';text-align:center;letter-spacing:0px;word-spacing:0px;text-anchor:middle;fill:#ffffff;fill-opacity:1;stroke:none;stroke-width:2.01206446"
           xml:space="preserve"><tspan
             style="font-style:normal;font-variant:normal;font-weight:normal;font-stretch:normal;font-family:PAGRevolucionW00-Regular;-inkscape-font-specification:PAGRevolucionW00-Regular;fill:#ffffff;stroke-width:2.01206446"
             y="-1667.1621"
             x="-1723.8427"
             id="tspan2779"
             sodipodi:role="line">for each</tspan></text>
        <text
           transform="scale(1,-1)"
           id="text2771"
           y="-1606.4299"
           x="-1473.2714"
           style="font-style:normal;font-variant:normal;font-weight:normal;font-stretch:normal;font-size:37.55853653px;line-height:1.25;font-family:'Bebas Neue';-inkscape-font-specification:'Bebas Neue';text-align:center;letter-spacing:0px;word-spacing:0px;text-anchor:middle;fill:#ffffff;fill-opacity:1;stroke:none;stroke-width:2.01206446"
           xml:space="preserve"><tspan
             style="font-style:normal;font-variant:normal;font-weight:normal;font-stretch:normal;font-family:PAGRevolucionW00-Regular;-inkscape-font-specification:PAGRevolucionW00-Regular;fill:#ffffff;stroke-width:2.01206446"
             y="-1606.4299"
             x="-1473.2714"
             id="tspan2769"
             sodipodi:role="line">to</tspan></text>
        <text
           xml:space="preserve"
           style="font-style:normal;font-variant:normal;font-weight:normal;font-stretch:normal;font-size:37.55853653px;line-height:1.25;font-family:'Bebas Neue';-inkscape-font-specification:'Bebas Neue';text-align:center;letter-spacing:0px;word-spacing:0px;text-anchor:middle;fill:#ffffff;fill-opacity:1;stroke:none;stroke-width:2.01206446"
           x="-1492.8425"
           y="-1667.1621"
           id="text2785"
           transform="scale(1,-1)"><tspan
             sodipodi:role="line"
             id="tspan2783"
             x="-1492.8425"
             y="-1667.1621"
             style="font-style:normal;font-variant:normal;font-weight:normal;font-stretch:normal;font-family:PAGRevolucionW00-Regular;-inkscape-font-specification:PAGRevolucionW00-Regular;fill:#ffffff;stroke-width:2.01206446">from</tspan></text>
        <text
           xml:space="preserve"
           style="font-style:normal;font-variant:normal;font-weight:normal;font-stretch:normal;font-size:37.55853653px;line-height:1.25;font-family:'Bebas Neue';-inkscape-font-specification:'Bebas Neue';text-align:center;letter-spacing:0px;word-spacing:0px;text-anchor:middle;fill:#ffffff;fill-opacity:1;stroke:none;stroke-width:2.01206446"
           x="-1474.7986"
           y="-1546.4299"
           id="text2865"
           transform="scale(1,-1)"><tspan
             sodipodi:role="line"
             id="tspan2863"
             x="-1474.7986"
             y="-1546.4299"
             style="font-style:normal;font-variant:normal;font-weight:normal;font-stretch:normal;font-family:PAGRevolucionW00-Regular;-inkscape-font-specification:PAGRevolucionW00-Regular;fill:#ffffff;stroke-width:2.01206446">by</tspan></text>
        <text
           xml:space="preserve"
           style="font-style:normal;font-variant:normal;font-weight:normal;font-stretch:normal;font-size:37.55853653px;line-height:1.25;font-family:'Bebas Neue';-inkscape-font-specification:'Bebas Neue';text-align:center;letter-spacing:0px;word-spacing:0px;text-anchor:middle;fill:#ffffff;fill-opacity:1;stroke:none;stroke-width:2.01206446"
           x="-1773.6892"
           y="-1483.3972"
           id="text2869"
           transform="scale(1,-1)"><tspan
             sodipodi:role="line"
             id="tspan2867"
             x="-1773.6892"
             y="-1483.3972"
             style="font-style:normal;font-variant:normal;font-weight:normal;font-stretch:normal;font-family:PAGRevolucionW00-Regular;-inkscape-font-specification:PAGRevolucionW00-Regular;fill:#ffffff;stroke-width:2.01206446">do</tspan></text>
      </g>
      <g
         id="g2948">
        <path
           style="fill:#2974af;fill-opacity:1;stroke:#225d8c;stroke-width:5.42624998;stroke-miterlimit:4;stroke-dasharray:none;stroke-opacity:1"
           d="m -1533.0227,1720.333 0.1777,60.059 -24.2345,0.2657 -47.2703,-0.3021 -0.08,-8.5249 c -0.073,-7.7563 -0.1384,-8.6421 -0.7264,-9.8255 -0.5745,-1.1558 -0.7909,-1.3112 -1.9451,-1.3969 -1.3644,-0.1014 -1.3598,-0.104 -7.1546,3.608 -1.6571,1.0615 -2.9236,1.6286 -3.8702,1.733 -1.2662,0.1395 -1.5369,0.037 -2.7065,-1.0247 -1.0442,-0.948 -1.3982,-1.5786 -1.7993,-3.2081 -0.7954,-3.232 -1.2039,-7.2424 -1.2365,-11.2856 h -0.01 c 4e-4,-0.105 0.01,-0.2096 0.01,-0.3146 -6e-4,-0.105 0,-0.2096 0,-0.3146 h 0.01 c 0.052,-4.043 0.4804,-8.0507 1.2916,-11.2787 0.409,-1.6275 0.7661,-2.2564 1.8149,-3.1994 1.1749,-1.0561 1.4455,-1.1584 2.7115,-1.012 0.946,0.109 2.2098,0.6823 3.8616,1.7518 5.7767,3.7402 5.7721,3.7376 7.1369,3.6429 1.1547,-0.08 1.3719,-0.2344 1.9519,-1.3874 0.5938,-1.1805 0.6636,-2.066 0.7743,-9.8219 l 0.1217,-8.5244 47.2704,0.3021 z"
           id="path1502"
           inkscape:connector-curvature="0"
           sodipodi:nodetypes="cccccccccccccccccccscccccc" />
        <path
           sodipodi:nodetypes="ccccc"
           inkscape:connector-curvature="0"
           id="path1504"
           d="m -1534.5998,1722.9201 -0.4993,55.1398 -66.1732,-0.7497 c 42.6803,-42.4867 55.525,-43.9618 63.7376,-54.3302 z"
           style="fill:#37abc8;fill-opacity:1;stroke:none;stroke-width:5.42624998;stroke-miterlimit:4;stroke-dasharray:none;stroke-opacity:1" />
        <rect
           ry="12.192355"
           rx="5.969604"
           transform="scale(1,-1)"
           y="-1770.2092"
           x="-1598.51"
           height="39.805294"
           width="59.067501"
           id="rect12558"
           style="opacity:0.5;fill:#e6e6e6;fill-opacity:1;stroke:none;stroke-width:12.20788097;stroke-miterlimit:4;stroke-dasharray:none;stroke-opacity:1" />
        <text
           xml:space="preserve"
           style="font-style:normal;font-variant:normal;font-weight:normal;font-stretch:normal;font-size:14px;line-height:1.25;font-family:'Bebas Neue';-inkscape-font-specification:'Bebas Neue';text-align:center;letter-spacing:0px;word-spacing:0px;text-anchor:middle;fill:#000000;fill-opacity:1;stroke:none;stroke-width:0.75"
           x="-1569.2489"
           y="-1738.6263"
           id="text12562"
           transform="scale(1,-1)"><tspan
             sodipodi:role="line"
             id="tspan12560"
             x="-1569.2489"
             y="-1738.6263"
             style="font-size:37.55800247px;stroke-width:0.75">1</tspan></text>
        <rect
           rx="2.2686081"
           ry="1.9705567"
           transform="matrix(0.9999967,-0.00256827,-0.0230192,-0.99973502,0,0)"
           y="-1772.9382"
           x="-1605.3293"
           height="3.9411135"
           width="26.248585"
           id="rect12566"
           style="opacity:1;fill:#ffffff;fill-opacity:1;stroke:none;stroke-width:2.71123862;stroke-miterlimit:4;stroke-dasharray:none;stroke-opacity:1" />
      </g>
      <g
         transform="translate(0,-1.5)"
         id="g2940">
        <path
           sodipodi:nodetypes="cccccccccccccccccccscccccc"
           inkscape:connector-curvature="0"
           id="path2888"
           d="m -1533.0227,1660.333 0.1777,60.059 -24.2345,0.2657 -47.2703,-0.3021 -0.08,-8.5249 c -0.073,-7.7563 -0.1384,-8.6421 -0.7264,-9.8255 -0.5745,-1.1558 -0.7909,-1.3112 -1.9451,-1.3969 -1.3644,-0.1014 -1.3598,-0.104 -7.1546,3.608 -1.6571,1.0615 -2.9236,1.6286 -3.8702,1.733 -1.2662,0.1395 -1.5369,0.037 -2.7065,-1.0247 -1.0442,-0.948 -1.3982,-1.5786 -1.7993,-3.2081 -0.7954,-3.232 -1.2039,-7.2424 -1.2365,-11.2856 h -0.01 c 4e-4,-0.105 0.01,-0.2096 0.01,-0.3146 -6e-4,-0.105 0,-0.2096 0,-0.3146 h 0.01 c 0.052,-4.043 0.4804,-8.0507 1.2916,-11.2787 0.409,-1.6275 0.7661,-2.2564 1.8149,-3.1994 1.1749,-1.0561 1.4455,-1.1584 2.7115,-1.012 0.946,0.109 2.2098,0.6823 3.8616,1.7518 5.7767,3.7402 5.7721,3.7376 7.1369,3.6429 1.1547,-0.08 1.3719,-0.2344 1.9519,-1.3874 0.5938,-1.1805 0.6636,-2.066 0.7743,-9.8219 l 0.1217,-8.5244 47.2704,0.3021 z"
           style="fill:#2974af;fill-opacity:1;stroke:#225d8c;stroke-width:5.42624998;stroke-miterlimit:4;stroke-dasharray:none;stroke-opacity:1" />
        <path
           style="fill:#37abc8;fill-opacity:1;stroke:none;stroke-width:5.42624998;stroke-miterlimit:4;stroke-dasharray:none;stroke-opacity:1"
           d="m -1534.5998,1662.9201 -0.4993,55.1398 -66.1732,-0.7497 c 42.6803,-42.4867 55.525,-43.9618 63.7376,-54.3302 z"
           id="path2890"
           inkscape:connector-curvature="0"
           sodipodi:nodetypes="ccccc" />
        <rect
           style="opacity:0.5;fill:#e6e6e6;fill-opacity:1;stroke:none;stroke-width:12.20788097;stroke-miterlimit:4;stroke-dasharray:none;stroke-opacity:1"
           id="rect2892"
           width="59.067501"
           height="39.805294"
           x="-1598.51"
           y="-1710.2092"
           transform="scale(1,-1)"
           rx="5.969604"
           ry="12.192355" />
        <text
           transform="scale(1,-1)"
           id="text2896"
           y="-1678.6263"
           x="-1569.0048"
           style="font-style:normal;font-variant:normal;font-weight:normal;font-stretch:normal;font-size:14px;line-height:1.25;font-family:'Bebas Neue';-inkscape-font-specification:'Bebas Neue';text-align:center;letter-spacing:0px;word-spacing:0px;text-anchor:middle;fill:#000000;fill-opacity:1;stroke:none;stroke-width:0.75"
           xml:space="preserve"><tspan
             style="font-size:37.55800247px;stroke-width:0.75"
             y="-1678.6263"
             x="-1569.0048"
             id="tspan2894"
             sodipodi:role="line">5</tspan></text>
        <rect
           style="opacity:1;fill:#ffffff;fill-opacity:1;stroke:none;stroke-width:2.71123862;stroke-miterlimit:4;stroke-dasharray:none;stroke-opacity:1"
           id="rect2898"
           width="26.248585"
           height="3.9411135"
           x="-1603.9479"
           y="-1712.9259"
           transform="matrix(0.9999967,-0.00256827,-0.0230192,-0.99973502,0,0)"
           ry="1.9705567"
           rx="2.2686081" />
      </g>
      <g
         id="g2956">
        <path
           style="fill:#2974af;fill-opacity:1;stroke:#225d8c;stroke-width:5.42624998;stroke-miterlimit:4;stroke-dasharray:none;stroke-opacity:1"
           d="m -1533.0227,1595.833 0.1777,60.059 -24.2345,0.2657 -47.2703,-0.3021 -0.08,-8.5249 c -0.073,-7.7563 -0.1384,-8.6421 -0.7264,-9.8255 -0.5745,-1.1558 -0.7909,-1.3112 -1.9451,-1.3969 -1.3644,-0.1014 -1.3598,-0.104 -7.1546,3.608 -1.6571,1.0615 -2.9236,1.6286 -3.8702,1.733 -1.2662,0.1395 -1.5369,0.037 -2.7065,-1.0247 -1.0442,-0.948 -1.3982,-1.5786 -1.7993,-3.2081 -0.7954,-3.232 -1.2039,-7.2424 -1.2365,-11.2856 h -0.01 c 4e-4,-0.105 0.01,-0.2096 0.01,-0.3146 -6e-4,-0.105 0,-0.2096 0,-0.3146 h 0.01 c 0.052,-4.043 0.4804,-8.0507 1.2916,-11.2787 0.409,-1.6275 0.7661,-2.2564 1.8149,-3.1994 1.1749,-1.0561 1.4455,-1.1584 2.7115,-1.012 0.946,0.109 2.2098,0.6823 3.8616,1.7518 5.7767,3.7402 5.7721,3.7376 7.1369,3.6429 1.1547,-0.08 1.3719,-0.2344 1.9519,-1.3874 0.5938,-1.1805 0.6636,-2.066 0.7743,-9.8219 l 0.1217,-8.5244 47.2704,0.3021 z"
           id="path2902"
           inkscape:connector-curvature="0"
           sodipodi:nodetypes="cccccccccccccccccccscccccc" />
        <path
           sodipodi:nodetypes="ccccc"
           inkscape:connector-curvature="0"
           id="path2904"
           d="m -1534.5998,1598.4201 -0.4993,55.1398 -66.1732,-0.7497 c 42.6803,-42.4867 55.525,-43.9618 63.7376,-54.3302 z"
           style="fill:#37abc8;fill-opacity:1;stroke:none;stroke-width:5.42624998;stroke-miterlimit:4;stroke-dasharray:none;stroke-opacity:1" />
        <rect
           ry="12.192355"
           rx="5.969604"
           transform="scale(1,-1)"
           y="-1645.7092"
           x="-1598.51"
           height="39.805294"
           width="59.067501"
           id="rect2906"
           style="opacity:0.5;fill:#e6e6e6;fill-opacity:1;stroke:none;stroke-width:12.20788097;stroke-miterlimit:4;stroke-dasharray:none;stroke-opacity:1" />
        <text
           xml:space="preserve"
           style="font-style:normal;font-variant:normal;font-weight:normal;font-stretch:normal;font-size:14px;line-height:1.25;font-family:'Bebas Neue';-inkscape-font-specification:'Bebas Neue';text-align:center;letter-spacing:0px;word-spacing:0px;text-anchor:middle;fill:#000000;fill-opacity:1;stroke:none;stroke-width:0.75"
           x="-1569.2489"
           y="-1614.1263"
           id="text2910"
           transform="scale(1,-1)"><tspan
             sodipodi:role="line"
             id="tspan2908"
             x="-1569.2489"
             y="-1614.1263"
             style="font-size:37.55800247px;stroke-width:0.75">1</tspan></text>
        <rect
           rx="2.2686081"
           ry="1.9705567"
           transform="matrix(0.9999967,-0.00256827,-0.0230192,-0.99973502,0,0)"
           y="-1648.4126"
           x="-1602.4629"
           height="3.9411135"
           width="26.248585"
           id="rect2912"
           style="opacity:1;fill:#ffffff;fill-opacity:1;stroke:none;stroke-width:2.71123862;stroke-miterlimit:4;stroke-dasharray:none;stroke-opacity:1" />
      </g>
    </g>
  </g>
</svg>
