<?xml version="1.0" encoding="UTF-8" standalone="no"?>
<!-- Created with Inkscape (http://www.inkscape.org/) -->

<svg
   xmlns:dc="http://purl.org/dc/elements/1.1/"
   xmlns:cc="http://creativecommons.org/ns#"
   xmlns:rdf="http://www.w3.org/1999/02/22-rdf-syntax-ns#"
   xmlns:svg="http://www.w3.org/2000/svg"
   xmlns="http://www.w3.org/2000/svg"
   xmlns:sodipodi="http://sodipodi.sourceforge.net/DTD/sodipodi-0.dtd"
   xmlns:inkscape="http://www.inkscape.org/namespaces/inkscape"
   width="196.81651mm"
   height="41.140408mm"
   viewBox="0 0 196.81653 41.140409"
   version="1.1"
   id="svg2283"
   inkscape:version="0.92.3 (2405546, 2018-03-11)"
   sodipodi:docname="control_get_start_value.svg">
  <defs
     id="defs2277" />
  <sodipodi:namedview
     id="base"
     pagecolor="#ffffff"
     bordercolor="#666666"
     borderopacity="1.0"
     inkscape:pageopacity="0.0"
     inkscape:pageshadow="2"
     inkscape:zoom="0.35"
     inkscape:cx="538.12079"
     inkscape:cy="51.131753"
     inkscape:document-units="mm"
     inkscape:current-layer="layer1"
     showgrid="false"
     fit-margin-top="0"
     fit-margin-left="0"
     fit-margin-right="0"
     fit-margin-bottom="0"
     inkscape:window-width="1920"
     inkscape:window-height="1001"
     inkscape:window-x="0"
     inkscape:window-y="0"
     inkscape:window-maximized="1" />
  <metadata
     id="metadata2280">
    <rdf:RDF>
      <cc:Work
         rdf:about="">
        <dc:format>image/svg+xml</dc:format>
        <dc:type
           rdf:resource="http://purl.org/dc/dcmitype/StillImage" />
        <dc:title></dc:title>
      </cc:Work>
    </rdf:RDF>
  </metadata>
  <g
     inkscape:label="Layer 1"
     inkscape:groupmode="layer"
     id="layer1"
     transform="translate(365.76173,-665.5073)">
    <g
       id="g26">
      <path
         sodipodi:nodetypes="cccccccccccccccccccscccccc"
         inkscape:connector-curvature="0"
         id="path2310"
         d="m -170.74908,704.73328 0.11064,-37.37243 -15.08018,-0.16527 -166.19681,0.18792 -0.0498,5.30478 c -0.0454,4.82644 -0.0861,5.37764 -0.45201,6.11396 -0.35742,0.71927 -0.49208,0.81597 -1.2103,0.8693 -0.84901,0.0631 -0.84608,0.0647 -4.45202,-2.24512 -1.03109,-0.66053 -1.81918,-1.01341 -2.40822,-1.07838 -0.7879,-0.0869 -0.95635,-0.023 -1.68414,0.63763 -0.64977,0.58991 -0.87011,0.9823 -1.11964,1.99628 -0.49495,2.01115 -0.74926,4.50666 -0.76942,7.02259 h -0.006 c 2.5e-4,0.0653 0.006,0.13042 0.006,0.19576 -3.8e-4,0.0653 0,0.13043 0,0.19576 h 0.006 c 0.0324,2.5158 0.29893,5.00964 0.80371,7.0183 0.25451,1.01273 0.47665,1.40407 1.12928,1.99086 0.73109,0.65711 0.89948,0.72083 1.68726,0.62973 0.58872,-0.0678 1.37507,-0.42457 2.40299,-1.09008 3.59455,-2.32738 3.59169,-2.32576 4.44101,-2.2669 0.71846,0.0498 0.85362,0.14592 1.21459,0.86339 0.3695,0.73458 0.41293,1.28553 0.48182,6.11179 l 0.0757,5.3044 166.19681,-0.18799 z"
         style="fill:#b68a45;fill-opacity:1;stroke:#927038;stroke-width:3.37654328;stroke-miterlimit:4;stroke-dasharray:none;stroke-opacity:1" />
      <path
         style="fill:#ccac78;fill-opacity:1;stroke:none;stroke-width:3.37654328;stroke-miterlimit:4;stroke-dasharray:none;stroke-opacity:1"
         d="m -171.73032,703.12343 -0.31069,-34.31134 -178.6994,0.26402 c 40.74434,20.89111 126.37491,30.05154 161.3161,34.01005 z"
         id="path2312"
         inkscape:connector-curvature="0"
         sodipodi:nodetypes="ccccc" />
      <rect
         style="opacity:1;fill:#ffffff;fill-opacity:1;stroke:none;stroke-width:1.45317245;stroke-miterlimit:4;stroke-dasharray:none;stroke-opacity:1"
         id="rect2314"
         width="28.829397"
         height="2.509464"
         x="-220.77043"
         y="668.55475"
         transform="matrix(0.9999721,-0.00747002,0.02696542,0.99963637,0,0)"
         ry="1.254732"
         rx="2.5168488" />
      <rect
         rx="1.4116662"
         ry="1.2262005"
         transform="matrix(0.9999967,0.00256826,-0.0230192,0.99973502,0,0)"
         y="670.65344"
         x="-205.60791"
         height="2.4524009"
         width="16.333469"
         id="rect2316"
         style="opacity:1;fill:#ffffff;fill-opacity:1;stroke:none;stroke-width:1.68709779;stroke-miterlimit:4;stroke-dasharray:none;stroke-opacity:1" />
      <text
         id="text2320"
         y="694.25751"
         x="-259.82227"
         style="font-style:normal;font-variant:normal;font-weight:normal;font-stretch:normal;font-size:23.3712101px;line-height:1.25;font-family:'Bebas Neue';-inkscape-font-specification:'Bebas Neue';text-align:center;letter-spacing:0px;word-spacing:0px;text-anchor:middle;fill:#ffffff;fill-opacity:1;stroke:none;stroke-width:1.25202906"
         xml:space="preserve"><tspan
           style="font-style:normal;font-variant:normal;font-weight:normal;font-stretch:normal;font-family:Digitalt;-inkscape-font-specification:Digitalt;fill:#ffffff;stroke-width:1.25202906"
           y="694.25751"
           x="-259.82227"
           id="tspan2318"
           sodipodi:role="line">get start value</tspan></text>
    </g>
  </g>
</svg>
