<?xml version="1.0" encoding="UTF-8" standalone="no"?>
<!-- Created with Inkscape (http://www.inkscape.org/) -->

<svg
   xmlns:dc="http://purl.org/dc/elements/1.1/"
   xmlns:cc="http://creativecommons.org/ns#"
   xmlns:rdf="http://www.w3.org/1999/02/22-rdf-syntax-ns#"
   xmlns:svg="http://www.w3.org/2000/svg"
   xmlns="http://www.w3.org/2000/svg"
   xmlns:sodipodi="http://sodipodi.sourceforge.net/DTD/sodipodi-0.dtd"
   xmlns:inkscape="http://www.inkscape.org/namespaces/inkscape"
   width="558.7262mm"
   height="79.235542mm"
   viewBox="0 0 558.72622 79.235547"
   version="1.1"
   id="svg2283"
   inkscape:version="0.92.3 (2405546, 2018-03-11)"
   sodipodi:docname="control_open_another_screen_with_start_value.svg">
  <defs
     id="defs2277" />
  <sodipodi:namedview
     id="base"
     pagecolor="#ffffff"
     bordercolor="#666666"
     borderopacity="1.0"
     inkscape:pageopacity="0.0"
     inkscape:pageshadow="2"
     inkscape:zoom="0.35"
     inkscape:cx="920.92858"
     inkscape:cy="326.7534"
     inkscape:document-units="mm"
     inkscape:current-layer="layer1"
     showgrid="false"
     fit-margin-top="0"
     fit-margin-left="0"
     fit-margin-right="0"
     fit-margin-bottom="0"
     inkscape:window-width="1920"
     inkscape:window-height="1001"
     inkscape:window-x="0"
     inkscape:window-y="0"
     inkscape:window-maximized="1" />
  <metadata
     id="metadata2280">
    <rdf:RDF>
      <cc:Work
         rdf:about="">
        <dc:format>image/svg+xml</dc:format>
        <dc:type
           rdf:resource="http://purl.org/dc/dcmitype/StillImage" />
        <dc:title></dc:title>
      </cc:Work>
    </rdf:RDF>
  </metadata>
  <g
     inkscape:label="Layer 1"
     inkscape:groupmode="layer"
     id="layer1"
     transform="translate(467.04629,-700.33704)">
    <g
       id="g32">
      <path
         sodipodi:nodetypes="ccccccccscscccccccccccccccccccsccsccccccccccccccccccccccccccccccccccsccccccccccsccccccccsc"
         inkscape:connector-curvature="0"
         id="path2710"
         d="m -432.82922,702.02531 c -3.51913,0 -6.76678,6.53493 -9.68941,6.53555 -2.92251,0 -5.52033,-6.53256 -7.73781,-6.53187 h -5.45904 c 0,0 -10.17981,-0.40429 -9.62289,9.39856 l 0.006,47.66226 0.007,9.39316 c -0.54778,8.98414 9.63197,9.38954 9.63197,9.38954 h 5.45904 7.73694 9.68941 7.65854 l 500.152483,0.0118 14.877761,-0.0367 0.01618,-11.18433 c -0.02738,-0.0751 -0.04418,-0.1631 -0.0784,-0.23242 -0.179772,-0.3591 -0.303726,-0.56345 -0.472172,-0.68367 -0.168508,-0.12029 -0.381819,-0.15669 -0.741051,-0.18226 -0.212253,-0.0149 -0.370556,-0.0261 -0.546034,0 -0.17529,0.0274 -0.367631,0.0941 -0.645346,0.23515 -0.555244,0.28207 -1.454473,0.86158 -3.254052,2.02179 -0.514609,0.33172 -0.968238,0.58648 -1.367294,0.7665 -0.399055,0.18008 -0.742917,0.28574 -1.037308,0.31903 -0.393829,0.0448 -0.633213,0.0498 -0.865005,-0.0373 -0.231855,-0.0871 -0.456429,-0.2677 -0.821323,-0.597 -0.325753,-0.29402 -0.543482,-0.53876 -0.711866,-0.83676 -0.168322,-0.29812 -0.286613,-0.6492 -0.412932,-1.15585 -0.250398,-1.00476 -0.440997,-2.1313 -0.572418,-3.32063 -0.131484,-1.18926 -0.20404,-2.441 -0.217854,-3.6989 h -0.0068 c -1.24e-4,-0.0653 0,-0.13062 0,-0.19595 0,-0.0653 -0.0062,-0.13068 -0.0062,-0.19602 h 0.0062 c 0.01245,-1.25796 0.08388,-2.51032 0.214183,-3.69984 0.130301,-1.18951 0.319406,-2.31649 0.568808,-3.32156 0.125821,-0.50671 0.243989,-0.85754 0.411999,-1.15579 0.168073,-0.29825 0.386424,-0.54336 0.711929,-0.83769 0.364458,-0.32967 0.588659,-0.51075 0.820327,-0.59793 0.23173,-0.0872 0.471176,-0.0805 0.865067,-0.0367 0.294391,0.033 0.638999,0.13839 1.03818,0.3181 0.399242,0.17971 0.853244,0.43353 1.368227,0.76476 1.800699,1.15846 2.700301,1.73747 3.255918,2.01899 0.277777,0.14075 0.468936,0.20683 0.644414,0.23428 0.175477,0.0274 0.334714,0.0156 0.546967,0 0.359169,-0.0261 0.572729,-0.0637 0.74105,-0.18413 0.168384,-0.12041 0.291779,-0.32345 0.471239,-0.68275 0.04854,-0.0967 0.0728,-0.22046 0.109393,-0.3245 l 0.01556,-10.89349 0.01244,-8.48714 0.0062,-3.21217 c -0.05662,-0.22844 -0.115491,-0.42986 -0.206964,-0.61256 -0.179771,-0.35904 -0.303663,-0.56333 -0.472171,-0.68361 -0.168446,-0.12023 -0.381819,-0.15669 -0.741051,-0.18226 -0.212315,-0.0149 -0.370618,-0.0268 -0.545971,0 -0.175416,0.0274 -0.367757,0.0941 -0.645347,0.23515 -0.555368,0.28207 -1.454535,0.86158 -3.254114,2.02172 -0.514672,0.33179 -0.9683,0.58655 -1.367294,0.76657 -0.399056,0.18008 -0.742917,0.28574 -1.037309,0.31903 -0.393828,0.0448 -0.633212,0.0504 -0.865067,-0.0367 -0.231854,-0.087 -0.456428,-0.2677 -0.821197,-0.597 -0.325878,-0.29402 -0.543608,-0.53863 -0.711929,-0.83675 -0.168322,-0.29807 -0.286614,-0.64921 -0.412932,-1.15585 -0.250398,-1.00483 -0.440997,-2.13137 -0.572418,-3.32064 -0.131484,-1.18926 -0.20404,-2.441 -0.217854,-3.6989 h -0.0062 c -1.25e-4,-0.0653 1.86e-4,-0.13062 0.0062,-0.19595 0,-0.0653 -0.0062,-0.13074 -0.0062,-0.19602 h 0.0062 c 0.01244,-1.25796 0.08388,-2.51032 0.214182,-3.69983 0.130302,-1.18952 0.319282,-2.3165 0.568809,-3.32157 0.125759,-0.50671 0.243926,-0.85754 0.411999,-1.15579 0.168073,-0.29831 0.386486,-0.54336 0.711929,-0.83769 0.36452,-0.32967 0.588534,-0.51075 0.820326,-0.59793 0.23173,-0.0872 0.471114,-0.0805 0.865005,-0.0367 0.294516,0.033 0.639,0.13833 1.038243,0.3181 0.39918,0.17958 0.853244,0.43347 1.368227,0.76476 1.800699,1.15846 2.700301,1.73748 3.255856,2.01899 0.277777,0.14075 0.46906,0.20684 0.644475,0.23428 0.175353,0.0274 0.334652,0.0162 0.546905,0 0.359232,-0.0261 0.572729,-0.0637 0.741113,-0.18413 0.168384,-0.12041 0.291778,-0.32345 0.471176,-0.68274 0.105287,-0.21083 0.178216,-0.42177 0.237953,-0.70733 l 0.01556,-10.50887 -15.080058,-0.16496 -0.0062,0.006 -177.338022,0.17224 v -0.1832 h -319.07909 -11.3165 z"
         style="fill:#b68a45;fill-opacity:1;stroke:#927038;stroke-width:3.37654328;stroke-miterlimit:4;stroke-dasharray:none;stroke-opacity:1" />
      <path
         sodipodi:nodetypes="ccccccccccscccccccccccscccccccccccccccccsccccscccccccccccscccccsccccccccc"
         inkscape:connector-curvature="0"
         style="fill:#ccac78;fill-opacity:1;stroke:none;stroke-width:3.37654328;stroke-miterlimit:4;stroke-dasharray:none;stroke-opacity:1"
         d="m -432.25348,703.84443 c 45.87917,34.16051 481.871429,68.56264 506.095548,72.20573 l 14.877761,0.0597 0.238513,-7.58417 c -0.02738,-0.0752 -0.04418,-0.16316 -0.07841,-0.23248 -0.179771,-0.35911 -0.303726,-0.56333 -0.472172,-0.68362 -0.168508,-0.12028 -0.381819,-0.15668 -0.74105,-0.18232 -0.212316,-0.0149 -0.370619,-0.0261 -0.546034,0 -0.175353,0.0274 -0.367694,0.0942 -0.645347,0.23522 -0.555306,0.28207 -1.454473,0.86158 -3.254051,2.02172 -0.51461,0.33173 -0.968238,0.58648 -1.367294,0.76656 -0.399056,0.18009 -0.742917,0.28575 -1.037309,0.31904 -0.393891,0.0448 -0.633213,0.0504 -0.865067,-0.0367 -0.231855,-0.087 -0.456429,-0.26769 -0.82126,-0.59699 -0.325754,-0.29402 -0.543483,-0.53869 -0.711867,-0.83682 -0.168321,-0.29806 -0.286613,-0.6492 -0.412932,-1.15579 -0.250398,-1.00482 -0.440996,-2.13136 -0.572418,-3.32063 -0.131484,-1.18933 -0.204039,-2.441 -0.217853,-3.69897 h -0.0062 c -1.87e-4,-0.0653 0,-0.13061 0,-0.19595 0,-0.0653 -0.0062,-0.13067 -0.0062,-0.19595 h 0.0062 c 0.01244,-1.25796 0.08388,-6.24395 0.214182,-7.4334 0.130302,-1.18952 0.319345,-2.31649 0.568809,-3.32157 0.125759,-0.50677 0.243926,-0.85754 0.411999,-1.15585 0.168073,-0.29825 0.386424,-0.54336 0.711929,-0.83769 0.364458,-0.32961 0.588596,-0.51075 0.820326,-0.59793 0.23173,-0.0872 0.471114,-0.0806 0.865005,-0.0367 0.294454,0.033 0.639,0.13845 1.038242,0.3181 0.399243,0.17971 0.853245,0.43353 1.368166,0.76482 1.800698,1.1584 2.700363,1.73748 3.255918,2.01899 0.277777,0.14075 0.468998,0.20684 0.644475,0.23422 0.175416,0.0274 0.334652,0.0156 0.546905,0 0.359169,-0.0261 0.572729,-0.0637 0.741051,-0.18413 0.168384,-0.12041 0.29184,-0.32339 0.471238,-0.68268 0.04854,-0.0968 0.07287,-0.22053 0.109394,-0.32451 l 0.01556,-9.96016 0.01244,-5.6869 0.0062,-3.21218 c -0.05663,-0.22849 -0.11543,-0.42985 -0.206902,-0.61255 -0.179771,-0.35911 -0.303663,-0.56339 -0.472171,-0.68362 -0.168447,-0.12028 -0.38182,-0.15668 -0.741051,-0.18232 -0.212315,-0.0149 -0.370619,-0.0267 -0.545972,0 -0.175415,0.0274 -0.367756,0.0942 -0.645347,0.23515 -0.555367,0.28208 -1.454534,0.86159 -3.254175,2.02179 -0.514548,0.33173 -0.968238,0.58648 -1.367232,0.76657 -0.399056,0.18008 -0.742917,0.28568 -1.037309,0.31903 -0.393829,0.0448 -0.633213,0.0504 -0.865005,-0.0367 -0.231854,-0.0871 -0.456428,-0.26776 -0.821322,-0.59706 -0.325754,-0.29402 -0.543545,-0.53863 -0.711866,-0.83676 -0.168322,-0.29812 -0.286676,-0.6492 -0.412933,-1.15579 -0.25046,-1.00488 -0.440996,-2.13136 -0.572418,-3.32069 -0.131483,-1.18927 -0.204039,-3.37433 -0.217853,-4.6323 h -0.0062 c -1.24e-4,-0.0653 0,-0.13067 0.0062,-0.19595 0,-0.0653 -0.0062,-0.13067 -0.0062,-0.19601 h 0.0062 c 0.01245,-1.2579 0.08394,-5.3105 0.214244,-6.50001 0.130302,-1.18952 0.319282,-2.31643 0.568809,-3.32157 0.125759,-0.50671 0.243926,-0.85754 0.411999,-1.15579 0.168073,-0.29825 0.386424,-0.54336 0.711866,-0.83768 0.364521,-0.32968 0.588597,-0.51076 0.820389,-0.59794 0.23173,-0.0872 0.471114,-0.0807 0.865005,-0.0367 0.294454,0.033 0.639,0.13845 1.038242,0.3181 0.399181,0.17971 0.853245,0.43353 1.368166,0.76476 1.800698,1.15846 2.700301,1.73748 3.255918,2.01899 0.277777,0.14082 0.46906,0.2069 0.644475,0.23428 0.175353,0.0274 0.33459,0.0162 0.546843,0 0.359231,-0.0261 0.572729,-0.0637 0.741113,-0.18413 0.168384,-0.12041 0.291778,-0.32345 0.471238,-0.68268 0.105287,-0.21088 0.178153,-0.42177 0.23789,-0.70739 l -0.206715,-7.00504 z"
         id="path2712" />
      <rect
         rx="2.5168488"
         ry="1.254732"
         transform="matrix(0.9999721,-0.00747002,0.02696542,0.99963637,0,0)"
         y="705.54303"
         x="40.041473"
         height="2.509464"
         width="28.829397"
         id="rect2714"
         style="opacity:1;fill:#ffffff;fill-opacity:1;stroke:none;stroke-width:1.45317245;stroke-miterlimit:4;stroke-dasharray:none;stroke-opacity:1" />
      <rect
         style="opacity:1;fill:#ffffff;fill-opacity:1;stroke:none;stroke-width:1.68709779;stroke-miterlimit:4;stroke-dasharray:none;stroke-opacity:1"
         id="rect2716"
         width="16.333469"
         height="2.4524009"
         x="56.988518"
         y="705.00439"
         transform="matrix(0.9999967,0.00256826,-0.0230192,0.99973502,0,0)"
         ry="1.2262005"
         rx="1.4116662" />
      <text
         xml:space="preserve"
         style="font-style:normal;font-variant:normal;font-weight:normal;font-stretch:normal;font-size:23.3712101px;line-height:1.25;font-family:'Bebas Neue';-inkscape-font-specification:'Bebas Neue';text-align:center;letter-spacing:0px;word-spacing:0px;text-anchor:middle;fill:#ffffff;fill-opacity:1;stroke:none;stroke-width:1.25202906"
         x="-189.37595"
         y="728.80121"
         id="text2720"><tspan
           sodipodi:role="line"
           id="tspan2718"
           x="-189.37595"
           y="728.80121"
           style="font-style:normal;font-variant:normal;font-weight:normal;font-stretch:normal;font-family:Digitalt;-inkscape-font-specification:Digitalt;fill:#ffffff;stroke-width:1.25202906">open another screen with start value  screenname</tspan></text>
      <text
         id="text2724"
         y="768.00366"
         x="12.816968"
         style="font-style:normal;font-variant:normal;font-weight:normal;font-stretch:normal;font-size:23.3712101px;line-height:1.25;font-family:'Bebas Neue';-inkscape-font-specification:'Bebas Neue';text-align:center;letter-spacing:0px;word-spacing:0px;text-anchor:middle;fill:#ffffff;fill-opacity:1;stroke:none;stroke-width:1.25202906"
         xml:space="preserve"><tspan
           style="font-style:normal;font-variant:normal;font-weight:normal;font-stretch:normal;font-family:Digitalt;-inkscape-font-specification:Digitalt;fill:#ffffff;stroke-width:1.25202906"
           y="768.00366"
           x="12.816969"
           id="tspan2722"
           sodipodi:role="line">startvalue</tspan></text>
    </g>
  </g>
</svg>
