<?xml version="1.0" encoding="UTF-8" standalone="no"?>
<!-- Created with Inkscape (http://www.inkscape.org/) -->

<svg
   xmlns:dc="http://purl.org/dc/elements/1.1/"
   xmlns:cc="http://creativecommons.org/ns#"
   xmlns:rdf="http://www.w3.org/1999/02/22-rdf-syntax-ns#"
   xmlns:svg="http://www.w3.org/2000/svg"
   xmlns="http://www.w3.org/2000/svg"
   xmlns:sodipodi="http://sodipodi.sourceforge.net/DTD/sodipodi-0.dtd"
   xmlns:inkscape="http://www.inkscape.org/namespaces/inkscape"
   width="245.77859mm"
   height="105.35901mm"
   viewBox="0 0 245.77861 105.35901"
   version="1.1"
   id="svg2283"
   inkscape:version="0.92.3 (2405546, 2018-03-11)"
   sodipodi:docname="control_for_each_item_in_list.svg">
  <defs
     id="defs2277" />
  <sodipodi:namedview
     id="base"
     pagecolor="#ffffff"
     bordercolor="#666666"
     borderopacity="1.0"
     inkscape:pageopacity="0.0"
     inkscape:pageshadow="2"
     inkscape:zoom="0.35"
     inkscape:cx="440.64698"
     inkscape:cy="460.81744"
     inkscape:document-units="mm"
     inkscape:current-layer="layer1"
     showgrid="false"
     fit-margin-top="0"
     fit-margin-left="0"
     fit-margin-right="0"
     fit-margin-bottom="0"
     inkscape:window-width="1920"
     inkscape:window-height="1001"
     inkscape:window-x="0"
     inkscape:window-y="0"
     inkscape:window-maximized="1" />
  <metadata
     id="metadata2280">
    <rdf:RDF>
      <cc:Work
         rdf:about="">
        <dc:format>image/svg+xml</dc:format>
        <dc:type
           rdf:resource="http://purl.org/dc/dcmitype/StillImage" />
        <dc:title></dc:title>
      </cc:Work>
    </rdf:RDF>
  </metadata>
  <g
     inkscape:label="Layer 1"
     inkscape:groupmode="layer"
     id="layer1"
     transform="translate(201.25452,-709.6847)">
    <g
       id="g2800"
       transform="matrix(0.62226092,0,0,-0.62226092,641.24993,1891.6007)"
       inkscape:export-filename="/home/peter/allblocks.png"
       inkscape:export-xdpi="42.094723"
       inkscape:export-ydpi="42.094723">
      <path
         sodipodi:nodetypes="ccscccccscccscccccccccccccccccsscccccccccccccccccccccccccccccc"
         inkscape:connector-curvature="0"
         style="fill:#b68a45;fill-opacity:1;stroke:#927038;stroke-width:5.42624998;stroke-miterlimit:4;stroke-dasharray:none;stroke-opacity:1"
         d="m -1298.9539,1896.6717 c -5.6554,0 -10.8747,-10.502 -15.5713,-10.5029 -4.6967,0 -8.87,10.497 -12.4336,10.497 h -8.7729 c 0,0 -16.3593,0.6511 -15.4644,-15.1025 l 0.01,-15.0967 0.01,-108.0952 c -0.8803,-14.438 15.479,-15.0879 15.479,-15.0879 h 8.7729 c 3.5637,0 7.7385,-10.4981 12.4351,-10.4971 4.6967,0 9.9159,10.5029 15.5713,10.5029 126.2115,0.061 150.6689,0 276.2417,0 h 15.5713 c 4.6966,0 8.92095,0.6006 12.43357,0 h 8.77298 l 23.90482,0.012 0.066,23.1753 h -3.56392 -8.77298 -12.43357 -15.5713 -18.1875 -211.5542 -15.5713 -12.4351 -8.7729 c 0,0 -16.3593,0.6499 -15.479,15.0879 l -0.01,15.0967 -0.01,15.0952 c -0.8949,15.7536 15.4643,15.1025 15.4643,15.1025 h 8.773 c 3.5636,0 7.7369,-10.4971 12.4336,-10.4971 4.6966,0 9.9159,10.503 15.5713,10.503 h 229.7417 15.57127 12.43508 8.77297 l 3.77198,-0.048 0.0761,26.6044 c -0.0993,0.5247 -0.23227,0.8635 -0.41602,1.2305 -0.57773,1.1542 -0.79515,1.3093 -1.9497,1.3916 -1.36463,0.097 -1.35863,0.1006 -7.14255,-3.6284 -1.65398,-1.0663 -2.91945,-1.6375 -3.86573,-1.7446 -1.26585,-0.1434 -1.5372,-0.041 -2.70997,1.018 -1.047,0.945 -1.40183,1.5739 -1.80758,3.2022 -0.8049,3.2296 -1.22565,7.2391 -1.27005,11.2822 h -0.009 c -2.2e-4,0.1049 0,0.21 0.008,0.315 0,0.1049 -0.008,0.2099 -0.008,0.3149 h 0.009 c 0.0405,4.0431 0.45645,8.0533 1.25828,11.2837 0.40425,1.6287 0.76005,2.2577 1.80615,3.2036 1.17172,1.0596 1.44255,1.1616 2.70847,1.0196 0.94643,-0.1062 2.21228,-0.6755 3.86723,-1.7402 5.78752,-3.7235 5.78242,-3.7212 7.14697,-3.6226 1.1544,0.084 1.37153,0.2383 1.9482,1.393 0.18345,0.3672 0.31583,0.7071 0.4146,1.232 l -0.008,16.7929 -24.23437,0.312 h -8.77298 -299.24715 z"
         id="path2435" />
      <path
         style="fill:#ccac78;fill-opacity:1;stroke:none;stroke-width:5.42624998;stroke-miterlimit:4;stroke-dasharray:none;stroke-opacity:1"
         d="m -963.56629,1828.3907 0.32459,0.3249 0.31282,22.6487 c -0.0993,0.5247 -0.2323,0.8638 -0.41603,1.2309 -0.57778,1.1542 -0.79468,1.309 -1.94919,1.3913 -1.36462,0.097 -1.98454,-0.1878 -7.76851,-3.9167 -1.65394,-1.0663 -2.91882,-1.6371 -3.86512,-1.7442 -1.50586,0.2429 -1.46165,0.335 -2.63439,1.3935 -1.04699,0.9449 -1.47785,1.1984 -1.88368,2.8267 -0.8049,3.2296 -1.72707,10.7923 -1.77148,14.8354 l -0.009,-3e-4 c -2.2e-4,0.1049 0.004,0.2096 0.005,0.3146 -10e-4,0.1049 -0.005,0.2096 -0.006,0.3146 l 0.009,3e-4 c 0.0405,4.0431 0.92531,8.7633 1.7271,11.9938 0.40425,1.6286 0.75944,2.2586 1.80551,3.2046 1.17172,1.0595 1.44256,1.1614 2.70851,1.0193 0.94639,-0.1062 2.2118,-0.6758 3.86677,-1.7405 5.78756,-3.7234 5.80684,-3.9368 7.17138,-3.8382 1.15443,0.084 1.37117,0.2384 1.94784,1.3931 0.18343,0.3672 0.31613,0.7065 0.41485,1.2314 l -0.38142,12.7575 -335.15736,-0.046 c 57.8937,-38.596 202.9248,-56.4497 307.11383,-65.4794 z"
         id="path2437"
         inkscape:connector-curvature="0"
         sodipodi:nodetypes="ccccccccccccccccscccccccc" />
      <rect
         rx="4.0446839"
         ry="2.0164082"
         transform="matrix(0.9999721,0.00747001,0.02696542,-0.99963637,0,0)"
         y="-1900.0652"
         x="-962.08032"
         height="4.0328164"
         width="46.330078"
         id="rect2439"
         style="opacity:1;fill:#ffffff;fill-opacity:1;stroke:none;stroke-width:2.33531046;stroke-miterlimit:4;stroke-dasharray:none;stroke-opacity:1" />
      <rect
         style="opacity:1;fill:#ffffff;fill-opacity:1;stroke:none;stroke-width:2.71123862;stroke-miterlimit:4;stroke-dasharray:none;stroke-opacity:1"
         id="rect2441"
         width="26.248585"
         height="3.9411135"
         x="-1086.2096"
         y="-1889.9106"
         transform="matrix(0.9999967,-0.00256827,-0.0230192,-0.99973502,0,0)"
         ry="1.9705567"
         rx="2.2686081" />
      <text
         transform="scale(1,-1)"
         id="text2445"
         y="-1788.0767"
         x="-1317.353"
         style="font-style:normal;font-variant:normal;font-weight:normal;font-stretch:normal;font-size:37.55853653px;line-height:1.25;font-family:'Bebas Neue';-inkscape-font-specification:'Bebas Neue';text-align:center;letter-spacing:0px;word-spacing:0px;text-anchor:middle;fill:#ffffff;fill-opacity:1;stroke:none;stroke-width:2.01206446"
         xml:space="preserve"><tspan
           style="font-style:normal;font-variant:normal;font-weight:normal;font-stretch:normal;font-family:PAGRevolucionW00-Regular;-inkscape-font-specification:PAGRevolucionW00-Regular;fill:#ffffff;stroke-width:2.01206446"
           y="-1788.0767"
           x="-1317.353"
           id="tspan2443"
           sodipodi:role="line">do</tspan></text>
      <rect
         ry="7.6620569"
         rx="4.442616"
         transform="scale(1,-1)"
         y="-1884.8569"
         x="-1196.7959"
         height="39.805294"
         width="105.95054"
         id="rect2447"
         style="opacity:0.5;fill:#e6e6e6;fill-opacity:1;stroke:none;stroke-width:16.34999275;stroke-miterlimit:4;stroke-dasharray:none;stroke-opacity:1" />
      <text
         xml:space="preserve"
         style="font-style:normal;font-variant:normal;font-weight:normal;font-stretch:normal;font-size:37.55853653px;line-height:1.25;font-family:'Bebas Neue';-inkscape-font-specification:'Bebas Neue';text-align:center;letter-spacing:0px;word-spacing:0px;text-anchor:middle;fill:#000000;fill-opacity:1;stroke:none;stroke-width:2.01206446"
         x="-1144.3638"
         y="-1851.8088"
         id="text2451"
         transform="scale(1,-1)"><tspan
           sodipodi:role="line"
           id="tspan2449"
           x="-1144.3638"
           y="-1851.8088"
           style="font-style:normal;font-variant:normal;font-weight:normal;font-stretch:normal;font-family:PAGRevolucionW00-Regular;-inkscape-font-specification:PAGRevolucionW00-Regular;fill:#000000;stroke-width:2.01206446">item</tspan></text>
      <text
         transform="scale(1,-1)"
         id="text2455"
         y="-1851.8088"
         x="-1267.8993"
         style="font-style:normal;font-variant:normal;font-weight:normal;font-stretch:normal;font-size:37.55853653px;line-height:1.25;font-family:'Bebas Neue';-inkscape-font-specification:'Bebas Neue';text-align:center;letter-spacing:0px;word-spacing:0px;text-anchor:middle;fill:#ffffff;fill-opacity:1;stroke:none;stroke-width:2.01206446"
         xml:space="preserve"><tspan
           style="font-style:normal;font-variant:normal;font-weight:normal;font-stretch:normal;font-family:PAGRevolucionW00-Regular;-inkscape-font-specification:PAGRevolucionW00-Regular;fill:#ffffff;stroke-width:2.01206446"
           y="-1851.8088"
           x="-1267.8993"
           id="tspan2453"
           sodipodi:role="line">for each</tspan></text>
      <text
         xml:space="preserve"
         style="font-style:normal;font-variant:normal;font-weight:normal;font-stretch:normal;font-size:37.55853653px;line-height:1.25;font-family:'Bebas Neue';-inkscape-font-specification:'Bebas Neue';text-align:center;letter-spacing:0px;word-spacing:0px;text-anchor:middle;fill:#ffffff;fill-opacity:1;stroke:none;stroke-width:2.01206446"
         x="-1036.8992"
         y="-1851.8088"
         id="text2459"
         transform="scale(1,-1)"><tspan
           sodipodi:role="line"
           id="tspan2457"
           x="-1036.8992"
           y="-1851.8088"
           style="font-style:normal;font-variant:normal;font-weight:normal;font-stretch:normal;font-family:PAGRevolucionW00-Regular;-inkscape-font-specification:PAGRevolucionW00-Regular;fill:#ffffff;stroke-width:2.01206446">in list</tspan></text>
    </g>
  </g>
</svg>
