<?xml version="1.0" encoding="UTF-8" standalone="no"?>
<!-- Created with Inkscape (http://www.inkscape.org/) -->

<svg
   xmlns:dc="http://purl.org/dc/elements/1.1/"
   xmlns:cc="http://creativecommons.org/ns#"
   xmlns:rdf="http://www.w3.org/1999/02/22-rdf-syntax-ns#"
   xmlns:svg="http://www.w3.org/2000/svg"
   xmlns="http://www.w3.org/2000/svg"
   xmlns:sodipodi="http://sodipodi.sourceforge.net/DTD/sodipodi-0.dtd"
   xmlns:inkscape="http://www.inkscape.org/namespaces/inkscape"
   width="338.19409mm"
   height="40.954384mm"
   viewBox="0 0 338.1941 40.954387"
   version="1.1"
   id="svg2283"
   inkscape:version="0.92.3 (2405546, 2018-03-11)"
   sodipodi:docname="control_close_screen_with_plain_text.svg">
  <defs
     id="defs2277" />
  <sodipodi:namedview
     id="base"
     pagecolor="#ffffff"
     bordercolor="#666666"
     borderopacity="1.0"
     inkscape:pageopacity="0.0"
     inkscape:pageshadow="2"
     inkscape:zoom="0.35"
     inkscape:cx="1254.9757"
     inkscape:cy="88.422291"
     inkscape:document-units="mm"
     inkscape:current-layer="layer1"
     showgrid="false"
     fit-margin-top="0"
     fit-margin-left="0"
     fit-margin-right="0"
     fit-margin-bottom="0"
     inkscape:window-width="1920"
     inkscape:window-height="1001"
     inkscape:window-x="0"
     inkscape:window-y="0"
     inkscape:window-maximized="1" />
  <metadata
     id="metadata2280">
    <rdf:RDF>
      <cc:Work
         rdf:about="">
        <dc:format>image/svg+xml</dc:format>
        <dc:type
           rdf:resource="http://purl.org/dc/dcmitype/StillImage" />
        <dc:title></dc:title>
      </cc:Work>
    </rdf:RDF>
  </metadata>
  <g
     inkscape:label="Layer 1"
     inkscape:groupmode="layer"
     id="layer1"
     transform="translate(416.71233,-675.55976)">
    <g
       id="g2277"
       inkscape:export-filename="/home/peter/allblocks.png"
       inkscape:export-xdpi="42.094723"
       inkscape:export-ydpi="42.094723"
       transform="matrix(0.62226092,0,0,-0.62226092,820.05309,2036.2881)">
      <path
         style="fill:#b68a45;fill-opacity:1;stroke:#927038;stroke-width:5.42624998;stroke-miterlimit:4;stroke-dasharray:none;stroke-opacity:1"
         d="m -1447.077,2123.664 0.3165,17.1174 c -0.099,0.5247 -0.2323,0.8639 -0.416,1.2309 -0.5778,1.1542 -0.7947,1.3091 -1.9492,1.3914 -1.3647,0.097 -1.3601,0.1 -7.144,-3.629 -1.654,-1.0663 -2.9188,-1.6371 -3.8651,-1.7442 -1.2659,-0.1434 -1.5368,-0.041 -2.7095,1.0173 -1.047,0.9449 -1.4028,1.5746 -1.8086,3.2029 -0.8049,3.2296 -1.2251,7.2382 -1.2696,11.2813 l -0.01,-3e-4 c -2e-4,0.1049 0,0.2096 0,0.3146 0,0.1049 -0.01,0.2096 -0.01,0.3146 l 0.01,3e-4 c 0.04,4.0431 0.4568,8.0527 1.2586,11.2831 0.4043,1.6287 0.7595,2.2586 1.8055,3.2046 1.1718,1.0596 1.4426,1.1614 2.7086,1.0193 0.9463,-0.1062 2.2118,-0.6758 3.8667,-1.7405 5.7876,-3.7234 5.783,-3.7207 7.1475,-3.6221 1.1545,0.084 1.3712,0.2385 1.9479,1.3932 0.1834,0.3672 0.3161,0.7065 0.4148,1.2313 l -0.01,16.7925 -24.2339,0.3131 h -8.7733 -12.434 -15.5717 -18.1864 -20.2783 -21.8471 -22.893 -23.4159 -23.4159 -22.893 -21.8471 -20.2782 -229.6864 c -5.6554,0 -10.8751,-10.502 -15.5717,-10.503 -4.6967,0 -8.8704,10.497 -12.434,10.497 h -8.7734 c 0,0 -16.3591,0.6504 -15.4642,-15.1032 l 0.01,-15.0958 0.01,-15.0958 c -0.8803,-14.438 15.4785,-15.0884 15.4785,-15.0884 h 8.7734 12.434 15.5717 229.6864 20.2782 21.8471 22.893 23.4159 23.4159 22.893 21.8471 20.2783 18.1864 15.5717 12.434 8.7733 z"
         id="path2195"
         inkscape:connector-curvature="0"
         sodipodi:nodetypes="cccccccccccccccsccccccssssssssssssssscccccssssssssssssssscc" />
      <path
         sodipodi:nodetypes="ccccccccccccccccscccccccc"
         inkscape:connector-curvature="0"
         id="path2197"
         d="m -1448.649,2126.2542 0.3246,0.3249 0.3128,12.1487 c -0.099,0.5247 -0.2323,0.8638 -0.416,1.2309 -0.5778,1.1542 -0.7947,1.309 -1.9492,1.3913 -1.3646,0.097 -1.9846,-0.1878 -7.7685,-3.9167 -1.654,-1.0663 -2.9188,-1.6371 -3.8651,-1.7442 -1.5059,0.2429 -1.4617,0.335 -2.6344,1.3935 -1.047,0.9449 -1.4779,1.1984 -1.8837,2.8267 -0.8049,3.2296 -1.7271,10.7923 -1.7715,14.8354 l -0.01,-3e-4 c -2e-4,0.1049 0,0.2096 0,0.3146 -10e-4,0.1049 0,0.2096 -0.01,0.3146 l 0.01,3e-4 c 0.04,4.0431 0.9253,8.7633 1.7271,11.9938 0.4043,1.6286 0.7594,2.2586 1.8055,3.2046 1.1717,1.0595 1.4426,1.1614 2.7085,1.0193 0.9464,-0.1062 2.2118,-0.6758 3.8668,-1.7405 5.7876,-3.7234 5.8068,-3.9368 7.1714,-3.8382 1.1544,0.084 1.3711,0.2384 1.9478,1.3931 0.1834,0.3672 0.3161,0.7065 0.4149,1.2314 l -0.3815,12.7575 -484.674,0.3185 c 57.8937,-38.596 352.4415,-46.3139 456.6305,-55.3436 z"
         style="fill:#ccac78;fill-opacity:1;stroke:none;stroke-width:5.42624998;stroke-miterlimit:4;stroke-dasharray:none;stroke-opacity:1" />
      <rect
         style="opacity:1;fill:#ffffff;fill-opacity:1;stroke:none;stroke-width:2.33531046;stroke-miterlimit:4;stroke-dasharray:none;stroke-opacity:1"
         id="rect2199"
         width="46.330078"
         height="4.0328164"
         x="-1437.823"
         y="-2191.0859"
         transform="matrix(0.9999721,0.00747001,0.02696542,-0.99963637,0,0)"
         ry="2.0164082"
         rx="4.0446839" />
      <rect
         rx="2.2686081"
         ry="1.9705567"
         transform="matrix(0.9999967,-0.00256827,-0.0230192,-0.99973502,0,0)"
         y="-2176.1011"
         x="-1576.3816"
         height="3.9411135"
         width="26.248585"
         id="rect2201"
         style="opacity:1;fill:#ffffff;fill-opacity:1;stroke:none;stroke-width:2.71123862;stroke-miterlimit:4;stroke-dasharray:none;stroke-opacity:1" />
      <text
         xml:space="preserve"
         style="font-style:normal;font-variant:normal;font-weight:normal;font-stretch:normal;font-size:37.55853653px;line-height:1.25;font-family:'Bebas Neue';-inkscape-font-specification:'Bebas Neue';text-align:center;letter-spacing:0px;word-spacing:0px;text-anchor:middle;fill:#ffffff;fill-opacity:1;stroke:none;stroke-width:2.01206446"
         x="-1725.2072"
         y="-2139.2605"
         id="text2205"
         transform="scale(1,-1)"><tspan
           sodipodi:role="line"
           id="tspan2203"
           x="-1725.2072"
           y="-2139.2605"
           style="font-style:normal;font-variant:normal;font-weight:normal;font-stretch:normal;font-family:PAGRevolucionW00-Regular;-inkscape-font-specification:PAGRevolucionW00-Regular;fill:#ffffff;stroke-width:2.01206446">close screen with plain text  text</tspan></text>
    </g>
  </g>
</svg>
