<?xml version="1.0" encoding="UTF-8" standalone="no"?>
<!-- Created with Inkscape (http://www.inkscape.org/) -->

<svg
   xmlns:dc="http://purl.org/dc/elements/1.1/"
   xmlns:cc="http://creativecommons.org/ns#"
   xmlns:rdf="http://www.w3.org/1999/02/22-rdf-syntax-ns#"
   xmlns:svg="http://www.w3.org/2000/svg"
   xmlns="http://www.w3.org/2000/svg"
   xmlns:sodipodi="http://sodipodi.sourceforge.net/DTD/sodipodi-0.dtd"
   xmlns:inkscape="http://www.inkscape.org/namespaces/inkscape"
   width="313.6319mm"
   height="47.486073mm"
   viewBox="0 0 313.63191 47.486076"
   version="1.1"
   id="svg2283"
   inkscape:version="0.92.3 (2405546, 2018-03-11)"
   sodipodi:docname="control_evaluate_but_ignore_result.svg">
  <defs
     id="defs2277" />
  <sodipodi:namedview
     id="base"
     pagecolor="#ffffff"
     bordercolor="#666666"
     borderopacity="1.0"
     inkscape:pageopacity="0.0"
     inkscape:pageshadow="2"
     inkscape:zoom="0.35"
     inkscape:cx="169.61888"
     inkscape:cy="247.91971"
     inkscape:document-units="mm"
     inkscape:current-layer="layer1"
     showgrid="false"
     fit-margin-top="0"
     fit-margin-left="0"
     fit-margin-right="0"
     fit-margin-bottom="0"
     inkscape:window-width="1920"
     inkscape:window-height="1001"
     inkscape:window-x="0"
     inkscape:window-y="0"
     inkscape:window-maximized="1" />
  <metadata
     id="metadata2280">
    <rdf:RDF>
      <cc:Work
         rdf:about="">
        <dc:format>image/svg+xml</dc:format>
        <dc:type
           rdf:resource="http://purl.org/dc/dcmitype/StillImage" />
        <dc:title></dc:title>
      </cc:Work>
    </rdf:RDF>
  </metadata>
  <g
     inkscape:label="Layer 1"
     inkscape:groupmode="layer"
     id="layer1"
     transform="translate(268.26226,-711.22843)">
    <g
       id="g26">
      <path
         style="fill:#b68a45;fill-opacity:1;stroke:#927038;stroke-width:3.37654328;stroke-miterlimit:4;stroke-dasharray:none;stroke-opacity:1"
         d="m 43.481505,750.48365 0.196945,-10.65149 c -0.0616,-0.3265 -0.144551,-0.53757 -0.25886,-0.76594 -0.359543,-0.71821 -0.494511,-0.8146 -1.212911,-0.86581 -0.8492,-0.0604 -0.846337,-0.0622 -4.445432,2.25818 -1.02922,0.66352 -1.816255,1.01871 -2.405101,1.08535 -0.78772,0.0892 -0.956291,0.0255 -1.686016,-0.63303 -0.651507,-0.58797 -0.872908,-0.97981 -1.125421,-1.99304 -0.500858,-2.00965 -0.762332,-4.50405 -0.790022,-7.01991 l -0.0062,1.9e-4 c -1.25e-4,-0.0653 0,-0.13043 0,-0.19576 0,-0.0653 -0.0062,-0.13043 -0.0062,-0.19577 l 0.0062,-1.8e-4 c 0.02489,-2.51587 0.284249,-5.01089 0.783177,-7.02104 0.251581,-1.01347 0.472608,-1.40544 1.123493,-1.99409 0.729165,-0.65935 0.897673,-0.7227 1.685456,-0.63427 0.588845,0.0661 1.376316,0.42052 2.406096,1.08304 3.601397,2.31693 3.598535,2.31525 4.44761,2.25389 0.7184,-0.0523 0.853244,-0.14841 1.212102,-0.86693 0.114122,-0.2285 0.196696,-0.43963 0.258114,-0.76619 L 43.658289,713.11153 28.57848,712.9167 H 23.119198 15.382006 5.6923457 -5.6243403 -18.242734 -31.83733 h -14.24542 -14.570799 -14.5708 -14.245419 -13.594592 -12.61834 -118.36267 c -3.51914,0 -6.76715,6.53499 -9.68966,6.53561 -2.92258,0 -5.51971,-6.53187 -7.73719,-6.53187 h -5.45935 c 0,0 -10.17963,-0.40472 -9.62277,9.39813 l 0.006,9.39352 0.006,9.39353 c -0.54778,8.9842 9.63166,9.38892 9.63166,9.38892 h 5.45935 c 2.21749,0 4.81462,6.53237 7.73719,6.53169 2.92251,0 6.17053,-6.53573 9.68966,-6.53573 h 118.36268 12.61833 13.594596 14.245419 14.570799 14.5708 14.245419 13.594597 12.6183933 11.316686 9.6896607 7.737192 5.459282 z"
         id="path2125"
         inkscape:connector-curvature="0"
         sodipodi:nodetypes="cccccccccccccccsccccccssssssssssssssscccccssssssssssssssscc" />
      <path
         sodipodi:nodetypes="ccccccccccccccccscccccccc"
         inkscape:connector-curvature="0"
         id="path2127"
         d="m 42.503311,748.87187 0.201985,-0.20217 0.194644,-7.55966 c -0.0616,-0.3265 -0.144552,-0.53751 -0.258861,-0.76594 -0.359542,-0.71822 -0.494511,-0.81454 -1.212911,-0.86576 -0.849137,-0.0603 -1.234939,0.11686 -4.834034,2.43721 -1.029219,0.66352 -1.816255,1.01871 -2.405101,1.08535 -0.937062,-0.15115 -0.909558,-0.20846 -1.639284,-0.86712 -0.651507,-0.58797 -0.919639,-0.74572 -1.172153,-1.75894 -0.500857,-2.00966 -1.074706,-6.71563 -1.102335,-9.23149 l -0.0062,1.8e-4 c -1.25e-4,-0.0653 0,-0.13042 0,-0.19576 -6.23e-4,-0.0653 0,-0.13043 -0.0062,-0.19576 l 0.0062,-1.9e-4 c 0.02489,-2.51586 0.575778,-5.45306 1.074706,-7.46327 0.25158,-1.01342 0.472545,-1.40544 1.123492,-1.9941 0.729104,-0.65929 0.897674,-0.72269 1.685394,-0.63427 0.588908,0.0661 1.376317,0.42052 2.406159,1.08304 3.601397,2.31693 3.613344,2.44972 4.462482,2.38837 0.718338,-0.0523 0.853182,-0.14835 1.212039,-0.86688 0.114123,-0.22849 0.196697,-0.43962 0.258177,-0.76625 l -0.237393,-7.93849 -274.385687,-0.19819 c 36.02498,24.01678 192.10257,28.81933 256.935313,34.43816 z"
         style="fill:#ccac78;fill-opacity:1;stroke:none;stroke-width:3.37654328;stroke-miterlimit:4;stroke-dasharray:none;stroke-opacity:1" />
      <rect
         style="opacity:1;fill:#ffffff;fill-opacity:1;stroke:none;stroke-width:1.45317245;stroke-miterlimit:4;stroke-dasharray:none;stroke-opacity:1"
         id="rect2135"
         width="28.829397"
         height="2.509464"
         x="-6.8075304"
         y="715.91827"
         transform="matrix(0.9999721,-0.00747002,0.02696542,0.99963637,0,0)"
         ry="1.254732"
         rx="2.5168488" />
      <rect
         rx="1.4116662"
         ry="1.2262005"
         transform="matrix(0.9999967,0.00256826,-0.0230192,0.99973502,0,0)"
         y="715.85815"
         x="10.672065"
         height="2.4524009"
         width="16.333469"
         id="rect2137"
         style="opacity:1;fill:#ffffff;fill-opacity:1;stroke:none;stroke-width:1.68709779;stroke-miterlimit:4;stroke-dasharray:none;stroke-opacity:1" />
      <text
         xml:space="preserve"
         style="font-style:normal;font-variant:normal;font-weight:normal;font-stretch:normal;font-size:23.3712101px;line-height:1.25;font-family:'Bebas Neue';-inkscape-font-specification:'Bebas Neue';text-align:center;letter-spacing:0px;word-spacing:0px;text-anchor:middle;fill:#ffffff;fill-opacity:1;stroke:none;stroke-width:1.25202906"
         x="-112.02831"
         y="740.77856"
         id="text2141"><tspan
           sodipodi:role="line"
           id="tspan2139"
           x="-112.02831"
           y="740.77856"
           style="font-style:normal;font-variant:normal;font-weight:normal;font-stretch:normal;font-family:Digitalt;-inkscape-font-specification:Digitalt;fill:#ffffff;stroke-width:1.25202906">evaluate but ignore result</tspan></text>
    </g>
  </g>
</svg>
