<?xml version="1.0" encoding="UTF-8" standalone="no"?>
<!-- Created with Inkscape (http://www.inkscape.org/) -->

<svg
   xmlns:dc="http://purl.org/dc/elements/1.1/"
   xmlns:cc="http://creativecommons.org/ns#"
   xmlns:rdf="http://www.w3.org/1999/02/22-rdf-syntax-ns#"
   xmlns:svg="http://www.w3.org/2000/svg"
   xmlns="http://www.w3.org/2000/svg"
   xmlns:sodipodi="http://sodipodi.sourceforge.net/DTD/sodipodi-0.dtd"
   xmlns:inkscape="http://www.inkscape.org/namespaces/inkscape"
   width="290.24689mm"
   height="177.47612mm"
   viewBox="0 0 290.2469 177.47613"
   version="1.1"
   id="svg2283"
   inkscape:version="0.92.3 (2405546, 2018-03-11)"
   sodipodi:docname="control_for_each_number_from.svg">
  <defs
     id="defs2277" />
  <sodipodi:namedview
     id="base"
     pagecolor="#ffffff"
     bordercolor="#666666"
     borderopacity="1.0"
     inkscape:pageopacity="0.0"
     inkscape:pageshadow="2"
     inkscape:zoom="0.76921222"
     inkscape:cx="642.85714"
     inkscape:cy="357.70927"
     inkscape:document-units="mm"
     inkscape:current-layer="layer1"
     showgrid="false"
     fit-margin-top="0"
     fit-margin-left="0"
     fit-margin-right="0"
     fit-margin-bottom="0"
     inkscape:window-width="1920"
     inkscape:window-height="1001"
     inkscape:window-x="0"
     inkscape:window-y="0"
     inkscape:window-maximized="1" />
  <metadata
     id="metadata2280">
    <rdf:RDF>
      <cc:Work
         rdf:about="">
        <dc:format>image/svg+xml</dc:format>
        <dc:type
           rdf:resource="http://purl.org/dc/dcmitype/StillImage" />
        <dc:title />
      </cc:Work>
    </rdf:RDF>
  </metadata>
  <g
     inkscape:label="Layer 1"
     inkscape:groupmode="layer"
     id="layer1"
     transform="translate(419.82914,-573.61337)">
    <g
       id="g133">
      <path
         sodipodi:nodetypes="ccccscccccsccsscccccccccccccccccssscccccccccccccccccccsccsccccccccccscccccccccccccccccccsccsccccccccccccccccccccccsccccccccccccccccccccccccccc"
         inkscape:connector-curvature="0"
         id="path2860"
         d="m -196.51553,575.54601 h -185.98645 l -3.11099,0.005 c -3.51912,0 -6.7669,6.535 -9.6894,6.53556 -2.92259,0 -5.51947,-6.53192 -7.73692,-6.53192 h -5.45908 c 0,0 -10.17971,-0.40514 -9.62285,9.39771 l 0.007,9.39407 0.007,139.13459 c -0.54776,8.98422 9.63199,9.38861 9.63199,9.38861 h 5.45908 c 2.2175,0 4.81532,6.53253 7.73781,6.53192 2.92259,0 6.17028,-6.53556 9.6894,-6.53556 78.53649,-0.0378 93.75539,0 171.89443,0 h 9.6894 c 2.92254,0 5.55121,-0.37373 7.73698,0 h 5.45903 l 14.87504,-0.007 0.0411,-14.42104 h -2.21774 -5.45908 -7.73693 -9.6894 -11.31737 -131.64193 -9.68939 -7.73786 -5.45904 c 0,0 -10.17975,-0.40444 -9.63199,-9.38861 l -0.007,-9.39407 -0.007,-9.39319 c -0.55686,-9.80285 9.62285,-9.39771 9.62285,-9.39771 h 5.45908 c 2.21746,0 4.81434,6.53192 7.73693,6.53192 2.92249,0 6.17027,-6.53556 9.68939,-6.53556 h 142.9593 l 25.34699,-0.32477 -0.21454,-3.36595 0.007,-8.60746 c -0.0219,-0.0679 -0.0387,-0.14197 -0.0684,-0.20236 -0.17978,-0.35907 -0.30359,-0.56334 -0.47216,-0.68361 -0.16838,-0.12036 -0.38171,-0.15667 -0.74107,-0.18234 -0.21225,-0.0149 -0.37065,-0.0261 -0.54598,0 -0.17543,0.0275 -0.36771,0.0941 -0.64535,0.23521 -0.55532,0.28208 -1.45455,0.86152 -3.25413,2.02173 -0.51453,0.33173 -0.96835,0.5865 -1.36728,0.76659 -0.39912,0.18006 -0.74288,0.28567 -1.03728,0.31904 -0.39389,0.0448 -0.63316,0.0509 -0.86502,-0.0355 -0.23185,-0.0872 -0.45647,-0.26774 -0.82129,-0.59704 -0.32575,-0.29402 -0.54351,-0.53867 -0.71189,-0.83679 -0.1682,-0.29813 -0.28665,-0.64931 -0.41294,-1.15577 -0.25043,-1.00489 -0.44098,-2.13135 -0.5724,-3.32068 -0.13142,-1.18924 -0.20404,-2.44096 -0.21785,-3.69894 h -0.007 c -4e-5,-0.0652 0,-0.13067 0,-0.19596 0,-0.0652 -0.007,-0.13063 -0.007,-0.19597 h 0.007 c 0.0126,-1.25788 0.0839,-2.51031 0.21422,-3.69982 0.1303,-1.18952 0.31926,-2.31649 0.56876,-3.32157 0.12573,-0.50674 0.24394,-0.85755 0.41204,-1.15582 0.16806,-0.29831 0.38638,-0.54333 0.71186,-0.83767 0.36448,-0.32967 0.58859,-0.5108 0.8204,-0.59798 0.23171,-0.0872 0.47113,-0.0799 0.86502,-0.0364 0.29439,0.0331 0.63891,0.13842 1.03821,0.31815 0.39912,0.17963 0.85326,0.43346 1.36817,0.76472 1.8007,1.15844 2.70034,1.73751 3.25595,2.01902 0.27777,0.1408 0.46893,0.20684 0.64441,0.23428 0.17538,0.0275 0.33467,0.0154 0.54692,0 0.35926,-0.0261 0.57268,-0.0638 0.74107,-0.18415 0.16838,-0.12041 0.29177,-0.32342 0.47127,-0.68273 0.0378,-0.0755 0.0597,-0.16713 0.0857,-0.25337 l 0.007,-14.69639 0.007,-8.88724 c -0.0275,-0.0751 -0.0443,-0.16316 -0.0784,-0.23246 -0.17977,-0.35912 -0.30363,-0.5634 -0.47215,-0.68362 -0.16843,-0.12031 -0.38176,-0.15676 -0.74107,-0.18233 -0.21225,-0.0149 -0.37056,-0.0261 -0.54599,0 -0.17533,0.0275 -0.36775,0.0942 -0.64534,0.23521 -0.55537,0.28207 -1.45455,0.86152 -3.25413,2.02173 -0.51467,0.33172 -0.9683,0.58645 -1.36723,0.76659 -0.39912,0.17996 -0.74294,0.28562 -1.03733,0.31903 -0.39384,0.0448 -0.63316,0.0497 -0.86502,-0.0373 -0.23185,-0.0871 -0.45638,-0.26775 -0.82129,-0.59705 -0.32575,-0.29401 -0.54351,-0.5387 -0.7119,-0.83678 -0.16824,-0.29813 -0.28664,-0.64918 -0.41288,-1.15582 -0.25048,-1.00475 -0.44103,-2.13131 -0.57245,-3.32063 -0.13142,-1.18928 -0.20404,-2.44101 -0.21786,-3.69894 h -0.007 c -1.9e-4,-0.0652 0,-0.13063 0,-0.19597 0,-0.0653 -0.007,-0.13062 -0.007,-0.19596 h 0.007 c 0.0126,-1.25798 0.0839,-2.51031 0.21421,-3.69982 0.13031,-1.18952 0.31927,-2.3165 0.56881,-3.32157 0.12568,-0.50674 0.24399,-0.85755 0.412,-1.15582 0.16806,-0.29827 0.38638,-0.54333 0.7119,-0.83767 0.36444,-0.32968 0.58869,-0.5108 0.82036,-0.59798 0.23171,-0.0872 0.47113,-0.0808 0.86502,-0.0373 0.29439,0.0331 0.63904,0.13837 1.03821,0.3181 0.39912,0.17972 0.8533,0.43351 1.36816,0.76477 1.8007,1.15843 2.70035,1.73746 3.25595,2.01897 0.27773,0.14076 0.46899,0.20684 0.64446,0.23428 0.17534,0.0275 0.33462,0.0154 0.54688,0 0.35917,-0.0261 0.57277,-0.0637 0.74106,-0.18411 0.16839,-0.12041 0.29183,-0.32347 0.47127,-0.68273 0.0485,-0.0968 0.0728,-0.22046 0.1094,-0.32449 l 0.0154,-10.89352 0.0135,-8.48714 0.006,-3.21217 c -0.0566,-0.2285 -0.11546,-0.42992 -0.20693,-0.61254 -0.17977,-0.35912 -0.30363,-0.5634 -0.47216,-0.68362 -0.16843,-0.12031 -0.3818,-0.15676 -0.74106,-0.18234 -0.2123,-0.0149 -0.37056,-0.0266 -0.54599,0 -0.17534,0.0275 -0.36776,0.094 -0.64535,0.23517 -0.55537,0.28207 -1.45455,0.86162 -3.25413,2.02177 -0.51458,0.33178 -0.96825,0.5865 -1.36728,0.7666 -0.39902,0.1801 -0.74288,0.28566 -1.03727,0.31899 -0.39385,0.0448 -0.63326,0.0497 -0.86502,-0.0373 -0.23186,-0.0872 -0.45639,-0.26774 -0.82129,-0.59704 -0.32581,-0.29402 -0.54357,-0.53866 -0.7119,-0.83679 -0.16829,-0.29794 -0.2866,-0.64922 -0.41289,-1.15582 -0.25047,-1.00489 -0.44103,-2.13144 -0.57245,-3.32063 -0.13147,-1.18933 -0.20404,-2.44091 -0.21785,-3.69894 h -0.007 c -1.4e-4,-0.0652 4.2e-4,-0.13067 0.007,-0.19596 0,-0.0653 -0.007,-0.13082 -0.007,-0.19597 h 0.007 c 0.0126,-1.25802 0.0839,-2.51045 0.21421,-3.69987 0.1303,-1.18951 0.31927,-2.31644 0.56876,-3.32152 0.12578,-0.50674 0.24395,-0.85751 0.412,-1.15582 0.16815,-0.29831 0.38643,-0.54337 0.7119,-0.83767 0.36449,-0.32967 0.5886,-0.5108 0.82036,-0.59798 0.23176,-0.0873 0.47117,-0.0799 0.86507,-0.0364 0.29439,0.0331 0.63895,0.13842 1.03821,0.3181 0.39916,0.17968 0.85326,0.43347 1.36816,0.76478 1.8007,1.15847 2.70021,1.7375 3.25595,2.01901 0.27778,0.14076 0.46903,0.20675 0.64442,0.23424 0.17538,0.0275 0.33466,0.0163 0.54692,0 0.35921,-0.0261 0.57268,-0.0637 0.74106,-0.18411 0.16839,-0.12036 0.29169,-0.32352 0.47127,-0.68273 0.10529,-0.2109 0.17814,-0.42175 0.23788,-0.70733 l 0.0163,-10.33843 c -7.51389,-0.14962 -13.97012,0.13437 -20.74542,0.0563 z"
         style="fill:#b68a45;fill-opacity:1;stroke:#927038;stroke-width:3.37654328;stroke-miterlimit:4;stroke-dasharray:none;stroke-opacity:1" />
      <path
         id="path2804"
         d="m -386.60933,577.35794 c 42.24573,38.9119 180.52611,100.2186 194.68833,111.4081 l 15.14621,0.1387 c -0.39719,-6.48501 -0.0429,-3.22829 -0.0898,-9.78791 l -4.25838,2.76172 c -1.18049,0.38399 -2.15563,1.17862 -3.50986,1.08889 -1.32243,-0.0723 -1.88676,-0.99742 -2.86171,-1.74874 -0.8698,-1.36823 -0.99736,-2.56278 -1.37763,-3.88365 l -0.36887,-6.05031 0.52935,-6.5722 c 0.42003,-1.28608 0.76103,-2.28792 1.59162,-3.68453 0.99923,-0.50253 0.94036,-1.17881 3.23445,-1.20749 1.8264,0.35929 3.46338,1.57145 5.14759,2.59408 0.64865,0.50446 1.26574,0.78784 1.89865,1.18173 0.0274,-6.10967 0.007,-15.4475 0.0348,-21.55711 -0.0274,-0.0752 -0.0442,-0.16322 -0.0784,-0.23247 -0.17977,-0.35911 -0.30373,-0.56334 -0.47217,-0.68362 -0.16851,-0.12028 -0.38182,-0.15668 -0.74105,-0.18232 -0.21232,-0.0149 -0.37062,-0.0261 -0.54604,0 -0.17535,0.0274 -0.36769,0.0941 -0.64535,0.23521 -0.5553,0.28207 -1.45447,0.86159 -3.25405,2.02173 -0.51461,0.33173 -0.96823,0.58648 -1.36729,0.76656 -0.39899,0.18008 -0.74292,0.28574 -1.03731,0.31904 -0.39383,0.0448 -0.63321,0.0504 -0.865,-0.0367 -0.23192,-0.087 -0.45649,-0.26769 -0.82133,-0.597 -0.32575,-0.29401 -0.54348,-0.53869 -0.71186,-0.83681 -0.16826,-0.29806 -0.28655,-0.64921 -0.41294,-1.15579 -0.25039,-1.00483 -0.44099,-2.13137 -0.57241,-3.32063 -0.13149,-1.18933 -0.20404,-2.44101 -0.21779,-3.69897 h -0.006 c -2.5e-4,-0.0653 0,-0.13061 0,-0.19595 0,-0.0653 -0.006,-0.13068 -0.006,-0.19595 h 0.006 c 0.0125,-1.25796 0.0838,-6.24395 0.21412,-7.4334 0.13037,-1.18952 0.31935,-2.3165 0.56881,-3.32157 0.12576,-0.50677 0.24393,-0.85754 0.41206,-1.15585 0.16801,-0.29825 0.38643,-0.54336 0.71187,-0.83769 0.36452,-0.32961 0.58866,-0.51075 0.82033,-0.59793 0.23173,-0.0872 0.47111,-0.0806 0.865,-0.0367 0.29445,0.033 0.639,0.13845 1.03824,0.3181 0.39925,0.17971 0.85331,0.43353 1.36817,0.76482 1.8007,1.1584 2.70036,1.73748 3.25592,2.01899 0.27777,0.14075 0.46899,0.20684 0.64447,0.23421 0.17542,0.0274 0.33465,0.0156 0.54691,0 0.35923,-0.0261 0.57273,-0.0636 0.74111,-0.18412 0.16832,-0.12041 0.29184,-0.32339 0.47124,-0.68268 0.0485,-0.0968 0.0728,-0.22053 0.10939,-0.32451 l 0.0156,-9.96016 0.0124,-5.68691 0.006,-3.21217 c -0.0566,-0.22849 -0.11543,-0.42986 -0.20691,-0.61255 -0.17977,-0.35911 -0.30366,-0.5634 -0.47217,-0.68362 -0.16844,-0.12028 -0.38188,-0.15668 -0.74105,-0.18232 -0.21231,-0.0149 -0.37062,-0.0268 -0.54597,0 -0.17541,0.0274 -0.36776,0.0942 -0.64535,0.23515 -0.55536,0.28207 -1.45453,0.86158 -3.25417,2.02179 -0.51455,0.33173 -0.96824,0.58648 -1.3673,0.76656 -0.39899,0.18009 -0.74291,0.28568 -1.03724,0.31904 -0.39389,0.0448 -0.63322,0.0504 -0.86507,-0.0367 -0.23179,-0.0871 -0.45637,-0.26776 -0.82126,-0.59706 -0.32575,-0.29401 -0.54361,-0.53863 -0.71187,-0.83675 -0.16832,-0.29813 -0.28667,-0.64921 -0.41293,-1.15579 -0.25046,-1.00489 -0.441,-2.13137 -0.57242,-3.32069 -0.13148,-1.18927 -0.20404,-3.37434 -0.21785,-4.6323 h -0.006 c -1.3e-4,-0.0653 0,-0.13068 0.006,-0.19595 0,-0.0653 -0.006,-0.13068 -0.006,-0.19601 h 0.006 c 0.0125,-1.2579 0.0839,-5.3105 0.21424,-6.50002 0.13031,-1.18951 0.31929,-2.31642 0.56881,-3.32156 0.12576,-0.50671 0.24393,-0.85754 0.412,-1.15579 0.16807,-0.29825 0.38643,-0.54336 0.71187,-0.83769 0.36452,-0.32967 0.5886,-0.51075 0.82039,-0.59793 0.23173,-0.0872 0.47111,-0.0807 0.865,-0.0367 0.29446,0.033 0.639,0.13845 1.03824,0.3181 0.39918,0.17971 0.85325,0.43353 1.36817,0.76476 1.8007,1.15846 2.7003,1.73747 3.25592,2.01898 0.27777,0.14082 0.46906,0.20691 0.64447,0.23429 0.17536,0.0274 0.33459,0.0162 0.54685,0 0.35923,-0.0261 0.57273,-0.0637 0.74111,-0.18413 0.16838,-0.12041 0.29178,-0.32345 0.47124,-0.68268 0.10528,-0.21089 0.17815,-0.42177 0.23789,-0.70739 l -0.20672,-7.00504 z"
         style="fill:#ccac78;fill-opacity:1;stroke:none;stroke-width:3.37654328;stroke-miterlimit:4;stroke-dasharray:none;stroke-opacity:1"
         inkscape:connector-curvature="0"
         sodipodi:nodetypes="cccccccccccccccccccccscccccccccccscccccccccccccccccsccccscccccccccccscccccsccccccccc" />
      <rect
         style="opacity:0.5;fill:#e6e6e6;fill-opacity:1;stroke:none;stroke-width:10.99132729;stroke-miterlimit:4;stroke-dasharray:none;stroke-opacity:1"
         id="rect2773"
         width="76.947731"
         height="24.769279"
         x="-326.51544"
         y="582.90155"
         rx="3.2264981"
         ry="2.8515525" />
      <text
         id="text2777"
         y="603.46606"
         x="-288.66638"
         style="font-style:normal;font-variant:normal;font-weight:normal;font-stretch:normal;font-size:23.3712101px;line-height:1.25;font-family:'Bebas Neue';-inkscape-font-specification:'Bebas Neue';text-align:center;letter-spacing:0px;word-spacing:0px;text-anchor:middle;fill:#000000;fill-opacity:1;stroke:none;stroke-width:1.25202906"
         xml:space="preserve"><tspan
           style="font-style:normal;font-variant:normal;font-weight:normal;font-stretch:normal;font-family:Digitalt;-inkscape-font-specification:Digitalt;fill:#000000;stroke-width:1.25202906"
           y="603.46606"
           x="-288.66638"
           id="tspan2775"
           sodipodi:role="line">number</tspan></text>
      <text
         xml:space="preserve"
         style="font-style:normal;font-variant:normal;font-weight:normal;font-stretch:normal;font-size:23.3712101px;line-height:1.25;font-family:'Bebas Neue';-inkscape-font-specification:'Bebas Neue';text-align:center;letter-spacing:0px;word-spacing:0px;text-anchor:middle;fill:#ffffff;fill-opacity:1;stroke:none;stroke-width:1.25202906"
         x="-371.05133"
         y="603.46606"
         id="text2781"><tspan
           sodipodi:role="line"
           id="tspan2779"
           x="-371.05133"
           y="603.46606"
           style="font-style:normal;font-variant:normal;font-weight:normal;font-stretch:normal;font-family:Digitalt;-inkscape-font-specification:Digitalt;fill:#ffffff;stroke-width:1.25202906">for each</tspan></text>
      <text
         xml:space="preserve"
         style="font-style:normal;font-variant:normal;font-weight:normal;font-stretch:normal;font-size:23.3712101px;line-height:1.25;font-family:Digitalt;-inkscape-font-specification:Digitalt;text-align:center;letter-spacing:0px;word-spacing:0px;text-anchor:middle;fill:#ffffff;fill-opacity:1;stroke:none;stroke-width:1.25202906;"
         x="-210.36803"
         y="641.25732"
         id="text2771"><tspan
           sodipodi:role="line"
           id="tspan2769"
           x="-210.36803"
           y="641.25732"
           style="font-style:normal;font-variant:normal;font-weight:normal;font-stretch:normal;font-family:Digitalt;-inkscape-font-specification:Digitalt;fill:#ffffff;stroke-width:1.25202906;">to</tspan></text>
      <text
         id="text2785"
         y="603.46606"
         x="-222.5464"
         style="font-style:normal;font-variant:normal;font-weight:normal;font-stretch:normal;font-size:23.3712101px;line-height:1.25;font-family:Digitalt;-inkscape-font-specification:Digitalt;text-align:center;letter-spacing:0px;word-spacing:0px;text-anchor:middle;fill:#ffffff;fill-opacity:1;stroke:none;stroke-width:1.25202906;"
         xml:space="preserve"><tspan
           style="font-style:normal;font-variant:normal;font-weight:normal;font-stretch:normal;font-family:Digitalt;-inkscape-font-specification:Digitalt;fill:#ffffff;stroke-width:1.25202906;"
           y="603.46606"
           x="-222.5464"
           id="tspan2783"
           sodipodi:role="line">from</tspan></text>
      <text
         id="text2865"
         y="678.59302"
         x="-211.31836"
         style="font-style:normal;font-variant:normal;font-weight:normal;font-stretch:normal;font-size:23.3712101px;line-height:1.25;font-family:Digitalt;-inkscape-font-specification:Digitalt;text-align:center;letter-spacing:0px;word-spacing:0px;text-anchor:middle;fill:#ffffff;fill-opacity:1;stroke:none;stroke-width:1.25202906;"
         xml:space="preserve"><tspan
           style="font-style:normal;font-variant:normal;font-weight:normal;font-stretch:normal;font-family:Digitalt;-inkscape-font-specification:Digitalt;fill:#ffffff;stroke-width:1.25202906;"
           y="678.59302"
           x="-211.31836"
           id="tspan2863"
           sodipodi:role="line">by</tspan></text>
      <text
         id="text2869"
         y="717.8158"
         x="-397.3063"
         style="font-style:normal;font-variant:normal;font-weight:normal;font-stretch:normal;font-size:23.3712101px;line-height:1.25;font-family:Digitalt;-inkscape-font-specification:Digitalt;text-align:center;letter-spacing:0px;word-spacing:0px;text-anchor:middle;fill:#ffffff;fill-opacity:1;stroke:none;stroke-width:1.25202906;"
         xml:space="preserve"><tspan
           style="font-style:normal;font-variant:normal;font-weight:normal;font-stretch:normal;font-family:Digitalt;-inkscape-font-specification:Digitalt;fill:#ffffff;stroke-width:1.25202906;"
           y="717.8158"
           x="-397.3063"
           id="tspan2867"
           sodipodi:role="line">do</tspan></text>
      <g
         transform="matrix(0.62226092,0,0,-0.62226092,822.55405,1683.3354)"
         id="g2948">
        <path
           style="fill:#2974af;fill-opacity:1;stroke:#225d8c;stroke-width:5.42624998;stroke-miterlimit:4;stroke-dasharray:none;stroke-opacity:1"
           d="m -1533.0227,1720.333 0.1777,60.059 -24.2345,0.2657 -47.2703,-0.3021 -0.08,-8.5249 c -0.073,-7.7563 -0.1384,-8.6421 -0.7264,-9.8255 -0.5745,-1.1558 -0.7909,-1.3112 -1.9451,-1.3969 -1.3644,-0.1014 -1.3598,-0.104 -7.1546,3.608 -1.6571,1.0615 -2.9236,1.6286 -3.8702,1.733 -1.2662,0.1395 -1.5369,0.037 -2.7065,-1.0247 -1.0442,-0.948 -1.3982,-1.5786 -1.7993,-3.2081 -0.7954,-3.232 -1.2039,-7.2424 -1.2365,-11.2856 h -0.01 c 4e-4,-0.105 0.01,-0.2096 0.01,-0.3146 -6e-4,-0.105 0,-0.2096 0,-0.3146 h 0.01 c 0.052,-4.043 0.4804,-8.0507 1.2916,-11.2787 0.409,-1.6275 0.7661,-2.2564 1.8149,-3.1994 1.1749,-1.0561 1.4455,-1.1584 2.7115,-1.012 0.946,0.109 2.2098,0.6823 3.8616,1.7518 5.7767,3.7402 5.7721,3.7376 7.1369,3.6429 1.1547,-0.08 1.3719,-0.2344 1.9519,-1.3874 0.5938,-1.1805 0.6636,-2.066 0.7743,-9.8219 l 0.1217,-8.5244 47.2704,0.3021 z"
           id="path1502"
           inkscape:connector-curvature="0"
           sodipodi:nodetypes="cccccccccccccccccccscccccc" />
        <path
           sodipodi:nodetypes="ccccc"
           inkscape:connector-curvature="0"
           id="path1504"
           d="m -1534.5998,1722.9201 -0.4993,55.1398 -66.1732,-0.7497 c 42.6803,-42.4867 55.525,-43.9618 63.7376,-54.3302 z"
           style="fill:#37abc8;fill-opacity:1;stroke:none;stroke-width:5.42624998;stroke-miterlimit:4;stroke-dasharray:none;stroke-opacity:1" />
        <rect
           ry="12.192355"
           rx="5.969604"
           transform="scale(1,-1)"
           y="-1770.2092"
           x="-1598.51"
           height="39.805294"
           width="59.067501"
           id="rect12558"
           style="opacity:0.5;fill:#e6e6e6;fill-opacity:1;stroke:none;stroke-width:12.20788097;stroke-miterlimit:4;stroke-dasharray:none;stroke-opacity:1" />
        <text
           xml:space="preserve"
           style="font-style:normal;font-variant:normal;font-weight:normal;font-stretch:normal;font-size:14px;line-height:1.25;font-family:'Bebas Neue';-inkscape-font-specification:'Bebas Neue';text-align:center;letter-spacing:0px;word-spacing:0px;text-anchor:middle;fill:#000000;fill-opacity:1;stroke:none;stroke-width:0.75"
           x="-1569.2489"
           y="-1738.6263"
           id="text12562"
           transform="scale(1,-1)"><tspan
             sodipodi:role="line"
             id="tspan12560"
             x="-1569.2489"
             y="-1738.6263"
             style="font-size:37.55800247px;stroke-width:0.75;-inkscape-font-specification:Digitalt;font-family:Digitalt;font-weight:normal;font-style:normal;font-stretch:normal;font-variant:normal">1</tspan></text>
        <rect
           rx="2.2686081"
           ry="1.9705567"
           transform="matrix(0.9999967,-0.00256827,-0.0230192,-0.99973502,0,0)"
           y="-1772.9382"
           x="-1605.3293"
           height="3.9411135"
           width="26.248585"
           id="rect12566"
           style="opacity:1;fill:#ffffff;fill-opacity:1;stroke:none;stroke-width:2.71123862;stroke-miterlimit:4;stroke-dasharray:none;stroke-opacity:1" />
      </g>
      <g
         transform="matrix(0.62226092,0,0,-0.62226092,822.55405,1684.2688)"
         id="g2940">
        <path
           sodipodi:nodetypes="cccccccccccccccccccscccccc"
           inkscape:connector-curvature="0"
           id="path2888"
           d="m -1533.0227,1660.333 0.1777,60.059 -24.2345,0.2657 -47.2703,-0.3021 -0.08,-8.5249 c -0.073,-7.7563 -0.1384,-8.6421 -0.7264,-9.8255 -0.5745,-1.1558 -0.7909,-1.3112 -1.9451,-1.3969 -1.3644,-0.1014 -1.3598,-0.104 -7.1546,3.608 -1.6571,1.0615 -2.9236,1.6286 -3.8702,1.733 -1.2662,0.1395 -1.5369,0.037 -2.7065,-1.0247 -1.0442,-0.948 -1.3982,-1.5786 -1.7993,-3.2081 -0.7954,-3.232 -1.2039,-7.2424 -1.2365,-11.2856 h -0.01 c 4e-4,-0.105 0.01,-0.2096 0.01,-0.3146 -6e-4,-0.105 0,-0.2096 0,-0.3146 h 0.01 c 0.052,-4.043 0.4804,-8.0507 1.2916,-11.2787 0.409,-1.6275 0.7661,-2.2564 1.8149,-3.1994 1.1749,-1.0561 1.4455,-1.1584 2.7115,-1.012 0.946,0.109 2.2098,0.6823 3.8616,1.7518 5.7767,3.7402 5.7721,3.7376 7.1369,3.6429 1.1547,-0.08 1.3719,-0.2344 1.9519,-1.3874 0.5938,-1.1805 0.6636,-2.066 0.7743,-9.8219 l 0.1217,-8.5244 47.2704,0.3021 z"
           style="fill:#2974af;fill-opacity:1;stroke:#225d8c;stroke-width:5.42624998;stroke-miterlimit:4;stroke-dasharray:none;stroke-opacity:1" />
        <path
           style="fill:#37abc8;fill-opacity:1;stroke:none;stroke-width:5.42624998;stroke-miterlimit:4;stroke-dasharray:none;stroke-opacity:1"
           d="m -1534.5998,1662.9201 -0.4993,55.1398 -66.1732,-0.7497 c 42.6803,-42.4867 55.525,-43.9618 63.7376,-54.3302 z"
           id="path2890"
           inkscape:connector-curvature="0"
           sodipodi:nodetypes="ccccc" />
        <rect
           style="opacity:0.5;fill:#e6e6e6;fill-opacity:1;stroke:none;stroke-width:12.20788097;stroke-miterlimit:4;stroke-dasharray:none;stroke-opacity:1"
           id="rect2892"
           width="59.067501"
           height="39.805294"
           x="-1598.51"
           y="-1710.2092"
           transform="scale(1,-1)"
           rx="5.969604"
           ry="12.192355" />
        <text
           transform="scale(1,-1)"
           id="text2896"
           y="-1678.6263"
           x="-1569.0048"
           style="font-style:normal;font-variant:normal;font-weight:normal;font-stretch:normal;font-size:14px;line-height:1.25;font-family:'Bebas Neue';-inkscape-font-specification:'Bebas Neue';text-align:center;letter-spacing:0px;word-spacing:0px;text-anchor:middle;fill:#000000;fill-opacity:1;stroke:none;stroke-width:0.75"
           xml:space="preserve"><tspan
             style="font-size:37.55800247px;stroke-width:0.75;-inkscape-font-specification:Digitalt;font-family:Digitalt;font-weight:normal;font-style:normal;font-stretch:normal;font-variant:normal"
             y="-1678.6263"
             x="-1569.0048"
             id="tspan2894"
             sodipodi:role="line">5</tspan></text>
        <rect
           style="opacity:1;fill:#ffffff;fill-opacity:1;stroke:none;stroke-width:2.71123862;stroke-miterlimit:4;stroke-dasharray:none;stroke-opacity:1"
           id="rect2898"
           width="26.248585"
           height="3.9411135"
           x="-1603.9479"
           y="-1712.9259"
           transform="matrix(0.9999967,-0.00256827,-0.0230192,-0.99973502,0,0)"
           ry="1.9705567"
           rx="2.2686081" />
      </g>
      <g
         transform="matrix(0.62226092,0,0,-0.62226092,822.55405,1683.3354)"
         id="g2956">
        <path
           style="fill:#2974af;fill-opacity:1;stroke:#225d8c;stroke-width:5.42624998;stroke-miterlimit:4;stroke-dasharray:none;stroke-opacity:1"
           d="m -1533.0227,1595.833 0.1777,60.059 -24.2345,0.2657 -47.2703,-0.3021 -0.08,-8.5249 c -0.073,-7.7563 -0.1384,-8.6421 -0.7264,-9.8255 -0.5745,-1.1558 -0.7909,-1.3112 -1.9451,-1.3969 -1.3644,-0.1014 -1.3598,-0.104 -7.1546,3.608 -1.6571,1.0615 -2.9236,1.6286 -3.8702,1.733 -1.2662,0.1395 -1.5369,0.037 -2.7065,-1.0247 -1.0442,-0.948 -1.3982,-1.5786 -1.7993,-3.2081 -0.7954,-3.232 -1.2039,-7.2424 -1.2365,-11.2856 h -0.01 c 4e-4,-0.105 0.01,-0.2096 0.01,-0.3146 -6e-4,-0.105 0,-0.2096 0,-0.3146 h 0.01 c 0.052,-4.043 0.4804,-8.0507 1.2916,-11.2787 0.409,-1.6275 0.7661,-2.2564 1.8149,-3.1994 1.1749,-1.0561 1.4455,-1.1584 2.7115,-1.012 0.946,0.109 2.2098,0.6823 3.8616,1.7518 5.7767,3.7402 5.7721,3.7376 7.1369,3.6429 1.1547,-0.08 1.3719,-0.2344 1.9519,-1.3874 0.5938,-1.1805 0.6636,-2.066 0.7743,-9.8219 l 0.1217,-8.5244 47.2704,0.3021 z"
           id="path2902"
           inkscape:connector-curvature="0"
           sodipodi:nodetypes="cccccccccccccccccccscccccc" />
        <path
           sodipodi:nodetypes="ccccc"
           inkscape:connector-curvature="0"
           id="path2904"
           d="m -1534.5998,1598.4201 -0.4993,55.1398 -66.1732,-0.7497 c 42.6803,-42.4867 55.525,-43.9618 63.7376,-54.3302 z"
           style="fill:#37abc8;fill-opacity:1;stroke:none;stroke-width:5.42624998;stroke-miterlimit:4;stroke-dasharray:none;stroke-opacity:1" />
        <rect
           ry="12.192355"
           rx="5.969604"
           transform="scale(1,-1)"
           y="-1645.7092"
           x="-1598.51"
           height="39.805294"
           width="59.067501"
           id="rect2906"
           style="opacity:0.5;fill:#e6e6e6;fill-opacity:1;stroke:none;stroke-width:12.20788097;stroke-miterlimit:4;stroke-dasharray:none;stroke-opacity:1" />
        <text
           xml:space="preserve"
           style="font-style:normal;font-variant:normal;font-weight:normal;font-stretch:normal;font-size:14px;line-height:1.25;font-family:'Bebas Neue';-inkscape-font-specification:'Bebas Neue';text-align:center;letter-spacing:0px;word-spacing:0px;text-anchor:middle;fill:#000000;fill-opacity:1;stroke:none;stroke-width:0.75"
           x="-1569.2489"
           y="-1614.1263"
           id="text2910"
           transform="scale(1,-1)"><tspan
             sodipodi:role="line"
             id="tspan2908"
             x="-1569.2489"
             y="-1614.1263"
             style="font-size:37.55800247px;stroke-width:0.75;-inkscape-font-specification:Digitalt;font-family:Digitalt;font-weight:normal;font-style:normal;font-stretch:normal;font-variant:normal">1</tspan></text>
        <rect
           rx="2.2686081"
           ry="1.9705567"
           transform="matrix(0.9999967,-0.00256827,-0.0230192,-0.99973502,0,0)"
           y="-1648.4126"
           x="-1602.4629"
           height="3.9411135"
           width="26.248585"
           id="rect2912"
           style="opacity:1;fill:#ffffff;fill-opacity:1;stroke:none;stroke-width:2.71123862;stroke-miterlimit:4;stroke-dasharray:none;stroke-opacity:1" />
      </g>
    </g>
  </g>
</svg>
