<?xml version="1.0" encoding="UTF-8" standalone="no"?>
<!-- Created with Inkscape (http://www.inkscape.org/) -->

<svg
   xmlns:dc="http://purl.org/dc/elements/1.1/"
   xmlns:cc="http://creativecommons.org/ns#"
   xmlns:rdf="http://www.w3.org/1999/02/22-rdf-syntax-ns#"
   xmlns:svg="http://www.w3.org/2000/svg"
   xmlns="http://www.w3.org/2000/svg"
   xmlns:sodipodi="http://sodipodi.sourceforge.net/DTD/sodipodi-0.dtd"
   xmlns:inkscape="http://www.inkscape.org/namespaces/inkscape"
   width="368.90857mm"
   height="118.95416mm"
   viewBox="0 0 368.90857 118.95417"
   version="1.1"
   id="svg2283"
   inkscape:version="0.92.3 (2405546, 2018-03-11)"
   sodipodi:docname="colors_make_color.svg">
  <defs
     id="defs2277" />
  <sodipodi:namedview
     id="base"
     pagecolor="#ffffff"
     bordercolor="#666666"
     borderopacity="1.0"
     inkscape:pageopacity="0.0"
     inkscape:pageshadow="2"
     inkscape:zoom="0.35"
     inkscape:cx="743.09613"
     inkscape:cy="385.94439"
     inkscape:document-units="mm"
     inkscape:current-layer="layer1"
     showgrid="false"
     fit-margin-top="0"
     fit-margin-left="0"
     fit-margin-right="0"
     fit-margin-bottom="0"
     inkscape:window-width="1920"
     inkscape:window-height="1001"
     inkscape:window-x="0"
     inkscape:window-y="0"
     inkscape:window-maximized="1" />
  <metadata
     id="metadata2280">
    <rdf:RDF>
      <cc:Work
         rdf:about="">
        <dc:format>image/svg+xml</dc:format>
        <dc:type
           rdf:resource="http://purl.org/dc/dcmitype/StillImage" />
        <dc:title></dc:title>
      </cc:Work>
    </rdf:RDF>
  </metadata>
  <g
     inkscape:label="Layer 1"
     inkscape:groupmode="layer"
     id="layer1"
     transform="translate(281.27751,-373.89835)">
    <g
       id="g3199"
       transform="matrix(0.62226092,0,0,-0.62226092,542.69042,307.17986)"
       inkscape:export-filename="/home/peter/allblocks.png"
       inkscape:export-xdpi="42.094723"
       inkscape:export-ydpi="42.094723">
      <g
         transform="translate(-266.77364,-571.88742)"
         id="g12257">
        <path
           style="fill:#7c7c7c;fill-opacity:1;stroke:#646464;stroke-width:5.42624998;stroke-miterlimit:4;stroke-dasharray:none;stroke-opacity:1"
           d="m -809.25615,276.7796 0.26022,141.6183 c -0.10095,0.5244 -0.23513,0.8631 -0.42008,1.2296 -0.58156,1.1522 -0.79897,1.3064 -1.95373,1.3849 -1.36495,0.093 -1.36036,0.095 -7.13204,-3.6525 -1.65043,-1.0717 -2.91343,-1.6467 -3.85936,-1.7569 -1.26534,-0.1475 -1.5366,-0.046 -2.71281,1.0084 -1.0501,0.9415 -1.40797,1.57 -1.81911,3.1969 -0.81553,3.227 -1.24892,7.2341 -1.30663,11.2771 l -0.009,-4e-4 c -5.6e-4,0.105 0.003,0.2097 0.004,0.3147 -0.002,0.1049 -0.007,0.2096 -0.007,0.3145 l 0.009,4e-4 c 0.0273,4.0432 0.4304,8.0541 1.22157,11.2872 0.39889,1.63 0.75201,2.2611 1.79496,3.2105 1.16823,1.0634 1.43872,1.1662 2.70515,1.0282 0.94673,-0.103 2.21401,-0.6685 3.87247,-1.7277 5.79976,-3.7044 5.79517,-3.7017 7.15937,-3.5986 1.15416,0.087 1.37038,0.2429 1.94326,1.3996 0.18222,0.3678 0.3138,0.7075 0.41079,1.2327 l -0.0633,16.7923 -24.23479,0.2334 -201.76989,-0.4665 -0.069,-8.525 c -0.062,-7.7565 -0.1268,-8.6424 -0.7133,-9.8265 -0.5729,-1.1566 -0.7891,-1.3123 -1.9432,-1.3996 -1.3642,-0.1031 -1.3596,-0.1057 -7.1594,3.5986 -1.6584,1.0593 -2.9257,1.6247 -3.8724,1.7278 -1.2664,0.1379 -1.537,0.035 -2.7052,-1.0282 -1.0429,-0.9494 -1.3961,-1.5805 -1.795,-3.2105 -0.7911,-3.2331 -1.1943,-7.244 -1.2215,-11.2873 h -0.01 c 5e-4,-0.105 0,-0.2096 0,-0.3146 -5e-4,-0.105 0,-0.2096 0,-0.3146 h 0.01 c 0.058,-4.0429 0.4911,-8.05 1.3066,-11.277 0.4111,-1.6269 0.769,-2.2554 1.8191,-3.1969 1.1763,-1.0545 1.447,-1.1565 2.7128,-1.0084 0.9459,0.1102 2.2089,0.6852 3.8593,1.7569 5.7717,3.7479 5.7671,3.7453 7.1321,3.6524 1.1548,-0.079 1.3721,-0.2326 1.9537,-1.3849 0.5954,-1.1796 0.6664,-2.065 0.7874,-9.8208 l 0.133,-133.0242 201.76983,0.4666 z"
           id="path1084"
           inkscape:connector-curvature="0"
           sodipodi:nodetypes="cccccccccccccccsccccccccccccccccccccccscccccc" />
        <path
           sodipodi:nodetypes="ccccccccccccccccscccccccc"
           inkscape:connector-curvature="0"
           id="path1086"
           d="m -810.83663,279.3646 0.32352,0.3259 0.27285,136.6497 c -0.10105,0.5243 -0.23514,0.8631 -0.42008,1.2295 -0.58157,1.1523 -0.79897,1.3064 -1.95375,1.3849 -1.36493,0.093 -1.98392,-0.1943 -7.75558,-3.9422 -1.65043,-1.0718 -2.91343,-1.6467 -3.85936,-1.7569 -1.50666,0.2379 -1.46275,0.3301 -2.63897,1.3848 -1.05009,0.9415 -1.48178,1.1936 -1.89296,2.8205 -0.81552,3.227 -1.76255,10.7865 -1.82027,14.8295 l -0.009,-4e-4 c -5.6e-4,0.1049 0.003,0.2097 0.004,0.3146 -0.002,0.1049 -0.006,0.2096 -0.007,0.3146 l 0.009,4e-4 c 0.0272,4.0432 0.89647,8.7663 1.68764,11.9994 0.39888,1.6299 0.752,2.2611 1.79496,3.2105 1.16823,1.0634 1.43872,1.1661 2.70514,1.0282 0.94673,-0.1031 2.21402,-0.6685 3.87248,-1.7278 5.79975,-3.7043 5.81975,-3.9177 7.18396,-3.8146 1.15415,0.087 1.37037,0.2429 1.94325,1.3996 0.18222,0.3678 0.3138,0.7075 0.4108,1.2327 l -0.42339,12.7562 -221.07141,-0.4473 c 58.02024,-38.4053 141.65839,-164.5016 193.20901,-179.1697 z"
           style="fill:#bababa;fill-opacity:1;stroke:none;stroke-width:5.42624998;stroke-miterlimit:4;stroke-dasharray:none;stroke-opacity:1" />
        <text
           transform="scale(1,-1)"
           id="text1322"
           y="-418.2887"
           x="-932.08215"
           style="font-style:normal;font-variant:normal;font-weight:normal;font-stretch:normal;font-size:37.55853653px;line-height:1.25;font-family:'Bebas Neue';-inkscape-font-specification:'Bebas Neue';text-align:center;letter-spacing:0px;word-spacing:0px;text-anchor:middle;fill:#333333;fill-opacity:1;stroke:none;stroke-width:2.01206446"
           xml:space="preserve"><tspan
             style="font-style:normal;font-variant:normal;font-weight:normal;font-stretch:normal;font-family:PAGRevolucionW00-Regular;-inkscape-font-specification:PAGRevolucionW00-Regular;fill:#ffffff;stroke-width:2.01206446"
             y="-418.2887"
             x="-932.08215"
             id="tspan1320"
             sodipodi:role="line">make color</tspan></text>
        <rect
           rx="4.0446839"
           ry="2.0164082"
           transform="matrix(0.9999721,0.00747001,0.02696542,-0.99963637,0,0)"
           y="-462.45786"
           x="-850.97693"
           height="4.0328164"
           width="46.330078"
           id="rect1328"
           style="opacity:1;fill:#ffffff;fill-opacity:1;stroke:none;stroke-width:2.33531046;stroke-miterlimit:4;stroke-dasharray:none;stroke-opacity:1" />
        <rect
           style="opacity:1;fill:#ffffff;fill-opacity:1;stroke:none;stroke-width:2.71123862;stroke-miterlimit:4;stroke-dasharray:none;stroke-opacity:1"
           id="rect1330"
           width="26.248585"
           height="3.9411135"
           x="-903.28516"
           y="-453.76437"
           transform="matrix(0.9999967,-0.00256827,-0.0230192,-0.99973502,0,0)"
           ry="1.9705567"
           rx="2.2686081" />
        <rect
           style="opacity:1;fill:#ffffff;fill-opacity:1;stroke:none;stroke-width:2.33531046;stroke-miterlimit:4;stroke-dasharray:none;stroke-opacity:1"
           id="rect12245"
           width="46.330078"
           height="4.0328164"
           x="-850.97693"
           y="-462.45786"
           transform="matrix(0.9999721,0.00747001,0.02696542,-0.99963637,0,0)"
           ry="2.0164082"
           rx="4.0446839" />
        <rect
           rx="2.2686081"
           ry="1.9705567"
           transform="matrix(0.9999967,-0.00256827,-0.0230192,-0.99973502,0,0)"
           y="-453.76437"
           x="-903.28516"
           height="3.9411135"
           width="26.248585"
           id="rect12247"
           style="opacity:1;fill:#ffffff;fill-opacity:1;stroke:none;stroke-width:2.71123862;stroke-miterlimit:4;stroke-dasharray:none;stroke-opacity:1" />
      </g>
      <g
         transform="translate(-85.5)"
         id="g3127">
        <path
           style="fill:#0ea7cf;fill-opacity:1;stroke:#1086a5;stroke-width:5.42624998;stroke-miterlimit:4;stroke-dasharray:none;stroke-opacity:1"
           d="m -744.6652,-110.32764 -0.01,-0.01 -245.2676,-0.3018 -0.081,-8.5254 c -0.073,-7.7563 -0.1399,-8.6413 -0.728,-9.8247 -0.5743,-1.1559 -0.7897,-1.3117 -1.9438,-1.3975 -1.3645,-0.1012 -1.3595,-0.104 -7.1543,3.608 -1.6572,1.0615 -2.9236,1.6286 -3.8701,1.7329 -1.2663,0.1396 -1.5375,0.036 -2.7071,-1.0254 -1.0441,-0.948 -1.3979,-1.5785 -1.7988,-3.208 -0.7956,-3.232 -1.2038,-7.2419 -1.2364,-11.2852 h -0.011 c 4e-4,-0.105 0.011,-0.2099 0.011,-0.3149 -4e-4,-0.105 -0.01,-0.2085 0,-0.3135 h 0.01 c 0.053,-4.043 0.4808,-8.0513 1.292,-11.2793 0.4091,-1.6275 0.7661,-2.2562 1.8149,-3.1992 1.1748,-1.0561 1.4455,-1.1585 2.7115,-1.0122 0.946,0.109 2.2095,0.6825 3.8613,1.752 5.7768,3.7401 5.7719,3.7376 7.1367,3.643 1.1546,-0.08 1.3726,-0.2342 1.9527,-1.3872 0.5938,-1.1805 0.6627,-2.0659 0.7734,-9.8218 l 0.1216,-133.0254 245.2705,0.3018 23.9092,0.059 0.01,4.8193 0.01,13.8325 c -0.035,0.1091 -0.062,0.2282 -0.1098,0.3252 -0.2889,0.5771 -0.488,0.9053 -0.7589,1.0986 -0.2706,0.1934 -0.6135,0.2518 -1.1909,0.293 -0.3412,0.024 -0.5956,0.042 -0.8774,0 -0.2819,-0.044 -0.5909,-0.1513 -1.0371,-0.3779 -0.8924,-0.4533 -2.3375,-1.3846 -5.2295,-3.2491 -0.8269,-0.5331 -1.5561,-0.9425 -2.1972,-1.2319 -0.6414,-0.2894 -1.194,-0.4591 -1.6671,-0.5127 -0.6329,-0.072 -1.0176,-0.081 -1.3901,0.058 -0.3726,0.1401 -0.7335,0.4303 -1.3198,0.9595 -0.5235,0.4725 -0.8735,0.8657 -1.1441,1.3448 -0.2704,0.4791 -0.4606,1.0433 -0.6635,1.8573 -0.4025,1.6149 -0.7088,3.4252 -0.92,5.3365 -0.2112,1.9112 -0.3279,3.9228 -0.3501,5.9443 h -0.01 c -1e-4,0.1049 0,0.2101 0,0.315 0,0.1048 -0.011,0.2099 -0.011,0.3149 h 0.011 c 0.02,2.0215 0.1349,4.0342 0.3443,5.9458 0.2094,1.9116 0.5131,3.7227 0.9141,5.3379 0.202,0.8143 0.392,1.3781 0.6621,1.8574 0.2701,0.4793 0.621,0.8732 1.144,1.3462 0.5858,0.5298 0.9459,0.8208 1.3184,0.9609 0.3724,0.1403 0.7571,0.1293 1.3901,0.059 0.4732,-0.053 1.0268,-0.2225 1.6685,-0.5113 0.6414,-0.2887 1.3712,-0.6966 2.1987,-1.229 2.8938,-1.8616 4.3395,-2.7922 5.2324,-3.2446 0.4464,-0.2263 0.7537,-0.3324 1.0357,-0.3765 0.2818,-0.044 0.5378,-0.025 0.8789,0 0.5773,0.042 0.9203,0.1025 1.1909,0.296 0.2706,0.1935 0.4689,0.5197 0.7573,1.0971 0.061,0.1214 0.096,0.2686 0.1377,0.4072 l 0.01,23.6177 0.01,14.2822 c -0.044,0.1207 -0.071,0.2622 -0.1259,0.3736 -0.2889,0.5771 -0.4881,0.9054 -0.7589,1.0986 -0.2707,0.1933 -0.6135,0.2519 -1.1909,0.293 -0.3411,0.024 -0.5955,0.042 -0.8774,0 -0.2818,-0.044 -0.591,-0.1513 -1.0371,-0.378 -0.8925,-0.4533 -2.3375,-1.3845 -5.2295,-3.249 -0.827,-0.5331 -1.5561,-0.9425 -2.1972,-1.2319 -0.6414,-0.2893 -1.194,-0.4591 -1.6671,-0.5127 -0.6329,-0.072 -1.0176,-0.081 -1.3901,0.059 -0.3727,0.14 -0.7334,0.4303 -1.3198,0.9595 -0.5235,0.4725 -0.8735,0.8657 -1.1441,1.3447 -0.2704,0.4791 -0.4606,1.0433 -0.6635,1.8575 -0.4025,1.6147 -0.7088,3.4251 -0.92,5.3364 -0.2112,1.9112 -0.3279,3.9228 -0.3501,5.9443 h -0.01 c -3e-4,0.1049 0,0.2099 0,0.3149 0,0.105 -0.01,0.21 -0.01,0.315 h 0.01 c 0.02,2.0216 0.1349,4.0342 0.3443,5.9458 0.2094,1.9116 0.5131,3.7227 0.9141,5.3379 0.202,0.8143 0.3921,1.3781 0.6621,1.8574 0.2701,0.4793 0.6209,0.8732 1.144,1.3462 0.5857,0.5298 0.946,0.8208 1.3184,0.9609 0.3724,0.1402 0.7571,0.1293 1.3901,0.059 0.4731,-0.053 1.027,-0.2224 1.6685,-0.5112 0.6414,-0.2888 1.3713,-0.6967 2.1987,-1.229 2.8938,-1.8617 4.3395,-2.7922 5.2324,-3.2446 0.4463,-0.2262 0.7537,-0.3324 1.0357,-0.3765 0.2818,-0.044 0.5378,-0.025 0.8789,0 0.5773,0.042 0.9204,0.1024 1.1909,0.2959 0.2706,0.1935 0.4689,0.5198 0.7573,1.0972 0.078,0.1555 0.117,0.3543 0.1758,0.5215 l 0.025,17.5063 0.02,13.6392 0.01,5.1621 c -0.091,0.3671 -0.1855,0.6908 -0.3325,0.9844 -0.2889,0.577 -0.488,0.9054 -0.7588,1.0986 -0.2707,0.1933 -0.6136,0.2518 -1.1909,0.2929 -0.3412,0.024 -0.5957,0.043 -0.8775,0 -0.2819,-0.044 -0.591,-0.1511 -1.0371,-0.3779 -0.8925,-0.4533 -2.3375,-1.3846 -5.2295,-3.249 -0.8269,-0.5332 -1.556,-0.9425 -2.1972,-1.2319 -0.6413,-0.2894 -1.1939,-0.4591 -1.667,-0.5127 -0.6329,-0.072 -1.0176,-0.08 -1.3901,0.06 -0.3726,0.14 -0.7335,0.4302 -1.3199,0.9594 -0.5236,0.4725 -0.8735,0.8657 -1.144,1.3448 -0.2705,0.4789 -0.4606,1.0433 -0.6636,1.8574 -0.4025,1.6148 -0.7087,3.4252 -0.9199,5.3364 -0.2113,1.9112 -0.3279,3.9227 -0.3501,5.9444 h -0.011 c -2e-4,0.1049 3e-4,0.2099 0.011,0.3149 0,0.1048 -0.011,0.2102 -0.011,0.3149 h 0.011 c 0.02,2.0217 0.1348,4.0344 0.3442,5.9458 0.2094,1.9116 0.5131,3.7227 0.9141,5.3379 0.2021,0.8143 0.392,1.3781 0.6621,1.8575 0.2702,0.4794 0.621,0.8731 1.144,1.3461 0.5858,0.5298 0.9459,0.8208 1.3184,0.9609 0.3724,0.1402 0.7572,0.1293 1.3902,0.059 0.4731,-0.053 1.0268,-0.2224 1.6684,-0.5112 0.6415,-0.2887 1.3712,-0.6966 2.1987,-1.229 2.8938,-1.8617 4.3395,-2.7922 5.2325,-3.2446 0.4464,-0.2262 0.7537,-0.3323 1.0356,-0.3765 0.2818,-0.044 0.5378,-0.026 0.8789,0 0.5773,0.042 0.9203,0.1024 1.1909,0.2959 0.2706,0.1934 0.4689,0.5198 0.7574,1.0972 0.1692,0.3388 0.2862,0.6778 0.3822,1.1367 l 0.025,16.8882 z"
           id="path2997"
           inkscape:connector-curvature="0"
           sodipodi:nodetypes="cccccccccccccccccccccccccccccccccccccccccccccsccccccccccscccccccccccccccccccsccscccccccccccccccccccccccccccccccccccccccccccccccccc" />
        <path
           id="path2999"
           d="m -987.2528,-113.4772 c 73.7299,-54.8973 201.9432,-173.1831 240.8725,-179.0376 l 24.3406,-0.2229 c -0.6383,10.4217 -0.069,5.188 -0.1443,15.7296 l -6.8434,-4.4382 c -1.8971,-0.6171 -3.4642,-1.8941 -5.6405,-1.7499 -2.1252,0.1162 -3.0321,1.6029 -4.5989,2.8103 -1.3978,2.1988 -1.6028,4.1185 -2.2139,6.2412 l -0.5928,9.7231 0.8507,10.5618 c 0.675,2.0668 1.223,3.6768 2.5578,5.9212 1.6058,0.8076 1.5112,1.8944 5.1979,1.9405 2.9351,-0.5774 5.5658,-2.5254 8.2724,-4.1688 1.0424,-0.8107 2.0341,-1.2661 3.0512,-1.8991 0.044,9.8185 0.012,24.8248 0.056,34.6432 -0.044,0.1209 -0.071,0.2623 -0.126,0.3736 -0.2889,0.5771 -0.4881,0.9053 -0.7588,1.0986 -0.2708,0.1933 -0.6136,0.2518 -1.1909,0.293 -0.3412,0.024 -0.5956,0.042 -0.8775,0 -0.2818,-0.044 -0.5909,-0.1513 -1.0371,-0.378 -0.8924,-0.4533 -2.3374,-1.3846 -5.2294,-3.249 -0.827,-0.5331 -1.556,-0.9425 -2.1973,-1.2319 -0.6412,-0.2894 -1.1939,-0.4592 -1.667,-0.5127 -0.6329,-0.072 -1.0176,-0.081 -1.3901,0.059 -0.3727,0.1399 -0.7336,0.4302 -1.3199,0.9594 -0.5235,0.4725 -0.8734,0.8657 -1.144,1.3448 -0.2704,0.479 -0.4605,1.0433 -0.6636,1.8574 -0.4024,1.6148 -0.7087,3.4252 -0.9199,5.3364 -0.2113,1.9113 -0.3279,3.9228 -0.35,5.9444 h -0.01 c -4e-4,0.1049 0,0.2099 0,0.3149 0,0.1049 -0.01,0.21 -0.01,0.3149 h 0.01 c 0.02,2.0216 0.1347,10.0343 0.3441,11.9458 0.2095,1.9116 0.5132,3.7227 0.9141,5.3379 0.2021,0.8144 0.392,1.3781 0.6622,1.8575 0.27,0.4793 0.621,0.8732 1.144,1.3462 0.5858,0.5297 0.946,0.8208 1.3183,0.9609 0.3724,0.1401 0.7571,0.1296 1.3901,0.059 0.4732,-0.053 1.0269,-0.2225 1.6685,-0.5112 0.6416,-0.2888 1.3713,-0.6967 2.1987,-1.2291 2.8938,-1.8616 4.3396,-2.7922 5.2324,-3.2446 0.4464,-0.2262 0.7537,-0.3324 1.0357,-0.3764 0.2819,-0.044 0.5378,-0.025 0.8789,0 0.5773,0.042 0.9204,0.1023 1.191,0.2959 0.2705,0.1935 0.469,0.5197 0.7573,1.0971 0.078,0.1555 0.117,0.3544 0.1758,0.5215 l 0.025,16.0064 0.02,9.1391 0.01,5.1621 c -0.091,0.3672 -0.1855,0.6908 -0.3325,0.9844 -0.2889,0.5771 -0.488,0.9054 -0.7588,1.0986 -0.2707,0.1933 -0.6137,0.2518 -1.1909,0.293 -0.3412,0.024 -0.5956,0.043 -0.8774,0 -0.2819,-0.044 -0.591,-0.1513 -1.0371,-0.3779 -0.8925,-0.4533 -2.3375,-1.3846 -5.2296,-3.2491 -0.8269,-0.5331 -1.556,-0.9425 -2.1973,-1.2319 -0.6412,-0.2894 -1.1939,-0.4591 -1.6669,-0.5127 -0.633,-0.072 -1.0176,-0.081 -1.3902,0.059 -0.3725,0.14 -0.7334,0.4303 -1.3198,0.9595 -0.5235,0.4725 -0.8736,0.8656 -1.144,1.3447 -0.2705,0.4791 -0.4607,1.0433 -0.6636,1.8574 -0.4025,1.6149 -0.7087,3.4252 -0.9199,5.3365 -0.2113,1.9112 -0.3279,5.4227 -0.3501,7.4443 h -0.01 c -2e-4,0.1049 0,0.21 0.01,0.3149 0,0.1049 -0.01,0.21 -0.01,0.315 h 0.01 c 0.02,2.0215 0.1349,8.5342 0.3443,10.4458 0.2094,1.9116 0.5131,3.7226 0.9141,5.3379 0.2021,0.8143 0.392,1.3781 0.6621,1.8574 0.2701,0.4793 0.621,0.8732 1.144,1.3462 0.5858,0.5298 0.9459,0.8208 1.3184,0.9609 0.3724,0.1402 0.7571,0.1297 1.3901,0.059 0.4732,-0.053 1.0269,-0.2225 1.6685,-0.5112 0.6415,-0.2888 1.3712,-0.6967 2.1987,-1.229 2.8938,-1.8617 4.3395,-2.7922 5.2324,-3.2446 0.4464,-0.2263 0.7538,-0.3325 1.0357,-0.3765 0.2818,-0.044 0.5377,-0.026 0.8788,0 0.5773,0.042 0.9204,0.1024 1.191,0.2959 0.2706,0.1935 0.4689,0.5198 0.7573,1.0971 0.1692,0.3389 0.2863,0.6778 0.3823,1.1368 l -0.3322,11.2574 z"
           style="fill:#6dc2dd;fill-opacity:1;stroke:none;stroke-width:5.42624998;stroke-miterlimit:4;stroke-dasharray:none;stroke-opacity:1"
           inkscape:connector-curvature="0"
           sodipodi:nodetypes="cccccccccccccccccccccscccccccccccscccccccccccccccccsccccscccccccccccscccccsccccccccc" />
        <rect
           style="opacity:1;fill:#ffffff;fill-opacity:1;stroke:none;stroke-width:2.33531046;stroke-miterlimit:4;stroke-dasharray:none;stroke-opacity:1"
           id="rect3001"
           width="46.330078"
           height="4.0328164"
           x="-773.10333"
           y="109.57912"
           transform="matrix(0.9999721,0.00747001,0.02696542,-0.99963637,0,0)"
           ry="2.0164082"
           rx="4.0446839" />
        <rect
           rx="2.2686081"
           ry="1.9705567"
           transform="matrix(0.9999967,-0.00256827,-0.0230192,-0.99973502,0,0)"
           y="117.35379"
           x="-796.84625"
           height="3.9411135"
           width="26.248585"
           id="rect3003"
           style="opacity:1;fill:#ffffff;fill-opacity:1;stroke:none;stroke-width:2.71123862;stroke-miterlimit:4;stroke-dasharray:none;stroke-opacity:1" />
        <text
           transform="scale(1,-1)"
           id="text3007"
           y="153.58397"
           x="-840.94592"
           style="font-style:normal;font-variant:normal;font-weight:normal;font-stretch:normal;font-size:37.55853653px;line-height:1.25;font-family:'Bebas Neue';-inkscape-font-specification:'Bebas Neue';text-align:center;letter-spacing:0px;word-spacing:0px;text-anchor:middle;fill:#ffffff;fill-opacity:1;stroke:none;stroke-width:2.01206446"
           xml:space="preserve"><tspan
             style="font-style:normal;font-variant:normal;font-weight:normal;font-stretch:normal;font-family:PAGRevolucionW00-Regular;-inkscape-font-specification:PAGRevolucionW00-Regular;fill:#ffffff;stroke-width:2.01206446"
             y="153.58397"
             x="-840.94592"
             id="tspan3005"
             sodipodi:role="line">make a list</tspan></text>
        <g
           transform="translate(546.02975,-248.23678)"
           id="g3098">
          <rect
             style="opacity:1;fill:#0032f5;fill-opacity:1;stroke:#ffffff;stroke-width:2;stroke-miterlimit:4;stroke-dasharray:none;stroke-opacity:1"
             id="rect3090"
             width="37.757042"
             height="37.757042"
             x="-1518.5787"
             y="-125.71913"
             transform="scale(1,-1)"
             rx="11.68515"
             ry="11.329442" />
          <g
             id="g3096"
             transform="matrix(0.11942495,0.11749836,0.11749836,-0.11942495,-1518.7832,107.0828)"
             style="fill:#ffffff">
            <title
               id="title3092">Layer 1</title>
            <path
               d="M 80.476791,3.84649 C 66.996879,3.25614 49.271,8.71378 40.968238,14.63436 38.03176,18.11943 47.28662,32.97744 45.413699,34.58947 42.462371,35.942322 33.382819,45.597939 32.590228,47.735661 31.797599,49.873391 16.935759,40.913792 13.049699,42.36591 5.939909,53.431649 1.089979,71.845597 1.997059,81.937539 c 1.52907,4.278915 19.15685,3.980179 19.60162,6.397743 -0.330481,3.203857 3.432669,15.867478 4.885139,17.633048 1.45245,1.76557 -13.55446,9.76252 -13.92264,13.33971 6.340731,11.76687 19.97086,24.24561 29.298611,28.40882 4.515789,0.77728 12.895691,-14.58812 15.2416,-13.78716 2.65818,1.8555 15.638058,4.81479 17.904041,4.42639 2.26593,-0.38838 1.521027,16.4871 5.532372,19.1811 14.034286,0.58659 30.358768,-4.4645 38.702528,-10.32827 2.96069,-3.46496 -6.19522,-18.39219 -4.31113,-19.9914 2.96069,-1.33269 12.11372,-10.92926 12.92121,-13.06155 0.80746,-2.13227 15.34598,6.66174 19.6871,5.07951 7.51844,-11.24549 11.77134,-29.131788 10.83276,-39.220892 -1.54244,-4.2742 -19.17371,-3.921089 -19.62605,-6.337265 0.32046,-3.20488 -3.47602,-15.859871 -4.93398,-17.620972 -1.45795,-1.76112 12.93781,-9.36475 13.65398,-13.36388 C 141.27357,31.155051 128.28973,18.168011 118.98387,13.95708 114.47215,13.15669 106.02295,28.484659 103.68115,27.6717 101.03273,25.80259 88.057341,22.77175 85.789359,23.14853 83.521377,23.525321 83.91651,6.653721 80.47679,3.846491 Z m 1.355637,57.894042 c 10.671585,0 19.332872,8.589401 19.332872,19.169006 0,10.579605 -8.661287,19.169022 -19.332872,19.169022 -10.671646,0 -19.332939,-8.589417 -19.332939,-19.169022 0,-10.579605 8.661293,-19.169006 19.332939,-19.169006 z"
               id="path3094"
               stroke-miterlimit="4"
               inkscape:connector-curvature="0"
               style="fill:#ffffff;fill-rule:evenodd;stroke-width:1.25;stroke-linejoin:round;stroke-miterlimit:4" />
          </g>
        </g>
      </g>
      <g
         transform="translate(539.1772,-915.67961)"
         id="g3074">
        <path
           style="fill:#2974af;fill-opacity:1;stroke:#225d8c;stroke-width:5.42624998;stroke-miterlimit:4;stroke-dasharray:none;stroke-opacity:1"
           d="m -1273.3759,745.42216 0.1777,60.05905 -24.2345,0.2657 -47.2703,-0.3021 -0.08,-8.5249 c -0.073,-7.75635 -0.1384,-8.64215 -0.7264,-9.82548 -0.5745,-1.15587 -0.7909,-1.31126 -1.9451,-1.39699 -1.3644,-0.10137 -1.3598,-0.10394 -7.1546,3.60808 -1.6571,1.06145 -2.9236,1.62858 -3.8702,1.73294 -1.2662,0.13957 -1.5369,0.0373 -2.7065,-1.02464 -1.0442,-0.94802 -1.3982,-1.57866 -1.7993,-3.20813 -0.7954,-3.23198 -1.2039,-7.24237 -1.2365,-11.28557 l -0.01,-5e-5 c 4e-4,-0.10499 0.01,-0.2096 0.01,-0.31459 -6e-4,-0.10503 0,-0.20964 0,-0.31463 l 0.01,5e-5 c 0.052,-4.04299 0.4804,-8.05069 1.2916,-11.27875 0.409,-1.62749 0.7661,-2.25641 1.8149,-3.19932 1.1749,-1.0561 1.4455,-1.15841 2.7115,-1.01205 0.946,0.10896 2.2098,0.68227 3.8616,1.7518 5.7767,3.74024 5.7721,3.73763 7.1369,3.64295 1.1547,-0.0801 1.3719,-0.23444 1.9519,-1.38749 0.5938,-1.18043 0.6636,-2.06591 0.7743,-9.82183 l 0.1217,-8.52441 47.2704,0.30204 z"
           id="path3062"
           inkscape:connector-curvature="0"
           sodipodi:nodetypes="cccccccccccccccccccscccccc" />
        <path
           sodipodi:nodetypes="ccccc"
           inkscape:connector-curvature="0"
           id="path3064"
           d="m -1274.953,748.00927 -0.4993,55.13984 -66.1732,-0.7497 c 42.6803,-42.48668 55.525,-43.96181 63.7376,-54.33023 z"
           style="fill:#37abc8;fill-opacity:1;stroke:none;stroke-width:5.42624998;stroke-miterlimit:4;stroke-dasharray:none;stroke-opacity:1" />
        <rect
           ry="12.192355"
           rx="5.969604"
           transform="scale(1,-1)"
           y="-795.29846"
           x="-1338.8633"
           height="39.805294"
           width="59.067501"
           id="rect3066"
           style="opacity:0.5;fill:#e6e6e6;fill-opacity:1;stroke:none;stroke-width:12.20788097;stroke-miterlimit:4;stroke-dasharray:none;stroke-opacity:1" />
        <text
           xml:space="preserve"
           style="font-style:normal;font-variant:normal;font-weight:normal;font-stretch:normal;font-size:14px;line-height:1.25;font-family:'Bebas Neue';-inkscape-font-specification:'Bebas Neue';text-align:center;letter-spacing:0px;word-spacing:0px;text-anchor:middle;fill:#000000;fill-opacity:1;stroke:none;stroke-width:0.75"
           x="-1309.3204"
           y="-763.71552"
           id="text3070"
           transform="scale(1,-1)"><tspan
             sodipodi:role="line"
             id="tspan3068"
             x="-1309.3204"
             y="-763.71552"
             style="font-size:37.55800247px;stroke-width:0.75">255</tspan></text>
        <rect
           rx="2.2686081"
           ry="1.9705567"
           transform="matrix(0.9999967,-0.00256827,-0.0230192,-0.99973502,0,0)"
           y="-798.49371"
           x="-1323.2507"
           height="3.9411135"
           width="26.248585"
           id="rect3072"
           style="opacity:1;fill:#ffffff;fill-opacity:1;stroke:none;stroke-width:2.71123862;stroke-miterlimit:4;stroke-dasharray:none;stroke-opacity:1" />
      </g>
      <g
         id="g3141"
         transform="translate(539.1772,-978.67961)">
        <path
           sodipodi:nodetypes="cccccccccccccccccccscccccc"
           inkscape:connector-curvature="0"
           id="path3129"
           d="m -1273.3759,745.42216 0.1777,60.05905 -24.2345,0.2657 -47.2703,-0.3021 -0.08,-8.5249 c -0.073,-7.75635 -0.1384,-8.64215 -0.7264,-9.82548 -0.5745,-1.15587 -0.7909,-1.31126 -1.9451,-1.39699 -1.3644,-0.10137 -1.3598,-0.10394 -7.1546,3.60808 -1.6571,1.06145 -2.9236,1.62858 -3.8702,1.73294 -1.2662,0.13957 -1.5369,0.0373 -2.7065,-1.02464 -1.0442,-0.94802 -1.3982,-1.57866 -1.7993,-3.20813 -0.7954,-3.23198 -1.2039,-7.24237 -1.2365,-11.28557 l -0.01,-5e-5 c 4e-4,-0.10499 0.01,-0.2096 0.01,-0.31459 -6e-4,-0.10503 0,-0.20964 0,-0.31463 l 0.01,5e-5 c 0.052,-4.04299 0.4804,-8.05069 1.2916,-11.27875 0.409,-1.62749 0.7661,-2.25641 1.8149,-3.19932 1.1749,-1.0561 1.4455,-1.15841 2.7115,-1.01205 0.946,0.10896 2.2098,0.68227 3.8616,1.7518 5.7767,3.74024 5.7721,3.73763 7.1369,3.64295 1.1547,-0.0801 1.3719,-0.23444 1.9519,-1.38749 0.5938,-1.18043 0.6636,-2.06591 0.7743,-9.82183 l 0.1217,-8.52441 47.2704,0.30204 z"
           style="fill:#2974af;fill-opacity:1;stroke:#225d8c;stroke-width:5.42624998;stroke-miterlimit:4;stroke-dasharray:none;stroke-opacity:1" />
        <path
           style="fill:#37abc8;fill-opacity:1;stroke:none;stroke-width:5.42624998;stroke-miterlimit:4;stroke-dasharray:none;stroke-opacity:1"
           d="m -1274.953,748.00927 -0.4993,55.13984 -66.1732,-0.7497 c 42.6803,-42.48668 55.525,-43.96181 63.7376,-54.33023 z"
           id="path3131"
           inkscape:connector-curvature="0"
           sodipodi:nodetypes="ccccc" />
        <rect
           style="opacity:0.5;fill:#e6e6e6;fill-opacity:1;stroke:none;stroke-width:12.20788097;stroke-miterlimit:4;stroke-dasharray:none;stroke-opacity:1"
           id="rect3133"
           width="59.067501"
           height="39.805294"
           x="-1338.8633"
           y="-795.29846"
           transform="scale(1,-1)"
           rx="5.969604"
           ry="12.192355" />
        <text
           transform="scale(1,-1)"
           id="text3137"
           y="-763.71552"
           x="-1309.3204"
           style="font-style:normal;font-variant:normal;font-weight:normal;font-stretch:normal;font-size:14px;line-height:1.25;font-family:'Bebas Neue';-inkscape-font-specification:'Bebas Neue';text-align:center;letter-spacing:0px;word-spacing:0px;text-anchor:middle;fill:#000000;fill-opacity:1;stroke:none;stroke-width:0.75"
           xml:space="preserve"><tspan
             style="font-size:37.55800247px;stroke-width:0.75"
             y="-763.71552"
             x="-1309.3204"
             id="tspan3135"
             sodipodi:role="line">0</tspan></text>
        <rect
           style="opacity:1;fill:#ffffff;fill-opacity:1;stroke:none;stroke-width:2.71123862;stroke-miterlimit:4;stroke-dasharray:none;stroke-opacity:1"
           id="rect3139"
           width="26.248585"
           height="3.9411135"
           x="-1323.2507"
           y="-798.49371"
           transform="matrix(0.9999967,-0.00256827,-0.0230192,-0.99973502,0,0)"
           ry="1.9705567"
           rx="2.2686081" />
      </g>
      <g
         transform="translate(539.1772,-1040.1796)"
         id="g3155">
        <path
           style="fill:#2974af;fill-opacity:1;stroke:#225d8c;stroke-width:5.42624998;stroke-miterlimit:4;stroke-dasharray:none;stroke-opacity:1"
           d="m -1273.3759,745.42216 0.1777,60.05905 -24.2345,0.2657 -47.2703,-0.3021 -0.08,-8.5249 c -0.073,-7.75635 -0.1384,-8.64215 -0.7264,-9.82548 -0.5745,-1.15587 -0.7909,-1.31126 -1.9451,-1.39699 -1.3644,-0.10137 -1.3598,-0.10394 -7.1546,3.60808 -1.6571,1.06145 -2.9236,1.62858 -3.8702,1.73294 -1.2662,0.13957 -1.5369,0.0373 -2.7065,-1.02464 -1.0442,-0.94802 -1.3982,-1.57866 -1.7993,-3.20813 -0.7954,-3.23198 -1.2039,-7.24237 -1.2365,-11.28557 l -0.01,-5e-5 c 4e-4,-0.10499 0.01,-0.2096 0.01,-0.31459 -6e-4,-0.10503 0,-0.20964 0,-0.31463 l 0.01,5e-5 c 0.052,-4.04299 0.4804,-8.05069 1.2916,-11.27875 0.409,-1.62749 0.7661,-2.25641 1.8149,-3.19932 1.1749,-1.0561 1.4455,-1.15841 2.7115,-1.01205 0.946,0.10896 2.2098,0.68227 3.8616,1.7518 5.7767,3.74024 5.7721,3.73763 7.1369,3.64295 1.1547,-0.0801 1.3719,-0.23444 1.9519,-1.38749 0.5938,-1.18043 0.6636,-2.06591 0.7743,-9.82183 l 0.1217,-8.52441 47.2704,0.30204 z"
           id="path3143"
           inkscape:connector-curvature="0"
           sodipodi:nodetypes="cccccccccccccccccccscccccc" />
        <path
           sodipodi:nodetypes="ccccc"
           inkscape:connector-curvature="0"
           id="path3145"
           d="m -1274.953,748.00927 -0.4993,55.13984 -66.1732,-0.7497 c 42.6803,-42.48668 55.525,-43.96181 63.7376,-54.33023 z"
           style="fill:#37abc8;fill-opacity:1;stroke:none;stroke-width:5.42624998;stroke-miterlimit:4;stroke-dasharray:none;stroke-opacity:1" />
        <rect
           ry="12.192355"
           rx="5.969604"
           transform="scale(1,-1)"
           y="-795.29846"
           x="-1338.8633"
           height="39.805294"
           width="59.067501"
           id="rect3147"
           style="opacity:0.5;fill:#e6e6e6;fill-opacity:1;stroke:none;stroke-width:12.20788097;stroke-miterlimit:4;stroke-dasharray:none;stroke-opacity:1" />
        <text
           xml:space="preserve"
           style="font-style:normal;font-variant:normal;font-weight:normal;font-stretch:normal;font-size:14px;line-height:1.25;font-family:'Bebas Neue';-inkscape-font-specification:'Bebas Neue';text-align:center;letter-spacing:0px;word-spacing:0px;text-anchor:middle;fill:#000000;fill-opacity:1;stroke:none;stroke-width:0.75"
           x="-1309.3204"
           y="-763.71552"
           id="text3151"
           transform="scale(1,-1)"><tspan
             sodipodi:role="line"
             id="tspan3149"
             x="-1309.3204"
             y="-763.71552"
             style="font-size:37.55800247px;stroke-width:0.75">0</tspan></text>
        <rect
           rx="2.2686081"
           ry="1.9705567"
           transform="matrix(0.9999967,-0.00256827,-0.0230192,-0.99973502,0,0)"
           y="-798.49371"
           x="-1323.2507"
           height="3.9411135"
           width="26.248585"
           id="rect3153"
           style="opacity:1;fill:#ffffff;fill-opacity:1;stroke:none;stroke-width:2.71123862;stroke-miterlimit:4;stroke-dasharray:none;stroke-opacity:1" />
      </g>
    </g>
  </g>
</svg>
