<?xml version="1.0" encoding="UTF-8" standalone="no"?>
<!-- Created with Inkscape (http://www.inkscape.org/) -->

<svg
   xmlns:dc="http://purl.org/dc/elements/1.1/"
   xmlns:cc="http://creativecommons.org/ns#"
   xmlns:rdf="http://www.w3.org/1999/02/22-rdf-syntax-ns#"
   xmlns:svg="http://www.w3.org/2000/svg"
   xmlns="http://www.w3.org/2000/svg"
   xmlns:sodipodi="http://sodipodi.sourceforge.net/DTD/sodipodi-0.dtd"
   xmlns:inkscape="http://www.inkscape.org/namespaces/inkscape"
   width="218.7092mm"
   height="61.677532mm"
   viewBox="0 0 218.7092 61.677534"
   version="1.1"
   id="svg2283"
   inkscape:version="0.92.3 (2405546, 2018-03-11)"
   sodipodi:docname="logic_not_equal.svg">
  <defs
     id="defs2277" />
  <sodipodi:namedview
     id="base"
     pagecolor="#ffffff"
     bordercolor="#666666"
     borderopacity="1.0"
     inkscape:pageopacity="0.0"
     inkscape:pageshadow="2"
     inkscape:zoom="1.467638"
     inkscape:cx="411.42857"
     inkscape:cy="107.14286"
     inkscape:document-units="mm"
     inkscape:current-layer="layer1"
     showgrid="false"
     fit-margin-top="0"
     fit-margin-left="0"
     fit-margin-right="0"
     fit-margin-bottom="0"
     inkscape:window-width="1920"
     inkscape:window-height="1001"
     inkscape:window-x="0"
     inkscape:window-y="0"
     inkscape:window-maximized="1" />
  <metadata
     id="metadata2280">
    <rdf:RDF>
      <cc:Work
         rdf:about="">
        <dc:format>image/svg+xml</dc:format>
        <dc:type
           rdf:resource="http://purl.org/dc/dcmitype/StillImage" />
        <dc:title />
      </cc:Work>
    </rdf:RDF>
  </metadata>
  <g
     inkscape:label="Layer 1"
     inkscape:groupmode="layer"
     id="layer1"
     transform="translate(205.68037,-398.91219)">
    <g
       id="g41">
      <path
         sodipodi:nodetypes="ccccccccccccccccccscccccccccccccccscccccccccccccccccccccccccsccccccccccccccccc"
         inkscape:connector-curvature="0"
         style="fill:#2ca05a;fill-opacity:1;stroke:#217844;stroke-width:3.37654328;stroke-miterlimit:4;stroke-dasharray:none;stroke-opacity:1"
         d="m -114.81697,400.60046 -77.01664,0.18778 -0.0502,5.30501 c -0.0453,4.82648 -0.0862,5.3772 -0.45211,6.11354 -0.35745,0.71925 -0.49226,0.81624 -1.2105,0.86958 -0.84899,0.0631 -0.84593,0.0648 -4.45183,-2.24506 -1.03111,-0.6605 -1.81921,-1.01338 -2.40823,-1.07832 -0.78792,-0.0869 -0.95666,-0.0237 -1.68448,0.63714 -0.64976,0.58992 -0.86979,0.98227 -1.11934,1.99622 -0.49496,2.01114 -0.74905,4.50729 -0.76932,7.02323 h -0.006 c 2.7e-4,0.0653 0.004,0.12973 0.004,0.19506 -3.6e-4,0.0654 -0.002,0.13065 -0.002,0.19598 h 0.004 c 0.0325,2.51579 0.2992,5.00997 0.80395,7.01866 0.25451,1.01273 0.47674,1.40402 1.12937,1.99075 0.73108,0.65717 0.89943,0.72094 1.68721,0.62986 0.5887,-0.0678 1.37488,-0.42464 2.40276,-1.09017 3.59459,-2.32741 3.59162,-2.32586 4.4409,-2.26694 0.71851,0.0498 0.8541,0.1457 1.21505,0.8632 0.36951,0.73454 0.41241,1.28551 0.48128,6.11171 l 0.0756,25.83963 77.01756,-0.18868 125.951322,-0.0355 0.111204,-57.90764 z m -36.11513,10.71486 15.0801,0.1659 -0.11029,37.37212 -14.87775,0.0365 -12.61355,0.18778 -0.0756,-5.30411 c -0.0689,-4.8262 -0.11177,-5.37717 -0.48128,-6.11171 -0.36096,-0.71749 -0.49655,-0.81336 -1.21505,-0.8632 -0.84928,-0.0589 -0.8463,-0.0605 -4.4409,2.26694 -1.02787,0.66552 -1.81406,1.02146 -2.40275,1.08926 -0.78779,0.0911 -0.95615,0.0283 -1.68722,-0.62895 -0.65263,-0.58673 -0.87486,-0.97894 -1.12937,-1.99166 -0.50475,-2.0087 -0.77141,-4.50196 -0.80395,-7.01775 h -0.004 c -6.1e-4,-0.0653 0.001,-0.13062 0.002,-0.19598 0,-0.0653 -0.003,-0.13064 -0.004,-0.19597 h 0.006 c 0.0203,-2.51593 0.27436,-5.01118 0.76932,-7.02232 0.24954,-1.01395 0.46957,-1.4063 1.11933,-1.99622 0.72782,-0.6608 0.89657,-0.7249 1.68449,-0.63806 0.58902,0.0649 1.3771,0.41783 2.40821,1.07833 3.60591,2.30984 3.60285,2.30905 4.45185,2.24597 0.71823,-0.0533 0.85304,-0.15033 1.21049,-0.86958 0.36592,-0.73634 0.40681,-1.28797 0.45211,-6.11444 l 0.0492,-5.30411 z m 131.253605,0 15.0801012,0.1659 -0.1102896,37.37212 -14.8777486,0.0365 -12.613546,0.18778 -0.07565,-5.30411 c -0.06887,-4.8262 -0.112679,-5.37717 -0.482197,-6.11171 -0.360954,-0.71749 -0.49563,-0.81336 -1.214136,-0.8632 -0.849281,-0.0589 -0.846306,-0.0605 -4.440902,2.26694 -1.027876,0.66552 -1.814053,1.02146 -2.402749,1.08926 -0.787782,0.0911 -0.956141,0.0283 -1.687217,-0.62895 -0.652633,-0.58673 -0.874855,-0.97894 -1.129366,-1.99166 -0.504753,-2.0087 -0.771411,-4.50196 -0.803961,-7.01775 h -0.0056 c -4.66e-4,-0.0653 0.0012,-0.13062 0.0019,-0.19598 0,-0.0653 -0.0025,-0.13064 -0.0031,-0.19597 h 0.0056 c 0.02022,-2.51593 0.274361,-5.01118 0.76932,-7.02232 0.249545,-1.01395 0.469577,-1.4063 1.119342,-1.99622 0.727815,-0.6608 0.896559,-0.7249 1.684479,-0.63806 0.589019,0.0649 1.377113,0.41783 2.408224,1.07833 3.605903,2.30984 3.602847,2.30905 4.451841,2.24597 0.718226,-0.0533 0.853046,-0.15033 1.210491,-0.86958 0.36592,-0.73634 0.406809,-1.28797 0.45211,-6.11444 l 0.04922,-5.30411 z"
         id="path1226" />
      <path
         style="fill:#37c871;fill-opacity:1;stroke:none;stroke-width:3.37654328;stroke-miterlimit:4;stroke-dasharray:none;stroke-opacity:1"
         d="m 9.0014173,402.21658 -198.9199273,0.4667 c 2.25449,1.49666 4.38017,2.94272 6.39336,4.34063 2.01319,1.39788 3.91323,2.74795 5.7152,4.0526 1.80197,1.30463 3.50644,2.56412 5.12728,3.78096 1.62083,1.21685 3.15796,2.3903 4.62776,3.52483 1.46979,1.13452 2.01553,1.44649 2.77465,2.20313 l 0.22697,-10.79416 30.60867,0.0875 0.21603,31.39895 c 1.46434,0.63966 3.29706,1.32405 4.91124,1.93606 18.49329,8.68468 104.203088,13.30173 111.536632,13.67364 l 27.1704385,0.003 z m -11.818863,7.48909 -0.09711,40.92322 -30.8983603,0.16492 0.02508,-7.02035 c -0.06887,-4.8262 -0.112679,-4.44378 -0.48219,-5.17831 -2.380086,-0.092 -3.268258,1.38728 -4.721648,2.33712 -1.027869,0.66552 -1.814058,1.02146 -2.402755,1.08927 -0.787782,0.0911 -0.956141,0.0282 -1.68721,-0.62896 -0.65264,-0.58672 -1.808253,-1.91232 -2.062764,-2.92504 -0.504753,-2.0087 -0.771411,-5.43535 -0.803955,-7.95115 h -0.0056 c -4.67e-4,-0.0653 0.0012,-0.13062 0.0019,-0.19598 0,-0.0653 -0.0031,-0.13064 -0.0031,-0.19597 h 0.0056 c 0.02029,-2.51592 0.274355,-5.94457 0.769314,-7.95571 0.249552,-1.01395 1.402968,-2.33969 2.052733,-2.9296 0.727821,-0.66081 0.89656,-0.72491 1.684485,-0.63807 0.589014,0.0649 1.377113,0.41782 2.408218,1.07833 1.416658,0.94326 4.254678,3.20821 4.728941,2.30977 0.36592,-0.73633 0.406815,-0.35457 0.45211,-5.18105 l -0.01101,-7.13332 z"
         id="path1228"
         inkscape:connector-curvature="0"
         sodipodi:nodetypes="cccccccccccccccccccccccccccccccccccc" />
      <rect
         style="opacity:1;fill:#ffffff;fill-opacity:1;stroke:none;stroke-width:1.45317245;stroke-miterlimit:4;stroke-dasharray:none;stroke-opacity:1"
         id="rect1230"
         width="28.829397"
         height="2.509464"
         x="-33.152042"
         y="404.40201"
         transform="matrix(0.9999721,-0.00747002,0.02696542,0.99963637,0,0)"
         ry="1.254732"
         rx="2.5168488" />
      <rect
         rx="1.4116662"
         ry="1.2262005"
         transform="matrix(0.9999967,0.00256826,-0.0230192,0.99973502,0,0)"
         y="404.67041"
         x="-31.23399"
         height="2.4524009"
         width="16.333469"
         id="rect1232"
         style="opacity:1;fill:#ffffff;fill-opacity:1;stroke:none;stroke-width:1.68709779;stroke-miterlimit:4;stroke-dasharray:none;stroke-opacity:1" />
      <rect
         ry="7.5868263"
         rx="7.9268942"
         y="417.16891"
         x="-129.31735"
         height="24.769279"
         width="78.434319"
         id="rect1234"
         style="opacity:0.5;fill:#e6e6e6;fill-opacity:1;stroke:none;stroke-width:11.09699249;stroke-miterlimit:4;stroke-dasharray:none;stroke-opacity:1" />
      <text
         id="text1238"
         y="436.4006"
         x="-90.109314"
         style="font-style:normal;font-variant:normal;font-weight:normal;font-stretch:normal;font-size:23.3712101px;line-height:1.25;font-family:'Bebas Neue';-inkscape-font-specification:'Bebas Neue';text-align:center;letter-spacing:0px;word-spacing:0px;text-anchor:middle;fill:#333333;fill-opacity:1;stroke:none;stroke-width:1.25202906"
         xml:space="preserve"><tspan
           style="font-style:normal;font-variant:normal;font-weight:normal;font-stretch:normal;font-family:Digitalt;-inkscape-font-specification:Digitalt;fill:#333333;stroke-width:1.25202906"
           y="436.4006"
           x="-90.109314"
           id="tspan1236"
           sodipodi:role="line"
           dx="0 -4.4906569">==</tspan></text>
      <text
         id="text1242"
         y="437.72073"
         x="-90.099091"
         style="font-style:normal;font-variant:normal;font-weight:normal;font-stretch:normal;font-size:8.71165276px;line-height:1.25;font-family:'Bebas Neue';-inkscape-font-specification:'Bebas Neue';text-align:center;letter-spacing:0px;word-spacing:0px;text-anchor:middle;fill:#333333;fill-opacity:1;stroke:none;stroke-width:0.4666957"
         xml:space="preserve"><tspan
           style="font-style:normal;font-variant:normal;font-weight:normal;font-stretch:normal;font-size:23.33478355px;font-family:PAGRevolucionW00-Regular;-inkscape-font-specification:PAGRevolucionW00-Regular;fill:#333333;fill-opacity:1;stroke-width:0.4666957"
           y="437.72073"
           x="-90.099091"
           id="tspan1240"
           sodipodi:role="line">/</tspan></text>
    </g>
  </g>
</svg>
