<?xml version="1.0" encoding="UTF-8" standalone="no"?>
<!-- Created with Inkscape (http://www.inkscape.org/) -->

<svg
   xmlns:dc="http://purl.org/dc/elements/1.1/"
   xmlns:cc="http://creativecommons.org/ns#"
   xmlns:rdf="http://www.w3.org/1999/02/22-rdf-syntax-ns#"
   xmlns:svg="http://www.w3.org/2000/svg"
   xmlns="http://www.w3.org/2000/svg"
   xmlns:sodipodi="http://sodipodi.sourceforge.net/DTD/sodipodi-0.dtd"
   xmlns:inkscape="http://www.inkscape.org/namespaces/inkscape"
   width="187.95988mm"
   height="99.138985mm"
   viewBox="0 0 187.95989 99.138992"
   version="1.1"
   id="svg2283"
   inkscape:version="0.92.3 (2405546, 2018-03-11)"
   sodipodi:docname="procedures_to_result.svg">
  <defs
     id="defs2277" />
  <sodipodi:namedview
     id="base"
     pagecolor="#ffffff"
     bordercolor="#666666"
     borderopacity="1.0"
     inkscape:pageopacity="0.0"
     inkscape:pageshadow="2"
     inkscape:zoom="1.6163851"
     inkscape:cx="357.14286"
     inkscape:cy="185.71429"
     inkscape:document-units="mm"
     inkscape:current-layer="layer1"
     showgrid="false"
     fit-margin-top="0"
     fit-margin-left="0"
     fit-margin-right="0"
     fit-margin-bottom="0"
     inkscape:window-width="1920"
     inkscape:window-height="1001"
     inkscape:window-x="0"
     inkscape:window-y="0"
     inkscape:window-maximized="1" />
  <metadata
     id="metadata2280">
    <rdf:RDF>
      <cc:Work
         rdf:about="">
        <dc:format>image/svg+xml</dc:format>
        <dc:type
           rdf:resource="http://purl.org/dc/dcmitype/StillImage" />
        <dc:title />
      </cc:Work>
    </rdf:RDF>
  </metadata>
  <g
     inkscape:label="Layer 1"
     inkscape:groupmode="layer"
     id="layer1"
     transform="translate(247.16841,-707.62754)">
    <g
       id="g56">
      <path
         style="fill:#7f5581;fill-opacity:1;stroke:#664468;stroke-width:3.37654328;stroke-miterlimit:4;stroke-dasharray:none;stroke-opacity:1"
         d="m -76.051135,709.31583 -155.741645,0.2718 -4.9736,0.009 c 0,0 -9.1567,0.65767 -8.69815,7.84142 l 0.009,4.09853 0.018,11.93054 0.018,11.93061 0.018,11.93061 0.018,11.93055 0.018,11.9306 0.018,11.93055 0.009,4.09852 c 0,0 2.45625,8.50338 9.64958,7.823 l 169.080429,-0.31623 c 1.959438,-0.007 3.733254,-0.0137 5.579129,-0.0205 l 0.03983,-16.99071 -92.936228,0.15861 -0.0757,-5.30496 c -0.0689,-4.82632 -0.11269,-5.37714 -0.48219,-6.11172 -0.36097,-0.71753 -0.49569,-0.81348 -1.21415,-0.8632 -0.84933,-0.0591 -0.84634,-0.0604 -4.44089,2.26689 -1.02792,0.66551 -1.81495,1.02238 -2.40367,1.09021 -0.78778,0.0911 -0.95611,0.0274 -1.6872,-0.62986 -0.65262,-0.58673 -0.87484,-0.978 -1.12934,-1.99073 -0.50478,-2.00866 -0.77073,-4.50287 -0.80309,-7.01873 h -0.006 c 0,-0.0653 -3.2e-4,-0.12975 0,-0.19508 0,-0.0653 -0.006,-0.13062 -0.007,-0.19595 h 0.007 c 0.0199,-2.51593 0.27441,-5.01207 0.7693,-7.02321 0.24959,-1.01398 0.46962,-1.40631 1.11938,-1.99622 0.72786,-0.66065 0.89649,-0.724 1.68446,-0.63713 0.58897,0.065 1.37719,0.41779 2.40821,1.07832 3.60594,2.30983 3.60289,2.30815 4.45191,2.24505 0.71821,-0.0535 0.85299,-0.15034 1.21042,-0.86961 0.36595,-0.73632 0.40671,-1.28702 0.45213,-6.11352 l 0.0492,-5.30503 93.123087,-0.15768 -0.07318,-40.67993 z"
         id="path3239"
         inkscape:connector-curvature="0"
         sodipodi:nodetypes="cccccccccccccccccccccccccccccccccccccccc" />
      <path
         sodipodi:nodetypes="cccccc"
         inkscape:connector-curvature="0"
         id="path3241"
         d="m -62.010875,748.95864 0.201301,-0.20286 -0.562026,-37.84161 -174.15067,0.37348 c 36.10377,23.89812 110.15972,35.00771 156.812988,37.65724 z"
         style="fill:#a486a6;fill-opacity:1;stroke:none;stroke-width:3.37654328;stroke-miterlimit:4;stroke-dasharray:none;stroke-opacity:1" />
      <rect
         rx="2.5168488"
         ry="1.254732"
         transform="matrix(0.9999721,-0.00747002,0.02696542,0.99963637,0,0)"
         y="711.48999"
         x="-111.31705"
         height="2.509464"
         width="28.829397"
         id="rect3243"
         style="opacity:1;fill:#ffffff;fill-opacity:1;stroke:none;stroke-width:1.45317245;stroke-miterlimit:4;stroke-dasharray:none;stroke-opacity:1" />
      <rect
         style="opacity:1;fill:#ffffff;fill-opacity:1;stroke:none;stroke-width:1.68709779;stroke-miterlimit:4;stroke-dasharray:none;stroke-opacity:1"
         id="rect3245"
         width="16.333469"
         height="2.4524009"
         x="-94.032593"
         y="712.46906"
         transform="matrix(0.9999967,0.00256826,-0.0230192,0.99973502,0,0)"
         ry="1.2262005"
         rx="1.4116662" />
      <text
         xml:space="preserve"
         style="font-style:normal;font-variant:normal;font-weight:normal;font-stretch:normal;font-size:23.3712101px;line-height:1.25;font-family:'Bebas Neue';-inkscape-font-specification:'Bebas Neue';text-align:center;letter-spacing:0px;word-spacing:0px;text-anchor:middle;fill:#ffffff;fill-opacity:1;stroke:none;stroke-width:1.25202906"
         x="-205.61066"
         y="776.6579"
         id="text3249"><tspan
           sodipodi:role="line"
           id="tspan3247"
           x="-205.61066"
           y="776.6579"
           style="font-style:normal;font-variant:normal;font-weight:normal;font-stretch:normal;font-family:Digitalt;-inkscape-font-specification:Digitalt;fill:#ffffff;stroke-width:1.25202906">result</tspan></text>
      <g
         id="g3273"
         transform="matrix(0.62226092,0,0,-0.62226092,709.37025,794.61735)">
        <rect
           ry="11.329442"
           rx="11.68515"
           transform="scale(1,-1)"
           y="-125.71913"
           x="-1518.5787"
           height="37.757042"
           width="37.757042"
           id="rect3265"
           style="opacity:1;fill:#0032f5;fill-opacity:1;stroke:#ffffff;stroke-width:2;stroke-miterlimit:4;stroke-dasharray:none;stroke-opacity:1" />
        <g
           style="fill:#ffffff"
           transform="matrix(0.11942495,0.11749836,0.11749836,-0.11942495,-1518.7832,107.0828)"
           id="g3271">
          <title
             id="title3267">Layer 1</title>
          <path
             style="fill:#ffffff;fill-rule:evenodd;stroke-width:1.25;stroke-linejoin:round;stroke-miterlimit:4"
             inkscape:connector-curvature="0"
             stroke-miterlimit="4"
             id="path3269"
             d="M 80.476791,3.84649 C 66.996879,3.25614 49.271,8.71378 40.968238,14.63436 38.03176,18.11943 47.28662,32.97744 45.413699,34.58947 42.462371,35.942322 33.382819,45.597939 32.590228,47.735661 31.797599,49.873391 16.935759,40.913792 13.049699,42.36591 5.939909,53.431649 1.089979,71.845597 1.997059,81.937539 c 1.52907,4.278915 19.15685,3.980179 19.60162,6.397743 -0.330481,3.203857 3.432669,15.867478 4.885139,17.633048 1.45245,1.76557 -13.55446,9.76252 -13.92264,13.33971 6.340731,11.76687 19.97086,24.24561 29.298611,28.40882 4.515789,0.77728 12.895691,-14.58812 15.2416,-13.78716 2.65818,1.8555 15.638058,4.81479 17.904041,4.42639 2.26593,-0.38838 1.521027,16.4871 5.532372,19.1811 14.034286,0.58659 30.358768,-4.4645 38.702528,-10.32827 2.96069,-3.46496 -6.19522,-18.39219 -4.31113,-19.9914 2.96069,-1.33269 12.11372,-10.92926 12.92121,-13.06155 0.80746,-2.13227 15.34598,6.66174 19.6871,5.07951 7.51844,-11.24549 11.77134,-29.131788 10.83276,-39.220892 -1.54244,-4.2742 -19.17371,-3.921089 -19.62605,-6.337265 0.32046,-3.20488 -3.47602,-15.859871 -4.93398,-17.620972 -1.45795,-1.76112 12.93781,-9.36475 13.65398,-13.36388 C 141.27357,31.155051 128.28973,18.168011 118.98387,13.95708 114.47215,13.15669 106.02295,28.484659 103.68115,27.6717 101.03273,25.80259 88.057341,22.77175 85.789359,23.14853 83.521377,23.525321 83.91651,6.653721 80.47679,3.846491 Z m 1.355637,57.894042 c 10.671585,0 19.332872,8.589401 19.332872,19.169006 0,10.579605 -8.661287,19.169022 -19.332872,19.169022 -10.671646,0 -19.332939,-8.589417 -19.332939,-19.169022 0,-10.579605 8.661293,-19.169006 19.332939,-19.169006 z" />
        </g>
      </g>
      <rect
         style="opacity:0.5;fill:#e6e6e6;fill-opacity:1;stroke:none;stroke-width:12.95015907;stroke-miterlimit:4;stroke-dasharray:none;stroke-opacity:1"
         id="rect3389"
         width="106.81834"
         height="24.769279"
         x="-174.06552"
         y="717.31146"
         rx="4.479003"
         ry="5.7951512" />
      <text
         id="text3393"
         y="737.87598"
         x="-120.66132"
         style="font-style:normal;font-variant:normal;font-weight:normal;font-stretch:normal;font-size:23.3712101px;line-height:1.25;font-family:'Bebas Neue';-inkscape-font-specification:'Bebas Neue';text-align:center;letter-spacing:0px;word-spacing:0px;text-anchor:middle;fill:#000000;fill-opacity:1;stroke:none;stroke-width:1.25202906"
         xml:space="preserve"><tspan
           style="font-style:normal;font-variant:normal;font-weight:normal;font-stretch:normal;font-family:Digitalt;-inkscape-font-specification:Digitalt;fill:#000000;stroke-width:1.25202906"
           y="737.87598"
           x="-120.66132"
           id="tspan3391"
           sodipodi:role="line">procedure</tspan></text>
      <text
         xml:space="preserve"
         style="font-style:normal;font-variant:normal;font-weight:normal;font-stretch:normal;font-size:23.3712101px;line-height:1.25;font-family:'Bebas Neue';-inkscape-font-specification:'Bebas Neue';text-align:center;letter-spacing:0px;word-spacing:0px;text-anchor:middle;fill:#ffffff;fill-opacity:1;stroke:none;stroke-width:1.25202906"
         x="-189.5898"
         y="737.87598"
         id="text3397"><tspan
           sodipodi:role="line"
           id="tspan3395"
           x="-189.5898"
           y="737.87598"
           style="font-style:normal;font-variant:normal;font-weight:normal;font-stretch:normal;font-family:Digitalt;-inkscape-font-specification:Digitalt;fill:#ffffff;stroke-width:1.25202906">to</tspan></text>
    </g>
  </g>
</svg>
