<?xml version="1.0" encoding="UTF-8" standalone="no"?>
<!-- Created with Inkscape (http://www.inkscape.org/) -->

<svg
   xmlns:dc="http://purl.org/dc/elements/1.1/"
   xmlns:cc="http://creativecommons.org/ns#"
   xmlns:rdf="http://www.w3.org/1999/02/22-rdf-syntax-ns#"
   xmlns:svg="http://www.w3.org/2000/svg"
   xmlns="http://www.w3.org/2000/svg"
   xmlns:sodipodi="http://sodipodi.sourceforge.net/DTD/sodipodi-0.dtd"
   xmlns:inkscape="http://www.inkscape.org/namespaces/inkscape"
   width="192.57765mm"
   height="41.140453mm"
   viewBox="0 0 192.57766 41.140456"
   version="1.1"
   id="svg2283"
   inkscape:version="0.92.3 (2405546, 2018-03-11)"
   sodipodi:docname="procedures_call2.svg">
  <defs
     id="defs2277" />
  <sodipodi:namedview
     id="base"
     pagecolor="#ffffff"
     bordercolor="#666666"
     borderopacity="1.0"
     inkscape:pageopacity="0.0"
     inkscape:pageshadow="2"
     inkscape:zoom="0.35"
     inkscape:cx="632.35364"
     inkscape:cy="239.87397"
     inkscape:document-units="mm"
     inkscape:current-layer="layer1"
     showgrid="false"
     fit-margin-top="0"
     fit-margin-left="0"
     fit-margin-right="0"
     fit-margin-bottom="0"
     inkscape:window-width="1920"
     inkscape:window-height="1001"
     inkscape:window-x="0"
     inkscape:window-y="0"
     inkscape:window-maximized="1" />
  <metadata
     id="metadata2280">
    <rdf:RDF>
      <cc:Work
         rdf:about="">
        <dc:format>image/svg+xml</dc:format>
        <dc:type
           rdf:resource="http://purl.org/dc/dcmitype/StillImage" />
        <dc:title></dc:title>
      </cc:Work>
    </rdf:RDF>
  </metadata>
  <g
     inkscape:label="Layer 1"
     inkscape:groupmode="layer"
     id="layer1"
     transform="translate(251.9769,-715.44528)">
    <g
       id="g3275"
       transform="matrix(0.62226092,0,0,-0.62226092,1240.8658,1787.0811)"
       inkscape:export-filename="/home/peter/allblocks.png"
       inkscape:export-xdpi="42.094723"
       inkscape:export-ydpi="42.094723">
      <path
         sodipodi:nodetypes="cccccccccccccccccccscccccc"
         inkscape:connector-curvature="0"
         id="path3459"
         d="m -2092.4805,1659.1269 0.1777,60.0591 -24.2345,0.2656 -260.2703,-0.302 -0.08,-8.525 c -0.073,-7.7563 -0.1383,-8.6421 -0.7264,-9.8254 -0.5744,-1.1559 -0.7908,-1.3113 -1.9451,-1.397 -1.3643,-0.1014 -1.3597,-0.104 -7.1546,3.608 -1.657,1.0615 -2.9236,1.6286 -3.8701,1.733 -1.2663,0.1396 -1.5369,0.037 -2.7066,-1.0247 -1.0442,-0.948 -1.3982,-1.5786 -1.7992,-3.2081 -0.7954,-3.232 -1.204,-7.2424 -1.2366,-11.2856 h -0.01 c 5e-4,-0.105 0.01,-0.2096 0.01,-0.3146 -5e-4,-0.105 0,-0.2096 0,-0.3146 h 0.01 c 0.052,-4.043 0.4805,-8.0507 1.2916,-11.2787 0.4091,-1.6275 0.7661,-2.2564 1.8149,-3.1993 1.1749,-1.0561 1.4455,-1.1585 2.7115,-1.0121 0.9461,0.109 2.2098,0.6823 3.8617,1.7518 5.7766,3.7402 5.772,3.7376 7.1369,3.643 1.1546,-0.08 1.3718,-0.2345 1.9519,-1.3875 0.5938,-1.1805 0.6636,-2.0659 0.7743,-9.8219 l 0.1216,-8.5244 260.2704,0.3021 z"
         style="fill:#7f5581;fill-opacity:1;stroke:#664468;stroke-width:5.42624998;stroke-miterlimit:4;stroke-dasharray:none;stroke-opacity:1" />
      <path
         style="fill:#a486a6;fill-opacity:1;stroke:none;stroke-width:5.42624998;stroke-miterlimit:4;stroke-dasharray:none;stroke-opacity:1"
         d="m -2094.0575,1661.714 -0.4993,55.1399 -279.7017,-0.1655 c 57.9692,-38.4824 200.2349,-40.1778 251.766,-54.9145 z"
         id="path3461"
         inkscape:connector-curvature="0"
         sodipodi:nodetypes="ccccc" />
      <rect
         style="opacity:1;fill:#ffffff;fill-opacity:1;stroke:none;stroke-width:2.33531046;stroke-miterlimit:4;stroke-dasharray:none;stroke-opacity:1"
         id="rect3463"
         width="46.330078"
         height="4.0328164"
         x="-2098.8606"
         y="-1731.2"
         transform="matrix(0.9999721,0.00747001,0.02696542,-0.99963637,0,0)"
         ry="2.0164082"
         rx="4.0446839" />
      <rect
         rx="2.2686081"
         ry="1.9705567"
         transform="matrix(0.9999967,-0.00256827,-0.0230192,-0.99973502,0,0)"
         y="-1709.6892"
         x="-2214.261"
         height="3.9411135"
         width="26.248585"
         id="rect3465"
         style="opacity:1;fill:#ffffff;fill-opacity:1;stroke:none;stroke-width:2.71123862;stroke-miterlimit:4;stroke-dasharray:none;stroke-opacity:1" />
      <text
         xml:space="preserve"
         style="font-style:normal;font-variant:normal;font-weight:normal;font-stretch:normal;font-size:37.55853653px;line-height:1.25;font-family:'Bebas Neue';-inkscape-font-specification:'Bebas Neue';text-align:center;letter-spacing:0px;word-spacing:0px;text-anchor:middle;fill:#ffffff;fill-opacity:1;stroke:none;stroke-width:2.01206446"
         x="-2326.3347"
         y="-1675.9603"
         id="text3469"
         transform="scale(1,-1)"><tspan
           sodipodi:role="line"
           id="tspan3467"
           x="-2326.3347"
           y="-1675.9603"
           style="font-style:normal;font-variant:normal;font-weight:normal;font-stretch:normal;font-family:PAGRevolucionW00-Regular;-inkscape-font-specification:PAGRevolucionW00-Regular;fill:#ffffff;stroke-width:2.01206446">call</tspan></text>
      <rect
         ry="12.192355"
         rx="7.2837543"
         transform="scale(1,-1)"
         y="-1709.1866"
         x="-2278.7551"
         height="39.805294"
         width="173.70795"
         id="rect3471"
         style="opacity:0.5;fill:#e6e6e6;fill-opacity:1;stroke:none;stroke-width:20.9351368;stroke-miterlimit:4;stroke-dasharray:none;stroke-opacity:1" />
      <text
         xml:space="preserve"
         style="font-style:normal;font-variant:normal;font-weight:normal;font-stretch:normal;font-size:37.55853653px;line-height:1.25;font-family:'Bebas Neue';-inkscape-font-specification:'Bebas Neue';text-align:center;letter-spacing:0px;word-spacing:0px;text-anchor:middle;fill:#000000;fill-opacity:1;stroke:none;stroke-width:2.01206446"
         x="-2190.2737"
         y="-1676.1385"
         id="text3475"
         transform="scale(1,-1)"><tspan
           sodipodi:role="line"
           id="tspan3473"
           x="-2190.2737"
           y="-1676.1385"
           style="font-style:normal;font-variant:normal;font-weight:normal;font-stretch:normal;font-family:PAGRevolucionW00-Regular;-inkscape-font-specification:PAGRevolucionW00-Regular;fill:#000000;stroke-width:2.01206446">procedure</tspan></text>
    </g>
  </g>
</svg>
