<?xml version="1.0" encoding="UTF-8" standalone="no"?>
<!-- Created with Inkscape (http://www.inkscape.org/) -->

<svg
   xmlns:dc="http://purl.org/dc/elements/1.1/"
   xmlns:cc="http://creativecommons.org/ns#"
   xmlns:rdf="http://www.w3.org/1999/02/22-rdf-syntax-ns#"
   xmlns:svg="http://www.w3.org/2000/svg"
   xmlns="http://www.w3.org/2000/svg"
   xmlns:sodipodi="http://sodipodi.sourceforge.net/DTD/sodipodi-0.dtd"
   xmlns:inkscape="http://www.inkscape.org/namespaces/inkscape"
   width="187.95988mm"
   height="99.138985mm"
   viewBox="0 0 187.95989 99.138992"
   version="1.1"
   id="svg2283"
   inkscape:version="0.92.3 (2405546, 2018-03-11)"
   sodipodi:docname="procedures_to_result.svg">
  <defs
     id="defs2277" />
  <sodipodi:namedview
     id="base"
     pagecolor="#ffffff"
     bordercolor="#666666"
     borderopacity="1.0"
     inkscape:pageopacity="0.0"
     inkscape:pageshadow="2"
     inkscape:zoom="0.35"
     inkscape:cx="614.17983"
     inkscape:cy="429.53363"
     inkscape:document-units="mm"
     inkscape:current-layer="layer1"
     showgrid="false"
     fit-margin-top="0"
     fit-margin-left="0"
     fit-margin-right="0"
     fit-margin-bottom="0"
     inkscape:window-width="1920"
     inkscape:window-height="1001"
     inkscape:window-x="0"
     inkscape:window-y="0"
     inkscape:window-maximized="1" />
  <metadata
     id="metadata2280">
    <rdf:RDF>
      <cc:Work
         rdf:about="">
        <dc:format>image/svg+xml</dc:format>
        <dc:type
           rdf:resource="http://purl.org/dc/dcmitype/StillImage" />
        <dc:title></dc:title>
      </cc:Work>
    </rdf:RDF>
  </metadata>
  <g
     inkscape:label="Layer 1"
     inkscape:groupmode="layer"
     id="layer1"
     transform="translate(247.16841,-707.62754)">
    <g
       id="g3433"
       transform="matrix(0.62226092,0,0,-0.62226092,617.77172,2582.4711)"
       inkscape:export-filename="/home/peter/allblocks.png"
       inkscape:export-xdpi="42.094723"
       inkscape:export-ydpi="42.094723">
      <path
         style="fill:#7f5581;fill-opacity:1;stroke:#664468;stroke-width:5.42624998;stroke-miterlimit:4;stroke-dasharray:none;stroke-opacity:1"
         d="m -1115.0031,3010.2409 -250.2835,-0.4368 -7.9928,-0.014 c 0,0 -14.7152,-1.0569 -13.9783,-12.6015 l 0.015,-6.5865 0.029,-19.1729 0.029,-19.173 0.029,-19.173 0.029,-19.1729 0.029,-19.173 0.029,-19.1729 0.014,-6.5865 c 0,0 3.9473,-13.6653 15.5073,-12.5719 l 271.7195,0.5082 c 3.1489,0.012 5.9995,0.022 8.9659,0.033 l 0.064,27.3048 -149.3525,-0.2549 -0.1216,8.5253 c -0.1107,7.7561 -0.1811,8.6413 -0.7749,9.8218 -0.5801,1.1531 -0.7966,1.3073 -1.9512,1.3872 -1.3649,0.095 -1.3601,0.097 -7.1367,-3.643 -1.6519,-1.0695 -2.9167,-1.643 -3.8628,-1.752 -1.266,-0.1464 -1.5365,-0.044 -2.7114,1.0122 -1.0488,0.9429 -1.4059,1.5717 -1.8149,3.1992 -0.8112,3.228 -1.2386,7.2363 -1.2906,11.2794 h -0.01 c 0,0.105 -5e-4,0.2085 0,0.3135 0,0.105 -0.01,0.2099 -0.011,0.3149 h 0.011 c 0.032,4.0432 0.441,8.0546 1.2363,11.2866 0.4011,1.6295 0.7547,2.26 1.7989,3.208 1.1697,1.0617 1.4407,1.1635 2.707,1.0239 0.9465,-0.1044 2.2132,-0.6714 3.8701,-1.7329 5.7949,-3.712 5.79,-3.7093 7.1544,-3.6079 1.1542,0.086 1.3708,0.2416 1.9452,1.3975 0.5881,1.1833 0.6536,2.0683 0.7266,9.8247 l 0.079,8.5254 149.6528,0.2534 -0.1176,65.3744 z"
         id="path3239"
         inkscape:connector-curvature="0"
         sodipodi:nodetypes="cccccccccccccccccccccccccccccccccccccccc" />
      <path
         sodipodi:nodetypes="cccccc"
         inkscape:connector-curvature="0"
         id="path3241"
         d="m -1092.4398,2946.5332 0.3235,0.326 -0.9032,60.8131 -279.8676,-0.6002 c 58.0203,-38.4053 177.0314,-56.2589 252.0052,-60.5168 z"
         style="fill:#a486a6;fill-opacity:1;stroke:none;stroke-width:5.42624998;stroke-miterlimit:4;stroke-dasharray:none;stroke-opacity:1" />
      <rect
         rx="4.0446839"
         ry="2.0164082"
         transform="matrix(0.9999721,0.00747001,0.02696542,-0.99963637,0,0)"
         y="-3014.8376"
         x="-1059.573"
         height="4.0328164"
         width="46.330078"
         id="rect3243"
         style="opacity:1;fill:#ffffff;fill-opacity:1;stroke:none;stroke-width:2.33531046;stroke-miterlimit:4;stroke-dasharray:none;stroke-opacity:1" />
      <rect
         style="opacity:1;fill:#ffffff;fill-opacity:1;stroke:none;stroke-width:2.71123862;stroke-miterlimit:4;stroke-dasharray:none;stroke-opacity:1"
         id="rect3245"
         width="26.248585"
         height="3.9411135"
         x="-1239.3976"
         y="-3003.4778"
         transform="matrix(0.9999967,-0.00256827,-0.0230192,-0.99973502,0,0)"
         ry="1.9705567"
         rx="2.2686081" />
      <text
         xml:space="preserve"
         style="font-style:normal;font-variant:normal;font-weight:normal;font-stretch:normal;font-size:37.55853653px;line-height:1.25;font-family:'Bebas Neue';-inkscape-font-specification:'Bebas Neue';text-align:center;letter-spacing:0px;word-spacing:0px;text-anchor:middle;fill:#ffffff;fill-opacity:1;stroke:none;stroke-width:2.01206446"
         x="-1323.2108"
         y="-2902.0193"
         id="text3249"
         transform="scale(1,-1)"><tspan
           sodipodi:role="line"
           id="tspan3247"
           x="-1323.2108"
           y="-2902.0193"
           style="font-style:normal;font-variant:normal;font-weight:normal;font-stretch:normal;font-family:PAGRevolucionW00-Regular;-inkscape-font-specification:PAGRevolucionW00-Regular;fill:#ffffff;stroke-width:2.01206446">result</tspan></text>
      <g
         id="g3273"
         transform="translate(147.20277,2873.1577)">
        <rect
           ry="11.329442"
           rx="11.68515"
           transform="scale(1,-1)"
           y="-125.71913"
           x="-1518.5787"
           height="37.757042"
           width="37.757042"
           id="rect3265"
           style="opacity:1;fill:#0032f5;fill-opacity:1;stroke:#ffffff;stroke-width:2;stroke-miterlimit:4;stroke-dasharray:none;stroke-opacity:1" />
        <g
           style="fill:#ffffff"
           transform="matrix(0.11942495,0.11749836,0.11749836,-0.11942495,-1518.7832,107.0828)"
           id="g3271">
          <title
             id="title3267">Layer 1</title>
          <path
             style="fill:#ffffff;fill-rule:evenodd;stroke-width:1.25;stroke-linejoin:round;stroke-miterlimit:4"
             inkscape:connector-curvature="0"
             stroke-miterlimit="4"
             id="path3269"
             d="M 80.476791,3.84649 C 66.996879,3.25614 49.271,8.71378 40.968238,14.63436 38.03176,18.11943 47.28662,32.97744 45.413699,34.58947 42.462371,35.942322 33.382819,45.597939 32.590228,47.735661 31.797599,49.873391 16.935759,40.913792 13.049699,42.36591 5.939909,53.431649 1.089979,71.845597 1.997059,81.937539 c 1.52907,4.278915 19.15685,3.980179 19.60162,6.397743 -0.330481,3.203857 3.432669,15.867478 4.885139,17.633048 1.45245,1.76557 -13.55446,9.76252 -13.92264,13.33971 6.340731,11.76687 19.97086,24.24561 29.298611,28.40882 4.515789,0.77728 12.895691,-14.58812 15.2416,-13.78716 2.65818,1.8555 15.638058,4.81479 17.904041,4.42639 2.26593,-0.38838 1.521027,16.4871 5.532372,19.1811 14.034286,0.58659 30.358768,-4.4645 38.702528,-10.32827 2.96069,-3.46496 -6.19522,-18.39219 -4.31113,-19.9914 2.96069,-1.33269 12.11372,-10.92926 12.92121,-13.06155 0.80746,-2.13227 15.34598,6.66174 19.6871,5.07951 7.51844,-11.24549 11.77134,-29.131788 10.83276,-39.220892 -1.54244,-4.2742 -19.17371,-3.921089 -19.62605,-6.337265 0.32046,-3.20488 -3.47602,-15.859871 -4.93398,-17.620972 -1.45795,-1.76112 12.93781,-9.36475 13.65398,-13.36388 C 141.27357,31.155051 128.28973,18.168011 118.98387,13.95708 114.47215,13.15669 106.02295,28.484659 103.68115,27.6717 101.03273,25.80259 88.057341,22.77175 85.789359,23.14853 83.521377,23.525321 83.91651,6.653721 80.47679,3.846491 Z m 1.355637,57.894042 c 10.671585,0 19.332872,8.589401 19.332872,19.169006 0,10.579605 -8.661287,19.169022 -19.332872,19.169022 -10.671646,0 -19.332939,-8.589417 -19.332939,-19.169022 0,-10.579605 8.661293,-19.169006 19.332939,-19.169006 z" />
        </g>
      </g>
      <rect
         style="opacity:0.5;fill:#e6e6e6;fill-opacity:1;stroke:none;stroke-width:20.37637901;stroke-miterlimit:4;stroke-dasharray:none;stroke-opacity:1"
         id="rect3389"
         width="164.55917"
         height="39.805294"
         x="-1266.7292"
         y="-2997.3916"
         transform="scale(1,-1)"
         rx="6.9001365"
         ry="9.3130569" />
      <text
         transform="scale(1,-1)"
         id="text3393"
         y="-2964.3435"
         x="-1184.9928"
         style="font-style:normal;font-variant:normal;font-weight:normal;font-stretch:normal;font-size:37.55853653px;line-height:1.25;font-family:'Bebas Neue';-inkscape-font-specification:'Bebas Neue';text-align:center;letter-spacing:0px;word-spacing:0px;text-anchor:middle;fill:#000000;fill-opacity:1;stroke:none;stroke-width:2.01206446"
         xml:space="preserve"><tspan
           style="font-style:normal;font-variant:normal;font-weight:normal;font-stretch:normal;font-family:PAGRevolucionW00-Regular;-inkscape-font-specification:PAGRevolucionW00-Regular;fill:#000000;stroke-width:2.01206446"
           y="-2964.3435"
           x="-1184.9928"
           id="tspan3391"
           sodipodi:role="line">procedure</tspan></text>
      <text
         xml:space="preserve"
         style="font-style:normal;font-variant:normal;font-weight:normal;font-stretch:normal;font-size:37.55853653px;line-height:1.25;font-family:'Bebas Neue';-inkscape-font-specification:'Bebas Neue';text-align:center;letter-spacing:0px;word-spacing:0px;text-anchor:middle;fill:#ffffff;fill-opacity:1;stroke:none;stroke-width:2.01206446"
         x="-1297.4646"
         y="-2964.3435"
         id="text3397"
         transform="scale(1,-1)"><tspan
           sodipodi:role="line"
           id="tspan3395"
           x="-1297.4646"
           y="-2964.3435"
           style="font-style:normal;font-variant:normal;font-weight:normal;font-stretch:normal;font-family:PAGRevolucionW00-Regular;-inkscape-font-specification:PAGRevolucionW00-Regular;fill:#ffffff;stroke-width:2.01206446">to</tspan></text>
    </g>
  </g>
</svg>
