<?xml version="1.0" encoding="UTF-8" standalone="no"?>
<!-- Created with Inkscape (http://www.inkscape.org/) -->

<svg
   xmlns:dc="http://purl.org/dc/elements/1.1/"
   xmlns:cc="http://creativecommons.org/ns#"
   xmlns:rdf="http://www.w3.org/1999/02/22-rdf-syntax-ns#"
   xmlns:svg="http://www.w3.org/2000/svg"
   xmlns="http://www.w3.org/2000/svg"
   xmlns:sodipodi="http://sodipodi.sourceforge.net/DTD/sodipodi-0.dtd"
   xmlns:inkscape="http://www.inkscape.org/namespaces/inkscape"
   width="189.76302mm"
   height="93.223648mm"
   viewBox="0 0 189.76302 93.223655"
   version="1.1"
   id="svg2283"
   inkscape:version="0.92.3 (2405546, 2018-03-11)"
   sodipodi:docname="procedures_to_do.svg">
  <defs
     id="defs2277" />
  <sodipodi:namedview
     id="base"
     pagecolor="#ffffff"
     bordercolor="#666666"
     borderopacity="1.0"
     inkscape:pageopacity="0.0"
     inkscape:pageshadow="2"
     inkscape:zoom="1.394898"
     inkscape:cx="410"
     inkscape:cy="124.28571"
     inkscape:document-units="mm"
     inkscape:current-layer="layer1"
     showgrid="false"
     fit-margin-top="0"
     fit-margin-left="0"
     fit-margin-right="0"
     fit-margin-bottom="0"
     inkscape:window-width="1920"
     inkscape:window-height="1001"
     inkscape:window-x="0"
     inkscape:window-y="0"
     inkscape:window-maximized="1" />
  <metadata
     id="metadata2280">
    <rdf:RDF>
      <cc:Work
         rdf:about="">
        <dc:format>image/svg+xml</dc:format>
        <dc:type
           rdf:resource="http://purl.org/dc/dcmitype/StillImage" />
        <dc:title />
      </cc:Work>
    </rdf:RDF>
  </metadata>
  <g
     inkscape:label="Layer 1"
     inkscape:groupmode="layer"
     id="layer1"
     transform="translate(221.22418,-722.93764)">
    <g
       id="g56">
      <path
         sodipodi:nodetypes="ccscccccscscsccccccccscccccccccccccccccccccccccsssccccccccccccccccccccccccccccc"
         inkscape:connector-curvature="0"
         style="fill:#7f5581;fill-opacity:1;stroke:#664468;stroke-width:3.37654328;stroke-miterlimit:4;stroke-dasharray:none;stroke-opacity:1"
         d="m -187.00798,724.62949 h -9.68948 -7.73688 -5.45903 c 0,0 -10.17975,-0.40515 -9.62289,9.3977 l 0.007,9.39409 0.006,61.66313 c -0.54778,8.98414 9.63197,9.38861 9.63197,9.38861 h 5.45904 7.73787 9.68935 111.189379 12.618083 c 4.386939,0 8.947178,-0.30454 13.595281,0 h 14.24517 -102.103373 14.57055 14.24611 13.594281 12.618144 11.317371 9.689411 c 2.922511,0 5.551128,-0.37373 7.736882,0 h 5.459095 l 14.875022,-0.007 0.04107,-14.42108 h -2.217676 -5.459095 -7.736881 -9.689412 -11.31737 -12.618145 -13.594285 -14.246102 -14.57055 -14.57055 102.428687 -13.595219 -12.618082 -82.254246 -9.68935 -7.73787 -5.45904 c 0,0 -10.17975,-0.40441 -9.63197,-9.38855 l -0.006,-9.39415 -0.006,-9.39309 c -0.55686,-9.80285 9.62283,-9.39776 9.62283,-9.39776 h 5.4591 c 2.21748,0 4.81437,6.53194 7.73688,6.53194 2.92257,0 6.17027,-6.53555 9.68941,-6.53555 h 82.255113 12.618145 13.594347 -102.428815 14.57155 14.57055 14.245106 13.595281 12.618145 11.316437 9.689349 7.737877 5.459095 l 2.347168,0.0299 0.0336,-37.67659 -15.08012,-0.19415 h -5.459095 -7.737815 -9.689411 -11.316437 -12.618145 -13.595215 -14.24517 -14.57055 102.103367 -14.246103 -13.594348 -12.618082 z"
         id="path3277" />
      <path
         style="fill:#a486a6;fill-opacity:1;stroke:none;stroke-width:3.37654328;stroke-miterlimit:4;stroke-dasharray:none;stroke-opacity:1"
         d="m -34.312868,760.58435 0.201924,-0.20217 -0.444917,-34.10973 -176.306679,0.1257 c 36.02499,24.01678 94.02356,28.49544 158.856305,34.11427 z"
         id="path3279"
         inkscape:connector-curvature="0"
         sodipodi:nodetypes="cccccc" />
      <rect
         rx="2.5168488"
         ry="1.254732"
         transform="matrix(0.9999721,-0.00747002,0.02696542,0.99963637,0,0)"
         y="727.05829"
         x="-83.927414"
         height="2.509464"
         width="28.829397"
         id="rect3281"
         style="opacity:1;fill:#ffffff;fill-opacity:1;stroke:none;stroke-width:1.45317245;stroke-miterlimit:4;stroke-dasharray:none;stroke-opacity:1" />
      <rect
         style="opacity:1;fill:#ffffff;fill-opacity:1;stroke:none;stroke-width:1.68709779;stroke-miterlimit:4;stroke-dasharray:none;stroke-opacity:1"
         id="rect3283"
         width="16.333469"
         height="2.4524009"
         x="-65.869888"
         y="727.77222"
         transform="matrix(0.9999967,0.00256826,-0.0230192,0.99973502,0,0)"
         ry="1.2262005"
         rx="1.4116662" />
      <rect
         ry="5.7951512"
         rx="4.5481958"
         y="731.98138"
         x="-147.49542"
         height="24.769279"
         width="108.46848"
         id="rect3289"
         style="opacity:0.5;fill:#e6e6e6;fill-opacity:1;stroke:none;stroke-width:13.04980469;stroke-miterlimit:4;stroke-dasharray:none;stroke-opacity:1" />
      <text
         xml:space="preserve"
         style="font-style:normal;font-variant:normal;font-weight:normal;font-stretch:normal;font-size:23.3712101px;line-height:1.25;font-family:'Bebas Neue';-inkscape-font-specification:'Bebas Neue';text-align:center;letter-spacing:0px;word-spacing:0px;text-anchor:middle;fill:#000000;fill-opacity:1;stroke:none;stroke-width:1.25202906"
         x="-93.030106"
         y="752.5459"
         id="text3293"><tspan
           sodipodi:role="line"
           id="tspan3291"
           x="-93.030106"
           y="752.5459"
           style="font-style:normal;font-variant:normal;font-weight:normal;font-stretch:normal;font-family:Digitalt;-inkscape-font-specification:Digitalt;fill:#000000;stroke-width:1.25202906">procedure</tspan></text>
      <text
         id="text3297"
         y="752.5459"
         x="-163.01691"
         style="font-style:normal;font-variant:normal;font-weight:normal;font-stretch:normal;font-size:23.3712101px;line-height:1.25;font-family:'Bebas Neue';-inkscape-font-specification:'Bebas Neue';text-align:center;letter-spacing:0px;word-spacing:0px;text-anchor:middle;fill:#ffffff;fill-opacity:1;stroke:none;stroke-width:1.25202906"
         xml:space="preserve"><tspan
           style="font-style:normal;font-variant:normal;font-weight:normal;font-stretch:normal;font-family:Digitalt;-inkscape-font-specification:Digitalt;fill:#ffffff;stroke-width:1.25202906"
           y="752.5459"
           x="-163.01691"
           id="tspan3295"
           sodipodi:role="line">to</tspan></text>
      <g
         transform="matrix(0.62226092,0,0,-0.62226092,735.19171,812.03021)"
         id="g3311">
        <rect
           style="opacity:1;fill:#0032f5;fill-opacity:1;stroke:#ffffff;stroke-width:2;stroke-miterlimit:4;stroke-dasharray:none;stroke-opacity:1"
           id="rect3303"
           width="37.757042"
           height="37.757042"
           x="-1518.5787"
           y="-125.71913"
           transform="scale(1,-1)"
           rx="11.68515"
           ry="11.329442" />
        <g
           id="g3309"
           transform="matrix(0.11942495,0.11749836,0.11749836,-0.11942495,-1518.7832,107.0828)"
           style="fill:#ffffff">
          <title
             id="title3305">Layer 1</title>
          <path
             d="M 80.476791,3.84649 C 66.996879,3.25614 49.271,8.71378 40.968238,14.63436 38.03176,18.11943 47.28662,32.97744 45.413699,34.58947 42.462371,35.942322 33.382819,45.597939 32.590228,47.735661 31.797599,49.873391 16.935759,40.913792 13.049699,42.36591 5.939909,53.431649 1.089979,71.845597 1.997059,81.937539 c 1.52907,4.278915 19.15685,3.980179 19.60162,6.397743 -0.330481,3.203857 3.432669,15.867478 4.885139,17.633048 1.45245,1.76557 -13.55446,9.76252 -13.92264,13.33971 6.340731,11.76687 19.97086,24.24561 29.298611,28.40882 4.515789,0.77728 12.895691,-14.58812 15.2416,-13.78716 2.65818,1.8555 15.638058,4.81479 17.904041,4.42639 2.26593,-0.38838 1.521027,16.4871 5.532372,19.1811 14.034286,0.58659 30.358768,-4.4645 38.702528,-10.32827 2.96069,-3.46496 -6.19522,-18.39219 -4.31113,-19.9914 2.96069,-1.33269 12.11372,-10.92926 12.92121,-13.06155 0.80746,-2.13227 15.34598,6.66174 19.6871,5.07951 7.51844,-11.24549 11.77134,-29.131788 10.83276,-39.220892 -1.54244,-4.2742 -19.17371,-3.921089 -19.62605,-6.337265 0.32046,-3.20488 -3.47602,-15.859871 -4.93398,-17.620972 -1.45795,-1.76112 12.93781,-9.36475 13.65398,-13.36388 C 141.27357,31.155051 128.28973,18.168011 118.98387,13.95708 114.47215,13.15669 106.02295,28.484659 103.68115,27.6717 101.03273,25.80259 88.057341,22.77175 85.789359,23.14853 83.521377,23.525321 83.91651,6.653721 80.47679,3.846491 Z m 1.355637,57.894042 c 10.671585,0 19.332872,8.589401 19.332872,19.169006 0,10.579605 -8.661287,19.169022 -19.332872,19.169022 -10.671646,0 -19.332939,-8.589417 -19.332939,-19.169022 0,-10.579605 8.661293,-19.169006 19.332939,-19.169006 z"
             id="path3307"
             stroke-miterlimit="4"
             inkscape:connector-curvature="0"
             style="fill:#ffffff;fill-rule:evenodd;stroke-width:1.25;stroke-linejoin:round;stroke-miterlimit:4" />
        </g>
      </g>
      <text
         xml:space="preserve"
         style="font-style:normal;font-variant:normal;font-weight:normal;font-stretch:normal;font-size:23.3712101px;line-height:1.25;font-family:'Bebas Neue';-inkscape-font-specification:'Bebas Neue';text-align:center;letter-spacing:0px;word-spacing:0px;text-anchor:middle;fill:#ffffff;fill-opacity:1;stroke:none;stroke-width:1.25202906"
         x="-199.04515"
         y="789.12"
         id="text3353"><tspan
           sodipodi:role="line"
           id="tspan3351"
           x="-199.04515"
           y="789.12"
           style="font-style:normal;font-variant:normal;font-weight:normal;font-stretch:normal;font-family:Digitalt;-inkscape-font-specification:Digitalt;fill:#ffffff;stroke-width:1.25202906">do</tspan></text>
    </g>
  </g>
</svg>
