<?xml version="1.0" encoding="UTF-8" standalone="no"?>
<!-- Created with Inkscape (http://www.inkscape.org/) -->

<svg
   xmlns:dc="http://purl.org/dc/elements/1.1/"
   xmlns:cc="http://creativecommons.org/ns#"
   xmlns:rdf="http://www.w3.org/1999/02/22-rdf-syntax-ns#"
   xmlns:svg="http://www.w3.org/2000/svg"
   xmlns="http://www.w3.org/2000/svg"
   xmlns:sodipodi="http://sodipodi.sourceforge.net/DTD/sodipodi-0.dtd"
   xmlns:inkscape="http://www.inkscape.org/namespaces/inkscape"
   width="189.76302mm"
   height="93.223648mm"
   viewBox="0 0 189.76302 93.223655"
   version="1.1"
   id="svg2283"
   inkscape:version="0.92.3 (2405546, 2018-03-11)"
   sodipodi:docname="procedures_to_do.svg">
  <defs
     id="defs2277" />
  <sodipodi:namedview
     id="base"
     pagecolor="#ffffff"
     bordercolor="#666666"
     borderopacity="1.0"
     inkscape:pageopacity="0.0"
     inkscape:pageshadow="2"
     inkscape:zoom="0.35"
     inkscape:cx="516.12291"
     inkscape:cy="465.04139"
     inkscape:document-units="mm"
     inkscape:current-layer="layer1"
     showgrid="false"
     fit-margin-top="0"
     fit-margin-left="0"
     fit-margin-right="0"
     fit-margin-bottom="0"
     inkscape:window-width="1920"
     inkscape:window-height="1001"
     inkscape:window-x="0"
     inkscape:window-y="0"
     inkscape:window-maximized="1" />
  <metadata
     id="metadata2280">
    <rdf:RDF>
      <cc:Work
         rdf:about="">
        <dc:format>image/svg+xml</dc:format>
        <dc:type
           rdf:resource="http://purl.org/dc/dcmitype/StillImage" />
        <dc:title></dc:title>
      </cc:Work>
    </rdf:RDF>
  </metadata>
  <g
     inkscape:label="Layer 1"
     inkscape:groupmode="layer"
     id="layer1"
     transform="translate(221.22418,-722.93764)">
    <g
       id="g3415"
       transform="matrix(0.62226092,0,0,-0.62226092,1009.405,2736.8869)"
       inkscape:export-filename="/home/peter/allblocks.png"
       inkscape:export-xdpi="42.094723"
       inkscape:export-ydpi="42.094723">
      <path
         sodipodi:nodetypes="ccscccccscscsccccccccscccccccccccccccccccccccccsssccccccccccccccccccccccccccccc"
         inkscape:connector-curvature="0"
         style="fill:#7f5581;fill-opacity:1;stroke:#664468;stroke-width:5.42624998;stroke-miterlimit:4;stroke-dasharray:none;stroke-opacity:1"
         d="m -1922.687,3233.784 h -15.5714 -12.4335 -8.7729 c 0,0 -16.3593,0.6511 -15.4644,-15.1025 l 0.011,-15.0967 0.01,-99.0953 c -0.8803,-14.4379 15.479,-15.0879 15.479,-15.0879 h 8.7729 12.4351 15.5712 178.6861 20.2778 c 7.05,0 14.3785,0.4894 21.8482,0 h 22.8926 -164.0845 23.4155 22.8941 21.8466 20.2779 18.1875 15.5713 c 4.6966,0 8.9209,0.6006 12.4335,0 h 8.773 l 23.9048,0.012 0.066,23.1753 h -3.5639 -8.773 -12.4335 -15.5713 -18.1875 -20.2779 -21.8466 -22.8941 -23.4155 -23.4155 164.6073 -21.8481 -20.2778 -132.1861 -15.5712 -12.4351 -8.7729 c 0,0 -16.3593,0.6499 -15.479,15.0878 l -0.01,15.0968 -0.01,15.0951 c -0.8949,15.7536 15.4643,15.1026 15.4643,15.1026 h 8.773 c 3.5636,0 7.7369,-10.4971 12.4335,-10.4971 4.6967,0 9.9159,10.5029 15.5713,10.5029 h 132.1875 20.2779 21.8467 -164.6075 23.4171 23.4155 22.8925 21.8482 20.2779 18.186 15.5712 12.4351 8.773 l 3.772,-0.048 0.054,60.5479 -24.2344,0.312 h -8.773 -12.435 -15.5713 -18.186 -20.2779 -21.8481 -22.8926 -23.4155 164.0845 -22.8941 -21.8467 H -1744 Z"
         id="path3277" />
      <path
         style="fill:#a486a6;fill-opacity:1;stroke:none;stroke-width:5.42624998;stroke-miterlimit:4;stroke-dasharray:none;stroke-opacity:1"
         d="m -1677.2994,3176.003 0.3245,0.3249 -0.715,54.8158 -283.3324,-0.202 c 57.8937,-38.596 151.0999,-45.7934 255.2889,-54.8231 z"
         id="path3279"
         inkscape:connector-curvature="0"
         sodipodi:nodetypes="cccccc" />
      <rect
         rx="4.0446839"
         ry="2.0164082"
         transform="matrix(0.9999721,0.00747001,0.02696542,-0.99963637,0,0)"
         y="-3242.7141"
         x="-1638.1261"
         height="4.0328164"
         width="46.330078"
         id="rect3281"
         style="opacity:1;fill:#ffffff;fill-opacity:1;stroke:none;stroke-width:2.33531046;stroke-miterlimit:4;stroke-dasharray:none;stroke-opacity:1" />
      <rect
         style="opacity:1;fill:#ffffff;fill-opacity:1;stroke:none;stroke-width:2.71123862;stroke-miterlimit:4;stroke-dasharray:none;stroke-opacity:1"
         id="rect3283"
         width="26.248585"
         height="3.9411135"
         x="-1829.1887"
         y="-3225.4722"
         transform="matrix(0.9999967,-0.00256827,-0.0230192,-0.99973502,0,0)"
         ry="1.9705567"
         rx="2.2686081" />
      <rect
         ry="9.3130569"
         rx="6.9001365"
         transform="scale(1,-1)"
         y="-3221.9692"
         x="-1853.397"
         height="39.805294"
         width="164.55917"
         id="rect3289"
         style="opacity:0.5;fill:#e6e6e6;fill-opacity:1;stroke:none;stroke-width:20.37637901;stroke-miterlimit:4;stroke-dasharray:none;stroke-opacity:1" />
      <text
         xml:space="preserve"
         style="font-style:normal;font-variant:normal;font-weight:normal;font-stretch:normal;font-size:37.55853653px;line-height:1.25;font-family:'Bebas Neue';-inkscape-font-specification:'Bebas Neue';text-align:center;letter-spacing:0px;word-spacing:0px;text-anchor:middle;fill:#000000;fill-opacity:1;stroke:none;stroke-width:2.01206446"
         x="-1771.6605"
         y="-3188.9211"
         id="text3293"
         transform="scale(1,-1)"><tspan
           sodipodi:role="line"
           id="tspan3291"
           x="-1771.6605"
           y="-3188.9211"
           style="font-style:normal;font-variant:normal;font-weight:normal;font-stretch:normal;font-family:PAGRevolucionW00-Regular;-inkscape-font-specification:PAGRevolucionW00-Regular;fill:#000000;stroke-width:2.01206446">procedure</tspan></text>
      <text
         transform="scale(1,-1)"
         id="text3297"
         y="-3188.9211"
         x="-1884.1323"
         style="font-style:normal;font-variant:normal;font-weight:normal;font-stretch:normal;font-size:37.55853653px;line-height:1.25;font-family:'Bebas Neue';-inkscape-font-specification:'Bebas Neue';text-align:center;letter-spacing:0px;word-spacing:0px;text-anchor:middle;fill:#ffffff;fill-opacity:1;stroke:none;stroke-width:2.01206446"
         xml:space="preserve"><tspan
           style="font-style:normal;font-variant:normal;font-weight:normal;font-stretch:normal;font-family:PAGRevolucionW00-Regular;-inkscape-font-specification:PAGRevolucionW00-Regular;fill:#ffffff;stroke-width:2.01206446"
           y="-3188.9211"
           x="-1884.1323"
           id="tspan3295"
           sodipodi:role="line">to</tspan></text>
      <g
         transform="translate(-440.67253,3093.3273)"
         id="g3311">
        <rect
           style="opacity:1;fill:#0032f5;fill-opacity:1;stroke:#ffffff;stroke-width:2;stroke-miterlimit:4;stroke-dasharray:none;stroke-opacity:1"
           id="rect3303"
           width="37.757042"
           height="37.757042"
           x="-1518.5787"
           y="-125.71913"
           transform="scale(1,-1)"
           rx="11.68515"
           ry="11.329442" />
        <g
           id="g3309"
           transform="matrix(0.11942495,0.11749836,0.11749836,-0.11942495,-1518.7832,107.0828)"
           style="fill:#ffffff">
          <title
             id="title3305">Layer 1</title>
          <path
             d="M 80.476791,3.84649 C 66.996879,3.25614 49.271,8.71378 40.968238,14.63436 38.03176,18.11943 47.28662,32.97744 45.413699,34.58947 42.462371,35.942322 33.382819,45.597939 32.590228,47.735661 31.797599,49.873391 16.935759,40.913792 13.049699,42.36591 5.939909,53.431649 1.089979,71.845597 1.997059,81.937539 c 1.52907,4.278915 19.15685,3.980179 19.60162,6.397743 -0.330481,3.203857 3.432669,15.867478 4.885139,17.633048 1.45245,1.76557 -13.55446,9.76252 -13.92264,13.33971 6.340731,11.76687 19.97086,24.24561 29.298611,28.40882 4.515789,0.77728 12.895691,-14.58812 15.2416,-13.78716 2.65818,1.8555 15.638058,4.81479 17.904041,4.42639 2.26593,-0.38838 1.521027,16.4871 5.532372,19.1811 14.034286,0.58659 30.358768,-4.4645 38.702528,-10.32827 2.96069,-3.46496 -6.19522,-18.39219 -4.31113,-19.9914 2.96069,-1.33269 12.11372,-10.92926 12.92121,-13.06155 0.80746,-2.13227 15.34598,6.66174 19.6871,5.07951 7.51844,-11.24549 11.77134,-29.131788 10.83276,-39.220892 -1.54244,-4.2742 -19.17371,-3.921089 -19.62605,-6.337265 0.32046,-3.20488 -3.47602,-15.859871 -4.93398,-17.620972 -1.45795,-1.76112 12.93781,-9.36475 13.65398,-13.36388 C 141.27357,31.155051 128.28973,18.168011 118.98387,13.95708 114.47215,13.15669 106.02295,28.484659 103.68115,27.6717 101.03273,25.80259 88.057341,22.77175 85.789359,23.14853 83.521377,23.525321 83.91651,6.653721 80.47679,3.846491 Z m 1.355637,57.894042 c 10.671585,0 19.332872,8.589401 19.332872,19.169006 0,10.579605 -8.661287,19.169022 -19.332872,19.169022 -10.671646,0 -19.332939,-8.589417 -19.332939,-19.169022 0,-10.579605 8.661293,-19.169006 19.332939,-19.169006 z"
             id="path3307"
             stroke-miterlimit="4"
             inkscape:connector-curvature="0"
             style="fill:#ffffff;fill-rule:evenodd;stroke-width:1.25;stroke-linejoin:round;stroke-miterlimit:4" />
        </g>
      </g>
      <text
         xml:space="preserve"
         style="font-style:normal;font-variant:normal;font-weight:normal;font-stretch:normal;font-size:37.55853653px;line-height:1.25;font-family:'Bebas Neue';-inkscape-font-specification:'Bebas Neue';text-align:center;letter-spacing:0px;word-spacing:0px;text-anchor:middle;fill:#ffffff;fill-opacity:1;stroke:none;stroke-width:2.01206446"
         x="-1942.0312"
         y="-3130.145"
         id="text3353"
         transform="scale(1,-1)"><tspan
           sodipodi:role="line"
           id="tspan3351"
           x="-1942.0312"
           y="-3130.145"
           style="font-style:normal;font-variant:normal;font-weight:normal;font-stretch:normal;font-family:PAGRevolucionW00-Regular;-inkscape-font-specification:PAGRevolucionW00-Regular;fill:#ffffff;stroke-width:2.01206446">do</tspan></text>
    </g>
  </g>
</svg>
