<?xml version="1.0" encoding="UTF-8" standalone="no"?>
<!-- Created with Inkscape (http://www.inkscape.org/) -->

<svg
   xmlns:dc="http://purl.org/dc/elements/1.1/"
   xmlns:cc="http://creativecommons.org/ns#"
   xmlns:rdf="http://www.w3.org/1999/02/22-rdf-syntax-ns#"
   xmlns:svg="http://www.w3.org/2000/svg"
   xmlns="http://www.w3.org/2000/svg"
   xmlns:sodipodi="http://sodipodi.sourceforge.net/DTD/sodipodi-0.dtd"
   xmlns:inkscape="http://www.inkscape.org/namespaces/inkscape"
   width="187.91605mm"
   height="125.15845mm"
   viewBox="0 0 187.91606 125.15845"
   version="1.1"
   id="svg2283"
   inkscape:version="0.92.3 (2405546, 2018-03-11)"
   sodipodi:docname="text_segment.svg">
  <defs
     id="defs2277" />
  <sodipodi:namedview
     id="base"
     pagecolor="#ffffff"
     bordercolor="#666666"
     borderopacity="1.0"
     inkscape:pageopacity="0.0"
     inkscape:pageshadow="2"
     inkscape:zoom="0.35"
     inkscape:cx="52.31493"
     inkscape:cy="748.4208"
     inkscape:document-units="mm"
     inkscape:current-layer="layer1"
     showgrid="false"
     fit-margin-top="0"
     fit-margin-left="0"
     fit-margin-right="0"
     fit-margin-bottom="0"
     inkscape:window-width="1920"
     inkscape:window-height="1001"
     inkscape:window-x="0"
     inkscape:window-y="0"
     inkscape:window-maximized="1" />
  <metadata
     id="metadata2280">
    <rdf:RDF>
      <cc:Work
         rdf:about="">
        <dc:format>image/svg+xml</dc:format>
        <dc:type
           rdf:resource="http://purl.org/dc/dcmitype/StillImage" />
        <dc:title />
      </cc:Work>
    </rdf:RDF>
  </metadata>
  <g
     inkscape:label="Layer 1"
     inkscape:groupmode="layer"
     id="layer1"
     transform="translate(289.00832,-282.17071)">
    <g
       id="g843">
      <path
         sodipodi:nodetypes="cccccccccccccccccccccccccccccccccccccccccccccsccccccccccscccccccccccccccccccsccscccccccccccccccccccccccccccccccccccccccccccccccccc"
         inkscape:connector-curvature="0"
         id="path2559"
         d="m -117.86944,283.8667 -0.005,0.005 -157.28741,0.1878 -0.0501,5.30503 c -0.0453,4.82647 -0.0871,5.37717 -0.45302,6.11352 -0.35735,0.71927 -0.49138,0.81625 -1.20958,0.8696 -0.84906,0.063 -0.84593,0.0647 -4.45181,-2.24509 -1.03121,-0.66051 -1.81923,-1.01343 -2.40824,-1.0783 -0.78793,-0.0869 -0.95668,-0.0224 -1.6845,0.63802 -0.64973,0.58995 -0.86987,0.98225 -1.11932,1.99624 -0.49507,2.01114 -0.74909,4.50637 -0.76935,7.02233 h -0.007 c 2.3e-4,0.0653 0.007,0.13063 0.007,0.19596 -2.8e-4,0.0653 -0.006,0.12974 0,0.19508 h 0.006 c 0.0331,2.51577 0.29916,5.00998 0.80393,7.01864 0.25459,1.01273 0.47673,1.40396 1.12936,1.99074 0.73103,0.6572 0.89946,0.7209 1.68725,0.6299 0.58869,-0.0679 1.37488,-0.4247 2.40273,-1.09021 3.59468,-2.32736 3.59165,-2.32577 4.44089,-2.26692 0.71848,0.0498 0.8541,0.14575 1.21509,0.8632 0.36948,0.73458 0.41237,1.28551 0.48126,6.1117 l 0.0756,89.31025 157.28924,-0.18775 14.87774,-0.0364 0.005,-9.53263 0.005,-8.60741 c -0.0215,-0.0679 -0.0383,-0.14202 -0.0683,-0.20236 -0.17977,-0.35912 -0.30368,-0.56335 -0.4722,-0.68362 -0.16843,-0.12036 -0.3818,-0.15667 -0.74107,-0.18234 -0.2123,-0.0149 -0.3706,-0.0261 -0.54598,0 -0.17539,0.0275 -0.36771,0.0942 -0.64535,0.23517 -0.55532,0.28207 -1.4545,0.86157 -3.25408,2.02177 -0.51458,0.33173 -0.9683,0.5865 -1.36728,0.76655 -0.39907,0.1801 -0.74293,0.28571 -1.03733,0.31904 -0.39384,0.0448 -0.63321,0.0507 -0.86502,-0.0364 -0.23185,-0.0871 -0.45642,-0.26774 -0.82129,-0.59704 -0.32575,-0.29402 -0.54351,-0.53866 -0.7119,-0.83679 -0.16824,-0.29812 -0.28664,-0.64922 -0.41288,-1.15577 -0.25048,-1.00489 -0.44103,-2.13135 -0.57245,-3.32068 -0.13142,-1.18923 -0.20404,-2.441 -0.21785,-3.69889 h -0.007 c -9e-5,-0.0653 0,-0.13072 0,-0.19601 0,-0.0652 -0.007,-0.13063 -0.007,-0.19597 h 0.007 c 0.0126,-1.25788 0.0839,-2.51031 0.21422,-3.69982 0.1303,-1.18951 0.31926,-2.31649 0.5688,-3.32157 0.12569,-0.50669 0.24395,-0.85755 0.412,-1.15581 0.16806,-0.29822 0.38643,-0.54333 0.7119,-0.83768 0.36449,-0.32967 0.58855,-0.51075 0.82036,-0.59793 0.23171,-0.0873 0.47113,-0.0805 0.86502,-0.0364 0.29444,0.0331 0.63895,0.13847 1.03821,0.31815 0.39917,0.17967 0.85326,0.43351 1.36821,0.76477 1.8007,1.15843 2.7003,1.73746 3.25591,2.01897 0.27777,0.14085 0.46898,0.20684 0.64446,0.23428 0.17533,0.0275 0.33466,0.0154 0.54692,0 0.35921,-0.0261 0.57263,-0.0637 0.74102,-0.18415 0.16838,-0.12041 0.29182,-0.32342 0.47126,-0.68269 0.0378,-0.0756 0.06,-0.16717 0.0857,-0.25341 l 0.005,-14.69634 0.005,-8.88729 c -0.0275,-0.0751 -0.0443,-0.16311 -0.0784,-0.23246 -0.17978,-0.35908 -0.30373,-0.56339 -0.47221,-0.68362 -0.16847,-0.12026 -0.3818,-0.15671 -0.74106,-0.18229 -0.21226,-0.0149 -0.37056,-0.0261 -0.54599,0 -0.17534,0.0275 -0.36776,0.0941 -0.64535,0.23517 -0.55536,0.28207 -1.4545,0.86157 -3.25408,2.02173 -0.51462,0.33177 -0.9683,0.58649 -1.36728,0.76659 -0.39907,0.18001 -0.74293,0.28567 -1.03732,0.31903 -0.39385,0.0448 -0.63322,0.0506 -0.86502,-0.0364 -0.2319,-0.0871 -0.45638,-0.26774 -0.82129,-0.59704 -0.32576,-0.29402 -0.54352,-0.53871 -0.7119,-0.83679 -0.16829,-0.29812 -0.2866,-0.64917 -0.41289,-1.15582 -0.25043,-1.00479 -0.44102,-2.1313 -0.57245,-3.32063 -0.13146,-1.18928 -0.20404,-2.44105 -0.21785,-3.69894 h -0.007 c -1.9e-4,-0.0653 0,-0.13062 0,-0.19596 0,-0.0653 -0.007,-0.13063 -0.007,-0.19597 h 0.007 c 0.0126,-1.25798 0.0839,-2.51035 0.21421,-3.69987 0.1303,-1.18951 0.31931,-2.31649 0.56881,-3.32156 0.12573,-0.5067 0.24399,-0.85756 0.412,-1.15578 0.16805,-0.29826 0.38637,-0.54337 0.7119,-0.83767 0.36444,-0.32967 0.58864,-0.5108 0.82035,-0.59797 0.23172,-0.0872 0.47113,-0.0805 0.86502,-0.0364 0.29439,0.0331 0.63905,0.13842 1.03821,0.3181 0.39917,0.17973 0.85336,0.43356 1.36822,0.76478 1.80069,1.15848 2.7003,1.7375 3.2559,2.01902 0.27773,0.14075 0.46898,0.20679 0.64446,0.23423 0.17538,0.0275 0.33467,0.0154 0.54692,0 0.35922,-0.0261 0.57273,-0.0637 0.74102,-0.18411 0.16838,-0.12041 0.29182,-0.32342 0.47127,-0.68273 0.0485,-0.0968 0.0728,-0.22047 0.10939,-0.32449 l 0.0154,-10.89352 0.0126,-8.48714 0.007,-3.21218 c -0.0566,-0.2284 -0.11546,-0.42987 -0.20694,-0.61253 -0.17977,-0.35908 -0.30363,-0.5634 -0.47215,-0.68362 -0.16843,-0.12027 -0.38181,-0.15672 -0.74107,-0.18229 -0.2123,-0.0149 -0.37065,-0.0266 -0.54598,0 -0.17544,0.0275 -0.36776,0.094 -0.64535,0.23517 -0.55537,0.28207 -1.45455,0.86156 -3.25413,2.02172 -0.51458,0.33178 -0.96825,0.5865 -1.36723,0.7666 -0.39907,0.18005 -0.74294,0.28566 -1.03733,0.31903 -0.39384,0.0448 -0.63321,0.0498 -0.86502,-0.0373 -0.23185,-0.0871 -0.45643,-0.26769 -0.82129,-0.59704 -0.3258,-0.29397 -0.54356,-0.53866 -0.7119,-0.83678 -0.16829,-0.29804 -0.28659,-0.64923 -0.41288,-1.15578 -0.25048,-1.00484 -0.44103,-2.1314 -0.57245,-3.32068 -0.13147,-1.18923 -0.20404,-2.44091 -0.21785,-3.69893 h -0.007 c -9e-5,-0.0653 1.9e-4,-0.13063 0.007,-0.19597 0,-0.0652 -0.007,-0.13077 -0.007,-0.19596 h 0.007 c 0.0126,-1.25803 0.0839,-2.51041 0.21421,-3.69983 0.1303,-1.18951 0.31927,-2.31649 0.56876,-3.32156 0.12578,-0.5067 0.24394,-0.85756 0.412,-1.15582 0.16815,-0.29832 0.38647,-0.54333 0.7119,-0.83768 0.36453,-0.32967 0.58859,-0.5107 0.8204,-0.59793 0.23172,-0.0872 0.47113,-0.0804 0.86502,-0.0364 0.29444,0.0331 0.63896,0.13842 1.03821,0.31815 0.39917,0.17963 0.85326,0.43347 1.36817,0.76473 1.8007,1.15847 2.7003,1.7375 3.25595,2.01901 0.27778,0.14076 0.46903,0.20675 0.64441,0.23429 0.17539,0.0275 0.33467,0.0163 0.54692,0 0.35922,-0.0261 0.57268,-0.0637 0.74107,-0.18416 0.16838,-0.12032 0.29178,-0.32342 0.47127,-0.68273 0.10528,-0.21081 0.17814,-0.42175 0.23787,-0.70733 l 0.0154,-10.50886 z"
         style="fill:#bd295d;fill-opacity:1;stroke:#97234b;stroke-width:3.37654328;stroke-miterlimit:4;stroke-dasharray:none;stroke-opacity:1" />
      <path
         sodipodi:nodetypes="cccccccccccccccccccccscccccccccccscccccccccccccccccsccccscccccccccccscccccsccccccccc"
         inkscape:connector-curvature="0"
         style="fill:#d36a8b;fill-opacity:1;stroke:none;stroke-width:3.37654328;stroke-miterlimit:4;stroke-dasharray:none;stroke-opacity:1"
         d="m -273.48917,285.67896 c 45.87923,34.16044 130.32832,114.29882 154.5525,117.94184 l 15.1462,0.1387 c -0.39719,-6.48501 -0.0429,-9.76203 -0.0898,-16.32165 l -4.25838,2.76172 c -1.18049,0.38399 -2.15563,1.17862 -3.50986,1.08889 -1.32243,-0.0723 -1.88676,-0.99742 -2.86172,-1.74874 -0.86979,-1.36823 -0.99736,-2.56278 -1.37762,-3.88365 l -0.36888,-6.05031 0.52936,-6.57219 c 0.42003,-1.28609 0.76103,-2.28793 1.59162,-3.68454 0.99923,-0.50253 0.94036,-1.17881 3.23445,-1.20749 1.8264,0.35929 3.46338,1.57146 5.14759,2.59408 0.64865,0.50447 1.26574,0.78784 1.89864,1.18173 0.0274,-6.10966 0.007,-15.4475 0.0348,-21.55711 -0.0274,-0.0752 -0.0442,-0.16321 -0.0784,-0.23247 -0.17978,-0.35911 -0.30373,-0.56333 -0.47218,-0.68362 -0.1685,-0.12028 -0.38182,-0.15668 -0.74105,-0.18232 -0.21231,-0.0149 -0.37062,-0.0261 -0.54603,0 -0.17535,0.0274 -0.36769,0.0942 -0.64535,0.23521 -0.5553,0.28208 -1.45447,0.86159 -3.25405,2.02173 -0.51461,0.33173 -0.96824,0.58648 -1.36729,0.76656 -0.399,0.18009 -0.74292,0.28575 -1.03731,0.31904 -0.39383,0.0448 -0.63321,0.0504 -0.86501,-0.0367 -0.23191,-0.0871 -0.45649,-0.26769 -0.82132,-0.59699 -0.32575,-0.29402 -0.54348,-0.5387 -0.71187,-0.83682 -0.16825,-0.29806 -0.28655,-0.64921 -0.41293,-1.15579 -0.2504,-1.00482 -0.44099,-2.13137 -0.57242,-3.32063 -0.13148,-1.18933 -0.20404,-2.44101 -0.21779,-3.69897 h -0.006 c -2.5e-4,-0.0653 0,-0.13061 0,-0.19595 0,-0.0653 -0.006,-0.13067 -0.006,-0.19595 h 0.006 c 0.0125,-1.25796 0.0838,-6.24395 0.21412,-7.4334 0.13036,-1.18952 0.31934,-2.31649 0.56881,-3.32157 0.12576,-0.50677 0.24393,-0.85754 0.41206,-1.15585 0.16801,-0.29825 0.38642,-0.54336 0.71187,-0.83769 0.36452,-0.32961 0.58866,-0.51075 0.82032,-0.59793 0.23173,-0.0872 0.47112,-0.0806 0.86501,-0.0367 0.29445,0.033 0.639,0.13845 1.03824,0.3181 0.39924,0.17971 0.85331,0.43353 1.36817,0.76482 1.80069,1.1584 2.70036,1.73748 3.25591,2.01899 0.27778,0.14075 0.469,0.20684 0.64448,0.23422 0.17541,0.0274 0.33465,0.0156 0.5469,0 0.35924,-0.0261 0.57273,-0.0637 0.74112,-0.18413 0.16832,-0.12041 0.29184,-0.32339 0.47124,-0.68268 0.0485,-0.0968 0.0728,-0.22053 0.10939,-0.32451 l 0.0156,-9.96016 0.0124,-5.6869 0.006,-3.21218 c -0.0566,-0.22849 -0.11543,-0.42985 -0.2069,-0.61255 -0.17977,-0.35911 -0.30366,-0.5634 -0.47217,-0.68362 -0.16845,-0.12028 -0.38188,-0.15668 -0.74105,-0.18232 -0.21232,-0.0149 -0.37062,-0.0268 -0.54597,0 -0.17542,0.0274 -0.36776,0.0942 -0.64535,0.23515 -0.55537,0.28207 -1.45453,0.86159 -3.25417,2.02179 -0.51455,0.33173 -0.96824,0.58648 -1.3673,0.76656 -0.39899,0.18009 -0.74292,0.28568 -1.03725,0.31904 -0.39389,0.0448 -0.63321,0.0504 -0.86506,-0.0367 -0.23179,-0.0871 -0.45637,-0.26775 -0.82126,-0.59705 -0.32576,-0.29402 -0.54361,-0.53863 -0.71187,-0.83676 -0.16832,-0.29812 -0.28667,-0.6492 -0.41293,-1.15579 -0.25046,-1.00489 -0.441,-2.13136 -0.57242,-3.32069 -0.13148,-1.18927 -0.20404,-3.37434 -0.21785,-4.6323 h -0.006 c -1.2e-4,-0.0653 0,-0.13067 0.006,-0.19595 0,-0.0653 -0.006,-0.13067 -0.006,-0.19601 h 0.006 c 0.0124,-1.2579 0.0839,-5.3105 0.21424,-6.50001 0.1303,-1.18952 0.31928,-2.31643 0.56881,-3.32157 0.12576,-0.50671 0.24393,-0.85754 0.412,-1.15579 0.16807,-0.29825 0.38642,-0.54336 0.71187,-0.83769 0.36452,-0.32967 0.58859,-0.51075 0.82038,-0.59793 0.23173,-0.0872 0.47112,-0.0807 0.86501,-0.0367 0.29445,0.033 0.639,0.13845 1.03824,0.3181 0.39918,0.17971 0.85325,0.43353 1.36817,0.76476 1.8007,1.15846 2.7003,1.73748 3.25591,2.01899 0.27778,0.14081 0.46907,0.2069 0.64448,0.23428 0.17535,0.0274 0.33459,0.0162 0.54684,0 0.35923,-0.0261 0.57273,-0.0637 0.74112,-0.18413 0.16838,-0.12041 0.29177,-0.32345 0.47123,-0.68268 0.10529,-0.21089 0.17816,-0.42177 0.23789,-0.70739 l -0.20671,-7.00504 z"
         id="path2507" />
      <rect
         rx="2.5168488"
         ry="1.254732"
         transform="matrix(0.9999721,-0.00747002,0.02696542,0.99963637,0,0)"
         y="285.8696"
         x="-141.42575"
         height="2.509464"
         width="28.829397"
         id="rect2509"
         style="opacity:1;fill:#ffffff;fill-opacity:1;stroke:none;stroke-width:1.45317245;stroke-miterlimit:4;stroke-dasharray:none;stroke-opacity:1" />
      <rect
         style="opacity:1;fill:#ffffff;fill-opacity:1;stroke:none;stroke-width:1.68709779;stroke-miterlimit:4;stroke-dasharray:none;stroke-opacity:1"
         id="rect2511"
         width="16.333469"
         height="2.4524009"
         x="-145.40723"
         y="287.24796"
         transform="matrix(0.9999967,0.00256826,-0.0230192,0.99973502,0,0)"
         ry="1.2262005"
         rx="1.4116662" />
      <text
         xml:space="preserve"
         style="font-style:normal;font-variant:normal;font-weight:normal;font-stretch:normal;font-size:23.3712101px;line-height:1.25;font-family:'Bebas Neue';-inkscape-font-specification:'Bebas Neue';text-align:center;letter-spacing:0px;word-spacing:0px;text-anchor:middle;fill:#ffffff;fill-opacity:1;stroke:none;stroke-width:1.25202906"
         x="-194.51263"
         y="310.63583"
         id="text2515"><tspan
           sodipodi:role="line"
           id="tspan2513"
           x="-194.51263"
           y="310.63583"
           style="font-style:normal;font-variant:normal;font-weight:normal;font-stretch:normal;font-family:Digitalt;-inkscape-font-specification:Digitalt;fill:#ffffff;stroke-width:1.25202906">segment  text</tspan></text>
      <text
         id="text2519"
         y="349.83829"
         x="-152.31207"
         style="font-style:normal;font-variant:normal;font-weight:normal;font-stretch:normal;font-size:23.3712101px;line-height:1.25;font-family:'Bebas Neue';-inkscape-font-specification:'Bebas Neue';text-align:center;letter-spacing:0px;word-spacing:0px;text-anchor:middle;fill:#ffffff;fill-opacity:1;stroke:none;stroke-width:1.25202906"
         xml:space="preserve"><tspan
           style="font-style:normal;font-variant:normal;font-weight:normal;font-stretch:normal;font-family:Digitalt;-inkscape-font-specification:Digitalt;fill:#ffffff;stroke-width:1.25202906"
           y="349.83829"
           x="-152.31207"
           id="tspan2517"
           sodipodi:role="line">start</tspan></text>
      <text
         xml:space="preserve"
         style="font-style:normal;font-variant:normal;font-weight:normal;font-stretch:normal;font-size:23.3712101px;line-height:1.25;font-family:'Bebas Neue';-inkscape-font-specification:'Bebas Neue';text-align:center;letter-spacing:0px;word-spacing:0px;text-anchor:middle;fill:#ffffff;fill-opacity:1;stroke:none;stroke-width:1.25202906"
         x="-157.44736"
         y="388.10733"
         id="text2566"><tspan
           sodipodi:role="line"
           id="tspan2564"
           x="-157.44736"
           y="388.10733"
           style="font-style:normal;font-variant:normal;font-weight:normal;font-stretch:normal;font-family:Digitalt;-inkscape-font-specification:Digitalt;fill:#ffffff;stroke-width:1.25202906">length</tspan></text>
    </g>
  </g>
</svg>
