<?xml version="1.0" encoding="UTF-8" standalone="no"?>
<!-- Created with Inkscape (http://www.inkscape.org/) -->

<svg
   xmlns:dc="http://purl.org/dc/elements/1.1/"
   xmlns:cc="http://creativecommons.org/ns#"
   xmlns:rdf="http://www.w3.org/1999/02/22-rdf-syntax-ns#"
   xmlns:svg="http://www.w3.org/2000/svg"
   xmlns="http://www.w3.org/2000/svg"
   xmlns:sodipodi="http://sodipodi.sourceforge.net/DTD/sodipodi-0.dtd"
   xmlns:inkscape="http://www.inkscape.org/namespaces/inkscape"
   width="187.91605mm"
   height="125.15845mm"
   viewBox="0 0 187.91606 125.15845"
   version="1.1"
   id="svg2283"
   inkscape:version="0.92.3 (2405546, 2018-03-11)"
   sodipodi:docname="text_segment.svg">
  <defs
     id="defs2277" />
  <sodipodi:namedview
     id="base"
     pagecolor="#ffffff"
     bordercolor="#666666"
     borderopacity="1.0"
     inkscape:pageopacity="0.0"
     inkscape:pageshadow="2"
     inkscape:zoom="0.35"
     inkscape:cx="772.31493"
     inkscape:cy="976.99223"
     inkscape:document-units="mm"
     inkscape:current-layer="layer1"
     showgrid="false"
     fit-margin-top="0"
     fit-margin-left="0"
     fit-margin-right="0"
     fit-margin-bottom="0"
     inkscape:window-width="1920"
     inkscape:window-height="1001"
     inkscape:window-x="0"
     inkscape:window-y="0"
     inkscape:window-maximized="1" />
  <metadata
     id="metadata2280">
    <rdf:RDF>
      <cc:Work
         rdf:about="">
        <dc:format>image/svg+xml</dc:format>
        <dc:type
           rdf:resource="http://purl.org/dc/dcmitype/StillImage" />
        <dc:title></dc:title>
      </cc:Work>
    </rdf:RDF>
  </metadata>
  <g
     inkscape:label="Layer 1"
     inkscape:groupmode="layer"
     id="layer1"
     transform="translate(289.00832,-282.17071)">
    <g
       id="g2598"
       transform="matrix(0.62226092,0,0,-0.62226092,1721.3519,1895.2488)"
       inkscape:export-filename="/home/peter/allblocks.png"
       inkscape:export-xdpi="42.094723"
       inkscape:export-ydpi="42.094723">
      <path
         sodipodi:nodetypes="cccccccccccccccccccccccccccccccccccccccccccccsccccccccccscccccccccccccccccccsccscccccccccccccccccccccccccccccccccccccccccccccccccc"
         inkscape:connector-curvature="0"
         id="path2559"
         transform="matrix(0.75000002,0,0,-0.75000002,0,500.00002)"
         d="m -3940.9434,-2786.0801 -0.01,0.01 -337.0235,0.4024 -0.1074,11.3672 c -0.097,10.3418 -0.1866,11.5218 -0.9707,13.0996 -0.7657,1.5412 -1.0529,1.749 -2.5918,1.8633 -1.8193,0.135 -1.8126,0.1387 -9.539,-4.8106 -2.2096,-1.4153 -3.8981,-2.1715 -5.1602,-2.3105 -1.6883,-0.1862 -2.0499,-0.048 -3.6094,1.3671 -1.3922,1.2641 -1.8639,2.1047 -2.3984,4.2774 -1.0608,4.3093 -1.6051,9.6559 -1.6485,15.0469 h -0.014 c 5e-4,0.14 0.014,0.2799 0.014,0.4199 -6e-4,0.14 -0.013,0.278 0,0.418 h 0.012 c 0.071,5.3906 0.641,10.735 1.7226,15.039 0.5455,2.17 1.0215,3.0083 2.4199,4.2656 1.5664,1.4082 1.9273,1.5447 3.6153,1.3497 1.2614,-0.1454 2.946,-0.91 5.1484,-2.336 7.7024,-4.9869 7.6959,-4.9835 9.5156,-4.8574 1.5395,0.1067 1.8301,0.3123 2.6036,1.8496 0.7917,1.574 0.8836,2.7545 1.0312,13.0957 l 0.1621,191.3672 337.0274,-0.4023 31.8789,-0.078 0.01,-20.4258 0.01,-18.4433 c -0.046,-0.1455 -0.082,-0.3043 -0.1464,-0.4336 -0.3852,-0.7695 -0.6507,-1.2071 -1.0118,-1.4648 -0.3609,-0.2579 -0.8181,-0.3357 -1.5879,-0.3907 -0.4549,-0.032 -0.7941,-0.056 -1.1699,0 -0.3758,0.059 -0.7879,0.2018 -1.3828,0.5039 -1.1899,0.6044 -3.1166,1.8461 -6.9726,4.3321 -1.1026,0.7108 -2.0748,1.2567 -2.9297,1.6425 -0.8551,0.3859 -1.5919,0.6122 -2.2227,0.6836 -0.8439,0.096 -1.3568,0.1086 -1.8535,-0.078 -0.4968,-0.1867 -0.978,-0.5737 -1.7598,-1.2793 -0.698,-0.63 -1.1646,-1.1542 -1.5254,-1.793 -0.3605,-0.6388 -0.6142,-1.3911 -0.8847,-2.4765 -0.5367,-2.1532 -0.945,-4.5669 -1.2266,-7.1153 -0.2816,-2.5482 -0.4372,-5.2304 -0.4668,-7.9257 h -0.014 c -2e-4,-0.1399 0,-0.2801 0,-0.42 0,-0.1398 -0.014,-0.2799 -0.014,-0.4199 h 0.014 c 0.027,-2.6953 0.1798,-5.3789 0.459,-7.9277 0.2792,-2.5488 0.6841,-4.9636 1.2188,-7.1172 0.2693,-1.0857 0.5227,-1.8375 0.8828,-2.4766 0.3601,-0.639 0.828,-1.1642 1.5254,-1.7949 0.781,-0.7064 1.2611,-1.0944 1.7578,-1.2812 0.4965,-0.187 1.0095,-0.1724 1.8535,-0.078 0.6309,0.071 1.3691,0.2967 2.2246,0.6817 0.8553,0.385 1.8283,0.9289 2.9317,1.6387 3.8584,2.4822 5.786,3.7229 6.9765,4.3261 0.5952,0.3018 1.0049,0.4432 1.3809,0.502 0.3757,0.059 0.7171,0.033 1.1719,0 0.7697,-0.056 1.227,-0.1366 1.5878,-0.3946 0.3608,-0.258 0.6253,-0.693 1.0098,-1.4628 0.081,-0.1619 0.1285,-0.3582 0.1836,-0.543 l 0.01,-31.4902 0.01,-19.043 c -0.059,-0.1609 -0.095,-0.3495 -0.1679,-0.4981 -0.3852,-0.7694 -0.6508,-1.2072 -1.0118,-1.4648 -0.361,-0.2577 -0.8181,-0.3358 -1.5879,-0.3906 -0.4548,-0.032 -0.794,-0.056 -1.1699,0 -0.3757,0.059 -0.788,0.2017 -1.3828,0.5039 -1.19,0.6044 -3.1166,1.8461 -6.9726,4.332 -1.1027,0.7109 -2.0748,1.2567 -2.9297,1.6426 -0.8551,0.3857 -1.5919,0.6121 -2.2227,0.6836 -0.8439,0.096 -1.3568,0.1085 -1.8535,-0.078 -0.4969,-0.1867 -0.9779,-0.5737 -1.7598,-1.2793 -0.698,-0.63 -1.1646,-1.1543 -1.5254,-1.793 -0.3606,-0.6388 -0.6141,-1.391 -0.8847,-2.4766 -0.5366,-2.153 -0.945,-4.5668 -1.2266,-7.1152 -0.2817,-2.5483 -0.4372,-5.2305 -0.4668,-7.9258 h -0.014 c -4e-4,-0.1399 0,-0.2799 0,-0.4199 0,-0.1399 -0.014,-0.2799 -0.014,-0.4199 h 0.014 c 0.027,-2.6955 0.1798,-5.379 0.459,-7.9278 0.2792,-2.5488 0.6842,-4.9636 1.2188,-7.1172 0.2694,-1.0857 0.5228,-1.8375 0.8828,-2.4765 0.3601,-0.6391 0.8279,-1.1643 1.5254,-1.7949 0.7809,-0.7064 1.2613,-1.0945 1.7578,-1.2813 0.4965,-0.1869 1.0095,-0.1724 1.8535,-0.078 0.6308,0.071 1.3693,0.2966 2.2246,0.6816 0.8553,0.3851 1.8285,0.929 2.9317,1.6387 3.8584,2.4823 5.786,3.723 6.9765,4.3262 0.5951,0.3016 1.0049,0.4431 1.3809,0.5019 0.3758,0.059 0.7171,0.033 1.1719,0 0.7697,-0.056 1.2272,-0.1365 1.5878,-0.3945 0.3608,-0.258 0.6253,-0.693 1.0098,-1.4629 0.104,-0.2073 0.156,-0.4724 0.2344,-0.6953 l 0.033,-23.3418 0.027,-18.1856 0.014,-6.8828 c -0.1213,-0.4894 -0.2474,-0.9211 -0.4434,-1.3125 -0.3852,-0.7694 -0.6506,-1.2072 -1.0117,-1.4648 -0.3609,-0.2577 -0.8181,-0.3358 -1.5879,-0.3906 -0.4549,-0.032 -0.7942,-0.057 -1.1699,0 -0.3759,0.059 -0.788,0.2015 -1.3828,0.5039 -1.19,0.6044 -3.1167,1.8461 -6.9727,4.332 -1.1026,0.7109 -2.0747,1.2567 -2.9296,1.6426 -0.8551,0.3858 -1.5919,0.6121 -2.2227,0.6836 -0.8439,0.096 -1.3568,0.1066 -1.8535,-0.08 -0.4968,-0.1867 -0.978,-0.5736 -1.7598,-1.2793 -0.6981,-0.6299 -1.1647,-1.1542 -1.5254,-1.793 -0.3606,-0.6386 -0.6141,-1.3911 -0.8847,-2.4765 -0.5367,-2.1531 -0.945,-4.567 -1.2266,-7.1153 -0.2817,-2.5482 -0.4372,-5.2302 -0.4668,-7.9258 h -0.014 c -2e-4,-0.1399 4e-4,-0.2799 0.014,-0.4199 0,-0.1397 -0.014,-0.2802 -0.014,-0.4199 h 0.014 c 0.027,-2.6956 0.1798,-5.3791 0.459,-7.9277 0.2792,-2.5488 0.6841,-4.9636 1.2187,-7.1172 0.2695,-1.0857 0.5227,-1.8375 0.8828,-2.4766 0.3603,-0.6392 0.8281,-1.1642 1.5254,-1.7949 0.7811,-0.7064 1.2612,-1.0943 1.7579,-1.2812 0.4965,-0.1869 1.0095,-0.1723 1.8535,-0.078 0.6309,0.071 1.3691,0.2966 2.2246,0.6817 0.8553,0.3849 1.8283,0.9288 2.9316,1.6386 3.8584,2.4823 5.786,3.723 6.9766,4.3262 0.5952,0.3016 1.005,0.443 1.3808,0.502 0.3758,0.059 0.7171,0.035 1.1719,0 0.7697,-0.056 1.2271,-0.1366 1.5879,-0.3946 0.3608,-0.2578 0.6252,-0.693 1.0098,-1.4629 0.2256,-0.4517 0.3817,-0.9037 0.5097,-1.5156 l 0.033,-22.5176 z"
         style="fill:#bd295d;fill-opacity:1;stroke:#97234b;stroke-width:7.23499966;stroke-miterlimit:4;stroke-dasharray:none;stroke-opacity:1" />
      <path
         sodipodi:nodetypes="cccccccccccccccccccccscccccccccccscccccccccccccccccsccccscccccccccccscccccsccccccccc"
         inkscape:connector-curvature="0"
         style="fill:#d36a8b;fill-opacity:1;stroke:none;stroke-width:5.42624998;stroke-miterlimit:4;stroke-dasharray:none;stroke-opacity:1"
         d="m -3205.7952,2586.6478 c 73.7299,-54.8973 209.4432,-183.6831 248.3725,-189.5376 l 24.3406,-0.2229 c -0.6383,10.4217 -0.069,15.688 -0.1443,26.2296 l -6.8434,-4.4382 c -1.8971,-0.6171 -3.4642,-1.8941 -5.6405,-1.7499 -2.1252,0.1162 -3.0321,1.6029 -4.5989,2.8103 -1.3978,2.1988 -1.6028,4.1185 -2.2139,6.2412 l -0.5928,9.7231 0.8507,10.5618 c 0.675,2.0668 1.223,3.6768 2.5578,5.9212 1.6058,0.8076 1.5112,1.8944 5.1979,1.9405 2.9351,-0.5774 5.5658,-2.5254 8.2724,-4.1688 1.0424,-0.8107 2.0341,-1.2661 3.0512,-1.8991 0.044,9.8185 0.012,24.8248 0.056,34.6432 -0.044,0.1209 -0.071,0.2623 -0.126,0.3736 -0.2889,0.5771 -0.4881,0.9053 -0.7588,1.0986 -0.2708,0.1933 -0.6136,0.2518 -1.1909,0.293 -0.3412,0.024 -0.5956,0.042 -0.8775,0 -0.2818,-0.044 -0.5909,-0.1513 -1.0371,-0.378 -0.8924,-0.4533 -2.3374,-1.3846 -5.2294,-3.249 -0.827,-0.5331 -1.556,-0.9425 -2.1973,-1.2319 -0.6412,-0.2894 -1.1939,-0.4592 -1.667,-0.5127 -0.6329,-0.072 -1.0176,-0.081 -1.3901,0.059 -0.3727,0.1399 -0.7336,0.4302 -1.3199,0.9594 -0.5235,0.4725 -0.8734,0.8657 -1.144,1.3448 -0.2704,0.479 -0.4605,1.0433 -0.6636,1.8574 -0.4024,1.6148 -0.7087,3.4252 -0.9199,5.3364 -0.2113,1.9113 -0.3279,3.9228 -0.35,5.9444 h -0.01 c -4e-4,0.1049 0,0.2099 0,0.3149 0,0.1049 -0.01,0.21 -0.01,0.3149 h 0.01 c 0.02,2.0216 0.1347,10.0343 0.3441,11.9458 0.2095,1.9116 0.5132,3.7227 0.9141,5.3379 0.2021,0.8144 0.392,1.3781 0.6622,1.8575 0.27,0.4793 0.621,0.8732 1.144,1.3462 0.5858,0.5297 0.946,0.8208 1.3183,0.9609 0.3724,0.1401 0.7571,0.1296 1.3901,0.059 0.4732,-0.053 1.0269,-0.2225 1.6685,-0.5112 0.6416,-0.2888 1.3713,-0.6967 2.1987,-1.2291 2.8938,-1.8616 4.3396,-2.7922 5.2324,-3.2446 0.4464,-0.2262 0.7537,-0.3324 1.0357,-0.3764 0.2819,-0.044 0.5378,-0.025 0.8789,0 0.5773,0.042 0.9204,0.1023 1.191,0.2959 0.2705,0.1935 0.469,0.5197 0.7573,1.0971 0.078,0.1555 0.117,0.3544 0.1758,0.5215 l 0.025,16.0064 0.02,9.1391 0.01,5.1621 c -0.091,0.3672 -0.1855,0.6908 -0.3325,0.9844 -0.2889,0.5771 -0.488,0.9054 -0.7588,1.0986 -0.2707,0.1933 -0.6137,0.2518 -1.1909,0.293 -0.3412,0.024 -0.5956,0.043 -0.8774,0 -0.2819,-0.044 -0.591,-0.1513 -1.0371,-0.3779 -0.8925,-0.4533 -2.3375,-1.3846 -5.2296,-3.2491 -0.8269,-0.5331 -1.556,-0.9425 -2.1973,-1.2319 -0.6412,-0.2894 -1.1939,-0.4591 -1.6669,-0.5127 -0.633,-0.072 -1.0176,-0.081 -1.3902,0.059 -0.3725,0.14 -0.7334,0.4303 -1.3198,0.9595 -0.5235,0.4725 -0.8736,0.8656 -1.144,1.3447 -0.2705,0.4791 -0.4607,1.0433 -0.6636,1.8574 -0.4025,1.6149 -0.7087,3.4252 -0.9199,5.3365 -0.2113,1.9112 -0.3279,5.4227 -0.3501,7.4443 h -0.01 c -2e-4,0.1049 0,0.21 0.01,0.3149 0,0.1049 -0.01,0.21 -0.01,0.315 h 0.01 c 0.02,2.0215 0.1349,8.5342 0.3443,10.4458 0.2094,1.9116 0.5131,3.7226 0.9141,5.3379 0.2021,0.8143 0.392,1.3781 0.6621,1.8574 0.2701,0.4793 0.621,0.8732 1.144,1.3462 0.5858,0.5298 0.9459,0.8208 1.3184,0.9609 0.3724,0.1402 0.7571,0.1297 1.3901,0.059 0.4732,-0.053 1.0269,-0.2225 1.6685,-0.5112 0.6415,-0.2888 1.3712,-0.6967 2.1987,-1.229 2.8938,-1.8617 4.3395,-2.7922 5.2324,-3.2446 0.4464,-0.2263 0.7538,-0.3325 1.0357,-0.3765 0.2818,-0.044 0.5377,-0.026 0.8788,0 0.5773,0.042 0.9204,0.1024 1.191,0.2959 0.2706,0.1935 0.4689,0.5198 0.7573,1.0971 0.1692,0.3389 0.2863,0.6778 0.3823,1.1368 l -0.3322,11.2574 z"
         id="path2507" />
      <rect
         rx="4.0446839"
         ry="2.0164082"
         transform="matrix(0.9999721,0.00747001,0.02696542,-0.99963637,0,0)"
         y="-2607.5037"
         x="-2910.938"
         height="4.0328164"
         width="46.330078"
         id="rect2509"
         style="opacity:1;fill:#ffffff;fill-opacity:1;stroke:none;stroke-width:2.33531046;stroke-miterlimit:4;stroke-dasharray:none;stroke-opacity:1" />
      <rect
         style="opacity:1;fill:#ffffff;fill-opacity:1;stroke:none;stroke-width:2.71123862;stroke-miterlimit:4;stroke-dasharray:none;stroke-opacity:1"
         id="rect2511"
         width="26.248585"
         height="3.9411135"
         x="-3069.9329"
         y="-2577.6475"
         transform="matrix(0.9999967,-0.00256827,-0.0230192,-0.99973502,0,0)"
         ry="1.9705567"
         rx="2.2686081" />
      <text
         xml:space="preserve"
         style="font-style:normal;font-variant:normal;font-weight:normal;font-stretch:normal;font-size:37.55853653px;line-height:1.25;font-family:'Bebas Neue';-inkscape-font-specification:'Bebas Neue';text-align:center;letter-spacing:0px;word-spacing:0px;text-anchor:middle;fill:#ffffff;fill-opacity:1;stroke:none;stroke-width:2.01206446"
         x="-3069.1172"
         y="-2546.541"
         id="text2515"
         transform="scale(1,-1)"><tspan
           sodipodi:role="line"
           id="tspan2513"
           x="-3069.1172"
           y="-2546.541"
           style="font-style:normal;font-variant:normal;font-weight:normal;font-stretch:normal;font-family:PAGRevolucionW00-Regular;-inkscape-font-specification:PAGRevolucionW00-Regular;fill:#ffffff;stroke-width:2.01206446">segment  text</tspan></text>
      <text
         transform="scale(1,-1)"
         id="text2519"
         y="-2483.541"
         x="-3011.3855"
         style="font-style:normal;font-variant:normal;font-weight:normal;font-stretch:normal;font-size:37.55853653px;line-height:1.25;font-family:'Bebas Neue';-inkscape-font-specification:'Bebas Neue';text-align:center;letter-spacing:0px;word-spacing:0px;text-anchor:middle;fill:#ffffff;fill-opacity:1;stroke:none;stroke-width:2.01206446"
         xml:space="preserve"><tspan
           style="font-style:normal;font-variant:normal;font-weight:normal;font-stretch:normal;font-family:PAGRevolucionW00-Regular;-inkscape-font-specification:PAGRevolucionW00-Regular;fill:#ffffff;stroke-width:2.01206446"
           y="-2483.541"
           x="-3011.3855"
           id="tspan2517"
           sodipodi:role="line">start</tspan></text>
      <text
         xml:space="preserve"
         style="font-style:normal;font-variant:normal;font-weight:normal;font-stretch:normal;font-size:37.55853653px;line-height:1.25;font-family:'Bebas Neue';-inkscape-font-specification:'Bebas Neue';text-align:center;letter-spacing:0px;word-spacing:0px;text-anchor:middle;fill:#ffffff;fill-opacity:1;stroke:none;stroke-width:2.01206446"
         x="-3019.311"
         y="-2422.041"
         id="text2566"
         transform="scale(1,-1)"><tspan
           sodipodi:role="line"
           id="tspan2564"
           x="-3019.311"
           y="-2422.041"
           style="font-style:normal;font-variant:normal;font-weight:normal;font-stretch:normal;font-family:PAGRevolucionW00-Regular;-inkscape-font-specification:PAGRevolucionW00-Regular;fill:#ffffff;stroke-width:2.01206446">length</tspan></text>
    </g>
  </g>
</svg>
