<?xml version="1.0" encoding="UTF-8" standalone="no"?>
<!-- Created with Inkscape (http://www.inkscape.org/) -->

<svg
   xmlns:dc="http://purl.org/dc/elements/1.1/"
   xmlns:cc="http://creativecommons.org/ns#"
   xmlns:rdf="http://www.w3.org/1999/02/22-rdf-syntax-ns#"
   xmlns:svg="http://www.w3.org/2000/svg"
   xmlns="http://www.w3.org/2000/svg"
   xmlns:sodipodi="http://sodipodi.sourceforge.net/DTD/sodipodi-0.dtd"
   xmlns:inkscape="http://www.inkscape.org/namespaces/inkscape"
   width="322.48697mm"
   height="79.419601mm"
   viewBox="0 0 322.48697 79.419603"
   version="1.1"
   id="svg2283"
   inkscape:version="0.92.3 (2405546, 2018-03-11)"
   sodipodi:docname="text_split_at_first_of_any.svg">
  <defs
     id="defs2277" />
  <sodipodi:namedview
     id="base"
     pagecolor="#ffffff"
     bordercolor="#666666"
     borderopacity="1.0"
     inkscape:pageopacity="0.0"
     inkscape:pageshadow="2"
     inkscape:zoom="0.35"
     inkscape:cx="510.78379"
     inkscape:cy="827.67983"
     inkscape:document-units="mm"
     inkscape:current-layer="layer1"
     showgrid="false"
     fit-margin-top="0"
     fit-margin-left="0"
     fit-margin-right="0"
     fit-margin-bottom="0"
     inkscape:window-width="1920"
     inkscape:window-height="1001"
     inkscape:window-x="0"
     inkscape:window-y="0"
     inkscape:window-maximized="1" />
  <metadata
     id="metadata2280">
    <rdf:RDF>
      <cc:Work
         rdf:about="">
        <dc:format>image/svg+xml</dc:format>
        <dc:type
           rdf:resource="http://purl.org/dc/dcmitype/StillImage" />
        <dc:title></dc:title>
      </cc:Work>
    </rdf:RDF>
  </metadata>
  <g
     inkscape:label="Layer 1"
     inkscape:groupmode="layer"
     id="layer1"
     transform="translate(410.31155,-348.88017)">
    <g
       id="g846">
      <path
         sodipodi:nodetypes="ccccscccccccccccccccccccccccccccccccccccsccsccccccccccccccccccccccccccccccccccsccccccccccsccccc"
         inkscape:connector-curvature="0"
         style="fill:#bd295d;fill-opacity:1;stroke:#97234b;stroke-width:3.37654328;stroke-miterlimit:4;stroke-dasharray:none;stroke-opacity:1"
         d="m -104.60008,350.57915 -291.86476,0.1878 -0.0504,5.30496 c -0.0454,4.8265 -0.0862,5.3772 -0.45214,6.11353 -0.35742,0.71927 -0.49221,0.81628 -1.21048,0.86961 -0.84901,0.063 -0.8459,0.0648 -4.45184,-2.24506 -1.03115,-0.66053 -1.81918,-1.01341 -2.40821,-1.07832 -0.78791,-0.0869 -0.95667,-0.0224 -1.68446,0.63807 -0.64983,0.5899 -0.8698,0.98224 -1.11933,1.99621 -0.49501,2.01115 -0.74908,4.50635 -0.76936,7.02228 h -0.006 c 2.4e-4,0.0653 0.006,0.13067 0.006,0.19601 -3.1e-4,0.0653 -0.006,0.12968 0,0.19502 h 0.006 c 0.033,2.5158 0.29918,5.01001 0.8039,7.01867 0.25457,1.01273 0.47678,1.404 1.1294,1.9908 0.73104,0.65717 0.89942,0.72089 1.6872,0.62985 0.58872,-0.0678 1.37489,-0.42469 2.40274,-1.0902 3.59467,-2.32738 3.59169,-2.32583 4.44095,-2.26696 0.71846,0.0498 0.85405,0.14573 1.21503,0.8632 0.3695,0.73458 0.41237,1.28553 0.48125,6.11172 l 0.0757,43.57407 291.86663,-0.18774 14.877762,-0.0367 0.01618,-11.18433 c -0.02738,-0.0751 -0.04418,-0.16309 -0.0784,-0.23241 -0.179772,-0.35911 -0.303726,-0.5634 -0.472172,-0.68362 -0.168508,-0.12028 -0.381819,-0.15675 -0.741051,-0.18232 -0.212253,-0.0149 -0.370618,-0.0261 -0.546033,0 -0.175354,0.0274 -0.367694,0.0942 -0.645347,0.23515 -0.555306,0.28207 -1.454473,0.86158 -3.254052,2.02173 -0.514609,0.33179 -0.968238,0.58654 -1.367293,0.76662 -0.399056,0.18002 -0.742918,0.28568 -1.037309,0.31903 -0.393829,0.0448 -0.633213,0.0504 -0.865005,-0.0367 -0.231855,-0.0871 -0.456429,-0.26776 -0.821322,-0.59706 -0.325754,-0.29402 -0.543483,-0.53869 -0.711858,-0.83675 -0.16833,-0.29813 -0.28662,-0.64921 -0.41294,-1.15585 -0.2504,-1.00483 -0.44099,-2.13131 -0.57242,-3.32064 -0.13148,-1.18926 -0.20403,-2.441 -0.21785,-3.6989 h -0.006 c -1.9e-4,-0.0653 0,-0.13068 0,-0.19601 0,-0.0653 -0.006,-0.13062 -0.006,-0.19595 h 0.006 c 0.0124,-1.25797 0.0839,-2.51033 0.21418,-3.69984 0.1303,-1.18952 0.31935,-2.31649 0.56881,-3.32157 0.12576,-0.50671 0.24399,-0.85754 0.412,-1.15579 0.168067,-0.29825 0.386419,-0.54335 0.711923,-0.83768 0.364459,-0.32968 0.588597,-0.51076 0.820327,-0.59793 0.23173,-0.0872 0.471176,-0.0807 0.865067,-0.0367 0.294392,0.033 0.639,0.13839 1.03818,0.3181 0.399243,0.17971 0.853244,0.43353 1.368165,0.76476 1.800699,1.15846 2.700364,1.73748 3.25598,2.01899 0.277778,0.14075 0.468936,0.20684 0.644414,0.23428 0.175415,0.0274 0.334652,0.0156 0.546905,0 0.359231,-0.0261 0.572729,-0.0637 0.741051,-0.18413 0.168383,-0.1204 0.29184,-0.32345 0.4713,-0.68274 0.04854,-0.0967 0.0728,-0.22047 0.109393,-0.32451 l 0.01556,-10.89349 0.01244,-8.48714 0.0062,-3.21217 c -0.05663,-0.22843 -0.115492,-0.4298 -0.206964,-0.61249 -0.179771,-0.35911 -0.303664,-0.5634 -0.472172,-0.68368 -0.168446,-0.12022 -0.381819,-0.15669 -0.74105,-0.18226 -0.212316,-0.0149 -0.370619,-0.0268 -0.545972,0 -0.175415,0.0274 -0.367756,0.0941 -0.645347,0.23515 -0.555368,0.28207 -1.454535,0.86158 -3.254113,2.02173 -0.51461,0.33179 -0.968301,0.58654 -1.367294,0.76656 -0.399056,0.18008 -0.742918,0.28574 -1.037309,0.31903 -0.393829,0.0448 -0.633213,0.0504 -0.865005,-0.0367 -0.231855,-0.0871 -0.456429,-0.2677 -0.82126,-0.597 -0.325816,-0.29402 -0.543609,-0.53869 -0.711929,-0.83681 -0.16832,-0.29807 -0.28661,-0.64915 -0.41293,-1.15579 -0.25046,-1.00483 -0.441,-2.13137 -0.57242,-3.32063 -0.13148,-1.18927 -0.20404,-2.44101 -0.21785,-3.69891 h -0.006 c -1.2e-4,-0.0653 0,-0.13067 0.006,-0.19601 0,-0.0653 -0.006,-0.13068 -0.006,-0.19595 h 0.006 c 0.0124,-1.25796 0.0839,-2.51033 0.21424,-3.69984 0.1303,-1.18952 0.31928,-2.31649 0.56881,-3.32157 0.12576,-0.5067 0.24392,-0.85754 0.412,-1.15579 0.16807,-0.29831 0.386423,-0.54335 0.711865,-0.83768 0.364521,-0.32968 0.588597,-0.51075 0.820389,-0.598 0.23173,-0.0872 0.471114,-0.0806 0.865005,-0.0367 0.294454,0.033 0.639,0.13845 1.038242,0.31816 0.39918,0.17965 0.853244,0.43347 1.368165,0.76476 1.800699,1.15846 2.700301,1.73748 3.255918,2.01899 0.277778,0.14075 0.469061,0.20684 0.644476,0.23428 0.175353,0.0274 0.33459,0.0162 0.546843,0 0.359231,-0.0261 0.572729,-0.0637 0.741113,-0.18413 0.168383,-0.1204 0.291778,-0.32345 0.471238,-0.68274 0.105286,-0.21082 0.178153,-0.42177 0.23789,-0.70732 l 0.01556,-10.50887 -15.080124,-0.16496 z"
         id="path2134" />
      <path
         id="path2136"
         d="m -394.69532,352.41936 c 45.87918,34.16051 264.80855,68.53059 289.03267,72.17368 l 14.877763,0.0597 0.238512,-7.58418 c -0.02738,-0.0752 -0.04418,-0.16316 -0.0784,-0.23248 -0.179772,-0.3591 -0.303726,-0.56333 -0.472172,-0.68361 -0.168508,-0.12029 -0.381819,-0.15669 -0.741051,-0.18233 -0.212315,-0.0149 -0.370618,-0.0261 -0.546033,0 -0.175354,0.0274 -0.367694,0.0941 -0.645347,0.23522 -0.555306,0.28207 -1.454473,0.86158 -3.254052,2.02173 -0.514609,0.33172 -0.968238,0.58648 -1.367293,0.76656 -0.399056,0.18008 -0.742918,0.28574 -1.037309,0.31903 -0.393892,0.0448 -0.633213,0.0504 -0.865068,-0.0367 -0.231854,-0.0871 -0.45643,-0.2677 -0.82126,-0.597 -0.32576,-0.29402 -0.54349,-0.53869 -0.71187,-0.83682 -0.16832,-0.29806 -0.28661,-0.6492 -0.41293,-1.15578 -0.2504,-1.00483 -0.441,-2.13137 -0.57242,-3.32064 -0.13148,-1.18932 -0.20404,-2.441 -0.21785,-3.69896 h -0.006 c -1.8e-4,-0.0653 0,-0.13062 0,-0.19595 0,-0.0653 -0.006,-0.13068 -0.006,-0.19595 h 0.006 c 0.0125,-1.25797 0.0839,-6.24396 0.21419,-7.43341 0.1303,-1.18951 0.31934,-2.31649 0.5688,-3.32156 0.12576,-0.50677 0.24393,-0.85754 0.412,-1.15585 0.16808,-0.29825 0.38643,-0.54336 0.71193,-0.83769 0.36446,-0.32961 0.588603,-0.51075 0.820333,-0.59793 0.23173,-0.0872 0.471114,-0.0806 0.865005,-0.0367 0.294454,0.033 0.638999,0.13846 1.038242,0.3181 0.399243,0.17971 0.853244,0.43353 1.368165,0.76482 1.800699,1.15841 2.700364,1.73748 3.255918,2.01899 0.277777,0.14076 0.468998,0.20684 0.644476,0.23422 0.175415,0.0274 0.334652,0.0156 0.546905,0 0.359169,-0.0261 0.572729,-0.0637 0.741051,-0.18413 0.168383,-0.1204 0.29184,-0.32338 0.471238,-0.68268 0.04854,-0.0968 0.07287,-0.22053 0.109393,-0.32451 l 0.01556,-9.96015 0.01244,-5.68691 0.0062,-3.21217 c -0.05663,-0.2285 -0.11543,-0.42986 -0.206902,-0.61256 -0.179771,-0.3591 -0.303664,-0.56339 -0.472172,-0.68361 -0.168446,-0.12028 -0.381819,-0.15669 -0.74105,-0.18232 -0.212316,-0.0149 -0.370619,-0.0268 -0.545972,0 -0.175415,0.0274 -0.367756,0.0941 -0.645347,0.23515 -0.555368,0.28207 -1.454535,0.86158 -3.254176,2.02179 -0.514547,0.33172 -0.968238,0.58648 -1.367231,0.76656 -0.399056,0.18008 -0.742918,0.28568 -1.037309,0.31903 -0.393829,0.0448 -0.633213,0.0504 -0.865005,-0.0367 -0.231855,-0.0871 -0.456432,-0.26776 -0.821322,-0.59706 -0.32575,-0.29402 -0.54354,-0.53863 -0.71187,-0.83675 -0.16832,-0.29813 -0.28667,-0.64921 -0.41293,-1.15579 -0.25046,-1.00489 -0.44099,-2.13137 -0.57242,-3.3207 -0.13148,-1.18926 -0.20404,-3.37433 -0.21785,-4.63229 h -0.006 c -1.3e-4,-0.0653 0,-0.13068 0.006,-0.19595 0,-0.0653 -0.006,-0.13068 -0.006,-0.19602 h 0.006 c 0.0125,-1.2579 0.0839,-5.3105 0.21424,-6.50001 0.13031,-1.18951 0.31929,-2.31643 0.56881,-3.32157 0.12576,-0.5067 0.24393,-0.85753 0.412,-1.15578 0.16808,-0.29825 0.38643,-0.54336 0.71187,-0.83769 0.36452,-0.32968 0.588595,-0.51075 0.820387,-0.59793 0.23173,-0.0872 0.471114,-0.0807 0.865005,-0.0367 0.294454,0.033 0.638999,0.13846 1.038242,0.3181 0.39918,0.17971 0.853244,0.43353 1.368165,0.76476 1.800699,1.15847 2.700301,1.73748 3.255918,2.01899 0.277777,0.14082 0.469061,0.2069 0.644476,0.23428 0.175353,0.0274 0.33459,0.0162 0.546843,0 0.359231,-0.0261 0.572729,-0.0637 0.741113,-0.18412 0.168383,-0.12041 0.291778,-0.32346 0.471238,-0.68269 0.105286,-0.21088 0.178153,-0.42177 0.23789,-0.70738 l -0.206715,-7.00504 z"
         style="fill:#d36a8b;fill-opacity:1;stroke:none;stroke-width:3.37654328;stroke-miterlimit:4;stroke-dasharray:none;stroke-opacity:1"
         inkscape:connector-curvature="0"
         sodipodi:nodetypes="ccccccccccscccccccccccscccccccccccccccccsccccscccccccccccscccccsccccccccc" />
      <rect
         style="opacity:1;fill:#ffffff;fill-opacity:1;stroke:none;stroke-width:1.45317245;stroke-miterlimit:4;stroke-dasharray:none;stroke-opacity:1"
         id="rect2138"
         width="28.829397"
         height="2.509464"
         x="-129.9698"
         y="352.68811"
         transform="matrix(0.9999721,-0.00747002,0.02696542,0.99963637,0,0)"
         ry="1.254732"
         rx="2.5168488" />
      <rect
         rx="1.4116662"
         ry="1.2262005"
         transform="matrix(0.9999967,0.00256826,-0.0230192,0.99973502,0,0)"
         y="353.92093"
         x="-130.62416"
         height="2.4524009"
         width="16.333469"
         id="rect2140"
         style="opacity:1;fill:#ffffff;fill-opacity:1;stroke:none;stroke-width:1.68709779;stroke-miterlimit:4;stroke-dasharray:none;stroke-opacity:1" />
      <text
         id="text2144"
         y="377.34418"
         x="-134.79666"
         style="font-style:normal;font-variant:normal;font-weight:normal;font-stretch:normal;font-size:23.3712101px;line-height:1.25;font-family:'Bebas Neue';-inkscape-font-specification:'Bebas Neue';text-align:center;letter-spacing:0px;word-spacing:0px;text-anchor:middle;fill:#ffffff;fill-opacity:1;stroke:none;stroke-width:1.25202906"
         xml:space="preserve"><tspan
           style="font-style:normal;font-variant:normal;font-weight:normal;font-stretch:normal;font-family:Digitalt;-inkscape-font-specification:Digitalt;fill:#ffffff;stroke-width:1.25202906"
           y="377.34418"
           x="-134.79666"
           id="tspan2142"
           sodipodi:role="line">text</tspan></text>
      <text
         xml:space="preserve"
         style="font-style:normal;font-variant:normal;font-weight:normal;font-stretch:normal;font-size:23.3712101px;line-height:1.25;font-family:'Bebas Neue';-inkscape-font-specification:'Bebas Neue';text-align:center;letter-spacing:0px;word-spacing:0px;text-anchor:middle;fill:#ffffff;fill-opacity:1;stroke:none;stroke-width:1.25202906"
         x="-151.08589"
         y="416.5466"
         id="text2148"><tspan
           sodipodi:role="line"
           id="tspan2146"
           x="-151.08589"
           y="416.5466"
           style="font-style:normal;font-variant:normal;font-weight:normal;font-stretch:normal;font-family:Digitalt;-inkscape-font-specification:Digitalt;fill:#ffffff;stroke-width:1.25202906">at (list)</tspan></text>
      <rect
         style="opacity:0.5;fill:#e6e6e6;fill-opacity:1;stroke:none;stroke-width:18.64159584;stroke-miterlimit:4;stroke-dasharray:none;stroke-opacity:1"
         id="rect2150"
         width="221.34088"
         height="24.769279"
         x="-382.26398"
         y="356.77963"
         rx="6.8099456"
         ry="5.448987" />
      <text
         xml:space="preserve"
         style="font-style:normal;font-variant:normal;font-weight:normal;font-stretch:normal;font-size:23.3712101px;line-height:1.25;font-family:'Bebas Neue';-inkscape-font-specification:'Bebas Neue';text-align:center;letter-spacing:0px;word-spacing:0px;text-anchor:middle;fill:#000000;fill-opacity:1;stroke:none;stroke-width:1.25202906"
         x="-272.10422"
         y="377.34418"
         id="text2154"><tspan
           sodipodi:role="line"
           id="tspan2152"
           x="-272.10422"
           y="377.34418"
           style="font-style:normal;font-variant:normal;font-weight:normal;font-stretch:normal;font-family:Digitalt;-inkscape-font-specification:Digitalt;fill:#000000;stroke-width:1.25202906">split at first of any</tspan></text>
    </g>
  </g>
</svg>
