<?xml version="1.0" encoding="UTF-8" standalone="no"?>
<!-- Created with Inkscape (http://www.inkscape.org/) -->

<svg
   xmlns:dc="http://purl.org/dc/elements/1.1/"
   xmlns:cc="http://creativecommons.org/ns#"
   xmlns:rdf="http://www.w3.org/1999/02/22-rdf-syntax-ns#"
   xmlns:svg="http://www.w3.org/2000/svg"
   xmlns="http://www.w3.org/2000/svg"
   xmlns:sodipodi="http://sodipodi.sourceforge.net/DTD/sodipodi-0.dtd"
   xmlns:inkscape="http://www.inkscape.org/namespaces/inkscape"
   width="187.91003mm"
   height="79.420692mm"
   viewBox="0 0 187.91004 79.420694"
   version="1.1"
   id="svg2283"
   inkscape:version="0.92.3 (2405546, 2018-03-11)"
   sodipodi:docname="text_contains.svg">
  <defs
     id="defs2277" />
  <sodipodi:namedview
     id="base"
     pagecolor="#ffffff"
     bordercolor="#666666"
     borderopacity="1.0"
     inkscape:pageopacity="0.0"
     inkscape:pageshadow="2"
     inkscape:zoom="0.35"
     inkscape:cx="48.40167"
     inkscape:cy="1035.9077"
     inkscape:document-units="mm"
     inkscape:current-layer="layer1"
     showgrid="false"
     fit-margin-top="0"
     fit-margin-left="0"
     fit-margin-right="0"
     fit-margin-bottom="0"
     inkscape:window-width="1920"
     inkscape:window-height="1001"
     inkscape:window-x="0"
     inkscape:window-y="0"
     inkscape:window-maximized="1" />
  <metadata
     id="metadata2280">
    <rdf:RDF>
      <cc:Work
         rdf:about="">
        <dc:format>image/svg+xml</dc:format>
        <dc:type
           rdf:resource="http://purl.org/dc/dcmitype/StillImage" />
        <dc:title />
      </cc:Work>
    </rdf:RDF>
  </metadata>
  <g
     inkscape:label="Layer 1"
     inkscape:groupmode="layer"
     id="layer1"
     transform="translate(287.97293,-343.49653)">
    <g
       id="g837">
      <path
         sodipodi:nodetypes="ccccscccccccccccccccccccccccccccccccccccsccsccccccccccccccccccccccccccccccccccsccccccccccsccccc"
         inkscape:connector-curvature="0"
         style="fill:#bd295d;fill-opacity:1;stroke:#97234b;stroke-width:3.37654328;stroke-miterlimit:4;stroke-dasharray:none;stroke-opacity:1"
         d="m -116.83838,345.19567 -157.28739,0.1878 -0.0504,5.30496 c -0.0454,4.82651 -0.0862,5.37721 -0.45213,6.11353 -0.35743,0.71927 -0.49221,0.81628 -1.21049,0.86961 -0.84901,0.063 -0.8459,0.0648 -4.45184,-2.24506 -1.03115,-0.66053 -1.81918,-1.01341 -2.40821,-1.07831 -0.78791,-0.0869 -0.95666,-0.0224 -1.68446,0.63806 -0.64983,0.58991 -0.8698,0.98224 -1.11932,1.99622 -0.49501,2.01114 -0.74908,4.50635 -0.76937,7.02227 h -0.006 c 2.5e-4,0.0653 0.006,0.13068 0.006,0.19602 -3.1e-4,0.0653 -0.006,0.12968 0,0.19501 h 0.006 c 0.033,2.5158 0.29918,5.01001 0.80389,7.01867 0.25457,1.01273 0.47678,1.40401 1.12941,1.9908 0.73103,0.65717 0.89941,0.72089 1.6872,0.62985 0.58872,-0.0678 1.37488,-0.42469 2.40273,-1.0902 3.59468,-2.32738 3.59169,-2.32582 4.44095,-2.26696 0.71847,0.0498 0.85406,0.14574 1.21503,0.8632 0.3695,0.73458 0.41237,1.28553 0.48126,6.11172 l 0.0757,43.57407 157.28927,-0.18773 14.87776,-0.0367 0.0162,-11.18434 c -0.0274,-0.0751 -0.0442,-0.16309 -0.0784,-0.23241 -0.17978,-0.35911 -0.30373,-0.5634 -0.47218,-0.68362 -0.1685,-0.12028 -0.38182,-0.15674 -0.74105,-0.18232 -0.21225,-0.0149 -0.37062,-0.0261 -0.54603,0 -0.17535,0.0274 -0.36769,0.0941 -0.64535,0.23515 -0.5553,0.28207 -1.45447,0.86159 -3.25405,2.02173 -0.51461,0.33179 -0.96824,0.58654 -1.36729,0.76662 -0.39906,0.18003 -0.74292,0.28568 -1.03731,0.31904 -0.39383,0.0448 -0.63321,0.0504 -0.86501,-0.0367 -0.23185,-0.0871 -0.45642,-0.26775 -0.82132,-0.59705 -0.32575,-0.29402 -0.54348,-0.5387 -0.71186,-0.83676 -0.16833,-0.29812 -0.28662,-0.6492 -0.41294,-1.15585 -0.2504,-1.00483 -0.44099,-2.1313 -0.57242,-3.32063 -0.13148,-1.18927 -0.20403,-2.44101 -0.21785,-3.69891 h -0.006 c -1.9e-4,-0.0653 0,-0.13067 0,-0.19601 0,-0.0653 -0.006,-0.13061 -0.006,-0.19595 h 0.006 c 0.0124,-1.25796 0.0839,-2.51032 0.21418,-3.69984 0.1303,-1.18951 0.31935,-2.31649 0.56881,-3.32156 0.12576,-0.50671 0.24399,-0.85754 0.412,-1.15579 0.16807,-0.29825 0.38642,-0.54336 0.71193,-0.83769 0.36446,-0.32967 0.58859,-0.51075 0.82032,-0.59793 0.23173,-0.0872 0.47118,-0.0807 0.86507,-0.0367 0.29439,0.033 0.639,0.13839 1.03818,0.3181 0.39924,0.1797 0.85325,0.43353 1.36817,0.76475 1.80069,1.15847 2.70036,1.73748 3.25598,2.01899 0.27777,0.14076 0.46893,0.20684 0.64441,0.23428 0.17542,0.0274 0.33465,0.0156 0.5469,0 0.35924,-0.0261 0.57273,-0.0637 0.74106,-0.18412 0.16838,-0.12041 0.29184,-0.32345 0.4713,-0.68275 0.0485,-0.0967 0.0728,-0.22047 0.10939,-0.32451 l 0.0156,-10.89348 0.0124,-8.48714 0.006,-3.21218 c -0.0566,-0.22843 -0.11549,-0.42979 -0.20696,-0.61249 -0.17977,-0.35911 -0.30366,-0.56339 -0.47217,-0.68368 -0.16845,-0.12022 -0.38182,-0.15668 -0.74105,-0.18226 -0.21232,-0.0149 -0.37062,-0.0267 -0.54597,0 -0.17542,0.0274 -0.36776,0.0941 -0.64535,0.23515 -0.55537,0.28208 -1.45454,0.86159 -3.25411,2.02173 -0.51461,0.33179 -0.9683,0.58654 -1.3673,0.76656 -0.39905,0.18009 -0.74292,0.28575 -1.03731,0.31904 -0.39383,0.0448 -0.63321,0.0504 -0.865,-0.0367 -0.23186,-0.087 -0.45643,-0.26769 -0.82126,-0.59699 -0.32582,-0.29402 -0.54361,-0.53869 -0.71193,-0.83682 -0.16832,-0.29806 -0.28661,-0.64914 -0.41293,-1.15579 -0.25046,-1.00482 -0.441,-2.13137 -0.57242,-3.32063 -0.13148,-1.18927 -0.20404,-2.44101 -0.21785,-3.69891 h -0.006 c -1.2e-4,-0.0653 0,-0.13067 0.006,-0.19601 0,-0.0653 -0.006,-0.13067 -0.006,-0.19595 h 0.006 c 0.0124,-1.25796 0.0839,-2.51032 0.21424,-3.69984 0.1303,-1.18951 0.31928,-2.31649 0.56881,-3.32156 0.12576,-0.50671 0.24392,-0.85754 0.412,-1.15579 0.16807,-0.29831 0.38642,-0.54336 0.71186,-0.83769 0.36452,-0.32967 0.5886,-0.51075 0.82039,-0.59799 0.23173,-0.0872 0.47112,-0.0806 0.86501,-0.0367 0.29445,0.033 0.639,0.13846 1.03824,0.31817 0.39918,0.17964 0.85324,0.43346 1.36817,0.76476 1.80069,1.15846 2.7003,1.73747 3.25591,2.01898 0.27778,0.14076 0.46906,0.20684 0.64448,0.23428 0.17535,0.0274 0.33459,0.0162 0.54684,0 0.35923,-0.0261 0.57273,-0.0637 0.74111,-0.18412 0.16839,-0.12041 0.29178,-0.32345 0.47124,-0.68275 0.10529,-0.21082 0.17816,-0.42177 0.23789,-0.70732 l 0.0156,-10.50887 -15.08012,-0.16496 z"
         id="path1982" />
      <path
         id="path1984"
         d="m -272.45339,347.00384 c 45.87918,34.16051 130.32832,68.56264 154.55244,72.20572 l 14.87776,0.0597 0.23852,-7.58418 c -0.0274,-0.0752 -0.0442,-0.16315 -0.0784,-0.23247 -0.17977,-0.35911 -0.30372,-0.56334 -0.47217,-0.68362 -0.16851,-0.12028 -0.38182,-0.15668 -0.74105,-0.18232 -0.21232,-0.0149 -0.37062,-0.0261 -0.54604,0 -0.17535,0.0274 -0.36769,0.0942 -0.64534,0.23521 -0.55531,0.28207 -1.45447,0.86159 -3.25405,2.02173 -0.51461,0.33173 -0.96824,0.58648 -1.3673,0.76656 -0.39905,0.18008 -0.74291,0.28574 -1.03731,0.31904 -0.39389,0.0448 -0.63321,0.0504 -0.86506,-0.0367 -0.23186,-0.0871 -0.45643,-0.26769 -0.82126,-0.597 -0.32576,-0.29401 -0.54349,-0.53869 -0.71187,-0.83681 -0.16832,-0.29806 -0.28661,-0.64921 -0.41293,-1.15579 -0.2504,-1.00483 -0.441,-2.13137 -0.57242,-3.32063 -0.13148,-1.18933 -0.20404,-2.44101 -0.21785,-3.69897 h -0.006 c -1.8e-4,-0.0653 0,-0.13061 0,-0.19595 0,-0.0653 -0.006,-0.13067 -0.006,-0.19595 h 0.006 c 0.0124,-1.25796 0.0839,-6.24395 0.21419,-7.4334 0.1303,-1.18952 0.31934,-2.3165 0.5688,-3.32157 0.12576,-0.50677 0.24393,-0.85754 0.412,-1.15585 0.16808,-0.29825 0.38643,-0.54336 0.71193,-0.83769 0.36446,-0.32961 0.5886,-0.51075 0.82033,-0.59793 0.23173,-0.0872 0.47111,-0.0806 0.865,-0.0367 0.29446,0.033 0.639,0.13845 1.03825,0.3181 0.39924,0.17971 0.85324,0.43353 1.36816,0.76482 1.8007,1.1584 2.70036,1.73748 3.25592,2.01899 0.27778,0.14075 0.469,0.20684 0.64447,0.23422 0.17542,0.0274 0.33466,0.0156 0.54691,0 0.35917,-0.0261 0.57273,-0.0637 0.74105,-0.18413 0.16838,-0.12041 0.29184,-0.32339 0.47124,-0.68268 0.0485,-0.0968 0.0729,-0.22053 0.10939,-0.32451 l 0.0156,-9.96016 0.0124,-5.68691 0.006,-3.21217 c -0.0566,-0.22849 -0.11543,-0.42986 -0.20691,-0.61255 -0.17977,-0.35911 -0.30366,-0.5634 -0.47217,-0.68362 -0.16844,-0.12028 -0.38182,-0.15668 -0.74105,-0.18232 -0.21231,-0.0149 -0.37062,-0.0268 -0.54597,0 -0.17541,0.0274 -0.36776,0.0942 -0.64535,0.23515 -0.55536,0.28207 -1.45453,0.86158 -3.25417,2.02179 -0.51455,0.33173 -0.96824,0.58648 -1.36723,0.76656 -0.39906,0.18009 -0.74292,0.28568 -1.03731,0.31904 -0.39383,0.0448 -0.63321,0.0504 -0.86501,-0.0367 -0.23185,-0.0871 -0.45643,-0.26776 -0.82132,-0.59706 -0.32575,-0.29401 -0.54354,-0.53863 -0.71187,-0.83675 -0.16832,-0.29813 -0.28667,-0.64921 -0.41293,-1.15579 -0.25046,-1.00489 -0.44099,-2.13137 -0.57242,-3.32069 -0.13148,-1.18927 -0.20404,-3.37434 -0.21785,-4.6323 h -0.006 c -1.3e-4,-0.0653 0,-0.13068 0.006,-0.19595 0,-0.0653 -0.006,-0.13068 -0.006,-0.19601 h 0.006 c 0.0125,-1.2579 0.0839,-5.3105 0.21424,-6.50002 0.13031,-1.18951 0.31929,-2.31642 0.56881,-3.32156 0.12576,-0.50671 0.24393,-0.85754 0.412,-1.15579 0.16808,-0.29825 0.38643,-0.54336 0.71187,-0.83769 0.36452,-0.32967 0.5886,-0.51075 0.82039,-0.59793 0.23173,-0.0872 0.47111,-0.0807 0.865,-0.0367 0.29446,0.033 0.639,0.13845 1.03825,0.3181 0.39918,0.17971 0.85324,0.43353 1.36816,0.76476 1.8007,1.15846 2.7003,1.73747 3.25592,2.01899 0.27778,0.14081 0.46906,0.2069 0.64447,0.23428 0.17536,0.0274 0.33459,0.0162 0.54685,0 0.35923,-0.0261 0.57273,-0.0637 0.74111,-0.18413 0.16838,-0.12041 0.29178,-0.32345 0.47124,-0.68268 0.10528,-0.21089 0.17815,-0.42177 0.23789,-0.70739 l -0.20672,-7.00504 z"
         style="fill:#d36a8b;fill-opacity:1;stroke:none;stroke-width:3.37654328;stroke-miterlimit:4;stroke-dasharray:none;stroke-opacity:1"
         inkscape:connector-curvature="0"
         sodipodi:nodetypes="ccccccccccscccccccccccscccccccccccccccccsccccscccccccccccscccccsccccccccc" />
      <rect
         style="opacity:1;fill:#ffffff;fill-opacity:1;stroke:none;stroke-width:1.45317245;stroke-miterlimit:4;stroke-dasharray:none;stroke-opacity:1"
         id="rect1986"
         width="28.829397"
         height="2.509464"
         x="-142.04413"
         y="347.21216"
         transform="matrix(0.9999721,-0.00747002,0.02696542,0.99963637,0,0)"
         ry="1.254732"
         rx="2.5168488" />
      <rect
         rx="1.4116662"
         ry="1.2262005"
         transform="matrix(0.9999967,0.00256826,-0.0230192,0.99973502,0,0)"
         y="348.58286"
         x="-142.95961"
         height="2.4524009"
         width="16.333469"
         id="rect1988"
         style="opacity:1;fill:#ffffff;fill-opacity:1;stroke:none;stroke-width:1.68709779;stroke-miterlimit:4;stroke-dasharray:none;stroke-opacity:1" />
      <text
         id="text1992"
         y="371.96069"
         x="-191.97432"
         style="font-style:normal;font-variant:normal;font-weight:normal;font-stretch:normal;font-size:23.3712101px;line-height:1.25;font-family:'Bebas Neue';-inkscape-font-specification:'Bebas Neue';text-align:center;letter-spacing:0px;word-spacing:0px;text-anchor:middle;fill:#ffffff;fill-opacity:1;stroke:none;stroke-width:1.25202906"
         xml:space="preserve"><tspan
           style="font-style:normal;font-variant:normal;font-weight:normal;font-stretch:normal;font-family:Digitalt;-inkscape-font-specification:Digitalt;fill:#ffffff;stroke-width:1.25202906"
           y="371.96069"
           x="-191.97432"
           id="tspan1990"
           sodipodi:role="line">contains  text</tspan></text>
      <text
         xml:space="preserve"
         style="font-style:normal;font-variant:normal;font-weight:normal;font-stretch:normal;font-size:23.3712101px;line-height:1.25;font-family:'Bebas Neue';-inkscape-font-specification:'Bebas Neue';text-align:center;letter-spacing:0px;word-spacing:0px;text-anchor:middle;fill:#ffffff;fill-opacity:1;stroke:none;stroke-width:1.25202906"
         x="-144.0679"
         y="411.16312"
         id="text1996"><tspan
           sodipodi:role="line"
           id="tspan1994"
           x="-144.0679"
           y="411.16312"
           style="font-style:normal;font-variant:normal;font-weight:normal;font-stretch:normal;font-family:Digitalt;-inkscape-font-specification:Digitalt;fill:#ffffff;stroke-width:1.25202906">piece</tspan></text>
    </g>
  </g>
</svg>
