<?xml version="1.0" encoding="UTF-8" standalone="no"?>
<!-- Created with Inkscape (http://www.inkscape.org/) -->

<svg
   xmlns:dc="http://purl.org/dc/elements/1.1/"
   xmlns:cc="http://creativecommons.org/ns#"
   xmlns:rdf="http://www.w3.org/1999/02/22-rdf-syntax-ns#"
   xmlns:svg="http://www.w3.org/2000/svg"
   xmlns="http://www.w3.org/2000/svg"
   xmlns:sodipodi="http://sodipodi.sourceforge.net/DTD/sodipodi-0.dtd"
   xmlns:inkscape="http://www.inkscape.org/namespaces/inkscape"
   width="107.63837mm"
   height="79.42131mm"
   viewBox="0 0 107.63837 79.421311"
   version="1.1"
   id="svg2283"
   inkscape:version="0.92.3 (2405546, 2018-03-11)"
   sodipodi:docname="text_join.svg">
  <defs
     id="defs2277" />
  <sodipodi:namedview
     id="base"
     pagecolor="#ffffff"
     bordercolor="#666666"
     borderopacity="1.0"
     inkscape:pageopacity="0.0"
     inkscape:pageshadow="2"
     inkscape:zoom="0.35"
     inkscape:cx="297.0571"
     inkscape:cy="790.143"
     inkscape:document-units="mm"
     inkscape:current-layer="layer1"
     showgrid="false"
     fit-margin-top="0"
     fit-margin-left="0"
     fit-margin-right="0"
     fit-margin-bottom="0"
     inkscape:window-width="1920"
     inkscape:window-height="1001"
     inkscape:window-x="0"
     inkscape:window-y="0"
     inkscape:window-maximized="1" />
  <metadata
     id="metadata2280">
    <rdf:RDF>
      <cc:Work
         rdf:about="">
        <dc:format>image/svg+xml</dc:format>
        <dc:type
           rdf:resource="http://purl.org/dc/dcmitype/StillImage" />
        <dc:title />
      </cc:Work>
    </rdf:RDF>
  </metadata>
  <g
     inkscape:label="Layer 1"
     inkscape:groupmode="layer"
     id="layer1"
     transform="translate(353.76302,-278.47067)">
    <g
       id="g1730"
       transform="matrix(0.62226092,0,0,-0.62226092,859.56064,1994.0451)"
       inkscape:export-filename="/home/peter/allblocks.png"
       inkscape:export-xdpi="42.094723"
       inkscape:export-ydpi="42.094723">
      <path
         id="path1697"
         d="m -1803.8426,2754.2735 -123.7676,-0.3018 -0.081,-8.5253 c -0.073,-7.7564 -0.1385,-8.6414 -0.7266,-9.8247 -0.5744,-1.1559 -0.791,-1.3118 -1.9453,-1.3975 -1.3644,-0.1013 -1.3594,-0.1041 -7.1543,3.6079 -1.6571,1.0615 -2.9235,1.6286 -3.8701,1.7329 -1.2662,0.1396 -1.5374,0.036 -2.707,-1.0254 -1.0443,-0.948 -1.3978,-1.5785 -1.7988,-3.208 -0.7955,-3.232 -1.2038,-7.2419 -1.2364,-11.2851 h -0.01 c 4e-4,-0.105 0.01,-0.21 0.01,-0.315 -5e-4,-0.105 -0.01,-0.2085 0,-0.3134 h 0.01 c 0.053,-4.043 0.4808,-8.0513 1.2919,-11.2793 0.4091,-1.6275 0.7662,-2.2563 1.815,-3.1992 1.1748,-1.0562 1.4454,-1.1586 2.7114,-1.0123 0.9461,0.109 2.2095,0.6825 3.8613,1.752 5.7768,3.7403 5.772,3.7377 7.1368,3.6431 1.1546,-0.08 1.3725,-0.2342 1.9526,-1.3873 0.5938,-1.1804 0.6627,-2.0658 0.7734,-9.8217 l 0.1216,-70.0254 123.7706,0.3017 23.9092,0.059 0.026,17.9737 c -0.044,0.1207 -0.071,0.2621 -0.126,0.3735 -0.2889,0.5771 -0.4881,0.9054 -0.7588,1.0986 -0.2708,0.1933 -0.6136,0.2519 -1.1909,0.293 -0.3411,0.024 -0.5956,0.042 -0.8775,0 -0.2818,-0.044 -0.5909,-0.1513 -1.0371,-0.3779 -0.8924,-0.4533 -2.3374,-1.3846 -5.2294,-3.249 -0.827,-0.5332 -1.556,-0.9426 -2.1973,-1.232 -0.6413,-0.2893 -1.1939,-0.4591 -1.667,-0.5127 -0.6329,-0.072 -1.0176,-0.081 -1.3901,0.059 -0.3726,0.14 -0.7335,0.4303 -1.3199,0.9595 -0.5235,0.4725 -0.8734,0.8657 -1.144,1.3447 -0.2705,0.4791 -0.4606,1.0433 -0.6636,1.8575 -0.4024,1.6148 -0.7087,3.4251 -0.9199,5.3364 -0.2113,1.9112 -0.3279,3.9228 -0.3501,5.9443 h -0.01 c -3e-4,0.1049 0,0.21 0,0.315 0,0.1049 -0.01,0.2099 -0.01,0.3149 h 0.01 c 0.02,2.0216 0.1348,4.0342 0.3442,5.9458 0.2094,1.9116 0.5132,3.7227 0.9141,5.3379 0.2021,0.8143 0.3921,1.3781 0.6621,1.8574 0.2701,0.4793 0.621,0.8732 1.1441,1.3462 0.5857,0.5298 0.9459,0.8208 1.3183,0.9609 0.3724,0.1402 0.7572,0.1297 1.3902,0.059 0.4731,-0.053 1.0269,-0.2224 1.6684,-0.5112 0.6416,-0.2888 1.3712,-0.6967 2.1987,-1.229 2.8938,-1.8617 4.3396,-2.7922 5.2325,-3.2446 0.4464,-0.2262 0.7536,-0.3324 1.0356,-0.3765 0.2819,-0.044 0.5378,-0.025 0.8789,0 0.5773,0.042 0.9204,0.1024 1.1909,0.2959 0.2706,0.1935 0.469,0.5198 0.7574,1.0972 0.078,0.1554 0.117,0.3543 0.1758,0.5215 l 0.025,17.5063 0.02,13.6392 0.01,5.1621 c -0.091,0.3671 -0.1856,0.6907 -0.3326,0.9843 -0.2889,0.5771 -0.488,0.9054 -0.7588,1.0987 -0.2707,0.1932 -0.6136,0.2518 -1.1909,0.2929 -0.3412,0.024 -0.5956,0.043 -0.8774,0 -0.2819,-0.044 -0.591,-0.1512 -1.0371,-0.3779 -0.8925,-0.4533 -2.3375,-1.3846 -5.2295,-3.249 -0.827,-0.5332 -1.5561,-0.9426 -2.1973,-1.2319 -0.6413,-0.2894 -1.1939,-0.4592 -1.667,-0.5127 -0.6329,-0.072 -1.0176,-0.081 -1.3901,0.059 -0.3726,0.1399 -0.7335,0.4302 -1.3198,0.9594 -0.5236,0.4725 -0.8736,0.8657 -1.1441,1.3448 -0.2705,0.479 -0.4606,1.0432 -0.6636,1.8574 -0.4025,1.6148 -0.7087,3.4252 -0.9199,5.3364 -0.2113,1.9112 -0.3279,3.9228 -0.3501,5.9443 h -0.01 c -2e-4,0.105 0,0.21 0.01,0.315 0,0.1049 -0.01,0.21 -0.01,0.3149 h 0.01 c 0.02,2.0216 0.1349,4.0342 0.3443,5.9458 0.2094,1.9116 0.5131,3.7227 0.9141,5.3379 0.2021,0.8143 0.392,1.3781 0.6621,1.8574 0.2701,0.4794 0.621,0.8732 1.144,1.3462 0.5858,0.5298 0.9459,0.8208 1.3184,0.961 0.3724,0.1401 0.7571,0.1296 1.3901,0.059 0.4732,-0.053 1.0269,-0.2225 1.6685,-0.5113 0.6415,-0.2887 1.3712,-0.6966 2.1987,-1.229 2.8938,-1.8617 4.3395,-2.7922 5.2324,-3.2446 0.4464,-0.2262 0.7538,-0.3324 1.0357,-0.3765 0.2818,-0.044 0.5377,-0.026 0.8788,-10e-4 0.5773,0.042 0.9204,0.1024 1.191,0.2959 0.2706,0.1935 0.4689,0.5198 0.7573,1.0972 0.1692,0.3388 0.2863,0.6778 0.3823,1.1367 l 0.025,16.8882 -24.2344,0.2651 z"
         style="fill:#bd295d;fill-opacity:1;stroke:#97234b;stroke-width:5.42624998;stroke-miterlimit:4;stroke-dasharray:none;stroke-opacity:1"
         inkscape:connector-curvature="0" />
      <path
         sodipodi:nodetypes="ccccccccccscccccccccccscccccccccccccccccsccccscccccccccccscccccsccccccccc"
         inkscape:connector-curvature="0"
         style="fill:#d36a8b;fill-opacity:1;stroke:none;stroke-width:5.42624998;stroke-miterlimit:4;stroke-dasharray:none;stroke-opacity:1"
         d="m -1925.289,2751.0315 c 53.4824,-61.6466 75.8365,-87.468 119.7388,-115.7015 l 23.9092,-0.096 0.3833,12.1881 c -0.044,0.1208 -0.071,0.2622 -0.126,0.3736 -0.2889,0.5771 -0.4881,0.9053 -0.7588,1.0986 -0.2708,0.1933 -0.6136,0.2518 -1.1909,0.293 -0.3412,0.024 -0.5956,0.042 -0.8775,0 -0.2818,-0.044 -0.5909,-0.1513 -1.0371,-0.378 -0.8924,-0.4533 -2.3374,-1.3846 -5.2294,-3.249 -0.827,-0.5331 -1.556,-0.9425 -2.1973,-1.2319 -0.6413,-0.2894 -1.1939,-0.4592 -1.667,-0.5127 -0.633,-0.072 -1.0176,-0.081 -1.3902,0.059 -0.3726,0.1399 -0.7335,0.4302 -1.3198,0.9594 -0.5235,0.4725 -0.8734,0.8657 -1.144,1.3448 -0.2705,0.479 -0.4606,1.0433 -0.6636,1.8574 -0.4024,1.6148 -0.7087,3.4252 -0.9199,5.3364 -0.2113,1.9112 -0.3279,3.9228 -0.3501,5.9444 h -0.01 c -3e-4,0.1049 0,0.2099 0,0.3149 0,0.1049 -0.01,0.21 -0.01,0.3149 h 0.01 c 0.02,2.0216 0.1348,10.0342 0.3442,11.9458 0.2094,1.9116 0.5132,3.7227 0.9141,5.3379 0.2021,0.8144 0.392,1.3781 0.6621,1.8575 0.2701,0.4793 0.621,0.8732 1.1441,1.3462 0.5857,0.5297 0.9459,0.8208 1.3183,0.9609 0.3724,0.1401 0.7571,0.1296 1.3901,0.059 0.4732,-0.053 1.0269,-0.2225 1.6685,-0.5112 0.6416,-0.2888 1.3712,-0.6967 2.1987,-1.2291 2.8938,-1.8617 4.3396,-2.7922 5.2324,-3.2446 0.4464,-0.2262 0.7537,-0.3324 1.0357,-0.3765 0.2819,-0.044 0.5378,-0.025 0.8789,0 0.5772,0.042 0.9204,0.1024 1.1909,0.296 0.2706,0.1935 0.469,0.5197 0.7573,1.0971 0.078,0.1555 0.1171,0.3544 0.1758,0.5215 l 0.025,16.0064 0.02,9.1391 0.01,5.1621 c -0.091,0.3672 -0.1855,0.6908 -0.3325,0.9844 -0.2889,0.5771 -0.488,0.9053 -0.7588,1.0986 -0.2707,0.1933 -0.6136,0.2519 -1.1909,0.293 -0.3412,0.024 -0.5956,0.043 -0.8774,0 -0.2819,-0.044 -0.591,-0.1513 -1.0371,-0.3779 -0.8925,-0.4533 -2.3375,-1.3846 -5.2296,-3.2491 -0.8269,-0.5331 -1.556,-0.9425 -2.1972,-1.2319 -0.6413,-0.2894 -1.1939,-0.4591 -1.667,-0.5127 -0.6329,-0.072 -1.0176,-0.081 -1.3901,0.059 -0.3726,0.14 -0.7335,0.4303 -1.3199,0.9595 -0.5235,0.4725 -0.8735,0.8656 -1.144,1.3447 -0.2705,0.4791 -0.4607,1.0433 -0.6636,1.8574 -0.4025,1.6149 -0.7087,3.4252 -0.9199,5.3365 -0.2113,1.9112 -0.3279,5.4227 -0.3501,7.4443 h -0.01 c -2e-4,0.1049 0,0.21 0.01,0.3149 0,0.1049 -0.01,0.21 -0.01,0.315 h 0.01 c 0.02,2.0215 0.1349,8.5342 0.3443,10.4458 0.2094,1.9116 0.5131,3.7226 0.9141,5.3379 0.2021,0.8143 0.392,1.3781 0.6621,1.8574 0.2701,0.4793 0.621,0.8732 1.144,1.3462 0.5858,0.5298 0.9459,0.8208 1.3184,0.9609 0.3724,0.1402 0.7571,0.1297 1.3901,0.059 0.4732,-0.053 1.0269,-0.2225 1.6685,-0.5112 0.6415,-0.2888 1.3712,-0.6967 2.1987,-1.229 2.8938,-1.8617 4.3395,-2.7922 5.2324,-3.2446 0.4464,-0.2263 0.7538,-0.3325 1.0357,-0.3765 0.2818,-0.044 0.5377,-0.026 0.8788,-10e-4 0.5773,0.042 0.9204,0.1024 1.191,0.2959 0.2706,0.1935 0.4689,0.5198 0.7573,1.0971 0.1692,0.3388 0.2863,0.6778 0.3823,1.1368 l -0.3322,11.2574 c -47.5809,0.568 -94.9217,0.9595 -143.8232,-0.3459 z"
         id="path1699" />
      <g
         id="g1709"
         transform="translate(-399.21023,2617.812)">
        <rect
           ry="11.329442"
           rx="11.68515"
           transform="scale(1,-1)"
           y="-125.71913"
           x="-1518.5787"
           height="37.757042"
           width="37.757042"
           id="rect1701"
           style="opacity:1;fill:#0032f5;fill-opacity:1;stroke:#ffffff;stroke-width:2;stroke-miterlimit:4;stroke-dasharray:none;stroke-opacity:1" />
        <g
           style="fill:#ffffff"
           transform="matrix(0.11942495,0.11749836,0.11749836,-0.11942495,-1518.7832,107.0828)"
           id="g1707">
          <title
             id="title1703">Layer 1</title>
          <path
             style="fill:#ffffff;fill-rule:evenodd;stroke-width:1.25;stroke-linejoin:round;stroke-miterlimit:4"
             inkscape:connector-curvature="0"
             stroke-miterlimit="4"
             id="path1705"
             d="M 80.476791,3.84649 C 66.996879,3.25614 49.271,8.71378 40.968238,14.63436 38.03176,18.11943 47.28662,32.97744 45.413699,34.58947 42.462371,35.942322 33.382819,45.597939 32.590228,47.735661 31.797599,49.873391 16.935759,40.913792 13.049699,42.36591 5.939909,53.431649 1.089979,71.845597 1.997059,81.937539 c 1.52907,4.278915 19.15685,3.980179 19.60162,6.397743 -0.330481,3.203857 3.432669,15.867478 4.885139,17.633048 1.45245,1.76557 -13.55446,9.76252 -13.92264,13.33971 6.340731,11.76687 19.97086,24.24561 29.298611,28.40882 4.515789,0.77728 12.895691,-14.58812 15.2416,-13.78716 2.65818,1.8555 15.638058,4.81479 17.904041,4.42639 2.26593,-0.38838 1.521027,16.4871 5.532372,19.1811 14.034286,0.58659 30.358768,-4.4645 38.702528,-10.32827 2.96069,-3.46496 -6.19522,-18.39219 -4.31113,-19.9914 2.96069,-1.33269 12.11372,-10.92926 12.92121,-13.06155 0.80746,-2.13227 15.34598,6.66174 19.6871,5.07951 7.51844,-11.24549 11.77134,-29.131788 10.83276,-39.220892 -1.54244,-4.2742 -19.17371,-3.921089 -19.62605,-6.337265 0.32046,-3.20488 -3.47602,-15.859871 -4.93398,-17.620972 -1.45795,-1.76112 12.93781,-9.36475 13.65398,-13.36388 C 141.27357,31.155051 128.28973,18.168011 118.98387,13.95708 114.47215,13.15669 106.02295,28.484659 103.68115,27.6717 101.03273,25.80259 88.057341,22.77175 85.789359,23.14853 83.521377,23.525321 83.91651,6.653721 80.47679,3.846491 Z m 1.355637,57.894042 c 10.671585,0 19.332872,8.589401 19.332872,19.169006 0,10.579605 -8.661287,19.169022 -19.332872,19.169022 -10.671646,0 -19.332939,-8.589417 -19.332939,-19.169022 0,-10.579605 8.661293,-19.169006 19.332939,-19.169006 z" />
        </g>
      </g>
      <rect
         rx="4.0446839"
         ry="2.0164082"
         transform="matrix(0.9999721,0.00747001,0.02696542,-0.99963637,0,0)"
         y="-2763.6445"
         x="-1754.816"
         height="4.0328164"
         width="46.330078"
         id="rect1711"
         style="opacity:1;fill:#ffffff;fill-opacity:1;stroke:none;stroke-width:2.33531046;stroke-miterlimit:4;stroke-dasharray:none;stroke-opacity:1" />
      <rect
         style="opacity:1;fill:#ffffff;fill-opacity:1;stroke:none;stroke-width:2.71123862;stroke-miterlimit:4;stroke-dasharray:none;stroke-opacity:1"
         id="rect1713"
         width="26.248585"
         height="3.9411135"
         x="-1921.9062"
         y="-2745.354"
         transform="matrix(0.9999967,-0.00256827,-0.0230192,-0.99973502,0,0)"
         ry="1.9705567"
         rx="2.2686081" />
      <text
         xml:space="preserve"
         style="font-style:normal;font-variant:normal;font-weight:normal;font-stretch:normal;font-size:37.55853653px;line-height:1.25;font-family:'Bebas Neue';-inkscape-font-specification:'Bebas Neue';text-align:center;letter-spacing:0px;word-spacing:0px;text-anchor:middle;fill:#ffffff;fill-opacity:1;stroke:none;stroke-width:2.01206446"
         x="-1839.1857"
         y="-2711.261"
         id="text1717"
         transform="scale(1,-1)"><tspan
           sodipodi:role="line"
           id="tspan1715"
           x="-1839.1857"
           y="-2711.261"
           style="font-style:normal;font-variant:normal;font-weight:normal;font-stretch:normal;font-family:Digitalt;-inkscape-font-specification:Digitalt;fill:#ffffff;stroke-width:2.01206446">join</tspan></text>
    </g>
  </g>
</svg>
