<?xml version="1.0" encoding="UTF-8" standalone="no"?>
<!-- Created with Inkscape (http://www.inkscape.org/) -->

<svg
   xmlns:dc="http://purl.org/dc/elements/1.1/"
   xmlns:cc="http://creativecommons.org/ns#"
   xmlns:rdf="http://www.w3.org/1999/02/22-rdf-syntax-ns#"
   xmlns:svg="http://www.w3.org/2000/svg"
   xmlns="http://www.w3.org/2000/svg"
   xmlns:sodipodi="http://sodipodi.sourceforge.net/DTD/sodipodi-0.dtd"
   xmlns:inkscape="http://www.inkscape.org/namespaces/inkscape"
   width="225.67815mm"
   height="41.243172mm"
   viewBox="0 0 225.67815 41.243172"
   version="1.1"
   id="svg2283"
   inkscape:version="0.92.3 (2405546, 2018-03-11)"
   sodipodi:docname="text_is_a_string.svg">
  <defs
     id="defs2277" />
  <sodipodi:namedview
     id="base"
     pagecolor="#ffffff"
     bordercolor="#666666"
     borderopacity="1.0"
     inkscape:pageopacity="0.0"
     inkscape:pageshadow="2"
     inkscape:zoom="0.35"
     inkscape:cx="287.08956"
     inkscape:cy="782.97468"
     inkscape:document-units="mm"
     inkscape:current-layer="layer1"
     showgrid="false"
     fit-margin-top="0"
     fit-margin-left="0"
     fit-margin-right="0"
     fit-margin-bottom="0"
     inkscape:window-width="1920"
     inkscape:window-height="1001"
     inkscape:window-x="0"
     inkscape:window-y="0"
     inkscape:window-maximized="1" />
  <metadata
     id="metadata2280">
    <rdf:RDF>
      <cc:Work
         rdf:about="">
        <dc:format>image/svg+xml</dc:format>
        <dc:type
           rdf:resource="http://purl.org/dc/dcmitype/StillImage" />
        <dc:title></dc:title>
      </cc:Work>
    </rdf:RDF>
  </metadata>
  <g
     inkscape:label="Layer 1"
     inkscape:groupmode="layer"
     id="layer1"
     transform="translate(351.12577,-314.75219)">
    <g
       id="g834">
      <path
         style="fill:#bd295d;fill-opacity:1;stroke:#97234b;stroke-width:3.37654328;stroke-miterlimit:4;stroke-dasharray:none;stroke-opacity:1"
         d="m -127.30025,353.9582 0.16191,-10.65205 c -0.0628,-0.32631 -0.14629,-0.53714 -0.26141,-0.76513 -0.36185,-0.71703 -0.49712,-0.81292 -1.21571,-0.86177 -0.84933,-0.0579 -0.84646,-0.0591 -4.43797,2.27281 -1.02704,0.66687 -1.81295,1.02467 -2.40155,1.09325 -0.78735,0.0918 -0.95617,0.0286 -1.68807,-0.62749 -0.65344,-0.58586 -0.87614,-0.97695 -1.13195,-1.98931 -0.50746,-2.00803 -0.77715,-4.50156 -0.81305,-7.0173 l -0.006,1.9e-4 c -3.8e-4,-0.0653 0,-0.13042 0,-0.19576 0,-0.0653 -0.006,-0.13043 -0.006,-0.19577 l 0.006,-1.8e-4 c 0.0168,-2.51593 0.26782,-5.01182 0.76009,-7.02359 0.24822,-1.01428 0.46794,-1.40699 1.11696,-1.99776 0.72692,-0.66178 0.89524,-0.72569 1.68327,-0.63988 0.58916,0.0642 1.37775,0.41605 2.40971,1.07515 3.60899,2.3051 3.60613,2.30342 4.45502,2.23927 0.71815,-0.0541 0.85274,-0.15121 1.20917,-0.87092 0.11344,-0.22887 0.19527,-0.44025 0.25563,-0.76706 l -0.0392,-10.44919 -15.08036,-0.14524 -194.97719,0.29028 -0.0429,5.30478 c -0.0386,4.82657 -0.0789,5.37776 -0.44386,6.11465 -0.3565,0.7197 -0.49103,0.81659 -1.20924,0.87085 -0.84889,0.0642 -0.84603,0.0658 -4.45495,-2.23921 -1.03202,-0.65916 -1.82062,-1.01098 -2.40971,-1.07514 -0.78803,-0.0858 -0.95635,-0.0218 -1.68334,0.63981 -0.64896,0.59078 -0.86874,0.98348 -1.11696,1.99777 -0.49227,2.01183 -0.74316,4.50766 -0.76009,7.02358 l -0.006,6e-5 c 3.7e-4,0.0653 0.006,0.13043 0.006,0.19577 -2.5e-4,0.0653 0,0.13042 0,0.19576 h 0.006 c 0.0361,2.51574 0.30559,5.0092 0.81305,7.01724 0.25587,1.01235 0.47858,1.40345 1.13195,1.9893 0.73197,0.65618 0.90048,0.71965 1.68814,0.62749 0.58859,-0.0686 1.37451,-0.42637 2.40149,-1.09325 3.5915,-2.33217 3.58864,-2.33055 4.43796,-2.27274 0.71859,0.0491 0.85387,0.14473 1.21578,0.86176 0.37049,0.73402 0.41461,1.28497 0.4899,6.11104 l 0.0828,5.30434 194.97725,-0.29035 z"
         id="path1847"
         inkscape:connector-curvature="0"
         sodipodi:nodetypes="cccccccccccccccsccccccccccccccccccccccscccccc" />
      <path
         sodipodi:nodetypes="ccccccccccccccccscccccccc"
         inkscape:connector-curvature="0"
         id="path1849"
         d="m -128.28373,352.34965 0.2013,-0.20285 0.16981,-7.56022 c -0.0629,-0.32632 -0.14635,-0.53708 -0.26141,-0.76507 -0.36191,-0.71704 -0.49719,-0.81293 -1.21571,-0.86177 -0.84939,-0.0579 -1.23457,0.1209 -4.82601,2.45307 -1.02704,0.66688 -1.81295,1.02468 -2.40155,1.09325 -0.9375,-0.14803 -0.91018,-0.20547 -1.64215,-0.8617 -0.65337,-0.58586 -0.922,-0.74273 -1.17788,-1.75509 -0.50745,-2.00804 -1.09679,-6.71202 -1.1327,-9.22782 l -0.006,2.5e-4 c -3.1e-4,-0.0653 0,-0.13049 0,-0.19582 0,-0.0653 -0.006,-0.13043 -0.006,-0.19571 l 0.006,-2.4e-4 c 0.0168,-2.51593 0.55786,-5.45493 1.05019,-7.46676 0.24816,-1.01423 0.46794,-1.407 1.1169,-1.99777 0.72692,-0.66171 0.89524,-0.72562 1.68334,-0.63981 0.58909,0.0642 1.37768,0.41598 2.40964,1.07514 3.60899,2.30504 3.62143,2.43783 4.47032,2.37368 0.71815,-0.0541 0.85275,-0.15121 1.20918,-0.87092 0.11344,-0.22886 0.19526,-0.44031 0.25562,-0.76706 l -0.2634,-7.93768 -206.41353,0.36912 c 36.10377,23.89812 156.99786,24.80058 189.07585,33.92803 z"
         style="fill:#d36a8b;fill-opacity:1;stroke:none;stroke-width:3.37654328;stroke-miterlimit:4;stroke-dasharray:none;stroke-opacity:1" />
      <text
         xml:space="preserve"
         style="font-style:normal;font-variant:normal;font-weight:normal;font-stretch:normal;font-size:23.3712101px;line-height:1.25;font-family:'Bebas Neue';-inkscape-font-specification:'Bebas Neue';text-align:center;letter-spacing:0px;word-spacing:0px;text-anchor:middle;fill:#ffffff;fill-opacity:1;stroke:none;stroke-width:1.25202906"
         x="-237.50676"
         y="343.55356"
         id="text1853"><tspan
           sodipodi:role="line"
           id="tspan1851"
           x="-237.50676"
           y="343.55356"
           style="font-style:normal;font-variant:normal;font-weight:normal;font-stretch:normal;font-family:Digitalt;-inkscape-font-specification:Digitalt;fill:#ffffff;stroke-width:1.25202906">is a string? thing</tspan></text>
      <rect
         rx="2.5168488"
         ry="1.254732"
         transform="matrix(0.9999721,-0.00747002,0.02696542,0.99963637,0,0)"
         y="318.05569"
         x="-166.98233"
         height="2.509464"
         width="28.829397"
         id="rect1855"
         style="opacity:1;fill:#ffffff;fill-opacity:1;stroke:none;stroke-width:1.45317245;stroke-miterlimit:4;stroke-dasharray:none;stroke-opacity:1" />
      <rect
         style="opacity:1;fill:#ffffff;fill-opacity:1;stroke:none;stroke-width:1.68709779;stroke-miterlimit:4;stroke-dasharray:none;stroke-opacity:1"
         id="rect1857"
         width="16.333469"
         height="2.4524009"
         x="-169.34734"
         y="319.68295"
         transform="matrix(0.9999967,0.00256826,-0.0230192,0.99973502,0,0)"
         ry="1.2262005"
         rx="1.4116662" />
    </g>
  </g>
</svg>
