<?xml version="1.0" encoding="UTF-8" standalone="no"?>
<!-- Created with Inkscape (http://www.inkscape.org/) -->

<svg
   xmlns:dc="http://purl.org/dc/elements/1.1/"
   xmlns:cc="http://creativecommons.org/ns#"
   xmlns:rdf="http://www.w3.org/1999/02/22-rdf-syntax-ns#"
   xmlns:svg="http://www.w3.org/2000/svg"
   xmlns="http://www.w3.org/2000/svg"
   xmlns:sodipodi="http://sodipodi.sourceforge.net/DTD/sodipodi-0.dtd"
   xmlns:inkscape="http://www.inkscape.org/namespaces/inkscape"
   width="199.88127mm"
   height="41.243553mm"
   viewBox="0 0 199.88128 41.243553"
   version="1.1"
   id="svg2283"
   inkscape:version="0.92.3 (2405546, 2018-03-11)"
   sodipodi:docname="text_split_at_spaces.svg">
  <defs
     id="defs2277" />
  <sodipodi:namedview
     id="base"
     pagecolor="#ffffff"
     bordercolor="#666666"
     borderopacity="1.0"
     inkscape:pageopacity="0.0"
     inkscape:pageshadow="2"
     inkscape:zoom="0.35"
     inkscape:cx="79.101332"
     inkscape:cy="816.81322"
     inkscape:document-units="mm"
     inkscape:current-layer="layer1"
     showgrid="false"
     fit-margin-top="0"
     fit-margin-left="0"
     fit-margin-right="0"
     fit-margin-bottom="0"
     inkscape:window-width="1920"
     inkscape:window-height="1001"
     inkscape:window-x="0"
     inkscape:window-y="0"
     inkscape:window-maximized="1" />
  <metadata
     id="metadata2280">
    <rdf:RDF>
      <cc:Work
         rdf:about="">
        <dc:format>image/svg+xml</dc:format>
        <dc:type
           rdf:resource="http://purl.org/dc/dcmitype/StillImage" />
        <dc:title></dc:title>
      </cc:Work>
    </rdf:RDF>
  </metadata>
  <g
     inkscape:label="Layer 1"
     inkscape:groupmode="layer"
     id="layer1"
     transform="translate(296.09556,-323.70491)">
    <g
       id="g834">
      <path
         sodipodi:nodetypes="cccccccccccccccsccccccccccccccccccccccscccccc"
         inkscape:connector-curvature="0"
         id="path1811"
         d="m -98.066922,362.91093 0.161912,-10.65205 c -0.06279,-0.32631 -0.146293,-0.53714 -0.261412,-0.76513 -0.361844,-0.71703 -0.497124,-0.81292 -1.215711,-0.86177 -0.849327,-0.0579 -0.846457,-0.0591 -4.437967,2.27281 -1.02704,0.66687 -1.81295,1.02467 -2.40155,1.09325 -0.78735,0.0918 -0.95617,0.0286 -1.68807,-0.62749 -0.65344,-0.58586 -0.87614,-0.97695 -1.13196,-1.98931 -0.50745,-2.00803 -0.77714,-4.50156 -0.81304,-7.0173 l -0.006,1.9e-4 c -3.8e-4,-0.0653 0,-0.13042 0,-0.19576 0,-0.0653 -0.006,-0.13043 -0.006,-0.19577 l 0.006,-1.8e-4 c 0.0168,-2.51593 0.26782,-5.01182 0.76009,-7.02359 0.24822,-1.01428 0.46794,-1.40699 1.11696,-1.99776 0.72692,-0.66178 0.89524,-0.72569 1.68327,-0.63988 0.58916,0.0642 1.37775,0.41605 2.40971,1.07515 3.60899,2.3051 3.60613,2.30342 4.455014,2.23927 0.718151,-0.0541 0.852746,-0.15121 1.209177,-0.87092 0.113438,-0.22887 0.195266,-0.44025 0.255625,-0.76706 l -0.0392,-10.44919 -15.080376,-0.14524 -169.18029,0.29028 -0.0429,5.30478 c -0.0386,4.82657 -0.0789,5.37776 -0.44386,6.11465 -0.35649,0.7197 -0.49103,0.81659 -1.20924,0.87085 -0.84889,0.0642 -0.84602,0.0658 -4.45495,-2.23921 -1.03202,-0.65916 -1.82061,-1.01098 -2.40971,-1.07514 -0.78803,-0.0858 -0.95635,-0.0218 -1.68334,0.63981 -0.64895,0.59078 -0.86874,0.98348 -1.11696,1.99777 -0.49227,2.01183 -0.74316,4.50766 -0.76009,7.02358 l -0.006,6e-5 c 3.7e-4,0.0653 0.006,0.13043 0.006,0.19577 -2.5e-4,0.0653 0,0.13042 0,0.19576 h 0.006 c 0.0361,2.51574 0.30559,5.0092 0.81304,7.01724 0.25588,1.01235 0.47858,1.40345 1.13196,1.9893 0.73196,0.65618 0.90047,0.71965 1.68813,0.62749 0.58859,-0.0686 1.37451,-0.42637 2.40149,-1.09325 3.5915,-2.33217 3.58864,-2.33055 4.43796,-2.27274 0.71859,0.0491 0.85387,0.14473 1.21578,0.86176 0.37049,0.73402 0.41461,1.28497 0.4899,6.11104 l 0.0828,5.30434 169.18037,-0.29035 z"
         style="fill:#bd295d;fill-opacity:1;stroke:#97234b;stroke-width:3.37654328;stroke-miterlimit:4;stroke-dasharray:none;stroke-opacity:1" />
      <path
         style="fill:#d36a8b;fill-opacity:1;stroke:none;stroke-width:3.37654328;stroke-miterlimit:4;stroke-dasharray:none;stroke-opacity:1"
         d="m -99.050406,361.30238 0.201302,-0.20285 0.169815,-7.56022 c -0.06291,-0.32632 -0.146356,-0.53708 -0.261412,-0.76507 -0.361907,-0.71704 -0.497186,-0.81293 -1.215709,-0.86177 -0.84939,-0.0579 -1.23457,0.1209 -4.82601,2.45307 -1.02704,0.66688 -1.81296,1.02468 -2.40155,1.09325 -0.9375,-0.14803 -0.91018,-0.20547 -1.64215,-0.8617 -0.65337,-0.58586 -0.922,-0.74273 -1.17788,-1.75509 -0.50745,-2.00804 -1.09679,-6.71202 -1.1327,-9.22782 l -0.006,2.5e-4 c -3.1e-4,-0.0653 0,-0.13049 0,-0.19582 0,-0.0653 -0.006,-0.13043 -0.006,-0.19571 l 0.006,-2.4e-4 c 0.0168,-2.51593 0.55786,-5.45493 1.05019,-7.46676 0.24816,-1.01423 0.46794,-1.407 1.11689,-1.99777 0.72693,-0.66171 0.89525,-0.72562 1.68334,-0.63981 0.5891,0.0642 1.37769,0.41598 2.40965,1.07514 3.60899,2.30504 3.62143,2.43783 4.47032,2.37368 0.718152,-0.0541 0.852747,-0.15121 1.209178,-0.87092 0.113438,-0.22886 0.195266,-0.44031 0.255625,-0.76706 l -0.263403,-7.93768 -180.52057,0.27193 c 36.10377,23.89811 131.1049,24.89777 163.18289,34.02522 z"
         id="path1813"
         inkscape:connector-curvature="0"
         sodipodi:nodetypes="ccccccccccccccccscccccccc" />
      <text
         id="text1817"
         y="352.50632"
         x="-195.90845"
         style="font-style:normal;font-variant:normal;font-weight:normal;font-stretch:normal;font-size:23.3712101px;line-height:1.25;font-family:'Bebas Neue';-inkscape-font-specification:'Bebas Neue';text-align:center;letter-spacing:0px;word-spacing:0px;text-anchor:middle;fill:#ffffff;fill-opacity:1;stroke:none;stroke-width:1.25202906"
         xml:space="preserve"><tspan
           style="font-style:normal;font-variant:normal;font-weight:normal;font-stretch:normal;font-family:Digitalt;-inkscape-font-specification:Digitalt;fill:#ffffff;stroke-width:1.25202906"
           y="352.50632"
           x="-195.90845"
           id="tspan1815"
           sodipodi:role="line">split at spaces</tspan></text>
      <rect
         style="opacity:1;fill:#ffffff;fill-opacity:1;stroke:none;stroke-width:1.45317245;stroke-miterlimit:4;stroke-dasharray:none;stroke-opacity:1"
         id="rect1819"
         width="28.829397"
         height="2.509464"
         x="-137.99561"
         y="327.22836"
         transform="matrix(0.9999721,-0.00747002,0.02696542,0.99963637,0,0)"
         ry="1.254732"
         rx="2.5168488" />
      <rect
         rx="1.4116662"
         ry="1.2262005"
         transform="matrix(0.9999967,0.00256826,-0.0230192,0.99973502,0,0)"
         y="328.56238"
         x="-139.90958"
         height="2.4524009"
         width="16.333469"
         id="rect1821"
         style="opacity:1;fill:#ffffff;fill-opacity:1;stroke:none;stroke-width:1.68709779;stroke-miterlimit:4;stroke-dasharray:none;stroke-opacity:1" />
    </g>
  </g>
</svg>
