<?xml version="1.0" encoding="UTF-8" standalone="no"?>
<!-- Created with Inkscape (http://www.inkscape.org/) -->

<svg
   xmlns:dc="http://purl.org/dc/elements/1.1/"
   xmlns:cc="http://creativecommons.org/ns#"
   xmlns:rdf="http://www.w3.org/1999/02/22-rdf-syntax-ns#"
   xmlns:svg="http://www.w3.org/2000/svg"
   xmlns="http://www.w3.org/2000/svg"
   xmlns:sodipodi="http://sodipodi.sourceforge.net/DTD/sodipodi-0.dtd"
   xmlns:inkscape="http://www.inkscape.org/namespaces/inkscape"
   width="244.60497mm"
   height="79.420586mm"
   viewBox="0 0 244.60497 79.420587"
   version="1.1"
   id="svg2283"
   inkscape:version="0.92.3 (2405546, 2018-03-11)"
   sodipodi:docname="text_split_at_first.svg">
  <defs
     id="defs2277" />
  <sodipodi:namedview
     id="base"
     pagecolor="#ffffff"
     bordercolor="#666666"
     borderopacity="1.0"
     inkscape:pageopacity="0.0"
     inkscape:pageshadow="2"
     inkscape:zoom="0.35"
     inkscape:cx="176.40192"
     inkscape:cy="420.46234"
     inkscape:document-units="mm"
     inkscape:current-layer="layer1"
     showgrid="false"
     fit-margin-top="0"
     fit-margin-left="0"
     fit-margin-right="0"
     fit-margin-bottom="0"
     inkscape:window-width="1920"
     inkscape:window-height="1001"
     inkscape:window-x="0"
     inkscape:window-y="0"
     inkscape:window-maximized="1" />
  <metadata
     id="metadata2280">
    <rdf:RDF>
      <cc:Work
         rdf:about="">
        <dc:format>image/svg+xml</dc:format>
        <dc:type
           rdf:resource="http://purl.org/dc/dcmitype/StillImage" />
        <dc:title></dc:title>
      </cc:Work>
    </rdf:RDF>
  </metadata>
  <g
     inkscape:label="Layer 1"
     inkscape:groupmode="layer"
     id="layer1"
     transform="translate(321.83967,-332.20316)">
    <g
       id="g854">
      <path
         inkscape:export-ydpi="42.094723"
         inkscape:export-xdpi="42.094723"
         inkscape:export-filename="/home/peter/allblocks.png"
         sodipodi:nodetypes="ccccscccccccccccccccccccccccccccccccccccsccsccccccccccccccccccccccccccccccccccsccccccccccsccccc"
         inkscape:connector-curvature="0"
         style="fill:#bd295d;fill-opacity:1;stroke:#97234b;stroke-width:3.37654305;stroke-miterlimit:4;stroke-dasharray:none;stroke-opacity:1"
         d="m -94.010122,333.90281 -213.981728,0.18778 -0.0505,5.30493 c -0.0454,4.8265 -0.0861,5.37722 -0.45212,6.11354 -0.3574,0.71928 -0.49223,0.81625 -1.21049,0.86959 -0.84899,0.0631 -0.84592,0.0648 -4.45188,-2.24504 -1.03109,-0.6605 -1.81916,-1.01342 -2.40816,-1.0783 -0.7879,-0.0869 -0.95666,-0.0222 -1.68445,0.63803 -0.64981,0.58996 -0.8698,0.98228 -1.11936,1.99623 -0.49498,2.01115 -0.74905,4.50635 -0.76934,7.02226 h -0.006 c 2.8e-4,0.0654 0.006,0.13067 0.006,0.19603 -3.1e-4,0.0653 -0.006,0.12965 0,0.19502 h 0.006 c 0.0332,2.5158 0.29916,5.00997 0.80391,7.01866 0.25453,1.01271 0.47678,1.40402 1.12938,1.99079 0.73106,0.65719 0.89941,0.72094 1.6872,0.62989 0.58871,-0.0678 1.37488,-0.42471 2.40277,-1.09023 3.59463,-2.32734 3.59166,-2.32583 4.44091,-2.26698 0.71846,0.0498 0.85403,0.14576 1.21503,0.86324 0.36954,0.73459 0.4124,1.28553 0.48126,6.1117 l 0.0757,43.57405 213.983638,-0.18775 14.877732,-0.0367 0.01623,-11.18432 c -0.02716,-0.0751 -0.0442,-0.16309 -0.07846,-0.23245 -0.17974,-0.35909 -0.303706,-0.56339 -0.472157,-0.68361 -0.168487,-0.12026 -0.381847,-0.15674 -0.741081,-0.18232 -0.212231,-0.0152 -0.370593,-0.0261 -0.545994,0 -0.17533,0.0272 -0.367735,0.0942 -0.645371,0.2352 -0.555308,0.28204 -1.454433,0.86152 -3.254023,2.0217 -0.514632,0.33182 -0.968269,0.58649 -1.367331,0.76662 -0.399027,0.18002 -0.742915,0.28568 -1.037272,0.31905 -0.393877,0.0448 -0.633201,0.0504 -0.865047,-0.0368 -0.231845,-0.0871 -0.456388,-0.26776 -0.821302,-0.59707 -0.325755,-0.29401 -0.543489,-0.5387 -0.71187,-0.83679 -0.16831,-0.29807 -0.286597,-0.64915 -0.412926,-1.15581 -0.250402,-1.00482 -0.441008,-2.13127 -0.572417,-3.32063 -0.131481,-1.18924 -0.204047,-2.44101 -0.217841,-3.69891 h -0.006 c -1.41e-4,-0.0653 0,-0.13066 0,-0.196 0,-0.0653 -0.006,-0.13063 -0.006,-0.19593 h 0.006 c 0.0127,-1.25801 0.08389,-2.51037 0.214171,-3.69986 0.130352,-1.1895 0.31937,-2.31648 0.568855,-3.32158 0.1258,-0.5067 0.243981,-0.8575 0.412044,-1.15577 0.168028,-0.29828 0.386397,-0.54339 0.71187,-0.83768 0.364455,-0.32967 0.58861,-0.51078 0.82035,-0.59795 0.231739,-0.0872 0.47117,-0.0807 0.865081,-0.0367 0.294358,0.0332 0.638951,0.13836 1.038155,0.31807 0.399238,0.17974 0.853228,0.43353 1.368178,0.76482 1.800683,1.15842 2.700372,1.73746 3.255962,2.01898 0.277777,0.14072 0.468948,0.20683 0.644419,0.23425 0.175437,0.0272 0.334681,0.0155 0.546876,0 0.359234,-0.0261 0.572735,-0.0637 0.741081,-0.18415 0.168345,-0.12041 0.291853,-0.32343 0.471311,-0.6827 0.04854,-0.0967 0.07281,-0.22049 0.109396,-0.32452 l 0.01552,-10.89346 0.0127,-8.4872 0.006,-3.21215 c -0.05662,-0.22842 -0.115535,-0.42978 -0.206975,-0.61249 -0.179776,-0.35909 -0.303671,-0.56338 -0.472193,-0.68372 -0.168451,-0.12015 -0.381811,-0.15663 -0.741045,-0.18224 -0.212302,-0.0152 -0.370628,-0.0268 -0.545994,0 -0.175401,0.0272 -0.367736,0.0941 -0.645337,0.23519 -0.555342,0.28205 -1.454467,0.86156 -3.254128,2.02174 -0.514561,0.33175 -0.968269,0.58649 -1.36726,0.76651 -0.399063,0.1801 -0.74295,0.28579 -1.037308,0.31906 -0.393841,0.0448 -0.633201,0.0504 -0.865011,-0.0367 -0.231881,-0.087 -0.456389,-0.26765 -0.821232,-0.59697 -0.325825,-0.294 -0.54363,-0.53869 -0.711976,-0.83682 -0.16831,-0.29803 -0.286596,-0.64915 -0.412926,-1.15581 -0.250437,-1.00478 -0.441008,-2.13134 -0.572382,-3.32062 -0.13148,-1.18925 -0.204047,-2.44098 -0.21784,-3.69888 h -0.006 c -1.41e-4,-0.0654 0,-0.1307 0.006,-0.19604 0,-0.0653 -0.006,-0.13067 -0.006,-0.19597 h 0.006 c 0.0127,-1.25793 0.08389,-2.51029 0.214206,-3.69979 0.130281,-1.18953 0.319264,-2.31651 0.568855,-3.32158 0.12573,-0.50673 0.243875,-0.85753 0.411938,-1.15577 0.168063,-0.29831 0.386433,-0.54338 0.711906,-0.83767 0.364525,-0.32967 0.588574,-0.51079 0.820384,-0.59803 0.23174,-0.0872 0.4711,-0.0806 0.864976,-0.0368 0.294464,0.0332 0.638987,0.13847 1.03826,0.31817 0.399204,0.17971 0.853229,0.43346 1.368143,0.76476 1.800719,1.15845 2.700302,1.7375 3.255963,2.01901 0.277742,0.14076 0.469018,0.20684 0.644454,0.23428 0.175366,0.0272 0.334574,0.0162 0.546806,0 0.359268,-0.0261 0.57277,-0.0637 0.74115,-0.18415 0.168346,-0.1204 0.291748,-0.32342 0.471241,-0.68269 0.105269,-0.21086 0.178117,-0.42182 0.237878,-0.70736 l 0.01552,-10.50886 -15.080156,-0.16499 z"
         id="path2061" />
      <path
         inkscape:export-ydpi="42.094723"
         inkscape:export-xdpi="42.094723"
         inkscape:export-filename="/home/peter/allblocks.png"
         id="path2063"
         d="m -305.83974,335.89152 c 45.87918,34.1605 186.54293,68.38209 210.767052,72.02512 l 14.877732,0.0598 0.238513,-7.58419 c -0.02716,-0.0751 -0.0442,-0.16312 -0.07839,-0.23244 -0.179776,-0.35917 -0.303707,-0.56335 -0.472158,-0.68365 -0.168522,-0.1203 -0.381847,-0.15667 -0.74108,-0.18232 -0.212337,-0.0152 -0.370593,-0.0261 -0.54603,0 -0.175366,0.0272 -0.3677,0.0942 -0.645371,0.2352 -0.555308,0.28212 -1.454468,0.86162 -3.254023,2.02173 -0.514597,0.33176 -0.968233,0.5865 -1.36726,0.76659 -0.399098,0.18006 -0.74295,0.28571 -1.037343,0.31902 -0.393912,0.0448 -0.633201,0.0504 -0.865082,-0.0367 -0.231846,-0.087 -0.456389,-0.26769 -0.821267,-0.597 -0.325755,-0.29404 -0.543454,-0.53866 -0.711835,-0.83683 -0.168345,-0.29809 -0.286596,-0.64914 -0.412926,-1.15577 -0.250437,-1.00482 -0.441008,-2.13134 -0.572453,-3.32066 -0.131445,-1.18928 -0.204046,-2.44098 -0.21784,-3.69895 h -0.006 c -1.76e-4,-0.0653 0,-0.13059 0,-0.19593 0,-0.0653 -0.006,-0.13067 -0.006,-0.19597 h 0.006 c 0.0127,-1.25793 0.08389,-6.24392 0.214171,-7.43338 0.130352,-1.18956 0.319405,-2.31655 0.568819,-3.32154 0.125765,-0.5068 0.243911,-0.8576 0.412009,-1.15591 0.168099,-0.29824 0.386433,-0.54335 0.711941,-0.83767 0.364455,-0.3296 0.58861,-0.51075 0.820314,-0.59793 0.231705,-0.0872 0.471135,-0.0806 0.865011,-0.0367 0.294464,0.0332 0.638987,0.13847 1.038225,0.31806 0.399239,0.17974 0.853264,0.43357 1.368214,0.76483 1.800648,1.15845 2.700337,1.7375 3.255856,2.01898 0.277813,0.14079 0.469054,0.20683 0.644525,0.23421 0.175401,0.0275 0.334645,0.0155 0.546876,0 0.359163,-0.0261 0.572735,-0.0636 0.741081,-0.18408 0.16838,-0.1204 0.291817,-0.32343 0.471205,-0.6827 0.04854,-0.0968 0.07288,-0.22052 0.109396,-0.32452 l 0.01552,-9.96015 0.0127,-5.68692 0.006,-3.21214 c -0.05662,-0.22853 -0.115394,-0.42986 -0.206904,-0.61257 -0.179776,-0.35913 -0.303672,-0.56338 -0.472158,-0.68361 -0.168452,-0.1203 -0.381812,-0.15667 -0.741045,-0.18235 -0.212337,-0.0152 -0.370629,-0.0268 -0.545994,0 -0.175437,0.0272 -0.367736,0.0942 -0.645337,0.2352 -0.555342,0.28204 -1.454573,0.86158 -3.254198,2.02176 -0.514527,0.33172 -0.968234,0.5865 -1.367191,0.76656 -0.399097,0.18009 -0.742949,0.28571 -1.037343,0.31905 -0.393805,0.0448 -0.6332,0.0504 -0.864975,-0.0364 -0.231881,-0.0871 -0.456424,-0.26776 -0.821338,-0.59708 -0.325755,-0.29397 -0.543524,-0.53859 -0.71187,-0.83675 -0.16831,-0.2981 -0.286702,-0.64922 -0.412926,-1.15577 -0.250437,-1.00489 -0.441008,-2.13138 -0.572382,-3.32074 -0.13148,-1.18925 -0.204082,-3.37432 -0.217876,-4.63225 h -0.006 c -1.06e-4,-0.0653 0,-0.13067 0.006,-0.19597 0,-0.0653 -0.006,-0.13067 -0.006,-0.196 h 0.006 c 0.0127,-1.2579 0.08393,-5.31051 0.214242,-6.5 0.130281,-1.18953 0.319264,-2.31645 0.568784,-3.32158 0.125765,-0.50673 0.24391,-0.85757 0.412009,-1.15577 0.168063,-0.29828 0.386398,-0.54339 0.71187,-0.83771 0.364526,-0.32967 0.588575,-0.51072 0.82035,-0.59789 0.231775,-0.0873 0.471134,-0.0808 0.865046,-0.0368 0.294428,0.0332 0.638986,0.13843 1.038225,0.3181 0.399203,0.17967 0.853264,0.43353 1.368143,0.76472 1.800719,1.15849 2.700337,1.7375 3.255927,2.01898 0.277777,0.14087 0.469089,0.20691 0.64449,0.23432 0.175365,0.0272 0.334609,0.0162 0.54684,0 0.359234,-0.0261 0.57277,-0.0637 0.741081,-0.18412 0.168416,-0.1204 0.291818,-0.32349 0.471311,-0.68273 0.105269,-0.21082 0.178117,-0.42174 0.237843,-0.70739 l -0.206728,-7.005 z"
         style="fill:#d36a8b;fill-opacity:1;stroke:none;stroke-width:3.37654305;stroke-miterlimit:4;stroke-dasharray:none;stroke-opacity:1"
         inkscape:connector-curvature="0"
         sodipodi:nodetypes="ccccccccccscccccccccccscccccccccccccccccsccccscccccccccccscccccsccccccccc" />
      <rect
         inkscape:export-ydpi="42.094723"
         inkscape:export-xdpi="42.094723"
         inkscape:export-filename="/home/peter/allblocks.png"
         style="opacity:1;fill:#ffffff;fill-opacity:1;stroke:none;stroke-width:1.45317256;stroke-miterlimit:4;stroke-dasharray:none;stroke-opacity:1"
         id="rect2065"
         width="28.829399"
         height="2.509464"
         x="-118.92348"
         y="336.0881"
         transform="matrix(0.9999721,-0.00747,0.02696542,0.99963637,0,0)"
         ry="1.254732"
         rx="2.516849" />
      <rect
         inkscape:export-ydpi="42.094723"
         inkscape:export-xdpi="42.094723"
         inkscape:export-filename="/home/peter/allblocks.png"
         rx="1.4116662"
         ry="1.2262005"
         transform="matrix(0.9999967,0.00256827,-0.02301919,0.99973502,0,0)"
         y="337.22119"
         x="-120.40588"
         height="2.4524009"
         width="16.333469"
         id="rect2067"
         style="opacity:1;fill:#ffffff;fill-opacity:1;stroke:none;stroke-width:1.68709791;stroke-miterlimit:4;stroke-dasharray:none;stroke-opacity:1" />
      <text
         inkscape:export-ydpi="42.094723"
         inkscape:export-xdpi="42.094723"
         inkscape:export-filename="/home/peter/allblocks.png"
         id="text2071"
         y="360.66812"
         x="-124.2066"
         style="font-style:normal;font-variant:normal;font-weight:normal;font-stretch:normal;font-size:23.3712101px;line-height:1.25;font-family:'Bebas Neue';-inkscape-font-specification:'Bebas Neue';text-align:center;letter-spacing:0px;word-spacing:0px;text-anchor:middle;fill:#ffffff;fill-opacity:1;stroke:none;stroke-width:1.25202906"
         xml:space="preserve"><tspan
           style="font-style:normal;font-variant:normal;font-weight:normal;font-stretch:normal;font-family:Digitalt;-inkscape-font-specification:Digitalt;fill:#ffffff;stroke-width:1.25202906"
           y="360.66812"
           x="-124.2066"
           id="tspan2069"
           sodipodi:role="line">text</tspan></text>
      <text
         inkscape:export-ydpi="42.094723"
         inkscape:export-xdpi="42.094723"
         inkscape:export-filename="/home/peter/allblocks.png"
         xml:space="preserve"
         style="font-style:normal;font-variant:normal;font-weight:normal;font-stretch:normal;font-size:23.3712101px;line-height:1.25;font-family:'Bebas Neue';-inkscape-font-specification:'Bebas Neue';text-align:center;letter-spacing:0px;word-spacing:0px;text-anchor:middle;fill:#ffffff;fill-opacity:1;stroke:none;stroke-width:1.25202906"
         x="-115.19147"
         y="399.87054"
         id="text2075"><tspan
           sodipodi:role="line"
           id="tspan2073"
           x="-115.19147"
           y="399.87054"
           style="font-style:normal;font-variant:normal;font-weight:normal;font-stretch:normal;font-family:Digitalt;-inkscape-font-specification:Digitalt;fill:#ffffff;stroke-width:1.25202906">at</tspan></text>
      <rect
         style="opacity:0.5;fill:#e6e6e6;fill-opacity:1;stroke:none;stroke-width:15.21128368;stroke-miterlimit:4;stroke-dasharray:none;stroke-opacity:1"
         id="rect2077"
         width="147.37617"
         height="24.769279"
         x="-297.36478"
         y="340.1033"
         rx="6.179636"
         ry="5.448987" />
      <text
         xml:space="preserve"
         style="font-style:normal;font-variant:normal;font-weight:normal;font-stretch:normal;font-size:23.3712101px;line-height:1.25;font-family:'Bebas Neue';-inkscape-font-specification:'Bebas Neue';text-align:center;letter-spacing:0px;word-spacing:0px;text-anchor:middle;fill:#000000;fill-opacity:1;stroke:none;stroke-width:1.25202906"
         x="-224.12175"
         y="360.66785"
         id="text2081"><tspan
           sodipodi:role="line"
           id="tspan2079"
           x="-224.12175"
           y="360.66785"
           style="font-style:normal;font-variant:normal;font-weight:normal;font-stretch:normal;font-family:Digitalt;-inkscape-font-specification:Digitalt;fill:#000000;stroke-width:1.25202906">split at first</tspan></text>
    </g>
  </g>
</svg>
