<?xml version="1.0" encoding="UTF-8" standalone="no"?>
<!-- Created with Inkscape (http://www.inkscape.org/) -->

<svg
   xmlns:dc="http://purl.org/dc/elements/1.1/"
   xmlns:cc="http://creativecommons.org/ns#"
   xmlns:rdf="http://www.w3.org/1999/02/22-rdf-syntax-ns#"
   xmlns:svg="http://www.w3.org/2000/svg"
   xmlns="http://www.w3.org/2000/svg"
   xmlns:sodipodi="http://sodipodi.sourceforge.net/DTD/sodipodi-0.dtd"
   xmlns:inkscape="http://www.inkscape.org/namespaces/inkscape"
   width="230.84666mm"
   height="79.42067mm"
   viewBox="0 0 230.84667 79.420671"
   version="1.1"
   id="svg2283"
   inkscape:version="0.92.3 (2405546, 2018-03-11)"
   sodipodi:docname="text_split_at_first.svg">
  <defs
     id="defs2277" />
  <sodipodi:namedview
     id="base"
     pagecolor="#ffffff"
     bordercolor="#666666"
     borderopacity="1.0"
     inkscape:pageopacity="0.0"
     inkscape:pageshadow="2"
     inkscape:zoom="0.35"
     inkscape:cx="844.40195"
     inkscape:cy="993.22417"
     inkscape:document-units="mm"
     inkscape:current-layer="layer1"
     showgrid="false"
     fit-margin-top="0"
     fit-margin-left="0"
     fit-margin-right="0"
     fit-margin-bottom="0"
     inkscape:window-width="1920"
     inkscape:window-height="1001"
     inkscape:window-x="0"
     inkscape:window-y="0"
     inkscape:window-maximized="1" />
  <metadata
     id="metadata2280">
    <rdf:RDF>
      <cc:Work
         rdf:about="">
        <dc:format>image/svg+xml</dc:format>
        <dc:type
           rdf:resource="http://purl.org/dc/dcmitype/StillImage" />
        <dc:title></dc:title>
      </cc:Work>
    </rdf:RDF>
  </metadata>
  <g
     inkscape:label="Layer 1"
     inkscape:groupmode="layer"
     id="layer1"
     transform="translate(308.08134,-332.20319)">
    <g
       id="g5750"
       transform="matrix(0.35277777,0,0,-0.35277777,-1594.173,2248.4326)">
      <path
         inkscape:export-ydpi="42.094723"
         inkscape:export-xdpi="42.094723"
         inkscape:export-filename="/home/peter/allblocks.png"
         sodipodi:nodetypes="ccccscccccccccccccccccccccccccccccccccccsccsccccccccccccccccccccccccccccccccccsccccccccccsccccc"
         inkscape:connector-curvature="0"
         style="fill:#bd295d;fill-opacity:1;stroke:#97234b;stroke-width:9.57130337;stroke-miterlimit:4;stroke-dasharray:none;stroke-opacity:1"
         d="m 4252.4303,5427.0137 -567.5624,-0.5323 -0.143,-15.0376 c -0.1286,-13.6814 -0.2442,-15.2425 -1.2816,-17.3297 -1.0131,-2.0389 -1.3953,-2.3138 -3.4313,-2.465 -2.4066,-0.1787 -2.3979,-0.1837 -12.6195,6.3639 -2.9228,1.8723 -5.1567,2.8727 -6.8263,3.0566 -2.2334,0.2462 -2.7118,0.063 -4.7748,-1.8086 -1.842,-1.6723 -2.4656,-2.7844 -3.173,-5.6586 -1.4031,-5.7009 -2.1233,-12.7739 -2.1808,-19.9056 h -0.017 c 8e-4,-0.1853 0.017,-0.3704 0.017,-0.5557 -9e-4,-0.1851 -0.017,-0.3675 0,-0.5528 h 0.017 c 0.094,-7.1314 0.848,-14.2015 2.2788,-19.8954 0.7215,-2.8707 1.3515,-3.9799 3.2014,-5.6432 2.0723,-1.8629 2.5495,-2.0436 4.7826,-1.7855 1.6688,0.1922 3.8973,1.2039 6.811,3.0904 10.1895,6.5972 10.1811,6.5929 12.5884,6.4261 2.0366,-0.1412 2.4209,-0.4132 3.4442,-2.447 1.0475,-2.0823 1.169,-3.644 1.3642,-17.3245 l 0.2145,-123.517 567.5678,0.5322 42.1731,0.1041 0.046,31.7036 c -0.077,0.2129 -0.1253,0.4623 -0.2224,0.6589 -0.5095,1.0179 -0.8609,1.597 -1.3384,1.9378 -0.4776,0.3409 -1.0824,0.4443 -2.1007,0.5168 -0.6016,0.043 -1.0505,0.074 -1.5477,0 -0.497,-0.077 -1.0424,-0.2669 -1.8294,-0.6667 -1.5741,-0.7995 -4.1228,-2.4421 -9.224,-5.7308 -1.4588,-0.9406 -2.7447,-1.6625 -3.8759,-2.1731 -1.1311,-0.5103 -2.1059,-0.8098 -2.9403,-0.9044 -1.1165,-0.1269 -1.7949,-0.1428 -2.4521,0.1042 -0.6572,0.247 -1.2937,0.759 -2.3281,1.6925 -0.9234,0.8334 -1.5406,1.527 -2.0179,2.372 -0.4771,0.8449 -0.8124,1.8401 -1.1705,3.2763 -0.7098,2.8483 -1.2501,6.0414 -1.6226,9.4128 -0.3727,3.3711 -0.5784,6.9194 -0.6175,10.4851 h -0.017 c -4e-4,0.1851 0,0.3704 0,0.5556 0,0.185 -0.017,0.3703 -0.017,0.5554 h 0.017 c 0.036,3.566 0.2378,7.116 0.6071,10.4878 0.3695,3.3718 0.9053,6.5664 1.6125,9.4155 0.3566,1.4363 0.6916,2.4307 1.168,3.2762 0.4763,0.8455 1.0953,1.5403 2.0179,2.3745 1.0331,0.9345 1.6685,1.4479 2.3254,1.695 0.6569,0.2473 1.3356,0.2287 2.4522,0.1041 0.8344,-0.094 1.8112,-0.3922 2.9428,-0.9016 1.1317,-0.5095 2.4186,-1.2289 3.8783,-2.168 5.1043,-3.2837 7.6546,-4.9251 9.2295,-5.7231 0.7874,-0.3989 1.3293,-0.5863 1.8267,-0.664 0.4973,-0.077 0.9487,-0.044 1.5502,0 1.0183,0.074 1.6235,0.1805 2.1007,0.522 0.4772,0.3413 0.8273,0.9168 1.336,1.9352 0.1376,0.2742 0.2064,0.625 0.3101,0.9199 l 0.044,30.8791 0.036,24.0582 0.017,9.1053 c -0.1605,0.6475 -0.3275,1.2183 -0.5867,1.7362 -0.5096,1.0179 -0.8608,1.597 -1.3385,1.9381 -0.4775,0.3406 -1.0823,0.444 -2.1006,0.5166 -0.6018,0.043 -1.0506,0.076 -1.5477,0 -0.4972,-0.077 -1.0424,-0.2668 -1.8293,-0.6667 -1.5742,-0.7995 -4.1229,-2.4422 -9.2243,-5.7309 -1.4586,-0.9404 -2.7447,-1.6625 -3.8757,-2.1728 -1.1312,-0.5105 -2.106,-0.8101 -2.9404,-0.9044 -1.1164,-0.127 -1.7949,-0.1429 -2.452,0.1041 -0.6573,0.2467 -1.2937,0.7587 -2.3279,1.6922 -0.9236,0.8334 -1.541,1.527 -2.0182,2.3721 -0.4771,0.8448 -0.8124,1.8401 -1.1705,3.2763 -0.7099,2.8482 -1.2501,6.0416 -1.6225,9.4128 -0.3727,3.3711 -0.5784,6.9193 -0.6175,10.485 h -0.017 c -4e-4,0.1853 0,0.3705 0.017,0.5557 0,0.1851 -0.017,0.3704 -0.017,0.5555 h 0.017 c 0.036,3.5658 0.2378,7.1158 0.6072,10.4876 0.3693,3.3719 0.905,6.5665 1.6125,9.4155 0.3564,1.4364 0.6913,2.4308 1.1677,3.2762 0.4764,0.8456 1.0954,1.5403 2.018,2.3745 1.0333,0.9345 1.6684,1.4479 2.3255,1.6952 0.6569,0.2471 1.3354,0.2285 2.4519,0.1042 0.8347,-0.094 1.8113,-0.3925 2.9431,-0.9019 1.1316,-0.5094 2.4186,-1.2287 3.8782,-2.1678 5.1044,-3.2838 7.6544,-4.9252 9.2295,-5.7232 0.7873,-0.399 1.3295,-0.5863 1.8268,-0.6641 0.4971,-0.077 0.9484,-0.046 1.55,0 1.0184,0.074 1.6236,0.1807 2.1009,0.522 0.4772,0.3413 0.827,0.9168 1.3358,1.9352 0.2984,0.5977 0.5049,1.1957 0.6743,2.0051 l 0.044,29.7889 -42.7469,0.4677 z"
         id="path2061" />
      <path
         inkscape:export-ydpi="42.094723"
         inkscape:export-xdpi="42.094723"
         inkscape:export-filename="/home/peter/allblocks.png"
         id="path2063"
         d="m 3689.4684,5421.3764 c 130.0512,-96.8329 491.2831,-193.839 559.9499,-204.1657 l 42.1731,-0.1694 0.6761,21.4985 c -0.077,0.213 -0.1253,0.4624 -0.2222,0.6589 -0.5096,1.0181 -0.8609,1.5969 -1.3384,1.9379 -0.4777,0.341 -1.0824,0.4441 -2.1007,0.5168 -0.6019,0.043 -1.0505,0.074 -1.5478,0 -0.4971,-0.077 -1.0423,-0.2669 -1.8294,-0.6667 -1.5741,-0.7997 -4.1229,-2.4424 -9.224,-5.7309 -1.4587,-0.9404 -2.7446,-1.6625 -3.8757,-2.173 -1.1313,-0.5104 -2.106,-0.8099 -2.9405,-0.9043 -1.1166,-0.1271 -1.7949,-0.143 -2.4522,0.1041 -0.6572,0.2467 -1.2937,0.7588 -2.328,1.6923 -0.9234,0.8335 -1.5405,1.5269 -2.0178,2.3721 -0.4772,0.845 -0.8124,1.8401 -1.1705,3.2762 -0.7099,2.8483 -1.2501,6.0416 -1.6227,9.4129 -0.3726,3.3712 -0.5784,6.9193 -0.6175,10.4852 h -0.017 c -5e-4,0.185 0,0.3702 0,0.5554 0,0.1851 -0.017,0.3704 -0.017,0.5555 h 0.017 c 0.036,3.5658 0.2378,17.6993 0.6071,21.071 0.3695,3.372 0.9054,6.5666 1.6124,9.4154 0.3565,1.4366 0.6914,2.431 1.1679,3.2766 0.4765,0.8454 1.0954,1.5402 2.0181,2.3745 1.0331,0.9343 1.6685,1.4478 2.3253,1.6949 0.6568,0.2471 1.3355,0.2286 2.452,0.1041 0.8347,-0.094 1.8113,-0.3925 2.943,-0.9016 1.1317,-0.5095 2.4187,-1.229 3.8784,-2.168 5.1042,-3.2838 7.6545,-4.9252 9.2292,-5.7231 0.7875,-0.3991 1.3296,-0.5863 1.827,-0.6639 0.4972,-0.078 0.9486,-0.044 1.5502,0 1.0181,0.074 1.6235,0.1804 2.1007,0.5218 0.4773,0.3413 0.8272,0.9168 1.3357,1.9352 0.1376,0.2743 0.2066,0.6251 0.3101,0.9199 l 0.044,28.2335 0.036,16.1204 0.017,9.1053 c -0.1605,0.6478 -0.3271,1.2185 -0.5865,1.7364 -0.5096,1.018 -0.8608,1.597 -1.3384,1.9378 -0.4775,0.341 -1.0823,0.4441 -2.1006,0.5169 -0.6019,0.043 -1.0506,0.076 -1.5477,0 -0.4973,-0.077 -1.0424,-0.2669 -1.8293,-0.6667 -1.5742,-0.7995 -4.1232,-2.4423 -9.2245,-5.731 -1.4585,-0.9403 -2.7446,-1.6625 -3.8755,-2.1729 -1.1313,-0.5105 -2.106,-0.8099 -2.9405,-0.9044 -1.1163,-0.1271 -1.7949,-0.1428 -2.4519,0.1031 -0.6573,0.2469 -1.2938,0.759 -2.3282,1.6925 -0.9234,0.8333 -1.5407,1.5267 -2.0179,2.3719 -0.4771,0.845 -0.8127,1.8403 -1.1705,3.2762 -0.7099,2.8485 -1.2501,6.0417 -1.6225,9.4131 -0.3727,3.3711 -0.5785,9.565 -0.6176,13.1308 h -0.017 c -3e-4,0.1851 0,0.3704 0.017,0.5555 0,0.185 -0.017,0.3704 -0.017,0.5556 h 0.017 c 0.036,3.5657 0.2379,15.0534 0.6073,18.4252 0.3693,3.3719 0.905,6.5663 1.6123,9.4155 0.3565,1.4364 0.6914,2.4309 1.1679,3.2762 0.4764,0.8455 1.0953,1.5403 2.0179,2.3746 1.0333,0.9345 1.6684,1.4477 2.3254,1.6948 0.657,0.2474 1.3355,0.2289 2.4521,0.1042 0.8346,-0.094 1.8113,-0.3924 2.943,-0.9017 1.1316,-0.5093 2.4187,-1.2289 3.8782,-2.1677 5.1044,-3.2839 7.6545,-4.9252 9.2294,-5.7231 0.7874,-0.3993 1.3297,-0.5865 1.8269,-0.6642 0.4971,-0.077 0.9485,-0.046 1.5501,0 1.0183,0.074 1.6236,0.1807 2.1007,0.5219 0.4774,0.3413 0.8272,0.917 1.336,1.9353 0.2984,0.5976 0.5049,1.1955 0.6742,2.0052 l -0.586,19.8567 z"
         style="fill:#d36a8b;fill-opacity:1;stroke:none;stroke-width:9.57130337;stroke-miterlimit:4;stroke-dasharray:none;stroke-opacity:1"
         inkscape:connector-curvature="0"
         sodipodi:nodetypes="ccccccccccscccccccccccscccccccccccccccccsccccscccccccccccscccccsccccccccc" />
      <rect
         inkscape:export-ydpi="42.094723"
         inkscape:export-xdpi="42.094723"
         inkscape:export-filename="/home/peter/allblocks.png"
         style="opacity:1;fill:#ffffff;fill-opacity:1;stroke:none;stroke-width:4.11922932;stroke-miterlimit:4;stroke-dasharray:none;stroke-opacity:1"
         id="rect2065"
         width="81.72113"
         height="7.1134415"
         x="4352.9224"
         y="-5388.0903"
         transform="matrix(0.9999721,0.00747001,0.02696542,-0.99963637,0,0)"
         ry="3.5567207"
         rx="7.1343751" />
      <rect
         inkscape:export-ydpi="42.094723"
         inkscape:export-xdpi="42.094723"
         inkscape:export-filename="/home/peter/allblocks.png"
         rx="4.0015736"
         ry="3.4758439"
         transform="matrix(0.9999967,-0.00256827,-0.0230192,-0.99973502,0,0)"
         y="-5430.5278"
         x="4030.6116"
         height="6.9516878"
         width="46.299599"
         id="rect2067"
         style="opacity:1;fill:#ffffff;fill-opacity:1;stroke:none;stroke-width:4.78232479;stroke-miterlimit:4;stroke-dasharray:none;stroke-opacity:1" />
      <text
         inkscape:export-ydpi="42.094723"
         inkscape:export-xdpi="42.094723"
         inkscape:export-filename="/home/peter/allblocks.png"
         transform="scale(1,-1)"
         id="text2071"
         y="-5351.1436"
         x="4166.834"
         style="font-style:normal;font-variant:normal;font-weight:normal;font-stretch:normal;font-size:66.24909973px;line-height:1.25;font-family:'Bebas Neue';-inkscape-font-specification:'Bebas Neue';text-align:center;letter-spacing:0px;word-spacing:0px;text-anchor:middle;fill:#ffffff;fill-opacity:1;stroke:none;stroke-width:3.54905891"
         xml:space="preserve"><tspan
           style="font-style:normal;font-variant:normal;font-weight:normal;font-stretch:normal;font-family:PAGRevolucionW00-Regular;-inkscape-font-specification:PAGRevolucionW00-Regular;fill:#ffffff;stroke-width:3.54905891"
           y="-5351.1436"
           x="4166.834"
           id="tspan2069"
           sodipodi:role="line">text</tspan></text>
      <text
         inkscape:export-ydpi="42.094723"
         inkscape:export-xdpi="42.094723"
         inkscape:export-filename="/home/peter/allblocks.png"
         xml:space="preserve"
         style="font-style:normal;font-variant:normal;font-weight:normal;font-stretch:normal;font-size:66.24909973px;line-height:1.25;font-family:'Bebas Neue';-inkscape-font-specification:'Bebas Neue';text-align:center;letter-spacing:0px;word-spacing:0px;text-anchor:middle;fill:#ffffff;fill-opacity:1;stroke:none;stroke-width:3.54905891"
         x="4192.3887"
         y="-5240.0186"
         id="text2075"
         transform="scale(1,-1)"><tspan
           sodipodi:role="line"
           id="tspan2073"
           x="4192.3887"
           y="-5240.0186"
           style="font-style:normal;font-variant:normal;font-weight:normal;font-stretch:normal;font-family:PAGRevolucionW00-Regular;-inkscape-font-specification:PAGRevolucionW00-Regular;fill:#ffffff;stroke-width:3.54905891">at</tspan></text>
      <g
         inkscape:export-ydpi="42.094723"
         inkscape:export-xdpi="42.094723"
         inkscape:export-filename="/home/peter/allblocks.png"
         transform="matrix(1.7638893,0,0,1.7638893,8162.2665,769.71158)"
         id="g2091">
        <rect
           ry="8.7567558"
           rx="9.0649633"
           transform="scale(1,-1)"
           y="-2630.3953"
           x="-2522.7468"
           height="39.805294"
           width="216.18741"
           id="rect2077"
           style="opacity:0.5;fill:#e6e6e6;fill-opacity:1;stroke:none;stroke-width:23.35507011;stroke-miterlimit:4;stroke-dasharray:none;stroke-opacity:1" />
        <text
           transform="scale(1,-1)"
           id="text2081"
           y="-2597.3472"
           x="-2415.1267"
           style="font-style:normal;font-variant:normal;font-weight:normal;font-stretch:normal;font-size:37.55853653px;line-height:1.25;font-family:'Bebas Neue';-inkscape-font-specification:'Bebas Neue';text-align:center;letter-spacing:0px;word-spacing:0px;text-anchor:middle;fill:#000000;fill-opacity:1;stroke:none;stroke-width:2.01206446"
           xml:space="preserve"><tspan
             style="font-style:normal;font-variant:normal;font-weight:normal;font-stretch:normal;font-family:PAGRevolucionW00-Regular;-inkscape-font-specification:PAGRevolucionW00-Regular;fill:#000000;stroke-width:2.01206446"
             y="-2597.3472"
             x="-2415.1267"
             id="tspan2079"
             sodipodi:role="line">split at first</tspan></text>
      </g>
    </g>
  </g>
</svg>
