<?xml version="1.0" encoding="UTF-8" standalone="no"?>
<!-- Created with Inkscape (http://www.inkscape.org/) -->

<svg
   xmlns:dc="http://purl.org/dc/elements/1.1/"
   xmlns:cc="http://creativecommons.org/ns#"
   xmlns:rdf="http://www.w3.org/1999/02/22-rdf-syntax-ns#"
   xmlns:svg="http://www.w3.org/2000/svg"
   xmlns="http://www.w3.org/2000/svg"
   xmlns:sodipodi="http://sodipodi.sourceforge.net/DTD/sodipodi-0.dtd"
   xmlns:inkscape="http://www.inkscape.org/namespaces/inkscape"
   width="306.44904mm"
   height="105.35903mm"
   viewBox="0 0 306.44904 105.35904"
   version="1.1"
   id="svg2283"
   inkscape:version="0.92.3 (2405546, 2018-03-11)"
   sodipodi:docname="variables_initialize_local2.svg">
  <defs
     id="defs2277" />
  <sodipodi:namedview
     id="base"
     pagecolor="#ffffff"
     bordercolor="#666666"
     borderopacity="1.0"
     inkscape:pageopacity="0.0"
     inkscape:pageshadow="2"
     inkscape:zoom="0.35"
     inkscape:cx="7.5157757"
     inkscape:cy="631.72797"
     inkscape:document-units="mm"
     inkscape:current-layer="layer1"
     showgrid="false"
     fit-margin-top="0"
     fit-margin-left="0"
     fit-margin-right="0"
     fit-margin-bottom="0"
     inkscape:window-width="1920"
     inkscape:window-height="1001"
     inkscape:window-x="0"
     inkscape:window-y="0"
     inkscape:window-maximized="1" />
  <metadata
     id="metadata2280">
    <rdf:RDF>
      <cc:Work
         rdf:about="">
        <dc:format>image/svg+xml</dc:format>
        <dc:type
           rdf:resource="http://purl.org/dc/dcmitype/StillImage" />
        <dc:title />
      </cc:Work>
    </rdf:RDF>
  </metadata>
  <g
     inkscape:label="Layer 1"
     inkscape:groupmode="layer"
     id="layer1"
     transform="translate(225.37247,-754.90475)">
    <g
       id="g62">
      <path
         id="path2982"
         d="m -191.15625,756.59608 c -3.51917,0 -6.7669,6.53495 -9.68944,6.53556 -2.92255,0 -5.51943,-6.53192 -7.73693,-6.53192 h -5.45904 c 0,0 -10.17975,-0.40514 -9.62289,9.39771 l 0.007,9.39407 0.006,67.26345 c -0.54776,8.98417 9.63199,9.38861 9.63199,9.38861 h 5.45903 c 2.21751,0 4.81532,6.53257 7.73786,6.53192 2.92255,0 6.17028,-6.53556 9.6894,-6.53556 h 111.189363 12.618099 c 4.386939,0 8.947163,-0.30457 13.595265,0 h 14.24514 14.570566 H -10.34427 3.9018026 17.496135 30.114233 41.431604 51.121 c 2.922542,0 5.551159,-0.37373 7.736928,0 h 5.45908 l 14.875038,-0.007 0.04107,-14.42108 H 77.014564 71.555485 63.818557 54.129161 42.81179 30.193692 16.599359 2.3532863 -12.21728 -26.787847 -41.033033 -54.628252 -67.24635 h -82.25423 -9.6894 -7.73786 c -2.21746,0 -4.05502,0 -5.45903,0 0,0 -10.17975,-0.40439 -9.63199,-9.38857 l -0.007,-9.39411 -0.006,-9.39314 c -0.55686,-9.80285 9.62285,-9.39771 9.62285,-9.39771 h 5.45908 c 2.2175,0 4.81438,6.53192 7.73693,6.53192 2.92254,0 6.17027,-6.53556 9.68939,-6.53556 h 82.255119 12.618145 13.594332 14.245139 14.5715 14.5705667 14.2451393 13.595266 12.618098 11.316438 9.689396 7.737861 5.45908 l 2.347152,0.0299 0.04737,-16.55491 c -0.06179,-0.3265 -0.144536,-0.53731 -0.258876,-0.76571 -0.359496,-0.7182 -0.494791,-0.81471 -1.213222,-0.86591 -0.849153,-0.0604 -0.845419,-0.0626 -4.44453,2.25783 -1.029204,0.6635 -1.81666,1.01894 -2.40549,1.08558 -0.787689,0.0892 -0.956539,0.0252 -1.686311,-0.63349 -0.651507,-0.58799 -0.872301,-0.97936 -1.124784,-1.99256 -0.500857,-2.00969 -0.762674,-4.50464 -0.790302,-7.0205 h -0.0056 c -1.4e-4,-0.0653 0,-0.13068 0.0047,-0.19602 0,-0.0652 -0.0047,-0.13062 -0.0047,-0.19596 h 0.0056 c 0.0252,-2.51586 0.284031,-5.01124 0.782975,-7.02139 0.251549,-1.01348 0.47295,-1.40485 1.123897,-1.99349 0.729119,-0.65935 0.897642,-0.72282 1.685378,-0.63443 0.588923,0.0661 1.376612,0.42035 2.406423,1.08288 3.601351,2.31695 3.598177,2.31555 4.447283,2.25418 0.718338,-0.0523 0.853447,-0.14831 1.212289,-0.86684 0.114154,-0.22849 0.196526,-0.44 0.25799,-0.76659 l -0.0047,-10.4496 L 64.2958,756.593 H 58.83672 51.098859 41.409463 30.093025 17.474927 3.8796613 -10.365478 -24.936045 -39.506611 -53.752684 -67.347016 -79.965115 Z"
         style="fill:#dc5a3a;fill-opacity:1;stroke:#af4930;stroke-width:3.37654328;stroke-miterlimit:4;stroke-dasharray:none;stroke-opacity:1"
         inkscape:connector-curvature="0" />
      <path
         sodipodi:nodetypes="ccccccccccccccccscccccccc"
         inkscape:connector-curvature="0"
         id="path2984"
         d="m 78.212761,799.08467 0.20198,-0.20217 0.194656,-14.0934 c -0.06179,-0.3265 -0.144552,-0.53751 -0.25888,-0.76594 -0.35953,-0.71822 -0.494498,-0.81454 -1.212904,-0.86576 -0.84915,-0.0604 -1.234902,0.11687 -4.834041,2.43721 -1.029182,0.66352 -1.816267,1.01871 -2.405113,1.08535 -0.937038,-0.15115 -0.909527,-0.20846 -1.639278,-0.86712 -0.651501,-0.58797 -0.919608,-0.74572 -1.17214,-1.75894 -0.500858,-2.00966 -1.074688,-6.71563 -1.102323,-9.23149 l -0.0056,1.8e-4 c -1.37e-4,-0.0653 0.0025,-0.13042 0.0031,-0.19576 -6.22e-4,-0.0653 -0.0031,-0.13043 -0.0037,-0.19576 l 0.0056,-1.9e-4 c 0.0252,-2.51586 0.575784,-5.45306 1.074707,-7.46327 0.251549,-1.01342 0.47257,-1.40544 1.123498,-1.9941 0.729116,-0.65929 0.897649,-0.72269 1.6854,-0.63427 0.588901,0.0661 1.376317,0.42052 2.40614,1.08304 3.601372,2.31693 3.613369,2.44972 4.462469,2.38837 0.718357,-0.0523 0.853226,-0.14835 1.212065,-0.86688 0.114141,-0.22849 0.196715,-0.43962 0.258145,-0.76625 l -0.237343,-7.93849 -270.198389,0.12569 c 36.02498,24.01679 187.9152659,35.02919 252.747996,40.64802 z"
         style="fill:#ff7f2a;fill-opacity:1;stroke:none;stroke-width:3.37654328;stroke-miterlimit:4;stroke-dasharray:none;stroke-opacity:1" />
      <rect
         style="opacity:1;fill:#ffffff;fill-opacity:1;stroke:none;stroke-width:1.45317245;stroke-miterlimit:4;stroke-dasharray:none;stroke-opacity:1"
         id="rect2992"
         width="28.829397"
         height="2.509464"
         x="27.716555"
         y="759.87073"
         transform="matrix(0.9999721,-0.00747002,0.02696542,0.99963637,0,0)"
         ry="1.254732"
         rx="2.5168488" />
      <rect
         rx="1.4116662"
         ry="1.2262005"
         transform="matrix(0.9999967,0.00256826,-0.0230192,0.99973502,0,0)"
         y="759.45636"
         x="47.385441"
         height="2.4524009"
         width="16.333469"
         id="rect2994"
         style="opacity:1;fill:#ffffff;fill-opacity:1;stroke:none;stroke-width:1.68709779;stroke-miterlimit:4;stroke-dasharray:none;stroke-opacity:1" />
      <text
         xml:space="preserve"
         style="font-style:normal;font-variant:normal;font-weight:normal;font-stretch:normal;font-size:23.3712101px;line-height:1.25;font-family:'Bebas Neue';-inkscape-font-specification:'Bebas Neue';text-align:center;letter-spacing:0px;word-spacing:0px;text-anchor:middle;fill:#ffffff;fill-opacity:1;stroke:none;stroke-width:1.25202906"
         x="-199.80516"
         y="824.17053"
         id="text3068"><tspan
           sodipodi:role="line"
           id="tspan3066"
           x="-199.80516"
           y="824.17053"
           style="font-style:normal;font-variant:normal;font-weight:normal;font-stretch:normal;font-family:Digitalt;-inkscape-font-specification:Digitalt;fill:#ffffff;stroke-width:1.25202906">in</tspan></text>
      <rect
         style="opacity:0.5;fill:#e6e6e6;fill-opacity:1;stroke:none;stroke-width:10.17396164;stroke-miterlimit:4;stroke-dasharray:none;stroke-opacity:1"
         id="rect3070"
         width="65.928879"
         height="24.769279"
         x="-32.381424"
         y="763.94794"
         rx="2.7644663"
         ry="4.7677984" />
      <text
         id="text3074"
         y="784.51251"
         x="0.245039"
         style="font-style:normal;font-variant:normal;font-weight:normal;font-stretch:normal;font-size:23.3712101px;line-height:1.25;font-family:'Bebas Neue';-inkscape-font-specification:'Bebas Neue';text-align:center;letter-spacing:0px;word-spacing:0px;text-anchor:middle;fill:#000000;fill-opacity:1;stroke:none;stroke-width:1.25202906"
         xml:space="preserve"><tspan
           style="font-style:normal;font-variant:normal;font-weight:normal;font-stretch:normal;font-family:Digitalt;-inkscape-font-specification:Digitalt;fill:#000000;stroke-width:1.25202906"
           y="784.51251"
           x="0.24503876"
           id="tspan3072"
           sodipodi:role="line">name</tspan></text>
      <text
         xml:space="preserve"
         style="font-style:normal;font-variant:normal;font-weight:normal;font-stretch:normal;font-size:23.3712101px;line-height:1.25;font-family:'Bebas Neue';-inkscape-font-specification:'Bebas Neue';text-align:center;letter-spacing:0px;word-spacing:0px;text-anchor:middle;fill:#ffffff;fill-opacity:1;stroke:none;stroke-width:1.25202906"
         x="-110.72816"
         y="784.51251"
         id="text3078"><tspan
           sodipodi:role="line"
           id="tspan3076"
           x="-110.72816"
           y="784.51251"
           style="font-style:normal;font-variant:normal;font-weight:normal;font-stretch:normal;font-family:Digitalt;-inkscape-font-specification:Digitalt;fill:#ffffff;stroke-width:1.25202906">INITIALIZE LOcAL</tspan></text>
      <text
         id="text3082"
         y="784.51251"
         x="50.315014"
         style="font-style:normal;font-variant:normal;font-weight:normal;font-stretch:normal;font-size:23.3712101px;line-height:1.25;font-family:'Bebas Neue';-inkscape-font-specification:'Bebas Neue';text-align:center;letter-spacing:0px;word-spacing:0px;text-anchor:middle;fill:#ffffff;fill-opacity:1;stroke:none;stroke-width:1.25202906"
         xml:space="preserve"><tspan
           style="font-style:normal;font-variant:normal;font-weight:normal;font-stretch:normal;font-family:Digitalt;-inkscape-font-specification:Digitalt;fill:#ffffff;stroke-width:1.25202906"
           y="784.51251"
           x="50.315014"
           id="tspan3080"
           sodipodi:role="line">to</tspan></text>
      <g
         id="g3132"
         transform="matrix(0.62226092,0,0,-0.62226092,731.04344,843.99679)">
        <rect
           ry="11.329442"
           rx="11.68515"
           transform="scale(1,-1)"
           y="-125.71913"
           x="-1518.5787"
           height="37.757042"
           width="37.757042"
           id="rect3124"
           style="opacity:1;fill:#0032f5;fill-opacity:1;stroke:#ffffff;stroke-width:2;stroke-miterlimit:4;stroke-dasharray:none;stroke-opacity:1" />
        <g
           style="fill:#ffffff"
           transform="matrix(0.11942495,0.11749836,0.11749836,-0.11942495,-1518.7832,107.0828)"
           id="g3130">
          <title
             id="title3126">Layer 1</title>
          <path
             style="fill:#ffffff;fill-rule:evenodd;stroke-width:1.25;stroke-linejoin:round;stroke-miterlimit:4"
             inkscape:connector-curvature="0"
             stroke-miterlimit="4"
             id="path3128"
             d="M 80.476791,3.84649 C 66.996879,3.25614 49.271,8.71378 40.968238,14.63436 38.03176,18.11943 47.28662,32.97744 45.413699,34.58947 42.462371,35.942322 33.382819,45.597939 32.590228,47.735661 31.797599,49.873391 16.935759,40.913792 13.049699,42.36591 5.939909,53.431649 1.089979,71.845597 1.997059,81.937539 c 1.52907,4.278915 19.15685,3.980179 19.60162,6.397743 -0.330481,3.203857 3.432669,15.867478 4.885139,17.633048 1.45245,1.76557 -13.55446,9.76252 -13.92264,13.33971 6.340731,11.76687 19.97086,24.24561 29.298611,28.40882 4.515789,0.77728 12.895691,-14.58812 15.2416,-13.78716 2.65818,1.8555 15.638058,4.81479 17.904041,4.42639 2.26593,-0.38838 1.521027,16.4871 5.532372,19.1811 14.034286,0.58659 30.358768,-4.4645 38.702528,-10.32827 2.96069,-3.46496 -6.19522,-18.39219 -4.31113,-19.9914 2.96069,-1.33269 12.11372,-10.92926 12.92121,-13.06155 0.80746,-2.13227 15.34598,6.66174 19.6871,5.07951 7.51844,-11.24549 11.77134,-29.131788 10.83276,-39.220892 -1.54244,-4.2742 -19.17371,-3.921089 -19.62605,-6.337265 0.32046,-3.20488 -3.47602,-15.859871 -4.93398,-17.620972 -1.45795,-1.76112 12.93781,-9.36475 13.65398,-13.36388 C 141.27357,31.155051 128.28973,18.168011 118.98387,13.95708 114.47215,13.15669 106.02295,28.484659 103.68115,27.6717 101.03273,25.80259 88.057341,22.77175 85.789359,23.14853 83.521377,23.525321 83.91651,6.653721 80.47679,3.846491 Z m 1.355637,57.894042 c 10.671585,0 19.332872,8.589401 19.332872,19.169006 0,10.579605 -8.661287,19.169022 -19.332872,19.169022 -10.671646,0 -19.332939,-8.589417 -19.332939,-19.169022 0,-10.579605 8.661293,-19.169006 19.332939,-19.169006 z" />
        </g>
      </g>
    </g>
  </g>
</svg>
