<?xml version="1.0" encoding="UTF-8" standalone="no"?>
<!-- Created with Inkscape (http://www.inkscape.org/) -->

<svg
   xmlns:dc="http://purl.org/dc/elements/1.1/"
   xmlns:cc="http://creativecommons.org/ns#"
   xmlns:rdf="http://www.w3.org/1999/02/22-rdf-syntax-ns#"
   xmlns:svg="http://www.w3.org/2000/svg"
   xmlns="http://www.w3.org/2000/svg"
   xmlns:sodipodi="http://sodipodi.sourceforge.net/DTD/sodipodi-0.dtd"
   xmlns:inkscape="http://www.inkscape.org/namespaces/inkscape"
   width="284.05048mm"
   height="40.954224mm"
   viewBox="0 0 284.05048 40.954226"
   version="1.1"
   id="svg2283"
   inkscape:version="0.92.3 (2405546, 2018-03-11)"
   sodipodi:docname="variables_initialize_global.svg">
  <defs
     id="defs2277" />
  <sodipodi:namedview
     id="base"
     pagecolor="#ffffff"
     bordercolor="#666666"
     borderopacity="1.0"
     inkscape:pageopacity="0.0"
     inkscape:pageshadow="2"
     inkscape:zoom="0.35"
     inkscape:cx="371.57958"
     inkscape:cy="728.18136"
     inkscape:document-units="mm"
     inkscape:current-layer="layer1"
     showgrid="false"
     fit-margin-top="0"
     fit-margin-left="0"
     fit-margin-right="0"
     fit-margin-bottom="0"
     inkscape:window-width="1920"
     inkscape:window-height="1001"
     inkscape:window-x="0"
     inkscape:window-y="0"
     inkscape:window-maximized="1" />
  <metadata
     id="metadata2280">
    <rdf:RDF>
      <cc:Work
         rdf:about="">
        <dc:format>image/svg+xml</dc:format>
        <dc:type
           rdf:resource="http://purl.org/dc/dcmitype/StillImage" />
        <dc:title></dc:title>
      </cc:Work>
    </rdf:RDF>
  </metadata>
  <g
     inkscape:label="Layer 1"
     inkscape:groupmode="layer"
     id="layer1"
     transform="translate(182.98042,-814.59141)">
    <g
       id="g2965"
       transform="matrix(0.62226092,0,0,-0.62226092,664.95263,2225.972)"
       inkscape:export-filename="/home/peter/allblocks.png"
       inkscape:export-xdpi="42.094723"
       inkscape:export-ydpi="42.094723">
      <path
         style="fill:#dc5a3a;fill-opacity:1;stroke:#af4930;stroke-width:5.42624998;stroke-miterlimit:4;stroke-dasharray:none;stroke-opacity:1"
         d="m -909.21785,2205.0586 0.31652,17.1174 c -0.0993,0.5247 -0.23229,0.8639 -0.41603,1.2309 -0.57777,1.1542 -0.79467,1.3091 -1.94917,1.3914 -1.36464,0.097 -1.36005,0.1 -7.14401,-3.629 -1.65394,-1.0663 -2.91883,-1.6371 -3.86512,-1.7442 -1.26582,-0.1434 -1.53675,-0.041 -2.70948,1.0173 -1.047,0.9449 -1.40279,1.5746 -1.8086,3.2029 -0.80489,3.2296 -1.2251,7.2382 -1.26953,11.2813 l -0.009,-3e-4 c -2.2e-4,0.1049 0.004,0.2096 0.005,0.3146 -10e-4,0.1049 -0.006,0.2096 -0.006,0.3146 l 0.009,3e-4 c 0.0406,4.0431 0.45689,8.0527 1.25869,11.2831 0.40424,1.6287 0.75943,2.2586 1.80551,3.2046 1.17172,1.0596 1.44255,1.1614 2.70851,1.0193 0.94639,-0.1062 2.21181,-0.6758 3.86677,-1.7405 5.78755,-3.7234 5.78296,-3.7207 7.1475,-3.6221 1.15443,0.084 1.37117,0.2385 1.94784,1.3932 0.18343,0.3672 0.31613,0.7065 0.41485,1.2313 l -0.008,16.7925 -24.23388,0.3131 h -8.77335 -12.43399 -15.57169 -18.18644 -20.27825 -21.8471 -22.893 -23.4159 -23.4159 -22.893 -21.8471 -20.2782 -51.1864 -15.5717 -103.934 -8.7734 c 0,0 -16.3591,0.6504 -15.4642,-15.1032 l 0.01,-15.0958 0.01,-15.0958 c -0.8803,-14.438 15.4785,-15.0884 15.4785,-15.0884 h 8.7734 103.934 15.5717 51.1864 20.2782 21.8471 22.893 23.4159 23.4159 22.893 21.8471 20.27825 18.18644 15.57169 12.43399 8.77335 z"
         id="path2805"
         inkscape:connector-curvature="0"
         sodipodi:nodetypes="cccccccccccccccsccccccssssssssssssssscccccssssssssssssssscc" />
      <path
         sodipodi:nodetypes="ccccccccccccccccscccccccc"
         inkscape:connector-curvature="0"
         id="path2807"
         d="m -910.78982,2207.6488 0.32459,0.3249 0.31282,12.1487 c -0.0993,0.5247 -0.2323,0.8638 -0.41603,1.2309 -0.57778,1.1542 -0.79468,1.309 -1.94919,1.3913 -1.36462,0.097 -1.98454,-0.1878 -7.76851,-3.9167 -1.65394,-1.0663 -2.91882,-1.6371 -3.86512,-1.7442 -1.50586,0.2429 -1.46165,0.335 -2.63439,1.3935 -1.04699,0.9449 -1.47785,1.1984 -1.88368,2.8267 -0.8049,3.2296 -1.72707,10.7923 -1.77148,14.8354 l -0.009,-3e-4 c -2.2e-4,0.1049 0.004,0.2096 0.005,0.3146 -0.001,0.1049 -0.005,0.2096 -0.006,0.3146 l 0.009,3e-4 c 0.0405,4.0431 0.92531,8.7633 1.7271,11.9938 0.40425,1.6286 0.75944,2.2586 1.80551,3.2046 1.17172,1.0595 1.44256,1.1614 2.70851,1.0193 0.94639,-0.1062 2.2118,-0.6758 3.86677,-1.7405 5.78756,-3.7234 5.80684,-3.9368 7.17138,-3.8382 1.15443,0.084 1.37117,0.2384 1.94784,1.3931 0.18343,0.3672 0.31613,0.7065 0.41485,1.2314 l -0.38142,12.7575 -438.20063,-0.3287 c 70.1903,-28.8882 305.3209,-49.5498 410.1571,-54.6964 z"
         style="fill:#ff7f2a;fill-opacity:1;stroke:none;stroke-width:5.42624998;stroke-miterlimit:4;stroke-dasharray:none;stroke-opacity:1" />
      <rect
         style="opacity:0.5;fill:#e6e6e6;fill-opacity:1;stroke:none;stroke-width:16.34999275;stroke-miterlimit:4;stroke-dasharray:none;stroke-opacity:1"
         id="rect2809"
         width="105.95054"
         height="39.805294"
         x="-1089.6653"
         y="-2253.7031"
         transform="scale(1,-1)"
         rx="4.442616"
         ry="7.6620569" />
      <text
         transform="scale(1,-1)"
         id="text2813"
         y="-2220.655"
         x="-1037.2332"
         style="font-style:normal;font-variant:normal;font-weight:normal;font-stretch:normal;font-size:37.55853653px;line-height:1.25;font-family:'Bebas Neue';-inkscape-font-specification:'Bebas Neue';text-align:center;letter-spacing:0px;word-spacing:0px;text-anchor:middle;fill:#000000;fill-opacity:1;stroke:none;stroke-width:2.01206446"
         xml:space="preserve"><tspan
           style="font-style:normal;font-variant:normal;font-weight:normal;font-stretch:normal;font-family:PAGRevolucionW00-Regular;-inkscape-font-specification:PAGRevolucionW00-Regular;fill:#000000;stroke-width:2.01206446"
           y="-2220.655"
           x="-1037.2332"
           id="tspan2811"
           sodipodi:role="line">name</tspan></text>
      <rect
         style="opacity:1;fill:#ffffff;fill-opacity:1;stroke:none;stroke-width:2.33531046;stroke-miterlimit:4;stroke-dasharray:none;stroke-opacity:1"
         id="rect2815"
         width="46.330078"
         height="4.0328164"
         x="-897.86475"
         y="-2268.4753"
         transform="matrix(0.9999721,0.00747001,0.02696542,-0.99963637,0,0)"
         ry="2.0164082"
         rx="4.0446839" />
      <rect
         rx="2.2686081"
         ry="1.9705567"
         transform="matrix(0.9999967,-0.00256827,-0.0230192,-0.99973502,0,0)"
         y="-2258.8906"
         x="-1040.427"
         height="3.9411135"
         width="26.248585"
         id="rect2817"
         style="opacity:1;fill:#ffffff;fill-opacity:1;stroke:none;stroke-width:2.71123862;stroke-miterlimit:4;stroke-dasharray:none;stroke-opacity:1" />
      <text
         xml:space="preserve"
         style="font-style:normal;font-variant:normal;font-weight:normal;font-stretch:normal;font-size:37.55853653px;line-height:1.25;font-family:'Bebas Neue';-inkscape-font-specification:'Bebas Neue';text-align:center;letter-spacing:0px;word-spacing:0px;text-anchor:middle;fill:#ffffff;fill-opacity:1;stroke:none;stroke-width:2.01206446"
         x="-1222.2687"
         y="-2220.655"
         id="text2821"
         transform="scale(1,-1)"><tspan
           sodipodi:role="line"
           id="tspan2819"
           x="-1222.2687"
           y="-2220.655"
           style="font-style:normal;font-variant:normal;font-weight:normal;font-stretch:normal;font-family:PAGRevolucionW00-Regular;-inkscape-font-specification:PAGRevolucionW00-Regular;fill:#ffffff;stroke-width:2.01206446">INITIALIZE GLOBAL</tspan></text>
      <text
         transform="scale(1,-1)"
         id="text2825"
         y="-2220.655"
         x="-956.76855"
         style="font-style:normal;font-variant:normal;font-weight:normal;font-stretch:normal;font-size:37.55853653px;line-height:1.25;font-family:'Bebas Neue';-inkscape-font-specification:'Bebas Neue';text-align:center;letter-spacing:0px;word-spacing:0px;text-anchor:middle;fill:#ffffff;fill-opacity:1;stroke:none;stroke-width:2.01206446"
         xml:space="preserve"><tspan
           style="font-style:normal;font-variant:normal;font-weight:normal;font-stretch:normal;font-family:PAGRevolucionW00-Regular;-inkscape-font-specification:PAGRevolucionW00-Regular;fill:#ffffff;stroke-width:2.01206446"
           y="-2220.655"
           x="-956.76855"
           id="tspan2823"
           sodipodi:role="line">to</tspan></text>
    </g>
  </g>
</svg>
