<?xml version="1.0" encoding="UTF-8" standalone="no"?>
<!-- Created with Inkscape (http://www.inkscape.org/) -->

<svg
   xmlns:dc="http://purl.org/dc/elements/1.1/"
   xmlns:cc="http://creativecommons.org/ns#"
   xmlns:rdf="http://www.w3.org/1999/02/22-rdf-syntax-ns#"
   xmlns:svg="http://www.w3.org/2000/svg"
   xmlns="http://www.w3.org/2000/svg"
   xmlns:sodipodi="http://sodipodi.sourceforge.net/DTD/sodipodi-0.dtd"
   xmlns:inkscape="http://www.inkscape.org/namespaces/inkscape"
   width="319.59695mm"
   height="99.112846mm"
   viewBox="0 0 319.59696 99.112852"
   version="1.1"
   id="svg2283"
   inkscape:version="0.92.3 (2405546, 2018-03-11)"
   sodipodi:docname="variables_initialize_local.svg">
  <defs
     id="defs2277" />
  <sodipodi:namedview
     id="base"
     pagecolor="#ffffff"
     bordercolor="#666666"
     borderopacity="1.0"
     inkscape:pageopacity="0.0"
     inkscape:pageshadow="2"
     inkscape:zoom="0.35"
     inkscape:cx="111.25662"
     inkscape:cy="835.48127"
     inkscape:document-units="mm"
     inkscape:current-layer="layer1"
     showgrid="false"
     fit-margin-top="0"
     fit-margin-left="0"
     fit-margin-right="0"
     fit-margin-bottom="0"
     inkscape:window-width="1920"
     inkscape:window-height="1001"
     inkscape:window-x="0"
     inkscape:window-y="0"
     inkscape:window-maximized="1" />
  <metadata
     id="metadata2280">
    <rdf:RDF>
      <cc:Work
         rdf:about="">
        <dc:format>image/svg+xml</dc:format>
        <dc:type
           rdf:resource="http://purl.org/dc/dcmitype/StillImage" />
        <dc:title />
      </cc:Work>
    </rdf:RDF>
  </metadata>
  <g
     inkscape:label="Layer 1"
     inkscape:groupmode="layer"
     id="layer1"
     transform="translate(252.82057,-784.82256)">
    <g
       id="g62">
      <path
         sodipodi:nodetypes="ccccccccccccccccccccccccccccccccccccccccccccccccccccccccsccccccccccc"
         inkscape:connector-curvature="0"
         id="path2853"
         d="m 49.901876,786.51084 -288.896506,0.28991 -0.0442,5.30502 c -0.0386,4.82657 -0.0789,5.37752 -0.44386,6.11446 -0.35649,0.71965 -0.49046,0.81709 -1.20868,0.87142 -0.84889,0.0642 -0.84658,0.0654 -4.45545,-2.23964 -1.03208,-0.65916 -1.82011,-1.01049 -2.40921,-1.07465 -0.78803,-0.0859 -0.95654,-0.0218 -1.68352,0.63987 -0.64896,0.59078 -0.86843,0.98286 -1.11665,1.99715 -0.49227,2.01183 -0.74323,4.50815 -0.76022,7.02414 h -0.006 c 3.7e-4,0.0653 0.006,0.13062 0.006,0.19595 -1.8e-4,0.0653 0,0.12974 0,0.19508 h 0.007 c 0.0361,2.51574 0.30565,5.0097 0.81311,7.01774 0.25587,1.01235 0.47777,1.40307 1.13114,1.98893 0.73197,0.65617 0.90054,0.7202 1.68813,0.62805 0.5886,-0.0686 1.37489,-0.42694 2.40187,-1.09388 3.5915,-2.33217 3.58883,-2.33018 4.43821,-2.27237 0.71853,0.0492 0.85406,0.14437 1.2159,0.8614 0.3705,0.73402 0.41418,1.28565 0.48953,6.11166 l 0.0829,63.17435 288.896475,-0.29072 14.877742,-0.0554 0.04014,-16.99071 -249.745977,0.15862 -0.0757,-5.30497 c -0.0689,-4.82631 -0.11269,-5.37714 -0.48219,-6.11172 -0.36097,-0.71753 -0.49569,-0.81348 -1.21416,-0.8632 -0.84932,-0.0591 -0.84633,-0.0604 -4.44089,2.2669 -1.02791,0.66551 -1.81494,1.02237 -2.40366,1.0902 -0.78779,0.0911 -0.95611,0.0274 -1.6872,-0.62985 -0.65263,-0.58673 -0.87484,-0.97801 -1.12934,-1.99074 -0.50478,-2.00866 -0.77074,-4.50287 -0.80309,-7.01873 h -0.006 c 0,-0.0653 -3.1e-4,-0.12974 0,-0.19508 0,-0.0653 -0.006,-0.13061 -0.007,-0.19595 h 0.007 c 0.0199,-2.51592 0.27442,-5.01206 0.7693,-7.02321 0.24959,-1.01397 0.46962,-1.40631 1.11939,-1.99621 0.72786,-0.66066 0.89649,-0.724 1.68446,-0.63714 0.58897,0.065 1.37719,0.41779 2.40821,1.07832 3.60594,2.30983 3.60289,2.30815 4.45191,2.24506 0.71821,-0.0535 0.85299,-0.15034 1.21042,-0.86961 0.36595,-0.73632 0.40671,-1.28703 0.45213,-6.11353 l 0.0492,-5.30502 249.932864,-0.15768 0.03267,-13.95806 c -0.06277,-0.32632 -0.146449,-0.53764 -0.261586,-0.76563 -0.361826,-0.71703 -0.497355,-0.81255 -1.215973,-0.8614 -0.849292,-0.0579 -0.845745,-0.0597 -4.437249,2.27237 -1.02701,0.66694 -1.813256,1.0253 -2.401852,1.09388 -0.787316,0.0918 -0.95621,0.028 -1.688082,-0.62805 -0.653467,-0.58586 -0.876318,-0.97658 -1.132111,-1.98894 -0.507484,-2.00803 -0.777191,-4.50199 -0.813077,-7.01773 h -0.0065 c -3.73e-4,-0.0652 0,-0.13061 0,-0.19595 0,-0.0653 -0.0065,-0.13061 -0.0065,-0.19595 h 0.0065 c 0.0168,-2.51599 0.267927,-5.01237 0.760198,-7.02414 0.248239,-1.01429 0.468519,-1.40637 1.117506,-1.99715 0.726925,-0.66177 0.894656,-0.72574 1.682668,-0.63987 0.589157,0.0642 1.378109,0.41555 2.410066,1.07464 3.608958,2.30511 3.605691,2.30374 4.454561,2.23965 0.718151,-0.0541 0.853169,-0.15177 1.209582,-0.87142 0.113457,-0.22887 0.194848,-0.43981 0.255239,-0.76662 l -0.0392,-10.44957 z"
         style="fill:#dc5a3a;fill-opacity:1;stroke:#af4930;stroke-width:3.37654328;stroke-miterlimit:4;stroke-dasharray:none;stroke-opacity:1" />
      <path
         style="fill:#ff7f2a;fill-opacity:1;stroke:none;stroke-width:3.37654328;stroke-miterlimit:4;stroke-dasharray:none;stroke-opacity:1"
         d="m 63.942173,826.15365 0.201301,-0.20286 0.169815,-11.29378 c -0.06291,-0.32632 -0.146355,-0.53708 -0.261412,-0.76507 -0.361906,-0.71703 -0.497186,-0.81292 -1.215711,-0.86177 -0.849386,-0.0579 -1.234565,0.1209 -4.826006,2.45307 -1.027042,0.66688 -1.812958,1.02468 -2.401554,1.09326 -0.937499,-0.14804 -0.910181,-0.20548 -1.642147,-0.86171 -0.653374,-0.58586 -0.922004,-0.74273 -1.177878,-1.75509 -0.507453,-2.00803 -1.096797,-6.71202 -1.132701,-9.22782 l -0.0062,2.5e-4 c -3.11e-4,-0.0653 0,-0.13049 0,-0.19582 0,-0.0653 -0.0062,-0.13043 -0.0062,-0.1957 l 0.0062,-2.5e-4 c 0.0168,-2.51593 0.557857,-5.45493 1.05019,-7.46676 0.248158,-1.01422 0.46794,-1.407 1.116896,-1.99777 0.726925,-0.66171 0.895247,-0.72562 1.68334,-0.63981 0.589095,0.0642 1.377686,0.41598 2.409644,1.07514 3.608989,2.30504 3.621434,2.43784 4.470322,2.37368 0.718151,-0.0541 0.852746,-0.15121 1.209177,-0.87092 0.113439,-0.22886 0.195266,-0.44031 0.255625,-0.76706 l -0.263403,-7.93768 -300.915641,0.40926 c 36.10377,23.89812 236.92467414,34.97193 283.577959,37.62146 z"
         id="path2855"
         inkscape:connector-curvature="0"
         sodipodi:nodetypes="ccccccccccccccccscccccccc" />
      <rect
         style="opacity:1;fill:#ffffff;fill-opacity:1;stroke:none;stroke-width:1.45317245;stroke-miterlimit:4;stroke-dasharray:none;stroke-opacity:1"
         id="rect2861"
         width="28.829397"
         height="2.509464"
         x="12.532136"
         y="789.63861"
         transform="matrix(0.9999721,-0.00747002,0.02696542,0.99963637,0,0)"
         ry="1.254732"
         rx="2.5168488" />
      <rect
         rx="1.4116662"
         ry="1.2262005"
         transform="matrix(0.9999967,0.00256826,-0.0230192,0.99973502,0,0)"
         y="789.35638"
         x="33.690762"
         height="2.4524009"
         width="16.333469"
         id="rect2863"
         style="opacity:1;fill:#ffffff;fill-opacity:1;stroke:none;stroke-width:1.68709779;stroke-miterlimit:4;stroke-dasharray:none;stroke-opacity:1" />
      <text
         id="text2903"
         y="853.85291"
         x="-214.99942"
         style="font-style:normal;font-variant:normal;font-weight:normal;font-stretch:normal;font-size:23.3712101px;line-height:1.25;font-family:'Bebas Neue';-inkscape-font-specification:'Bebas Neue';text-align:center;letter-spacing:0px;word-spacing:0px;text-anchor:middle;fill:#ffffff;fill-opacity:1;stroke:none;stroke-width:1.25202906"
         xml:space="preserve"><tspan
           style="font-style:normal;font-variant:normal;font-weight:normal;font-stretch:normal;font-family:Digitalt;-inkscape-font-specification:Digitalt;fill:#ffffff;stroke-width:1.25202906"
           y="853.85291"
           x="-214.99942"
           id="tspan2901"
           sodipodi:role="line">in</tspan></text>
      <rect
         ry="4.7677984"
         rx="2.7644663"
         y="793.63031"
         x="-47.575687"
         height="24.769279"
         width="65.928879"
         id="rect2940"
         style="opacity:0.5;fill:#e6e6e6;fill-opacity:1;stroke:none;stroke-width:10.17396164;stroke-miterlimit:4;stroke-dasharray:none;stroke-opacity:1" />
      <text
         xml:space="preserve"
         style="font-style:normal;font-variant:normal;font-weight:normal;font-stretch:normal;font-size:23.3712101px;line-height:1.25;font-family:'Bebas Neue';-inkscape-font-specification:'Bebas Neue';text-align:center;letter-spacing:0px;word-spacing:0px;text-anchor:middle;fill:#000000;fill-opacity:1;stroke:none;stroke-width:1.25202906"
         x="-14.949221"
         y="814.19482"
         id="text2944"><tspan
           sodipodi:role="line"
           id="tspan2942"
           x="-14.949221"
           y="814.19482"
           style="font-style:normal;font-variant:normal;font-weight:normal;font-stretch:normal;font-family:Digitalt;-inkscape-font-specification:Digitalt;fill:#000000;stroke-width:1.25202906">name</tspan></text>
      <text
         id="text2948"
         y="814.19482"
         x="-125.92242"
         style="font-style:normal;font-variant:normal;font-weight:normal;font-stretch:normal;font-size:23.3712101px;line-height:1.25;font-family:'Bebas Neue';-inkscape-font-specification:'Bebas Neue';text-align:center;letter-spacing:0px;word-spacing:0px;text-anchor:middle;fill:#ffffff;fill-opacity:1;stroke:none;stroke-width:1.25202906"
         xml:space="preserve"><tspan
           style="font-style:normal;font-variant:normal;font-weight:normal;font-stretch:normal;font-family:Digitalt;-inkscape-font-specification:Digitalt;fill:#ffffff;stroke-width:1.25202906"
           y="814.19482"
           x="-125.92242"
           id="tspan2946"
           sodipodi:role="line">INITIALIZE LOcAL</tspan></text>
      <text
         xml:space="preserve"
         style="font-style:normal;font-variant:normal;font-weight:normal;font-stretch:normal;font-size:23.3712101px;line-height:1.25;font-family:'Bebas Neue';-inkscape-font-specification:'Bebas Neue';text-align:center;letter-spacing:0px;word-spacing:0px;text-anchor:middle;fill:#ffffff;fill-opacity:1;stroke:none;stroke-width:1.25202906"
         x="35.120754"
         y="814.19482"
         id="text2952"><tspan
           sodipodi:role="line"
           id="tspan2950"
           x="35.120754"
           y="814.19482"
           style="font-style:normal;font-variant:normal;font-weight:normal;font-stretch:normal;font-family:Digitalt;-inkscape-font-specification:Digitalt;fill:#ffffff;stroke-width:1.25202906">to</tspan></text>
      <g
         transform="matrix(0.62226092,0,0,-0.62226092,715.84918,871.81236)"
         id="g3106">
        <rect
           style="opacity:1;fill:#0032f5;fill-opacity:1;stroke:#ffffff;stroke-width:2;stroke-miterlimit:4;stroke-dasharray:none;stroke-opacity:1"
           id="rect3098"
           width="37.757042"
           height="37.757042"
           x="-1518.5787"
           y="-125.71913"
           transform="scale(1,-1)"
           rx="11.68515"
           ry="11.329442" />
        <g
           id="g3104"
           transform="matrix(0.11942495,0.11749836,0.11749836,-0.11942495,-1518.7832,107.0828)"
           style="fill:#ffffff">
          <title
             id="title3100">Layer 1</title>
          <path
             d="M 80.476791,3.84649 C 66.996879,3.25614 49.271,8.71378 40.968238,14.63436 38.03176,18.11943 47.28662,32.97744 45.413699,34.58947 42.462371,35.942322 33.382819,45.597939 32.590228,47.735661 31.797599,49.873391 16.935759,40.913792 13.049699,42.36591 5.939909,53.431649 1.089979,71.845597 1.997059,81.937539 c 1.52907,4.278915 19.15685,3.980179 19.60162,6.397743 -0.330481,3.203857 3.432669,15.867478 4.885139,17.633048 1.45245,1.76557 -13.55446,9.76252 -13.92264,13.33971 6.340731,11.76687 19.97086,24.24561 29.298611,28.40882 4.515789,0.77728 12.895691,-14.58812 15.2416,-13.78716 2.65818,1.8555 15.638058,4.81479 17.904041,4.42639 2.26593,-0.38838 1.521027,16.4871 5.532372,19.1811 14.034286,0.58659 30.358768,-4.4645 38.702528,-10.32827 2.96069,-3.46496 -6.19522,-18.39219 -4.31113,-19.9914 2.96069,-1.33269 12.11372,-10.92926 12.92121,-13.06155 0.80746,-2.13227 15.34598,6.66174 19.6871,5.07951 7.51844,-11.24549 11.77134,-29.131788 10.83276,-39.220892 -1.54244,-4.2742 -19.17371,-3.921089 -19.62605,-6.337265 0.32046,-3.20488 -3.47602,-15.859871 -4.93398,-17.620972 -1.45795,-1.76112 12.93781,-9.36475 13.65398,-13.36388 C 141.27357,31.155051 128.28973,18.168011 118.98387,13.95708 114.47215,13.15669 106.02295,28.484659 103.68115,27.6717 101.03273,25.80259 88.057341,22.77175 85.789359,23.14853 83.521377,23.525321 83.91651,6.653721 80.47679,3.846491 Z m 1.355637,57.894042 c 10.671585,0 19.332872,8.589401 19.332872,19.169006 0,10.579605 -8.661287,19.169022 -19.332872,19.169022 -10.671646,0 -19.332939,-8.589417 -19.332939,-19.169022 0,-10.579605 8.661293,-19.169006 19.332939,-19.169006 z"
             id="path3102"
             stroke-miterlimit="4"
             inkscape:connector-curvature="0"
             style="fill:#ffffff;fill-rule:evenodd;stroke-width:1.25;stroke-linejoin:round;stroke-miterlimit:4" />
        </g>
      </g>
    </g>
  </g>
</svg>
