<?xml version="1.0" encoding="UTF-8" standalone="no"?>
<!-- Created with Inkscape (http://www.inkscape.org/) -->

<svg
   xmlns:dc="http://purl.org/dc/elements/1.1/"
   xmlns:cc="http://creativecommons.org/ns#"
   xmlns:rdf="http://www.w3.org/1999/02/22-rdf-syntax-ns#"
   xmlns:svg="http://www.w3.org/2000/svg"
   xmlns="http://www.w3.org/2000/svg"
   xmlns:sodipodi="http://sodipodi.sourceforge.net/DTD/sodipodi-0.dtd"
   xmlns:inkscape="http://www.inkscape.org/namespaces/inkscape"
   width="198.17799mm"
   height="41.140388mm"
   viewBox="0 0 198.178 41.140391"
   version="1.1"
   id="svg2283"
   inkscape:version="0.92.3 (2405546, 2018-03-11)"
   sodipodi:docname="variables_get.svg">
  <defs
     id="defs2277" />
  <sodipodi:namedview
     id="base"
     pagecolor="#ffffff"
     bordercolor="#666666"
     borderopacity="1.0"
     inkscape:pageopacity="0.0"
     inkscape:pageshadow="2"
     inkscape:zoom="0.35"
     inkscape:cx="-15.208704"
     inkscape:cy="102.21613"
     inkscape:document-units="mm"
     inkscape:current-layer="layer1"
     showgrid="false"
     fit-margin-top="0"
     fit-margin-left="0"
     fit-margin-right="0"
     fit-margin-bottom="0"
     inkscape:window-width="1920"
     inkscape:window-height="1001"
     inkscape:window-x="0"
     inkscape:window-y="0"
     inkscape:window-maximized="1" />
  <metadata
     id="metadata2280">
    <rdf:RDF>
      <cc:Work
         rdf:about="">
        <dc:format>image/svg+xml</dc:format>
        <dc:type
           rdf:resource="http://purl.org/dc/dcmitype/StillImage" />
        <dc:title />
      </cc:Work>
    </rdf:RDF>
  </metadata>
  <g
     inkscape:label="Layer 1"
     inkscape:groupmode="layer"
     id="layer1"
     transform="translate(219.35995,-648.78528)">
    <g
       id="g2803"
       transform="matrix(0.62226092,0,0,-0.62226092,502.19768,2099.1991)"
       inkscape:export-filename="/home/peter/allblocks.png"
       inkscape:export-xdpi="42.094723"
       inkscape:export-ydpi="42.094723">
      <path
         style="fill:#dc5a3a;fill-opacity:1;stroke:#af4930;stroke-width:5.42624998;stroke-miterlimit:4;stroke-dasharray:none;stroke-opacity:1"
         d="m -843.9923,2267.8394 0.1777,60.0591 -24.2345,0.2656 -269.2703,-0.302 -0.08,-8.525 c -0.073,-7.7563 -0.1383,-8.6421 -0.7264,-9.8254 -0.5744,-1.1559 -0.7908,-1.3113 -1.9451,-1.397 -1.3643,-0.1014 -1.3597,-0.104 -7.1546,3.608 -1.657,1.0615 -2.9236,1.6286 -3.8701,1.733 -1.2663,0.1396 -1.5369,0.037 -2.7066,-1.0247 -1.0442,-0.948 -1.3982,-1.5786 -1.7992,-3.2081 -0.7954,-3.232 -1.204,-7.2424 -1.2366,-11.2856 h -0.01 c 5e-4,-0.105 0.01,-0.2096 0.01,-0.3146 -5e-4,-0.105 0,-0.2096 0,-0.3146 h 0.01 c 0.052,-4.043 0.4805,-8.0507 1.2916,-11.2787 0.4091,-1.6275 0.7661,-2.2564 1.8149,-3.1993 1.1749,-1.0561 1.4455,-1.1585 2.7115,-1.0121 0.9461,0.109 2.2098,0.6823 3.8617,1.7518 5.7766,3.7402 5.772,3.7376 7.1369,3.643 1.1546,-0.08 1.3718,-0.2345 1.9519,-1.3875 0.5938,-1.1805 0.6636,-2.0659 0.7743,-9.8219 l 0.1216,-8.5244 269.2704,0.3021 z"
         id="path2182"
         inkscape:connector-curvature="0"
         sodipodi:nodetypes="cccccccccccccccccccscccccc" />
      <path
         sodipodi:nodetypes="ccccc"
         inkscape:connector-curvature="0"
         id="path2184"
         d="m -845.5693,2270.4265 -0.4993,55.1399 -288.4745,-0.4084 c 57.9692,-38.4824 209.0077,-39.9349 260.5388,-54.6716 z"
         style="fill:#ff7f2a;fill-opacity:1;stroke:none;stroke-width:5.42624998;stroke-miterlimit:4;stroke-dasharray:none;stroke-opacity:1" />
      <rect
         rx="4.0446839"
         ry="2.0164082"
         transform="matrix(0.9999721,0.00747001,0.02696542,-0.99963637,0,0)"
         y="-2330.6831"
         x="-834.17181"
         height="4.0328164"
         width="46.330078"
         id="rect2192"
         style="opacity:1;fill:#ffffff;fill-opacity:1;stroke:none;stroke-width:2.33531046;stroke-miterlimit:4;stroke-dasharray:none;stroke-opacity:1" />
      <rect
         style="opacity:1;fill:#ffffff;fill-opacity:1;stroke:none;stroke-width:2.71123862;stroke-miterlimit:4;stroke-dasharray:none;stroke-opacity:1"
         id="rect2194"
         width="26.248585"
         height="3.9411135"
         x="-979.85736"
         y="-2321.7341"
         transform="matrix(0.9999967,-0.00256827,-0.0230192,-0.99973502,0,0)"
         ry="1.9705567"
         rx="2.2686081" />
      <text
         transform="scale(1,-1)"
         id="text2212"
         y="-2284.6729"
         x="-1098.8463"
         style="font-style:normal;font-variant:normal;font-weight:normal;font-stretch:normal;font-size:37.55853653px;line-height:1.25;font-family:'Bebas Neue';-inkscape-font-specification:'Bebas Neue';text-align:center;letter-spacing:0px;word-spacing:0px;text-anchor:middle;fill:#ffffff;fill-opacity:1;stroke:none;stroke-width:2.01206446"
         xml:space="preserve"><tspan
           style="font-style:normal;font-variant:normal;font-weight:normal;font-stretch:normal;font-family:Digitalt;-inkscape-font-specification:Digitalt;fill:#ffffff;stroke-width:2.01206446"
           y="-2284.6729"
           x="-1098.8463"
           id="tspan2210"
           sodipodi:role="line">GET</tspan></text>
      <g
         transform="translate(-6,-2.0200924)"
         id="g2778">
        <rect
           ry="12.192355"
           rx="8.7574501"
           transform="scale(1,-1)"
           y="-2319.9192"
           x="-1059.4125"
           height="39.805294"
           width="208.85365"
           id="rect2769"
           style="opacity:0.5;fill:#e6e6e6;fill-opacity:1;stroke:none;stroke-width:22.955513;stroke-miterlimit:4;stroke-dasharray:none;stroke-opacity:1" />
        <text
           xml:space="preserve"
           style="font-style:normal;font-variant:normal;font-weight:normal;font-stretch:normal;font-size:37.55853653px;line-height:1.25;font-family:'Bebas Neue';-inkscape-font-specification:'Bebas Neue';text-align:center;letter-spacing:0px;word-spacing:0px;text-anchor:middle;fill:#000000;fill-opacity:1;stroke:none;stroke-width:2.01206446"
           x="-956.78528"
           y="-2286.8711"
           id="text2773"
           transform="scale(1,-1)"><tspan
             sodipodi:role="line"
             id="tspan2771"
             x="-956.78528"
             y="-2286.8711"
             style="font-style:normal;font-variant:normal;font-weight:normal;font-stretch:normal;font-family:Digitalt;-inkscape-font-specification:Digitalt;fill:#000000;stroke-width:2.01206446">global name</tspan></text>
      </g>
    </g>
  </g>
</svg>
