<?xml version="1.0" encoding="UTF-8" standalone="no"?>
<!-- Created with Inkscape (http://www.inkscape.org/) -->

<svg
   xmlns:dc="http://purl.org/dc/elements/1.1/"
   xmlns:cc="http://creativecommons.org/ns#"
   xmlns:rdf="http://www.w3.org/1999/02/22-rdf-syntax-ns#"
   xmlns:svg="http://www.w3.org/2000/svg"
   xmlns="http://www.w3.org/2000/svg"
   xmlns:sodipodi="http://sodipodi.sourceforge.net/DTD/sodipodi-0.dtd"
   xmlns:inkscape="http://www.inkscape.org/namespaces/inkscape"
   width="296.75046mm"
   height="40.954216mm"
   viewBox="0 0 296.75046 40.954218"
   version="1.1"
   id="svg2283"
   inkscape:version="0.92.3 (2405546, 2018-03-11)"
   sodipodi:docname="variables_initialize_global.svg">
  <defs
     id="defs2277" />
  <sodipodi:namedview
     id="base"
     pagecolor="#ffffff"
     bordercolor="#666666"
     borderopacity="1.0"
     inkscape:pageopacity="0.0"
     inkscape:pageshadow="2"
     inkscape:zoom="0.35"
     inkscape:cx="-218.99196"
     inkscape:cy="728.18135"
     inkscape:document-units="mm"
     inkscape:current-layer="layer1"
     showgrid="false"
     fit-margin-top="0"
     fit-margin-left="0"
     fit-margin-right="0"
     fit-margin-bottom="0"
     inkscape:window-width="1920"
     inkscape:window-height="1001"
     inkscape:window-x="0"
     inkscape:window-y="0"
     inkscape:window-maximized="1" />
  <metadata
     id="metadata2280">
    <rdf:RDF>
      <cc:Work
         rdf:about="">
        <dc:format>image/svg+xml</dc:format>
        <dc:type
           rdf:resource="http://purl.org/dc/dcmitype/StillImage" />
        <dc:title></dc:title>
      </cc:Work>
    </rdf:RDF>
  </metadata>
  <g
     inkscape:label="Layer 1"
     inkscape:groupmode="layer"
     id="layer1"
     transform="translate(195.68039,-814.59141)">
    <g
       id="g41">
      <path
         style="fill:#dc5a3a;fill-opacity:1;stroke:#af4930;stroke-width:3.37654328;stroke-miterlimit:4;stroke-dasharray:none;stroke-opacity:1"
         d="m 99.181894,853.85021 0.196958,-10.65149 c -0.06179,-0.3265 -0.144545,-0.53757 -0.258879,-0.76594 -0.359524,-0.71822 -0.494492,-0.8146 -1.212892,-0.86582 -0.849162,-0.0604 -0.846306,-0.0622 -4.445439,2.25819 -1.029182,0.66351 -1.816273,1.0187 -2.405113,1.08535 -0.78767,0.0892 -0.956259,0.0255 -1.686003,-0.63303 -0.651507,-0.58797 -0.872902,-0.97981 -1.125421,-1.99304 -0.500852,-2.00965 -0.762332,-4.50405 -0.789979,-7.01991 l -0.0056,1.8e-4 c -1.36e-4,-0.0653 0.0025,-0.13042 0.0031,-0.19576 -6.23e-4,-0.0653 -0.0037,-0.13042 -0.0037,-0.19576 l 0.0056,-1.9e-4 c 0.02526,-2.51586 0.284304,-5.01088 0.783233,-7.02103 0.251543,-1.01348 0.472564,-1.40544 1.123498,-1.9941 0.729116,-0.65935 0.897643,-0.72269 1.6854,-0.63427 0.588902,0.0661 1.376323,0.42053 2.40614,1.08305 3.601366,2.31692 3.59851,2.31524 4.44761,2.25389 0.718357,-0.0523 0.853226,-0.14841 1.212065,-0.86694 0.114141,-0.22849 0.196715,-0.43962 0.258145,-0.76619 l -0.005,-10.44931 -15.079797,-0.19483 H 78.826507 71.089321 61.399667 50.082956 37.464594 23.869997 9.624578 -4.9462214 -19.517021 -33.76244 h -13.594597 -12.618331 -31.851296 -9.689656 -77.37404 -5.45935 c 0,0 -10.17963,-0.40472 -9.62276,9.39813 l 0.006,9.39352 0.006,9.39353 c -0.54778,8.9842 9.63167,9.38892 9.63167,9.38892 h 5.45934 77.37404 9.689659 31.851296 12.618332 13.594596 14.24542 14.5707991 14.5707995 14.2454194 13.594596 12.618363 11.316711 9.689654 7.737186 5.459313 z"
         id="path2805"
         inkscape:connector-curvature="0"
         sodipodi:nodetypes="cccccccccccccccsccccccssssssssssssssscccccssssssssssssssscc" />
      <path
         sodipodi:nodetypes="ccccccccccccccccscccccccc"
         inkscape:connector-curvature="0"
         id="path2807"
         d="m 98.203719,852.23843 0.201979,-0.20218 0.194656,-7.55966 c -0.06179,-0.3265 -0.144551,-0.53751 -0.258879,-0.76594 -0.35953,-0.71821 -0.494499,-0.81454 -1.212905,-0.86575 -0.84915,-0.0604 -1.234902,0.11686 -4.83404,2.43721 -1.029182,0.66352 -1.816268,1.0187 -2.405113,1.08535 -0.937038,-0.15115 -0.909528,-0.20846 -1.639278,-0.86712 -0.651501,-0.58798 -0.919609,-0.74572 -1.172141,-1.75895 -0.500857,-2.00965 -1.074688,-6.71562 -1.102322,-9.23149 l -0.0056,1.9e-4 c -1.37e-4,-0.0653 0.0025,-0.13043 0.0031,-0.19576 -6.23e-4,-0.0653 -0.0031,-0.13043 -0.0037,-0.19577 l 0.0056,-1.8e-4 c 0.0252,-2.51587 0.575785,-5.45306 1.074707,-7.46328 0.251549,-1.01341 0.47257,-1.40544 1.123498,-1.9941 0.729116,-0.65928 0.897649,-0.72269 1.6854,-0.63427 0.588902,0.0661 1.376317,0.42053 2.40614,1.08305 3.601373,2.31693 3.61337,2.44972 4.46247,2.38836 0.718356,-0.0523 0.853225,-0.14835 1.212064,-0.86687 0.114142,-0.22849 0.196716,-0.43963 0.258145,-0.76625 l -0.237342,-7.9385 -282.200138,0.20454 c 43.67668,17.976 199.514275,30.83291 264.749745,34.03543 z"
         style="fill:#ff7f2a;fill-opacity:1;stroke:none;stroke-width:3.37654328;stroke-miterlimit:4;stroke-dasharray:none;stroke-opacity:1" />
      <rect
         style="opacity:0.5;fill:#e6e6e6;fill-opacity:1;stroke:none;stroke-width:10.17396164;stroke-miterlimit:4;stroke-dasharray:none;stroke-opacity:1"
         id="rect2809"
         width="65.928879"
         height="24.769279"
         x="-13.103492"
         y="823.58063"
         rx="2.7644663"
         ry="4.7677984" />
      <text
         id="text2813"
         y="844.14514"
         x="19.522974"
         style="font-style:normal;font-variant:normal;font-weight:normal;font-stretch:normal;font-size:23.3712101px;line-height:1.25;font-family:'Bebas Neue';-inkscape-font-specification:'Bebas Neue';text-align:center;letter-spacing:0px;word-spacing:0px;text-anchor:middle;fill:#000000;fill-opacity:1;stroke:none;stroke-width:1.25202906"
         xml:space="preserve"><tspan
           style="font-style:normal;font-variant:normal;font-weight:normal;font-stretch:normal;font-family:Digitalt;-inkscape-font-specification:Digitalt;fill:#000000;stroke-width:1.25202906"
           y="844.14514"
           x="19.522974"
           id="tspan2811"
           sodipodi:role="line">name</tspan></text>
      <rect
         style="opacity:1;fill:#ffffff;fill-opacity:1;stroke:none;stroke-width:1.45317245;stroke-miterlimit:4;stroke-dasharray:none;stroke-opacity:1"
         id="rect2815"
         width="28.829397"
         height="2.509464"
         x="46.095375"
         y="819.71771"
         transform="matrix(0.9999721,-0.00747002,0.02696542,0.99963637,0,0)"
         ry="1.254732"
         rx="2.5168488" />
      <rect
         rx="1.4116662"
         ry="1.2262005"
         transform="matrix(0.9999967,0.00256826,-0.0230192,0.99973502,0,0)"
         y="819.10284"
         x="68.74926"
         height="2.4524009"
         width="16.333469"
         id="rect2817"
         style="opacity:1;fill:#ffffff;fill-opacity:1;stroke:none;stroke-width:1.68709779;stroke-miterlimit:4;stroke-dasharray:none;stroke-opacity:1" />
      <text
         xml:space="preserve"
         style="font-style:normal;font-variant:normal;font-weight:normal;font-stretch:normal;font-size:23.3712101px;line-height:1.25;font-family:'Bebas Neue';-inkscape-font-specification:'Bebas Neue';text-align:center;letter-spacing:0px;word-spacing:0px;text-anchor:middle;fill:#ffffff;fill-opacity:1;stroke:none;stroke-width:1.25202906"
         x="-103.02573"
         y="844.14514"
         id="text2821"><tspan
           sodipodi:role="line"
           id="tspan2819"
           x="-103.02573"
           y="844.14514"
           style="font-style:normal;font-variant:normal;font-weight:normal;font-stretch:normal;font-family:Digitalt;-inkscape-font-specification:Digitalt;fill:#ffffff;stroke-width:1.25202906">INITIALIZE GLOBAL</tspan></text>
      <text
         id="text2825"
         y="844.14514"
         x="69.592949"
         style="font-style:normal;font-variant:normal;font-weight:normal;font-stretch:normal;font-size:23.3712101px;line-height:1.25;font-family:'Bebas Neue';-inkscape-font-specification:'Bebas Neue';text-align:center;letter-spacing:0px;word-spacing:0px;text-anchor:middle;fill:#ffffff;fill-opacity:1;stroke:none;stroke-width:1.25202906"
         xml:space="preserve"><tspan
           style="font-style:normal;font-variant:normal;font-weight:normal;font-stretch:normal;font-family:Digitalt;-inkscape-font-specification:Digitalt;fill:#ffffff;stroke-width:1.25202906"
           y="844.14514"
           x="69.592949"
           id="tspan2823"
           sodipodi:role="line">to</tspan></text>
    </g>
  </g>
</svg>
