<?xml version="1.0" encoding="UTF-8" standalone="no"?>
<!-- Created with Inkscape (http://www.inkscape.org/) -->

<svg
   xmlns:dc="http://purl.org/dc/elements/1.1/"
   xmlns:cc="http://creativecommons.org/ns#"
   xmlns:rdf="http://www.w3.org/1999/02/22-rdf-syntax-ns#"
   xmlns:svg="http://www.w3.org/2000/svg"
   xmlns="http://www.w3.org/2000/svg"
   xmlns:sodipodi="http://sodipodi.sourceforge.net/DTD/sodipodi-0.dtd"
   xmlns:inkscape="http://www.inkscape.org/namespaces/inkscape"
   width="283.60065mm"
   height="79.419907mm"
   viewBox="0 0 283.60063 79.419908"
   version="1.1"
   id="svg2283"
   inkscape:version="0.92.3 (2405546, 2018-03-11)"
   sodipodi:docname="list_select_list_item.svg">
  <defs
     id="defs2277" />
  <sodipodi:namedview
     id="base"
     pagecolor="#ffffff"
     bordercolor="#666666"
     borderopacity="1.0"
     inkscape:pageopacity="0.0"
     inkscape:pageshadow="2"
     inkscape:zoom="0.35"
     inkscape:cx="215.05178"
     inkscape:cy="611.94124"
     inkscape:document-units="mm"
     inkscape:current-layer="layer1"
     showgrid="false"
     fit-margin-top="0"
     fit-margin-left="0"
     fit-margin-right="0"
     fit-margin-bottom="0"
     inkscape:window-width="1920"
     inkscape:window-height="1001"
     inkscape:window-x="0"
     inkscape:window-y="0"
     inkscape:window-maximized="1" />
  <metadata
     id="metadata2280">
    <rdf:RDF>
      <cc:Work
         rdf:about="">
        <dc:format>image/svg+xml</dc:format>
        <dc:type
           rdf:resource="http://purl.org/dc/dcmitype/StillImage" />
        <dc:title></dc:title>
      </cc:Work>
    </rdf:RDF>
  </metadata>
  <g
     inkscape:label="Layer 1"
     inkscape:groupmode="layer"
     id="layer1"
     transform="translate(280.28305,-261.56096)">
    <g
       id="g32">
      <path
         id="path3991"
         d="m -13.457711,263.26009 -252.978369,0.1878 -0.0504,5.30496 c -0.0454,4.82651 -0.0862,5.37721 -0.45213,6.11353 -0.35743,0.71927 -0.49221,0.81628 -1.21049,0.86961 -0.84901,0.063 -0.8459,0.0648 -4.45184,-2.24506 -1.03114,-0.66053 -1.81918,-1.01341 -2.40821,-1.07831 -0.78791,-0.0869 -0.95666,-0.0224 -1.68446,0.63806 -0.64983,0.58991 -0.86979,0.98224 -1.11932,1.99622 -0.49501,2.01114 -0.74908,4.50635 -0.76937,7.02227 h -0.006 c 2.5e-4,0.0653 0.006,0.13068 0.006,0.19602 -3.1e-4,0.0653 -0.006,0.12967 0,0.19501 h 0.006 c 0.033,2.5158 0.29918,5.01001 0.8039,7.01867 0.25456,1.01273 0.47677,1.40401 1.1294,1.9908 0.73103,0.65717 0.89942,0.72089 1.6872,0.62985 0.58872,-0.0678 1.37488,-0.42469 2.40273,-1.0902 3.59468,-2.32738 3.59169,-2.32582 4.44096,-2.26696 0.71846,0.0498 0.85405,0.14574 1.21502,0.8632 0.3695,0.73458 0.41238,1.28553 0.48126,6.11172 l 0.0757,43.57407 252.980236,-0.18773 14.8777604,-0.0367 0.016179,-11.18433 c -0.027379,-0.0751 -0.044181,-0.16309 -0.078405,-0.23241 -0.1797712,-0.35911 -0.3037256,-0.5634 -0.47217161,-0.68362 -0.16850826,-0.12028 -0.3818193,-0.15674 -0.74105053,-0.18232 -0.2122532,-0.0149 -0.37061861,-0.0261 -0.54603396,0 -0.17535313,0.0274 -0.36769398,0.0942 -0.6453468,0.23515 -0.5553056,0.28207 -1.4544727,0.86159 -3.2540513,2.02173 -0.5146097,0.33179 -0.9682379,0.58654 -1.3672939,0.76662 -0.3990559,0.18002 -0.7429173,0.28568 -1.0373089,0.31904 -0.393829,0.0448 -0.6332127,0.0504 -0.8650049,-0.0367 -0.2318545,-0.0871 -0.4564284,-0.26775 -0.8213222,-0.59706 -0.3257536,-0.29401 -0.5434827,-0.53869 -0.7118665,-0.83675 -0.1683216,-0.29812 -0.2866134,-0.6492 -0.4129324,-1.15585 -0.2503978,-1.00483 -0.4409963,-2.13131 -0.5724178,-3.32063 -0.1314836,-1.18927 -0.2040396,-2.44101 -0.2178536,-3.69891 h -0.0062 c -1.86e-4,-0.0653 0,-0.13067 0,-0.19601 0,-0.0653 -0.0062,-0.13061 -0.0062,-0.19595 h 0.0062 c 0.01245,-1.25796 0.08388,-2.51033 0.214183,-3.69984 0.1303011,-1.18951 0.319344,-2.31649 0.5688084,-3.32157 0.1257589,-0.5067 0.2439885,-0.85753 0.4119989,-1.15578 0.1680727,-0.29825 0.3864241,-0.54336 0.7119288,-0.83769 0.3644582,-0.32967 0.5885966,-0.51075 0.8203265,-0.59793 0.23173,-0.0872 0.471176,-0.0807 0.8650672,-0.0367 0.2943916,0.033 0.6389997,0.13839 1.0381801,0.3181 0.3992426,0.1797 0.8532441,0.43352 1.3681651,0.76475 1.8006986,1.15847 2.7003634,1.73748 3.25598022,2.01899 0.27777728,0.14076 0.46893583,0.20684 0.64441341,0.23428 0.17541535,0.0274 0.33465192,0.0156 0.54690512,0 0.35923123,-0.0261 0.57272895,-0.0637 0.74105053,-0.18412 0.16838382,-0.12041 0.29184042,-0.32346 0.47130042,-0.68275 0.048536,-0.0967 0.072805,-0.22047 0.1093935,-0.32451 l 0.015556,-10.89348 0.012445,-8.48715 0.00622,-3.21217 c -0.056626,-0.22843 -0.1154916,-0.42979 -0.206964,-0.61249 -0.1797711,-0.35911 -0.3036633,-0.5634 -0.47217154,-0.68368 -0.16844603,-0.12022 -0.3818193,-0.15668 -0.74105053,-0.18226 -0.21231543,-0.0149 -0.37061861,-0.0268 -0.54597173,0 -0.17541536,0.0274 -0.36775621,0.0941 -0.6453468,0.23515 -0.5553679,0.28208 -1.4545349,0.86159 -3.2541135,2.02173 -0.5146098,0.33179 -0.9683002,0.58654 -1.3672939,0.76656 -0.3990559,0.18009 -0.7429173,0.28575 -1.037309,0.31904 -0.3938289,0.0448 -0.6332127,0.0504 -0.8650049,-0.0367 -0.2318544,-0.087 -0.4564283,-0.26769 -0.8212599,-0.59699 -0.3258158,-0.29402 -0.5436072,-0.5387 -0.7119287,-0.83682 -0.1683216,-0.29806 -0.2866134,-0.64914 -0.4129324,-1.15579 -0.25046,-1.00483 -0.4409963,-2.13137 -0.5724173,-3.32063 -0.131484,-1.18927 -0.20404,-2.44101 -0.217854,-3.69891 h -0.0062 c -1.25e-4,-0.0653 0,-0.13067 0.0062,-0.19601 0,-0.0653 -0.0062,-0.13067 -0.0062,-0.19595 h 0.0062 c 0.01244,-1.25796 0.08394,-2.51032 0.214245,-3.69984 0.1303008,-1.18951 0.3192815,-2.31649 0.5688081,-3.32156 0.1257589,-0.50671 0.2439263,-0.85754 0.4119989,-1.15579 0.1680727,-0.29831 0.3864241,-0.54336 0.7118665,-0.83769 0.3645205,-0.32967 0.5885966,-0.51075 0.8203888,-0.59799 0.23173,-0.0872 0.4711138,-0.0806 0.8650049,-0.0367 0.2944539,0.033 0.6389998,0.13846 1.0382424,0.31817 0.3991804,0.17964 0.8532441,0.43346 1.3681651,0.76475 1.8006986,1.15847 2.7003012,1.73748 3.255918,2.01899 0.27777727,0.14076 0.46906028,0.20684 0.64447563,0.23428 0.17535313,0.0274 0.3345897,0.0162 0.5468429,0 0.35923123,-0.0261 0.57272895,-0.0637 0.74111276,-0.18412 0.16838381,-0.12041 0.29177811,-0.32345 0.47123821,-0.68275 0.1052865,-0.21082 0.1781533,-0.42177 0.2378903,-0.70732 l 0.015557,-10.50887 -15.0801205,-0.16496 z"
         style="fill:#0ea7cf;fill-opacity:1;stroke:#1086a5;stroke-width:3.37654328;stroke-miterlimit:4;stroke-dasharray:none;stroke-opacity:1"
         inkscape:connector-curvature="0"
         sodipodi:nodetypes="ccccscccccccccccccccccccccccccccccccccccsccsccccccccccccccccccccccccccccccccccsccccccccccsccccc" />
      <path
         sodipodi:nodetypes="ccccccccccscccccccccccscccccccccccccccccsccccscccccccccccscccccsccccccccc"
         inkscape:connector-curvature="0"
         style="fill:#6dc2dd;fill-opacity:1;stroke:none;stroke-width:3.37654328;stroke-miterlimit:4;stroke-dasharray:none;stroke-opacity:1"
         d="m -263.70535,265.06826 c 45.87917,34.1605 224.960947,68.56264 249.185067,72.20572 l 14.87776052,0.0597 0.23851262,-7.58418 c -0.0273795,-0.0752 -0.0441805,-0.16315 -0.0784049,-0.23247 -0.17977118,-0.35911 -0.30372556,-0.56334 -0.47217159,-0.68362 -0.16850825,-0.12028 -0.3818193,-0.15668 -0.74105053,-0.18232 -0.21231542,-0.0149 -0.37061862,-0.0261 -0.54603392,0 -0.1753531,0.0274 -0.367694,0.0941 -0.6453468,0.23521 -0.5553057,0.28207 -1.4544727,0.86158 -3.2540513,2.02173 -0.5146097,0.33173 -0.968238,0.58648 -1.3672939,0.76656 -0.3990559,0.18008 -0.7429173,0.28574 -1.0373089,0.31903 -0.3938912,0.0448 -0.6332128,0.0504 -0.8650672,-0.0367 -0.2318544,-0.0871 -0.4564284,-0.2677 -0.8212599,-0.597 -0.3257536,-0.29401 -0.5434827,-0.53869 -0.7118665,-0.83681 -0.1683217,-0.29807 -0.2866137,-0.64921 -0.4129327,-1.15579 -0.250397,-1.00483 -0.440996,-2.13137 -0.572417,-3.32063 -0.131484,-1.18933 -0.20404,-2.44101 -0.217854,-3.69897 h -0.0062 c -1.86e-4,-0.0653 0,-0.13061 0,-0.19595 0,-0.0653 -0.0062,-0.13068 -0.0062,-0.19595 h 0.0062 c 0.01245,-1.25796 0.08388,-6.24395 0.214183,-7.43341 0.130301,-1.18951 0.319344,-2.31649 0.568808,-3.32156 0.125759,-0.50677 0.243927,-0.85754 0.4119992,-1.15585 0.1680727,-0.29825 0.3864241,-0.54336 0.7119287,-0.83769 0.3644583,-0.32961 0.5885966,-0.51075 0.8203266,-0.59793 0.23173,-0.0872 0.4711138,-0.0806 0.8650049,-0.0367 0.2944539,0.033 0.6389998,0.13845 1.0382424,0.3181 0.3992426,0.17971 0.8532441,0.43353 1.368165,0.76482 1.8006987,1.1584 2.7003635,1.73747 3.2559181,2.01899 0.2777773,0.14075 0.468998,0.20683 0.6444756,0.23421 0.1754154,0.0274 0.33465192,0.0156 0.54690512,0 0.359169,-0.0261 0.57272895,-0.0636 0.74105053,-0.18412 0.1683838,-0.12041 0.29184037,-0.32339 0.47123819,-0.68268 0.0485364,-0.0968 0.0728668,-0.22053 0.10939347,-0.32451 l 0.0155565,-9.96016 0.0124452,-5.68691 0.006223,-3.21217 c -0.0566257,-0.22849 -0.1154294,-0.42986 -0.20690175,-0.61255 -0.17977118,-0.35911 -0.30366333,-0.5634 -0.47217159,-0.68362 -0.16844603,-0.12028 -0.3818193,-0.15668 -0.74105053,-0.18232 -0.21231542,-0.0149 -0.37061864,-0.0268 -0.54597174,0 -0.1754154,0.0274 -0.3677562,0.0942 -0.6453468,0.23515 -0.5553679,0.28207 -1.4545349,0.86158 -3.2541757,2.02179 -0.5145476,0.33173 -0.968238,0.58648 -1.3672317,0.76656 -0.3990559,0.18008 -0.7429173,0.28568 -1.037309,0.31904 -0.3938289,0.0448 -0.6332127,0.0504 -0.8650049,-0.0367 -0.2318544,-0.0871 -0.4564284,-0.26776 -0.8213222,-0.59706 -0.3257536,-0.29402 -0.5435449,-0.53863 -0.7118666,-0.83675 -0.168322,-0.29813 -0.286676,-0.64921 -0.412933,-1.15579 -0.25046,-1.00489 -0.440996,-2.13137 -0.572417,-3.32069 -0.131484,-1.18927 -0.20404,-3.37434 -0.217854,-4.6323 h -0.0062 c -1.25e-4,-0.0653 0,-0.13068 0.0062,-0.19595 0,-0.0653 -0.0062,-0.13068 -0.0062,-0.19601 h 0.0062 c 0.01244,-1.2579 0.08394,-5.3105 0.214245,-6.50002 0.130301,-1.18951 0.319282,-2.31642 0.568808,-3.32156 0.125759,-0.50671 0.243927,-0.85754 0.411999,-1.15579 0.1680732,-0.29825 0.3864246,-0.54336 0.711867,-0.83769 0.3645205,-0.32967 0.5885966,-0.51075 0.8203888,-0.59793 0.23173,-0.0872 0.4711138,-0.0807 0.8650049,-0.0367 0.2944539,0.033 0.6389998,0.13845 1.0382424,0.3181 0.3991803,0.17971 0.8532441,0.43353 1.368165,0.76476 1.8006987,1.15846 2.7003013,1.73747 3.2559181,2.01898 0.2777773,0.14082 0.4690603,0.20691 0.6444756,0.23429 0.1753531,0.0274 0.33458975,0.0162 0.54684295,0 0.35923122,-0.0261 0.57272895,-0.0637 0.74111275,-0.18413 0.16838381,-0.12041 0.29177815,-0.32345 0.4712382,-0.68268 0.10528654,-0.21089 0.1781533,-0.42177 0.23789035,-0.70739 l -0.20671508,-7.00504 z"
         id="path3993" />
      <rect
         rx="2.5168488"
         ry="1.254732"
         transform="matrix(0.9999721,-0.00747002,0.02696542,0.99963637,0,0)"
         y="266.03598"
         x="-36.471344"
         height="2.509464"
         width="28.829397"
         id="rect3995"
         style="opacity:1;fill:#ffffff;fill-opacity:1;stroke:none;stroke-width:1.45317245;stroke-miterlimit:4;stroke-dasharray:none;stroke-opacity:1" />
      <rect
         style="opacity:1;fill:#ffffff;fill-opacity:1;stroke:none;stroke-width:1.68709779;stroke-miterlimit:4;stroke-dasharray:none;stroke-opacity:1"
         id="rect3997"
         width="16.333469"
         height="2.4524009"
         x="-41.47049"
         y="266.36435"
         transform="matrix(0.9999967,0.00256826,-0.0230192,0.99973502,0,0)"
         ry="1.2262005"
         rx="1.4116662" />
      <text
         xml:space="preserve"
         style="font-style:normal;font-variant:normal;font-weight:normal;font-stretch:normal;font-size:23.3712101px;line-height:1.25;font-family:'Bebas Neue';-inkscape-font-specification:'Bebas Neue';text-align:center;letter-spacing:0px;word-spacing:0px;text-anchor:middle;fill:#ffffff;fill-opacity:1;stroke:none;stroke-width:1.25202906"
         x="-133.32097"
         y="290.02512"
         id="text4001"><tspan
           sodipodi:role="line"
           id="tspan3999"
           x="-133.32097"
           y="290.02512"
           style="font-style:normal;font-variant:normal;font-weight:normal;font-stretch:normal;font-family:Digitalt;-inkscape-font-specification:Digitalt;fill:#ffffff;stroke-width:1.25202906">select list item  thing</tspan></text>
      <text
         id="text4005"
         y="329.22757"
         x="-41.251179"
         style="font-style:normal;font-variant:normal;font-weight:normal;font-stretch:normal;font-size:23.3712101px;line-height:1.25;font-family:'Bebas Neue';-inkscape-font-specification:'Bebas Neue';text-align:center;letter-spacing:0px;word-spacing:0px;text-anchor:middle;fill:#ffffff;fill-opacity:1;stroke:none;stroke-width:1.25202906"
         xml:space="preserve"><tspan
           style="font-style:normal;font-variant:normal;font-weight:normal;font-stretch:normal;font-family:Digitalt;-inkscape-font-specification:Digitalt;fill:#ffffff;stroke-width:1.25202906"
           y="329.22757"
           x="-41.251179"
           id="tspan4003"
           sodipodi:role="line">list</tspan></text>
    </g>
  </g>
</svg>
