<?xml version="1.0" encoding="UTF-8" standalone="no"?>
<!-- Created with Inkscape (http://www.inkscape.org/) -->

<svg
   xmlns:dc="http://purl.org/dc/elements/1.1/"
   xmlns:cc="http://creativecommons.org/ns#"
   xmlns:rdf="http://www.w3.org/1999/02/22-rdf-syntax-ns#"
   xmlns:svg="http://www.w3.org/2000/svg"
   xmlns="http://www.w3.org/2000/svg"
   xmlns:sodipodi="http://sodipodi.sourceforge.net/DTD/sodipodi-0.dtd"
   xmlns:inkscape="http://www.inkscape.org/namespaces/inkscape"
   width="379.27258mm"
   height="118.62581mm"
   viewBox="0 0 379.27256 118.62581"
   version="1.1"
   id="svg2283"
   inkscape:version="0.92.3 (2405546, 2018-03-11)"
   sodipodi:docname="list_lookup_in_pairs.svg">
  <defs
     id="defs2277" />
  <sodipodi:namedview
     id="base"
     pagecolor="#ffffff"
     bordercolor="#666666"
     borderopacity="1.0"
     inkscape:pageopacity="0.0"
     inkscape:pageshadow="2"
     inkscape:zoom="0.35"
     inkscape:cx="780.35963"
     inkscape:cy="841.83133"
     inkscape:document-units="mm"
     inkscape:current-layer="layer1"
     showgrid="false"
     fit-margin-top="0"
     fit-margin-left="0"
     fit-margin-right="0"
     fit-margin-bottom="0"
     inkscape:window-width="1920"
     inkscape:window-height="1001"
     inkscape:window-x="0"
     inkscape:window-y="0"
     inkscape:window-maximized="1" />
  <metadata
     id="metadata2280">
    <rdf:RDF>
      <cc:Work
         rdf:about="">
        <dc:format>image/svg+xml</dc:format>
        <dc:type
           rdf:resource="http://purl.org/dc/dcmitype/StillImage" />
        <dc:title></dc:title>
      </cc:Work>
    </rdf:RDF>
  </metadata>
  <g
     inkscape:label="Layer 1"
     inkscape:groupmode="layer"
     id="layer1"
     transform="translate(291.13682,-252.94205)">
    <g
       id="g4380"
       transform="matrix(0.62226092,0,0,-0.62226092,1819.2332,2134.9532)"
       inkscape:export-filename="/home/peter/allblocks.png"
       inkscape:export-xdpi="42.094723"
       inkscape:export-ydpi="42.094723">
      <path
         style="fill:#0ea7cf;fill-opacity:1;stroke:#1086a5;stroke-width:5.42624998;stroke-miterlimit:4;stroke-dasharray:none;stroke-opacity:1"
         d="m -3038.4236,3021.7471 -0.01,-0.01 -330.7676,-0.3018 -0.081,-8.5254 c -0.073,-7.7563 -0.1399,-8.6413 -0.728,-9.8247 -0.5743,-1.1559 -0.7897,-1.3117 -1.9438,-1.3975 -1.3645,-0.1012 -1.3595,-0.104 -7.1543,3.608 -1.6572,1.0615 -2.9236,1.6286 -3.8701,1.7329 -1.2663,0.1396 -1.5375,0.036 -2.7071,-1.0254 -1.0441,-0.948 -1.3979,-1.5785 -1.7988,-3.208 -0.7956,-3.232 -1.2038,-7.2419 -1.2364,-11.2852 h -0.011 c 4e-4,-0.105 0.011,-0.2099 0.011,-0.3149 -4e-4,-0.105 -0.01,-0.2085 0,-0.3135 h 0.01 c 0.053,-4.043 0.4808,-8.0513 1.292,-11.2793 0.4091,-1.6275 0.7661,-2.2562 1.8149,-3.1992 1.1748,-1.0561 1.4455,-1.1585 2.7115,-1.0122 0.946,0.109 2.2095,0.6825 3.8613,1.752 5.7768,3.7401 5.7719,3.7376 7.1367,3.643 1.1546,-0.08 1.3726,-0.2342 1.9527,-1.3872 0.5938,-1.1805 0.6627,-2.0659 0.7734,-9.8218 l 0.1216,-133.0254 330.7705,0.3018 23.9092,0.059 0.01,4.8193 0.01,13.8325 c -0.035,0.1091 -0.062,0.2282 -0.1098,0.3252 -0.2889,0.5771 -0.488,0.9053 -0.7589,1.0986 -0.2706,0.1934 -0.6135,0.2518 -1.1909,0.293 -0.3412,0.024 -0.5956,0.042 -0.8774,0 -0.2819,-0.044 -0.5909,-0.1513 -1.0371,-0.3779 -0.8924,-0.4533 -2.3375,-1.3846 -5.2295,-3.2491 -0.8269,-0.5331 -1.5561,-0.9425 -2.1972,-1.2319 -0.6414,-0.2894 -1.194,-0.4591 -1.6671,-0.5127 -0.6329,-0.072 -1.0176,-0.081 -1.3901,0.058 -0.3726,0.1401 -0.7335,0.4303 -1.3198,0.9595 -0.5235,0.4725 -0.8735,0.8657 -1.1441,1.3448 -0.2704,0.4791 -0.4606,1.0433 -0.6635,1.8573 -0.4025,1.6149 -0.7088,3.4252 -0.92,5.3365 -0.2112,1.9112 -0.3279,3.9228 -0.3501,5.9443 h -0.01 c -1e-4,0.1049 0,0.2101 0,0.315 0,0.1048 -0.011,0.2099 -0.011,0.3149 h 0.011 c 0.02,2.0215 0.1349,4.0342 0.3443,5.9458 0.2094,1.9116 0.5131,3.7227 0.9141,5.3379 0.202,0.8143 0.392,1.3781 0.6621,1.8574 0.2701,0.4793 0.621,0.8732 1.144,1.3462 0.5858,0.5298 0.9459,0.8208 1.3184,0.9609 0.3724,0.1403 0.7571,0.1293 1.3901,0.059 0.4732,-0.053 1.0268,-0.2225 1.6685,-0.5113 0.6414,-0.2887 1.3712,-0.6966 2.1987,-1.229 2.8938,-1.8616 4.3395,-2.7922 5.2324,-3.2446 0.4464,-0.2263 0.7537,-0.3324 1.0357,-0.3765 0.2818,-0.044 0.5378,-0.025 0.8789,0 0.5773,0.042 0.9203,0.1025 1.1909,0.296 0.2706,0.1935 0.4689,0.5197 0.7573,1.0971 0.061,0.1214 0.096,0.2686 0.1377,0.4072 l 0.01,23.6177 0.01,14.2822 c -0.044,0.1207 -0.071,0.2622 -0.1259,0.3736 -0.2889,0.5771 -0.4881,0.9054 -0.7589,1.0986 -0.2707,0.1933 -0.6135,0.2519 -1.1909,0.293 -0.3411,0.024 -0.5955,0.042 -0.8774,0 -0.2818,-0.044 -0.591,-0.1513 -1.0371,-0.378 -0.8925,-0.4533 -2.3375,-1.3845 -5.2295,-3.249 -0.827,-0.5331 -1.5561,-0.9425 -2.1972,-1.2319 -0.6414,-0.2893 -1.194,-0.4591 -1.6671,-0.5127 -0.6329,-0.072 -1.0176,-0.081 -1.3901,0.059 -0.3727,0.14 -0.7334,0.4303 -1.3198,0.9595 -0.5235,0.4725 -0.8735,0.8657 -1.1441,1.3447 -0.2704,0.4791 -0.4606,1.0433 -0.6635,1.8575 -0.4025,1.6147 -0.7088,3.4251 -0.92,5.3364 -0.2112,1.9112 -0.3279,3.9228 -0.3501,5.9443 h -0.01 c -3e-4,0.1049 0,0.2099 0,0.3149 0,0.105 -0.01,0.21 -0.01,0.315 h 0.01 c 0.02,2.0216 0.1349,4.0342 0.3443,5.9458 0.2094,1.9116 0.5131,3.7227 0.9141,5.3379 0.202,0.8143 0.3921,1.3781 0.6621,1.8574 0.2701,0.4793 0.6209,0.8732 1.144,1.3462 0.5857,0.5298 0.946,0.8208 1.3184,0.9609 0.3724,0.1402 0.7571,0.1293 1.3901,0.059 0.4731,-0.053 1.027,-0.2224 1.6685,-0.5112 0.6414,-0.2888 1.3713,-0.6967 2.1987,-1.229 2.8938,-1.8617 4.3395,-2.7922 5.2324,-3.2446 0.4463,-0.2262 0.7537,-0.3324 1.0357,-0.3765 0.2818,-0.044 0.5378,-0.025 0.8789,0 0.5773,0.042 0.9204,0.1024 1.1909,0.2959 0.2706,0.1935 0.4689,0.5198 0.7573,1.0972 0.078,0.1555 0.117,0.3543 0.1758,0.5215 l 0.025,17.5063 0.02,13.6392 0.01,5.1621 c -0.091,0.3671 -0.1855,0.6908 -0.3325,0.9844 -0.2889,0.577 -0.488,0.9054 -0.7588,1.0986 -0.2707,0.1933 -0.6136,0.2518 -1.1909,0.2929 -0.3412,0.024 -0.5957,0.043 -0.8775,0 -0.2819,-0.044 -0.591,-0.1511 -1.0371,-0.3779 -0.8925,-0.4533 -2.3375,-1.3846 -5.2295,-3.249 -0.8269,-0.5332 -1.556,-0.9425 -2.1972,-1.2319 -0.6413,-0.2894 -1.1939,-0.4591 -1.667,-0.5127 -0.6329,-0.072 -1.0176,-0.08 -1.3901,0.06 -0.3726,0.14 -0.7335,0.4302 -1.3199,0.9594 -0.5236,0.4725 -0.8735,0.8657 -1.144,1.3448 -0.2705,0.4789 -0.4606,1.0433 -0.6636,1.8574 -0.4025,1.6148 -0.7087,3.4252 -0.9199,5.3364 -0.2113,1.9112 -0.3279,3.9227 -0.3501,5.9444 h -0.011 c -2e-4,0.1049 3e-4,0.2099 0.011,0.3149 0,0.1048 -0.011,0.2102 -0.011,0.3149 h 0.011 c 0.02,2.0217 0.1348,4.0344 0.3442,5.9458 0.2094,1.9116 0.5131,3.7227 0.9141,5.3379 0.2021,0.8143 0.392,1.3781 0.6621,1.8575 0.2702,0.4794 0.621,0.8731 1.144,1.3461 0.5858,0.5298 0.9459,0.8208 1.3184,0.9609 0.3724,0.1402 0.7572,0.1293 1.3902,0.059 0.4731,-0.053 1.0268,-0.2224 1.6684,-0.5112 0.6415,-0.2887 1.3712,-0.6966 2.1987,-1.229 2.8938,-1.8617 4.3395,-2.7922 5.2325,-3.2446 0.4464,-0.2262 0.7537,-0.3323 1.0356,-0.3765 0.2818,-0.044 0.5378,-0.026 0.8789,0 0.5773,0.042 0.9203,0.1024 1.1909,0.2959 0.2706,0.1934 0.4689,0.5198 0.7574,1.0972 0.1692,0.3388 0.2862,0.6778 0.3822,1.1367 l 0.025,16.8882 z"
         id="path4288"
         inkscape:connector-curvature="0"
         sodipodi:nodetypes="cccccccccccccccccccccccccccccccccccccccccccccsccccccccccscccccccccccccccccccsccscccccccccccccccccccccccccccccccccccccccccccccccccc" />
      <path
         id="path4290"
         d="m -3366.5112,3018.8348 c 73.7299,-54.8973 287.4432,-173.1831 326.3725,-179.0376 l 24.3406,-0.2229 c -0.6383,10.4217 -0.069,5.188 -0.1443,15.7296 l -6.8434,-4.4382 c -1.8971,-0.6171 -3.4642,-1.8941 -5.6405,-1.7499 -2.1252,0.1162 -3.0321,1.6029 -4.5989,2.8103 -1.3978,2.1988 -1.6028,4.1185 -2.2139,6.2412 l -0.5928,9.7231 0.8507,10.5618 c 0.675,2.0668 1.223,3.6768 2.5578,5.9212 1.6058,0.8076 1.5112,1.8944 5.1979,1.9405 2.9351,-0.5774 5.5658,-2.5254 8.2724,-4.1688 1.0424,-0.8107 2.0341,-1.2661 3.0512,-1.8991 0.044,9.8185 0.012,24.8248 0.056,34.6432 -0.044,0.1209 -0.071,0.2623 -0.126,0.3736 -0.2889,0.5771 -0.4881,0.9053 -0.7588,1.0986 -0.2708,0.1933 -0.6136,0.2518 -1.1909,0.293 -0.3412,0.024 -0.5956,0.042 -0.8775,0 -0.2818,-0.044 -0.5909,-0.1513 -1.0371,-0.378 -0.8924,-0.4533 -2.3374,-1.3846 -5.2294,-3.249 -0.827,-0.5331 -1.556,-0.9425 -2.1973,-1.2319 -0.6412,-0.2894 -1.1939,-0.4592 -1.667,-0.5127 -0.6329,-0.072 -1.0176,-0.081 -1.3901,0.059 -0.3727,0.1399 -0.7336,0.4302 -1.3199,0.9594 -0.5235,0.4725 -0.8734,0.8657 -1.144,1.3448 -0.2704,0.479 -0.4605,1.0433 -0.6636,1.8574 -0.4024,1.6148 -0.7087,3.4252 -0.9199,5.3364 -0.2113,1.9113 -0.3279,3.9228 -0.35,5.9444 h -0.01 c -4e-4,0.1049 0,0.2099 0,0.3149 0,0.1049 -0.01,0.21 -0.01,0.3149 h 0.01 c 0.02,2.0216 0.1347,10.0343 0.3441,11.9458 0.2095,1.9116 0.5132,3.7227 0.9141,5.3379 0.2021,0.8144 0.392,1.3781 0.6622,1.8575 0.27,0.4793 0.621,0.8732 1.144,1.3462 0.5858,0.5297 0.946,0.8208 1.3183,0.9609 0.3724,0.1401 0.7571,0.1296 1.3901,0.059 0.4732,-0.053 1.0269,-0.2225 1.6685,-0.5112 0.6416,-0.2888 1.3713,-0.6967 2.1987,-1.2291 2.8938,-1.8616 4.3396,-2.7922 5.2324,-3.2446 0.4464,-0.2262 0.7537,-0.3324 1.0357,-0.3764 0.2819,-0.044 0.5378,-0.025 0.8789,0 0.5773,0.042 0.9204,0.1023 1.191,0.2959 0.2705,0.1935 0.469,0.5197 0.7573,1.0971 0.078,0.1555 0.117,0.3544 0.1758,0.5215 l 0.025,16.0064 0.02,9.1391 0.01,5.1621 c -0.091,0.3672 -0.1855,0.6908 -0.3325,0.9844 -0.2889,0.5771 -0.488,0.9054 -0.7588,1.0986 -0.2707,0.1933 -0.6137,0.2518 -1.1909,0.293 -0.3412,0.024 -0.5956,0.043 -0.8774,0 -0.2819,-0.044 -0.591,-0.1513 -1.0371,-0.3779 -0.8925,-0.4533 -2.3375,-1.3846 -5.2296,-3.2491 -0.8269,-0.5331 -1.556,-0.9425 -2.1973,-1.2319 -0.6412,-0.2894 -1.1939,-0.4591 -1.6669,-0.5127 -0.633,-0.072 -1.0176,-0.081 -1.3902,0.059 -0.3725,0.14 -0.7334,0.4303 -1.3198,0.9595 -0.5235,0.4725 -0.8736,0.8656 -1.144,1.3447 -0.2705,0.4791 -0.4607,1.0433 -0.6636,1.8574 -0.4025,1.6149 -0.7087,3.4252 -0.9199,5.3365 -0.2113,1.9112 -0.3279,5.4227 -0.3501,7.4443 h -0.01 c -2e-4,0.1049 0,0.21 0.01,0.3149 0,0.1049 -0.01,0.21 -0.01,0.315 h 0.01 c 0.02,2.0215 0.1349,8.5342 0.3443,10.4458 0.2094,1.9116 0.5131,3.7226 0.9141,5.3379 0.2021,0.8143 0.392,1.3781 0.6621,1.8574 0.2701,0.4793 0.621,0.8732 1.144,1.3462 0.5858,0.5298 0.9459,0.8208 1.3184,0.9609 0.3724,0.1402 0.7571,0.1297 1.3901,0.059 0.4732,-0.053 1.0269,-0.2225 1.6685,-0.5112 0.6415,-0.2888 1.3712,-0.6967 2.1987,-1.229 2.8938,-1.8617 4.3395,-2.7922 5.2324,-3.2446 0.4464,-0.2263 0.7538,-0.3325 1.0357,-0.3765 0.2818,-0.044 0.5377,-0.026 0.8788,0 0.5773,0.042 0.9204,0.1024 1.191,0.2959 0.2706,0.1935 0.4689,0.5198 0.7573,1.0971 0.1692,0.3389 0.2863,0.6778 0.3823,1.1368 l -0.3322,11.2574 z"
         style="fill:#6dc2dd;fill-opacity:1;stroke:none;stroke-width:5.42624998;stroke-miterlimit:4;stroke-dasharray:none;stroke-opacity:1"
         inkscape:connector-curvature="0"
         sodipodi:nodetypes="cccccccccccccccccccccscccccccccccscccccccccccccccccsccccscccccccccccscccccsccccccccc" />
      <rect
         style="opacity:1;fill:#ffffff;fill-opacity:1;stroke:none;stroke-width:2.33531046;stroke-miterlimit:4;stroke-dasharray:none;stroke-opacity:1"
         id="rect4292"
         width="46.330078"
         height="4.0328164"
         x="-2981.9834"
         y="-3040.3787"
         transform="matrix(0.9999721,0.00747001,0.02696542,-0.99963637,0,0)"
         ry="2.0164082"
         rx="4.0446839" />
      <rect
         rx="2.2686081"
         ry="1.9705567"
         transform="matrix(0.9999967,-0.00256827,-0.0230192,-0.99973502,0,0)"
         y="-3009.7109"
         x="-3162.595"
         height="3.9411135"
         width="26.248585"
         id="rect4294"
         style="opacity:1;fill:#ffffff;fill-opacity:1;stroke:none;stroke-width:2.71123862;stroke-miterlimit:4;stroke-dasharray:none;stroke-opacity:1" />
      <text
         transform="scale(1,-1)"
         id="text4298"
         y="-2978.728"
         x="-3202.1487"
         style="font-style:normal;font-variant:normal;font-weight:normal;font-stretch:normal;font-size:37.55853653px;line-height:1.25;font-family:'Bebas Neue';-inkscape-font-specification:'Bebas Neue';text-align:center;letter-spacing:0px;word-spacing:0px;text-anchor:middle;fill:#ffffff;fill-opacity:1;stroke:none;stroke-width:2.01206446"
         xml:space="preserve"><tspan
           style="font-style:normal;font-variant:normal;font-weight:normal;font-stretch:normal;font-family:PAGRevolucionW00-Regular;-inkscape-font-specification:PAGRevolucionW00-Regular;fill:#ffffff;stroke-width:2.01206446"
           y="-2978.728"
           x="-3202.1487"
           id="tspan4296"
           sodipodi:role="line">look up in pairs  key</tspan></text>
      <text
         xml:space="preserve"
         style="font-style:normal;font-variant:normal;font-weight:normal;font-stretch:normal;font-size:37.55853653px;line-height:1.25;font-family:'Bebas Neue';-inkscape-font-specification:'Bebas Neue';text-align:center;letter-spacing:0px;word-spacing:0px;text-anchor:middle;fill:#ffffff;fill-opacity:1;stroke:none;stroke-width:2.01206446"
         x="-3091.8955"
         y="-2915.728"
         id="text4302"
         transform="scale(1,-1)"><tspan
           sodipodi:role="line"
           id="tspan4300"
           x="-3091.8955"
           y="-2915.728"
           style="font-style:normal;font-variant:normal;font-weight:normal;font-stretch:normal;font-family:PAGRevolucionW00-Regular;-inkscape-font-specification:PAGRevolucionW00-Regular;fill:#ffffff;stroke-width:2.01206446">pairs</tspan></text>
      <text
         transform="scale(1,-1)"
         id="text4306"
         y="-2854.228"
         x="-3120.7683"
         style="font-style:normal;font-variant:normal;font-weight:normal;font-stretch:normal;font-size:37.55853653px;line-height:1.25;font-family:'Bebas Neue';-inkscape-font-specification:'Bebas Neue';text-align:center;letter-spacing:0px;word-spacing:0px;text-anchor:middle;fill:#ffffff;fill-opacity:1;stroke:none;stroke-width:2.01206446"
         xml:space="preserve"><tspan
           style="font-style:normal;font-variant:normal;font-weight:normal;font-stretch:normal;font-family:PAGRevolucionW00-Regular;-inkscape-font-specification:PAGRevolucionW00-Regular;fill:#ffffff;stroke-width:2.01206446"
           y="-2854.228"
           x="-3120.7683"
           id="tspan4304"
           sodipodi:role="line">notfound</tspan></text>
      <path
         style="fill:#bd295d;fill-opacity:1;stroke:#97234b;stroke-width:5.42624998;stroke-miterlimit:4;stroke-dasharray:none;stroke-opacity:1"
         d="m -2784.8467,2837.3118 0.1777,60.0591 -105.2345,0.2656 -123.7703,-0.302 -0.08,-8.525 c -0.073,-7.7563 -0.1383,-8.6421 -0.7264,-9.8254 -0.5744,-1.1559 -0.7908,-1.3113 -1.9451,-1.397 -1.3643,-0.1014 -1.3597,-0.104 -7.1546,3.608 -1.657,1.0615 -2.9236,1.6286 -3.8701,1.733 -1.2663,0.1396 -1.5369,0.037 -2.7066,-1.0247 -1.0442,-0.948 -1.3982,-1.5786 -1.7992,-3.2081 -0.7954,-3.232 -1.204,-7.2424 -1.2366,-11.2856 h -0.01 c 5e-4,-0.105 0.01,-0.2096 0.01,-0.3146 -5e-4,-0.105 0,-0.2096 0,-0.3146 h 0.01 c 0.052,-4.043 0.4805,-8.0507 1.2916,-11.2787 0.4091,-1.6275 0.7661,-2.2564 1.8149,-3.1993 1.1749,-1.0561 1.4455,-1.1585 2.7115,-1.0121 0.9461,0.109 2.2098,0.6823 3.8617,1.7518 5.7766,3.7402 5.772,3.7376 7.1369,3.643 1.1546,-0.08 1.3718,-0.2345 1.9519,-1.3875 0.5938,-1.1805 0.6636,-2.0659 0.7743,-9.8219 l 0.1216,-8.5244 123.7704,0.3021 z"
         id="path4326"
         inkscape:connector-curvature="0"
         sodipodi:nodetypes="cccccccccccccccccccscccccc" />
      <path
         sodipodi:nodetypes="ccccc"
         inkscape:connector-curvature="0"
         id="path4328"
         d="m -2787.9237,2839.8989 -0.4993,55.1399 -222.1733,-0.7498 c 62.212,-31.0576 142.7065,-39.5935 194.2376,-54.3302 z"
         style="fill:#d36a8b;fill-opacity:1;stroke:none;stroke-width:5.42624998;stroke-miterlimit:4;stroke-dasharray:none;stroke-opacity:1" />
      <rect
         ry="7.8816743"
         rx="10.293713"
         transform="scale(1,-1)"
         y="-2887.1934"
         x="-2971.5396"
         height="39.805294"
         width="154.3304"
         id="rect4330"
         style="opacity:0.5;fill:#e6e6e6;fill-opacity:1;stroke:none;stroke-width:19.73293495;stroke-miterlimit:4;stroke-dasharray:none;stroke-opacity:1" />
      <text
         transform="scale(1,-1)"
         id="text4334"
         y="-2859.1113"
         x="-2988.7234"
         style="font-style:normal;font-variant:normal;font-weight:normal;font-stretch:normal;font-size:37.55853653px;line-height:1.25;font-family:'Bebas Neue';-inkscape-font-specification:'Bebas Neue';text-align:center;letter-spacing:0px;word-spacing:0px;text-anchor:middle;fill:#ffffff;fill-opacity:1;stroke:none;stroke-width:2.01206446"
         xml:space="preserve"><tspan
           style="font-style:normal;font-variant:normal;font-weight:normal;font-stretch:normal;font-family:PAGRevolucionW00-Regular;-inkscape-font-specification:PAGRevolucionW00-Regular;fill:#ffffff;stroke-width:2.01206446"
           y="-2859.1113"
           x="-2988.7234"
           id="tspan4332"
           sodipodi:role="line">&quot;</tspan></text>
      <rect
         rx="4.0446839"
         ry="2.0164082"
         transform="matrix(0.9999721,0.00747001,0.02696542,-0.99963637,0,0)"
         y="-2914.77"
         x="-2762.3289"
         height="4.0328164"
         width="46.330078"
         id="rect4336"
         style="opacity:1;fill:#ffffff;fill-opacity:1;stroke:none;stroke-width:2.33531046;stroke-miterlimit:4;stroke-dasharray:none;stroke-opacity:1" />
      <rect
         style="opacity:1;fill:#ffffff;fill-opacity:1;stroke:none;stroke-width:2.71123862;stroke-miterlimit:4;stroke-dasharray:none;stroke-opacity:1"
         id="rect4338"
         width="26.248585"
         height="3.9411135"
         x="-2936.7139"
         y="-2886.333"
         transform="matrix(0.9999967,-0.00256827,-0.0230192,-0.99973502,0,0)"
         ry="1.9705567"
         rx="2.2686081" />
      <text
         xml:space="preserve"
         style="font-style:normal;font-variant:normal;font-weight:normal;font-stretch:normal;font-size:37.55853653px;line-height:1.25;font-family:'Bebas Neue';-inkscape-font-specification:'Bebas Neue';text-align:center;letter-spacing:0px;word-spacing:0px;text-anchor:middle;fill:#ffffff;fill-opacity:1;stroke:none;stroke-width:2.01206446"
         x="-2802.7234"
         y="-2859.1113"
         id="text4342"
         transform="scale(1,-1)"><tspan
           sodipodi:role="line"
           id="tspan4340"
           x="-2802.7234"
           y="-2859.1113"
           style="font-style:normal;font-variant:normal;font-weight:normal;font-stretch:normal;font-family:PAGRevolucionW00-Regular;-inkscape-font-specification:PAGRevolucionW00-Regular;fill:#ffffff;stroke-width:2.01206446">&quot;</tspan></text>
      <text
         transform="scale(1,-1)"
         id="text4348"
         y="-2854.1453"
         x="-2894.4883"
         style="font-style:normal;font-variant:normal;font-weight:normal;font-stretch:normal;font-size:37.55853653px;line-height:1.25;font-family:'Bebas Neue';-inkscape-font-specification:'Bebas Neue';text-align:center;letter-spacing:0px;word-spacing:0px;text-anchor:middle;fill:#000000;fill-opacity:1;stroke:none;stroke-width:2.01206446"
         xml:space="preserve"><tspan
           style="font-style:normal;font-variant:normal;font-weight:normal;font-stretch:normal;font-family:PAGRevolucionW00-Regular;-inkscape-font-specification:PAGRevolucionW00-Regular;fill:#000000;stroke-width:2.01206446"
           y="-2854.1453"
           x="-2894.4883"
           id="tspan4346"
           sodipodi:role="line">not found</tspan></text>
    </g>
  </g>
</svg>
