<?xml version="1.0" encoding="UTF-8" standalone="no"?>
<!-- Created with Inkscape (http://www.inkscape.org/) -->

<svg
   xmlns:dc="http://purl.org/dc/elements/1.1/"
   xmlns:cc="http://creativecommons.org/ns#"
   xmlns:rdf="http://www.w3.org/1999/02/22-rdf-syntax-ns#"
   xmlns:svg="http://www.w3.org/2000/svg"
   xmlns="http://www.w3.org/2000/svg"
   xmlns:sodipodi="http://sodipodi.sourceforge.net/DTD/sodipodi-0.dtd"
   xmlns:inkscape="http://www.inkscape.org/namespaces/inkscape"
   width="272.63452mm"
   height="41.242687mm"
   viewBox="0 0 272.63452 41.242688"
   version="1.1"
   id="svg2283"
   inkscape:version="0.92.3 (2405546, 2018-03-11)"
   sodipodi:docname="list_list_to_csv_table.svg">
  <defs
     id="defs2277" />
  <sodipodi:namedview
     id="base"
     pagecolor="#ffffff"
     bordercolor="#666666"
     borderopacity="1.0"
     inkscape:pageopacity="0.0"
     inkscape:pageshadow="2"
     inkscape:zoom="0.35"
     inkscape:cx="173.65397"
     inkscape:cy="370.4705"
     inkscape:document-units="mm"
     inkscape:current-layer="layer1"
     showgrid="false"
     fit-margin-top="0"
     fit-margin-left="0"
     fit-margin-right="0"
     fit-margin-bottom="0"
     inkscape:window-width="1920"
     inkscape:window-height="1001"
     inkscape:window-x="0"
     inkscape:window-y="0"
     inkscape:window-maximized="1" />
  <metadata
     id="metadata2280">
    <rdf:RDF>
      <cc:Work
         rdf:about="">
        <dc:format>image/svg+xml</dc:format>
        <dc:type
           rdf:resource="http://purl.org/dc/dcmitype/StillImage" />
        <dc:title></dc:title>
      </cc:Work>
    </rdf:RDF>
  </metadata>
  <g
     inkscape:label="Layer 1"
     inkscape:groupmode="layer"
     id="layer1"
     transform="translate(269.32987,-205.61096)">
    <g
       id="g26">
      <path
         style="fill:#0ea7cf;fill-opacity:1;stroke:#1086a5;stroke-width:3.37654328;stroke-miterlimit:4;stroke-dasharray:none;stroke-opacity:1"
         d="m 1.4520344,244.81696 0.1619123,-10.65205 c -0.062786,-0.32631 -0.1462935,-0.53713 -0.2614118,-0.76513 -0.36184471,-0.71703 -0.49712423,-0.81292 -1.21571114,-0.86177 -0.84932393,-0.0579 -0.84646153,-0.0591 -4.43796486,2.27281 -1.0270417,0.66688 -1.8129572,1.02468 -2.4015538,1.09325 -0.7873468,0.0918 -0.9561661,0.0286 -1.6880694,-0.62749 -0.6534362,-0.58585 -0.8761434,-0.97695 -1.1319549,-1.9893 -0.5074538,-2.00804 -0.7771418,-4.50156 -0.8130458,-7.0173 l -0.0062,1.9e-4 c -3.73e-4,-0.0653 0,-0.13043 0,-0.19577 0,-0.0653 -0.0062,-0.13042 -0.0062,-0.19576 l 0.0062,-1.9e-4 c 0.0168,-2.51592 0.267821,-5.01181 0.7600918,-7.02358 0.2482199,-1.01429 0.4679402,-1.40699 1.1169584,-1.99777 0.7269252,-0.66177 0.8952467,-0.72568 1.683278,-0.63987 0.5891566,0.0642 1.3777479,0.41604 2.4097054,1.07514 3.60898887,2.30511 3.60612647,2.30343 4.45501482,2.23927 0.71815132,-0.0541 0.85274636,-0.15121 1.20917738,-0.87092 0.1134382,-0.22886 0.1952655,-0.44025 0.2556248,-0.76706 l -0.039202,-10.44919 -15.0803696,-0.14523 -241.933364,0.29028 -0.0429,5.30477 c -0.0386,4.82657 -0.0789,5.37777 -0.44386,6.11465 -0.35649,0.71971 -0.49103,0.81659 -1.20924,0.87086 -0.84889,0.0642 -0.84602,0.0658 -4.45495,-2.23921 -1.03202,-0.65916 -1.82061,-1.01099 -2.40971,-1.07514 -0.78803,-0.0858 -0.95635,-0.0218 -1.68334,0.63981 -0.64895,0.59077 -0.86874,0.98348 -1.11696,1.99776 -0.49227,2.01184 -0.74316,4.50766 -0.76009,7.02359 l -0.006,6e-5 c 3.7e-4,0.0653 0.006,0.13043 0.006,0.19576 -2.5e-4,0.0653 0,0.13043 0,0.19577 h 0.006 c 0.0361,2.51574 0.30559,5.0092 0.81304,7.01723 0.25588,1.01236 0.47858,1.40345 1.13196,1.98931 0.73196,0.65617 0.90047,0.71964 1.68813,0.62749 0.58859,-0.0686 1.37451,-0.42638 2.40149,-1.09325 3.5915,-2.33218 3.58864,-2.33056 4.43796,-2.27275 0.71859,0.0492 0.85387,0.14474 1.21578,0.86177 0.37049,0.73402 0.41461,1.28497 0.4899,6.11104 l 0.0828,5.30434 241.933436,-0.29035 z"
         id="path3733"
         inkscape:connector-curvature="0"
         sodipodi:nodetypes="cccccccccccccccsccccccccccccccccccccccscccccc" />
      <path
         sodipodi:nodetypes="ccccccccccccccccscccccccc"
         inkscape:connector-curvature="0"
         id="path3735"
         d="m 0.46855106,243.20842 0.2013014,-0.20286 0.16981501,-7.56022 c -0.0629106,-0.32631 -0.14635577,-0.53707 -0.26141181,-0.76507 -0.36190695,-0.71703 -0.49718648,-0.81292 -1.21571116,-0.86177 -0.8493862,-0.0579 -1.2345657,0.12091 -4.8260068,2.45308 -1.0270416,0.66688 -1.8129572,1.02468 -2.4015538,1.09325 -0.9374983,-0.14804 -0.910181,-0.20547 -1.6421466,-0.86171 -0.6533743,-0.58586 -0.9220043,-0.74273 -1.1778773,-1.75508 -0.507454,-2.00804 -1.096797,-6.71202 -1.132702,-9.22782 l -0.0062,2.5e-4 c -3.11e-4,-0.0653 0,-0.13049 0,-0.19583 0,-0.0653 -0.0062,-0.13043 -0.0062,-0.1957 l 0.0062,-2.5e-4 c 0.0168,-2.51592 0.557857,-5.45493 1.05019,-7.46676 0.248158,-1.01422 0.46794,-1.40699 1.1168964,-1.99777 0.7269252,-0.66171 0.8952468,-0.72561 1.6833402,-0.6398 0.5890944,0.0642 1.3776857,0.41598 2.4096432,1.07514 3.6089889,2.30504 3.6214341,2.43783 4.4703224,2.37367 0.71815137,-0.0541 0.85274641,-0.1512 1.20917746,-0.87091 0.11343817,-0.22887 0.19526548,-0.44031 0.25562479,-0.76706 L 0.1078264,208.89751 -253.63767,209.05687 c 36.10377,23.89812 204.329828,25.01035 236.407814,34.1378 z"
         style="fill:#6dc2dd;fill-opacity:1;stroke:none;stroke-width:3.37654328;stroke-miterlimit:4;stroke-dasharray:none;stroke-opacity:1" />
      <text
         xml:space="preserve"
         style="font-style:normal;font-variant:normal;font-weight:normal;font-stretch:normal;font-size:23.3712101px;line-height:1.25;font-family:'Bebas Neue';-inkscape-font-specification:'Bebas Neue';text-align:center;letter-spacing:0px;word-spacing:0px;text-anchor:middle;fill:#ffffff;fill-opacity:1;stroke:none;stroke-width:1.25202906"
         x="-130.03888"
         y="234.41231"
         id="text3739"><tspan
           sodipodi:role="line"
           id="tspan3737"
           x="-130.03888"
           y="234.41231"
           style="font-style:normal;font-variant:normal;font-weight:normal;font-stretch:normal;font-family:Digitalt;-inkscape-font-specification:Digitalt;fill:#ffffff;stroke-width:1.25202906">list to csv table  list</tspan></text>
      <rect
         rx="2.5168488"
         ry="1.254732"
         transform="matrix(0.9999721,-0.00747002,0.02696542,0.99963637,0,0)"
         y="209.85864"
         x="-35.31657"
         height="2.509464"
         width="28.829397"
         id="rect3741"
         style="opacity:1;fill:#ffffff;fill-opacity:1;stroke:none;stroke-width:1.45317245;stroke-miterlimit:4;stroke-dasharray:none;stroke-opacity:1" />
      <rect
         style="opacity:1;fill:#ffffff;fill-opacity:1;stroke:none;stroke-width:1.68709779;stroke-miterlimit:4;stroke-dasharray:none;stroke-opacity:1"
         id="rect3743"
         width="16.333469"
         height="2.4524009"
         x="-43.116673"
         y="210.19852"
         transform="matrix(0.9999967,0.00256826,-0.0230192,0.99973502,0,0)"
         ry="1.2262005"
         rx="1.4116662" />
    </g>
  </g>
</svg>
