<?xml version="1.0" encoding="UTF-8" standalone="no"?>
<!-- Created with Inkscape (http://www.inkscape.org/) -->

<svg
   xmlns:dc="http://purl.org/dc/elements/1.1/"
   xmlns:cc="http://creativecommons.org/ns#"
   xmlns:rdf="http://www.w3.org/1999/02/22-rdf-syntax-ns#"
   xmlns:svg="http://www.w3.org/2000/svg"
   xmlns="http://www.w3.org/2000/svg"
   xmlns:sodipodi="http://sodipodi.sourceforge.net/DTD/sodipodi-0.dtd"
   xmlns:inkscape="http://www.inkscape.org/namespaces/inkscape"
   width="270.12268mm"
   height="132.42484mm"
   viewBox="0 0 270.12268 132.42483"
   version="1.1"
   id="svg2283"
   inkscape:version="0.92.3 (2405546, 2018-03-11)"
   sodipodi:docname="list_replace_list_item.svg">
  <defs
     id="defs2277" />
  <sodipodi:namedview
     id="base"
     pagecolor="#ffffff"
     bordercolor="#666666"
     borderopacity="1.0"
     inkscape:pageopacity="0.0"
     inkscape:pageshadow="2"
     inkscape:zoom="0.35"
     inkscape:cx="508.20838"
     inkscape:cy="448.46314"
     inkscape:document-units="mm"
     inkscape:current-layer="layer1"
     showgrid="false"
     fit-margin-top="0"
     fit-margin-left="0"
     fit-margin-right="0"
     fit-margin-bottom="0"
     inkscape:window-width="1920"
     inkscape:window-height="1001"
     inkscape:window-x="0"
     inkscape:window-y="0"
     inkscape:window-maximized="1" />
  <metadata
     id="metadata2280">
    <rdf:RDF>
      <cc:Work
         rdf:about="">
        <dc:format>image/svg+xml</dc:format>
        <dc:type
           rdf:resource="http://purl.org/dc/dcmitype/StillImage" />
        <dc:title></dc:title>
      </cc:Work>
    </rdf:RDF>
  </metadata>
  <g
     inkscape:label="Layer 1"
     inkscape:groupmode="layer"
     id="layer1"
     transform="translate(357.84739,-135.06438)">
    <g
       id="g38">
      <path
         style="fill:#0ea7cf;fill-opacity:1;stroke:#1086a5;stroke-width:3.37654328;stroke-miterlimit:4;stroke-dasharray:none;stroke-opacity:1"
         d="m -323.63026,136.75318 c -3.51913,0 -6.7669,6.53492 -9.68941,6.53554 -2.92257,0 -5.51945,-6.53193 -7.73701,-6.53193 h -5.45996 c 0,0 -10.17969,-0.4051 -9.62283,9.39775 l 0.006,94.33177 0.006,9.39409 c -0.54777,8.9842 9.63198,9.38861 9.63198,9.38861 h 5.4591 c 2.21748,0 4.81437,6.53262 7.73694,6.53193 2.92251,0 6.17115,-6.5356 9.69034,-6.5356 l 160.5819,-0.85312 58.61225,-0.0657 14.877762,-0.0367 0.0062,-9.53261 0.0062,-8.60742 c -0.02116,-0.0679 -0.03796,-0.142 -0.06839,-0.20236 -0.179772,-0.35911 -0.303664,-0.56333 -0.472172,-0.68368 -0.168446,-0.12028 -0.381819,-0.15662 -0.741051,-0.18226 -0.212315,-0.0149 -0.370556,-0.0261 -0.545971,0 -0.175353,0.0274 -0.367757,0.0942 -0.645347,0.23515 -0.555368,0.28208 -1.454597,0.86159 -3.254176,2.02179 -0.514547,0.33173 -0.968238,0.58655 -1.367232,0.7665 -0.399055,0.18015 -0.742917,0.28581 -1.037308,0.31904 -0.393829,0.0448 -0.633275,0.0504 -0.865005,-0.0373 -0.231855,-0.0871 -0.456367,-0.2677 -0.821323,-0.597 -0.325753,-0.29401 -0.543482,-0.53869 -0.711867,-0.83681 -0.16826,-0.29813 -0.28668,-0.64921 -0.41293,-1.15579 -0.25046,-1.00489 -0.441,-2.13131 -0.57242,-3.32063 -0.13142,-1.18933 -0.20404,-2.44107 -0.21785,-3.69897 h -0.006 c -1.2e-4,-0.0653 0,-0.13068 0,-0.19595 0,-0.0653 -0.006,-0.13061 -0.006,-0.19595 h 0.006 c 0.0125,-1.25796 0.084,-2.51039 0.21425,-3.6999 0.1303,-1.18952 0.31922,-2.31649 0.56874,-3.32157 0.1257,-0.50671 0.24406,-0.85747 0.41207,-1.15579 0.168007,-0.29818 0.386358,-0.54335 0.711801,-0.83762 0.36452,-0.32968 0.588597,-0.51082 0.820451,-0.59799 0.231668,-0.0873 0.471114,-0.0802 0.865005,-0.0361 0.294392,0.033 0.638937,0.13846 1.03818,0.3181 0.39918,0.17971 0.853244,0.43347 1.368165,0.76476 1.800699,1.1584 2.700364,1.73754 3.25598,2.01905 0.277778,0.14082 0.468936,0.20678 0.644414,0.23422 0.175353,0.0274 0.334652,0.0156 0.546905,0 0.359169,-0.0261 0.572667,-0.0637 0.74105,-0.18412 0.168384,-0.12041 0.291779,-0.32352 0.471301,-0.68275 0.03796,-0.0755 0.05974,-0.16714 0.08569,-0.25338 l 0.0062,-14.69638 0.0062,-8.88725 c -0.02738,-0.0751 -0.04418,-0.1631 -0.0784,-0.23242 -0.179772,-0.3591 -0.303664,-0.56345 -0.472172,-0.68367 -0.168446,-0.12029 -0.381819,-0.15669 -0.741051,-0.18226 -0.212253,-0.0149 -0.370494,-0.0261 -0.545971,0 -0.175291,0.0274 -0.367757,0.0941 -0.645347,0.23515 -0.555368,0.28207 -1.454597,0.86158 -3.254176,2.02172 -0.514547,0.33179 -0.968238,0.58655 -1.367232,0.76657 -0.399055,0.18008 -0.742917,0.28574 -1.037308,0.31903 -0.393829,0.0448 -0.633213,0.0504 -0.865005,-0.0367 -0.231917,-0.0871 -0.456367,-0.2677 -0.821323,-0.597 -0.325753,-0.29402 -0.543482,-0.53875 -0.711867,-0.83682 -0.16833,-0.29812 -0.28662,-0.64914 -0.41287,-1.15578 -0.25046,-1.00477 -0.44106,-2.13131 -0.57248,-3.32064 -0.13149,-1.18926 -0.20404,-2.44106 -0.21786,-3.6989 h -0.007 c -1.9e-4,-0.0653 0,-0.13068 0,-0.19601 0,-0.0653 -0.006,-0.13062 -0.006,-0.19595 h 0.006 c 0.0124,-1.25803 0.0839,-2.51033 0.21424,-3.69984 0.1303,-1.18952 0.31928,-2.31649 0.56875,-3.32157 0.12575,-0.50671 0.24398,-0.8576 0.41199,-1.15585 0.168083,-0.29819 0.386372,-0.5433 0.711876,-0.83762 0.364459,-0.32968 0.588721,-0.51076 0.820389,-0.59794 0.23173,-0.0872 0.471114,-0.0803 0.865005,-0.0367 0.294392,0.033 0.639062,0.13845 1.038242,0.3181 0.399181,0.17977 0.853307,0.43353 1.368166,0.76476 1.800698,1.15846 2.700301,1.73748 3.25598,2.01899 0.277653,0.14075 0.468936,0.20684 0.644413,0.23428 0.175416,0.0274 0.334652,0.0156 0.546905,0 0.359169,-0.0261 0.572792,-0.0637 0.741051,-0.18413 0.168384,-0.12041 0.291778,-0.32345 0.471238,-0.68274 0.04854,-0.0968 0.0728,-0.22041 0.109394,-0.32451 l 0.01556,-10.89349 0.01244,-8.48708 0.0062,-3.21217 c -0.05663,-0.22849 -0.115429,-0.42992 -0.206902,-0.61255 -0.179771,-0.35911 -0.303539,-0.56346 -0.472109,-0.68368 -0.168384,-0.12029 -0.38182,-0.15669 -0.741113,-0.18226 -0.212315,-0.0149 -0.370619,-0.0268 -0.545972,0 -0.175415,0.0274 -0.367818,0.094 -0.645409,0.23515 -0.555368,0.28207 -1.454472,0.86152 -3.254051,2.02173 -0.51461,0.33172 -0.968362,0.58654 -1.367294,0.76656 -0.399118,0.18014 -0.742917,0.28568 -1.037309,0.31903 -0.393829,0.0448 -0.633213,0.0498 -0.865005,-0.0373 -0.231854,-0.0871 -0.456428,-0.26764 -0.82126,-0.597 -0.325878,-0.29396 -0.543607,-0.53863 -0.711925,-0.83675 -0.16826,-0.29807 -0.28668,-0.64921 -0.41294,-1.15585 -0.25046,-1.00483 -0.44099,-2.13131 -0.57241,-3.32064 -0.13143,-1.1892 -0.20404,-2.44088 -0.21786,-3.6989 h -0.006 c -1.3e-4,-0.0653 3.1e-4,-0.13062 0.006,-0.19595 0,-0.0653 -0.006,-0.1308 -0.006,-0.19602 h 0.006 c 0.0125,-1.25802 0.0839,-2.51038 0.21418,-3.69983 0.13031,-1.18952 0.31935,-2.3165 0.56881,-3.32157 0.12576,-0.50665 0.24399,-0.85754 0.412,-1.15579 0.1682,-0.29831 0.386427,-0.54336 0.711931,-0.83769 0.364459,-0.32967 0.588535,-0.51075 0.820327,-0.59793 0.23173,-0.0872 0.471176,-0.0811 0.865067,-0.0373 0.294392,0.033 0.638875,0.13839 1.03818,0.3181 0.399118,0.17964 0.853244,0.43353 1.368228,0.76476 1.800698,1.15852 2.700301,1.73747 3.255918,2.01898 0.277777,0.14076 0.46906,0.20672 0.644413,0.23429 0.175415,0.0274 0.334714,0.0162 0.546967,0 0.359169,-0.0261 0.572605,-0.0637 0.740989,-0.18413 0.168383,-0.12028 0.29184,-0.32345 0.4713,-0.68275 0.105287,-0.21082 0.178153,-0.42176 0.23789,-0.70732 l 0.01556,-10.50887 -15.09201,-0.16583 -0.006,0.006 -66.53145,0.0747 -6.88557,-0.0884 h -5.45997 z"
         id="path4058"
         inkscape:connector-curvature="0"
         sodipodi:nodetypes="scscccccsccccccccccccccccccccccsccsccccccccccscccccccccccccccccccsccsccccccccccccccccccccccccccccccccccccccccccccccccccccccs" />
      <path
         sodipodi:nodetypes="cccccccccccccccccccccscccccccccccscccccccccccccccccsccccscccccccccccscccccsccccccccc"
         inkscape:connector-curvature="0"
         style="fill:#6dc2dd;fill-opacity:1;stroke:none;stroke-width:3.37654328;stroke-miterlimit:4;stroke-dasharray:none;stroke-opacity:1"
         d="m -321.6244,138.61909 c 45.87923,34.16044 191.82674,114.25252 216.05092,117.89554 l 15.146204,0.13871 c -0.397189,-6.48502 -0.04294,-9.76203 -0.08979,-16.32166 l -4.25838,2.76172 c -1.180492,0.384 -2.155637,1.17862 -3.509863,1.08889 -1.322429,-0.0723 -1.886761,-0.99742 -2.861721,-1.74874 -0.86979,-1.36822 -0.99736,-2.56278 -1.37762,-3.88365 l -0.36888,-6.05031 0.52936,-6.57219 c 0.42003,-1.28609 0.76103,-2.28793 1.59162,-3.68453 0.999228,-0.50254 0.940362,-1.17881 3.234452,-1.2075 1.826398,0.35929 3.46338,1.57146 5.147591,2.59408 0.648645,0.50447 1.265741,0.78784 1.898642,1.18174 0.02738,-6.10967 0.0075,-15.44751 0.03485,-21.55711 -0.02738,-0.0752 -0.04418,-0.16322 -0.07841,-0.23248 -0.179771,-0.35911 -0.303725,-0.56333 -0.472171,-0.68362 -0.168509,-0.12028 -0.38182,-0.15668 -0.741051,-0.18232 -0.212315,-0.0149 -0.370619,-0.0261 -0.546034,0 -0.175353,0.0274 -0.367694,0.0941 -0.645347,0.23522 -0.555305,0.28207 -1.454472,0.86158 -3.254051,2.02172 -0.51461,0.33173 -0.968238,0.58648 -1.367294,0.76657 -0.398994,0.18008 -0.742917,0.28574 -1.037309,0.31903 -0.393829,0.0448 -0.633212,0.0504 -0.865005,-0.0367 -0.231916,-0.0871 -0.45649,-0.26769 -0.821323,-0.59699 -0.32575,-0.29402 -0.54348,-0.53869 -0.71187,-0.83682 -0.16825,-0.29806 -0.28655,-0.6492 -0.41293,-1.15579 -0.2504,-1.00482 -0.44099,-2.13136 -0.57242,-3.32063 -0.13148,-1.18933 -0.20403,-2.441 -0.21779,-3.69897 h -0.006 c -2.5e-4,-0.0653 0,-0.13061 0,-0.19595 0,-0.0653 -0.006,-0.13067 -0.006,-0.19595 h 0.006 c 0.0124,-1.25796 0.0838,-6.24395 0.21412,-7.4334 0.13036,-1.18952 0.31934,-2.31649 0.56881,-3.32157 0.12576,-0.50677 0.24393,-0.85754 0.41206,-1.15585 0.16801,-0.29825 0.38642,-0.54336 0.71187,-0.83769 0.364517,-0.32961 0.588656,-0.51075 0.820323,-0.59793 0.23173,-0.0872 0.471114,-0.0806 0.865005,-0.0367 0.294454,0.033 0.639,0.13845 1.038243,0.3181 0.399242,0.17971 0.853306,0.43353 1.368165,0.76482 1.800698,1.1584 2.700363,1.73748 3.255918,2.01899 0.277777,0.14075 0.468998,0.20684 0.644475,0.23422 0.175416,0.0274 0.334652,0.0155 0.546906,0 0.359231,-0.0261 0.572729,-0.0637 0.741112,-0.18413 0.168322,-0.12041 0.291841,-0.32339 0.471239,-0.68268 0.04854,-0.0968 0.0728,-0.22053 0.109393,-0.32451 l 0.01556,-9.96016 0.01244,-5.6869 0.0062,-3.21218 c -0.05662,-0.22849 -0.115429,-0.42985 -0.206901,-0.61255 -0.179772,-0.35911 -0.303664,-0.56339 -0.472172,-0.68362 -0.168446,-0.12028 -0.381882,-0.15668 -0.741051,-0.18232 -0.212315,-0.0149 -0.370618,-0.0267 -0.545971,0 -0.175416,0.0274 -0.367756,0.0942 -0.645347,0.23515 -0.555368,0.28208 -1.454535,0.86159 -3.254176,2.02179 -0.514547,0.33173 -0.968238,0.58648 -1.367294,0.76657 -0.398993,0.18008 -0.742917,0.28568 -1.037246,0.31903 -0.393892,0.0448 -0.633213,0.0504 -0.865068,-0.0367 -0.231792,-0.0871 -0.456366,-0.26776 -0.821253,-0.59706 -0.32576,-0.29402 -0.54361,-0.53863 -0.71187,-0.83676 -0.16832,-0.29812 -0.28667,-0.6492 -0.41293,-1.15579 -0.25046,-1.00488 -0.441,-2.13136 -0.57242,-3.32069 -0.13148,-1.18927 -0.20404,-3.37433 -0.21785,-4.6323 h -0.006 c -1.2e-4,-0.0653 0,-0.13067 0.006,-0.19595 0,-0.0653 -0.006,-0.13067 -0.006,-0.19601 h 0.006 c 0.0124,-1.2579 0.0839,-5.3105 0.21424,-6.50001 0.1303,-1.18952 0.31928,-2.31643 0.56881,-3.32157 0.12576,-0.50671 0.24393,-0.85754 0.412,-1.15579 0.16807,-0.29825 0.38642,-0.54336 0.71187,-0.83768 0.36452,-0.32968 0.588588,-0.51076 0.820381,-0.59793 0.23173,-0.0873 0.471113,-0.0807 0.865005,-0.0367 0.294453,0.033 0.638999,0.13845 1.038242,0.3181 0.39918,0.17971 0.853244,0.43353 1.368165,0.76476 1.800699,1.15846 2.700301,1.73748 3.255918,2.01899 0.277777,0.14082 0.46906,0.2069 0.644476,0.23428 0.175353,0.0274 0.334589,0.0162 0.546843,0 0.359231,-0.0261 0.572729,-0.0637 0.741112,-0.18413 0.168384,-0.12041 0.291778,-0.32345 0.471239,-0.68268 0.105286,-0.21088 0.178153,-0.42177 0.23789,-0.70739 l -0.206715,-7.00504 z"
         id="path4060" />
      <rect
         rx="2.5168488"
         ry="1.254732"
         transform="matrix(0.9999721,-0.00747002,0.02696542,0.99963637,0,0)"
         y="138.83934"
         x="-124.10381"
         height="2.509464"
         width="28.829397"
         id="rect4062"
         style="opacity:1;fill:#ffffff;fill-opacity:1;stroke:none;stroke-width:1.45317245;stroke-miterlimit:4;stroke-dasharray:none;stroke-opacity:1" />
      <rect
         style="opacity:1;fill:#ffffff;fill-opacity:1;stroke:none;stroke-width:1.68709779;stroke-miterlimit:4;stroke-dasharray:none;stroke-opacity:1"
         id="rect4064"
         width="16.333469"
         height="2.4524009"
         x="-135.44176"
         y="140.07138"
         transform="matrix(0.9999967,0.00256826,-0.0230192,0.99973502,0,0)"
         ry="1.2262005"
         rx="1.4116662" />
      <text
         xml:space="preserve"
         style="font-style:normal;font-variant:normal;font-weight:normal;font-stretch:normal;font-size:23.3712101px;line-height:1.25;font-family:'Bebas Neue';-inkscape-font-specification:'Bebas Neue';text-align:center;letter-spacing:0px;word-spacing:0px;text-anchor:middle;fill:#ffffff;fill-opacity:1;stroke:none;stroke-width:1.25202906"
         x="-225.32076"
         y="163.52957"
         id="text4068"><tspan
           sodipodi:role="line"
           id="tspan4066"
           x="-225.32076"
           y="163.52957"
           style="font-style:normal;font-variant:normal;font-weight:normal;font-stretch:normal;font-family:Digitalt;-inkscape-font-specification:Digitalt;fill:#ffffff;stroke-width:1.25202906">replace list item  list</tspan></text>
      <text
         id="text4072"
         y="202.73199"
         x="-141.89536"
         style="font-style:normal;font-variant:normal;font-weight:normal;font-stretch:normal;font-size:23.3712101px;line-height:1.25;font-family:'Bebas Neue';-inkscape-font-specification:'Bebas Neue';text-align:center;letter-spacing:0px;word-spacing:0px;text-anchor:middle;fill:#ffffff;fill-opacity:1;stroke:none;stroke-width:1.25202906"
         xml:space="preserve"><tspan
           style="font-style:normal;font-variant:normal;font-weight:normal;font-stretch:normal;font-family:Digitalt;-inkscape-font-specification:Digitalt;fill:#ffffff;stroke-width:1.25202906"
           y="202.73199"
           x="-141.89536"
           id="tspan4070"
           sodipodi:role="line">index</tspan></text>
      <text
         xml:space="preserve"
         style="font-style:normal;font-variant:normal;font-weight:normal;font-stretch:normal;font-size:23.3712101px;line-height:1.25;font-family:'Bebas Neue';-inkscape-font-specification:'Bebas Neue';text-align:center;letter-spacing:0px;word-spacing:0px;text-anchor:middle;fill:#ffffff;fill-opacity:1;stroke:none;stroke-width:1.25202906"
         x="-177.45999"
         y="241.00105"
         id="text4076"><tspan
           sodipodi:role="line"
           id="tspan4074"
           x="-177.45999"
           y="241.00105"
           style="font-style:normal;font-variant:normal;font-weight:normal;font-stretch:normal;font-family:Digitalt;-inkscape-font-specification:Digitalt;fill:#ffffff;stroke-width:1.25202906">replacement</tspan></text>
    </g>
  </g>
</svg>
