<?xml version="1.0" encoding="UTF-8" standalone="no"?>
<!-- Created with Inkscape (http://www.inkscape.org/) -->

<svg
   xmlns:dc="http://purl.org/dc/elements/1.1/"
   xmlns:cc="http://creativecommons.org/ns#"
   xmlns:rdf="http://www.w3.org/1999/02/22-rdf-syntax-ns#"
   xmlns:svg="http://www.w3.org/2000/svg"
   xmlns="http://www.w3.org/2000/svg"
   xmlns:sodipodi="http://sodipodi.sourceforge.net/DTD/sodipodi-0.dtd"
   xmlns:inkscape="http://www.inkscape.org/namespaces/inkscape"
   width="232.6637mm"
   height="85.755913mm"
   viewBox="0 0 232.6637 85.755914"
   version="1.1"
   id="svg2283"
   inkscape:version="0.92.3 (2405546, 2018-03-11)"
   sodipodi:docname="list_remove_list_item_list.svg">
  <defs
     id="defs2277" />
  <sodipodi:namedview
     id="base"
     pagecolor="#ffffff"
     bordercolor="#666666"
     borderopacity="1.0"
     inkscape:pageopacity="0.0"
     inkscape:pageshadow="2"
     inkscape:zoom="0.35"
     inkscape:cx="679.94734"
     inkscape:cy="296.15068"
     inkscape:document-units="mm"
     inkscape:current-layer="layer1"
     showgrid="false"
     fit-margin-top="0"
     fit-margin-left="0"
     fit-margin-right="0"
     fit-margin-bottom="0"
     inkscape:window-width="1920"
     inkscape:window-height="1001"
     inkscape:window-x="0"
     inkscape:window-y="0"
     inkscape:window-maximized="1" />
  <metadata
     id="metadata2280">
    <rdf:RDF>
      <cc:Work
         rdf:about="">
        <dc:format>image/svg+xml</dc:format>
        <dc:type
           rdf:resource="http://purl.org/dc/dcmitype/StillImage" />
        <dc:title></dc:title>
      </cc:Work>
    </rdf:RDF>
  </metadata>
  <g
     inkscape:label="Layer 1"
     inkscape:groupmode="layer"
     id="layer1"
     transform="translate(264.5694,-141.43396)">
    <g
       id="g4173"
       transform="matrix(0.62226092,0,0,-0.62226092,1319.5159,2567.6717)"
       inkscape:export-filename="/home/peter/allblocks.png"
       inkscape:export-xdpi="42.094723"
       inkscape:export-ydpi="42.094723">
      <path
         sodipodi:nodetypes="ccccccccscscccccccccccccccccccsccsccccccccccccccccccccccccccccccccccsccccccccccsccccccccsc"
         inkscape:connector-curvature="0"
         id="path4102"
         transform="matrix(0.75000002,0,0,-0.75000002,0,500.00002)"
         d="m -3320.9395,-4528.4727 c -7.5405,0 -14.4994,14.0026 -20.7617,14.0039 -6.2622,0 -11.8286,-13.9974 -16.58,-13.996 h -11.6973 c 0,0 -21.8125,-0.8663 -20.6192,20.1386 l 0.014,102.127 0.014,20.1269 c -1.1737,19.2506 20.6387,20.1192 20.6387,20.1192 h 11.6972 c 4.7515,0 10.3159,13.9975 16.5782,13.9961 6.2621,0 13.2211,-14.0059 20.7617,-14.0059 h 16.4101 l 373.0274,0.025 31.8789,-0.078 0.035,-23.9649 c -0.059,-0.1609 -0.095,-0.3495 -0.1679,-0.498 -0.3852,-0.7695 -0.6508,-1.2073 -1.0118,-1.4649 -0.361,-0.2577 -0.8181,-0.3358 -1.5878,-0.3906 -0.4548,-0.032 -0.7941,-0.056 -1.17,0 -0.3757,0.059 -0.7878,0.2018 -1.3828,0.5039 -1.1898,0.6044 -3.1166,1.8462 -6.9726,4.3321 -1.1027,0.7109 -2.0747,1.2567 -2.9297,1.6425 -0.8551,0.3858 -1.5919,0.6122 -2.2227,0.6836 -0.8438,0.096 -1.3568,0.1066 -1.8535,-0.08 -0.4968,-0.1866 -0.9779,-0.5737 -1.7598,-1.2792 -0.698,-0.63 -1.1646,-1.1544 -1.5254,-1.793 -0.3606,-0.6388 -0.6141,-1.391 -0.8847,-2.4766 -0.5366,-2.153 -0.945,-4.5668 -1.2266,-7.1152 -0.2817,-2.5483 -0.4372,-5.2305 -0.4668,-7.9258 h -0.014 c -3e-4,-0.1399 0,-0.2799 0,-0.4199 0,-0.1399 -0.014,-0.2799 -0.014,-0.4199 h 0.014 c 0.027,-2.6955 0.1798,-5.379 0.459,-7.9278 0.2792,-2.5488 0.6843,-4.9636 1.2188,-7.1172 0.2695,-1.0857 0.5228,-1.8375 0.8828,-2.4765 0.3601,-0.6391 0.8279,-1.1643 1.5254,-1.7949 0.7809,-0.7064 1.2613,-1.0945 1.7578,-1.2813 0.4965,-0.1869 1.0095,-0.1724 1.8535,-0.078 0.6308,0.071 1.3693,0.2966 2.2246,0.6816 0.8555,0.3851 1.8283,0.929 2.9317,1.6387 3.8584,2.4823 5.786,3.723 6.9765,4.3262 0.5952,0.3016 1.0049,0.4431 1.3809,0.5019 0.3759,0.059 0.7171,0.033 1.1719,0 0.7697,-0.056 1.2272,-0.1365 1.5879,-0.3945 0.3608,-0.258 0.6252,-0.693 1.0097,-1.4629 0.104,-0.2072 0.156,-0.4724 0.2344,-0.6953 l 0.033,-23.3418 0.027,-18.1856 0.012,-6.8828 c -0.1214,-0.4894 -0.2474,-0.921 -0.4434,-1.3125 -0.3852,-0.7694 -0.6507,-1.2071 -1.0117,-1.4648 -0.361,-0.2576 -0.8182,-0.3358 -1.5879,-0.3906 -0.4549,-0.032 -0.7942,-0.057 -1.1699,0 -0.3759,0.059 -0.788,0.2016 -1.3828,0.5039 -1.19,0.6044 -3.1167,1.8461 -6.9727,4.332 -1.1027,0.7109 -2.0748,1.2568 -2.9297,1.6426 -0.8551,0.3858 -1.5918,0.6122 -2.2226,0.6836 -0.8439,0.096 -1.3569,0.1085 -1.8536,-0.078 -0.4968,-0.1865 -0.978,-0.5737 -1.7597,-1.2793 -0.6982,-0.63 -1.1647,-1.1541 -1.5254,-1.7929 -0.3607,-0.6387 -0.6141,-1.391 -0.8848,-2.4766 -0.5366,-2.1531 -0.9449,-4.567 -1.2265,-7.1152 -0.2818,-2.5483 -0.4372,-5.2305 -0.4668,-7.9258 h -0.014 c -3e-4,-0.14 3e-4,-0.2799 0.014,-0.4199 0,-0.1399 -0.014,-0.2801 -0.014,-0.4199 h 0.014 c 0.027,-2.6955 0.1797,-5.379 0.4589,-7.9278 0.2792,-2.5488 0.6841,-4.9636 1.2188,-7.1172 0.2695,-1.0857 0.5227,-1.8375 0.8828,-2.4765 0.3601,-0.6392 0.8281,-1.1643 1.5254,-1.795 0.7811,-0.7064 1.2611,-1.0943 1.7578,-1.2812 0.4965,-0.1868 1.0095,-0.1723 1.8535,-0.078 0.631,0.071 1.3692,0.2965 2.2246,0.6816 0.8554,0.3849 1.8283,0.9288 2.9317,1.6387 3.8584,2.4823 5.786,3.723 6.9765,4.3262 0.5952,0.3016 1.005,0.4431 1.3809,0.5019 0.3757,0.059 0.7171,0.035 1.1719,0 0.7697,-0.056 1.2271,-0.1365 1.5879,-0.3945 0.3608,-0.258 0.6252,-0.693 1.0097,-1.4629 0.2256,-0.4517 0.3818,-0.9038 0.5098,-1.5156 l 0.033,-22.5176 -32.3125,-0.3535 -0.01,0.01 -337.9863,0.3691 v -0.3926 h -27.0371 -24.2481 z"
         style="fill:#0ea7cf;fill-opacity:1;stroke:#1086a5;stroke-width:7.23499966;stroke-miterlimit:4;stroke-dasharray:none;stroke-opacity:1" />
      <path
         sodipodi:nodetypes="ccccccccccscccccccccccscccccccccccccccccsccccscccccccccccscccccsccccccccc"
         inkscape:connector-curvature="0"
         style="fill:#6dc2dd;fill-opacity:1;stroke:none;stroke-width:5.42624998;stroke-miterlimit:4;stroke-dasharray:none;stroke-opacity:1"
         d="m -2492.3306,3893.4312 c 73.7298,-54.8974 252.9432,-110.1831 291.8724,-116.0377 l 23.9092,-0.096 0.3833,12.1881 c -0.044,0.1208 -0.071,0.2622 -0.126,0.3736 -0.2889,0.5771 -0.4881,0.9053 -0.7588,1.0986 -0.2708,0.1933 -0.6136,0.2518 -1.1909,0.293 -0.3412,0.024 -0.5956,0.042 -0.8775,0 -0.2818,-0.044 -0.5909,-0.1513 -1.0371,-0.378 -0.8924,-0.4533 -2.3374,-1.3846 -5.2294,-3.249 -0.827,-0.5331 -1.556,-0.9425 -2.1973,-1.2319 -0.6413,-0.2894 -1.1939,-0.4592 -1.667,-0.5127 -0.633,-0.072 -1.0176,-0.081 -1.3902,0.059 -0.3726,0.1399 -0.7335,0.4302 -1.3198,0.9594 -0.5235,0.4725 -0.8734,0.8657 -1.144,1.3448 -0.2705,0.479 -0.4606,1.0433 -0.6636,1.8574 -0.4024,1.6148 -0.7087,3.4252 -0.9199,5.3364 -0.2113,1.9113 -0.3279,3.9228 -0.3501,5.9444 h -0.01 c -3e-4,0.1049 0,0.2099 0,0.3149 0,0.1049 -0.01,0.21 -0.01,0.3149 h 0.01 c 0.02,2.0216 0.1348,10.0343 0.3442,11.9458 0.2094,1.9116 0.5132,3.7227 0.9141,5.3379 0.2021,0.8144 0.392,1.3781 0.6621,1.8575 0.2701,0.4793 0.621,0.8732 1.1441,1.3462 0.5857,0.5297 0.9459,0.8208 1.3183,0.9609 0.3724,0.1401 0.7571,0.1296 1.3901,0.059 0.4732,-0.053 1.0269,-0.2225 1.6685,-0.5112 0.6416,-0.2888 1.3712,-0.6967 2.1987,-1.2291 2.8938,-1.8616 4.3396,-2.7922 5.2324,-3.2446 0.4464,-0.2262 0.7537,-0.3324 1.0357,-0.3764 0.2819,-0.044 0.5378,-0.025 0.8789,0 0.5772,0.042 0.9204,0.1023 1.1909,0.2959 0.2706,0.1935 0.469,0.5197 0.7573,1.0971 0.078,0.1555 0.1171,0.3544 0.1758,0.5215 l 0.025,16.0064 0.02,9.1391 0.01,5.1621 c -0.091,0.3672 -0.1855,0.6908 -0.3325,0.9844 -0.2889,0.5771 -0.488,0.9054 -0.7588,1.0986 -0.2707,0.1933 -0.6136,0.2518 -1.1909,0.293 -0.3412,0.024 -0.5956,0.043 -0.8774,0 -0.2819,-0.044 -0.591,-0.1513 -1.0371,-0.3779 -0.8925,-0.4533 -2.3375,-1.3846 -5.2296,-3.2491 -0.8269,-0.5331 -1.556,-0.9425 -2.1972,-1.2319 -0.6413,-0.2894 -1.1939,-0.4591 -1.667,-0.5127 -0.6329,-0.072 -1.0176,-0.081 -1.3901,0.059 -0.3726,0.14 -0.7335,0.4303 -1.3199,0.9595 -0.5235,0.4725 -0.8735,0.8656 -1.144,1.3447 -0.2705,0.4791 -0.4607,1.0433 -0.6636,1.8574 -0.4025,1.6149 -0.7087,3.4252 -0.9199,5.3365 -0.2113,1.9112 -0.3279,5.4227 -0.3501,7.4443 h -0.01 c -2e-4,0.1049 0,0.21 0.01,0.3149 0,0.1049 -0.01,0.21 -0.01,0.315 h 0.01 c 0.02,2.0215 0.1349,8.5342 0.3443,10.4458 0.2094,1.9116 0.5131,3.7226 0.9141,5.3379 0.2021,0.8143 0.392,1.3781 0.6621,1.8574 0.2701,0.4793 0.621,0.8732 1.144,1.3462 0.5858,0.5298 0.9459,0.8208 1.3184,0.9609 0.3724,0.1402 0.7571,0.1297 1.3901,0.059 0.4732,-0.053 1.0269,-0.2225 1.6685,-0.5112 0.6415,-0.2888 1.3712,-0.6967 2.1987,-1.229 2.8938,-1.8617 4.3395,-2.7922 5.2324,-3.2446 0.4464,-0.2263 0.7538,-0.3325 1.0357,-0.3765 0.2818,-0.044 0.5377,-0.026 0.8788,0 0.5773,0.042 0.9204,0.1024 1.191,0.2959 0.2706,0.1935 0.4689,0.5198 0.7573,1.0971 0.1692,0.3389 0.2863,0.6778 0.3823,1.1368 l -0.3322,11.2574 z"
         id="path4118" />
      <rect
         rx="4.0446839"
         ry="2.0164082"
         transform="matrix(0.9999721,0.00747001,0.02696542,-0.99963637,0,0)"
         y="-3908.8435"
         x="-2118.8601"
         height="4.0328164"
         width="46.330078"
         id="rect4120"
         style="opacity:1;fill:#ffffff;fill-opacity:1;stroke:none;stroke-width:2.33531046;stroke-miterlimit:4;stroke-dasharray:none;stroke-opacity:1" />
      <rect
         style="opacity:1;fill:#ffffff;fill-opacity:1;stroke:none;stroke-width:2.71123862;stroke-miterlimit:4;stroke-dasharray:none;stroke-opacity:1"
         id="rect4122"
         width="26.248585"
         height="3.9411135"
         x="-2343.0981"
         y="-3886.6443"
         transform="matrix(0.9999967,-0.00256827,-0.0230192,-0.99973502,0,0)"
         ry="1.9705567"
         rx="2.2686081" />
      <text
         xml:space="preserve"
         style="font-style:normal;font-variant:normal;font-weight:normal;font-stretch:normal;font-size:37.55853653px;line-height:1.25;font-family:'Bebas Neue';-inkscape-font-specification:'Bebas Neue';text-align:center;letter-spacing:0px;word-spacing:0px;text-anchor:middle;fill:#ffffff;fill-opacity:1;stroke:none;stroke-width:2.01206446"
         x="-2362.6528"
         y="-3853.3245"
         id="text4126"
         transform="scale(1,-1)"><tspan
           sodipodi:role="line"
           id="tspan4124"
           x="-2362.6528"
           y="-3853.3245"
           style="font-style:normal;font-variant:normal;font-weight:normal;font-stretch:normal;font-family:PAGRevolucionW00-Regular;-inkscape-font-specification:PAGRevolucionW00-Regular;fill:#ffffff;stroke-width:2.01206446">remove list item  list</tspan></text>
      <text
         transform="scale(1,-1)"
         id="text4130"
         y="-3790.3245"
         x="-2247.6685"
         style="font-style:normal;font-variant:normal;font-weight:normal;font-stretch:normal;font-size:37.55853653px;line-height:1.25;font-family:'Bebas Neue';-inkscape-font-specification:'Bebas Neue';text-align:center;letter-spacing:0px;word-spacing:0px;text-anchor:middle;fill:#ffffff;fill-opacity:1;stroke:none;stroke-width:2.01206446"
         xml:space="preserve"><tspan
           style="font-style:normal;font-variant:normal;font-weight:normal;font-stretch:normal;font-family:PAGRevolucionW00-Regular;-inkscape-font-specification:PAGRevolucionW00-Regular;fill:#ffffff;stroke-width:2.01206446"
           y="-3790.3245"
           x="-2247.6685"
           id="tspan4128"
           sodipodi:role="line">index</tspan></text>
    </g>
  </g>
</svg>
