<?xml version="1.0" encoding="UTF-8" standalone="no"?>
<!-- Created with Inkscape (http://www.inkscape.org/) -->

<svg
   xmlns:dc="http://purl.org/dc/elements/1.1/"
   xmlns:cc="http://creativecommons.org/ns#"
   xmlns:rdf="http://www.w3.org/1999/02/22-rdf-syntax-ns#"
   xmlns:svg="http://www.w3.org/2000/svg"
   xmlns="http://www.w3.org/2000/svg"
   xmlns:sodipodi="http://sodipodi.sourceforge.net/DTD/sodipodi-0.dtd"
   xmlns:inkscape="http://www.inkscape.org/namespaces/inkscape"
   width="235.19751mm"
   height="132.42491mm"
   viewBox="0 0 235.19751 132.42491"
   version="1.1"
   id="svg2283"
   inkscape:version="0.92.3 (2405546, 2018-03-11)"
   sodipodi:docname="list_replace_list_item_list.svg">
  <defs
     id="defs2277" />
  <sodipodi:namedview
     id="base"
     pagecolor="#ffffff"
     bordercolor="#666666"
     borderopacity="1.0"
     inkscape:pageopacity="0.0"
     inkscape:pageshadow="2"
     inkscape:zoom="0.35"
     inkscape:cx="900.49402"
     inkscape:cy="448.46314"
     inkscape:document-units="mm"
     inkscape:current-layer="layer1"
     showgrid="false"
     fit-margin-top="0"
     fit-margin-left="0"
     fit-margin-right="0"
     fit-margin-bottom="0"
     inkscape:window-width="1920"
     inkscape:window-height="1001"
     inkscape:window-x="0"
     inkscape:window-y="0"
     inkscape:window-maximized="1" />
  <metadata
     id="metadata2280">
    <rdf:RDF>
      <cc:Work
         rdf:about="">
        <dc:format>image/svg+xml</dc:format>
        <dc:type
           rdf:resource="http://purl.org/dc/dcmitype/StillImage" />
        <dc:title></dc:title>
      </cc:Work>
    </rdf:RDF>
  </metadata>
  <g
     inkscape:label="Layer 1"
     inkscape:groupmode="layer"
     id="layer1"
     transform="translate(322.92237,-135.0643)">
    <g
       id="g4100"
       transform="matrix(0.62226092,0,0,-0.62226092,1241.7888,2350.0288)"
       inkscape:export-filename="/home/peter/allblocks.png"
       inkscape:export-xdpi="42.094723"
       inkscape:export-ydpi="42.094723">
      <path
         style="fill:#0ea7cf;fill-opacity:1;stroke:#1086a5;stroke-width:5.42624998;stroke-miterlimit:4;stroke-dasharray:none;stroke-opacity:1"
         d="m -2459.5696,3556.8289 c -5.6554,0 -10.8747,-10.5019 -15.5713,-10.5029 -4.6967,0 -8.87,10.4971 -12.4337,10.4971 h -8.7744 c 0,0 -16.3592,0.651 -15.4643,-15.1026 l 0.01,-151.5952 0.01,-15.0967 c -0.8803,-14.438 15.479,-15.0879 15.479,-15.0879 h 8.773 c 3.5636,0 7.7369,-10.4982 12.4336,-10.4971 4.6966,0 9.9173,10.503 15.5728,10.503 l 201.936,1.371 94.1924,0.1055 23.9092,0.059 0.01,15.3193 0.01,13.8325 c -0.034,0.1091 -0.061,0.2282 -0.1099,0.3252 -0.2889,0.5771 -0.488,0.9053 -0.7588,1.0987 -0.2707,0.1933 -0.6136,0.2517 -1.1909,0.2929 -0.3412,0.024 -0.5955,0.042 -0.8774,0 -0.2818,-0.044 -0.591,-0.1513 -1.0371,-0.3779 -0.8925,-0.4533 -2.3376,-1.3846 -5.2296,-3.2491 -0.8269,-0.5331 -1.556,-0.9426 -2.1972,-1.2318 -0.6413,-0.2895 -1.1939,-0.4593 -1.667,-0.5127 -0.6329,-0.072 -1.0177,-0.081 -1.3901,0.06 -0.3726,0.14 -0.7334,0.4302 -1.3199,0.9594 -0.5235,0.4725 -0.8734,0.8657 -1.144,1.3448 -0.2704,0.4791 -0.4607,1.0433 -0.6636,1.8574 -0.4025,1.6149 -0.7087,3.4251 -0.9199,5.3364 -0.2112,1.9113 -0.3279,3.9229 -0.3501,5.9444 h -0.01 c -2e-4,0.1049 0,0.21 0,0.3149 0,0.1049 -0.01,0.2099 -0.01,0.3149 h 0.01 c 0.02,2.0216 0.1349,4.0343 0.3443,5.9459 0.2094,1.9116 0.513,3.7227 0.914,5.3379 0.202,0.8143 0.3922,1.378 0.6622,1.8574 0.27,0.4792 0.6209,0.8732 1.1439,1.3461 0.5858,0.5298 0.9459,0.8209 1.3185,0.961 0.3723,0.1403 0.7571,0.1289 1.3901,0.058 0.4731,-0.053 1.0268,-0.2225 1.6684,-0.5112 0.6415,-0.2888 1.3712,-0.6966 2.1987,-1.229 2.8938,-1.8616 4.3396,-2.7923 5.2325,-3.2447 0.4464,-0.2263 0.7536,-0.3323 1.0356,-0.3764 0.2818,-0.044 0.5378,-0.025 0.8789,0 0.5772,0.042 0.9203,0.1024 1.1909,0.2959 0.2706,0.1935 0.4689,0.5199 0.7574,1.0972 0.061,0.1214 0.096,0.2686 0.1377,0.4072 l 0.01,23.6177 0.01,14.2822 c -0.044,0.1206 -0.071,0.2621 -0.126,0.3735 -0.2889,0.5771 -0.488,0.9055 -0.7588,1.0987 -0.2707,0.1933 -0.6136,0.2518 -1.1909,0.2929 -0.3411,0.024 -0.5954,0.042 -0.8774,0 -0.2817,-0.044 -0.591,-0.1513 -1.0371,-0.3779 -0.8925,-0.4533 -2.3376,-1.3846 -5.2296,-3.249 -0.8269,-0.5332 -1.556,-0.9426 -2.1972,-1.2319 -0.6413,-0.2894 -1.1939,-0.4592 -1.667,-0.5127 -0.6329,-0.072 -1.0176,-0.081 -1.3901,0.059 -0.3727,0.14 -0.7334,0.4302 -1.3199,0.9594 -0.5235,0.4725 -0.8734,0.8658 -1.144,1.3448 -0.2705,0.4791 -0.4606,1.0432 -0.6635,1.8574 -0.4025,1.6147 -0.7088,3.4251 -0.92,5.3364 -0.2113,1.9112 -0.3279,3.9229 -0.3501,5.9443 h -0.012 c -3e-4,0.105 0,0.21 0,0.315 0,0.1049 -0.01,0.2099 -0.01,0.3149 h 0.01 c 0.02,2.0217 0.1349,4.0342 0.3443,5.9458 0.2094,1.9116 0.5131,3.7227 0.914,5.3379 0.2021,0.8143 0.3921,1.3782 0.6621,1.8575 0.2701,0.4792 0.6209,0.8731 1.144,1.3461 0.5857,0.5298 0.9461,0.8208 1.3184,0.9609 0.3724,0.1401 0.7571,0.129 1.3901,0.059 0.4731,-0.053 1.027,-0.2225 1.6685,-0.5112 0.6415,-0.2889 1.3713,-0.6967 2.1987,-1.229 2.8938,-1.8617 4.3395,-2.7922 5.2325,-3.2446 0.4462,-0.2262 0.7536,-0.3324 1.0356,-0.3765 0.2819,-0.044 0.5378,-0.025 0.8789,0 0.5772,0.042 0.9205,0.1024 1.1909,0.2959 0.2706,0.1935 0.4689,0.5198 0.7573,1.0972 0.078,0.1555 0.117,0.3542 0.1758,0.5215 l 0.025,17.5063 0.02,13.6391 0.01,5.1621 c -0.091,0.3672 -0.1855,0.6909 -0.3325,0.9844 -0.2889,0.5771 -0.4878,0.9055 -0.7587,1.0987 -0.2706,0.1933 -0.6136,0.2518 -1.191,0.2929 -0.3412,0.024 -0.5956,0.043 -0.8774,0 -0.2819,-0.044 -0.5911,-0.1511 -1.0372,-0.3779 -0.8925,-0.4533 -2.3374,-1.3845 -5.2294,-3.249 -0.827,-0.5331 -1.5562,-0.9426 -2.1973,-1.2319 -0.6414,-0.2895 -1.1939,-0.4591 -1.667,-0.5127 -0.6329,-0.072 -1.0176,-0.08 -1.3901,0.06 -0.3726,0.1399 -0.7335,0.4301 -1.3198,0.9594 -0.5237,0.4724 -0.8736,0.8656 -1.1441,1.3447 -0.2704,0.479 -0.4607,1.0433 -0.6636,1.8575 -0.4025,1.6148 -0.7087,3.4251 -0.9199,5.3364 -0.2112,1.9111 -0.3279,3.9226 -0.3501,5.9443 h -0.01 c -2e-4,0.1049 5e-4,0.2099 0.01,0.3149 0,0.1049 -0.01,0.2102 -0.01,0.315 h 0.01 c 0.02,2.0217 0.1348,4.0343 0.3442,5.9458 0.2094,1.9116 0.5132,3.7227 0.9141,5.3379 0.2021,0.8142 0.3921,1.3781 0.6621,1.8574 0.2703,0.4794 0.621,0.8732 1.1441,1.3462 0.5857,0.5298 0.9458,0.8208 1.3183,0.9609 0.3724,0.1402 0.7572,0.1303 1.3902,0.06 0.4731,-0.053 1.0267,-0.2224 1.6684,-0.5112 0.6414,-0.2887 1.3712,-0.6967 2.1988,-1.229 2.8938,-1.8618 4.3395,-2.7922 5.2324,-3.2446 0.4464,-0.2262 0.7538,-0.3322 1.0356,-0.3765 0.2819,-0.044 0.5379,-0.026 0.879,0 0.5772,0.042 0.9202,0.1024 1.1908,0.2959 0.2706,0.1933 0.469,0.5198 0.7574,1.0972 0.1692,0.3388 0.2863,0.6778 0.3823,1.1367 l 0.025,16.8882 -24.2535,0.2665 -0.01,-0.01 -106.9189,-0.1201 -11.0654,0.1421 h -8.7744 z"
         id="path4058"
         inkscape:connector-curvature="0"
         sodipodi:nodetypes="scscccccsccccccccccccccccccccccsccsccccccccccscccccccccccccccccccsccsccccccccccccccccccccccccccccccccccccccccccccccccccccccs" />
      <path
         sodipodi:nodetypes="cccccccccccccccccccccscccccccccccscccccccccccccccccsccccscccccccccccscccccsccccccccc"
         inkscape:connector-curvature="0"
         style="fill:#6dc2dd;fill-opacity:1;stroke:none;stroke-width:5.42624998;stroke-miterlimit:4;stroke-dasharray:none;stroke-opacity:1"
         d="m -2458.8973,3553.8303 c 73.7299,-54.8973 254.699,-183.6087 293.6283,-189.4632 l 24.3406,-0.2229 c -0.6383,10.4217 -0.069,15.688 -0.1443,26.2296 l -6.8434,-4.4382 c -1.8971,-0.6171 -3.4642,-1.8941 -5.6405,-1.7499 -2.1252,0.1162 -3.0321,1.6029 -4.5989,2.8103 -1.3978,2.1988 -1.6028,4.1185 -2.2139,6.2412 l -0.5928,9.7231 0.8507,10.5618 c 0.675,2.0668 1.223,3.6768 2.5578,5.9212 1.6058,0.8076 1.5112,1.8944 5.1979,1.9405 2.9351,-0.5774 5.5658,-2.5254 8.2724,-4.1688 1.0424,-0.8107 2.0341,-1.2661 3.0512,-1.8991 0.044,9.8185 0.012,24.8248 0.056,34.6432 -0.044,0.1209 -0.071,0.2623 -0.126,0.3736 -0.2889,0.5771 -0.4881,0.9053 -0.7588,1.0986 -0.2708,0.1933 -0.6136,0.2518 -1.1909,0.293 -0.3412,0.024 -0.5956,0.042 -0.8775,0 -0.2818,-0.044 -0.5909,-0.1513 -1.0371,-0.378 -0.8924,-0.4533 -2.3374,-1.3846 -5.2294,-3.249 -0.827,-0.5331 -1.556,-0.9425 -2.1973,-1.2319 -0.6412,-0.2894 -1.1939,-0.4592 -1.667,-0.5127 -0.6329,-0.072 -1.0176,-0.081 -1.3901,0.059 -0.3727,0.1399 -0.7336,0.4302 -1.3199,0.9594 -0.5235,0.4725 -0.8734,0.8657 -1.144,1.3448 -0.2704,0.479 -0.4605,1.0433 -0.6636,1.8574 -0.4024,1.6148 -0.7087,3.4252 -0.9199,5.3364 -0.2113,1.9113 -0.3279,3.9228 -0.35,5.9444 h -0.01 c -4e-4,0.1049 0,0.2099 0,0.3149 0,0.1049 -0.01,0.21 -0.01,0.3149 h 0.01 c 0.02,2.0216 0.1347,10.0343 0.3441,11.9458 0.2095,1.9116 0.5132,3.7227 0.9141,5.3379 0.2021,0.8144 0.392,1.3781 0.6622,1.8575 0.27,0.4793 0.621,0.8732 1.144,1.3462 0.5858,0.5297 0.946,0.8208 1.3183,0.9609 0.3724,0.1401 0.7571,0.1296 1.3901,0.059 0.4732,-0.053 1.0269,-0.2225 1.6685,-0.5112 0.6416,-0.2888 1.3713,-0.6967 2.1987,-1.2291 2.8938,-1.8616 4.3396,-2.7922 5.2324,-3.2446 0.4464,-0.2262 0.7537,-0.3324 1.0357,-0.3764 0.2819,-0.044 0.5378,-0.025 0.8789,0 0.5773,0.042 0.9204,0.1023 1.191,0.2959 0.2705,0.1935 0.469,0.5197 0.7573,1.0971 0.078,0.1555 0.117,0.3544 0.1758,0.5215 l 0.025,16.0064 0.02,9.1391 0.01,5.1621 c -0.091,0.3672 -0.1855,0.6908 -0.3325,0.9844 -0.2889,0.5771 -0.488,0.9054 -0.7588,1.0986 -0.2707,0.1933 -0.6137,0.2518 -1.1909,0.293 -0.3412,0.024 -0.5956,0.043 -0.8774,0 -0.2819,-0.044 -0.591,-0.1513 -1.0371,-0.3779 -0.8925,-0.4533 -2.3375,-1.3846 -5.2296,-3.2491 -0.8269,-0.5331 -1.556,-0.9425 -2.1973,-1.2319 -0.6412,-0.2894 -1.1939,-0.4591 -1.6669,-0.5127 -0.633,-0.072 -1.0176,-0.081 -1.3902,0.059 -0.3725,0.14 -0.7334,0.4303 -1.3198,0.9595 -0.5235,0.4725 -0.8736,0.8656 -1.144,1.3447 -0.2705,0.4791 -0.4607,1.0433 -0.6636,1.8574 -0.4025,1.6149 -0.7087,3.4252 -0.9199,5.3365 -0.2113,1.9112 -0.3279,5.4227 -0.3501,7.4443 h -0.01 c -2e-4,0.1049 0,0.21 0.01,0.3149 0,0.1049 -0.01,0.21 -0.01,0.315 h 0.01 c 0.02,2.0215 0.1349,8.5342 0.3443,10.4458 0.2094,1.9116 0.5131,3.7226 0.9141,5.3379 0.2021,0.8143 0.392,1.3781 0.6621,1.8574 0.2701,0.4793 0.621,0.8732 1.144,1.3462 0.5858,0.5298 0.9459,0.8208 1.3184,0.9609 0.3724,0.1402 0.7571,0.1297 1.3901,0.059 0.4732,-0.053 1.0269,-0.2225 1.6685,-0.5112 0.6415,-0.2888 1.3712,-0.6967 2.1987,-1.229 2.8938,-1.8617 4.3395,-2.7922 5.2324,-3.2446 0.4464,-0.2263 0.7538,-0.3325 1.0357,-0.3765 0.2818,-0.044 0.5377,-0.026 0.8788,0 0.5773,0.042 0.9204,0.1024 1.191,0.2959 0.2706,0.1935 0.4689,0.5198 0.7573,1.0971 0.1692,0.3389 0.2863,0.6778 0.3823,1.1368 l -0.3322,11.2574 z"
         id="path4060" />
      <rect
         rx="4.0446839"
         ry="2.0164082"
         transform="matrix(0.9999721,0.00747001,0.02696542,-0.99963637,0,0)"
         y="-3568.999"
         x="-2092.8447"
         height="4.0328164"
         width="46.330078"
         id="rect4062"
         style="opacity:1;fill:#ffffff;fill-opacity:1;stroke:none;stroke-width:2.33531046;stroke-miterlimit:4;stroke-dasharray:none;stroke-opacity:1" />
      <rect
         style="opacity:1;fill:#ffffff;fill-opacity:1;stroke:none;stroke-width:2.71123862;stroke-miterlimit:4;stroke-dasharray:none;stroke-opacity:1"
         id="rect4064"
         width="26.248585"
         height="3.9411135"
         x="-2300.1096"
         y="-3547.1477"
         transform="matrix(0.9999967,-0.00256827,-0.0230192,-0.99973502,0,0)"
         ry="1.9705567"
         rx="2.2686081" />
      <text
         xml:space="preserve"
         style="font-style:normal;font-variant:normal;font-weight:normal;font-stretch:normal;font-size:37.55853653px;line-height:1.25;font-family:'Bebas Neue';-inkscape-font-specification:'Bebas Neue';text-align:center;letter-spacing:0px;word-spacing:0px;text-anchor:middle;fill:#ffffff;fill-opacity:1;stroke:none;stroke-width:2.01206446"
         x="-2337.2988"
         y="-3513.7981"
         id="text4068"
         transform="scale(1,-1)"><tspan
           sodipodi:role="line"
           id="tspan4066"
           x="-2337.2988"
           y="-3513.7981"
           style="font-style:normal;font-variant:normal;font-weight:normal;font-stretch:normal;font-family:PAGRevolucionW00-Regular;-inkscape-font-specification:PAGRevolucionW00-Regular;fill:#ffffff;stroke-width:2.01206446">replace list item  list</tspan></text>
      <text
         transform="scale(1,-1)"
         id="text4072"
         y="-3450.7981"
         x="-2217.5098"
         style="font-style:normal;font-variant:normal;font-weight:normal;font-stretch:normal;font-size:37.55853653px;line-height:1.25;font-family:'Bebas Neue';-inkscape-font-specification:'Bebas Neue';text-align:center;letter-spacing:0px;word-spacing:0px;text-anchor:middle;fill:#ffffff;fill-opacity:1;stroke:none;stroke-width:2.01206446"
         xml:space="preserve"><tspan
           style="font-style:normal;font-variant:normal;font-weight:normal;font-stretch:normal;font-family:PAGRevolucionW00-Regular;-inkscape-font-specification:PAGRevolucionW00-Regular;fill:#ffffff;stroke-width:2.01206446"
           y="-3450.7981"
           x="-2217.5098"
           id="tspan4070"
           sodipodi:role="line">index</tspan></text>
      <text
         xml:space="preserve"
         style="font-style:normal;font-variant:normal;font-weight:normal;font-stretch:normal;font-size:37.55853653px;line-height:1.25;font-family:'Bebas Neue';-inkscape-font-specification:'Bebas Neue';text-align:center;letter-spacing:0px;word-spacing:0px;text-anchor:middle;fill:#ffffff;fill-opacity:1;stroke:none;stroke-width:2.01206446"
         x="-2271.0579"
         y="-3389.2981"
         id="text4076"
         transform="scale(1,-1)"><tspan
           sodipodi:role="line"
           id="tspan4074"
           x="-2271.0579"
           y="-3389.2981"
           style="font-style:normal;font-variant:normal;font-weight:normal;font-stretch:normal;font-family:PAGRevolucionW00-Regular;-inkscape-font-specification:PAGRevolucionW00-Regular;fill:#ffffff;stroke-width:2.01206446">replacement</tspan></text>
    </g>
  </g>
</svg>
