<?xml version="1.0" encoding="UTF-8" standalone="no"?>
<!-- Created with Inkscape (http://www.inkscape.org/) -->

<svg
   xmlns:dc="http://purl.org/dc/elements/1.1/"
   xmlns:cc="http://creativecommons.org/ns#"
   xmlns:rdf="http://www.w3.org/1999/02/22-rdf-syntax-ns#"
   xmlns:svg="http://www.w3.org/2000/svg"
   xmlns="http://www.w3.org/2000/svg"
   xmlns:sodipodi="http://sodipodi.sourceforge.net/DTD/sodipodi-0.dtd"
   xmlns:inkscape="http://www.inkscape.org/namespaces/inkscape"
   width="298.26978mm"
   height="41.242496mm"
   viewBox="0 0 298.26977 41.242496"
   version="1.1"
   id="svg2283"
   inkscape:version="0.92.3 (2405546, 2018-03-11)"
   sodipodi:docname="list_pick_a_random_item.svg">
  <defs
     id="defs2277" />
  <sodipodi:namedview
     id="base"
     pagecolor="#ffffff"
     bordercolor="#666666"
     borderopacity="1.0"
     inkscape:pageopacity="0.0"
     inkscape:pageshadow="2"
     inkscape:zoom="0.35"
     inkscape:cx="326.33466"
     inkscape:cy="713.79592"
     inkscape:document-units="mm"
     inkscape:current-layer="layer1"
     showgrid="false"
     fit-margin-top="0"
     fit-margin-left="0"
     fit-margin-right="0"
     fit-margin-bottom="0"
     inkscape:window-width="1920"
     inkscape:window-height="1001"
     inkscape:window-x="0"
     inkscape:window-y="0"
     inkscape:window-maximized="1" />
  <metadata
     id="metadata2280">
    <rdf:RDF>
      <cc:Work
         rdf:about="">
        <dc:format>image/svg+xml</dc:format>
        <dc:type
           rdf:resource="http://purl.org/dc/dcmitype/StillImage" />
        <dc:title></dc:title>
      </cc:Work>
    </rdf:RDF>
  </metadata>
  <g
     inkscape:label="Layer 1"
     inkscape:groupmode="layer"
     id="layer1"
     transform="translate(279.48854,-296.44934)">
    <g
       id="g26">
      <path
         style="fill:#0ea7cf;fill-opacity:1;stroke:#1086a5;stroke-width:3.37654328;stroke-miterlimit:4;stroke-dasharray:none;stroke-opacity:1"
         d="m 16.928604,335.65535 0.161913,-10.65205 c -0.06279,-0.32631 -0.146294,-0.53713 -0.261412,-0.76513 -0.361845,-0.71703 -0.497124,-0.81292 -1.215711,-0.86177 -0.849324,-0.0579 -0.846462,-0.0591 -4.437965,2.27281 -1.027042,0.66688 -1.8129573,1.02468 -2.4015539,1.09325 -0.7873468,0.0918 -0.9561661,0.0286 -1.6880694,-0.62749 -0.6534362,-0.58586 -0.8761434,-0.97695 -1.1319549,-1.9893 -0.5074538,-2.00804 -0.7771416,-4.50156 -0.8130461,-7.0173 l -0.00622,1.8e-4 c -3.734e-4,-0.0653 0,-0.13042 0,-0.19576 0,-0.0653 -0.00622,-0.13043 -0.00622,-0.19576 l 0.00622,-1.9e-4 c 0.016801,-2.51592 0.2678211,-5.01181 0.7600917,-7.02358 0.2482199,-1.01429 0.4679402,-1.407 1.1169584,-1.99777 0.7269252,-0.66178 0.8952467,-0.72568 1.683278,-0.63987 0.5891566,0.0642 1.3777482,0.41604 2.4097062,1.07514 3.608988,2.3051 3.606126,2.30342 4.455014,2.23927 0.718152,-0.0541 0.852747,-0.15121 1.209178,-0.87092 0.113438,-0.22887 0.195265,-0.44025 0.255625,-0.76706 l -0.0392,-10.44919 -15.0803692,-0.14524 -267.5685868,0.29029 -0.0429,5.30477 c -0.0386,4.82657 -0.0789,5.37777 -0.44386,6.11465 -0.35649,0.71971 -0.49103,0.81659 -1.20924,0.87085 -0.84889,0.0642 -0.84603,0.0658 -4.45495,-2.2392 -1.03202,-0.65916 -1.82061,-1.01099 -2.40971,-1.07515 -0.78803,-0.0858 -0.95635,-0.0218 -1.68334,0.63981 -0.64895,0.59078 -0.86874,0.98349 -1.11696,1.99777 -0.49227,2.01183 -0.74316,4.50766 -0.76009,7.02359 l -0.006,6e-5 c 3.7e-4,0.0653 0.006,0.13042 0.006,0.19576 -2.5e-4,0.0653 0,0.13043 0,0.19576 h 0.006 c 0.0361,2.51574 0.3056,5.0092 0.81305,7.01724 0.25587,1.01236 0.47858,1.40345 1.13196,1.98931 0.73196,0.65617 0.90047,0.71964 1.68813,0.62748 0.58859,-0.0686 1.37451,-0.42637 2.40149,-1.09325 3.5915,-2.33217 3.58864,-2.33055 4.43796,-2.27274 0.71859,0.0492 0.85387,0.14474 1.21578,0.86177 0.37049,0.73402 0.41461,1.28497 0.4899,6.11104 l 0.0828,5.30433 267.5686482,-0.29034 z"
         id="path3833"
         inkscape:connector-curvature="0"
         sodipodi:nodetypes="cccccccccccccccsccccccccccccccccccccccscccccc" />
      <path
         sodipodi:nodetypes="ccccccccccccccccscccccccc"
         inkscape:connector-curvature="0"
         id="path3835"
         d="m 15.945121,334.04681 0.201301,-0.20286 0.169815,-7.56022 c -0.06291,-0.32631 -0.146355,-0.53707 -0.261411,-0.76507 -0.361907,-0.71703 -0.497187,-0.81292 -1.215712,-0.86177 -0.849386,-0.0579 -1.234565,0.12091 -4.826006,2.45308 -1.0270419,0.66687 -1.8129575,1.02467 -2.4015541,1.09325 -0.9374983,-0.14804 -0.910181,-0.20547 -1.6421466,-0.86171 -0.6533739,-0.58586 -0.922004,-0.74273 -1.1778777,-1.75509 -0.5074537,-2.00803 -1.096797,-6.71201 -1.1327015,-9.22782 l -0.00622,2.5e-4 c -3.111e-4,-0.0653 0,-0.13048 0,-0.19582 0,-0.0653 -0.00622,-0.13043 -0.00622,-0.1957 l 0.00622,-2.5e-4 c 0.016801,-2.51593 0.5578569,-5.45493 1.0501897,-7.46676 0.2481577,-1.01422 0.4679403,-1.40699 1.1168962,-1.99777 0.7269252,-0.66171 0.8952468,-0.72562 1.6833402,-0.63981 0.5890944,0.0642 1.3776857,0.41598 2.4096432,1.07515 3.6089896,2.30504 3.6214346,2.43783 4.4703226,2.37367 0.718152,-0.0541 0.852747,-0.15121 1.209178,-0.87091 0.113438,-0.22887 0.195265,-0.44032 0.255624,-0.76707 l -0.263403,-7.93768 -278.661639,0.15936 c 36.10377,23.89812 229.245971,25.01035 261.3239563,34.1378 z"
         style="fill:#6dc2dd;fill-opacity:1;stroke:none;stroke-width:3.37654328;stroke-miterlimit:4;stroke-dasharray:none;stroke-opacity:1" />
      <text
         xml:space="preserve"
         style="font-style:normal;font-variant:normal;font-weight:normal;font-stretch:normal;font-size:23.3712101px;line-height:1.25;font-family:'Bebas Neue';-inkscape-font-specification:'Bebas Neue';text-align:center;letter-spacing:0px;word-spacing:0px;text-anchor:middle;fill:#ffffff;fill-opacity:1;stroke:none;stroke-width:1.25202906"
         x="-128.56316"
         y="325.2507"
         id="text3839"><tspan
           sodipodi:role="line"
           id="tspan3837"
           x="-128.56316"
           y="325.2507"
           style="font-style:normal;font-variant:normal;font-weight:normal;font-stretch:normal;font-family:Digitalt;-inkscape-font-specification:Digitalt;fill:#ffffff;stroke-width:1.25202906">pick a random item  list</tspan></text>
      <rect
         rx="2.5168488"
         ry="1.254732"
         transform="matrix(0.9999721,-0.00747002,0.02696542,0.99963637,0,0)"
         y="300.82736"
         x="-22.295887"
         height="2.509464"
         width="28.829397"
         id="rect3841"
         style="opacity:1;fill:#ffffff;fill-opacity:1;stroke:none;stroke-width:1.45317245;stroke-miterlimit:4;stroke-dasharray:none;stroke-opacity:1" />
      <rect
         style="opacity:1;fill:#ffffff;fill-opacity:1;stroke:none;stroke-width:1.68709779;stroke-miterlimit:4;stroke-dasharray:none;stroke-opacity:1"
         id="rect3843"
         width="16.333469"
         height="2.4524009"
         x="-25.550133"
         y="301.01999"
         transform="matrix(0.9999967,0.00256826,-0.0230192,0.99973502,0,0)"
         ry="1.2262005"
         rx="1.4116662" />
    </g>
  </g>
</svg>
