<?xml version="1.0" encoding="UTF-8" standalone="no"?>
<!-- Created with Inkscape (http://www.inkscape.org/) -->

<svg
   xmlns:dc="http://purl.org/dc/elements/1.1/"
   xmlns:cc="http://creativecommons.org/ns#"
   xmlns:rdf="http://www.w3.org/1999/02/22-rdf-syntax-ns#"
   xmlns:svg="http://www.w3.org/2000/svg"
   xmlns="http://www.w3.org/2000/svg"
   xmlns:sodipodi="http://sodipodi.sourceforge.net/DTD/sodipodi-0.dtd"
   xmlns:inkscape="http://www.inkscape.org/namespaces/inkscape"
   width="191.6436mm"
   height="79.420647mm"
   viewBox="0 0 191.64359 79.420648"
   version="1.1"
   id="svg2283"
   inkscape:version="0.92.3 (2405546, 2018-03-11)"
   sodipodi:docname="list_is_in_list.svg">
  <defs
     id="defs2277" />
  <sodipodi:namedview
     id="base"
     pagecolor="#ffffff"
     bordercolor="#666666"
     borderopacity="1.0"
     inkscape:pageopacity="0.0"
     inkscape:pageshadow="2"
     inkscape:zoom="0.35"
     inkscape:cx="530.63902"
     inkscape:cy="663.19984"
     inkscape:document-units="mm"
     inkscape:current-layer="layer1"
     showgrid="false"
     fit-margin-top="0"
     fit-margin-left="0"
     fit-margin-right="0"
     fit-margin-bottom="0"
     inkscape:window-width="1920"
     inkscape:window-height="1001"
     inkscape:window-x="0"
     inkscape:window-y="0"
     inkscape:window-maximized="1" />
  <metadata
     id="metadata2280">
    <rdf:RDF>
      <cc:Work
         rdf:about="">
        <dc:format>image/svg+xml</dc:format>
        <dc:type
           rdf:resource="http://purl.org/dc/dcmitype/StillImage" />
        <dc:title></dc:title>
      </cc:Work>
    </rdf:RDF>
  </metadata>
  <g
     inkscape:label="Layer 1"
     inkscape:groupmode="layer"
     id="layer1"
     transform="translate(225.06491,-244.8843)">
    <g
       id="g3953"
       transform="matrix(0.62226092,0,0,-0.62226092,1582.2661,2458.0379)"
       inkscape:export-filename="/home/peter/allblocks.png"
       inkscape:export-xdpi="42.094723"
       inkscape:export-ydpi="42.094723">
      <path
         id="path3919"
         d="m -2623.4379,3553.9022 -258.7676,-0.3018 -0.081,-8.5253 c -0.073,-7.7564 -0.1385,-8.6414 -0.7266,-9.8247 -0.5744,-1.1559 -0.791,-1.3118 -1.9453,-1.3975 -1.3644,-0.1013 -1.3594,-0.1041 -7.1543,3.6079 -1.6571,1.0615 -2.9235,1.6286 -3.8701,1.7329 -1.2662,0.1396 -1.5374,0.036 -2.707,-1.0254 -1.0443,-0.948 -1.3978,-1.5785 -1.7988,-3.208 -0.7955,-3.232 -1.2038,-7.2419 -1.2364,-11.2851 h -0.01 c 4e-4,-0.105 0.01,-0.21 0.01,-0.315 -5e-4,-0.105 -0.01,-0.2084 0,-0.3134 h 0.01 c 0.053,-4.043 0.4808,-8.0513 1.2919,-11.2793 0.4091,-1.6275 0.7662,-2.2563 1.815,-3.1993 1.1748,-1.0561 1.4454,-1.1585 2.7114,-1.0122 0.9461,0.109 2.2095,0.6825 3.8613,1.752 5.7768,3.7402 5.772,3.7377 7.1368,3.6431 1.1546,-0.08 1.3725,-0.2342 1.9526,-1.3872 0.5938,-1.1805 0.6627,-2.0659 0.7734,-9.8218 l 0.1216,-70.0254 258.7706,0.3017 23.9092,0.059 0.026,17.9737 c -0.044,0.1207 -0.071,0.2621 -0.126,0.3735 -0.2889,0.5771 -0.4881,0.9054 -0.7588,1.0986 -0.2708,0.1933 -0.6136,0.2519 -1.1909,0.293 -0.3411,0.024 -0.5956,0.042 -0.8775,0 -0.2818,-0.044 -0.5909,-0.1513 -1.0371,-0.3779 -0.8924,-0.4533 -2.3374,-1.3846 -5.2294,-3.249 -0.827,-0.5332 -1.556,-0.9426 -2.1973,-1.232 -0.6413,-0.2893 -1.1939,-0.4591 -1.667,-0.5127 -0.6329,-0.072 -1.0176,-0.081 -1.3901,0.059 -0.3726,0.14 -0.7335,0.4303 -1.3199,0.9595 -0.5235,0.4725 -0.8734,0.8657 -1.144,1.3447 -0.2705,0.4791 -0.4606,1.0433 -0.6636,1.8575 -0.4024,1.6148 -0.7087,3.4251 -0.9199,5.3364 -0.2113,1.9112 -0.3279,3.9228 -0.3501,5.9443 h -0.01 c -3e-4,0.1049 0,0.21 0,0.315 0,0.1049 -0.01,0.2099 -0.01,0.3149 h 0.01 c 0.02,2.0216 0.1348,4.0342 0.3442,5.9458 0.2094,1.9116 0.5132,3.7227 0.9141,5.3379 0.2021,0.8143 0.3921,1.3781 0.6621,1.8574 0.2701,0.4793 0.621,0.8732 1.1441,1.3462 0.5857,0.5298 0.9459,0.8208 1.3183,0.9609 0.3724,0.1402 0.7572,0.1297 1.3902,0.059 0.4731,-0.053 1.0269,-0.2224 1.6684,-0.5112 0.6416,-0.2888 1.3712,-0.6967 2.1987,-1.229 2.8938,-1.8617 4.3396,-2.7922 5.2325,-3.2446 0.4464,-0.2262 0.7536,-0.3324 1.0356,-0.3765 0.2819,-0.044 0.5378,-0.025 0.8789,0 0.5773,0.042 0.9204,0.1024 1.1909,0.2959 0.2706,0.1935 0.469,0.5198 0.7574,1.0972 0.078,0.1554 0.117,0.3543 0.1758,0.5215 l 0.025,17.5063 0.02,13.6392 0.01,5.1621 c -0.091,0.3671 -0.1856,0.6907 -0.3326,0.9843 -0.2889,0.5771 -0.488,0.9054 -0.7588,1.0987 -0.2707,0.1932 -0.6136,0.2518 -1.1909,0.2929 -0.3412,0.024 -0.5956,0.043 -0.8774,0 -0.2819,-0.044 -0.591,-0.1512 -1.0371,-0.3779 -0.8925,-0.4533 -2.3375,-1.3846 -5.2295,-3.249 -0.827,-0.5332 -1.5561,-0.9426 -2.1973,-1.2319 -0.6413,-0.2894 -1.1939,-0.4592 -1.667,-0.5127 -0.6329,-0.072 -1.0176,-0.081 -1.3901,0.059 -0.3726,0.1399 -0.7335,0.4302 -1.3198,0.9594 -0.5236,0.4725 -0.8736,0.8657 -1.1441,1.3448 -0.2705,0.479 -0.4606,1.0432 -0.6636,1.8574 -0.4025,1.6148 -0.7087,3.4252 -0.9199,5.3364 -0.2113,1.9112 -0.3279,3.9228 -0.3501,5.9443 h -0.01 c -2e-4,0.105 0,0.21 0.01,0.315 0,0.1049 -0.01,0.21 -0.01,0.3149 h 0.01 c 0.02,2.0216 0.1349,4.0342 0.3443,5.9458 0.2094,1.9116 0.5131,3.7227 0.9141,5.3379 0.2021,0.8143 0.392,1.3781 0.6621,1.8574 0.2701,0.4794 0.621,0.8732 1.144,1.3462 0.5858,0.5298 0.9459,0.8208 1.3184,0.961 0.3724,0.1401 0.7571,0.1296 1.3901,0.059 0.4732,-0.053 1.0269,-0.2225 1.6685,-0.5113 0.6415,-0.2887 1.3712,-0.6966 2.1987,-1.229 2.8938,-1.8617 4.3395,-2.7922 5.2324,-3.2446 0.4464,-0.2262 0.7538,-0.3324 1.0357,-0.3765 0.2818,-0.044 0.5377,-0.026 0.8788,0 0.5773,0.042 0.9204,0.1024 1.191,0.2959 0.2706,0.1935 0.4689,0.5198 0.7573,1.0972 0.1692,0.3388 0.2863,0.6778 0.3823,1.1367 l 0.025,16.8882 -24.2344,0.2651 z"
         style="fill:#0ea7cf;fill-opacity:1;stroke:#1086a5;stroke-width:5.42624998;stroke-miterlimit:4;stroke-dasharray:none;stroke-opacity:1"
         inkscape:connector-curvature="0"
         sodipodi:nodetypes="ccccscccccccccccccccccccccccccccccccccccsccsccccccccccccccccccccccccccccccccccsccccccccccsccccc" />
      <path
         sodipodi:nodetypes="ccccccccccscccccccccccscccccccccccccccccsccccscccccccccccscccccsccccccccc"
         inkscape:connector-curvature="0"
         style="fill:#6dc2dd;fill-opacity:1;stroke:none;stroke-width:5.42624998;stroke-miterlimit:4;stroke-dasharray:none;stroke-opacity:1"
         d="m -2879.5179,3550.9964 c 73.7298,-54.8974 215.4432,-110.1831 254.3724,-116.0377 l 23.9092,-0.096 0.3833,12.1881 c -0.044,0.1208 -0.071,0.2622 -0.126,0.3736 -0.2889,0.5771 -0.4881,0.9053 -0.7588,1.0986 -0.2708,0.1933 -0.6136,0.2518 -1.1909,0.293 -0.3412,0.024 -0.5956,0.042 -0.8775,0 -0.2818,-0.044 -0.5909,-0.1513 -1.0371,-0.378 -0.8924,-0.4533 -2.3374,-1.3846 -5.2294,-3.249 -0.827,-0.5331 -1.556,-0.9425 -2.1973,-1.2319 -0.6413,-0.2894 -1.1939,-0.4592 -1.667,-0.5127 -0.633,-0.072 -1.0176,-0.081 -1.3902,0.059 -0.3726,0.1399 -0.7335,0.4302 -1.3198,0.9594 -0.5235,0.4725 -0.8734,0.8657 -1.144,1.3448 -0.2705,0.479 -0.4606,1.0433 -0.6636,1.8574 -0.4024,1.6148 -0.7087,3.4252 -0.9199,5.3364 -0.2113,1.9113 -0.3279,3.9228 -0.3501,5.9444 h -0.01 c -3e-4,0.1049 0,0.2099 0,0.3149 0,0.1049 -0.01,0.21 -0.01,0.3149 h 0.01 c 0.02,2.0216 0.1348,10.0343 0.3442,11.9458 0.2094,1.9116 0.5132,3.7227 0.9141,5.3379 0.2021,0.8144 0.392,1.3781 0.6621,1.8575 0.2701,0.4793 0.621,0.8732 1.1441,1.3462 0.5857,0.5297 0.9459,0.8208 1.3183,0.9609 0.3724,0.1401 0.7571,0.1296 1.3901,0.059 0.4732,-0.053 1.0269,-0.2225 1.6685,-0.5112 0.6416,-0.2888 1.3712,-0.6967 2.1987,-1.2291 2.8938,-1.8616 4.3396,-2.7922 5.2324,-3.2446 0.4464,-0.2262 0.7537,-0.3324 1.0357,-0.3764 0.2819,-0.044 0.5378,-0.025 0.8789,0 0.5772,0.042 0.9204,0.1023 1.1909,0.2959 0.2706,0.1935 0.469,0.5197 0.7573,1.0971 0.078,0.1555 0.1171,0.3544 0.1758,0.5215 l 0.025,16.0064 0.02,9.1391 0.01,5.1621 c -0.091,0.3672 -0.1855,0.6908 -0.3325,0.9844 -0.2889,0.5771 -0.488,0.9054 -0.7588,1.0986 -0.2707,0.1933 -0.6136,0.2518 -1.1909,0.293 -0.3412,0.024 -0.5956,0.043 -0.8774,0 -0.2819,-0.044 -0.591,-0.1513 -1.0371,-0.3779 -0.8925,-0.4533 -2.3375,-1.3846 -5.2296,-3.2491 -0.8269,-0.5331 -1.556,-0.9425 -2.1972,-1.2319 -0.6413,-0.2894 -1.1939,-0.4591 -1.667,-0.5127 -0.6329,-0.072 -1.0176,-0.081 -1.3901,0.059 -0.3726,0.14 -0.7335,0.4303 -1.3199,0.9595 -0.5235,0.4725 -0.8735,0.8656 -1.144,1.3447 -0.2705,0.4791 -0.4607,1.0433 -0.6636,1.8574 -0.4025,1.6149 -0.7087,3.4252 -0.9199,5.3365 -0.2113,1.9112 -0.3279,5.4227 -0.3501,7.4443 h -0.01 c -2e-4,0.1049 0,0.21 0.01,0.3149 0,0.1049 -0.01,0.21 -0.01,0.315 h 0.01 c 0.02,2.0215 0.1349,8.5342 0.3443,10.4458 0.2094,1.9116 0.5131,3.7226 0.9141,5.3379 0.2021,0.8143 0.392,1.3781 0.6621,1.8574 0.2701,0.4793 0.621,0.8732 1.144,1.3462 0.5858,0.5298 0.9459,0.8208 1.3184,0.9609 0.3724,0.1402 0.7571,0.1297 1.3901,0.059 0.4732,-0.053 1.0269,-0.2225 1.6685,-0.5112 0.6415,-0.2888 1.3712,-0.6967 2.1987,-1.229 2.8938,-1.8617 4.3395,-2.7922 5.2324,-3.2446 0.4464,-0.2263 0.7538,-0.3325 1.0357,-0.3765 0.2818,-0.044 0.5377,-0.026 0.8788,0 0.5773,0.042 0.9204,0.1024 1.191,0.2959 0.2706,0.1935 0.4689,0.5198 0.7573,1.0971 0.1692,0.3389 0.2863,0.6778 0.3823,1.1368 l -0.3322,11.2574 z"
         id="path3921" />
      <rect
         rx="4.0446839"
         ry="2.0164082"
         transform="matrix(0.9999721,0.00747001,0.02696542,-0.99963637,0,0)"
         y="-3569.5261"
         x="-2552.7095"
         height="4.0328164"
         width="46.330078"
         id="rect3923"
         style="opacity:1;fill:#ffffff;fill-opacity:1;stroke:none;stroke-width:2.33531046;stroke-miterlimit:4;stroke-dasharray:none;stroke-opacity:1" />
      <rect
         style="opacity:1;fill:#ffffff;fill-opacity:1;stroke:none;stroke-width:2.71123862;stroke-miterlimit:4;stroke-dasharray:none;stroke-opacity:1"
         id="rect3925"
         width="26.248585"
         height="3.9411135"
         x="-2759.8774"
         y="-3543.0481"
         transform="matrix(0.9999967,-0.00256827,-0.0230192,-0.99973502,0,0)"
         ry="1.9705567"
         rx="2.2686081" />
      <text
         xml:space="preserve"
         style="font-style:normal;font-variant:normal;font-weight:normal;font-stretch:normal;font-size:37.55853653px;line-height:1.25;font-family:'Bebas Neue';-inkscape-font-specification:'Bebas Neue';text-align:center;letter-spacing:0px;word-spacing:0px;text-anchor:middle;fill:#ffffff;fill-opacity:1;stroke:none;stroke-width:2.01206446"
         x="-2750.1824"
         y="-3510.8896"
         id="text3929"
         transform="scale(1,-1)"><tspan
           sodipodi:role="line"
           id="tspan3927"
           x="-2750.1824"
           y="-3510.8896"
           style="font-style:normal;font-variant:normal;font-weight:normal;font-stretch:normal;font-family:PAGRevolucionW00-Regular;-inkscape-font-specification:PAGRevolucionW00-Regular;fill:#ffffff;stroke-width:2.01206446">is in list?  thing</tspan></text>
      <text
         transform="scale(1,-1)"
         id="text3933"
         y="-3447.8896"
         x="-2661.5337"
         style="font-style:normal;font-variant:normal;font-weight:normal;font-stretch:normal;font-size:37.55853653px;line-height:1.25;font-family:'Bebas Neue';-inkscape-font-specification:'Bebas Neue';text-align:center;letter-spacing:0px;word-spacing:0px;text-anchor:middle;fill:#ffffff;fill-opacity:1;stroke:none;stroke-width:2.01206446"
         xml:space="preserve"><tspan
           style="font-style:normal;font-variant:normal;font-weight:normal;font-stretch:normal;font-family:PAGRevolucionW00-Regular;-inkscape-font-specification:PAGRevolucionW00-Regular;fill:#ffffff;stroke-width:2.01206446"
           y="-3447.8896"
           x="-2661.5337"
           id="tspan3931"
           sodipodi:role="line">list</tspan></text>
    </g>
  </g>
</svg>
