<?xml version="1.0" encoding="UTF-8" standalone="no"?>
<!-- Created with Inkscape (http://www.inkscape.org/) -->

<svg
   xmlns:dc="http://purl.org/dc/elements/1.1/"
   xmlns:cc="http://creativecommons.org/ns#"
   xmlns:rdf="http://www.w3.org/1999/02/22-rdf-syntax-ns#"
   xmlns:svg="http://www.w3.org/2000/svg"
   xmlns="http://www.w3.org/2000/svg"
   xmlns:sodipodi="http://sodipodi.sourceforge.net/DTD/sodipodi-0.dtd"
   xmlns:inkscape="http://www.inkscape.org/namespaces/inkscape"
   width="289.64493mm"
   height="85.756752mm"
   viewBox="0 0 289.64493 85.756753"
   version="1.1"
   id="svg2283"
   inkscape:version="0.92.3 (2405546, 2018-03-11)"
   sodipodi:docname="list_add_items_to_list.svg">
  <defs
     id="defs2277" />
  <sodipodi:namedview
     id="base"
     pagecolor="#ffffff"
     bordercolor="#666666"
     borderopacity="1.0"
     inkscape:pageopacity="0.0"
     inkscape:pageshadow="2"
     inkscape:zoom="0.35"
     inkscape:cx="381.98225"
     inkscape:cy="156.94938"
     inkscape:document-units="mm"
     inkscape:current-layer="layer1"
     showgrid="false"
     fit-margin-top="0"
     fit-margin-left="0"
     fit-margin-right="0"
     fit-margin-bottom="0"
     inkscape:window-width="1920"
     inkscape:window-height="1001"
     inkscape:window-x="0"
     inkscape:window-y="0"
     inkscape:window-maximized="1" />
  <metadata
     id="metadata2280">
    <rdf:RDF>
      <cc:Work
         rdf:about="">
        <dc:format>image/svg+xml</dc:format>
        <dc:type
           rdf:resource="http://purl.org/dc/dcmitype/StillImage" />
        <dc:title></dc:title>
      </cc:Work>
    </rdf:RDF>
  </metadata>
  <g
     inkscape:label="Layer 1"
     inkscape:groupmode="layer"
     id="layer1"
     transform="translate(324.45006,-134.84087)">
    <g
       id="g55">
      <path
         style="fill:#0ea7cf;fill-opacity:1;stroke:#1086a5;stroke-width:3.37654328;stroke-miterlimit:4;stroke-dasharray:none;stroke-opacity:1"
         d="m -290.23299,136.53028 c -3.51913,0 -6.76678,6.53492 -9.68941,6.53555 -2.92251,0 -5.52033,-6.53256 -7.73782,-6.53188 h -5.45903 c 0,0 -10.17981,-0.40428 -9.62289,9.39857 l 0.006,47.66226 0.007,9.39315 c -0.54778,8.98415 9.63197,9.38955 9.63197,9.38955 h 5.45904 c 2.21748,0 4.81437,6.53256 7.73694,6.53187 2.92251,0 6.17028,-6.53648 9.68941,-6.53648 h 7.65854 l 231.07124,0.0118 14.877761,-0.0367 0.01618,-11.18433 c -0.02738,-0.0751 -0.04418,-0.16309 -0.07841,-0.23241 -0.179771,-0.35911 -0.303725,-0.56346 -0.472171,-0.68368 -0.168509,-0.12028 -0.38182,-0.15669 -0.741051,-0.18226 -0.212253,-0.0149 -0.370556,-0.0261 -0.546034,0 -0.175291,0.0274 -0.367632,0.0941 -0.645347,0.23515 -0.555243,0.28207 -1.454472,0.86158 -3.254051,2.02179 -0.51461,0.33173 -0.968238,0.58648 -1.367294,0.7665 -0.399056,0.18008 -0.742917,0.28574 -1.037309,0.31903 -0.393829,0.0448 -0.633213,0.0498 -0.865005,-0.0373 -0.231854,-0.0871 -0.456428,-0.2677 -0.821322,-0.597 -0.325754,-0.29402 -0.543483,-0.53875 -0.711866,-0.83675 -0.168322,-0.29813 -0.286614,-0.64921 -0.412933,-1.15585 -0.250398,-1.00477 -0.440996,-2.13131 -0.572418,-3.32064 -0.131483,-1.18926 -0.204039,-2.441 -0.217853,-3.6989 h -0.0068 c -1.24e-4,-0.0653 0,-0.13061 0,-0.19595 0,-0.0653 -0.0062,-0.13068 -0.0062,-0.19601 h 0.0062 c 0.01244,-1.25797 0.08388,-2.51033 0.214182,-3.69984 0.130302,-1.18952 0.319407,-2.31649 0.568809,-3.32157 0.125821,-0.50671 0.243988,-0.85754 0.411999,-1.15579 0.168073,-0.29825 0.386424,-0.54336 0.711929,-0.83768 0.364458,-0.32968 0.588658,-0.51076 0.820326,-0.59794 0.23173,-0.0872 0.471176,-0.0804 0.865067,-0.0367 0.294392,0.033 0.639,0.13839 1.03818,0.3181 0.399243,0.17971 0.853245,0.43353 1.368228,0.76476 1.800698,1.15846 2.700301,1.73748 3.255918,2.01899 0.277777,0.14075 0.468936,0.20684 0.644413,0.23428 0.175478,0.0274 0.334714,0.0156 0.546968,0 0.359169,-0.0261 0.572728,-0.0637 0.74105,-0.18413 0.168384,-0.12041 0.291778,-0.32345 0.471238,-0.68274 0.04854,-0.0967 0.0728,-0.22047 0.109394,-0.32451 l 0.01556,-10.89349 0.01244,-8.48714 0.0062,-3.21217 c -0.05663,-0.22843 -0.115492,-0.42986 -0.206964,-0.61256 -0.179771,-0.35904 -0.303663,-0.56333 -0.472172,-0.68361 -0.168446,-0.12022 -0.381819,-0.15669 -0.74105,-0.18226 -0.212315,-0.0149 -0.370619,-0.0268 -0.545972,0 -0.175415,0.0274 -0.367756,0.0941 -0.645347,0.23515 -0.555367,0.28207 -1.454534,0.86158 -3.254113,2.02173 -0.514672,0.33179 -0.9683,0.58654 -1.367294,0.76656 -0.399056,0.18008 -0.742917,0.28574 -1.037309,0.31903 -0.393829,0.0448 -0.633213,0.0504 -0.865067,-0.0367 -0.231854,-0.087 -0.456428,-0.2677 -0.821198,-0.597 -0.325878,-0.29402 -0.543607,-0.53863 -0.711929,-0.83675 -0.168321,-0.29807 -0.286613,-0.64921 -0.412932,-1.15585 -0.250398,-1.00483 -0.440996,-2.13137 -0.572418,-3.32064 -0.131483,-1.18926 -0.204039,-2.441 -0.217853,-3.6989 h -0.0062 c -1.24e-4,-0.0653 1.87e-4,-0.13061 0.0062,-0.19595 0,-0.0653 -0.0062,-0.13074 -0.0062,-0.19601 h 0.0062 c 0.01244,-1.25797 0.08388,-2.51033 0.214182,-3.69984 0.130301,-1.18952 0.319282,-2.31649 0.568809,-3.32157 0.125759,-0.50671 0.243926,-0.85754 0.411999,-1.15579 0.168072,-0.29831 0.386486,-0.54335 0.711928,-0.83768 0.364521,-0.32968 0.588535,-0.51076 0.820327,-0.59793 0.23173,-0.0872 0.471114,-0.0805 0.865005,-0.0367 0.294516,0.033 0.639,0.13833 1.038242,0.3181 0.399181,0.17959 0.853244,0.43347 1.368227,0.76476 1.800699,1.15846 2.700302,1.73748 3.255856,2.01899 0.277778,0.14075 0.469061,0.20684 0.644476,0.23428 0.175353,0.0274 0.334652,0.0162 0.546905,0 0.359231,-0.0261 0.572729,-0.0637 0.741113,-0.18413 0.168384,-0.1204 0.291778,-0.32345 0.471176,-0.68274 0.105286,-0.21082 0.178215,-0.42177 0.237952,-0.70733 l 0.01556,-10.50886 -15.080058,-0.16496 -0.0062,0.006 -205.383879,0.17224 v -0.18319 h -21.95199 -11.3165 z"
         id="path4185"
         inkscape:connector-curvature="0"
         sodipodi:nodetypes="ccccccccscscccccccccccccccccccsccsccccccccccccccccccccccccccccccccccsccccccccccsccccccccsc" />
      <path
         id="path4187"
         d="m -262.26547,138.3494 c 45.87917,34.16051 185.398406,68.56264 209.622526,72.20572 l 14.877761,0.0597 0.238512,-7.58418 c -0.02738,-0.0752 -0.04418,-0.16315 -0.0784,-0.23247 -0.179772,-0.35911 -0.303726,-0.56334 -0.472172,-0.68362 -0.168508,-0.12028 -0.381819,-0.15668 -0.741051,-0.18232 -0.212315,-0.0149 -0.370618,-0.0261 -0.546034,0 -0.175353,0.0274 -0.367693,0.0942 -0.645346,0.23521 -0.555306,0.28207 -1.454473,0.86159 -3.254052,2.02173 -0.514609,0.33173 -0.968238,0.58648 -1.367293,0.76656 -0.399056,0.18008 -0.742918,0.28574 -1.037309,0.31904 -0.393892,0.0448 -0.633213,0.0504 -0.865068,-0.0367 -0.231854,-0.0871 -0.456428,-0.26769 -0.82126,-0.597 -0.325753,-0.29401 -0.543482,-0.53869 -0.711866,-0.83681 -0.168322,-0.29806 -0.286613,-0.64921 -0.412932,-1.15579 -0.250398,-1.00483 -0.440997,-2.13137 -0.572418,-3.32063 -0.131484,-1.18933 -0.20404,-2.44101 -0.217854,-3.69897 h -0.0062 c -1.87e-4,-0.0653 0,-0.13061 0,-0.19595 0,-0.0653 -0.0062,-0.13067 -0.0062,-0.19595 h 0.0062 c 0.01244,-1.25796 0.08388,-6.24395 0.214182,-7.4334 0.130301,-1.18952 0.319344,-2.3165 0.568809,-3.32157 0.125759,-0.50677 0.243926,-0.85754 0.411999,-1.15585 0.168072,-0.29825 0.386424,-0.54336 0.711928,-0.83769 0.364458,-0.32961 0.588597,-0.51075 0.820327,-0.59793 0.23173,-0.0872 0.471114,-0.0806 0.865005,-0.0367 0.294454,0.033 0.638999,0.13845 1.038242,0.3181 0.399243,0.17971 0.853244,0.43353 1.368165,0.76482 1.800699,1.1584 2.700364,1.73748 3.255918,2.01899 0.277777,0.14075 0.468998,0.20684 0.644476,0.23422 0.175415,0.0274 0.334652,0.0156 0.546905,0 0.359169,-0.0261 0.572729,-0.0637 0.74105,-0.18413 0.168384,-0.12041 0.291841,-0.32339 0.471239,-0.68268 0.04854,-0.0968 0.07287,-0.22053 0.109393,-0.32451 l 0.01556,-9.96016 0.01244,-5.68691 0.0062,-3.21217 c -0.05663,-0.22849 -0.115429,-0.42986 -0.206901,-0.61255 -0.179771,-0.35911 -0.303664,-0.5634 -0.472172,-0.68362 -0.168446,-0.12028 -0.381819,-0.15668 -0.74105,-0.18232 -0.212316,-0.0149 -0.370619,-0.0268 -0.545972,0 -0.175415,0.0274 -0.367756,0.0941 -0.645347,0.23515 -0.555368,0.28207 -1.454535,0.86158 -3.254176,2.02179 -0.514547,0.33173 -0.968238,0.58648 -1.367231,0.76656 -0.399056,0.18009 -0.742918,0.28568 -1.037309,0.31904 -0.393829,0.0448 -0.633213,0.0504 -0.865005,-0.0367 -0.231855,-0.0871 -0.456429,-0.26776 -0.821322,-0.59706 -0.325754,-0.29401 -0.543545,-0.53863 -0.711867,-0.83675 -0.168321,-0.29813 -0.286675,-0.64921 -0.412932,-1.15579 -0.25046,-1.00489 -0.440997,-2.13137 -0.572418,-3.32069 -0.131484,-1.18927 -0.204039,-3.37434 -0.217854,-4.6323 h -0.0062 c -1.25e-4,-0.0653 0,-0.13068 0.0062,-0.19595 0,-0.0653 -0.0062,-0.13068 -0.0062,-0.19601 h 0.0062 c 0.01245,-1.2579 0.08394,-5.3105 0.214245,-6.50002 0.130301,-1.18951 0.319282,-2.31642 0.568809,-3.32156 0.125759,-0.50671 0.243926,-0.85754 0.411999,-1.15579 0.168072,-0.29825 0.386424,-0.54336 0.711866,-0.83769 0.36452,-0.32967 0.588597,-0.51075 0.820389,-0.59793 0.23173,-0.0872 0.471114,-0.0807 0.865005,-0.0367 0.294454,0.033 0.638999,0.13845 1.038242,0.3181 0.39918,0.17971 0.853244,0.43353 1.368165,0.76476 1.800699,1.15846 2.700301,1.73747 3.255918,2.01898 0.277777,0.14082 0.46906,0.20691 0.644476,0.23429 0.175353,0.0274 0.33459,0.0162 0.546843,0 0.359231,-0.0261 0.572729,-0.0637 0.741112,-0.18413 0.168384,-0.12041 0.291779,-0.32345 0.471239,-0.68268 0.105286,-0.21089 0.178153,-0.42177 0.23789,-0.70739 l -0.206715,-7.00504 z"
         style="fill:#6dc2dd;fill-opacity:1;stroke:none;stroke-width:3.37654328;stroke-miterlimit:4;stroke-dasharray:none;stroke-opacity:1"
         inkscape:connector-curvature="0"
         sodipodi:nodetypes="ccccccccccscccccccccccscccccccccccccccccsccccscccccccccccscccccsccccccccc" />
      <rect
         style="opacity:1;fill:#ffffff;fill-opacity:1;stroke:none;stroke-width:1.45317245;stroke-miterlimit:4;stroke-dasharray:none;stroke-opacity:1"
         id="rect4189"
         width="28.829397"
         height="2.509464"
         x="-71.169922"
         y="139.01134"
         transform="matrix(0.9999721,-0.00747002,0.02696542,0.99963637,0,0)"
         ry="1.254732"
         rx="2.5168488" />
      <rect
         rx="1.4116662"
         ry="1.2262005"
         transform="matrix(0.9999967,0.00256826,-0.0230192,0.99973502,0,0)"
         y="139.71785"
         x="-82.509399"
         height="2.4524009"
         width="16.333469"
         id="rect4191"
         style="opacity:1;fill:#ffffff;fill-opacity:1;stroke:none;stroke-width:1.68709779;stroke-miterlimit:4;stroke-dasharray:none;stroke-opacity:1" />
      <text
         id="text4195"
         y="163.30626"
         x="-168.67493"
         style="font-style:normal;font-variant:normal;font-weight:normal;font-stretch:normal;font-size:23.3712101px;line-height:1.25;font-family:'Bebas Neue';-inkscape-font-specification:'Bebas Neue';text-align:center;letter-spacing:0px;word-spacing:0px;text-anchor:middle;fill:#ffffff;fill-opacity:1;stroke:none;stroke-width:1.25202906"
         xml:space="preserve"><tspan
           style="font-style:normal;font-variant:normal;font-weight:normal;font-stretch:normal;font-family:Digitalt;-inkscape-font-specification:Digitalt;fill:#ffffff;stroke-width:1.25202906"
           y="163.30626"
           x="-168.67493"
           id="tspan4193"
           sodipodi:role="line">add items to list  list</tspan></text>
      <text
         xml:space="preserve"
         style="font-style:normal;font-variant:normal;font-weight:normal;font-stretch:normal;font-size:23.3712101px;line-height:1.25;font-family:'Bebas Neue';-inkscape-font-specification:'Bebas Neue';text-align:center;letter-spacing:0px;word-spacing:0px;text-anchor:middle;fill:#ffffff;fill-opacity:1;stroke:none;stroke-width:1.25202906"
         x="-78.773376"
         y="202.5087"
         id="text4199"><tspan
           sodipodi:role="line"
           id="tspan4197"
           x="-78.773376"
           y="202.5087"
           style="font-style:normal;font-variant:normal;font-weight:normal;font-stretch:normal;font-family:Digitalt;-inkscape-font-specification:Digitalt;fill:#ffffff;stroke-width:1.25202906">item</tspan></text>
      <g
         transform="translate(-27.516678)"
         id="g39">
        <g
           transform="matrix(0.62226092,0,0,-0.62226092,661.02804,224.12427)"
           id="g4230">
          <rect
             style="opacity:1;fill:#0032f5;fill-opacity:1;stroke:#ffffff;stroke-width:2;stroke-miterlimit:4;stroke-dasharray:none;stroke-opacity:1"
             id="rect4222"
             width="37.757042"
             height="37.757042"
             x="-1518.5787"
             y="-125.71913"
             transform="scale(1,-1)"
             rx="11.68515"
             ry="11.329442" />
          <g
             id="g4228"
             transform="matrix(0.11942495,0.11749836,0.11749836,-0.11942495,-1518.7832,107.0828)"
             style="fill:#ffffff">
            <title
               id="title4224">Layer 1</title>
            <path
               d="M 80.476791,3.84649 C 66.996879,3.25614 49.271,8.71378 40.968238,14.63436 38.03176,18.11943 47.28662,32.97744 45.413699,34.58947 42.462371,35.942322 33.382819,45.597939 32.590228,47.735661 31.797599,49.873391 16.935759,40.913792 13.049699,42.36591 5.939909,53.431649 1.089979,71.845597 1.997059,81.937539 c 1.52907,4.278915 19.15685,3.980179 19.60162,6.397743 -0.330481,3.203857 3.432669,15.867478 4.885139,17.633048 1.45245,1.76557 -13.55446,9.76252 -13.92264,13.33971 6.340731,11.76687 19.97086,24.24561 29.298611,28.40882 4.515789,0.77728 12.895691,-14.58812 15.2416,-13.78716 2.65818,1.8555 15.638058,4.81479 17.904041,4.42639 2.26593,-0.38838 1.521027,16.4871 5.532372,19.1811 14.034286,0.58659 30.358768,-4.4645 38.702528,-10.32827 2.96069,-3.46496 -6.19522,-18.39219 -4.31113,-19.9914 2.96069,-1.33269 12.11372,-10.92926 12.92121,-13.06155 0.80746,-2.13227 15.34598,6.66174 19.6871,5.07951 7.51844,-11.24549 11.77134,-29.131788 10.83276,-39.220892 -1.54244,-4.2742 -19.17371,-3.921089 -19.62605,-6.337265 0.32046,-3.20488 -3.47602,-15.859871 -4.93398,-17.620972 -1.45795,-1.76112 12.93781,-9.36475 13.65398,-13.36388 C 141.27357,31.155051 128.28973,18.168011 118.98387,13.95708 114.47215,13.15669 106.02295,28.484659 103.68115,27.6717 101.03273,25.80259 88.057341,22.77175 85.789359,23.14853 83.521377,23.525321 83.91651,6.653721 80.47679,3.846491 Z m 1.355637,57.894042 c 10.671585,0 19.332872,8.589401 19.332872,19.169006 0,10.579605 -8.661287,19.169022 -19.332872,19.169022 -10.671646,0 -19.332939,-8.589417 -19.332939,-19.169022 0,-10.579605 8.661293,-19.169006 19.332939,-19.169006 z"
               id="path4226"
               stroke-miterlimit="4"
               inkscape:connector-curvature="0"
               style="fill:#ffffff;fill-rule:evenodd;stroke-width:1.25;stroke-linejoin:round;stroke-miterlimit:4" />
          </g>
        </g>
      </g>
    </g>
  </g>
</svg>
