<?xml version="1.0" encoding="UTF-8" standalone="no"?>
<!-- Created with Inkscape (http://www.inkscape.org/) -->

<svg
   xmlns:dc="http://purl.org/dc/elements/1.1/"
   xmlns:cc="http://creativecommons.org/ns#"
   xmlns:rdf="http://www.w3.org/1999/02/22-rdf-syntax-ns#"
   xmlns:svg="http://www.w3.org/2000/svg"
   xmlns="http://www.w3.org/2000/svg"
   xmlns:sodipodi="http://sodipodi.sourceforge.net/DTD/sodipodi-0.dtd"
   xmlns:inkscape="http://www.inkscape.org/namespaces/inkscape"
   width="229.91167mm"
   height="41.140656mm"
   viewBox="0 0 229.91167 41.140656"
   version="1.1"
   id="svg2283"
   inkscape:version="0.92.3 (2405546, 2018-03-11)"
   sodipodi:docname="list_create_empty_list.svg">
  <defs
     id="defs2277" />
  <sodipodi:namedview
     id="base"
     pagecolor="#ffffff"
     bordercolor="#666666"
     borderopacity="1.0"
     inkscape:pageopacity="0.0"
     inkscape:pageshadow="2"
     inkscape:zoom="0.35"
     inkscape:cx="797.33587"
     inkscape:cy="-50.825447"
     inkscape:document-units="mm"
     inkscape:current-layer="layer1"
     showgrid="false"
     fit-margin-top="0"
     fit-margin-left="0"
     fit-margin-right="0"
     fit-margin-bottom="0"
     inkscape:window-width="1920"
     inkscape:window-height="1001"
     inkscape:window-x="0"
     inkscape:window-y="0"
     inkscape:window-maximized="1" />
  <metadata
     id="metadata2280">
    <rdf:RDF>
      <cc:Work
         rdf:about="">
        <dc:format>image/svg+xml</dc:format>
        <dc:type
           rdf:resource="http://purl.org/dc/dcmitype/StillImage" />
        <dc:title></dc:title>
      </cc:Work>
    </rdf:RDF>
  </metadata>
  <g
     inkscape:label="Layer 1"
     inkscape:groupmode="layer"
     id="layer1"
     transform="translate(295.62845,-94.245112)">
    <g
       id="g3663"
       transform="matrix(0.62226092,0,0,-0.62226092,676.27023,1395.7423)"
       inkscape:export-filename="/home/peter/allblocks.png"
       inkscape:export-xdpi="42.094723"
       inkscape:export-ydpi="42.094723">
      <path
         sodipodi:nodetypes="cccccccccccccccccccscccccc"
         inkscape:connector-curvature="0"
         id="path3592"
         d="m -1195.3038,2028.524 0.1777,60.0591 -109.7344,0.2656 -234.7704,-0.302 -0.08,-8.525 c -0.073,-7.7563 -0.1383,-8.6421 -0.7264,-9.8254 -0.5744,-1.1559 -0.7908,-1.3113 -1.9451,-1.397 -1.3643,-0.1014 -1.3597,-0.104 -7.1546,3.608 -1.657,1.0615 -2.9235,1.6286 -3.8701,1.733 -1.2662,0.1395 -1.5369,0.037 -2.7065,-1.0247 -1.0442,-0.948 -1.3983,-1.5786 -1.7993,-3.2081 -0.7954,-3.232 -1.204,-7.2424 -1.2365,-11.2856 h -0.01 c 4e-4,-0.105 0.01,-0.2096 0.01,-0.3146 -6e-4,-0.105 0,-0.2096 0,-0.3146 h 0.01 c 0.052,-4.043 0.4804,-8.0507 1.2916,-11.2787 0.409,-1.6275 0.766,-2.2564 1.8148,-3.1993 1.1749,-1.0562 1.4455,-1.1585 2.7115,-1.0121 0.9461,0.109 2.2098,0.6823 3.8617,1.7518 5.7766,3.7402 5.772,3.7376 7.1369,3.643 1.1546,-0.08 1.3718,-0.2345 1.9519,-1.3875 0.5938,-1.1805 0.6636,-2.066 0.7743,-9.8219 l 0.1216,-8.5244 234.7704,0.3021 z"
         style="fill:#0ea7cf;fill-opacity:1;stroke:#1086a5;stroke-width:5.42624998;stroke-miterlimit:4;stroke-dasharray:none;stroke-opacity:1" />
      <path
         style="fill:#6dc2dd;fill-opacity:1;stroke:none;stroke-width:5.42624998;stroke-miterlimit:4;stroke-dasharray:none;stroke-opacity:1"
         d="m -1196.8808,2031.1111 -0.4993,55.1399 -339.5122,-0.4244 c 65.4779,-33.5729 255.4246,-48.2941 311.5765,-54.6556 z"
         id="path3594"
         inkscape:connector-curvature="0"
         sodipodi:nodetypes="ccccc" />
      <rect
         style="opacity:1;fill:#ffffff;fill-opacity:1;stroke:none;stroke-width:2.33531046;stroke-miterlimit:4;stroke-dasharray:none;stroke-opacity:1"
         id="rect3596"
         width="46.330078"
         height="4.0328164"
         x="-1209.7708"
         y="-2094.2024"
         transform="matrix(0.9999721,0.00747001,0.02696542,-0.99963637,0,0)"
         ry="2.0164082"
         rx="4.0446839" />
      <rect
         rx="2.2686081"
         ry="1.9705567"
         transform="matrix(0.9999967,-0.00256827,-0.0230192,-0.99973502,0,0)"
         y="-2081.5293"
         x="-1343.5529"
         height="3.9411135"
         width="26.248585"
         id="rect3598"
         style="opacity:1;fill:#ffffff;fill-opacity:1;stroke:none;stroke-width:2.71123862;stroke-miterlimit:4;stroke-dasharray:none;stroke-opacity:1" />
      <text
         transform="scale(1,-1)"
         id="text3602"
         y="-2045.359"
         x="-1336.842"
         style="font-style:normal;font-variant:normal;font-weight:normal;font-stretch:normal;font-size:37.55853653px;line-height:1.25;font-family:'Bebas Neue';-inkscape-font-specification:'Bebas Neue';text-align:center;letter-spacing:0px;word-spacing:0px;text-anchor:middle;fill:#ffffff;fill-opacity:1;stroke:none;stroke-width:2.01206446"
         xml:space="preserve"><tspan
           style="font-style:normal;font-variant:normal;font-weight:normal;font-stretch:normal;font-family:PAGRevolucionW00-Regular;-inkscape-font-specification:PAGRevolucionW00-Regular;fill:#ffffff;stroke-width:2.01206446"
           y="-2045.359"
           x="-1336.842"
           id="tspan3600"
           sodipodi:role="line">create empty list</tspan></text>
      <g
         transform="translate(-1.5492855,1951.8404)"
         id="g3634">
        <rect
           style="opacity:1;fill:#0032f5;fill-opacity:1;stroke:#ffffff;stroke-width:2;stroke-miterlimit:4;stroke-dasharray:none;stroke-opacity:1"
           id="rect3626"
           width="37.757042"
           height="37.757042"
           x="-1518.5787"
           y="-125.71913"
           transform="scale(1,-1)"
           rx="11.68515"
           ry="11.329442" />
        <g
           id="g3632"
           transform="matrix(0.11942495,0.11749836,0.11749836,-0.11942495,-1518.7832,107.0828)"
           style="fill:#ffffff">
          <title
             id="title3628">Layer 1</title>
          <path
             d="M 80.476791,3.84649 C 66.996879,3.25614 49.271,8.71378 40.968238,14.63436 38.03176,18.11943 47.28662,32.97744 45.413699,34.58947 42.462371,35.942322 33.382819,45.597939 32.590228,47.735661 31.797599,49.873391 16.935759,40.913792 13.049699,42.36591 5.939909,53.431649 1.089979,71.845597 1.997059,81.937539 c 1.52907,4.278915 19.15685,3.980179 19.60162,6.397743 -0.330481,3.203857 3.432669,15.867478 4.885139,17.633048 1.45245,1.76557 -13.55446,9.76252 -13.92264,13.33971 6.340731,11.76687 19.97086,24.24561 29.298611,28.40882 4.515789,0.77728 12.895691,-14.58812 15.2416,-13.78716 2.65818,1.8555 15.638058,4.81479 17.904041,4.42639 2.26593,-0.38838 1.521027,16.4871 5.532372,19.1811 14.034286,0.58659 30.358768,-4.4645 38.702528,-10.32827 2.96069,-3.46496 -6.19522,-18.39219 -4.31113,-19.9914 2.96069,-1.33269 12.11372,-10.92926 12.92121,-13.06155 0.80746,-2.13227 15.34598,6.66174 19.6871,5.07951 7.51844,-11.24549 11.77134,-29.131788 10.83276,-39.220892 -1.54244,-4.2742 -19.17371,-3.921089 -19.62605,-6.337265 0.32046,-3.20488 -3.47602,-15.859871 -4.93398,-17.620972 -1.45795,-1.76112 12.93781,-9.36475 13.65398,-13.36388 C 141.27357,31.155051 128.28973,18.168011 118.98387,13.95708 114.47215,13.15669 106.02295,28.484659 103.68115,27.6717 101.03273,25.80259 88.057341,22.77175 85.789359,23.14853 83.521377,23.525321 83.91651,6.653721 80.47679,3.846491 Z m 1.355637,57.894042 c 10.671585,0 19.332872,8.589401 19.332872,19.169006 0,10.579605 -8.661287,19.169022 -19.332872,19.169022 -10.671646,0 -19.332939,-8.589417 -19.332939,-19.169022 0,-10.579605 8.661293,-19.169006 19.332939,-19.169006 z"
             id="path3630"
             stroke-miterlimit="4"
             inkscape:connector-curvature="0"
             style="fill:#ffffff;fill-rule:evenodd;stroke-width:1.25;stroke-linejoin:round;stroke-miterlimit:4" />
        </g>
      </g>
    </g>
  </g>
</svg>
