<?xml version="1.0" encoding="UTF-8" standalone="no"?>
<!-- Created with Inkscape (http://www.inkscape.org/) -->

<svg
   xmlns:dc="http://purl.org/dc/elements/1.1/"
   xmlns:cc="http://creativecommons.org/ns#"
   xmlns:rdf="http://www.w3.org/1999/02/22-rdf-syntax-ns#"
   xmlns:svg="http://www.w3.org/2000/svg"
   xmlns="http://www.w3.org/2000/svg"
   xmlns:sodipodi="http://sodipodi.sourceforge.net/DTD/sodipodi-0.dtd"
   xmlns:inkscape="http://www.inkscape.org/namespaces/inkscape"
   width="250.01961mm"
   height="41.140392mm"
   viewBox="0 0 250.01961 41.140393"
   version="1.1"
   id="svg2283"
   inkscape:version="0.92.3 (2405546, 2018-03-11)"
   sodipodi:docname="list_create_empty_list.svg">
  <defs
     id="defs2277" />
  <sodipodi:namedview
     id="base"
     pagecolor="#ffffff"
     bordercolor="#666666"
     borderopacity="1.0"
     inkscape:pageopacity="0.0"
     inkscape:pageshadow="2"
     inkscape:zoom="0.35"
     inkscape:cx="-370.95137"
     inkscape:cy="-50.826438"
     inkscape:document-units="mm"
     inkscape:current-layer="layer1"
     showgrid="false"
     fit-margin-top="0"
     fit-margin-left="0"
     fit-margin-right="0"
     fit-margin-bottom="0"
     inkscape:window-width="1920"
     inkscape:window-height="1001"
     inkscape:window-x="0"
     inkscape:window-y="0"
     inkscape:window-maximized="1" />
  <metadata
     id="metadata2280">
    <rdf:RDF>
      <cc:Work
         rdf:about="">
        <dc:format>image/svg+xml</dc:format>
        <dc:type
           rdf:resource="http://purl.org/dc/dcmitype/StillImage" />
        <dc:title></dc:title>
      </cc:Work>
    </rdf:RDF>
  </metadata>
  <g
     inkscape:label="Layer 1"
     inkscape:groupmode="layer"
     id="layer1"
     transform="translate(315.73638,-94.245112)">
    <g
       id="g49">
      <path
         sodipodi:nodetypes="cccccccccccccccccccscccccc"
         inkscape:connector-curvature="0"
         id="path3592"
         d="m -67.520612,133.47109 0.110575,-37.372431 -68.283433,-0.165273 -166.1968,0.187923 -0.0498,5.304771 c -0.0454,4.82645 -0.0861,5.37764 -0.45201,6.11397 -0.35743,0.71927 -0.49209,0.81597 -1.21036,0.86929 -0.84895,0.0631 -0.84609,0.0647 -4.45203,-2.24511 -1.03109,-0.66053 -1.81918,-1.01342 -2.40821,-1.07838 -0.78791,-0.0868 -0.95636,-0.023 -1.68415,0.63763 -0.64977,0.5899 -0.87011,0.9823 -1.11964,1.99627 -0.49494,2.01115 -0.7492,4.50667 -0.76942,7.02259 h -0.006 c 2.4e-4,0.0653 0.006,0.13043 0.006,0.19577 -3.8e-4,0.0653 0,0.13042 0,0.19576 h 0.006 c 0.0324,2.5158 0.29894,5.00964 0.80371,7.01829 0.25451,1.01273 0.47665,1.40407 1.12928,1.9908 0.7311,0.65723 0.89948,0.72089 1.68726,0.62979 0.58872,-0.0678 1.37507,-0.42457 2.40299,-1.09007 3.59455,-2.32738 3.59169,-2.32577 4.44101,-2.2669 0.71846,0.0498 0.85362,0.14592 1.21459,0.86339 0.3695,0.73458 0.41294,1.28559 0.48182,6.11178 l 0.0757,5.3044 166.1968,-0.18798 z"
         style="fill:#0ea7cf;fill-opacity:1;stroke:#1086a5;stroke-width:3.37654328;stroke-miterlimit:4;stroke-dasharray:none;stroke-opacity:1" />
      <path
         style="fill:#6dc2dd;fill-opacity:1;stroke:none;stroke-width:3.37654328;stroke-miterlimit:4;stroke-dasharray:none;stroke-opacity:1"
         d="m -68.501918,131.86124 -0.310695,-34.311407 -230.844367,0.264088 c 40.74434,20.891099 178.51994,30.051529 213.461073,34.010039 z"
         id="path3594"
         inkscape:connector-curvature="0"
         sodipodi:nodetypes="ccccc" />
      <rect
         style="opacity:1;fill:#ffffff;fill-opacity:1;stroke:none;stroke-width:1.45317245;stroke-miterlimit:4;stroke-dasharray:none;stroke-opacity:1"
         id="rect3596"
         width="28.829397"
         height="2.509464"
         x="-114.28416"
         y="97.881111"
         transform="matrix(0.9999721,-0.00747002,0.02696542,0.99963637,0,0)"
         ry="1.254732"
         rx="2.5168488" />
      <rect
         rx="1.4116662"
         ry="1.2262005"
         transform="matrix(0.9999967,0.00256826,-0.0230192,0.99973502,0,0)"
         y="99.038155"
         x="-127.67237"
         height="2.4524009"
         width="16.333469"
         id="rect3598"
         style="opacity:1;fill:#ffffff;fill-opacity:1;stroke:none;stroke-width:1.68709779;stroke-miterlimit:4;stroke-dasharray:none;stroke-opacity:1" />
      <text
         id="text3602"
         y="122.99532"
         x="-167.765"
         style="font-style:normal;font-variant:normal;font-weight:normal;font-stretch:normal;font-size:23.3712101px;line-height:1.25;font-family:'Bebas Neue';-inkscape-font-specification:'Bebas Neue';text-align:center;letter-spacing:0px;word-spacing:0px;text-anchor:middle;fill:#ffffff;fill-opacity:1;stroke:none;stroke-width:1.25202906"
         xml:space="preserve"><tspan
           style="font-style:normal;font-variant:normal;font-weight:normal;font-stretch:normal;font-family:Digitalt;-inkscape-font-specification:Digitalt;fill:#ffffff;stroke-width:1.25202906"
           y="122.99532"
           x="-167.765"
           id="tspan3600"
           sodipodi:role="line">create empty list</tspan></text>
      <g
         transform="translate(-19.050006)"
         id="g35">
        <g
           id="g3634"
           transform="matrix(0.62226092,0,0,-0.62226092,675.30617,181.1883)">
          <rect
             ry="11.329442"
             rx="11.68515"
             transform="scale(1,-1)"
             y="-125.71913"
             x="-1518.5787"
             height="37.757042"
             width="37.757042"
             id="rect3626"
             style="opacity:1;fill:#0032f5;fill-opacity:1;stroke:#ffffff;stroke-width:2;stroke-miterlimit:4;stroke-dasharray:none;stroke-opacity:1" />
          <g
             style="fill:#ffffff"
             transform="matrix(0.11942495,0.11749836,0.11749836,-0.11942495,-1518.7832,107.0828)"
             id="g3632">
            <title
               id="title3628">Layer 1</title>
            <path
               style="fill:#ffffff;fill-rule:evenodd;stroke-width:1.25;stroke-linejoin:round;stroke-miterlimit:4"
               inkscape:connector-curvature="0"
               stroke-miterlimit="4"
               id="path3630"
               d="M 80.476791,3.84649 C 66.996879,3.25614 49.271,8.71378 40.968238,14.63436 38.03176,18.11943 47.28662,32.97744 45.413699,34.58947 42.462371,35.942322 33.382819,45.597939 32.590228,47.735661 31.797599,49.873391 16.935759,40.913792 13.049699,42.36591 5.939909,53.431649 1.089979,71.845597 1.997059,81.937539 c 1.52907,4.278915 19.15685,3.980179 19.60162,6.397743 -0.330481,3.203857 3.432669,15.867478 4.885139,17.633048 1.45245,1.76557 -13.55446,9.76252 -13.92264,13.33971 6.340731,11.76687 19.97086,24.24561 29.298611,28.40882 4.515789,0.77728 12.895691,-14.58812 15.2416,-13.78716 2.65818,1.8555 15.638058,4.81479 17.904041,4.42639 2.26593,-0.38838 1.521027,16.4871 5.532372,19.1811 14.034286,0.58659 30.358768,-4.4645 38.702528,-10.32827 2.96069,-3.46496 -6.19522,-18.39219 -4.31113,-19.9914 2.96069,-1.33269 12.11372,-10.92926 12.92121,-13.06155 0.80746,-2.13227 15.34598,6.66174 19.6871,5.07951 7.51844,-11.24549 11.77134,-29.131788 10.83276,-39.220892 -1.54244,-4.2742 -19.17371,-3.921089 -19.62605,-6.337265 0.32046,-3.20488 -3.47602,-15.859871 -4.93398,-17.620972 -1.45795,-1.76112 12.93781,-9.36475 13.65398,-13.36388 C 141.27357,31.155051 128.28973,18.168011 118.98387,13.95708 114.47215,13.15669 106.02295,28.484659 103.68115,27.6717 101.03273,25.80259 88.057341,22.77175 85.789359,23.14853 83.521377,23.525321 83.91651,6.653721 80.47679,3.846491 Z m 1.355637,57.894042 c 10.671585,0 19.332872,8.589401 19.332872,19.169006 0,10.579605 -8.661287,19.169022 -19.332872,19.169022 -10.671646,0 -19.332939,-8.589417 -19.332939,-19.169022 0,-10.579605 8.661293,-19.169006 19.332939,-19.169006 z" />
          </g>
        </g>
      </g>
    </g>
  </g>
</svg>
