<?xml version="1.0" encoding="UTF-8" standalone="no"?>
<!-- Created with Inkscape (http://www.inkscape.org/) -->

<svg
   xmlns:dc="http://purl.org/dc/elements/1.1/"
   xmlns:cc="http://creativecommons.org/ns#"
   xmlns:rdf="http://www.w3.org/1999/02/22-rdf-syntax-ns#"
   xmlns:svg="http://www.w3.org/2000/svg"
   xmlns="http://www.w3.org/2000/svg"
   xmlns:sodipodi="http://sodipodi.sourceforge.net/DTD/sodipodi-0.dtd"
   xmlns:inkscape="http://www.inkscape.org/namespaces/inkscape"
   width="258.33267mm"
   height="79.420166mm"
   viewBox="0 0 258.33266 79.420167"
   version="1.1"
   id="svg2283"
   inkscape:version="0.92.3 (2405546, 2018-03-11)"
   sodipodi:docname="list_index_in_list.svg">
  <defs
     id="defs2277" />
  <sodipodi:namedview
     id="base"
     pagecolor="#ffffff"
     bordercolor="#666666"
     borderopacity="1.0"
     inkscape:pageopacity="0.0"
     inkscape:pageshadow="2"
     inkscape:zoom="0.35"
     inkscape:cx="124.96901"
     inkscape:cy="127.57027"
     inkscape:document-units="mm"
     inkscape:current-layer="layer1"
     showgrid="false"
     fit-margin-top="0"
     fit-margin-left="0"
     fit-margin-right="0"
     fit-margin-bottom="0"
     inkscape:window-width="1920"
     inkscape:window-height="1001"
     inkscape:window-x="0"
     inkscape:window-y="0"
     inkscape:window-maximized="1" />
  <metadata
     id="metadata2280">
    <rdf:RDF>
      <cc:Work
         rdf:about="">
        <dc:format>image/svg+xml</dc:format>
        <dc:type
           rdf:resource="http://purl.org/dc/dcmitype/StillImage" />
        <dc:title></dc:title>
      </cc:Work>
    </rdf:RDF>
  </metadata>
  <g
     inkscape:label="Layer 1"
     inkscape:groupmode="layer"
     id="layer1"
     transform="translate(256.44865,-254.3566)">
    <g
       id="g32">
      <path
         sodipodi:nodetypes="ccccscccccccccccccccccccccccccccccccccccsccsccccccccccccccccccccccccccccccccccsccccccccccsccccc"
         inkscape:connector-curvature="0"
         style="fill:#0ea7cf;fill-opacity:1;stroke:#1086a5;stroke-width:3.37654328;stroke-miterlimit:4;stroke-dasharray:none;stroke-opacity:1"
         d="m -14.891281,256.05584 -227.710659,0.1878 -0.0504,5.30496 c -0.0454,4.8265 -0.0862,5.3772 -0.45214,6.11352 -0.35742,0.71927 -0.49221,0.81629 -1.21048,0.86961 -0.84901,0.063 -0.8459,0.0648 -4.45184,-2.24505 -1.03115,-0.66053 -1.81918,-1.01342 -2.40822,-1.07832 -0.7879,-0.0869 -0.95666,-0.0224 -1.68446,0.63807 -0.64982,0.5899 -0.86979,0.98224 -1.11932,1.99621 -0.49501,2.01115 -0.74908,4.50635 -0.76936,7.02228 h -0.006 c 2.4e-4,0.0653 0.006,0.13067 0.006,0.19601 -3.1e-4,0.0653 -0.006,0.12968 0,0.19502 h 0.006 c 0.033,2.5158 0.29918,5.01001 0.8039,7.01866 0.25457,1.01273 0.47678,1.40401 1.1294,1.9908 0.73104,0.65717 0.89942,0.72089 1.6872,0.62986 0.58872,-0.0678 1.37489,-0.4247 2.40274,-1.0902 3.59467,-2.32739 3.59169,-2.32583 4.44095,-2.26696 0.71846,0.0498 0.85405,0.14573 1.21503,0.8632 0.36949,0.73458 0.41237,1.28553 0.48125,6.11172 l 0.0757,43.57407 227.712525,-0.18774 14.87776067,-0.0367 0.01617878,-11.18433 c -0.02737948,-0.0751 -0.04418052,-0.1631 -0.07840488,-0.23242 -0.17977118,-0.3591 -0.30372555,-0.56339 -0.47217158,-0.68361 -0.16850826,-0.12029 -0.3818193,-0.15675 -0.74105049,-0.18232 -0.2122532,-0.0149 -0.3706186,-0.0261 -0.546034,0 -0.1753531,0.0274 -0.367694,0.0941 -0.6453468,0.23515 -0.5553056,0.28207 -1.4544727,0.86158 -3.2540513,2.02172 -0.5146097,0.33179 -0.9682379,0.58655 -1.3672939,0.76663 -0.3990559,0.18002 -0.7429173,0.28568 -1.0373089,0.31903 -0.393829,0.0448 -0.6332127,0.0504 -0.8650049,-0.0367 -0.2318545,-0.0871 -0.4564284,-0.26776 -0.8213222,-0.59706 -0.3257535,-0.29402 -0.5434825,-0.53869 -0.7118665,-0.83675 -0.168322,-0.29813 -0.286613,-0.64921 -0.412932,-1.15585 -0.250398,-1.00483 -0.440997,-2.13131 -0.572418,-3.32064 -0.131484,-1.18926 -0.20404,-2.441 -0.217854,-3.6989 h -0.0062 c -1.87e-4,-0.0653 0,-0.13068 0,-0.19602 0,-0.0653 -0.0062,-0.13061 -0.0062,-0.19595 h 0.0062 c 0.01244,-1.25796 0.08388,-2.51032 0.214182,-3.69983 0.130301,-1.18952 0.319344,-2.3165 0.568809,-3.32157 0.125759,-0.50671 0.243988,-0.85754 0.411999,-1.15579 0.168072,-0.29825 0.386424,-0.54336 0.7119283,-0.83769 0.3644582,-0.32967 0.5885966,-0.51075 0.8203265,-0.59793 0.23173,-0.0872 0.471176,-0.0807 0.8650672,-0.0367 0.2943916,0.033 0.6389997,0.13839 1.0381801,0.3181 0.3992426,0.17971 0.8532441,0.43353 1.3681651,0.76476 1.8006986,1.15846 2.7003634,1.73748 3.2559802,2.01899 0.2777773,0.14075 0.4689359,0.20684 0.6444134,0.23428 0.1754154,0.0274 0.334652,0.0155 0.5469052,0 0.35923118,-0.0261 0.5727289,-0.0637 0.74105048,-0.18413 0.16838381,-0.12041 0.29184037,-0.32345 0.47130042,-0.68274 0.04853636,-0.0967 0.07280453,-0.22047 0.10939347,-0.32451 l 0.0155565,-10.89349 0.0124452,-8.48714 0.006223,-3.21217 c -0.05662574,-0.22844 -0.11549162,-0.4298 -0.20696398,-0.6125 -0.17977118,-0.3591 -0.30366333,-0.56339 -0.47217158,-0.68367 -0.16844603,-0.12022 -0.3818193,-0.15669 -0.74105051,-0.18226 -0.2123154,-0.0149 -0.3706186,-0.0268 -0.5459717,0 -0.1754154,0.0274 -0.3677562,0.0941 -0.6453468,0.23515 -0.5553679,0.28207 -1.4545349,0.86158 -3.2541135,2.02172 -0.5146098,0.33179 -0.9683002,0.58655 -1.3672939,0.76657 -0.3990559,0.18008 -0.7429173,0.28574 -1.037309,0.31903 -0.3938289,0.0448 -0.6332127,0.0504 -0.8650049,-0.0367 -0.2318544,-0.0871 -0.4564283,-0.2677 -0.8212599,-0.597 -0.3258163,-0.29402 -0.5436073,-0.53869 -0.7119293,-0.83682 -0.168321,-0.29806 -0.286613,-0.64914 -0.412932,-1.15578 -0.25046,-1.00483 -0.440997,-2.13137 -0.572418,-3.32064 -0.131484,-1.18926 -0.204039,-2.441 -0.217854,-3.6989 h -0.0062 c -1.25e-4,-0.0653 0,-0.13068 0.0062,-0.19601 0,-0.0653 -0.0062,-0.13068 -0.0062,-0.19595 h 0.0062 c 0.01245,-1.25797 0.08394,-2.51033 0.214245,-3.69984 0.130301,-1.18952 0.319282,-2.31649 0.568809,-3.32157 0.125759,-0.50671 0.243926,-0.85754 0.411999,-1.15579 0.168072,-0.29831 0.386424,-0.54336 0.7118664,-0.83768 0.3645205,-0.32968 0.5885966,-0.51076 0.8203888,-0.598 0.23173,-0.0872 0.4711138,-0.0806 0.8650049,-0.0367 0.2944539,0.033 0.6389998,0.13845 1.0382424,0.31816 0.3991804,0.17965 0.8532441,0.43347 1.3681651,0.76476 1.8006986,1.15846 2.7003012,1.73748 3.255918,2.01899 0.2777773,0.14075 0.4690603,0.20684 0.6444756,0.23428 0.1753532,0.0274 0.3345897,0.0162 0.5468429,0 0.35923121,-0.0261 0.57272893,-0.0637 0.74111274,-0.18413 0.1683838,-0.12041 0.29177814,-0.32345 0.47123819,-0.68274 0.10528655,-0.21083 0.1781533,-0.42177 0.23789035,-0.70733 L 0.19327588,256.21687 -14.886844,256.0519 Z"
         id="path3955" />
      <path
         id="path3957"
         d="m -240.40038,257.864 c 45.87917,34.16051 200.222406,68.56264 224.446526,72.20573 l 14.8777608,0.0597 0.23851264,-7.58418 c -0.0273795,-0.0752 -0.0441805,-0.16316 -0.0784049,-0.23248 -0.17977114,-0.35911 -0.30372554,-0.56333 -0.47217154,-0.68361 -0.1685083,-0.12029 -0.3818193,-0.15669 -0.7410506,-0.18233 -0.2123154,-0.0149 -0.3706186,-0.0261 -0.5460339,0 -0.1753531,0.0274 -0.367694,0.0942 -0.6453468,0.23522 -0.5553057,0.28207 -1.4544727,0.86158 -3.2540513,2.02172 -0.5146097,0.33173 -0.968238,0.58648 -1.3672939,0.76657 -0.3990559,0.18008 -0.7429173,0.28574 -1.0373089,0.31903 -0.3938912,0.0448 -0.6332128,0.0504 -0.8650672,-0.0367 -0.2318544,-0.0871 -0.4564284,-0.2677 -0.8212604,-0.597 -0.325753,-0.29402 -0.543482,-0.53869 -0.711866,-0.83682 -0.168322,-0.29806 -0.286613,-0.6492 -0.412932,-1.15579 -0.250398,-1.00482 -0.440997,-2.13136 -0.572418,-3.32063 -0.131484,-1.18933 -0.20404,-2.441 -0.217854,-3.69897 h -0.0062 c -1.87e-4,-0.0653 0,-0.13061 0,-0.19595 0,-0.0653 -0.0062,-0.13067 -0.0062,-0.19595 h 0.0062 c 0.01244,-1.25796 0.08388,-6.24395 0.214182,-7.4334 0.130301,-1.18951 0.319344,-2.31649 0.568809,-3.32157 0.125758,-0.50677 0.243926,-0.85753 0.411999,-1.15585 0.168072,-0.29825 0.386424,-0.54335 0.711928,-0.83768 0.364458,-0.32962 0.588597,-0.51076 0.8203268,-0.59793 0.23173,-0.0872 0.4711138,-0.0807 0.8650049,-0.0367 0.2944539,0.033 0.6389998,0.13845 1.0382424,0.3181 0.3992426,0.17971 0.8532441,0.43353 1.368165,0.76482 1.8006987,1.1584 2.7003635,1.73748 3.2559181,2.01899 0.2777773,0.14076 0.468998,0.20684 0.6444756,0.23422 0.1754154,0.0274 0.3346519,0.0156 0.5469051,0 0.359169,-0.0261 0.572729,-0.0637 0.7410506,-0.18413 0.1683838,-0.12041 0.2918403,-0.32339 0.47123814,-0.68268 0.0485364,-0.0968 0.0728668,-0.22053 0.10939347,-0.32451 l 0.0155565,-9.96016 0.0124452,-5.6869 0.006223,-3.21217 c -0.0566257,-0.2285 -0.1154294,-0.42986 -0.20690175,-0.61256 -0.17977126,-0.3591 -0.30366336,-0.56339 -0.47217166,-0.68361 -0.168446,-0.12029 -0.3818193,-0.15669 -0.7410505,-0.18233 -0.2123154,-0.0149 -0.3706186,-0.0267 -0.5459717,0 -0.1754154,0.0274 -0.3677562,0.0942 -0.6453468,0.23516 -0.5553679,0.28207 -1.4545349,0.86158 -3.2541757,2.02178 -0.5145476,0.33173 -0.968238,0.58648 -1.3672317,0.76657 -0.3990559,0.18008 -0.7429173,0.28568 -1.037309,0.31903 -0.3938289,0.0448 -0.6332127,0.0504 -0.8650049,-0.0367 -0.2318551,-0.0871 -0.4564291,-0.26776 -0.8213221,-0.59706 -0.325754,-0.29402 -0.543545,-0.53863 -0.711867,-0.83676 -0.168321,-0.29812 -0.286675,-0.6492 -0.412932,-1.15578 -0.25046,-1.00489 -0.440997,-2.13137 -0.572418,-3.3207 -0.131484,-1.18926 -0.204039,-3.37433 -0.217854,-4.6323 h -0.0062 c -1.25e-4,-0.0653 0,-0.13067 0.0062,-0.19595 0,-0.0653 -0.0062,-0.13067 -0.0062,-0.19601 h 0.0062 c 0.01245,-1.2579 0.08394,-5.3105 0.214245,-6.50001 0.130301,-1.18952 0.319282,-2.31643 0.568809,-3.32157 0.125758,-0.50671 0.243926,-0.85754 0.411999,-1.15579 0.168072,-0.29825 0.386424,-0.54335 0.711866,-0.83768 0.36452,-0.32968 0.588597,-0.51076 0.8203891,-0.59793 0.23173,-0.0872 0.4711138,-0.0807 0.8650049,-0.0367 0.2944539,0.033 0.6389998,0.13846 1.0382424,0.3181 0.3991803,0.17971 0.8532441,0.43353 1.368165,0.76476 1.8006987,1.15846 2.7003013,1.73748 3.2559181,2.01899 0.2777773,0.14082 0.4690603,0.2069 0.6444756,0.23428 0.1753531,0.0274 0.3345897,0.0162 0.5468429,0 0.3592312,-0.0261 0.572729,-0.0637 0.7411128,-0.18413 0.1683838,-0.1204 0.2917781,-0.32345 0.4712382,-0.68268 0.10528654,-0.21088 0.1781533,-0.42177 0.23789035,-0.70739 L -0.96705073,257.854 Z"
         style="fill:#6dc2dd;fill-opacity:1;stroke:none;stroke-width:3.37654328;stroke-miterlimit:4;stroke-dasharray:none;stroke-opacity:1"
         inkscape:connector-curvature="0"
         sodipodi:nodetypes="ccccccccccscccccccccccscccccccccccccccccsccccscccccccccccscccccsccccccccc" />
      <rect
         style="opacity:1;fill:#ffffff;fill-opacity:1;stroke:none;stroke-width:1.45317245;stroke-miterlimit:4;stroke-dasharray:none;stroke-opacity:1"
         id="rect3959"
         width="28.829397"
         height="2.509464"
         x="-37.71056"
         y="258.81958"
         transform="matrix(0.9999721,-0.00747002,0.02696542,0.99963637,0,0)"
         ry="1.254732"
         rx="2.5168488" />
      <rect
         rx="1.4116662"
         ry="1.2262005"
         transform="matrix(0.9999967,0.00256826,-0.0230192,0.99973502,0,0)"
         y="259.16278"
         x="-43.070625"
         height="2.4524009"
         width="16.333469"
         id="rect3961"
         style="opacity:1;fill:#ffffff;fill-opacity:1;stroke:none;stroke-width:1.68709779;stroke-miterlimit:4;stroke-dasharray:none;stroke-opacity:1" />
      <text
         id="text3965"
         y="282.82086"
         x="-125.49675"
         style="font-style:normal;font-variant:normal;font-weight:normal;font-stretch:normal;font-size:23.3712101px;line-height:1.25;font-family:'Bebas Neue';-inkscape-font-specification:'Bebas Neue';text-align:center;letter-spacing:0px;word-spacing:0px;text-anchor:middle;fill:#ffffff;fill-opacity:1;stroke:none;stroke-width:1.25202906"
         xml:space="preserve"><tspan
           style="font-style:normal;font-variant:normal;font-weight:normal;font-stretch:normal;font-family:Digitalt;-inkscape-font-specification:Digitalt;fill:#ffffff;stroke-width:1.25202906"
           y="282.82086"
           x="-125.49675"
           id="tspan3963"
           sodipodi:role="line">index in list?  thing</tspan></text>
      <text
         xml:space="preserve"
         style="font-style:normal;font-variant:normal;font-weight:normal;font-stretch:normal;font-size:23.3712101px;line-height:1.25;font-family:'Bebas Neue';-inkscape-font-specification:'Bebas Neue';text-align:center;letter-spacing:0px;word-spacing:0px;text-anchor:middle;fill:#ffffff;fill-opacity:1;stroke:none;stroke-width:1.25202906"
         x="-44.929985"
         y="322.02332"
         id="text3969"><tspan
           sodipodi:role="line"
           id="tspan3967"
           x="-44.929985"
           y="322.02332"
           style="font-style:normal;font-variant:normal;font-weight:normal;font-stretch:normal;font-family:Digitalt;-inkscape-font-specification:Digitalt;fill:#ffffff;stroke-width:1.25202906">list</tspan></text>
    </g>
  </g>
</svg>
