<?xml version="1.0" encoding="UTF-8" standalone="no"?>
<!-- Created with Inkscape (http://www.inkscape.org/) -->

<svg
   xmlns:dc="http://purl.org/dc/elements/1.1/"
   xmlns:cc="http://creativecommons.org/ns#"
   xmlns:rdf="http://www.w3.org/1999/02/22-rdf-syntax-ns#"
   xmlns:svg="http://www.w3.org/2000/svg"
   xmlns="http://www.w3.org/2000/svg"
   xmlns:sodipodi="http://sodipodi.sourceforge.net/DTD/sodipodi-0.dtd"
   xmlns:inkscape="http://www.inkscape.org/namespaces/inkscape"
   width="268.11884mm"
   height="85.756157mm"
   viewBox="0 0 268.11884 85.756158"
   version="1.1"
   id="svg2283"
   inkscape:version="0.92.3 (2405546, 2018-03-11)"
   sodipodi:docname="list_remove_list_item.svg">
  <defs
     id="defs2277" />
  <sodipodi:namedview
     id="base"
     pagecolor="#ffffff"
     bordercolor="#666666"
     borderopacity="1.0"
     inkscape:pageopacity="0.0"
     inkscape:pageshadow="2"
     inkscape:zoom="0.35"
     inkscape:cx="289.66161"
     inkscape:cy="296.1506"
     inkscape:document-units="mm"
     inkscape:current-layer="layer1"
     showgrid="false"
     fit-margin-top="0"
     fit-margin-left="0"
     fit-margin-right="0"
     fit-margin-bottom="0"
     inkscape:window-width="1920"
     inkscape:window-height="1001"
     inkscape:window-x="0"
     inkscape:window-y="0"
     inkscape:window-maximized="1" />
  <metadata
     id="metadata2280">
    <rdf:RDF>
      <cc:Work
         rdf:about="">
        <dc:format>image/svg+xml</dc:format>
        <dc:type
           rdf:resource="http://purl.org/dc/dcmitype/StillImage" />
        <dc:title></dc:title>
      </cc:Work>
    </rdf:RDF>
  </metadata>
  <g
     inkscape:label="Layer 1"
     inkscape:groupmode="layer"
     id="layer1"
     transform="translate(300.02356,-141.43369)">
    <g
       id="g32">
      <path
         sodipodi:nodetypes="ccccccccscscccccccccccccccccccsccsccccccccccccccccccccccccccccccccccsccccccccccsccccccccsc"
         inkscape:connector-curvature="0"
         id="path4102"
         d="m -265.80646,143.12246 c -3.51912,0 -6.7668,6.53496 -9.68939,6.53556 -2.92254,0 -5.52036,-6.53252 -7.73782,-6.53187 h -5.45908 c 0,0 -10.1798,-0.4043 -9.62289,9.3986 l 0.007,47.66223 0.007,9.39314 c -0.54776,8.98417 9.63199,9.38954 9.63199,9.38954 h 5.45903 c 2.21751,0 4.81439,6.53257 7.73698,6.53192 2.92249,0 6.17023,-6.53649 9.68939,-6.53649 h 7.65853 l 209.544453,0.0117 14.877746,-0.0364 0.01633,-11.18431 c -0.02754,-0.0751 -0.04434,-0.16311 -0.07836,-0.23242 -0.179771,-0.35912 -0.303725,-0.56344 -0.472203,-0.68366 -0.168477,-0.12027 -0.381803,-0.15672 -0.741019,-0.18229 -0.212253,-0.0149 -0.370603,-0.0261 -0.546034,0 -0.175338,0.0275 -0.367663,0.0942 -0.645347,0.23517 -0.555274,0.28207 -1.454504,0.86161 -3.254082,2.02177 -0.514626,0.33177 -0.968254,0.5865 -1.367279,0.76655 -0.399071,0.18005 -0.742933,0.28571 -1.037324,0.31903 -0.393798,0.0448 -0.633213,0.0497 -0.865021,-0.0373 -0.231854,-0.0871 -0.456381,-0.26774 -0.821291,-0.59699 -0.325753,-0.29402 -0.543514,-0.53876 -0.711897,-0.83679 -0.168291,-0.29812 -0.286598,-0.64917 -0.412886,-1.15582 -0.250429,-1.00479 -0.441028,-2.1313 -0.572449,-3.32063 -0.131468,-1.18928 -0.204039,-2.44105 -0.217854,-3.69894 h -0.0065 c -1.4e-4,-0.0653 0,-0.13062 0,-0.19596 0,-0.0653 -0.0065,-0.13063 -0.0065,-0.19597 h 0.0065 c 0.0126,-1.25798 0.08391,-2.51035 0.214213,-3.69987 0.130301,-1.18951 0.31936,-2.31649 0.568809,-3.32156 0.125774,-0.5067 0.243988,-0.85756 0.411999,-1.15578 0.168057,-0.29826 0.386377,-0.54337 0.711897,-0.83767 0.364443,-0.32967 0.588644,-0.5108 0.820358,-0.59798 0.231714,-0.0872 0.471129,-0.0805 0.86502,-0.0364 0.294392,0.0331 0.639047,0.13842 1.038212,0.3181 0.399258,0.17973 0.853259,0.43356 1.368212,0.76478 1.800698,1.15848 2.700301,1.7375 3.255902,2.01902 0.277777,0.14075 0.468983,0.20679 0.64446,0.23423 0.175431,0.0275 0.334668,0.0154 0.546921,0 0.359216,-0.0261 0.572729,-0.0637 0.741066,-0.18411 0.168384,-0.12041 0.291778,-0.32342 0.471223,-0.68273 0.04854,-0.0967 0.0728,-0.22047 0.109393,-0.32449 l 0.0154,-10.89352 0.0126,-8.48714 0.0056,-3.21218 c -0.05666,-0.2284 -0.11546,-0.42982 -0.206933,-0.61253 -0.179771,-0.35908 -0.303679,-0.56335 -0.472156,-0.68362 -0.168477,-0.12022 -0.38185,-0.15672 -0.741066,-0.18229 -0.2123,-0.0149 -0.37065,-0.0266 -0.545987,0 -0.175431,0.0275 -0.367756,0.0941 -0.645347,0.23517 -0.555368,0.28207 -1.45455,0.86156 -3.254129,2.02172 -0.514625,0.33178 -0.9683,0.58655 -1.367278,0.7666 -0.399072,0.18005 -0.742887,0.28571 -1.037278,0.31903 -0.393845,0.0448 -0.63326,0.0506 -0.865067,-0.0364 -0.231855,-0.087 -0.456429,-0.26775 -0.821245,-0.59705 -0.325847,-0.29401 -0.54356,-0.53861 -0.711898,-0.83674 -0.168337,-0.29807 -0.286597,-0.64917 -0.412932,-1.15581 -0.250429,-1.00485 -0.440981,-2.1314 -0.572402,-3.32064 -0.131515,-1.18928 -0.20404,-2.44105 -0.217854,-3.69893 h -0.0065 c -1.4e-4,-0.0653 1.4e-4,-0.13063 0.0065,-0.19597 0,-0.0653 -0.0065,-0.13072 -0.0065,-0.19596 h 0.0065 c 0.0126,-1.25798 0.08387,-2.51036 0.214167,-3.69988 0.130301,-1.18951 0.319266,-2.31649 0.568809,-3.32156 0.125774,-0.50669 0.243942,-0.85755 0.411999,-1.15577 0.168057,-0.29832 0.38647,-0.54338 0.711897,-0.83772 0.364536,-0.32968 0.58855,-0.51071 0.820358,-0.59793 0.231714,-0.0872 0.471129,-0.0804 0.86502,-0.0364 0.294485,0.0331 0.639,0.13838 1.038212,0.3181 0.399211,0.17964 0.853259,0.43347 1.368211,0.76478 1.800699,1.15848 2.700302,1.73751 3.255903,2.01902 0.277777,0.14075 0.469029,0.20679 0.64446,0.23423 0.175338,0.0275 0.334668,0.0163 0.546921,0 0.359215,-0.0261 0.572682,-0.0637 0.741066,-0.18411 0.168384,-0.12041 0.291778,-0.32342 0.471223,-0.68273 0.105286,-0.2108 0.178184,-0.4218 0.237921,-0.70732 l 0.0154,-10.50887 -15.080105,-0.16498 -0.0047,0.005 -193.190928,0.17226 V 143.124 h -12.6181 -11.31648 z"
         style="fill:#0ea7cf;fill-opacity:1;stroke:#1086a5;stroke-width:3.37654328;stroke-miterlimit:4;stroke-dasharray:none;stroke-opacity:1" />
      <path
         sodipodi:nodetypes="ccccccccccscccccccccccscccccccccccccccccsccccscccccccccccscccccsccccccccc"
         inkscape:connector-curvature="0"
         style="fill:#6dc2dd;fill-opacity:1;stroke:none;stroke-width:3.37654328;stroke-miterlimit:4;stroke-dasharray:none;stroke-opacity:1"
         d="m -265.75988,144.94162 c 45.87918,34.16051 191.792516,68.56264 216.016636,72.20573 l 14.877761,0.0597 0.238512,-7.58418 c -0.02738,-0.0752 -0.04418,-0.16315 -0.0784,-0.23247 -0.179772,-0.35911 -0.303726,-0.56334 -0.472172,-0.68362 -0.168508,-0.12028 -0.381819,-0.15668 -0.741051,-0.18232 -0.212315,-0.0149 -0.370618,-0.0261 -0.546034,0 -0.175353,0.0274 -0.367693,0.0942 -0.645346,0.23521 -0.555306,0.28207 -1.454473,0.86159 -3.254052,2.02173 -0.514609,0.33173 -0.968238,0.58648 -1.367293,0.76656 -0.399056,0.18009 -0.742918,0.28575 -1.037309,0.31904 -0.393892,0.0448 -0.633213,0.0504 -0.865068,-0.0367 -0.231854,-0.0871 -0.456428,-0.26769 -0.82126,-0.59699 -0.325753,-0.29402 -0.543482,-0.5387 -0.711866,-0.83682 -0.168322,-0.29806 -0.286613,-0.64921 -0.412932,-1.15579 -0.250398,-1.00483 -0.440997,-2.13137 -0.572418,-3.32063 -0.131484,-1.18933 -0.20404,-2.44101 -0.217854,-3.69897 h -0.0062 c -1.87e-4,-0.0653 0,-0.13061 0,-0.19595 0,-0.0653 -0.0062,-0.13067 -0.0062,-0.19595 h 0.0062 c 0.01244,-1.25796 0.08388,-6.24395 0.214182,-7.4334 0.130301,-1.18952 0.319344,-2.31649 0.568809,-3.32157 0.125759,-0.50677 0.243926,-0.85754 0.411999,-1.15585 0.168072,-0.29825 0.386424,-0.54336 0.711928,-0.83769 0.364458,-0.32961 0.588597,-0.51075 0.820327,-0.59793 0.23173,-0.0872 0.471114,-0.0806 0.865005,-0.0367 0.294454,0.033 0.638999,0.13845 1.038242,0.3181 0.399243,0.17971 0.853244,0.43353 1.368165,0.76482 1.800699,1.1584 2.700364,1.73748 3.255918,2.01899 0.277777,0.14075 0.468998,0.20684 0.644476,0.23422 0.175415,0.0274 0.334652,0.0155 0.546905,0 0.359169,-0.0261 0.572729,-0.0637 0.74105,-0.18413 0.168384,-0.12041 0.291841,-0.32339 0.471239,-0.68268 0.04854,-0.0968 0.07287,-0.22053 0.109393,-0.32451 l 0.01556,-9.96016 0.01244,-5.6869 0.0062,-3.21218 c -0.05662,-0.22849 -0.115429,-0.42986 -0.206901,-0.61255 -0.179771,-0.35911 -0.303664,-0.5634 -0.472172,-0.68362 -0.168446,-0.12028 -0.381819,-0.15668 -0.74105,-0.18232 -0.212316,-0.0149 -0.370619,-0.0268 -0.545972,0 -0.175415,0.0274 -0.367756,0.0941 -0.645347,0.23515 -0.555368,0.28207 -1.454535,0.86159 -3.254176,2.02179 -0.514547,0.33173 -0.968238,0.58648 -1.367231,0.76656 -0.399056,0.18009 -0.742918,0.28568 -1.037309,0.31904 -0.393829,0.0448 -0.633213,0.0504 -0.865005,-0.0367 -0.231855,-0.0871 -0.456429,-0.26776 -0.821322,-0.59706 -0.325754,-0.29401 -0.543545,-0.53862 -0.711867,-0.83675 -0.168321,-0.29813 -0.286675,-0.6492 -0.412932,-1.15579 -0.25046,-1.00489 -0.440997,-2.13137 -0.572418,-3.32069 -0.131484,-1.18927 -0.204039,-3.37434 -0.217854,-4.6323 h -0.0062 c -1.25e-4,-0.0653 0,-0.13067 0.0062,-0.19595 0,-0.0653 -0.0062,-0.13067 -0.0062,-0.19601 h 0.0062 c 0.01245,-1.2579 0.08394,-5.3105 0.214245,-6.50002 0.130301,-1.18951 0.319282,-2.31642 0.568809,-3.32156 0.125759,-0.50671 0.243926,-0.85754 0.411999,-1.15579 0.168072,-0.29825 0.386424,-0.54336 0.711866,-0.83769 0.36452,-0.32967 0.588597,-0.51075 0.820389,-0.59793 0.23173,-0.0872 0.471114,-0.0807 0.865005,-0.0367 0.294454,0.033 0.638999,0.13845 1.038242,0.3181 0.39918,0.17971 0.853244,0.43353 1.368165,0.76476 1.800699,1.15846 2.700301,1.73747 3.255918,2.01899 0.277777,0.14081 0.46906,0.2069 0.644476,0.23428 0.175353,0.0274 0.33459,0.0162 0.546843,0 0.359231,-0.0261 0.572729,-0.0637 0.741112,-0.18413 0.168384,-0.12041 0.291779,-0.32345 0.471239,-0.68268 0.105286,-0.21089 0.178153,-0.42177 0.23789,-0.70739 l -0.206715,-7.00504 z"
         id="path4118" />
      <rect
         rx="2.5168488"
         ry="1.254732"
         transform="matrix(0.9999721,-0.00747002,0.02696542,0.99963637,0,0)"
         y="145.62634"
         x="-68.448502"
         height="2.509464"
         width="28.829397"
         id="rect4120"
         style="opacity:1;fill:#ffffff;fill-opacity:1;stroke:none;stroke-width:1.45317245;stroke-miterlimit:4;stroke-dasharray:none;stroke-opacity:1" />
      <rect
         style="opacity:1;fill:#ffffff;fill-opacity:1;stroke:none;stroke-width:1.68709779;stroke-miterlimit:4;stroke-dasharray:none;stroke-opacity:1"
         id="rect4122"
         width="16.333469"
         height="2.4524009"
         x="-79.458069"
         y="146.30399"
         transform="matrix(0.9999967,0.00256826,-0.0230192,0.99973502,0,0)"
         ry="1.2262005"
         rx="1.4116662" />
      <text
         xml:space="preserve"
         style="font-style:normal;font-variant:normal;font-weight:normal;font-stretch:normal;font-size:23.3712101px;line-height:1.25;font-family:'Bebas Neue';-inkscape-font-specification:'Bebas Neue';text-align:center;letter-spacing:0px;word-spacing:0px;text-anchor:middle;fill:#ffffff;fill-opacity:1;stroke:none;stroke-width:1.25202906"
         x="-167.60373"
         y="169.89847"
         id="text4126"><tspan
           sodipodi:role="line"
           id="tspan4124"
           x="-167.60373"
           y="169.89847"
           style="font-style:normal;font-variant:normal;font-weight:normal;font-stretch:normal;font-family:Digitalt;-inkscape-font-specification:Digitalt;fill:#ffffff;stroke-width:1.25202906">remove list item  list</tspan></text>
      <text
         id="text4130"
         y="209.10091"
         x="-85.593384"
         style="font-style:normal;font-variant:normal;font-weight:normal;font-stretch:normal;font-size:23.3712101px;line-height:1.25;font-family:'Bebas Neue';-inkscape-font-specification:'Bebas Neue';text-align:center;letter-spacing:0px;word-spacing:0px;text-anchor:middle;fill:#ffffff;fill-opacity:1;stroke:none;stroke-width:1.25202906"
         xml:space="preserve"><tspan
           style="font-style:normal;font-variant:normal;font-weight:normal;font-stretch:normal;font-family:Digitalt;-inkscape-font-specification:Digitalt;fill:#ffffff;stroke-width:1.25202906"
           y="209.10091"
           x="-85.593384"
           id="tspan4128"
           sodipodi:role="line">index</tspan></text>
    </g>
  </g>
</svg>
