<?xml version="1.0" encoding="UTF-8" standalone="no"?>
<!-- Created with Inkscape (http://www.inkscape.org/) -->

<svg
   xmlns:dc="http://purl.org/dc/elements/1.1/"
   xmlns:cc="http://creativecommons.org/ns#"
   xmlns:rdf="http://www.w3.org/1999/02/22-rdf-syntax-ns#"
   xmlns:svg="http://www.w3.org/2000/svg"
   xmlns="http://www.w3.org/2000/svg"
   xmlns:sodipodi="http://sodipodi.sourceforge.net/DTD/sodipodi-0.dtd"
   xmlns:inkscape="http://www.inkscape.org/namespaces/inkscape"
   width="252.66mm"
   height="132.42485mm"
   viewBox="0 0 252.66 132.42485"
   version="1.1"
   id="svg2283"
   inkscape:version="0.92.3 (2405546, 2018-03-11)"
   sodipodi:docname="list_insert_list_item.svg">
  <defs
     id="defs2277" />
  <sodipodi:namedview
     id="base"
     pagecolor="#ffffff"
     bordercolor="#666666"
     borderopacity="1.0"
     inkscape:pageopacity="0.0"
     inkscape:pageshadow="2"
     inkscape:zoom="0.35"
     inkscape:cx="29.533079"
     inkscape:cy="467.2866"
     inkscape:document-units="mm"
     inkscape:current-layer="layer1"
     showgrid="false"
     fit-margin-top="0"
     fit-margin-left="0"
     fit-margin-right="0"
     fit-margin-bottom="0"
     inkscape:window-width="1920"
     inkscape:window-height="1001"
     inkscape:window-x="0"
     inkscape:window-y="0"
     inkscape:window-maximized="1" />
  <metadata
     id="metadata2280">
    <rdf:RDF>
      <cc:Work
         rdf:about="">
        <dc:format>image/svg+xml</dc:format>
        <dc:type
           rdf:resource="http://purl.org/dc/dcmitype/StillImage" />
        <dc:title></dc:title>
      </cc:Work>
    </rdf:RDF>
  </metadata>
  <g
     inkscape:label="Layer 1"
     inkscape:groupmode="layer"
     id="layer1"
     transform="translate(231.19788,-260.99712)">
    <g
       id="g38">
      <path
         sodipodi:nodetypes="scscccccsccccccccccccccccccccccsccsccccccccccscccccccccccccccccccsccsccccccccccccccccccccccccccccccccccccccccccccccccccccccs"
         inkscape:connector-curvature="0"
         id="path2568"
         d="m -196.98075,262.68592 c -3.51913,0 -6.7669,6.53492 -9.68941,6.53554 -2.92257,0 -5.51946,-6.53193 -7.73701,-6.53193 h -5.45996 c 0,0 -10.17969,-0.40509 -9.62283,9.39775 l 0.006,94.33177 0.006,9.39409 c -0.54777,8.9842 9.63198,9.38861 9.63198,9.38861 h 5.45909 c 2.21749,0 4.81437,6.53262 7.73695,6.53194 2.92251,0 6.17115,-6.53561 9.69034,-6.53561 l 143.119391,-0.85312 58.61225,-0.0657 14.877761,-0.0367 0.0062,-9.5326 0.0062,-8.60743 c -0.02116,-0.0679 -0.03796,-0.142 -0.06839,-0.20236 -0.179772,-0.3591 -0.303664,-0.56333 -0.472172,-0.68368 -0.168446,-0.12028 -0.381819,-0.15662 -0.741051,-0.18226 -0.212315,-0.0149 -0.370556,-0.0261 -0.545971,0 -0.175353,0.0274 -0.367757,0.0942 -0.645347,0.23516 -0.555368,0.28207 -1.454597,0.86158 -3.254176,2.02178 -0.514547,0.33173 -0.968238,0.58655 -1.367232,0.76651 -0.399055,0.18014 -0.742917,0.2858 -1.037308,0.31903 -0.393829,0.0448 -0.633275,0.0504 -0.865005,-0.0373 -0.231855,-0.0871 -0.456367,-0.26769 -0.8213226,-0.59699 -0.3257536,-0.29402 -0.5434827,-0.5387 -0.7118665,-0.83682 -0.1682593,-0.29813 -0.2866756,-0.64921 -0.4129323,-1.15579 -0.25046,-1.00489 -0.4409963,-2.1313 -0.5724178,-3.32063 -0.1314216,-1.18933 -0.2040394,-2.44107 -0.2178536,-3.69897 h -0.00622 c -1.245e-4,-0.0653 0,-0.13067 0,-0.19595 0,-0.0653 -0.00622,-0.13061 -0.00622,-0.19595 h 0.00622 c 0.012445,-1.25796 0.083943,-2.51039 0.2142444,-3.6999 0.1303015,-1.18951 0.3192199,-2.31649 0.5687465,-3.32157 0.1256967,-0.5067 0.2440507,-0.85747 0.4120612,-1.15578 0.1680104,-0.29819 0.3863618,-0.54336 0.7118043,-0.83763 0.3645204,-0.32967 0.5885974,-0.51081 0.8204514,-0.59799 0.231668,-0.0873 0.471114,-0.0802 0.865005,-0.0361 0.294392,0.033 0.638937,0.13845 1.03818,0.3181 0.39918,0.17971 0.853244,0.43346 1.368165,0.76475 1.800699,1.15841 2.700364,1.73754 3.25598,2.01905 0.277778,0.14082 0.468936,0.20678 0.644414,0.23422 0.175353,0.0274 0.334652,0.0156 0.546905,0 0.359169,-0.0261 0.572667,-0.0637 0.74105,-0.18412 0.168384,-0.12041 0.291779,-0.32352 0.471301,-0.68275 0.03796,-0.0755 0.05974,-0.16714 0.08568,-0.25338 l 0.0062,-14.69637 0.0062,-8.88726 c -0.02738,-0.075 -0.04418,-0.16309 -0.0784,-0.23241 -0.179772,-0.35911 -0.303664,-0.56346 -0.472172,-0.68368 -0.168446,-0.12028 -0.381819,-0.15669 -0.741051,-0.18226 -0.212253,-0.0149 -0.370494,-0.0261 -0.545971,0 -0.175291,0.0274 -0.367757,0.0942 -0.645347,0.23515 -0.555368,0.28207 -1.454597,0.86158 -3.254176,2.02173 -0.514547,0.33179 -0.968238,0.58654 -1.367232,0.76656 -0.399055,0.18008 -0.742917,0.28574 -1.037308,0.31903 -0.393829,0.0448 -0.633213,0.0504 -0.865005,-0.0367 -0.231917,-0.0871 -0.456367,-0.2677 -0.821323,-0.597 -0.3257536,-0.29402 -0.5434827,-0.53875 -0.7118665,-0.83681 -0.1683216,-0.29813 -0.2866134,-0.64915 -0.4128701,-1.15579 -0.25046,-1.00477 -0.4410585,-2.13131 -0.57248,-3.32063 -0.1309514,-1.18927 -0.203507,-2.44107 -0.2173212,-3.69891 h -0.00747 c -1.867e-4,-0.0653 0,-0.13068 0,-0.19601 0,-0.0653 -0.00622,-0.13062 -0.00622,-0.19595 h 0.00622 c 0.012445,-1.25803 0.083943,-2.51033 0.2142444,-3.69984 0.1303014,-1.18952 0.3192821,-2.31649 0.5687465,-3.32157 0.1257589,-0.50671 0.2439885,-0.8576 0.4119989,-1.15585 0.1680727,-0.29819 0.3863619,-0.54329 0.7118665,-0.83762 0.3644585,-0.32968 0.5887205,-0.51076 0.8203885,-0.59793 0.23173,-0.0872 0.471114,-0.0803 0.865005,-0.0367 0.294392,0.033 0.639062,0.13846 1.038242,0.3181 0.399181,0.17977 0.853307,0.43353 1.368166,0.76476 1.800698,1.15846 2.700301,1.73748 3.25598,2.01899 0.277653,0.14075 0.468936,0.20684 0.644413,0.23428 0.175416,0.0274 0.334652,0.0156 0.546905,0 0.359169,-0.0261 0.572792,-0.0637 0.741051,-0.18413 0.168384,-0.1204 0.291778,-0.32345 0.471238,-0.68274 0.04854,-0.0968 0.07281,-0.22041 0.109394,-0.32451 l 0.01556,-10.89349 0.01244,-8.48708 0.0062,-3.21217 c -0.05663,-0.22849 -0.115429,-0.42992 -0.206902,-0.61255 -0.179771,-0.35911 -0.303539,-0.56346 -0.472109,-0.68368 -0.168384,-0.12028 -0.38182,-0.15669 -0.741113,-0.18226 -0.212315,-0.0149 -0.370619,-0.0268 -0.545972,0 -0.175415,0.0274 -0.367818,0.094 -0.645409,0.23515 -0.555368,0.28207 -1.454472,0.86152 -3.254051,2.02173 -0.51461,0.33172 -0.968362,0.58654 -1.367294,0.76656 -0.399118,0.18015 -0.742917,0.28568 -1.037309,0.31903 -0.393829,0.0448 -0.633213,0.0498 -0.865005,-0.0373 -0.231854,-0.0871 -0.456428,-0.26764 -0.8212596,-0.597 -0.3258781,-0.29396 -0.5436072,-0.53863 -0.7119287,-0.83675 -0.1682594,-0.29807 -0.2866756,-0.64921 -0.4129324,-1.15585 -0.25046,-1.00483 -0.4409963,-2.13131 -0.5724178,-3.32064 -0.1314215,-1.1892 -0.2040394,-2.44088 -0.2178535,-3.6989 h -0.00622 c -1.244e-4,-0.0653 3.112e-4,-0.13061 0.00622,-0.19595 0,-0.0653 -0.00622,-0.1308 -0.00622,-0.19601 h 0.00622 c 0.012445,-1.25803 0.083881,-2.51039 0.2141822,-3.69984 0.1303014,-1.18952 0.3193443,-2.31649 0.5688087,-3.32157 0.1257589,-0.50664 0.2439885,-0.85754 0.4119989,-1.15579 0.1681971,-0.29831 0.3864241,-0.54336 0.7119287,-0.83768 0.3644585,-0.32968 0.5885345,-0.51076 0.8203265,-0.59794 0.23173,-0.0872 0.471176,-0.0811 0.865067,-0.0373 0.294392,0.033 0.638875,0.13839 1.03818,0.3181 0.399118,0.17965 0.853244,0.43353 1.368228,0.76476 1.800698,1.15852 2.700301,1.73747 3.255918,2.01899 0.277777,0.14075 0.46906,0.20671 0.644413,0.23428 0.175415,0.0274 0.334714,0.0162 0.546967,0 0.359169,-0.0261 0.572605,-0.0637 0.740989,-0.18413 0.168383,-0.12028 0.29184,-0.32345 0.4713,-0.68274 0.105287,-0.21083 0.178153,-0.42177 0.23789,-0.70733 l 0.01556,-10.50887 -15.0920052,-0.16583 -0.00622,0.006 -66.5314528,0.0747 -6.885566,-0.0884 h -5.459966 z"
         style="fill:#0ea7cf;fill-opacity:1;stroke:#1086a5;stroke-width:3.37654328;stroke-miterlimit:4;stroke-dasharray:none;stroke-opacity:1" />
      <path
         id="path2570"
         d="m -195.50407,264.55183 c 45.87924,34.16044 174.893408,114.25252 199.11759,117.89554 l 15.146204,0.13871 c -0.397189,-6.48502 -0.04294,-9.76203 -0.08979,-16.32166 l -4.25838,2.76172 c -1.180492,0.384 -2.155637,1.17862 -3.509863,1.08889 -1.3224291,-0.0723 -1.8867575,-0.99742 -2.8617159,-1.74874 -0.8697963,-1.36822 -0.9973598,-2.56278 -1.3776235,-3.88365 l -0.3688763,-6.05031 0.5293574,-6.57219 c 0.4200261,-1.28609 0.7610251,-2.28793 1.591619,-3.68453 0.9992266,-0.50254 0.9403607,-1.17881 3.2344503,-1.2075 1.826398,0.35929 3.46338,1.57146 5.147591,2.59408 0.648645,0.50447 1.265741,0.78785 1.898642,1.18174 0.02738,-6.10967 0.0075,-15.44751 0.03485,-21.55711 -0.02738,-0.0752 -0.04418,-0.16322 -0.07841,-0.23248 -0.179771,-0.35911 -0.303725,-0.56333 -0.472171,-0.68361 -0.168509,-0.12029 -0.38182,-0.15669 -0.741051,-0.18233 -0.212315,-0.0149 -0.370619,-0.0261 -0.546034,0 -0.175353,0.0274 -0.367694,0.0942 -0.645347,0.23522 -0.555305,0.28207 -1.454472,0.86158 -3.254051,2.02172 -0.51461,0.33173 -0.968238,0.58648 -1.367294,0.76657 -0.398994,0.18008 -0.742917,0.28574 -1.037309,0.31903 -0.393829,0.0448 -0.6332125,0.0504 -0.8650047,-0.0367 -0.2319166,-0.0871 -0.4564906,-0.2677 -0.8213222,-0.597 -0.3257536,-0.29402 -0.5434827,-0.53869 -0.7118665,-0.83682 -0.1682593,-0.29806 -0.2865511,-0.6492 -0.4129323,-1.15578 C 7.5267945,327.79981 7.336196,326.67327 7.2047745,325.484 7.0732907,324.29467 7.0007351,323.043 6.9869831,321.78503 h -0.00622 c -2.489e-4,-0.0653 0,-0.13061 0,-0.19595 0,-0.0653 -0.00622,-0.13067 -0.00622,-0.19595 h 0.00622 c 0.012445,-1.25796 0.083819,-6.24395 0.21412,-7.4334 0.1303637,-1.18951 0.3193443,-2.31649 0.5688087,-3.32157 0.125759,-0.50677 0.2439263,-0.85753 0.4120612,-1.15585 0.1680104,-0.29825 0.386424,-0.54335 0.7118665,-0.83768 0.3645204,-0.32962 0.5886588,-0.51076 0.8203266,-0.59793 0.2317299,-0.0872 0.4711139,-0.0806 0.8650049,-0.0367 0.294454,0.033 0.639,0.13846 1.038243,0.3181 0.399242,0.17971 0.853306,0.43353 1.368165,0.76482 1.800698,1.1584 2.700363,1.73748 3.255918,2.01899 0.277777,0.14076 0.468998,0.20684 0.644475,0.23422 0.175416,0.0274 0.334652,0.0156 0.546906,0 0.359231,-0.0261 0.572729,-0.0637 0.741112,-0.18413 0.168322,-0.1204 0.291841,-0.32339 0.471239,-0.68268 0.04854,-0.0968 0.0728,-0.22053 0.109393,-0.32451 l 0.01556,-9.96016 0.01244,-5.6869 0.0062,-3.21217 c -0.05663,-0.2285 -0.115429,-0.42986 -0.206901,-0.61256 -0.179772,-0.3591 -0.303664,-0.56339 -0.472172,-0.68361 -0.168446,-0.12029 -0.381882,-0.15669 -0.741051,-0.18233 -0.212315,-0.0149 -0.370618,-0.0267 -0.545971,0 -0.175416,0.0274 -0.367756,0.0942 -0.645347,0.23516 -0.555368,0.28207 -1.454535,0.86158 -3.254176,2.02178 -0.514547,0.33173 -0.968238,0.58649 -1.367294,0.76657 -0.398993,0.18008 -0.742917,0.28568 -1.037246,0.31903 -0.393892,0.0448 -0.6332135,0.0504 -0.8650679,-0.0367 -0.2317922,-0.0871 -0.4563662,-0.26776 -0.82126,-0.59706 -0.3257536,-0.29402 -0.5436071,-0.53863 -0.7118665,-0.83676 -0.1683216,-0.29812 -0.2866756,-0.6492 -0.4129323,-1.15578 -0.25046,-1.00489 -0.4409963,-2.13137 -0.5724178,-3.3207 -0.1314838,-1.18926 -0.2040394,-3.37433 -0.2178536,-4.6323 h -0.00622 c -1.245e-4,-0.0653 0,-0.13067 0.00622,-0.19595 0,-0.0653 -0.00622,-0.13067 -0.00622,-0.19601 h 0.00622 c 0.012445,-1.2579 0.083943,-5.3105 0.2142444,-6.50001 0.1303015,-1.18952 0.3192821,-2.31643 0.5688087,-3.32157 0.125759,-0.5067 0.2439263,-0.85754 0.411999,-1.15579 0.1680727,-0.29824 0.386424,-0.54335 0.7118665,-0.83768 0.3645204,-0.32968 0.5885966,-0.51075 0.8203888,-0.59793 0.23173,-0.0872 0.4711137,-0.0807 0.8650057,-0.0367 0.294453,0.033 0.638999,0.13846 1.038242,0.3181 0.39918,0.17971 0.853244,0.43353 1.368165,0.76476 1.800699,1.15846 2.700301,1.73748 3.255918,2.01899 0.277777,0.14082 0.46906,0.2069 0.644476,0.23428 0.175353,0.0274 0.334589,0.0162 0.546843,0 0.359231,-0.0261 0.572729,-0.0637 0.741112,-0.18413 0.168384,-0.1204 0.291778,-0.32345 0.471239,-0.68268 0.105286,-0.21088 0.178153,-0.42177 0.23789,-0.70739 l -0.206715,-7.00504 z"
         style="fill:#6dc2dd;fill-opacity:1;stroke:none;stroke-width:3.37654328;stroke-miterlimit:4;stroke-dasharray:none;stroke-opacity:1"
         inkscape:connector-curvature="0"
         sodipodi:nodetypes="cccccccccccccccccccccscccccccccccscccccccccccccccccsccccscccccccccccscccccsccccccccc" />
      <rect
         style="opacity:1;fill:#ffffff;fill-opacity:1;stroke:none;stroke-width:1.45317245;stroke-miterlimit:4;stroke-dasharray:none;stroke-opacity:1"
         id="rect2572"
         width="28.829397"
         height="2.509464"
         x="-18.332195"
         y="265.60837"
         transform="matrix(0.9999721,-0.00747002,0.02696542,0.99963637,0,0)"
         ry="1.254732"
         rx="2.5168488" />
      <rect
         rx="1.4116662"
         ry="1.2262005"
         transform="matrix(0.9999967,0.00256826,-0.0230192,0.99973502,0,0)"
         y="265.74963"
         x="-23.361395"
         height="2.4524009"
         width="16.333469"
         id="rect2574"
         style="opacity:1;fill:#ffffff;fill-opacity:1;stroke:none;stroke-width:1.68709779;stroke-miterlimit:4;stroke-dasharray:none;stroke-opacity:1" />
      <text
         id="text2578"
         y="289.46231"
         x="-112.14242"
         style="font-style:normal;font-variant:normal;font-weight:normal;font-stretch:normal;font-size:23.3712101px;line-height:1.25;font-family:'Bebas Neue';-inkscape-font-specification:'Bebas Neue';text-align:center;letter-spacing:0px;word-spacing:0px;text-anchor:middle;fill:#ffffff;fill-opacity:1;stroke:none;stroke-width:1.25202906"
         xml:space="preserve"><tspan
           style="font-style:normal;font-variant:normal;font-weight:normal;font-stretch:normal;font-family:Digitalt;-inkscape-font-specification:Digitalt;fill:#ffffff;stroke-width:1.25202906"
           y="289.46231"
           x="-112.14242"
           id="tspan2576"
           sodipodi:role="line">insert list item  list</tspan></text>
      <text
         xml:space="preserve"
         style="font-style:normal;font-variant:normal;font-weight:normal;font-stretch:normal;font-size:23.3712101px;line-height:1.25;font-family:'Bebas Neue';-inkscape-font-specification:'Bebas Neue';text-align:center;letter-spacing:0px;word-spacing:0px;text-anchor:middle;fill:#ffffff;fill-opacity:1;stroke:none;stroke-width:1.25202906"
         x="-34.879349"
         y="328.66473"
         id="text2582"><tspan
           sodipodi:role="line"
           id="tspan2580"
           x="-34.879349"
           y="328.66473"
           style="font-style:normal;font-variant:normal;font-weight:normal;font-stretch:normal;font-family:Digitalt;-inkscape-font-specification:Digitalt;fill:#ffffff;stroke-width:1.25202906">index</tspan></text>
      <text
         id="text2586"
         y="366.93378"
         x="-29.110722"
         style="font-style:normal;font-variant:normal;font-weight:normal;font-stretch:normal;font-size:23.3712101px;line-height:1.25;font-family:'Bebas Neue';-inkscape-font-specification:'Bebas Neue';text-align:center;letter-spacing:0px;word-spacing:0px;text-anchor:middle;fill:#ffffff;fill-opacity:1;stroke:none;stroke-width:1.25202906"
         xml:space="preserve"><tspan
           style="font-style:normal;font-variant:normal;font-weight:normal;font-stretch:normal;font-family:Digitalt;-inkscape-font-specification:Digitalt;fill:#ffffff;stroke-width:1.25202906"
           y="366.93378"
           x="-29.110722"
           id="tspan2584"
           sodipodi:role="line">item</tspan></text>
    </g>
  </g>
</svg>
