<?xml version="1.0" encoding="UTF-8" standalone="no"?>
<!-- Created with Inkscape (http://www.inkscape.org/) -->

<svg
   xmlns:dc="http://purl.org/dc/elements/1.1/"
   xmlns:cc="http://creativecommons.org/ns#"
   xmlns:rdf="http://www.w3.org/1999/02/22-rdf-syntax-ns#"
   xmlns:svg="http://www.w3.org/2000/svg"
   xmlns="http://www.w3.org/2000/svg"
   xmlns:sodipodi="http://sodipodi.sourceforge.net/DTD/sodipodi-0.dtd"
   xmlns:inkscape="http://www.inkscape.org/namespaces/inkscape"
   width="432.71832mm"
   height="118.62516mm"
   viewBox="0 0 432.7183 118.62516"
   version="1.1"
   id="svg2283"
   inkscape:version="0.92.3 (2405546, 2018-03-11)"
   sodipodi:docname="list_lookup_in_pairs.svg">
  <defs
     id="defs2277" />
  <sodipodi:namedview
     id="base"
     pagecolor="#ffffff"
     bordercolor="#666666"
     borderopacity="1.0"
     inkscape:pageopacity="0.0"
     inkscape:pageshadow="2"
     inkscape:zoom="0.65060623"
     inkscape:cx="915.65559"
     inkscape:cy="333.83812"
     inkscape:document-units="mm"
     inkscape:current-layer="layer1"
     showgrid="false"
     fit-margin-top="0"
     fit-margin-left="0"
     fit-margin-right="0"
     fit-margin-bottom="0"
     inkscape:window-width="1920"
     inkscape:window-height="1001"
     inkscape:window-x="0"
     inkscape:window-y="0"
     inkscape:window-maximized="1" />
  <metadata
     id="metadata2280">
    <rdf:RDF>
      <cc:Work
         rdf:about="">
        <dc:format>image/svg+xml</dc:format>
        <dc:type
           rdf:resource="http://purl.org/dc/dcmitype/StillImage" />
        <dc:title></dc:title>
      </cc:Work>
    </rdf:RDF>
  </metadata>
  <g
     inkscape:label="Layer 1"
     inkscape:groupmode="layer"
     id="layer1"
     transform="translate(329.76588,-252.94224)">
    <g
       id="g71">
      <path
         style="fill:#0ea7cf;fill-opacity:1;stroke:#1086a5;stroke-width:3.37654328;stroke-miterlimit:4;stroke-dasharray:none;stroke-opacity:1"
         d="m -71.459065,254.63807 -0.0062,0.006 -244.452905,0.1878 -0.0504,5.30502 c -0.0454,4.82645 -0.087,5.37715 -0.45301,6.11353 -0.35736,0.71927 -0.4914,0.81622 -1.20955,0.86961 -0.84907,0.063 -0.84596,0.0647 -4.45184,-2.24512 -1.03121,-0.66053 -1.81924,-1.01341 -2.40821,-1.07831 -0.78797,-0.0869 -0.95673,-0.0224 -1.68452,0.63806 -0.64971,0.58991 -0.86986,0.98224 -1.11933,1.99622 -0.49507,2.01114 -0.74907,4.50635 -0.76936,7.02234 h -0.007 c 2.4e-4,0.0653 0.007,0.13061 0.007,0.19595 -2.5e-4,0.0653 -0.006,0.12974 0,0.19507 h 0.006 c 0.033,2.5158 0.29919,5.01001 0.80396,7.01867 0.25457,1.01273 0.47672,1.40395 1.12935,1.99074 0.73103,0.65717 0.89947,0.72089 1.68726,0.62985 0.58865,-0.0678 1.37488,-0.42469 2.40273,-1.0902 3.59468,-2.32732 3.59163,-2.32576 4.44089,-2.2669 0.71846,0.0498 0.85412,0.14574 1.21509,0.8632 0.3695,0.73458 0.41237,1.28553 0.48126,6.11173 l 0.0757,82.7765 244.454711,-0.18779 14.877761,-0.0367 0.0062,-2.99886 0.0062,-8.60742 c -0.02178,-0.0679 -0.03858,-0.142 -0.06832,-0.20236 -0.179772,-0.35911 -0.303664,-0.56334 -0.472234,-0.68362 -0.168384,-0.12034 -0.381757,-0.15668 -0.741051,-0.18232 -0.212315,-0.0149 -0.370618,-0.0261 -0.545972,0 -0.175415,0.0274 -0.367693,0.0942 -0.645346,0.23515 -0.555306,0.28207 -1.454535,0.86158 -3.254114,2.02179 -0.514547,0.33173 -0.9683,0.58648 -1.367231,0.76656 -0.399119,0.18008 -0.74298,0.28568 -1.037372,0.31904 -0.393829,0.0448 -0.633212,0.0504 -0.865005,-0.0361 -0.231854,-0.0872 -0.456428,-0.26775 -0.82126,-0.59706 -0.325753,-0.29401 -0.543544,-0.53869 -0.711928,-0.83681 -0.16826,-0.29813 -0.286614,-0.64921 -0.41287,-1.15573 -0.25046,-1.00489 -0.441059,-2.13137 -0.57248,-3.32069 -0.131422,-1.18927 -0.20404,-2.44101 -0.217854,-3.69891 h -0.0062 c -6.2e-5,-0.0653 0,-0.13073 0,-0.19601 0,-0.0652 -0.0068,-0.13061 -0.0068,-0.19595 h 0.0068 c 0.01245,-1.2579 0.08394,-2.51033 0.214245,-3.69984 0.130301,-1.18951 0.319282,-2.31649 0.568809,-3.32157 0.125696,-0.5067 0.243926,-0.85753 0.411999,-1.15578 0.168072,-0.29825 0.386424,-0.54336 0.711866,-0.83769 0.36452,-0.32967 0.588597,-0.51075 0.820389,-0.59793 0.23173,-0.0873 0.471114,-0.0805 0.865005,-0.0367 0.294454,0.033 0.638937,0.13845 1.038242,0.31816 0.399118,0.17964 0.853244,0.43346 1.368165,0.76476 1.800699,1.1584 2.700301,1.73747 3.255918,2.01898 0.277777,0.14082 0.468998,0.20684 0.644476,0.23429 0.175353,0.0274 0.334652,0.0156 0.546905,0 0.359231,-0.0261 0.572667,-0.0638 0.74105,-0.18419 0.168384,-0.12041 0.291779,-0.32339 0.471239,-0.68269 0.03796,-0.0755 0.05974,-0.16714 0.08568,-0.25338 l 0.0062,-14.69637 0.0062,-8.88726 c -0.02738,-0.0751 -0.04418,-0.16315 -0.07834,-0.23247 -0.179772,-0.35911 -0.303726,-0.5634 -0.472234,-0.68362 -0.168446,-0.12028 -0.381757,-0.15675 -0.741051,-0.18232 -0.212253,-0.0149 -0.370556,-0.0261 -0.545972,0 -0.175353,0.0274 -0.367756,0.0942 -0.645346,0.23521 -0.555368,0.28207 -1.454535,0.86152 -3.254114,2.02173 -0.51461,0.33172 -0.9683,0.58648 -1.367231,0.76656 -0.399119,0.18002 -0.74298,0.28568 -1.037372,0.31903 -0.393829,0.0448 -0.633212,0.0504 -0.865005,-0.0367 -0.231916,-0.0871 -0.456366,-0.26776 -0.82126,-0.59706 -0.325753,-0.29402 -0.543544,-0.53869 -0.711928,-0.83675 -0.16826,-0.29813 -0.286614,-0.64921 -0.41287,-1.15585 -0.25046,-1.00477 -0.441059,-2.13131 -0.57248,-3.32064 -0.131422,-1.18926 -0.20404,-2.441 -0.217854,-3.6989 h -0.0062 c -1.86e-4,-0.0653 0,-0.13061 0,-0.19595 0,-0.0653 -0.0062,-0.13068 -0.0062,-0.19601 h 0.0062 c 0.01245,-1.25797 0.08394,-2.51033 0.214245,-3.69984 0.130301,-1.18952 0.319282,-2.31649 0.568809,-3.32157 0.125696,-0.50671 0.243988,-0.85754 0.411999,-1.15579 0.168072,-0.29825 0.386361,-0.54335 0.711866,-0.83768 0.364458,-0.32968 0.588659,-0.51076 0.820389,-0.59793 0.23173,-0.0872 0.471114,-0.0805 0.865005,-0.0367 0.294391,0.033 0.639062,0.13839 1.038242,0.3181 0.399118,0.17971 0.853306,0.43353 1.368165,0.76476 1.800699,1.15846 2.700301,1.73748 3.255918,2.01899 0.277715,0.14075 0.468998,0.20684 0.644476,0.23428 0.175353,0.0274 0.334652,0.0156 0.546905,0 0.359231,-0.0261 0.572729,-0.0637 0.74105,-0.18413 0.168384,-0.12041 0.291779,-0.32345 0.471239,-0.68274 0.04854,-0.0968 0.0728,-0.22047 0.109393,-0.32451 l 0.01556,-10.89349 0.01244,-8.48714 0.0062,-3.21217 c -0.05663,-0.22843 -0.115429,-0.42986 -0.206901,-0.61256 -0.179771,-0.35904 -0.303664,-0.56339 -0.472172,-0.68361 -0.168446,-0.12028 -0.381819,-0.15669 -0.74105,-0.18226 -0.212316,-0.0149 -0.370681,-0.0268 -0.546034,0 -0.175416,0.0274 -0.367757,0.094 -0.645347,0.23515 -0.555368,0.28207 -1.454535,0.86158 -3.254114,2.02173 -0.514547,0.33179 -0.968238,0.58648 -1.367231,0.76656 -0.399056,0.18008 -0.742918,0.28568 -1.037309,0.31903 -0.393829,0.0448 -0.633213,0.0498 -0.865005,-0.0373 -0.231855,-0.0871 -0.456429,-0.2677 -0.821322,-0.597 -0.325816,-0.29402 -0.543545,-0.53869 -0.711867,-0.83682 -0.168321,-0.298 -0.286613,-0.6492 -0.412932,-1.15578 -0.25046,-1.00483 -0.440997,-2.13137 -0.572418,-3.32064 -0.131484,-1.18926 -0.204039,-2.44094 -0.217854,-3.69896 h -0.0068 c -1.25e-4,-0.0653 1.86e-4,-0.13062 0.0068,-0.19595 0,-0.0652 -0.0068,-0.1308 -0.0068,-0.19595 h 0.0068 c 0.01245,-1.25803 0.08388,-2.51045 0.214183,-3.69984 0.130301,-1.18952 0.319282,-2.31649 0.568808,-3.32157 0.125759,-0.50671 0.243927,-0.85754 0.411999,-1.15585 0.168135,-0.29831 0.386424,-0.5433 0.711867,-0.83763 0.36452,-0.32967 0.588596,-0.51075 0.820389,-0.59793 0.23173,-0.0872 0.471176,-0.0804 0.865067,-0.0367 0.294391,0.033 0.638937,0.13839 1.03818,0.3181 0.39918,0.17965 0.853244,0.43347 1.368165,0.76476 1.800699,1.15846 2.700301,1.73748 3.25598,2.01899 0.277777,0.14075 0.468998,0.20677 0.644414,0.23428 0.175353,0.0274 0.334652,0.0162 0.546905,0 0.359231,-0.0261 0.572666,-0.0637 0.74105,-0.18413 0.168384,-0.12034 0.291778,-0.32345 0.471301,-0.68274 0.105286,-0.21083 0.178091,-0.42177 0.237828,-0.70733 l 0.01556,-10.50886 z"
         id="path4288"
         inkscape:connector-curvature="0"
         sodipodi:nodetypes="cccccccccccccccccccccccccccccccccccccccccccccsccccccccccscccccccccccccccccccsccscccccccccccccccccccccccccccccccccccccccccccccccccc" />
      <path
         id="path4290"
         d="m -313.71513,256.45028 c 45.87923,34.16044 216.964644,107.76508 241.188826,111.4081 l 15.146204,0.1387 c -0.397189,-6.48501 -0.04294,-3.22829 -0.08979,-9.78791 l -4.258381,2.76172 c -1.180491,0.38399 -2.155636,1.17862 -3.509863,1.08889 -1.322428,-0.0723 -1.886757,-0.99742 -2.861715,-1.74874 -0.869797,-1.36823 -0.99736,-2.56278 -1.377624,-3.88365 l -0.368876,-6.05031 0.529357,-6.57219 c 0.420026,-1.28609 0.761025,-2.28793 1.591619,-3.68454 0.999227,-0.50253 0.940361,-1.17881 3.23445,-1.20749 1.826398,0.35929 3.46338,1.57145 5.147592,2.59408 0.648644,0.50447 1.26574,0.78784 1.898642,1.18173 0.02738,-6.10966 0.0075,-15.4475 0.03485,-21.55711 -0.02738,-0.0752 -0.04418,-0.16321 -0.07841,-0.23247 -0.179771,-0.35911 -0.303726,-0.56333 -0.472172,-0.68362 -0.168508,-0.12028 -0.381819,-0.15668 -0.74105,-0.18232 -0.212316,-0.0149 -0.370619,-0.0261 -0.546034,0 -0.175353,0.0274 -0.367694,0.0942 -0.645347,0.23521 -0.555306,0.28208 -1.454473,0.86159 -3.254051,2.02173 -0.51461,0.33173 -0.968238,0.58648 -1.367294,0.76656 -0.398994,0.18009 -0.742918,0.28575 -1.037309,0.31904 -0.393829,0.0448 -0.633213,0.0504 -0.865005,-0.0367 -0.231917,-0.0871 -0.456491,-0.26769 -0.821322,-0.59699 -0.325754,-0.29402 -0.543483,-0.5387 -0.711867,-0.83682 -0.168259,-0.29806 -0.286551,-0.64921 -0.412932,-1.15579 -0.250398,-1.00482 -0.440996,-2.13137 -0.572418,-3.32063 -0.131484,-1.18933 -0.204039,-2.44101 -0.217791,-3.69897 h -0.0062 c -2.49e-4,-0.0653 0,-0.13061 0,-0.19595 0,-0.0653 -0.0062,-0.13067 -0.0062,-0.19595 h 0.0062 c 0.01244,-1.25796 0.08382,-6.24395 0.21412,-7.4334 0.130364,-1.18952 0.319344,-2.31649 0.568809,-3.32157 0.125759,-0.50677 0.243926,-0.85754 0.412061,-1.15585 0.16801,-0.29825 0.386424,-0.54336 0.711866,-0.83769 0.364521,-0.32961 0.588659,-0.51075 0.820327,-0.59793 0.23173,-0.0872 0.471114,-0.0806 0.865005,-0.0367 0.294454,0.033 0.639,0.13845 1.038242,0.3181 0.399243,0.17971 0.853307,0.43353 1.368165,0.76482 1.800699,1.1584 2.700364,1.73748 3.255918,2.01899 0.277778,0.14075 0.468998,0.20684 0.644476,0.23422 0.175415,0.0274 0.334652,0.0156 0.546905,0 0.359231,-0.0261 0.572729,-0.0637 0.741113,-0.18413 0.168322,-0.12041 0.29184,-0.32339 0.471238,-0.68268 0.04854,-0.0968 0.07281,-0.22053 0.109394,-0.32451 l 0.01556,-9.96016 0.01244,-5.6869 0.0062,-3.21218 c -0.05663,-0.22849 -0.115429,-0.42986 -0.206902,-0.61255 -0.179771,-0.35911 -0.303663,-0.5634 -0.472171,-0.68362 -0.168446,-0.12028 -0.381882,-0.15668 -0.741051,-0.18232 -0.212315,-0.0149 -0.370619,-0.0268 -0.545972,0 -0.175415,0.0274 -0.367756,0.0942 -0.645346,0.23515 -0.555368,0.28207 -1.454535,0.86159 -3.254176,2.02179 -0.514548,0.33173 -0.968238,0.58648 -1.367294,0.76656 -0.398994,0.18009 -0.742917,0.28568 -1.037247,0.31904 -0.393891,0.0448 -0.633213,0.0504 -0.865067,-0.0367 -0.231792,-0.0871 -0.456366,-0.26775 -0.82126,-0.59706 -0.325753,-0.29401 -0.543607,-0.53862 -0.711866,-0.83675 -0.168322,-0.29812 -0.286676,-0.6492 -0.412933,-1.15579 -0.25046,-1.00489 -0.440996,-2.13136 -0.572418,-3.32069 -0.131483,-1.18927 -0.204039,-3.37434 -0.217853,-4.6323 h -0.0062 c -1.24e-4,-0.0653 0,-0.13067 0.0062,-0.19595 0,-0.0653 -0.0062,-0.13067 -0.0062,-0.19601 h 0.0062 c 0.01244,-1.2579 0.08394,-5.3105 0.214244,-6.50001 0.130302,-1.18952 0.319282,-2.31643 0.568809,-3.32157 0.125759,-0.50671 0.243926,-0.85754 0.411999,-1.15579 0.168073,-0.29825 0.386424,-0.54336 0.711866,-0.83769 0.364521,-0.32967 0.588597,-0.51075 0.820389,-0.59793 0.23173,-0.0872 0.471114,-0.0807 0.865005,-0.0367 0.294454,0.033 0.639,0.13845 1.038243,0.3181 0.39918,0.17971 0.853244,0.43353 1.368165,0.76476 1.800698,1.15846 2.700301,1.73748 3.255918,2.01899 0.277777,0.14081 0.46906,0.2069 0.644475,0.23428 0.175353,0.0274 0.33459,0.0162 0.546843,0 0.359231,-0.0261 0.572729,-0.0637 0.741113,-0.18413 0.168384,-0.12041 0.291778,-0.32345 0.471238,-0.68268 0.105287,-0.21089 0.178153,-0.42177 0.23789,-0.70739 l -0.206715,-7.00504 z"
         style="fill:#6dc2dd;fill-opacity:1;stroke:none;stroke-width:3.37654328;stroke-miterlimit:4;stroke-dasharray:none;stroke-opacity:1"
         inkscape:connector-curvature="0"
         sodipodi:nodetypes="cccccccccccccccccccccscccccccccccscccccccccccccccccsccccscccccccccccscccccsccccccccc" />
      <rect
         style="opacity:1;fill:#ffffff;fill-opacity:1;stroke:none;stroke-width:1.45317245;stroke-miterlimit:4;stroke-dasharray:none;stroke-opacity:1"
         id="rect4292"
         width="28.829397"
         height="2.509464"
         x="-94.235176"
         y="256.98297"
         transform="matrix(0.9999721,-0.00747002,0.02696542,0.99963637,0,0)"
         ry="1.254732"
         rx="2.5168488" />
      <rect
         rx="1.4116662"
         ry="1.2262005"
         transform="matrix(0.9999967,0.00256826,-0.0230192,0.99973502,0,0)"
         y="257.89404"
         x="-99.67244"
         height="2.4524009"
         width="16.333469"
         id="rect4294"
         style="opacity:1;fill:#ffffff;fill-opacity:1;stroke:none;stroke-width:1.68709779;stroke-miterlimit:4;stroke-dasharray:none;stroke-opacity:1" />
      <text
         id="text4298"
         y="281.40717"
         x="-187.6261"
         style="font-style:normal;font-variant:normal;font-weight:normal;font-stretch:normal;font-size:23.3712101px;line-height:1.25;font-family:'Bebas Neue';-inkscape-font-specification:'Bebas Neue';text-align:center;letter-spacing:0px;word-spacing:0px;text-anchor:middle;fill:#ffffff;fill-opacity:1;stroke:none;stroke-width:1.25202906"
         xml:space="preserve"><tspan
           style="font-style:normal;font-variant:normal;font-weight:normal;font-stretch:normal;font-family:Digitalt;-inkscape-font-specification:Digitalt;fill:#ffffff;stroke-width:1.25202906"
           y="281.40717"
           x="-187.6261"
           id="tspan4296"
           sodipodi:role="line">look up in pairs  key</tspan></text>
      <text
         xml:space="preserve"
         style="font-style:normal;font-variant:normal;font-weight:normal;font-stretch:normal;font-size:23.3712101px;line-height:1.25;font-family:'Bebas Neue';-inkscape-font-specification:'Bebas Neue';text-align:center;letter-spacing:0px;word-spacing:0px;text-anchor:middle;fill:#ffffff;fill-opacity:1;stroke:none;stroke-width:1.25202906"
         x="-108.45726"
         y="320.60959"
         id="text4302"><tspan
           sodipodi:role="line"
           id="tspan4300"
           x="-108.45726"
           y="320.60959"
           style="font-style:normal;font-variant:normal;font-weight:normal;font-stretch:normal;font-family:Digitalt;-inkscape-font-specification:Digitalt;fill:#ffffff;stroke-width:1.25202906">pairs</tspan></text>
      <text
         id="text4306"
         y="358.87863"
         x="-128.77013"
         style="font-style:normal;font-variant:normal;font-weight:normal;font-stretch:normal;font-size:23.3712101px;line-height:1.25;font-family:'Bebas Neue';-inkscape-font-specification:'Bebas Neue';text-align:center;letter-spacing:0px;word-spacing:0px;text-anchor:middle;fill:#ffffff;fill-opacity:1;stroke:none;stroke-width:1.25202906"
         xml:space="preserve"><tspan
           style="font-style:normal;font-variant:normal;font-weight:normal;font-stretch:normal;font-family:Digitalt;-inkscape-font-specification:Digitalt;fill:#ffffff;stroke-width:1.25202906"
           y="358.87863"
           x="-128.77013"
           id="tspan4304"
           sodipodi:role="line">notfound</tspan></text>
      <path
         style="fill:#bd295d;fill-opacity:1;stroke:#97234b;stroke-width:3.37654328;stroke-miterlimit:4;stroke-dasharray:none;stroke-opacity:1"
         d="m 101.1486,369.40495 0.11057,-37.37243 -80.299981,-0.16527 -77.01742,0.18792 -0.04978,5.30477 c -0.04542,4.82645 -0.08606,5.37764 -0.452011,6.11397 -0.357426,0.71927 -0.492084,0.81597 -1.210359,0.86929 -0.848951,0.0631 -0.846088,0.0647 -4.452028,-2.24511 -1.031087,-0.66053 -1.819242,-1.01342 -2.408212,-1.07838 -0.787969,-0.0869 -0.956353,-0.023 -1.684212,0.63763 -0.649765,0.5899 -0.870045,0.9823 -1.119572,1.99627 -0.494946,2.01115 -0.749202,4.50667 -0.769487,7.02259 h -0.0062 c 3.11e-4,0.0653 0.0062,0.13043 0.0062,0.19577 -3.11e-4,0.0653 0,0.13042 0,0.19576 h 0.0062 c 0.03236,2.5158 0.298997,5.00963 0.803712,7.01829 0.254567,1.01273 0.476715,1.40407 1.129342,1.9908 0.731094,0.65717 0.899478,0.72089 1.68726,0.62979 0.588721,-0.0678 1.375072,-0.42457 2.402985,-1.09007 3.594553,-2.32738 3.59169,-2.32577 4.441014,-2.2669 0.718463,0.0498 0.853618,0.14592 1.214591,0.86339 0.369499,0.73458 0.412933,1.28553 0.481817,6.11178 l 0.07567,5.3044 77.017483,-0.18798 z"
         id="path4326"
         inkscape:connector-curvature="0"
         sodipodi:nodetypes="cccccccccccccccccccscccccc" />
      <path
         sodipodi:nodetypes="ccccc"
         inkscape:connector-curvature="0"
         id="path4328"
         d="m 99.763068,367.7951 -0.310695,-34.31141 -153.595596,0.46657 c 38.712096,19.32593 88.800678,24.63749 120.866467,33.80756 z"
         style="fill:#d36a8b;fill-opacity:1;stroke:none;stroke-width:3.37654328;stroke-miterlimit:4;stroke-dasharray:none;stroke-opacity:1" />
      <rect
         ry="4.904458"
         rx="5.4377675"
         y="338.3656"
         x="-32.284"
         height="24.769279"
         width="111.70583"
         id="rect4330"
         style="opacity:0.5;fill:#e6e6e6;fill-opacity:1;stroke:none;stroke-width:13.24311447;stroke-miterlimit:4;stroke-dasharray:none;stroke-opacity:1" />
      <text
         id="text4334"
         y="355.83997"
         x="-40.532566"
         style="font-style:normal;font-variant:normal;font-weight:normal;font-stretch:normal;font-size:23.3712101px;line-height:1.25;font-family:'Bebas Neue';-inkscape-font-specification:'Bebas Neue';text-align:center;letter-spacing:0px;word-spacing:0px;text-anchor:middle;fill:#ffffff;fill-opacity:1;stroke:none;stroke-width:1.25202906"
         xml:space="preserve"><tspan
           style="font-style:normal;font-variant:normal;font-weight:normal;font-stretch:normal;font-family:Digitalt;-inkscape-font-specification:Digitalt;fill:#ffffff;stroke-width:1.25202906"
           y="355.83997"
           x="-40.532566"
           id="tspan4332"
           sodipodi:role="line">&quot;</tspan></text>
      <rect
         rx="2.5168488"
         ry="1.254732"
         transform="matrix(0.9999721,-0.00747002,0.02696542,0.99963637,0,0)"
         y="335.14435"
         x="42.447262"
         height="2.509464"
         width="28.829397"
         id="rect4336"
         style="opacity:1;fill:#ffffff;fill-opacity:1;stroke:none;stroke-width:1.45317245;stroke-miterlimit:4;stroke-dasharray:none;stroke-opacity:1" />
      <rect
         style="opacity:1;fill:#ffffff;fill-opacity:1;stroke:none;stroke-width:1.68709779;stroke-miterlimit:4;stroke-dasharray:none;stroke-opacity:1"
         id="rect4338"
         width="16.333469"
         height="2.4524009"
         x="40.884548"
         y="334.66733"
         transform="matrix(0.9999967,0.00256826,-0.0230192,0.99973502,0,0)"
         ry="1.2262005"
         rx="1.4116662" />
      <text
         xml:space="preserve"
         style="font-style:normal;font-variant:normal;font-weight:normal;font-stretch:normal;font-size:23.3712101px;line-height:1.25;font-family:'Bebas Neue';-inkscape-font-specification:'Bebas Neue';text-align:center;letter-spacing:0px;word-spacing:0px;text-anchor:middle;fill:#ffffff;fill-opacity:1;stroke:none;stroke-width:1.25202906"
         x="87.907974"
         y="355.83997"
         id="text4342"><tspan
           sodipodi:role="line"
           id="tspan4340"
           x="87.907974"
           y="355.83997"
           style="font-style:normal;font-variant:normal;font-weight:normal;font-stretch:normal;font-family:Digitalt;-inkscape-font-specification:Digitalt;fill:#ffffff;stroke-width:1.25202906">&quot;</tspan></text>
      <text
         id="text4348"
         y="358.93015"
         x="23.112446"
         style="font-style:normal;font-variant:normal;font-weight:normal;font-stretch:normal;font-size:23.3712101px;line-height:1.25;font-family:'Bebas Neue';-inkscape-font-specification:'Bebas Neue';text-align:center;letter-spacing:0px;word-spacing:0px;text-anchor:middle;fill:#000000;fill-opacity:1;stroke:none;stroke-width:1.25202906"
         xml:space="preserve"><tspan
           style="font-style:normal;font-variant:normal;font-weight:normal;font-stretch:normal;font-family:Digitalt;-inkscape-font-specification:Digitalt;fill:#000000;stroke-width:1.25202906"
           y="358.93015"
           x="23.112448"
           id="tspan4346"
           sodipodi:role="line">not found</tspan></text>
    </g>
  </g>
</svg>
