<?xml version="1.0" encoding="UTF-8" standalone="no"?>
<!-- Created with Inkscape (http://www.inkscape.org/) -->

<svg
   xmlns:dc="http://purl.org/dc/elements/1.1/"
   xmlns:cc="http://creativecommons.org/ns#"
   xmlns:rdf="http://www.w3.org/1999/02/22-rdf-syntax-ns#"
   xmlns:svg="http://www.w3.org/2000/svg"
   xmlns="http://www.w3.org/2000/svg"
   xmlns:sodipodi="http://sodipodi.sourceforge.net/DTD/sodipodi-0.dtd"
   xmlns:inkscape="http://www.inkscape.org/namespaces/inkscape"
   width="220.21826mm"
   height="79.420448mm"
   viewBox="0 0 220.21825 79.42045"
   version="1.1"
   id="svg2283"
   inkscape:version="0.92.3 (2405546, 2018-03-11)"
   sodipodi:docname="list_is_in_list.svg">
  <defs
     id="defs2277" />
  <sodipodi:namedview
     id="base"
     pagecolor="#ffffff"
     bordercolor="#666666"
     borderopacity="1.0"
     inkscape:pageopacity="0.0"
     inkscape:pageshadow="2"
     inkscape:zoom="0.35"
     inkscape:cx="114.35269"
     inkscape:cy="663.19872"
     inkscape:document-units="mm"
     inkscape:current-layer="layer1"
     showgrid="false"
     fit-margin-top="0"
     fit-margin-left="0"
     fit-margin-right="0"
     fit-margin-bottom="0"
     inkscape:window-width="1920"
     inkscape:window-height="1001"
     inkscape:window-x="0"
     inkscape:window-y="0"
     inkscape:window-maximized="1" />
  <metadata
     id="metadata2280">
    <rdf:RDF>
      <cc:Work
         rdf:about="">
        <dc:format>image/svg+xml</dc:format>
        <dc:type
           rdf:resource="http://purl.org/dc/dcmitype/StillImage" />
        <dc:title></dc:title>
      </cc:Work>
    </rdf:RDF>
  </metadata>
  <g
     inkscape:label="Layer 1"
     inkscape:groupmode="layer"
     id="layer1"
     transform="translate(253.63975,-244.8842)">
    <g
       id="g32">
      <path
         id="path3919"
         d="m -50.196781,246.58345 -189.595999,0.1878 -0.0504,5.30496 c -0.0454,4.8265 -0.0862,5.3772 -0.45213,6.11352 -0.35743,0.71928 -0.49221,0.81629 -1.21049,0.86961 -0.84901,0.063 -0.8459,0.0648 -4.45184,-2.24505 -1.03115,-0.66053 -1.81918,-1.01342 -2.40821,-1.07832 -0.78791,-0.0869 -0.95667,-0.0224 -1.68446,0.63807 -0.64983,0.5899 -0.8698,0.98224 -1.11933,1.99621 -0.495,2.01115 -0.74907,4.50635 -0.76936,7.02228 h -0.006 c 2.5e-4,0.0653 0.006,0.13067 0.006,0.19601 -3.1e-4,0.0653 -0.006,0.12968 0,0.19502 h 0.006 c 0.033,2.5158 0.29919,5.01001 0.8039,7.01866 0.25457,1.01273 0.47678,1.40401 1.12941,1.9908 0.73103,0.65717 0.89941,0.72089 1.68719,0.62986 0.58873,-0.0678 1.37489,-0.4247 2.40274,-1.0902 3.59468,-2.32738 3.59169,-2.32583 4.44095,-2.26696 0.71847,0.0498 0.85406,0.14573 1.21503,0.8632 0.3695,0.73458 0.41237,1.28553 0.48126,6.11172 l 0.0757,43.57407 189.597865,-0.18774 14.877761,-0.0367 0.01618,-11.18433 c -0.02738,-0.0751 -0.04418,-0.1631 -0.0784,-0.23242 -0.179772,-0.3591 -0.303726,-0.56339 -0.472172,-0.68361 -0.168508,-0.12028 -0.381819,-0.15675 -0.741051,-0.18232 -0.212253,-0.0149 -0.370618,-0.0261 -0.546033,0 -0.175354,0.0274 -0.367694,0.0941 -0.645347,0.23515 -0.555306,0.28207 -1.454473,0.86158 -3.254052,2.02172 -0.514609,0.33179 -0.968238,0.58655 -1.367293,0.76663 -0.399056,0.18002 -0.742918,0.28568 -1.037309,0.31903 -0.393829,0.0448 -0.633213,0.0504 -0.865005,-0.0367 -0.231855,-0.0871 -0.456429,-0.26776 -0.821323,-0.59706 -0.325753,-0.29402 -0.543482,-0.53869 -0.711866,-0.83675 -0.168322,-0.29813 -0.286613,-0.64921 -0.412932,-1.15585 -0.250398,-1.00483 -0.440997,-2.13131 -0.572418,-3.32064 -0.131484,-1.18926 -0.20404,-2.441 -0.217854,-3.6989 h -0.0062 c -1.87e-4,-0.0653 0,-0.13068 0,-0.19602 0,-0.0653 -0.0062,-0.13061 -0.0062,-0.19595 h 0.0062 c 0.01244,-1.25796 0.08388,-2.51032 0.214182,-3.69983 0.130301,-1.18952 0.319344,-2.31649 0.568809,-3.32157 0.125759,-0.50671 0.243988,-0.85754 0.411999,-1.15579 0.168072,-0.29825 0.386424,-0.54336 0.711928,-0.83769 0.364458,-0.32967 0.588597,-0.51075 0.820327,-0.59793 0.23173,-0.0872 0.471176,-0.0807 0.865067,-0.0367 0.294392,0.033 0.639,0.13839 1.03818,0.3181 0.399243,0.17971 0.853244,0.43353 1.368165,0.76476 1.800699,1.15846 2.700364,1.73748 3.25598,2.01899 0.277778,0.14075 0.468936,0.20684 0.644414,0.23428 0.175415,0.0274 0.334652,0.0156 0.546905,0 0.359231,-0.0261 0.572729,-0.0637 0.74105,-0.18413 0.168384,-0.12041 0.291841,-0.32345 0.471301,-0.68274 0.04854,-0.0967 0.0728,-0.22047 0.109393,-0.32451 l 0.01556,-10.89349 0.01244,-8.48714 0.0062,-3.21217 c -0.05663,-0.22844 -0.115492,-0.4298 -0.206964,-0.61249 -0.179771,-0.35911 -0.303664,-0.5634 -0.472172,-0.68368 -0.168446,-0.12022 -0.381819,-0.15669 -0.74105,-0.18226 -0.212316,-0.0149 -0.370619,-0.0268 -0.545972,0 -0.175415,0.0274 -0.367756,0.0941 -0.645347,0.23515 -0.555368,0.28207 -1.454535,0.86158 -3.254113,2.02172 -0.51461,0.33179 -0.968301,0.58655 -1.367294,0.76657 -0.399056,0.18008 -0.742918,0.28574 -1.037309,0.31903 -0.393829,0.0448 -0.633213,0.0504 -0.865005,-0.0367 -0.231855,-0.0871 -0.456429,-0.2677 -0.82126,-0.597 -0.325816,-0.29402 -0.543607,-0.53869 -0.711929,-0.83682 -0.168321,-0.29806 -0.286613,-0.64914 -0.412932,-1.15578 -0.25046,-1.00483 -0.440997,-2.13137 -0.572418,-3.32064 -0.131484,-1.18926 -0.204039,-2.441 -0.217854,-3.6989 h -0.0062 c -1.25e-4,-0.0653 0,-0.13068 0.0062,-0.19601 0,-0.0653 -0.0062,-0.13068 -0.0062,-0.19595 h 0.0062 c 0.01245,-1.25797 0.08394,-2.51033 0.214245,-3.69984 0.130301,-1.18952 0.319282,-2.31649 0.568809,-3.32157 0.125759,-0.50671 0.243926,-0.85754 0.411999,-1.15579 0.168072,-0.29831 0.386424,-0.54336 0.711866,-0.83768 0.36452,-0.32968 0.588597,-0.51076 0.820389,-0.598 0.23173,-0.0872 0.471114,-0.0806 0.865005,-0.0367 0.294454,0.033 0.638999,0.13845 1.038242,0.31816 0.39918,0.17965 0.853244,0.43347 1.368165,0.76476 1.800699,1.15846 2.700301,1.73748 3.255918,2.01899 0.277777,0.14075 0.46906,0.20684 0.644476,0.23428 0.175353,0.0274 0.33459,0.0162 0.546843,0 0.359231,-0.0261 0.572729,-0.0637 0.741112,-0.18413 0.168384,-0.12041 0.291779,-0.32345 0.471239,-0.68274 0.105286,-0.21082 0.178153,-0.42177 0.23789,-0.70733 l 0.01556,-10.50886 -15.08012,-0.16497 z"
         style="fill:#0ea7cf;fill-opacity:1;stroke:#1086a5;stroke-width:3.37654328;stroke-miterlimit:4;stroke-dasharray:none;stroke-opacity:1"
         inkscape:connector-curvature="0"
         sodipodi:nodetypes="ccccscccccccccccccccccccccccccccccccccccsccsccccccccccccccccccccccccccccccccccsccccccccccsccccc" />
      <path
         sodipodi:nodetypes="ccccccccccscccccccccccscccccccccccccccccsccccscccccccccccscccccsccccccccc"
         inkscape:connector-curvature="0"
         style="fill:#6dc2dd;fill-opacity:1;stroke:none;stroke-width:3.37654328;stroke-miterlimit:4;stroke-dasharray:none;stroke-opacity:1"
         d="m -237.59122,248.39161 c 45.87918,34.16051 162.107746,68.56264 186.331866,72.20573 l 14.877761,0.0597 0.238512,-7.58418 c -0.02738,-0.0752 -0.04418,-0.16316 -0.0784,-0.23248 -0.179772,-0.35911 -0.303726,-0.56333 -0.472172,-0.68361 -0.168508,-0.12029 -0.381819,-0.15669 -0.741051,-0.18233 -0.212315,-0.0149 -0.370618,-0.0261 -0.546034,0 -0.175353,0.0274 -0.367693,0.0941 -0.645346,0.23522 -0.555306,0.28207 -1.454473,0.86158 -3.254052,2.02172 -0.514609,0.33173 -0.968238,0.58648 -1.367293,0.76657 -0.399056,0.18008 -0.742918,0.28574 -1.037309,0.31903 -0.393892,0.0448 -0.633213,0.0504 -0.865068,-0.0367 -0.231854,-0.0871 -0.456428,-0.2677 -0.82126,-0.597 -0.325753,-0.29402 -0.543482,-0.53869 -0.711866,-0.83682 -0.168322,-0.29806 -0.286613,-0.6492 -0.412932,-1.15578 -0.250398,-1.00483 -0.440997,-2.13137 -0.572418,-3.32064 -0.131484,-1.18933 -0.20404,-2.441 -0.217854,-3.69897 h -0.0062 c -1.87e-4,-0.0653 0,-0.13061 0,-0.19595 0,-0.0653 -0.0062,-0.13067 -0.0062,-0.19595 h 0.0062 c 0.01244,-1.25796 0.08388,-6.24395 0.214182,-7.4334 0.130301,-1.18951 0.319344,-2.31649 0.568809,-3.32157 0.125758,-0.50677 0.243926,-0.85753 0.411999,-1.15585 0.168072,-0.29825 0.386424,-0.54335 0.711928,-0.83768 0.364458,-0.32962 0.588597,-0.51076 0.820327,-0.59793 0.23173,-0.0872 0.471114,-0.0806 0.865005,-0.0367 0.294454,0.033 0.638999,0.13846 1.038242,0.3181 0.399243,0.17971 0.853244,0.43353 1.368165,0.76482 1.800699,1.1584 2.700364,1.73748 3.255918,2.01899 0.277777,0.14076 0.468998,0.20684 0.644476,0.23422 0.175415,0.0274 0.334652,0.0156 0.546905,0 0.359169,-0.0261 0.572729,-0.0637 0.74105,-0.18413 0.168384,-0.1204 0.291841,-0.32339 0.471239,-0.68268 0.04854,-0.0968 0.07287,-0.22053 0.109393,-0.32451 l 0.01556,-9.96016 0.01244,-5.6869 0.0062,-3.21217 c -0.05663,-0.2285 -0.115429,-0.42986 -0.206901,-0.61256 -0.179771,-0.3591 -0.303664,-0.56339 -0.472172,-0.68361 -0.168446,-0.12029 -0.381819,-0.15669 -0.74105,-0.18233 -0.212316,-0.0149 -0.370619,-0.0267 -0.545972,0 -0.175415,0.0274 -0.367756,0.0942 -0.645347,0.23516 -0.555368,0.28207 -1.454535,0.86158 -3.254176,2.02178 -0.514547,0.33173 -0.968238,0.58649 -1.367231,0.76657 -0.399056,0.18008 -0.742918,0.28568 -1.037309,0.31903 -0.393829,0.0448 -0.633213,0.0504 -0.865005,-0.0367 -0.231855,-0.0871 -0.456429,-0.26776 -0.821322,-0.59706 -0.325754,-0.29402 -0.543545,-0.53863 -0.711867,-0.83676 -0.168321,-0.29812 -0.286675,-0.6492 -0.412932,-1.15578 -0.25046,-1.00489 -0.440997,-2.13137 -0.572418,-3.3207 -0.131484,-1.18926 -0.204039,-3.37433 -0.217854,-4.6323 h -0.0062 c -1.25e-4,-0.0653 0,-0.13067 0.0062,-0.19595 0,-0.0653 -0.0062,-0.13067 -0.0062,-0.19601 h 0.0062 c 0.01245,-1.2579 0.08394,-5.3105 0.214245,-6.50001 0.130301,-1.18952 0.319282,-2.31643 0.568809,-3.32157 0.125758,-0.5067 0.243926,-0.85754 0.411999,-1.15579 0.168072,-0.29824 0.386424,-0.54335 0.711866,-0.83768 0.36452,-0.32968 0.588597,-0.51075 0.820389,-0.59793 0.23173,-0.0872 0.471114,-0.0807 0.865005,-0.0367 0.294454,0.033 0.638999,0.13846 1.038242,0.3181 0.39918,0.17971 0.853244,0.43353 1.368165,0.76476 1.800699,1.15846 2.700301,1.73748 3.255918,2.01899 0.277777,0.14082 0.46906,0.2069 0.644476,0.23428 0.175353,0.0274 0.33459,0.0162 0.546843,0 0.359231,-0.0261 0.572729,-0.0637 0.741112,-0.18413 0.168384,-0.1204 0.291779,-0.32345 0.471239,-0.68268 0.105286,-0.21088 0.178153,-0.42177 0.23789,-0.70739 l -0.206715,-7.00504 z"
         id="path3921" />
      <rect
         rx="2.5168488"
         ry="1.254732"
         transform="matrix(0.9999721,-0.00747002,0.02696542,0.99963637,0,0)"
         y="249.08182"
         x="-72.754524"
         height="2.509464"
         width="28.829397"
         id="rect3923"
         style="opacity:1;fill:#ffffff;fill-opacity:1;stroke:none;stroke-width:1.45317245;stroke-miterlimit:4;stroke-dasharray:none;stroke-opacity:1" />
      <rect
         style="opacity:1;fill:#ffffff;fill-opacity:1;stroke:none;stroke-width:1.68709779;stroke-miterlimit:4;stroke-dasharray:none;stroke-opacity:1"
         id="rect3925"
         width="16.333469"
         height="2.4524009"
         x="-78.592216"
         y="249.77913"
         transform="matrix(0.9999967,0.00256826,-0.0230192,0.99973502,0,0)"
         ry="1.2262005"
         rx="1.4116662" />
      <text
         xml:space="preserve"
         style="font-style:normal;font-variant:normal;font-weight:normal;font-stretch:normal;font-size:23.3712101px;line-height:1.25;font-family:'Bebas Neue';-inkscape-font-specification:'Bebas Neue';text-align:center;letter-spacing:0px;word-spacing:0px;text-anchor:middle;fill:#ffffff;fill-opacity:1;stroke:none;stroke-width:1.25202906"
         x="-141.76474"
         y="273.34848"
         id="text3929"><tspan
           sodipodi:role="line"
           id="tspan3927"
           x="-141.76474"
           y="273.34848"
           style="font-style:normal;font-variant:normal;font-weight:normal;font-stretch:normal;font-family:Digitalt;-inkscape-font-specification:Digitalt;fill:#ffffff;stroke-width:1.25202906">is in list?  thing</tspan></text>
      <text
         id="text3933"
         y="312.5509"
         x="-79.091553"
         style="font-style:normal;font-variant:normal;font-weight:normal;font-stretch:normal;font-size:23.3712101px;line-height:1.25;font-family:'Bebas Neue';-inkscape-font-specification:'Bebas Neue';text-align:center;letter-spacing:0px;word-spacing:0px;text-anchor:middle;fill:#ffffff;fill-opacity:1;stroke:none;stroke-width:1.25202906"
         xml:space="preserve"><tspan
           style="font-style:normal;font-variant:normal;font-weight:normal;font-stretch:normal;font-family:Digitalt;-inkscape-font-specification:Digitalt;fill:#ffffff;stroke-width:1.25202906"
           y="312.5509"
           x="-79.091553"
           id="tspan3931"
           sodipodi:role="line">list</tspan></text>
    </g>
  </g>
</svg>
